<svg xmlns="http://www.w3.org/2000/svg" width="109" height="109" viewBox="0 0 109 109"><g xmlns:kvg="http://kanjivg.tagaini.net" id="kvg:StrokePaths_030c0" style="fill:none;stroke:#000000;stroke-width:3;stroke-linecap:round;stroke-linejoin:round;"><g id="kvg:030c0"><path id="kvg:030c0-s1" d="M48.83,19.75c0.43,1.72,0.39,4-0.58,5.89c-4.77,9.34-9.1,17.82-18.63,27.73"/><path id="kvg:030c0-s2" d="M49.75,30.38c2.5,0.62,5.67-0.14,7.62-0.62c6-1.5,10.5-2.62,15.88-4.12c5.79-1.62,8.22,0.31,5.88,5.62c-10.88,24.62-22.13,43.99-50.13,59.99"/><path id="kvg:030c0-s3" d="M43.38,45.62c6.75,3.5,10.62,7.88,14.75,15.25"/><path id="kvg:030c0-s4" d="M83.62,14.19c2.95,1.81,6.43,5.57,8.3,8.81"/><path id="kvg:030c0-s5" d="M90.12,9.38c3.02,1.63,6.58,5,8.5,7.9"/></g></g></svg>