<svg xmlns="http://www.w3.org/2000/svg" width="109" height="109" viewBox="0 0 109 109"><g xmlns:kvg="http://kanjivg.tagaini.net" id="kvg:StrokePaths_04e16" style="fill:none;stroke:#000000;stroke-width:3;stroke-linecap:round;stroke-linejoin:round;"><g id="kvg:04e16" kvg:element="&#19990;"><g id="kvg:04e16-g1" kvg:element="&#24319;"><g id="kvg:04e16-g2" kvg:element="&#21313;"><g id="kvg:04e16-g3" kvg:element="&#19968;" kvg:radical="tradit"><path id="kvg:04e16-s1" kvg:type="&#12752;" d="M11.25,47.7c2.75,0.68,7.22,0.76,9.77,0.54c20.36-1.74,48.36-4.37,69.57-4.98c4.24-0.12,6.79,0.26,8.92,0.53"/></g><g id="kvg:04e16-g4" kvg:element="&#20008;" kvg:radical="nelson"><path id="kvg:04e16-s2" kvg:type="&#12753;" d="M53.37,17.5c0.94,0.94,1.4,2.48,1.46,3.5c0.14,2.54,0.69,31.98,0.8,44.88c0.02,2.36,0.02,4.16-0.02,5.12"/></g></g><path id="kvg:04e16-s3" kvg:type="&#12753;a" d="M77.37,15.5c0.82,0.81,1.5,2.23,1.46,3.25c-0.18,5.03-2.39,44.69-2.47,46"/><path id="kvg:04e16-s4" kvg:type="&#12752;b" d="M56.25,67c4.07-0.2,13.17-0.95,19.13-1.31c1.55-0.09,2.89-0.16,3.87-0.19"/></g><path id="kvg:04e16-s5" kvg:type="&#12759;" d="M29.87,23.75c0.94,0.94,1.46,2.48,1.46,3.5c0.05,18.88-0.95,41.12-1.83,56.5c-0.21,3.75,0.38,6.66,3.75,6.25c20.75-2.5,34-3.88,51-3.25c3.26,0.12,6,0.75,7.25,1"/></g></g></svg>