<svg xmlns="http://www.w3.org/2000/svg" width="109" height="109" viewBox="0 0 109 109"><g xmlns:kvg="http://kanjivg.tagaini.net" id="kvg:StrokePaths_04e15" style="fill:none;stroke:#000000;stroke-width:3;stroke-linecap:round;stroke-linejoin:round;"><g id="kvg:04e15" kvg:element="&#19989;"><g id="kvg:04e15-g1" kvg:element="&#19981;" kvg:position="top"><g id="kvg:04e15-g2" kvg:element="&#19968;" kvg:radical="general"><path id="kvg:04e15-s1" kvg:type="&#12752;" d="M22.06,19.17c1.41,0.4,3.99,0.45,5.39,0.4c10.55-0.32,41.6-3.62,57.05-4.35c2.34-0.11,3.75,0.19,4.92,0.4"/></g><g id="kvg:04e15-g3" kvg:element="&#20031;"><path id="kvg:04e15-s2" kvg:type="&#12754;" d="M58.95,20.55c0.12,1.04,0.26,2.69-0.25,4.18c-3.01,8.81-20.29,28.15-43.94,39.99"/></g><g id="kvg:04e15-g4" kvg:element="&#20008;"><path id="kvg:04e15-s3" kvg:type="&#12753;" d="M52.29,40.03c0.98,0.45,1.56,2.02,1.76,2.92c0.2,0.9,0,38-0.2,43.61"/></g><path id="kvg:04e15-s4" kvg:type="&#12756;" d="M61.47,40.51c8.87,3.89,19.8,13.3,25.13,22.04"/></g><g id="kvg:04e15-g5" kvg:element="&#19968;" kvg:position="bottom" kvg:radical="general"><path id="kvg:04e15-s5" kvg:type="&#12752;" d="M16.31,94.14c1.58,0.43,4.47,0.44,6.06,0.43c11.25-0.08,46.17-3.33,63.53-4.11c2.63-0.12,4.21,0.21,5.53,0.42"/></g></g></g></svg>