<svg xmlns="http://www.w3.org/2000/svg" width="109" height="109" viewBox="0 0 109 109"><g xmlns:kvg="http://kanjivg.tagaini.net" id="kvg:StrokePaths_04e1e" style="fill:none;stroke:#000000;stroke-width:3;stroke-linecap:round;stroke-linejoin:round;"><g id="kvg:04e1e" kvg:element="&#19998;"><g id="kvg:04e1e-g1" kvg:position="top"><g id="kvg:04e1e-g2" kvg:element="&#20102;"><path id="kvg:04e1e-s1" kvg:type="&#12743;" d="M30.54,19.18c2.46,1.15,5.67,1.53,8.34,1.19c9.87-1.25,23.37-3.75,30.15-4.62c2.2-0.28,4.11,1.88,2.05,3.94C67,23.75,57.35,32.02,51.57,36.3"/><g id="kvg:04e1e-g3" kvg:element="&#20101;"><path id="kvg:04e1e-s2" kvg:type="&#12762;" d="M48.53,37.14C57,43.5,60.75,63.75,53.66,78.75c-3.42,7.24-5.53,0.75-7-1.96"/></g></g><g id="kvg:04e1e-g4" kvg:element="&#27700;" kvg:partial="true"><path id="kvg:04e1e-s3" kvg:type="&#12743;" d="M21.5,53c1.5,0.25,3.2,0.32,4.75,0c3-0.62,8.59-2.75,11.09-3.75s4.5,1.25,3.75,3.5C39.34,58,29.38,74.5,19.5,81"/><path id="kvg:04e1e-s4" kvg:type="&#12754;" d="M79.26,40.5c-0.14,1-0.47,1.92-1.1,2.62c-3.41,3.76-6.03,6.01-11.91,9.63"/><path id="kvg:04e1e-s5" kvg:type="&#12751;" d="M55.75,46.75c6.74,8.16,17.48,17.94,25.33,25.19C84,74.62,86,75.88,89,77.25"/></g></g><g id="kvg:04e1e-g5" kvg:element="&#19968;" kvg:position="bottom" kvg:radical="general"><path id="kvg:04e1e-s6" kvg:type="&#12752;" d="M15.25,92.14c3.53,1.17,7.6,1,11.23,0.71c15.62-1.26,40.03-2.49,55.64-2.85c4.24-0.1,8.47,0.03,12.62,0.86"/></g></g></g></svg>