<svg xmlns="http://www.w3.org/2000/svg" width="109" height="109" viewBox="0 0 109 109"><g xmlns:kvg="http://kanjivg.tagaini.net" id="kvg:StrokePaths_04e3b" style="fill:none;stroke:#000000;stroke-width:3;stroke-linecap:round;stroke-linejoin:round;"><g id="kvg:04e3b" kvg:element="&#20027;"><g id="kvg:04e3b-g1" kvg:element="&#20128;" kvg:part="1" kvg:variant="true" kvg:position="top" kvg:radical="nelson"><g id="kvg:04e3b-g2" kvg:element="&#20022;" kvg:radical="tradit"><path id="kvg:04e3b-s1" kvg:type="&#12756;" d="M42.5,14.38c4.89,1.83,12.09,6.99,13.31,9.84"/></g></g><g id="kvg:04e3b-g3" kvg:element="&#29579;" kvg:original="&#29577;" kvg:partial="true" kvg:position="bottom"><g id="kvg:04e3b-g4" kvg:element="&#20128;" kvg:part="2" kvg:variant="true" kvg:radical="nelson"><path id="kvg:04e3b-s2" kvg:type="&#12752;" d="M25,39.36c2.59,0.85,5.96,0.5,8.63,0.17c12.89-1.59,25.99-4.01,39.63-4.75c2.53-0.14,5.01-0.11,7.5,0.43"/></g><path id="kvg:04e3b-s3" kvg:type="&#12753;a" d="M52.75,39.83c1.27,1.27,1.75,2.83,1.75,3.75c0,6.41,0.25,38.3,0.25,45.17"/><path id="kvg:04e3b-s4" kvg:type="&#12752;" d="M27.75,64.82c2,0.43,4.84,0.43,6.88,0.16c11.12-1.48,25.35-3.34,36.62-4.26c2.68-0.22,5.88-0.34,8.13,0.14"/><path id="kvg:04e3b-s5" kvg:type="&#12752;" d="M15.5,92.76c2.69,0.62,6.06,0.7,8.22,0.5c17.03-1.51,42.29-5.39,60.96-5.3c3.48,0.02,6.58,0.24,8.33,0.69"/></g></g></g></svg>