<svg xmlns="http://www.w3.org/2000/svg" width="109" height="109" viewBox="0 0 109 109"><g xmlns:kvg="http://kanjivg.tagaini.net" id="kvg:StrokePaths_04e38" style="fill:none;stroke:#000000;stroke-width:3;stroke-linecap:round;stroke-linejoin:round;"><g id="kvg:04e38" kvg:element="&#20024;"><g id="kvg:04e38-g1" kvg:element="&#20061;"><g id="kvg:04e38-g2" kvg:element="&#20031;" kvg:radical="nelson"><path id="kvg:04e38-s1" kvg:type="&#12754;" d="M44.38,17.38c1.32,1.32,1.5,2.86,1.52,4.63c0.4,39.04-9.39,57.25-28.52,68.25"/></g><g id="kvg:04e38-g3" kvg:element="&#20057;"><path id="kvg:04e38-s2" kvg:type="&#12744;" d="M20.5,43.75c2.88,0.12,4.55-0.06,7.04-0.75c7.21-2,31.46-9,36.49-10.75c2.28-0.79,4.84,0.95,4.1,3.75c-1.09,4.12-4.39,24-5.14,35.5c-0.77,11.82,0.75,18.45,15.72,18.45c14.53,0,15.26-1.45,15.26-11.7"/></g></g><g id="kvg:04e38-g4" kvg:element="&#20022;" kvg:radical="tradit"><path id="kvg:04e38-s3" kvg:type="&#12756;" d="M30.75,57.5C39.5,60.25,47,68,50.06,72.72"/></g></g></g></svg>