<svg xmlns="http://www.w3.org/2000/svg" width="109" height="109" viewBox="0 0 109 109"><g xmlns:kvg="http://kanjivg.tagaini.net" id="kvg:StrokePaths_04e4e" style="fill:none;stroke:#000000;stroke-width:3;stroke-linecap:round;stroke-linejoin:round;"><g id="kvg:04e4e" kvg:element="&#20046;"><g id="kvg:04e4e-g1" kvg:element="&#20031;" kvg:radical="general"><path id="kvg:04e4e-s1" kvg:type="&#12754;" d="M68.75,12c-0.51,1.5-1.43,2.55-2.71,3.24c-7.91,4.26-16.41,8.26-33.79,12.8"/></g><path id="kvg:04e4e-s2" kvg:type="&#12756;" d="M29.02,35.08c3.46,2.49,9.18,10.25,10.04,14.13"/><path id="kvg:04e4e-s3" kvg:type="&#12754;" d="M82.52,25.64c-0.11,1.03-0.23,2.1-0.77,2.98c-3.25,5.25-6.33,10.21-12.69,16.59"/><path id="kvg:04e4e-s4" kvg:type="&#12752;" d="M15.25,57.2c5.26,0.59,10.47,0.46,15.63-0.4c14.18-2.05,36.21-4.92,50.62-5.5c4.61-0.32,9.19-0.15,13.75,0.49"/><g id="kvg:04e4e-g2" kvg:element="&#20101;"><path id="kvg:04e4e-s5" kvg:type="&#12762;" d="M51.66,24.71C61.5,35,60.5,71,57.48,89.34c-1.57,9.51-9.1,2.91-12.5,0.07"/></g></g></g></svg>