<svg xmlns="http://www.w3.org/2000/svg" width="109" height="109" viewBox="0 0 109 109"><g xmlns:kvg="http://kanjivg.tagaini.net" id="kvg:StrokePaths_04e43" style="fill:none;stroke:#000000;stroke-width:3;stroke-linecap:round;stroke-linejoin:round;"><g id="kvg:04e43" kvg:element="&#20035;"><g id="kvg:04e43-g1" kvg:element="&#20031;" kvg:radical="general"><path id="kvg:04e43-s1" kvg:type="&#12754;" d="M48.15,24.18c0.6,1.32,0.75,3.4,0.3,5.55C45.14,45.7,37.25,68.75,13.14,85.9"/></g><path id="kvg:04e43-s2" kvg:type="&#12748;" d="M29.75,21c3.21,1.38,6.92,0.67,10.25,0.34c12.1-1.19,26.2-2.61,37.61-4.12c4.03-0.54,6.86,0.6,4.79,4.85C66.25,55.25,60.88,49.75,87.76,44.8c4.26-0.78,4.9,1.32,3.77,4.96C88.08,60.95,82.68,77,74.85,87.2c-4.01,5.23-9.32,8.85-13.35,1.8"/></g></g></svg>