<svg xmlns="http://www.w3.org/2000/svg" width="109" height="109" viewBox="0 0 109 109"><g xmlns:kvg="http://kanjivg.tagaini.net" id="kvg:StrokePaths_04e4b" style="fill:none;stroke:#000000;stroke-width:3;stroke-linecap:round;stroke-linejoin:round;"><g id="kvg:04e4b" kvg:element="&#20043;"><g id="kvg:04e4b-g1" kvg:element="&#20128;" kvg:variant="true" kvg:radical="nelson"><g id="kvg:04e4b-g2" kvg:element="&#20022;" kvg:variant="true" kvg:radical="tradit"><path id="kvg:04e4b-s1" kvg:type="&#12753;a" d="M50.65,16.5c1.3,1.3,1.42,2.5,1.42,4.52c0,3.9-0.06,12.06-0.06,15.6"/></g><path id="kvg:04e4b-s2" kvg:type="&#12743;" d="M23.58,41.5c2.54,1.13,5.41,0.73,8.07,0.26c10.23-1.81,30.92-5.79,38.18-7.01c5.92-1,7.65,2.76,2.5,6.5C55.62,53.38,41.5,62,24,71.25"/></g><path id="kvg:04e4b-s3" kvg:type="&#12751;" d="M14.75,72.5c2.75-0.25,5.37,0.07,7.17,0.37c18.58,3.13,33.83,10,50.39,14.99C78.76,89.81,81.5,90.38,87,91"/></g></g></svg>