<svg xmlns="http://www.w3.org/2000/svg" width="109" height="109" viewBox="0 0 109 109"><g xmlns:kvg="http://kanjivg.tagaini.net" id="kvg:StrokePaths_04e55" style="fill:none;stroke:#000000;stroke-width:3;stroke-linecap:round;stroke-linejoin:round;"><g id="kvg:04e55" kvg:element="&#20053;"><g id="kvg:04e55-g1" kvg:element="&#21378;" kvg:variant="true"><path id="kvg:04e55-s1" kvg:type="&#12754;" d="M77.2,10c-0.2,1-0.5,1.92-1.26,2.28C66.46,16.78,54,21,28.25,23.54"/><g id="kvg:04e55-g2" kvg:element="&#20031;" kvg:radical="tradit"><path id="kvg:04e55-s2" kvg:type="&#12754;" d="M23.27,22.25c0.73,1.25,1.12,2.54,1.12,5.02c0,22.65,0.35,48.23-13.34,67.94"/></g></g><g id="kvg:04e55-g3" kvg:element="&#20108;"><g id="kvg:04e55-g4" kvg:position="top"><path id="kvg:04e55-s3" kvg:type="&#12752;" d="M29.5,37.53c1.09,0.4,3.1,0.48,4.19,0.4c7.62-0.56,40.09-4.57,50.48-4.57c1.82,0,2.92,0.19,3.83,0.39"/></g><g id="kvg:04e55-g5" kvg:position="bottom"><path id="kvg:04e55-s4" kvg:type="&#12752;" d="M29.75,50.28c1.09,0.4,3.1,0.48,4.19,0.4c7.62-0.56,44.09-4.07,54.48-4.07c1.82,0,2.92,0.19,3.83,0.39"/></g></g><g id="kvg:04e55-g6" kvg:element="&#24062;"><path id="kvg:04e55-s5" kvg:type="&#12753;" d="M31.56,64.18c0.67,0.43,2.12,3.22,2.21,4.09c0.48,4.48,1.98,15.48,2.48,21.73"/><path id="kvg:04e55-s6" kvg:type="&#12742;a" d="M33.37,65.61c4.18-0.3,45.18-4.26,48.3-4.26c2.83,0,3.97,1.8,3.83,3.76C85,72.25,84,78.5,81.66,85.58c-2.25,6.79-5.51,0.96-7.27-1.44"/><path id="kvg:04e55-s7" kvg:type="&#12753;" d="M55.81,22.5c0.76,0.45,2.36,3.35,2.51,4.25c0.15,0.9-0.1,68.65-0.25,74.25"/></g></g></g></svg>