<svg xmlns="http://www.w3.org/2000/svg" width="109" height="109" viewBox="0 0 109 109"><g xmlns:kvg="http://kanjivg.tagaini.net" id="kvg:StrokePaths_04e56" style="fill:none;stroke:#000000;stroke-width:3;stroke-linecap:round;stroke-linejoin:round;"><g id="kvg:04e56" kvg:element="&#20054;"><g id="kvg:04e56-g1" kvg:element="&#21315;"><g id="kvg:04e56-g2" kvg:element="&#20031;" kvg:position="top" kvg:radical="general"><path id="kvg:04e56-s1" kvg:type="&#12754;" d="M70.63,10.42c0.11,0.33-0.89,2.09-1.54,2.45c-4.95,2.73-17.52,7.24-39.46,11.04"/></g><g id="kvg:04e56-g3" kvg:element="&#21313;" kvg:position="bottom"><path id="kvg:04e56-s2" kvg:type="&#12752;" d="M16.63,34.33c1.52,0.47,5.31,0.58,6.82,0.47c17.55-1.3,44.3-4.8,67.11-6c2.53-0.13,4.05,0.22,5.31,0.46"/><path id="kvg:04e56-s3" kvg:type="&#12753;" d="M52.57,20.75c1.23,0.52,2.22,3.89,2.46,4.93c0.25,1.04-0.16,67.83-0.41,74.32"/></g></g><g id="kvg:04e56-g4" kvg:element="&#21271;"><g id="kvg:04e56-g5" kvg:position="left"><path id="kvg:04e56-s4" kvg:type="&#12752;" d="M16,56.55c1.92,0.41,2.4,0.61,4.31,0.61c1.92,0,16.05-3.25,17.73-3.25"/><path id="kvg:04e56-s5" kvg:type="&#12753;" d="M36.19,39.94c1.05,0.89,1.92,1.92,1.92,2.51s0.17,28.87,0.17,30.49"/><path id="kvg:04e56-s6" kvg:type="&#12736;" d="M16.76,79.55c2.09,1.33,3.69,1.4,5.23,0.74c9.24-3.98,17.7-8.17,22.58-10.38"/></g><g id="kvg:04e56-g6" kvg:element="&#21269;" kvg:position="right"><path id="kvg:04e56-s7" kvg:type="&#12754;" d="M92.05,42.08c0.16,0.24,0.22,0.91-0.15,1.31c-3.54,3.83-12.26,9.45-19.92,11.45"/><path id="kvg:04e56-s8" kvg:type="&#12767;" d="M68.22,37.5c0.53,0.59,1.24,1.75,1.24,2.94c0,0.8,0.18,28.77,0.18,31.2c0,6.23,6.9,5.64,12.51,5.64c8.1,0,12.34-2.04,12.34-8.01"/></g></g></g></g></svg>