<svg xmlns="http://www.w3.org/2000/svg" width="109" height="109" viewBox="0 0 109 109"><g xmlns:kvg="http://kanjivg.tagaini.net" id="kvg:StrokePaths_04e62" style="fill:none;stroke:#000000;stroke-width:3;stroke-linecap:round;stroke-linejoin:round;"><g id="kvg:04e62" kvg:element="&#20066;"><g id="kvg:04e62-g1" kvg:element="&#23665;" kvg:position="left" kvg:radical="general"><path id="kvg:04e62-s1" kvg:type="&#12753;a" d="M27.2,17.25c0.61,0.36,2.01,2.69,2.01,3.42c0,7.55,0.25,42.97,0.25,52.65"/><path id="kvg:04e62-s2" kvg:type="&#12740;a" d="M12.79,43.51c0.67,0.4,1.39,2.07,1.33,2.88c-0.37,5.52,0.13,20.56-1.2,28.86c-0.29,1.8,0.19,2.22,1.82,1.81c9.26-2.31,18.51-4.31,29.76-6.61"/><path id="kvg:04e62-s3" kvg:type="&#12753;" d="M45.22,38.66c0.67,0.4,1.33,2.96,1.33,3.76c0,6.21-0.8,22.07-1.92,32.81"/></g><g id="kvg:04e62-g2" kvg:element="&#20057;" kvg:variant="true" kvg:position="right"><path id="kvg:04e62-s4" kvg:type="&#12767;" d="M64.49,13.87c0.62,1.19,1.12,2.59,1.15,4.43c0.17,8.19-0.44,60.14-0.44,65.7c0,13,7.48,11.53,14.83,11.53c7.76,0,12.88-1.68,13.97-2.62c2.31-2,1.68-3,1.89-6.5"/></g></g></g></svg>