<svg xmlns="http://www.w3.org/2000/svg" width="109" height="109" viewBox="0 0 109 109"><g xmlns:kvg="http://kanjivg.tagaini.net" id="kvg:StrokePaths_04e80" style="fill:none;stroke:#000000;stroke-width:3;stroke-linecap:round;stroke-linejoin:round;"><g id="kvg:04e80" kvg:element="&#20096;" kvg:variant="true" kvg:original="&#40860;" kvg:radical="general"><g id="kvg:04e80-g1" kvg:element="&#131210;" kvg:variant="true" kvg:original="&#21241;" kvg:position="top"><path id="kvg:04e80-s1" kvg:type="&#12754;" d="M43.25,11.25c0.15,1.12,0.01,2.07-0.65,3C39,19.38,32.38,25.62,20.75,31.5"/><path id="kvg:04e80-s2" kvg:type="&#12743;" d="M42.75,15.72c6.25-0.6,17.02-2.51,19.97-2.74c2.53-0.19,3.28,2.02,2.28,3.05c-4.88,4.97-7.13,8-11.83,13.47"/></g><g id="kvg:04e80-g2" kvg:position="bottom"><g id="kvg:04e80-g3" kvg:element="&#26085;"><path id="kvg:04e80-s3" kvg:type="&#12753;" d="M29.32,32.43c0.89,0.93,1.24,2.33,1.46,3.53c0.96,5.17,1.81,9.31,2.58,14.55c0.21,1.41,0.41,2.82,0.6,4.2"/><path id="kvg:04e80-s4" kvg:type="&#12757;a" d="M31.8,33.95c11.26-1.8,33.02-4.53,42.95-5.27c3.42-0.26,6.17,0.76,5.4,4.7c-0.61,3.1-2.05,7.82-3.43,12.45c-0.46,1.54-0.93,3.1-1.41,4.63"/><path id="kvg:04e80-s5" kvg:type="&#12752;a" d="M33.11,42.87c11.26-1.74,34.76-3.87,44.65-4.3"/><path id="kvg:04e80-s6" kvg:type="&#12752;a" d="M34.79,52.41c11.96-1.66,29.05-3.13,40.02-3.8"/></g><g id="kvg:04e80-g4" kvg:element="&#26085;"><path id="kvg:04e80-s7" kvg:type="&#12753;" d="M24.83,62.09c0.79,0.79,1.05,1.91,1.28,3c1.09,5.1,1.73,11.04,2.41,17.4c0.18,1.65,0.35,3.25,0.52,4.76"/><path id="kvg:04e80-s8" kvg:type="&#12757;a" d="M26.67,64.33c13.08-2.08,35.71-4.83,50.54-6.03c2.86-0.23,5.07,1.44,4.56,4.34c-0.77,4.33-1.68,8.91-2.79,13.91c-0.39,1.76-1.02,3.46-1.32,5"/><path id="kvg:04e80-s9" kvg:type="&#12752;a" d="M28.6,74.1c14.19-2.11,39.03-4.72,50.67-5.41"/><path id="kvg:04e80-s10" kvg:type="&#12752;a" d="M29.9,83.97c15.85-2.47,37.68-4.54,47.51-5.19"/></g><path id="kvg:04e80-s11" kvg:type="&#12767;" d="M51.74,33.62c0.88,0.88,1.12,2.34,1.12,4.18c0,8.33-0.03,39.33-0.03,45.7c0,10.5,2.17,12.53,20.42,12.53c17.25,0,19.25-1.28,19.39-11.87"/></g></g></g></svg>