<svg xmlns="http://www.w3.org/2000/svg" width="109" height="109" viewBox="0 0 109 109"><g xmlns:kvg="http://kanjivg.tagaini.net" id="kvg:StrokePaths_04e98" style="fill:none;stroke:#000000;stroke-width:3;stroke-linecap:round;stroke-linejoin:round;"><g id="kvg:04e98" kvg:element="&#20120;"><g id="kvg:04e98-g1" kvg:element="&#20108;" kvg:part="1" kvg:position="top" kvg:radical="tradit"><g id="kvg:04e98-g2" kvg:element="&#19968;" kvg:radical="nelson"><path id="kvg:04e98-s1" kvg:type="&#12752;" d="M25,20.5c3.75,1,7.6,0.4,10.74,0.14c10.57-0.88,29.58-2.37,40.13-2.82c3.24-0.14,6.69-0.19,9.87,0.58"/></g></g><g id="kvg:04e98-g3" kvg:element="&#26086;" kvg:position="bottom"><g id="kvg:04e98-g4" kvg:element="&#26085;" kvg:position="top"><path id="kvg:04e98-s2" kvg:type="&#12753;" d="M30.77,36.15c1.1,1.1,1.36,2.48,1.55,4.23c0.14,1.33,1.33,16.53,2.13,26.88c0.25,3.26,0.47,6.04,0.6,7.75"/><path id="kvg:04e98-s3" kvg:type="&#12757;a" d="M32.6,37.3c11.03-1.3,32.15-2.8,41.45-3.04c3.31-0.15,4.45,1.49,4.18,3.98c-0.18,3.74-1.76,17.46-3.2,27.02c-0.4,2.63-0.79,4.95-1.13,6.66"/><path id="kvg:04e98-s4" kvg:type="&#12752;a" d="M34.52,53.19c7.23-0.44,35.78-2.21,41.38-2.21"/><path id="kvg:04e98-s5" kvg:type="&#12752;a" d="M35.87,71.4c10-0.52,27.88-1.92,37.34-1.92"/></g><g id="kvg:04e98-g5" kvg:element="&#20108;" kvg:part="2" kvg:position="bottom" kvg:radical="tradit"><g id="kvg:04e98-g6" kvg:element="&#19968;"><path id="kvg:04e98-s6" kvg:type="&#12752;" d="M15.5,90.25c3.97,1.32,9.19,0.8,13.25,0.45c15.37-1.33,36-2.33,52.25-2.79c4.35-0.12,8.48-0.26,12.75,0.59"/></g></g></g></g></g></svg>