<svg xmlns="http://www.w3.org/2000/svg" width="109" height="109" viewBox="0 0 109 109"><g xmlns:kvg="http://kanjivg.tagaini.net" id="kvg:StrokePaths_04e95" style="fill:none;stroke:#000000;stroke-width:3;stroke-linecap:round;stroke-linejoin:round;"><g id="kvg:04e95" kvg:element="&#20117;"><g id="kvg:04e95-g1" kvg:element="&#20108;" kvg:part="1" kvg:radical="tradit"><path id="kvg:04e95-s1" kvg:type="&#12752;" d="M23.5,36.9c2.13,0.77,4.95,0.45,7.14,0.16c10.59-1.37,37.06-3.96,49.24-4.82c2.63-0.19,4.81-0.18,7.38,0.38"/></g><g id="kvg:04e95-g2" kvg:element="&#24318;"><g id="kvg:04e95-g3" kvg:element="&#20108;" kvg:part="2" kvg:radical="tradit"><g id="kvg:04e95-g4" kvg:element="&#21313;" kvg:part="1"><path id="kvg:04e95-s2" kvg:type="&#12752;" d="M14.25,62.95c3.44,1.23,7.55,0.89,11.12,0.49c12.88-1.44,42.51-4.32,61.11-5.17c3.37-0.15,6.23,0.06,9.52,0.77"/></g></g><g id="kvg:04e95-g5" kvg:element="&#20031;" kvg:radical="nelson"><path id="kvg:04e95-s3" kvg:type="&#12754;" d="M40,16.5c0.75,1,0.98,2.47,1,3.5c1.12,55.5-2.38,62-19.25,78.25"/></g><g id="kvg:04e95-g6" kvg:element="&#21313;" kvg:part="2"><path id="kvg:04e95-s4" kvg:type="&#12753;" d="M66.62,11.25c0.88,0.88,1.21,2.25,1.21,3.5c0,0.73-0.06,54.49-0.07,77.38c0,3.92,0,6.94,0,8.62"/></g></g></g></g></svg>