<svg xmlns="http://www.w3.org/2000/svg" width="109" height="109" viewBox="0 0 109 109"><g xmlns:kvg="http://kanjivg.tagaini.net" id="kvg:StrokePaths_04e94" style="fill:none;stroke:#000000;stroke-width:3;stroke-linecap:round;stroke-linejoin:round;"><g id="kvg:04e94" kvg:element="&#20116;"><g id="kvg:04e94-g1" kvg:element="&#20108;" kvg:part="1" kvg:radical="tradit"><g id="kvg:04e94-g2" kvg:element="&#19968;" kvg:radical="nelson"><path id="kvg:04e94-s1" kvg:type="&#12752;" d="M31.75,23.15c2.8,0.67,5.54,0.42,8.36,0.12c9.3-0.99,22.18-2.4,34.14-3.21c2.49-0.17,5.04-0.33,7.5,0.2"/></g></g><path id="kvg:04e94-s2" kvg:type="&#12753;a" d="M55.75,25.25c0.62,1.25,1.02,3.01,0.5,5c-3.12,11.88-14,44.12-19.75,59"/><path id="kvg:04e94-s3" kvg:type="&#12757;c" d="M25.5,55.25c2.07,1.24,4.73,1.03,7,0.81c15.49-1.45,29.89-3.03,42.25-4.06c3-0.25,4.25,1.75,3.5,3.75c-2.24,5.96-6,20.75-7.75,31.5"/><g id="kvg:04e94-g3" kvg:element="&#20108;" kvg:part="2" kvg:radical="tradit"><path id="kvg:04e94-s4" kvg:type="&#12752;" d="M11.25,90.5c3.04,0.81,6.52,0.63,9.63,0.41c15.71-1.1,43.9-2.8,67.75-3.8c3.41-0.14,6.9-0.4,10.25,0.39"/></g></g></g></svg>