<svg xmlns="http://www.w3.org/2000/svg" width="109" height="109" viewBox="0 0 109 109"><g xmlns:kvg="http://kanjivg.tagaini.net" id="kvg:StrokePaths_04eac" style="fill:none;stroke:#000000;stroke-width:3;stroke-linecap:round;stroke-linejoin:round;"><g id="kvg:04eac" kvg:element="&#20140;"><g id="kvg:04eac-g1" kvg:element="&#20128;" kvg:position="top" kvg:radical="general"><path id="kvg:04eac-s1" kvg:type="&#12753;a" d="M51.44,10.92c1.26,1.26,2.06,2.71,2.06,4.81c0,2.95-0.14,7.52-0.14,9.32"/><path id="kvg:04eac-s2" kvg:type="&#12752;" d="M15.5,29.55c3.14,0.45,6.19,0.83,9.45,0.35c21.67-3.15,42.67-5.78,58.93-6.57c3.66-0.18,5.53-0.04,8.26,0.5"/></g><g id="kvg:04eac-g2" kvg:position="bottom"><g id="kvg:04eac-g3" kvg:element="&#21475;"><path id="kvg:04eac-s3" kvg:type="&#12753;" d="M30.3,41.57c1.06,1.06,1.73,2.17,1.87,2.7c0.84,3.2,1.83,9.56,2.92,15.71c0.21,1.18,0.43,1.85,0.66,3.01"/><path id="kvg:04eac-s4" kvg:type="&#12757;b" d="M33.27,43.15c12.23-1.9,31.7-4.88,37.48-5.4C73.54,37.5,76.12,40.08,75,43c-0.95,2.47-2.79,8.86-4.03,12.08"/><path id="kvg:04eac-s5" kvg:type="&#12752;b" d="M36.21,60.53c8.92-1.28,21.37-2.65,32.54-4.03c1.37-0.17,3.25-0.38,4.5-0.25"/></g><g id="kvg:04eac-g4" kvg:element="&#23567;"><path id="kvg:04eac-s6" kvg:type="&#12762;" d="M53.52,65.33c0.98,1.17,1.51,2.79,1.51,4.77c0,4.9-0.26,17.4-0.26,21.62c0,9.03-6.71,1-8.21-0.25"/><path id="kvg:04eac-s7" kvg:type="&#12754;" d="M31.75,73.25c0.12,0.91-0.01,1.79-0.39,2.62c-1.54,3.89-6.74,10.21-13.86,15.38"/><path id="kvg:04eac-s8" kvg:type="&#12756;" d="M76.12,73.5c5.14,4.19,11.06,10.83,13.38,16.25"/></g></g></g></g></svg>