<svg xmlns="http://www.w3.org/2000/svg" width="109" height="109" viewBox="0 0 109 109"><g xmlns:kvg="http://kanjivg.tagaini.net" id="kvg:StrokePaths_04ea1" style="fill:none;stroke:#000000;stroke-width:3;stroke-linecap:round;stroke-linejoin:round;"><g id="kvg:04ea1" kvg:element="&#20129;"><g id="kvg:04ea1-g1" kvg:element="&#20128;" kvg:radical="general"><path id="kvg:04ea1-s1" kvg:type="&#12753;a" d="M52.79,14.36c1.61,1.61,1.96,3.64,1.96,6.14c0,4.88,0,10.43,0,15.25"/><g id="kvg:04ea1-g2" kvg:element="&#21304;" kvg:part="1" kvg:variant="true" kvg:original="&#21274;"><path id="kvg:04ea1-s2" kvg:type="&#12752;" d="M13.38,39.42c3.54,1.09,7.27,0.56,10.87,0.21c14.84-1.44,47.75-4.32,64-4.96c3.13-0.12,6.37-0.44,9.36,0.68"/></g></g><g id="kvg:04ea1-g3" kvg:element="&#21304;" kvg:part="2" kvg:variant="true" kvg:original="&#21274;"><path id="kvg:04ea1-s3" kvg:type="&#12740;" d="M29.75,43.5c1.06,1.06,1.5,2.88,1.5,5.25c0,12.34,0,24.04,0,28.71c0,10.04,2,12.82,27.75,12.82c12.88,0,21.63-0.41,30.5-3.2"/></g></g></g></svg>