<svg xmlns="http://www.w3.org/2000/svg" width="109" height="109" viewBox="0 0 109 109"><g xmlns:kvg="http://kanjivg.tagaini.net" id="kvg:StrokePaths_04eb6" style="fill:none;stroke:#000000;stroke-width:3;stroke-linecap:round;stroke-linejoin:round;"><g id="kvg:04eb6" kvg:element="&#20150;"><g id="kvg:04eb6-g1" kvg:element="&#20128;" kvg:position="top" kvg:radical="general"><path id="kvg:04eb6-s1" kvg:type="&#12753;a" d="M51.53,7.5c0.99,0.53,2.62,2.6,2.61,3.66c0,3.91-0.31,3.23-0.13,6.54"/><path id="kvg:04eb6-s2" kvg:type="&#12752;" d="M19.39,21.68c1.76,0.35,3.3,0.73,5.32,0.48c12.02-1.45,44.75-4.74,58.75-5.44c2.06-0.1,3.11,0.04,4.65,0.62"/></g><g id="kvg:04eb6-g2" kvg:position="bottom"><g id="kvg:04eb6-g3" kvg:element="&#22238;"><g id="kvg:04eb6-g4" kvg:element="&#22231;" kvg:part="1"><path id="kvg:04eb6-s3" kvg:type="&#12753;" d="M26.55,30.5c0.72,0.58,0.83,1.21,0.98,1.96c1.01,5.07,2.91,12.43,4.39,22.37"/><path id="kvg:04eb6-s4" kvg:type="&#12757;a" d="M28.71,32.2c13.04-1.02,41.49-4.59,50.22-4.83c1.99-0.06,2.76,1.92,2.53,3.12c-1.09,5.72-2.53,13.94-4.7,21.69"/></g><g id="kvg:04eb6-g5" kvg:element="&#21475;"><path id="kvg:04eb6-s5" kvg:type="&#12753;" d="M40.41,36.83c0.35,0.16,0.76,0.27,0.86,0.51c1.23,2.92,1.78,5.88,2.81,8.91"/><path id="kvg:04eb6-s6" kvg:type="&#12757;b" d="M42.59,37.49c7.13-1.08,17.47-2.34,21.56-2.67c1.49-0.12,2.39,0.42,2.18,0.91c-0.88,2.01-1.92,4.45-3.23,7.24"/><path id="kvg:04eb6-s7" kvg:type="&#12752;b" d="M44.29,45.04c5.17-0.58,14.2-1.31,20.79-1.88"/></g><g id="kvg:04eb6-g6" kvg:element="&#22231;" kvg:part="2"><path id="kvg:04eb6-s8" kvg:type="&#12752;a" d="M32.62,53.62C44.75,52.5,62.25,51,76.76,50.58"/></g></g><g id="kvg:04eb6-g7" kvg:element="&#26086;"><g id="kvg:04eb6-g8" kvg:element="&#26085;" kvg:position="top"><path id="kvg:04eb6-s9" kvg:type="&#12753;" d="M35.3,63.47c0.55,0.57,1.1,0.85,1.12,1.62c0.02,0.78,1.92,23.16,2.12,23.94"/><path id="kvg:04eb6-s10" kvg:type="&#12757;a" d="M36.77,64.52c3.02-0.17,31.47-2.89,34.22-3.08c2.29-0.15,3.2,1.97,3.14,2.56c-0.38,3.5-3.09,21.74-3.07,22.33"/><path id="kvg:04eb6-s11" kvg:type="&#12752;a" d="M37.1,75.28c4.09-0.1,31.22-2.6,35.84-2.72"/><path id="kvg:04eb6-s12" kvg:type="&#12752;a" d="M39.4,86.94c6.04-0.15,23.2-1.83,31.02-2.02"/></g><g id="kvg:04eb6-g9" kvg:element="&#19968;" kvg:position="bottom"><path id="kvg:04eb6-s13" kvg:type="&#12752;" d="M16.78,98.27c1.44,0.48,4.09,0.51,5.53,0.48c12.74-0.24,49.74-2.64,64.64-2.63c2.4,0,3.85,0.23,5.05,0.47"/></g></g></g></g></g></svg>