<svg xmlns="http://www.w3.org/2000/svg" width="109" height="109" viewBox="0 0 109 109"><g xmlns:kvg="http://kanjivg.tagaini.net" id="kvg:StrokePaths_04eb3" style="fill:none;stroke:#000000;stroke-width:3;stroke-linecap:round;stroke-linejoin:round;"><g id="kvg:04eb3" kvg:element="&#20147;"><g id="kvg:04eb3-g1" kvg:element="&#20128;" kvg:position="top" kvg:radical="general"><path id="kvg:04eb3-s1" kvg:type="&#12753;a" d="M51.67,9.75c0.78,0.42,2.05,2.04,2.05,2.87c0,3.07-0.24,5.46-0.1,8.06"/><path id="kvg:04eb3-s2" kvg:type="&#12752;" d="M23.95,23.28c1.48,0.29,2.78,0.54,4.48,0.4c11.33-0.93,38.93-3.94,50.71-4.52c1.73-0.09,2.62,0.03,3.91,0.51"/></g><g id="kvg:04eb3-g2" kvg:position="bottom"><g id="kvg:04eb3-g3" kvg:element="&#21475;"><path id="kvg:04eb3-s3" kvg:type="&#12753;" d="M35.5,29.54c0.28,0.2,0.56,0.37,0.68,0.62c0.96,1.99,2.11,7.48,2.76,11.05"/><path id="kvg:04eb3-s4" kvg:type="&#12757;b" d="M37.22,30.22c6.77-0.83,25.54-2.43,29.03-2.71c1.28-0.1,2.04,1.04,1.86,1.64c-0.76,2.51-1.62,4.17-3.24,7.78"/><path id="kvg:04eb3-s5" kvg:type="&#12752;b" d="M39.21,39.9c4.1-0.32,21.73-2.33,26.93-2.65"/></g><g id="kvg:04eb3-g4" kvg:element="&#20886;"><path id="kvg:04eb3-s6" kvg:type="&#12756;" d="M20.4,46.87c0,3.49-3.31,13.09-4.81,15.42"/><path id="kvg:04eb3-s7" kvg:type="&#12758;b" d="M20.29,49.02c8.97-0.18,55.23-4.24,62.44-4.24c13.15,0,2.92,6.59,0.11,8.27"/></g><g id="kvg:04eb3-g5" kvg:element="&#20031;"><path id="kvg:04eb3-s8" kvg:type="&#12754;" d="M64.27,51c0.08,0.34-0.17,1.86-0.64,2.25c-5.92,4.82-14.2,8.37-29.63,12.26"/></g><g id="kvg:04eb3-g6" kvg:element="&#19971;"><g id="kvg:04eb3-g7" kvg:element="&#19968;"><path id="kvg:04eb3-s9" kvg:type="&#12752;" d="M14.25,80.46c1.61,0.66,4.57,0.95,6.16,0.66c15.81-2.95,51.98-10.8,67.21-12.75c2.66-0.34,4.29-0.34,5.63-0.01"/></g><path id="kvg:04eb3-s10" kvg:type="&#12767;" d="M48.75,63.77c0.71,0.72,1.65,2.27,1.65,3.26c0,3.06-0.35,19.17-0.35,22.17c0,6.3,3.7,9.55,19.19,9.55c16.01,0,17.78-3.93,17.78-9.05"/></g></g></g></g></svg>