<svg xmlns="http://www.w3.org/2000/svg" width="109" height="109" viewBox="0 0 109 109"><g xmlns:kvg="http://kanjivg.tagaini.net" id="kvg:StrokePaths_04ec4" style="fill:none;stroke:#000000;stroke-width:3;stroke-linecap:round;stroke-linejoin:round;"><g id="kvg:04ec4" kvg:element="&#20164;"><g id="kvg:04ec4-g1" kvg:element="&#21378;" kvg:position="tare" kvg:radical="nelson"><path id="kvg:04ec4-s1" kvg:type="&#12752;" d="M29.63,18.73c1.52,0.54,4.3,0.63,5.82,0.54c15.8-0.91,31.3-3.52,46.61-4.23c2.53-0.12,4.05,0.26,5.31,0.53"/><path id="kvg:04ec4-s2" kvg:type="&#12754;" d="M32.67,19.5c0.85,1.46,0.87,1.86,0.73,4.25c-1.15,19.16-2.65,49.75-22.34,65.97"/></g><g id="kvg:04ec4-g2" kvg:element="&#20154;" kvg:radical="tradit"><path id="kvg:04ec4-s3" kvg:type="&#12754;" d="M59.05,31.5c0.08,1.48,0.17,3.82-0.16,5.94c-1.95,12.52-9.14,43.06-27.98,56.84"/><path id="kvg:04ec4-s4" kvg:type="&#12751;" d="M55.34,52.08c5.22,7.82,27.73,33.37,33.49,39.09c1.95,1.95,4.46,2.78,6.42,3.33"/></g></g></g></svg>