<svg xmlns="http://www.w3.org/2000/svg" width="109" height="109" viewBox="0 0 109 109"><g xmlns:kvg="http://kanjivg.tagaini.net" id="kvg:StrokePaths_04ecd" style="fill:none;stroke:#000000;stroke-width:3;stroke-linecap:round;stroke-linejoin:round;"><g id="kvg:04ecd" kvg:element="&#20173;"><g id="kvg:04ecd-g1" kvg:element="&#20155;" kvg:variant="true" kvg:original="&#20154;" kvg:position="left" kvg:radical="general"><path id="kvg:04ecd-s1" kvg:type="&#12754;" d="M35.48,15.39c0.15,1.13,0.27,2.55-0.14,3.93c-2.55,8.78-12.4,25.75-24.28,37.64"/><path id="kvg:04ecd-s2" kvg:type="&#12753;" d="M27.03,41.5c0.59,0.61,0.76,1.97,0.76,3.23c0,13.02-0.29,42.65-0.29,51.4"/></g><g id="kvg:04ecd-g2" kvg:element="&#20035;" kvg:position="right"><g id="kvg:04ecd-g3" kvg:element="&#20031;"><path id="kvg:04ecd-s3" kvg:type="&#12754;" d="M60.21,22.68c0.43,1.42,0.54,3.64,0.21,5.95c-2.37,17.1-8.02,43.66-25.29,62.03"/></g><path id="kvg:04ecd-s4" kvg:type="&#12748;" d="M46.77,19c1.46,0.75,3.56,0.91,5.01,0.75c11.28-1.25,18.48-3,29.35-4.75c2.72-0.44,4.07,1.74,3.13,3.75C81.34,25,75.82,37.5,72.9,44c-0.58,1.28-0.25,3.33,1.46,3c5.14-1,13.03-2.25,17.62-3.25c2.5-0.54,3.69,0.74,3.3,3.25C93,61.75,89,78.75,81.99,89.25c-4.29,6.42-7.52,2.5-9.19-1"/></g></g></g></svg>