<svg xmlns="http://www.w3.org/2000/svg" width="109" height="109" viewBox="0 0 109 109"><g xmlns:kvg="http://kanjivg.tagaini.net" id="kvg:StrokePaths_04ec1" style="fill:none;stroke:#000000;stroke-width:3;stroke-linecap:round;stroke-linejoin:round;"><g id="kvg:04ec1" kvg:element="&#20161;"><g id="kvg:04ec1-g1" kvg:element="&#20155;" kvg:variant="true" kvg:original="&#20154;" kvg:position="left" kvg:radical="general"><path id="kvg:04ec1-s1" kvg:type="&#12754;" d="M32.26,15.75c0.36,1.62,0.19,3.35-0.48,5.24C27.5,33.05,21.32,45.87,11.5,60.54"/><path id="kvg:04ec1-s2" kvg:type="&#12753;" d="M24.28,44.25c0.8,0.8,1.26,2.22,1.26,3.48c0,12.15,0.14,30.73,0.01,41.77c-0.03,2.58-0.05,4.73-0.05,6.25"/></g><g id="kvg:04ec1-g2" kvg:element="&#20108;" kvg:position="right" kvg:phon="&#20108;"><g id="kvg:04ec1-g3" kvg:position="top"><path id="kvg:04ec1-s3" kvg:type="&#12752;" d="M49,36c1.88,0.5,3.97,0.52,5.62,0.34c6.32-0.67,19.78-1.91,27.12-2.55c1.93-0.17,4.13-0.1,6.01,0.36"/></g><g id="kvg:04ec1-g4" kvg:position="bottom"><path id="kvg:04ec1-s4" kvg:type="&#12752;" d="M36.5,77.83c2.6,0.93,5.92,0.75,8.62,0.48c9.77-0.97,32.2-2.55,45.38-3.15c2.69-0.12,5.61-0.03,8.25,0.53"/></g></g></g></g></svg>