<svg xmlns="http://www.w3.org/2000/svg" width="109" height="109" viewBox="0 0 109 109"><g xmlns:kvg="http://kanjivg.tagaini.net" id="kvg:StrokePaths_04ede" style="fill:none;stroke:#000000;stroke-width:3;stroke-linecap:round;stroke-linejoin:round;"><g id="kvg:04ede" kvg:element="&#20190;"><g id="kvg:04ede-g1" kvg:element="&#20155;" kvg:variant="true" kvg:original="&#20154;" kvg:position="left" kvg:radical="general"><path id="kvg:04ede-s1" kvg:type="&#12754;" d="M32.49,15.39c0.13,1.17,0.24,2.64-0.12,4.08c-2.26,9.09-11.02,26.67-21.56,39"/><path id="kvg:04ede-s2" kvg:type="&#12753;" d="M27.03,39c0.59,0.61,0.76,1.97,0.76,3.23c0,13.02-0.29,43.65-0.29,52.4"/></g><g id="kvg:04ede-g2" kvg:position="right"><g id="kvg:04ede-g3" kvg:element="&#20992;"><path id="kvg:04ede-s3" kvg:type="&#12742;" d="M46.22,24.4c1.66,0.83,3.74,0.61,5.21,0.45C63.5,23.5,80,21.61,86.57,20.76c4.27-0.55,6.17,1.66,5.93,5.55c-0.63,10.25-7.05,49.63-12.87,61.41c-4.22,8.55-6.69,5.81-9.88,0.26"/><path id="kvg:04ede-s4" kvg:type="&#12754;" d="M64.44,27.33c0.81,1.17,0.59,3.49,0.37,5.44C62.63,51.82,56.7,71.14,42.5,88.11"/></g><g id="kvg:04ede-g4" kvg:element="&#20022;"><path id="kvg:04ede-s5" kvg:type="&#12756;" d="M49.89,41.32c0.38,2.32-3.16,13.34-6.81,16.42"/></g></g></g></g></svg>