<svg xmlns="http://www.w3.org/2000/svg" width="109" height="109" viewBox="0 0 109 109"><g xmlns:kvg="http://kanjivg.tagaini.net" id="kvg:StrokePaths_04ed8" style="fill:none;stroke:#000000;stroke-width:3;stroke-linecap:round;stroke-linejoin:round;"><g id="kvg:04ed8" kvg:element="&#20184;"><g id="kvg:04ed8-g1" kvg:element="&#20155;" kvg:variant="true" kvg:original="&#20154;" kvg:position="left" kvg:radical="general"><path id="kvg:04ed8-s1" kvg:type="&#12754;" d="M38.12,14.62c0.25,2.06-0.07,3.73-0.89,5.5C32.03,31.39,24.93,45.58,13,59.29"/><path id="kvg:04ed8-s2" kvg:type="&#12753;" d="M29.03,40.75c1.05,1.05,1.51,2.38,1.51,4.23c0,10.19-0.36,31.65-0.5,43.4C30.02,91.12,30,93.33,30,94.75"/></g><g id="kvg:04ed8-g2" kvg:element="&#23544;" kvg:position="right"><path id="kvg:04ed8-s3" kvg:type="&#12752;" d="M40.88,42.17c2.46,0.58,5.19,0.55,7.03,0.3c13.46-1.85,28.71-4.22,43.92-5.18c3.05-0.19,4.89-0.12,6.42,0.28"/><path id="kvg:04ed8-s4" kvg:type="&#12762;" d="M74.27,12.83c1.2,1.2,1.76,2.92,1.76,4.77c0,14.52-0.01,67.91-0.01,72.87c0,9.28-6.27,3.41-8.96,0.75"/><path id="kvg:04ed8-s5" kvg:type="&#12756;" d="M50.12,56.62c3.29,2.38,8.51,9.79,9.33,13.49"/></g></g></g></svg>