<svg xmlns="http://www.w3.org/2000/svg" width="109" height="109" viewBox="0 0 109 109"><g xmlns:kvg="http://kanjivg.tagaini.net" id="kvg:StrokePaths_04ed7" style="fill:none;stroke:#000000;stroke-width:3;stroke-linecap:round;stroke-linejoin:round;"><g id="kvg:04ed7" kvg:element="&#20183;"><g id="kvg:04ed7-g1" kvg:element="&#20155;" kvg:variant="true" kvg:original="&#20154;" kvg:position="left" kvg:radical="general"><path id="kvg:04ed7-s1" kvg:type="&#12754;" d="M33.99,18.39c0.14,1.16,0.25,2.62-0.13,4.05c-2.37,9.04-11.52,26.52-22.55,38.77"/><path id="kvg:04ed7-s2" kvg:type="&#12753;" d="M25.53,46.5c0.59,0.61,0.76,1.97,0.76,3.23c0,13.02-0.29,35.65-0.29,44.4"/></g><g id="kvg:04ed7-g2" kvg:element="&#19976;" kvg:position="right"><g id="kvg:04ed7-g3" kvg:element="&#19968;"><path id="kvg:04ed7-s3" kvg:type="&#12752;" d="M36.15,38.26c1.25,0.49,3.53,0.55,4.79,0.49c5.82-0.25,33.32-4.75,44.85-5.49c2.08-0.13,3.33,0.23,4.37,0.48"/></g><g id="kvg:04ed7-g4" kvg:element="&#20034;"><g id="kvg:04ed7-g5" kvg:element="&#20031;"><path id="kvg:04ed7-s4" kvg:type="&#12754;" d="M65.88,15.18c0.43,1.93,0.79,3.31,0.8,6.85C66.81,55.62,65.25,79.25,39,94"/></g><path id="kvg:04ed7-s5" kvg:type="&#12751;" d="M42.59,48c4.66,0,29.91,30,45.07,40.62c2.53,1.77,5.23,2.95,7.34,3.12"/></g></g></g></g></svg>