<svg xmlns="http://www.w3.org/2000/svg" width="109" height="109" viewBox="0 0 109 109"><g xmlns:kvg="http://kanjivg.tagaini.net" id="kvg:StrokePaths_04ed6" style="fill:none;stroke:#000000;stroke-width:3;stroke-linecap:round;stroke-linejoin:round;"><g id="kvg:04ed6" kvg:element="&#20182;"><g id="kvg:04ed6-g1" kvg:element="&#20155;" kvg:variant="true" kvg:original="&#20154;" kvg:position="left" kvg:radical="general"><path id="kvg:04ed6-s1" kvg:type="&#12754;" d="M30.25,19.62c0.21,2-0.06,3.84-0.73,5.56C25.24,36.1,19,48.12,10,59.62"/><path id="kvg:04ed6-s2" kvg:type="&#12753;" d="M22.91,43c0.92,0.92,1.25,2.38,1.25,3.5c0.03,10.67,0.17,32.06,0.22,43.37c0.01,2.49,0.02,4.52,0.02,5.88"/></g><g id="kvg:04ed6-g2" kvg:element="&#20063;" kvg:position="right" kvg:phon="&#20063;/&#23427;"><path id="kvg:04ed6-s3" kvg:type="&#12742;v" d="M34,50.11c2.38,0.64,5.71,0.28,7.12-0.14c14.04-4.22,33.13-10.47,42.24-14.1c3.53-1.4,6.17-0.36,5.51,3.14c-1.5,7.98-3.12,14.11-5.04,18.11c-3.32,6.94-5.58,3.87-7.87,0.61"/><path id="kvg:04ed6-s4" kvg:type="&#12753;" d="M63.76,14.75c1.06,1.06,1.58,2.36,1.58,3.37c0,2.41-0.05,31.74-0.06,46.38c0,2.87,0,5.17,0,6.6"/><g id="kvg:04ed6-g3" kvg:element="&#20057;" kvg:variant="true"><path id="kvg:04ed6-s5" kvg:type="&#12767;" d="M45.09,38.81c0.96,1.72,1.28,3.94,1.28,5.91c0,11.25-0.24,20.69-0.24,27.78c0,15.63,1.12,17.5,25.54,17.5c22.7,0,23.97-1.75,23.97-12.7"/></g></g></g></g></svg>