<svg xmlns="http://www.w3.org/2000/svg" width="109" height="109" viewBox="0 0 109 109"><g xmlns:kvg="http://kanjivg.tagaini.net" id="kvg:StrokePaths_04edf" style="fill:none;stroke:#000000;stroke-width:3;stroke-linecap:round;stroke-linejoin:round;"><g id="kvg:04edf" kvg:element="&#20191;"><g id="kvg:04edf-g1" kvg:element="&#20155;" kvg:variant="true" kvg:original="&#20154;" kvg:position="left" kvg:radical="general"><path id="kvg:04edf-s1" kvg:type="&#12754;" d="M32.49,15.89c0.13,1.16,0.23,2.62-0.12,4.05c-2.24,9.04-10.89,26.52-21.31,38.77"/><path id="kvg:04edf-s2" kvg:type="&#12753;" d="M26.53,40.5c0.59,0.61,0.76,1.97,0.76,3.23c0,13.02-0.29,41.65-0.29,50.4"/></g><g id="kvg:04edf-g2" kvg:element="&#21315;" kvg:position="right"><g id="kvg:04edf-g3" kvg:element="&#20031;" kvg:position="top"><path id="kvg:04edf-s3" kvg:type="&#12754;" d="M83.17,12.67c0.1,0.51-0.69,3.33-1.33,3.78c-6.09,4.3-15.22,11.19-34.28,17.06"/></g><g id="kvg:04edf-g4" kvg:element="&#21313;" kvg:position="bottom"><path id="kvg:04edf-s4" kvg:type="&#12752;" d="M38.72,54.25c0.98,0.43,3.45,0.53,4.43,0.43c11.39-1.19,31.42-4.91,50.44-5.55c1.64-0.06,2.63,0.2,3.45,0.42"/><path id="kvg:04edf-s5" kvg:type="&#12753;" d="M67.1,29.29c0.49,0.48,1.53,3.57,1.63,4.53c0.1,0.96-0.06,56.71-0.16,62.68"/></g></g></g></g></svg>