<svg xmlns="http://www.w3.org/2000/svg" width="109" height="109" viewBox="0 0 109 109"><g xmlns:kvg="http://kanjivg.tagaini.net" id="kvg:StrokePaths_04ef7" style="fill:none;stroke:#000000;stroke-width:3;stroke-linecap:round;stroke-linejoin:round;"><g id="kvg:04ef7" kvg:element="&#20215;"><g id="kvg:04ef7-g1" kvg:element="&#20155;" kvg:variant="true" kvg:original="&#20154;" kvg:position="left" kvg:radical="general"><path id="kvg:04ef7-s1" kvg:type="&#12754;" d="M31.5,17.39c0.13,1.05,0.23,2.38-0.12,3.67c-2.19,8.2-10.64,24.04-20.82,35.15"/><path id="kvg:04ef7-s2" kvg:type="&#12753;" d="M26.03,40c0.59,0.61,0.76,1.97,0.76,3.23c0,13.02-0.29,42.15-0.29,50.9"/></g><g id="kvg:04ef7-g2" kvg:element="&#20171;" kvg:position="right"><g id="kvg:04ef7-g3" kvg:element="&#20154;" kvg:position="top"><path id="kvg:04ef7-s3" kvg:type="&#12754;" d="M62.52,12.25c0.07,0.95,0.25,2.5-0.15,3.83c-2.44,8.24-12.46,26.47-25.87,36.7"/><path id="kvg:04ef7-s4" kvg:type="&#12751;" d="M63.04,17.05c5.75,7.42,19.95,21.89,27.35,27.81c1.63,1.31,3.55,2.03,5.11,2.43"/></g><g id="kvg:04ef7-g4" kvg:position="bottom"><g id="kvg:04ef7-g5" kvg:element="&#20031;"><path id="kvg:04ef7-s5" kvg:type="&#12754;" d="M51.98,46.69c0.41,1.29,1,2.31,1,3.92c0,14.75,0.37,33.43-12.33,43.61"/></g><g id="kvg:04ef7-g6" kvg:element="&#20008;"><path id="kvg:04ef7-s6" kvg:type="&#12753;" d="M75.7,43.77c0.76,0.49,1.22,2.22,1.38,3.2c0.15,0.99,0,43.63-0.15,49.79"/></g></g></g></g></g></svg>