<svg xmlns="http://www.w3.org/2000/svg" width="109" height="109" viewBox="0 0 109 109"><g xmlns:kvg="http://kanjivg.tagaini.net" id="kvg:StrokePaths_04ef2" style="fill:none;stroke:#000000;stroke-width:3;stroke-linecap:round;stroke-linejoin:round;"><g id="kvg:04ef2" kvg:element="&#20210;"><g id="kvg:04ef2-g1" kvg:element="&#20155;" kvg:variant="true" kvg:original="&#20154;" kvg:position="left" kvg:radical="general"><path id="kvg:04ef2-s1" kvg:type="&#12754;" d="M35.25,18.38c0.25,1.43,0.18,3.05-0.63,4.86C29.44,34.77,23.88,46.25,11,59.62"/><path id="kvg:04ef2-s2" kvg:type="&#12753;" d="M27.28,42.75c0.86,0.86,1.25,2.24,1.25,3.26c0,10.24-0.02,29.97-0.03,40.74c0,2.16,0,3.96,0,5.25"/></g><g id="kvg:04ef2-g2" kvg:element="&#20013;" kvg:position="right" kvg:phon="&#20013;"><g id="kvg:04ef2-g3" kvg:element="&#21475;"><path id="kvg:04ef2-s3" kvg:type="&#12753;" d="M43.06,40.63c0.78,0.78,1.31,1.72,1.57,3.04c1.04,5.2,1.68,9.97,2.76,16.83c0.21,1.33,0.44,2.74,0.69,4.25"/><path id="kvg:04ef2-s4" kvg:type="&#12757;b" d="M45.2,42.03c14.67-2.66,37.93-5.42,46.63-5.8c3.39-0.15,4.07,2.43,3.65,3.92c-1.44,5.1-1.83,7.54-4.17,16.02"/><path id="kvg:04ef2-s5" kvg:type="&#12752;b" d="M48.72,61.71c10.07-1.22,26.28-2.96,40.92-4.25c1.28-0.11,2.51-0.25,3.7-0.37"/></g><g id="kvg:04ef2-g4" kvg:element="&#20008;"><path id="kvg:04ef2-s6" kvg:type="&#12753;" d="M67.76,15c1.12,1.12,1.73,2.75,1.73,4.16c0,4.65-0.17,51.71-0.21,69.59c-0.01,2.64-0.01,5.14-0.01,6.25"/></g></g></g></g></svg>