<svg xmlns="http://www.w3.org/2000/svg" width="109" height="109" viewBox="0 0 109 109"><g xmlns:kvg="http://kanjivg.tagaini.net" id="kvg:StrokePaths_04f4d" style="fill:none;stroke:#000000;stroke-width:3;stroke-linecap:round;stroke-linejoin:round;"><g id="kvg:04f4d" kvg:element="&#20301;"><g id="kvg:04f4d-g1" kvg:element="&#20155;" kvg:variant="true" kvg:original="&#20154;" kvg:position="left" kvg:radical="general"><path id="kvg:04f4d-s1" kvg:type="&#12754;" d="M32.26,17.5c0.22,2-0.06,4.37-0.76,6.08C27.06,34.5,21.43,45,11.25,58.29"/><path id="kvg:04f4d-s2" kvg:type="&#12753;" d="M25.28,42c0.8,0.8,1.5,2.21,1.5,3.38c-0.03,10.87-0.2,31.49-0.26,42.75C26.51,90.6,26.5,92.63,26.5,94"/></g><g id="kvg:04f4d-g2" kvg:element="&#31435;" kvg:position="right"><g id="kvg:04f4d-g3" kvg:element="&#20128;" kvg:position="top"><path id="kvg:04f4d-s3" kvg:type="&#12753;a" d="M63,15.5c1,0.75,1.5,2,1.5,3.75s0,13.25,0,18"/><path id="kvg:04f4d-s4" kvg:type="&#12752;" d="M39.84,39.56c2.66,0.44,5.29,0.12,7.78-0.16c9.14-1.04,27.43-3.47,36.27-4.19c2.2-0.18,4.36-0.32,6.54,0.1"/></g><g id="kvg:04f4d-g4" kvg:position="bottom"><path id="kvg:04f4d-s5" kvg:type="&#12756;" d="M48.38,47.12c2.94,7.74,5.76,21.01,7.25,30.25"/><path id="kvg:04f4d-s6" kvg:type="&#12754;" d="M79.6,41.16c0.72,1.22,0.8,1.84,0.72,2.84c-0.57,6.9-5.89,28.84-7.32,34.12"/><path id="kvg:04f4d-s7" kvg:type="&#12752;" d="M35,85.59c3.12,0.78,6.6,0.56,9.77,0.21c12.67-1.39,31.58-3.01,44.74-3.78c2.71-0.16,5.56,0.16,8.24,0.64"/></g></g></g></g></svg>