<svg xmlns="http://www.w3.org/2000/svg" width="109" height="109" viewBox="0 0 109 109"><g xmlns:kvg="http://kanjivg.tagaini.net" id="kvg:StrokePaths_04f5a" style="fill:none;stroke:#000000;stroke-width:3;stroke-linecap:round;stroke-linejoin:round;"><g id="kvg:04f5a" kvg:element="&#20314;"><g id="kvg:04f5a-g1" kvg:element="&#20155;" kvg:variant="true" kvg:original="&#20154;" kvg:position="left" kvg:radical="general"><path id="kvg:04f5a-s1" kvg:type="&#12754;" d="M32.74,16.89c0.13,1.16,0.24,2.62-0.12,4.05c-2.26,9.04-11.02,26.52-21.56,38.77"/><path id="kvg:04f5a-s2" kvg:type="&#12753;" d="M26.53,41c0.59,0.61,0.76,1.97,0.76,3.23c0,13.02-0.29,42.65-0.29,51.4"/></g><g id="kvg:04f5a-g2" kvg:element="&#22833;" kvg:position="right"><g id="kvg:04f5a-g3" kvg:element="&#20031;"><path id="kvg:04f5a-s3" kvg:type="&#12754;" d="M51.11,22.08c0.03,0.61,0.07,1.57-0.06,2.45c-0.78,5.16-5.27,16.49-11.41,23.42"/></g><g id="kvg:04f5a-g4" kvg:element="&#22827;"><path id="kvg:04f5a-s4" kvg:type="&#12752;" d="M49.16,37.41c0.79,0.39,2.21,0.47,3.01,0.39c10.86-1.1,21.33-3.29,28.85-4.96c1.28-0.28,4.49,0.18,5.14,0.38"/><g id="kvg:04f5a-g5" kvg:element="&#22823;"><path id="kvg:04f5a-s5" kvg:type="&#12752;" d="M37.07,58.43c1.99,0.13,4.57,0.32,5.36,0.27c9.98-0.69,41.46-4.25,48.48-4.15c1.3,0.02,4.45,0.13,5.1,0.26"/><path id="kvg:04f5a-s6" kvg:type="&#12754;" d="M64.9,14.5c0.44,1.23,0.62,2.38,0.62,4.78c0,50.77-8.01,64.72-25.76,75.97"/><path id="kvg:04f5a-s7" kvg:type="&#12751;" d="M63.89,56.59c7.8,11.74,18.38,28.98,26.14,35.44c2.26,1.88,3.79,2.8,4.71,3.03"/></g></g></g></g></g></svg>