<svg xmlns="http://www.w3.org/2000/svg" width="109" height="109" viewBox="0 0 109 109"><g xmlns:kvg="http://kanjivg.tagaini.net" id="kvg:StrokePaths_04f73" style="fill:none;stroke:#000000;stroke-width:3;stroke-linecap:round;stroke-linejoin:round;"><g id="kvg:04f73" kvg:element="&#20339;"><g id="kvg:04f73-g1" kvg:element="&#20155;" kvg:variant="true" kvg:original="&#20154;" kvg:position="left" kvg:radical="general"><path id="kvg:04f73-s1" kvg:type="&#12754;" d="M35.5,16.25c0.24,2.17-0.07,4.01-0.83,5.87C29.81,33.98,23.4,45.86,12.25,60.29"/><path id="kvg:04f73-s2" kvg:type="&#12753;" d="M27.03,41.5c1.05,1.05,1.51,2.38,1.51,4.23c0,8.63-0.03,34.67-0.04,46.77c0,2.77,0,4.82,0,5.75"/></g><g id="kvg:04f73-g2" kvg:element="&#22317;" kvg:position="right" kvg:phon="&#22317;"><g id="kvg:04f73-g3" kvg:element="&#22303;" kvg:position="top"><path id="kvg:04f73-s3" kvg:type="&#12752;" d="M46.13,33.18c2.25,0.45,4.16,0.21,6.11,0c9.28-1.01,20.05-2.47,29.39-2.89c1.77-0.08,3.51-0.17,5.25,0.24"/><path id="kvg:04f73-s4" kvg:type="&#12753;a" d="M64.42,13.37c0.92,0.92,1.27,2.27,1.27,4.14c0,12-0.07,26.38-0.07,32.12"/><path id="kvg:04f73-s5" kvg:type="&#12752;" d="M42.13,51.91c2.75,0.72,5.28,0.42,7.75,0.14c12.37-1.42,24.25-2.38,35.37-2.94c2.25-0.11,4.41,0.06,6.63,0.53"/></g><g id="kvg:04f73-g4" kvg:element="&#22303;" kvg:position="bottom"><path id="kvg:04f73-s6" kvg:type="&#12752;" d="M45.93,72.27c1.73,0.71,4.41,0.43,6.2,0.23c9.11-0.99,21.17-2.07,30.26-2.54c2.01-0.1,4.05-0.3,6.03,0.19"/><path id="kvg:04f73-s7" kvg:type="&#12753;a" d="M65.17,55.87c0.92,0.92,1.27,2.38,1.27,3.89c0,12-0.07,24.51-0.07,30.75"/><path id="kvg:04f73-s8" kvg:type="&#12752;" d="M37.88,92.61c3.37,0.77,6.12,0.47,9.01,0.24c15.26-1.2,29.52-1.93,43.36-2.53c2.71-0.12,5.24,0.31,7.88,0.91"/></g></g></g></g></svg>