<svg xmlns="http://www.w3.org/2000/svg" width="109" height="109" viewBox="0 0 109 109"><g xmlns:kvg="http://kanjivg.tagaini.net" id="kvg:StrokePaths_04f7b" style="fill:none;stroke:#000000;stroke-width:3;stroke-linecap:round;stroke-linejoin:round;"><g id="kvg:04f7b" kvg:element="&#20347;"><g id="kvg:04f7b-g1" kvg:element="&#20155;" kvg:variant="true" kvg:original="&#20154;" kvg:position="left" kvg:radical="general"><path id="kvg:04f7b-s1" kvg:type="&#12754;" d="M30.01,15.39c0.11,1.19,0.2,2.68-0.1,4.15c-1.9,9.25-9.25,27.14-18.1,39.68"/><path id="kvg:04f7b-s2" kvg:type="&#12753;" d="M25.53,40.5c0.59,0.61,0.76,1.97,0.76,3.23c0,13.04-0.29,41.12-0.29,49.9"/></g><g id="kvg:04f7b-g2" kvg:element="&#20806;" kvg:position="right"><g id="kvg:04f7b-g3" kvg:element="&#20799;" kvg:part="1" kvg:original="&#20843;" kvg:position="left"><g id="kvg:04f7b-g4" kvg:element="&#20031;"><path id="kvg:04f7b-s3" kvg:type="&#12754;" d="M54.5,16.41c0.73,1.69,1.43,3.81,1.43,5.12c0,8.28,0.06,23.56,0.06,32.68c0,22.6-7.49,34.55-17.09,42.72"/></g><g id="kvg:04f7b-g5" kvg:element="&#20907;"><g id="kvg:04f7b-g6" kvg:position="top"><path id="kvg:04f7b-s4" kvg:type="&#12756;" d="M35.66,33.06c4.04,2.57,10.44,10.57,11.45,14.57"/></g><g id="kvg:04f7b-g7" kvg:position="bottom"><path id="kvg:04f7b-s5" kvg:type="&#12736;" d="M36.11,70.79c1.09,0.45,2.19,0.59,3.02,0.09c1.15-0.7,9.42-6.48,13.93-9.85"/></g></g></g><g id="kvg:04f7b-g8" kvg:position="right"><g id="kvg:04f7b-g9" kvg:element="&#20799;" kvg:part="2" kvg:original="&#20843;"><path id="kvg:04f7b-s6" kvg:type="&#12767;" d="M69.78,13.19c0.97,1.06,1.46,2.83,1.49,4.47c0.14,7.34-0.02,61.29-0.02,66.29c0,11.66,4.76,10.79,13.19,10.79C94.75,94.73,97,93,97,86.05"/></g><path id="kvg:04f7b-s7" kvg:type="&#12754;" d="M90.63,27.75c0.04,0.39,0.1,1-0.09,1.55c-1.1,3.27-7.44,10.45-16.1,14.84"/><path id="kvg:04f7b-s8" kvg:type="&#12756;" d="M73.95,53.02c5.1,3.37,13.17,13.85,14.45,19.09"/></g></g></g></g></svg>