<svg xmlns="http://www.w3.org/2000/svg" width="109" height="109" viewBox="0 0 109 109"><g xmlns:kvg="http://kanjivg.tagaini.net" id="kvg:StrokePaths_04f8b" style="fill:none;stroke:#000000;stroke-width:3;stroke-linecap:round;stroke-linejoin:round;"><g id="kvg:04f8b" kvg:element="&#20363;"><g id="kvg:04f8b-g1" kvg:element="&#20155;" kvg:variant="true" kvg:original="&#20154;" kvg:position="left" kvg:radical="general"><path id="kvg:04f8b-s1" kvg:type="&#12754;" d="M30.12,17.5c0.25,1.75-0.06,3.29-0.72,5.08C25.15,33.98,20.12,45,9.75,58.79"/><path id="kvg:04f8b-s2" kvg:type="&#12753;" d="M22.78,43.75c0.98,0.98,1.35,2.25,1.35,3.98c0,9.99-0.09,27.46-0.12,37.52C24,87.66,24,89.65,24,91"/></g><g id="kvg:04f8b-g2" kvg:element="&#21015;" kvg:position="right" kvg:phon="&#21015;"><g id="kvg:04f8b-g3" kvg:element="&#27513;"><g id="kvg:04f8b-g4" kvg:element="&#19968;"><path id="kvg:04f8b-s3" kvg:type="&#12752;" d="M37.45,22.06c0.92,0.37,2.6,0.45,3.52,0.37c5.93-0.53,14.28-2.05,21.06-2.82c1.52-0.17,2.7-0.07,3.47,0.11"/></g><g id="kvg:04f8b-g5" kvg:element="&#22805;"><path id="kvg:04f8b-s4" kvg:type="&#12754;" d="M49.73,25.21c0.39,1.16,0.41,2.1,0.12,3.26c-2.11,8.41-8.23,20.28-17.56,31.59"/><path id="kvg:04f8b-s5" kvg:type="&#12743;" d="M47.82,40.96c1.06,0.29,2.06,0.16,3.51-0.12c3.31-0.66,4.58-0.75,6.7-1.51c2.97-1.07,4.84,0.26,3.83,3.77C57.75,57.38,48.38,78.75,31.77,90.5"/><path id="kvg:04f8b-s6" kvg:type="&#12756;" d="M41.25,56.25c3.42,1.53,7.84,6.04,8.69,8.42"/></g></g><g id="kvg:04f8b-g6" kvg:element="&#20994;" kvg:variant="true" kvg:original="&#20992;" kvg:position="right"><path id="kvg:04f8b-s7" kvg:type="&#12753;" d="M73.27,27.12c1.25,1.25,1.76,2.76,1.76,5.02c0,10.99,0,21.7,0,29.37c0,2.53,0,4.73,0,6.5"/><path id="kvg:04f8b-s8" kvg:type="&#12762;" d="M90.02,14.08c1.39,1.39,2.01,2.92,2.01,5.52c0,16.4-0.01,62.41-0.01,67.37c0,9.28-5.52,3.78-8.71,0.25"/></g></g></g></g></svg>