<svg xmlns="http://www.w3.org/2000/svg" width="109" height="109" viewBox="0 0 109 109"><g xmlns:kvg="http://kanjivg.tagaini.net" id="kvg:StrokePaths_04f96" style="fill:none;stroke:#000000;stroke-width:3;stroke-linecap:round;stroke-linejoin:round;"><g id="kvg:04f96" kvg:element="&#20374;"><g id="kvg:04f96-g1" kvg:element="&#20154;" kvg:position="top" kvg:radical="general"><path id="kvg:04f96-s1" kvg:type="&#12754;" d="M51.12,11.5c0.11,0.94,0.23,2.42-0.22,3.77C48.27,23.22,35,40,13.5,51.85"/><path id="kvg:04f96-s2" kvg:type="&#12751;" d="M53.04,16.05C60,20.75,82.32,38.82,88.2,42.73c1.99,1.33,4.55,1.89,6.55,2.27"/></g><g id="kvg:04f96-g2" kvg:position="bottom"><g id="kvg:04f96-g3" kvg:element="&#19968;"><path id="kvg:04f96-s3" kvg:type="&#12752;" d="M35.25,42.89c0.94,0.38,2.66,0.49,3.6,0.38c5.98-0.66,22.4-3.02,29.11-3.38c1.56-0.08,2.5,0.18,3.29,0.37"/></g><g id="kvg:04f96-g4" kvg:element="&#20874;"><g id="kvg:04f96-g5" kvg:element="&#20866;"><path id="kvg:04f96-s4" kvg:type="&#12753;" d="M23.75,56.65c0.67,0.73,0.77,1.88,0.89,3.21C25.25,67,27,91.25,27.86,98.5"/><path id="kvg:04f96-s5" kvg:type="&#12742;a" d="M24.64,58.11c8.42-0.58,53.63-4.21,55.29-4.42c3.55-0.44,4.84,3.06,4.88,4.52C85,66,81.75,88.25,79.53,93.35c-2.21,5.07-2,3.65-4.65,1.75"/></g><g id="kvg:04f96-g6" kvg:element="&#24318;" kvg:variant="true"><g id="kvg:04f96-g7" kvg:element="&#21313;" kvg:part="1" kvg:variant="true"><path id="kvg:04f96-s6" kvg:type="&#12752;" d="M26,75.75c6.75-0.5,51.75-4.25,56.5-4.5"/></g><g id="kvg:04f96-g8" kvg:element="&#20031;" kvg:variant="true"><path id="kvg:04f96-s7" kvg:type="&#12753;" d="M42.77,58.83c0.98,0.92,1.67,1.99,1.76,5.02c0.4,14.55-0.02,27.69-0.02,32.65"/></g><g id="kvg:04f96-g9" kvg:element="&#21313;" kvg:part="2" kvg:variant="true"><path id="kvg:04f96-s8" kvg:type="&#12753;" d="M60.27,55.83c0.98,0.92,1.67,1.99,1.76,5.02C62.42,75.41,62,91.04,62,96"/></g></g></g></g></g></g></svg>