<svg xmlns="http://www.w3.org/2000/svg" width="109" height="109" viewBox="0 0 109 109"><g xmlns:kvg="http://kanjivg.tagaini.net" id="kvg:StrokePaths_04f9d" style="fill:none;stroke:#000000;stroke-width:3;stroke-linecap:round;stroke-linejoin:round;"><g id="kvg:04f9d" kvg:element="&#20381;"><g id="kvg:04f9d-g1" kvg:element="&#20155;" kvg:variant="true" kvg:original="&#20154;" kvg:position="left" kvg:radical="general"><path id="kvg:04f9d-s1" kvg:type="&#12754;" d="M32.26,17.75c0.22,2.1-0.06,3.34-0.76,5.14c-4.44,11.45-10.57,23.46-20.75,37.4"/><path id="kvg:04f9d-s2" kvg:type="&#12753;" d="M24.03,42.5c1.05,1.05,1.51,2.5,1.51,4.48c0,10.15,0.07,28.14-0.01,39.77c-0.02,3-0.03,5.51-0.03,7.25"/></g><g id="kvg:04f9d-g2" kvg:element="&#34915;" kvg:position="right" kvg:phon="&#34915;"><g id="kvg:04f9d-g3" kvg:element="&#20128;" kvg:position="top"><path id="kvg:04f9d-s3" kvg:type="&#12753;a" d="M60.61,14c1.19,1.19,1.48,2.75,1.48,4.41c0,4.21-0.15,6.59-0.15,10.4"/><path id="kvg:04f9d-s4" kvg:type="&#12752;" d="M36.75,32.36c2.22,0.64,4.24,0.61,6.5,0.27c9.12-1.35,27.62-4.38,40-5.09c2.04-0.12,4.25-0.16,6.03,0.37"/></g><g id="kvg:04f9d-g4" kvg:position="bottom"><path id="kvg:04f9d-s5" kvg:type="&#12754;" d="M55.79,34.64c0.12,1.45,0.08,2.69-0.47,4.06c-2.78,7.01-10.57,18.91-22.27,29.27"/><path id="kvg:04f9d-s6" kvg:type="&#12761;" d="M47.72,59.5c0.76,0.76,1.21,2.21,1.2,3.71c0,7.41-0.14,19.91-0.14,23.72c0,2.41,1.17,2.49,2.8,1.17c4.82-3.9,12.61-10.18,14.19-11.62"/><path id="kvg:04f9d-s7" kvg:type="&#12754;" d="M80.36,40.89c0.14,0.73-0.36,1.86-1.07,2.71C77.16,46.14,75.47,48.09,68,54"/><path id="kvg:04f9d-s8" kvg:type="&#12751;" d="M58.32,50.25c4.3,0,14.55,13,29.35,30.33c2.18,2.56,4.7,4.79,7.83,6.67"/></g></g></g></g></svg>