<svg xmlns="http://www.w3.org/2000/svg" width="109" height="109" viewBox="0 0 109 109"><g xmlns:kvg="http://kanjivg.tagaini.net" id="kvg:StrokePaths_04f98" style="fill:none;stroke:#000000;stroke-width:3;stroke-linecap:round;stroke-linejoin:round;"><g id="kvg:04f98" kvg:element="&#20376;"><g id="kvg:04f98-g1" kvg:element="&#20155;" kvg:variant="true" kvg:original="&#20154;" kvg:position="left" kvg:radical="general"><path id="kvg:04f98-s1" kvg:type="&#12754;" d="M32.5,18.89c0.13,1.12,0.22,2.52-0.11,3.89c-2.11,8.67-10.26,25.44-20.08,37.19"/><path id="kvg:04f98-s2" kvg:type="&#12753;" d="M26.49,43c0.66,0.68,0.84,2.19,0.84,3.58c0,14.46-0.32,40.08-0.32,49.79"/></g><g id="kvg:04f98-g2" kvg:element="&#23429;" kvg:position="right"><g id="kvg:04f98-g3" kvg:element="&#23424;" kvg:position="top"><path id="kvg:04f98-s3" kvg:type="&#12753;a" d="M61.43,14.5c0.9,0.36,2.19,2.12,2.16,3.15c-0.07,3.26-0.07,7.95-0.07,10.92"/><g id="kvg:04f98-g4" kvg:element="&#20886;"><path id="kvg:04f98-s4" kvg:type="&#12756;" d="M40.65,27.59c0,3.7-2.28,13.86-3.32,16.33"/><path id="kvg:04f98-s5" kvg:type="&#12758;b" d="M41.54,31.89c10.71-1.64,38.71-5.14,46.05-5.52c9.61-0.49,2.13,6.93,0.08,8.7"/></g></g><g id="kvg:04f98-g5" kvg:position="bottom"><g id="kvg:04f98-g6" kvg:element="&#20031;"><path id="kvg:04f98-s6" kvg:type="&#12754;" d="M75.51,34.19c0.09,0.45-0.17,2.43-0.68,2.94c-6.25,6.29-14.99,10.93-31.28,16.01"/></g><g id="kvg:04f98-g7" kvg:element="&#19971;"><g id="kvg:04f98-g8" kvg:element="&#19968;"><path id="kvg:04f98-s7" kvg:type="&#12752;" d="M36.91,67.63c1.3,0.69,3.7,0.97,4.99,0.69C56,65.25,76.98,59.99,89.3,57.95c2.15-0.36,4.47,0.14,5.56,0.48"/></g><path id="kvg:04f98-s8" kvg:type="&#12767;" d="M60.53,50.4c0.63,0.95,1.47,2.99,1.47,4.28c0,4.02-0.31,25.21-0.31,29.16c0,10.48,2.06,11.91,16.55,11.91c13.51,0,14.55-2.75,14.55-11.25"/></g></g></g></g></g></svg>