<svg xmlns="http://www.w3.org/2000/svg" width="109" height="109" viewBox="0 0 109 109"><g xmlns:kvg="http://kanjivg.tagaini.net" id="kvg:StrokePaths_04faf" style="fill:none;stroke:#000000;stroke-width:3;stroke-linecap:round;stroke-linejoin:round;"><g id="kvg:04faf" kvg:element="&#20399;"><g id="kvg:04faf-g1" kvg:element="&#20155;" kvg:variant="true" kvg:original="&#20154;" kvg:position="left" kvg:radical="general"><path id="kvg:04faf-s1" kvg:type="&#12754;" d="M30.02,16.5c0.2,1.98-0.05,3.56-0.69,5.25C25.31,32.54,20.21,42.91,11,56.04"/><path id="kvg:04faf-s2" kvg:type="&#12753;" d="M24.53,36.75c0.92,0.92,1.26,2.47,1.26,3.73c0,11.46-0.03,35.51-0.04,48.51c0,2.91,0,5.25,0,6.76"/></g><g id="kvg:04faf-g2" kvg:position="right" kvg:phon="11+2+&#30690;"><g id="kvg:04faf-g3" kvg:position="top"><path id="kvg:04faf-s3" kvg:type="&#12757;c" d="M43.9,15.65c1.96,0.95,4.16,0.9,6.24,0.67c7.49-0.8,18.56-2.61,23.86-3.19c3.1-0.34,5.06,1.19,4.12,4.36c-1.42,4.79-1.87,6.88-3.74,12.64"/><path id="kvg:04faf-s4" kvg:type="&#12752;" d="M35.5,34.9c3,0.6,6.24,0.6,8.88,0.18c11.79-1.84,31-3.89,41.74-4.43c2.47-0.12,4.94-0.07,7.38,0.47"/></g><g id="kvg:04faf-g4" kvg:element="&#30690;" kvg:position="bottom"><path id="kvg:04faf-s5" kvg:type="&#12754;" d="M49.48,41c0.08,0.97-0.02,1.86-0.32,2.79c-1.43,4.48-6.53,12.34-12.25,16.95"/><g id="kvg:04faf-g5" kvg:element="&#22825;"><path id="kvg:04faf-s6" kvg:type="&#12752;" d="M50.11,49.58c1.01,0.32,2.88,0.17,3.88,0.07C59,49.12,70,47.38,75.77,46.24c2.32-0.46,4.25-0.63,6.58-0.19"/><g id="kvg:04faf-g6" kvg:element="&#22823;"><path id="kvg:04faf-s7" kvg:type="&#12752;" d="M34.78,67.44c2.63,0.87,6.19,0.3,8.84-0.05c12-1.58,27.88-3.27,39.13-4.35c3.37-0.32,6.55-0.36,9.89,0.25"/><path id="kvg:04faf-s8" kvg:type="&#12754;" d="M62.86,51.55c0.39,1.2,0.22,2.63-0.08,3.95C58.5,74.25,50.25,89,35,96.41"/><path id="kvg:04faf-s9" kvg:type="&#12751;" d="M63.24,65.36c8.13,8.89,16.01,17.52,23.3,24.11C88.52,91.26,91,93,94,94.27"/></g></g></g></g></g></g></svg>