<svg xmlns="http://www.w3.org/2000/svg" width="109" height="109" viewBox="0 0 109 109"><g xmlns:kvg="http://kanjivg.tagaini.net" id="kvg:StrokePaths_04fb6" style="fill:none;stroke:#000000;stroke-width:3;stroke-linecap:round;stroke-linejoin:round;"><g id="kvg:04fb6" kvg:element="&#20406;"><g id="kvg:04fb6-g1" kvg:element="&#20155;" kvg:variant="true" kvg:original="&#20154;" kvg:position="left" kvg:radical="general"><path id="kvg:04fb6-s1" kvg:type="&#12754;" d="M33.99,14.89c0.14,1.18,0.24,2.65-0.12,4.1c-2.29,9.15-11.14,26.83-21.81,39.22"/><path id="kvg:04fb6-s2" kvg:type="&#12753;" d="M27.53,40c0.59,0.61,0.76,1.97,0.76,3.23c0,13.02-0.29,43.65-0.29,52.4"/></g><g id="kvg:04fb6-g2" kvg:element="&#21570;" kvg:position="right"><g id="kvg:04fb6-g3" kvg:element="&#21475;" kvg:position="top"><path id="kvg:04fb6-s3" kvg:type="&#12753;" d="M46.39,17.35c0.42,0.5,0.86,0.91,1.04,1.52c1.46,4.84,3.19,16.63,4.18,25.28"/><path id="kvg:04fb6-s4" kvg:type="&#12757;b" d="M48.02,19.56c10.38-1.75,31.55-4.38,36.9-4.92c1.96-0.2,3.63,1.58,3.34,3.04c-1.36,6.98-2.77,13.12-5,20.85"/><path id="kvg:04fb6-s5" kvg:type="&#12752;b" d="M52.03,41.98c6.28-0.61,25.21-2.59,33.18-3.16"/></g><g id="kvg:04fb6-g4" kvg:position="bottom"><g id="kvg:04fb6-g5" kvg:element="&#20031;"><path id="kvg:04fb6-s6" kvg:type="&#12754;" d="M65.68,43.43c1.14,1.72,1.24,2.07,0.55,4.07c-0.52,1.49-6.8,13.15-7.72,15.14"/></g><g id="kvg:04fb6-g6" kvg:element="&#21475;"><path id="kvg:04fb6-s7" kvg:type="&#12753;" d="M44.84,64.52c0.54,0.59,1.1,1.09,1.34,1.82c1.88,5.71,2.61,18.48,3.88,28.64"/><path id="kvg:04fb6-s8" kvg:type="&#12757;b" d="M46.73,66.62c13.36-1.68,36.17-3.99,43.06-4.43c2.52-0.16,4.03,3.13,3.66,4.83c-1.49,6.91-2.61,10.61-5.55,23.04"/><path id="kvg:04fb6-s9" kvg:type="&#12752;b" d="M50.61,92.64c8.09-0.49,29.54-2.19,39.81-2.57"/></g></g></g></g></g></svg>