<svg xmlns="http://www.w3.org/2000/svg" width="109" height="109" viewBox="0 0 109 109"><g xmlns:kvg="http://kanjivg.tagaini.net" id="kvg:StrokePaths_04fca" style="fill:none;stroke:#000000;stroke-width:3;stroke-linecap:round;stroke-linejoin:round;"><g id="kvg:04fca" kvg:element="&#20426;"><g id="kvg:04fca-g1" kvg:element="&#20155;" kvg:variant="true" kvg:original="&#20154;" kvg:position="left" kvg:radical="general"><path id="kvg:04fca-s1" kvg:type="&#12754;" d="M34.75,17.5c0.12,1.75-0.07,3.1-0.83,4.99C29.06,34.55,23,47.25,11.25,62.04"/><path id="kvg:04fca-s2" kvg:type="&#12753;" d="M26.78,42c0.92,0.92,1.26,2.22,1.26,3.48c0,10.99-0.03,31.66-0.04,44.02c0,3.13,0,5.73,0,7.5"/></g><g id="kvg:04fca-g2" kvg:element="&#22795;" kvg:position="right" kvg:phon="&#22795;"><g id="kvg:04fca-g3" kvg:element="&#20801;" kvg:position="top"><g id="kvg:04fca-g4" kvg:element="&#21430;" kvg:position="top"><path id="kvg:04fca-s3" kvg:type="&#12764;" d="M61.91,11.5c0.34,0.75,0.14,2.03-0.6,3.08c-4.8,6.8-6.55,8.92-12.99,15.82c-1.67,1.78-1.36,3.15,1.38,2.52C60.75,30.38,73.12,27.5,84.3,25"/><path id="kvg:04fca-s4" kvg:type="&#12756;" d="M77.02,18.51c5.48,3.61,10.6,9.74,12.53,13.87"/></g><g id="kvg:04fca-g5" kvg:element="&#20799;" kvg:variant="true" kvg:original="&#20843;" kvg:position="bottom"><g id="kvg:04fca-g6" kvg:element="&#20031;" kvg:position="left"><path id="kvg:04fca-s5" kvg:type="&#12754;" d="M56.56,36.36c0.04,0.43-0.07,1.4-0.33,1.98c-1.73,3.91-6.35,9.54-13.53,15.83"/></g><g id="kvg:04fca-g7" kvg:position="right"><path id="kvg:04fca-s6" kvg:type="&#12767;" d="M70.48,31.55c0.73,0.73,0.96,1.95,0.96,3.12c0,3.46-0.02,6.07-0.02,8.43c0,3.9,1.46,4.87,9.57,4.87c6.26,0,8.45-0.92,9.29-2.29"/></g></g></g><g id="kvg:04fca-g8" kvg:element="&#22786;" kvg:position="bottom"><path id="kvg:04fca-s7" kvg:type="&#12754;" d="M59.34,53.5c0.05,0.6-0.21,2.14-0.6,2.94c-2.7,5.64-7.63,15-17.71,22.91"/><path id="kvg:04fca-s8" kvg:type="&#12743;" d="M61.5,59.56c2,0.57,4.47,0.52,5.75,0.29c3.44-0.61,7.5-1.73,11.39-2.88c2.3-0.68,3.74,1.15,2.64,3.6C76.04,72.14,59,89.75,43.17,96"/><path id="kvg:04fca-s9" kvg:type="&#12751;" d="M55,68.75c3.89,0.7,20.42,15.06,29.79,21.49c2.95,2.02,5.33,3.39,8.53,4.65"/></g></g></g></g></svg>