<svg xmlns="http://www.w3.org/2000/svg" width="109" height="109" viewBox="0 0 109 109"><g xmlns:kvg="http://kanjivg.tagaini.net" id="kvg:StrokePaths_04fdd" style="fill:none;stroke:#000000;stroke-width:3;stroke-linecap:round;stroke-linejoin:round;"><g id="kvg:04fdd" kvg:element="&#20445;"><g id="kvg:04fdd-g1" kvg:element="&#20155;" kvg:variant="true" kvg:original="&#20154;" kvg:position="left" kvg:radical="general"><path id="kvg:04fdd-s1" kvg:type="&#12754;" d="M32,17c0.25,1.5,0.25,2.79-0.37,4.58C27.75,32.75,22.38,45.62,11,59.79"/><path id="kvg:04fdd-s2" kvg:type="&#12753;" d="M26.03,41c0.59,0.61,1.01,1.72,1.01,2.98c0,10.13-0.03,30.75-0.04,42.52c0,2.78,0,5.18,0,7"/></g><g id="kvg:04fdd-g2" kvg:element="&#21574;" kvg:position="right" kvg:phon="&#21574;"><g id="kvg:04fdd-g3" kvg:element="&#21475;" kvg:position="top"><path id="kvg:04fdd-s3" kvg:type="&#12753;" d="M44.44,17.14c0.71,0.71,1.44,1.73,1.7,3.11c0.93,4.84,1.48,10.09,2.26,15.95c0.2,1.48,0.38,2.92,0.54,4.27"/><path id="kvg:04fdd-s4" kvg:type="&#12757;b" d="M46.69,18.86C56.8,17.2,70.17,15.62,77,14.95c3.07-0.3,4.5,1.55,4.01,4.18c-0.87,4.62-2.23,9.15-3.56,15.38"/><path id="kvg:04fdd-s5" kvg:type="&#12752;b" d="M50.12,38.33c4.36-0.52,16.06-1.67,24.63-2.6c1.98-0.22,3.73-0.17,5.11-0.35"/></g><g id="kvg:04fdd-g4" kvg:element="&#26408;" kvg:position="bottom"><path id="kvg:04fdd-s6" kvg:type="&#12752;" d="M36.11,56.69c2.14,0.31,3.9,0.25,5.89,0.11c7.91-0.55,33.25-2.79,45.64-3.26c1.61-0.06,3.88,0.03,5.47,0.32"/><path id="kvg:04fdd-s7" kvg:type="&#12753;" d="M62.6,43.27c0.75,0.75,1.27,1.98,1.27,3.95c0,5.02,0,26.55-0.09,38.78c-0.03,3.62,0.02,6.55-0.02,7.88"/><path id="kvg:04fdd-s8" kvg:type="&#12754;" d="M60.13,56.32c0,0.93-0.35,1.99-1.18,3.31c-5.97,9.5-15.91,20.27-25.2,25.24"/><path id="kvg:04fdd-s9" kvg:type="&#12751;" d="M65.92,55.63C72.25,64.62,80,72.75,87.94,80.08c2.3,2.12,4.67,3.81,6.68,5.3"/></g></g></g></g></svg>