<svg xmlns="http://www.w3.org/2000/svg" width="109" height="109" viewBox="0 0 109 109"><g xmlns:kvg="http://kanjivg.tagaini.net" id="kvg:StrokePaths_04fdf" style="fill:none;stroke:#000000;stroke-width:3;stroke-linecap:round;stroke-linejoin:round;"><g id="kvg:04fdf" kvg:element="&#20447;"><g id="kvg:04fdf-g1" kvg:element="&#20155;" kvg:variant="true" kvg:original="&#20154;" kvg:position="left" kvg:radical="general"><path id="kvg:04fdf-s1" kvg:type="&#12754;" d="M30.5,16.39c0.13,1.19,0.22,2.68-0.11,4.15c-2.11,9.25-10.26,27.14-20.08,39.68"/><path id="kvg:04fdf-s2" kvg:type="&#12753;" d="M24.99,41c0.66,0.68,0.84,2.19,0.84,3.58c0,14.46-0.32,43.08-0.32,52.79"/></g><g id="kvg:04fdf-g2" kvg:element="&#30691;" kvg:position="right"><g id="kvg:04fdf-g3" kvg:element="&#21430;" kvg:position="top"><path id="kvg:04fdf-s3" kvg:type="&#12764;" d="M58.04,11.5c0.05,0.71,0.08,2.06-0.25,2.61C53,22,47.81,27,42.29,32.27c-1.75,1.67-1.68,3.27,0.81,2.58c7.65-2.11,31.22-7.3,38.4-8.86"/><path id="kvg:04fdf-s4" kvg:type="&#12756;" d="M72.51,18.7C78.12,21.47,87,30.08,88.4,34.38"/></g><g id="kvg:04fdf-g4" kvg:element="&#30690;" kvg:position="bottom"><path id="kvg:04fdf-s5" kvg:type="&#12754;" d="M51.3,41.02c0.04,0.5,0.07,1.28-0.07,2c-0.84,4.21-6.12,14.58-11.38,18.42"/><g id="kvg:04fdf-g5" kvg:element="&#22825;"><path id="kvg:04fdf-s6" kvg:type="&#12752;" d="M51.55,50.81c1.4,0.05,3.55,0.07,4.51-0.03c3.96-0.41,15.93-3.03,22.03-3.74c1.6-0.19,2.62-0.24,3.44-0.14"/><g id="kvg:04fdf-g6" kvg:element="&#22823;"><path id="kvg:04fdf-s7" kvg:type="&#12752;" d="M35.16,69.13c1.48,0.39,4.6,0.47,5.56,0.38c16.25-1.61,37.35-4.05,48.9-4.31c1.23-0.03,2.97,0.1,5.71,0.57"/><path id="kvg:04fdf-s8" kvg:type="&#12754;" d="M63.38,52.71c0.31,0.68,0.63,1.31,0.61,2.63c-0.2,22.82-10.12,34.5-26.44,41.51"/><path id="kvg:04fdf-s9" kvg:type="&#12751;" d="M64.3,67.33C72.25,77,85.39,88.8,92.04,93.08c2.26,1.46,3.05,1.67,4.08,1.81"/></g></g></g></g></g></g></svg>