<svg xmlns="http://www.w3.org/2000/svg" width="109" height="109" viewBox="0 0 109 109"><g xmlns:kvg="http://kanjivg.tagaini.net" id="kvg:StrokePaths_04fd8" style="fill:none;stroke:#000000;stroke-width:3;stroke-linecap:round;stroke-linejoin:round;"><g id="kvg:04fd8" kvg:element="&#20440;"><g id="kvg:04fd8-g1" kvg:element="&#20155;" kvg:variant="true" kvg:original="&#20154;" kvg:position="left" kvg:radical="general"><path id="kvg:04fd8-s1" kvg:type="&#12754;" d="M36.47,16.39c0.16,1.16,0.27,2.62-0.14,4.05c-2.6,9.04-12.66,26.52-24.77,38.77"/><path id="kvg:04fd8-s2" kvg:type="&#12753;" d="M25.99,45c0.66,0.68,0.84,2.19,0.84,3.58c0,14.46-0.32,40.58-0.32,50.29"/></g><g id="kvg:04fd8-g2" kvg:element="&#23386;" kvg:position="right"><g id="kvg:04fd8-g3" kvg:element="&#11940;" kvg:variant="true" kvg:original="&#29226;" kvg:position="top"><path id="kvg:04fd8-s3" kvg:type="&#12754;" d="M74.43,12.04c0.08,0.26,0.16,0.68-0.15,1.06c-1.83,2.23-12.84,8.14-26.66,10.13"/><path id="kvg:04fd8-s4" kvg:type="&#12754;" d="M46.66,27.84c0.03,0.42,0.07,1.09-0.06,1.7c-0.78,3.59-5.29,11.47-11.45,16.29"/><path id="kvg:04fd8-s5" kvg:type="&#12756;" d="M60.77,27.49c2.26,2.09,5.85,8.59,6.41,11.84"/><path id="kvg:04fd8-s6" kvg:type="&#12756;" d="M77.11,23.76C83,26.64,92.32,35.61,93.79,40.1"/></g><g id="kvg:04fd8-g4" kvg:element="&#23376;" kvg:position="bottom"><path id="kvg:04fd8-s7" kvg:type="&#12758;" d="M46.17,47.62c0.85,0.26,2.45,0.67,3.73,0.44c1.56-0.28,28.43-4.56,29.91-4.56c1.48,0,2.19,0.78,0.7,2.34c-1.48,1.56-12.31,8.49-16.07,11.32"/><path id="kvg:04fd8-s8" kvg:type="&#12757;v" d="M60.45,56.91c17.8,8.84,10.55,52.59-0.3,36.6"/><path id="kvg:04fd8-s9" kvg:type="&#12752;" d="M36.75,68.72c1.12,0.52,3.17,0.6,4.3,0.52c9.47-0.65,42.91-5.47,52.02-5.32c1.87,0.03,2.99,0.25,3.93,0.51"/></g></g></g></g></svg>