<svg xmlns="http://www.w3.org/2000/svg" width="109" height="109" viewBox="0 0 109 109"><g xmlns:kvg="http://kanjivg.tagaini.net" id="kvg:StrokePaths_04ffe" style="fill:none;stroke:#000000;stroke-width:3;stroke-linecap:round;stroke-linejoin:round;"><g id="kvg:04ffe" kvg:element="&#20478;"><g id="kvg:04ffe-g1" kvg:element="&#20155;" kvg:variant="true" kvg:original="&#20154;" kvg:position="left" kvg:radical="general"><path id="kvg:04ffe-s1" kvg:type="&#12754;" d="M31.5,14.89c0.12,1.1,0.22,2.47-0.11,3.82c-2.08,8.51-10.13,24.97-19.83,36.51"/><path id="kvg:04ffe-s2" kvg:type="&#12753;" d="M25.99,38.5c0.66,0.68,0.84,2.19,0.84,3.58c0,14.46-0.32,43.08-0.32,52.79"/></g><g id="kvg:04ffe-g2" kvg:position="right"><g id="kvg:04ffe-g3" kvg:element="&#21329;" kvg:position="top"><g id="kvg:04ffe-g4" kvg:element="&#20031;"><path id="kvg:04ffe-s3" kvg:type="&#12754;" d="M62.28,13.64c0.02,0.3,0.04,0.76-0.04,1.19c-0.49,2.51-3.32,8.01-7.18,11.38"/></g><g id="kvg:04ffe-g5" kvg:element="&#30000;" kvg:partial="true"><path id="kvg:04ffe-s4" kvg:type="&#12753;" d="M40.99,28.53c0.33,0.48,0.34,0.82,0.53,1.44c1.51,5.04,3.94,19.1,4.88,28.5"/><path id="kvg:04ffe-s5" kvg:type="&#12757;" d="M42.56,29.77c11.73-1.27,33.69-3.41,42.45-4.47c3.22-0.39,4.47,0.68,4.24,3.35c-0.44,5.1-3,17.86-6.03,26.36"/><path id="kvg:04ffe-s6" kvg:type="&#12752;" d="M45.25,42.74c3.82-0.49,38.82-3.13,41.98-3.33"/><path id="kvg:04ffe-s7" kvg:type="&#12752;" d="M46.5,56.2c8.45-0.54,25.55-2.23,37.22-3.12"/><g id="kvg:04ffe-g6" kvg:element="&#20031;" kvg:position="bottom"><path id="kvg:04ffe-s8" kvg:type="&#12754;" d="M64.41,28.43c0.59,1.07,0.55,2.68,0.39,4.12C63.25,47,59.75,64.25,45.51,72"/></g></g><g id="kvg:04ffe-g7" kvg:element="&#21313;"><path id="kvg:04ffe-s9" kvg:type="&#12752;" d="M34.75,75.47c0.78,0.36,2.87,1.33,4.93,1.07c13.97-1.76,37.25-5.46,50.52-5.8c2.08-0.05,3.75,0.11,5.05,0.46"/><path id="kvg:04ffe-s10" kvg:type="&#12753;" d="M70.87,59.25c1.13,1,1.74,2.75,1.96,3.75c0.22,1,0,30.25-0.22,36.5"/></g></g></g></g></g></svg>