<svg xmlns="http://www.w3.org/2000/svg" width="109" height="109" viewBox="0 0 109 109"><g xmlns:kvg="http://kanjivg.tagaini.net" id="kvg:StrokePaths_05016" style="fill:none;stroke:#000000;stroke-width:3;stroke-linecap:round;stroke-linejoin:round;"><g id="kvg:05016" kvg:element="&#20502;"><g id="kvg:05016-g1" kvg:element="&#20155;" kvg:variant="true" kvg:original="&#20154;" kvg:position="left" kvg:radical="general"><path id="kvg:05016-s1" kvg:type="&#12754;" d="M37.15,10.75c0.16,1.25,0.29,2.82-0.15,4.36c-2.76,9.73-13.41,29.03-26.26,42.21"/><path id="kvg:05016-s2" kvg:type="&#12753;" d="M26.23,40.61c0.96,0.96,1.01,2.47,1.01,3.73c0,10.57-0.03,31.57-0.04,43.79c0,2.84,0,5.21,0,6.86"/></g><g id="kvg:05016-g2" kvg:element="&#24184;" kvg:position="right"><g id="kvg:05016-g3" kvg:position="top"><g id="kvg:05016-g4" kvg:element="&#22303;"><path id="kvg:05016-s3" kvg:type="&#12752;" d="M47.51,22.8c2.36,0.45,4.71,0.25,6.87-0.02c8.88-1.09,16.2-2.36,25.13-2.84c2.24-0.12,4.48-0.33,6.68,0.23"/><path id="kvg:05016-s4" kvg:type="&#12753;a" d="M63.67,9.25c0.91,0.91,1.27,2.02,1.27,3.89c0,12.11-0.07,19.82-0.07,22.86"/><path id="kvg:05016-s5" kvg:type="&#12752;" d="M37.63,38.36c2.83,1.09,6.59,0.58,9.5,0.27c11.75-1.25,25.66-2.85,38.13-3.56c3.14-0.18,6.29-0.08,9.38,0.64"/></g><path id="kvg:05016-s6" kvg:type="&#12756;" d="M50.25,44c1.72,1.98,4.45,8.14,4.88,11.22"/><path id="kvg:05016-s7" kvg:type="&#12754;" d="M79.85,40.14c0.06,0.81-0.03,1.6-0.26,2.38c-0.74,2.74-2.74,6.48-5.75,11.2"/></g><g id="kvg:05016-g5" kvg:element="&#24178;" kvg:position="bottom"><path id="kvg:05016-s8" kvg:type="&#12752;" d="M36.46,58.98c2.92,0.77,6.23,0.58,8.67,0.31C55.75,58.12,73,56.25,87.75,55.6c2.7-0.12,5.43,0.07,8.07,0.85"/><g id="kvg:05016-g6" kvg:element="&#21313;"><path id="kvg:05016-s9" kvg:type="&#12752;" d="M38.13,74.9c2.8,0.96,6,0.38,8.85,0.09c10.17-1.03,29.13-2.87,39.54-3.42c2.58-0.13,5.09-0.2,7.63,0.32"/><path id="kvg:05016-s10" kvg:type="&#12753;" d="M64.81,59.25c1.03,1.04,1.04,2.25,1.04,3.58c0,0.79-0.05,16.52-0.08,26.54c-0.01,2.97-0.01,5.45-0.01,6.88"/></g></g></g></g></g></svg>