<svg xmlns="http://www.w3.org/2000/svg" width="109" height="109" viewBox="0 0 109 109"><g xmlns:kvg="http://kanjivg.tagaini.net" id="kvg:StrokePaths_05029" style="fill:none;stroke:#000000;stroke-width:3;stroke-linecap:round;stroke-linejoin:round;"><g id="kvg:05029" kvg:element="&#20521;"><g id="kvg:05029-g1" kvg:element="&#20155;" kvg:variant="true" kvg:original="&#20154;" kvg:position="left" kvg:radical="general"><path id="kvg:05029-s1" kvg:type="&#12754;" d="M33.25,17.39c0.13,1.18,0.22,2.67-0.11,4.12c-2.11,9.2-10.26,26.98-20.08,39.45"/><path id="kvg:05029-s2" kvg:type="&#12753;" d="M26.99,43.5c0.66,0.68,0.84,2.19,0.84,3.58c0,14.46-0.32,38.08-0.32,47.79"/></g><g id="kvg:05029-g2" kvg:element="&#38738;" kvg:variant="true" kvg:position="right"><g id="kvg:05029-g3" kvg:position="top"><path id="kvg:05029-s3" kvg:type="&#12752;" d="M43.62,21.85c0.99,0.34,2.8,0.41,3.79,0.34c7.12-0.49,29.75-3.52,35.89-4.05c1.64-0.14,2.32-0.08,3.19-0.02"/><path id="kvg:05029-s4" kvg:type="&#12753;" d="M61.62,10.88c0.8,0.23,2.65,2.7,2.65,3.18c0,5.93,0.37,20.08,0.45,27.41"/><path id="kvg:05029-s5" kvg:type="&#12752;" d="M43.96,32.82c0.99,0.25,2.8,0.3,3.79,0.25c7.13-0.36,28.11-3.64,34.25-4.03c1.64-0.1,2.85-0.06,3.72-0.02"/><path id="kvg:05029-s6" kvg:type="&#12752;" d="M35.88,44.64c1.54,0.27,4.37,0.41,5.91,0.27c12.52-1.16,34.53-3.91,47.82-5.18c2.54-0.24,6.29-0.23,8.14,0.43"/></g><g id="kvg:05029-g4" kvg:element="&#26376;" kvg:variant="true" kvg:position="bottom"><g id="kvg:05029-g5" kvg:element="&#20870;"><g id="kvg:05029-g6" kvg:element="&#20866;"><path id="kvg:05029-s7" kvg:type="&#12753;" d="M48.06,52.78c0.71,0.55,1.18,2.1,1.41,2.65c0.24,0.55,0.13,24.58,0.13,40.32"/><path id="kvg:05029-s8" kvg:type="&#12742;a" d="M49.39,54.33c5.36-0.58,26.26-3.61,28.37-3.61c2.49,0,4.21,0.78,4.21,2.61c0,4.18-0.1,25.74-0.21,36.85C81.67,100,77,94,74.97,91.91"/></g><path id="kvg:05029-s9" kvg:type="&#12753;" d="M65.39,52.36c0,4.64-0.14,13.89-0.14,16.64"/><path id="kvg:05029-s10" kvg:type="&#12752;" d="M50.6,70.74c9.65-0.74,21.65-2.24,31.47-2.42"/></g></g></g></g></g></svg>