<svg xmlns="http://www.w3.org/2000/svg" width="109" height="109" viewBox="0 0 109 109"><g xmlns:kvg="http://kanjivg.tagaini.net" id="kvg:StrokePaths_05036" style="fill:none;stroke:#000000;stroke-width:3;stroke-linecap:round;stroke-linejoin:round;"><g id="kvg:05036" kvg:element="&#20534;"><g id="kvg:05036-g1" kvg:element="&#20155;" kvg:variant="true" kvg:original="&#20154;" kvg:position="left" kvg:radical="general"><path id="kvg:05036-s1" kvg:type="&#12754;" d="M38.95,15.89c0,1.61-0.19,2.64-0.66,4.08c-2.94,9.09-14.3,26.17-27.99,38.5"/><path id="kvg:05036-s2" kvg:type="&#12753;" d="M29.03,40c0.8,0.8,1.01,1.97,1.01,3.23c0,10.08-0.02,30.42-0.04,43.15c0,3.71-0.01,6.78-0.01,8.75"/></g><g id="kvg:05036-g2" kvg:element="&#20855;" kvg:position="right"><g id="kvg:05036-g3" kvg:element="&#30446;" kvg:position="top"><path id="kvg:05036-s3" kvg:type="&#12753;" d="M53.8,17.23c0.93,0.93,1.25,2.15,1.25,3.59c0,5.41-0.03,23.27-0.04,34.68C55,59.77,55,63.15,55,64.62"/><path id="kvg:05036-s4" kvg:type="&#12757;a" d="M55.73,18.67c2.01-0.16,15.68-2.36,20.6-3.07c2.73-0.4,4.55,1.07,4.55,4.35c0,6.3-0.01,25.04-0.53,42.1"/><path id="kvg:05036-s5" kvg:type="&#12752;a" d="M56.22,32.41c9.03-1.16,16.53-1.78,23.4-2.35"/><path id="kvg:05036-s6" kvg:type="&#12752;a" d="M55.58,46.13c6.13-0.61,16.39-1.87,23.95-2.27"/><path id="kvg:05036-s7" kvg:type="&#12752;a" d="M55.99,61.1c9.12-1.49,15.82-2.06,23.36-2.81"/></g><g id="kvg:05036-g4" kvg:position="bottom"><path id="kvg:05036-s8" kvg:type="&#12752;" d="M39.84,73.8c3.27,0.34,6.54,0.32,9.8-0.1C62.62,72,74.38,71,88.37,69.73c3.12-0.28,6.21,0.01,9.29,0.57"/><g id="kvg:05036-g5" kvg:element="&#20843;"><path id="kvg:05036-s9" kvg:type="&#12754;" d="M57.26,79.47c0,1.15-0.35,1.93-1.03,2.68c-3.24,3.6-8.11,7.6-14.81,11.56"/><path id="kvg:05036-s10" kvg:type="&#12751;" d="M75.07,78.36c6.4,3.17,15.79,12.02,17.39,16.95"/></g></g></g></g></g></svg>