<svg xmlns="http://www.w3.org/2000/svg" width="109" height="109" viewBox="0 0 109 109"><g xmlns:kvg="http://kanjivg.tagaini.net" id="kvg:StrokePaths_05072" style="fill:none;stroke:#000000;stroke-width:3;stroke-linecap:round;stroke-linejoin:round;"><g id="kvg:05072" kvg:element="&#20594;"><g id="kvg:05072-g1" kvg:element="&#20155;" kvg:variant="true" kvg:original="&#20154;" kvg:position="left" kvg:radical="general"><path id="kvg:05072-s1" kvg:type="&#12754;" d="M34.92,14.75c0.15,1.16,0.16,2.66-0.38,4.03C31,27.75,22.38,44.12,10.75,57.32"/><path id="kvg:05072-s2" kvg:type="&#12753;" d="M26.19,40.61c0.85,0.85,1.07,1.77,1.07,3.76c0,10.98-0.01,30.25-0.01,43.39c0,3.32,0,6.23,0,8.5"/></g><g id="kvg:05072-g2" kvg:element="&#24605;" kvg:position="right"><g id="kvg:05072-g3" kvg:element="&#30000;" kvg:position="top"><path id="kvg:05072-s3" kvg:type="&#12753;" d="M44.13,20.94c0.96,0.96,1.44,2.23,1.67,3.43c1.45,7.76,3.8,22.92,5.01,32.88"/><path id="kvg:05072-s4" kvg:type="&#12757;a" d="M46.66,22.28c13.86-2.19,28.27-4.19,36.72-4.88c3.14-0.26,6.21,0.45,5.77,4.42c-0.48,4.36-1.98,16.17-3.93,25.68c-0.41,1.99-0.83,3.87-1.27,5.57"/><path id="kvg:05072-s5" kvg:type="&#12753;a" d="M65.71,21.84c0.91,0.91,0.97,1.99,0.96,3.33c-0.06,7.41,0.05,23,0.05,25.2"/><path id="kvg:05072-s6" kvg:type="&#12752;a" d="M49.15,37.76c6.35-0.76,27.98-3.88,37.37-4.3"/><path id="kvg:05072-s7" kvg:type="&#12752;a" d="M51.73,53.68c8.26-1.43,24.3-3.09,31.82-3.52"/></g><g id="kvg:05072-g4" kvg:element="&#24515;" kvg:position="bottom"><path id="kvg:05072-s8" kvg:type="&#12756;" d="M41.69,74.54c0.27,2.13-2.67,11.56-4.8,15.12"/><path id="kvg:05072-s9" kvg:type="&#12767;b" d="M49.03,70.67c7.47,13.2,17.47,24.4,37.57,24.4c7.24,0,6.56-2.9,2.34-7.46"/><path id="kvg:05072-s10" kvg:type="&#12756;a" d="M63.88,67.5c1.98,3.55,6.09,9.13,7.33,4.12"/><path id="kvg:05072-s11" kvg:type="&#12756;" d="M85.55,64.75c4.95,4,8.95,7.5,11.95,13.72"/></g></g></g></g></svg>