<svg xmlns="http://www.w3.org/2000/svg" width="109" height="109" viewBox="0 0 109 109"><g xmlns:kvg="http://kanjivg.tagaini.net" id="kvg:StrokePaths_050d5" style="fill:none;stroke:#000000;stroke-width:3;stroke-linecap:round;stroke-linejoin:round;"><g id="kvg:050d5" kvg:element="&#20693;"><g id="kvg:050d5-g1" kvg:element="&#20155;" kvg:variant="true" kvg:original="&#20154;" kvg:position="left" kvg:radical="general"><path id="kvg:050d5-s1" kvg:type="&#12754;" d="M31.5,15.14c0.13,1.23-0.03,2.53-0.36,4.04C29,28.75,20,47.25,10.06,60.22"/><path id="kvg:050d5-s2" kvg:type="&#12753;" d="M23.75,42.75c1.06,1.06,1.32,2.38,1.32,4.24c0,11.39,0.04,32.24-0.03,45.01c-0.02,3.02-0.03,5.56-0.03,7.38"/></g><g id="kvg:050d5-g2" kvg:element="&#33744;" kvg:position="right" kvg:phon="&#33744;"><path id="kvg:050d5-s3" kvg:type="&#12753;a" d="M55.55,13.89c0.84,0.84,1.36,2.1,1.45,3.76c0.25,4.73,0.62,9.98,0.85,14.77"/><path id="kvg:050d5-s4" kvg:type="&#12753;a" d="M68.55,10.39c1,1.59,1.2,2.54,1.2,3.81c0,1.27-1,15.05-1.4,18.21"/><path id="kvg:050d5-s5" kvg:type="&#12756;" d="M41.52,18.33c2.04,1.96,5.28,8.08,5.79,11.13"/><path id="kvg:050d5-s6" kvg:type="&#12754;" d="M84.78,14.64c0.11,0.88-0.02,1.73-0.39,2.53c-1.89,4.08-4,8.13-8.08,13.05"/><path id="kvg:050d5-s7" kvg:type="&#12752;" d="M36.5,35.65c2.45,0.89,5.73,0.33,8.24-0.01c9.39-1.28,30.78-3.87,41.39-4.49c2.45-0.14,4.95-0.31,7.38,0.22"/><path id="kvg:050d5-s8" kvg:type="&#12756;" d="M50.52,38.08c1.43,1.57,3.69,6.45,4.04,8.88"/><path id="kvg:050d5-s9" kvg:type="&#12754;" d="M74.53,35.39c0.03,0.33,0.13,0.88-0.05,1.34c-0.98,2.39-2.1,4.89-4.98,8.77"/><g id="kvg:050d5-g3" kvg:element="&#19977;"><g id="kvg:050d5-g4" kvg:element="&#19968;" kvg:position="top"><path id="kvg:050d5-s10" kvg:type="&#12752;" d="M43,50.4c2.5,0.47,5.05,0.27,7.39-0.04c6.7-0.88,18.67-2.7,27.11-3.21c2.49-0.15,5.04-0.56,7.5-0.02"/></g><g id="kvg:050d5-g5" kvg:position="bottom"><g id="kvg:050d5-g6" kvg:element="&#19968;"><path id="kvg:050d5-s11" kvg:type="&#12752;" d="M44.5,62.65c2.62,0.47,4.5,0.33,6.63,0.06c6.17-0.78,18.74-2.09,25.99-2.86c2.28-0.24,4.62-0.22,6.88,0.27"/></g><g id="kvg:050d5-g7" kvg:element="&#19968;"><path id="kvg:050d5-s12" kvg:type="&#12752;" d="M37.5,75.4c3.12,0.35,6.07,0.33,9,0.08c9.11-0.78,26.88-2.77,38.88-3.15c3.13-0.1,6.04,0.04,9.12,0.54"/></g></g></g><g id="kvg:050d5-g8" kvg:element="&#20154;"><path id="kvg:050d5-s13" kvg:type="&#12754;" d="M61.78,51.75c0.47,1,0.87,2.79,0.86,4.38C62.5,71.25,57.25,90.25,36.75,98"/><path id="kvg:050d5-s14" kvg:type="&#12751;" d="M63.65,74.98c2.98,1.65,12.46,11.19,22,17.91c2.27,1.6,3.98,2.74,6.85,4.06"/></g></g></g></g></svg>