<svg xmlns="http://www.w3.org/2000/svg" width="109" height="109" viewBox="0 0 109 109"><g xmlns:kvg="http://kanjivg.tagaini.net" id="kvg:StrokePaths_05118" style="fill:none;stroke:#000000;stroke-width:3;stroke-linecap:round;stroke-linejoin:round;"><g id="kvg:05118" kvg:element="&#20760;"><g id="kvg:05118-g1" kvg:element="&#20155;" kvg:variant="true" kvg:original="&#20154;" kvg:position="left" kvg:radical="general"><path id="kvg:05118-s1" kvg:type="&#12754;" d="M30.01,15.39c0.12,1.25,0.2,2.81-0.1,4.34c-1.95,9.67-9.5,28.38-18.59,41.49"/><path id="kvg:05118-s2" kvg:type="&#12753;" d="M26.49,38c0.66,0.68,0.84,2.19,0.84,3.58c0,14.46-0.32,44.58-0.32,54.29"/></g><g id="kvg:05118-g2" kvg:element="&#30433;" kvg:position="right"><g id="kvg:05118-g3" kvg:position="top"><g id="kvg:05118-g4" kvg:element="&#32895;" kvg:partial="true" kvg:position="top"><g id="kvg:05118-g5" kvg:element="&#11925;" kvg:variant="true" kvg:original="&#24401;"><path id="kvg:05118-s3" kvg:type="&#12757;" d="M43.92,22.73c2.08,0.22,2.67,0.57,4.59,0.43c8.76-0.65,24.26-3.25,32.6-3.68c2.71-0.14,4.56,1.05,4.17,3.23c-0.62,3.45-1.12,8.91-2.58,18.61"/><path id="kvg:05118-s4" kvg:type="&#12752;" d="M38.88,33.99c1.64,0.56,2.93,0.82,4.74,0.56c15.88-2.26,35.22-4.3,47.82-5.15c2.01-0.13,3.65,0.57,4.56,0.85"/><path id="kvg:05118-s5" kvg:type="&#12752;" d="M43.76,45.36c1.04,0.21,2.92,0.33,4.17,0.21c11.47-1.08,21.89-2.17,32.31-3.25c1.66-0.17,2.71,0,3.96,0.22"/></g><g id="kvg:05118-g6" kvg:element="&#20008;"><path id="kvg:05118-s6" kvg:type="&#12753;" d="M62.83,11.25c0.91,0.43,1.63,1.91,1.63,2.8c0,4.77-0.18,34.38-0.18,40.98"/></g><path id="kvg:05118-s7" kvg:type="&#12752;" d="M38.82,56.82c1.27,0.47,3.59,0.61,4.85,0.47c14.84-1.74,34.69-4.15,46.21-4.54c2.11-0.07,3.38,0.22,4.43,0.46"/></g><g id="kvg:05118-g7" kvg:element="&#28780;" kvg:variant="true" kvg:original="&#28779;" kvg:position="bottom"><path id="kvg:05118-s8" kvg:type="&#12756;" d="M42.34,64.54c0,3.87-5.22,9.59-6.59,10.69"/><path id="kvg:05118-s9" kvg:type="&#12756;" d="M54.36,63.18c2.1,1.58,4.09,5.94,4.62,8.41"/><path id="kvg:05118-s10" kvg:type="&#12756;" d="M69,61.22c2.51,1.44,6.49,5.91,7.12,8.15"/><path id="kvg:05118-s11" kvg:type="&#12756;" d="M85.42,60.21c3.24,1.96,8.36,8.05,9.17,11.1"/></g></g><g id="kvg:05118-g8" kvg:element="&#30399;" kvg:position="bottom"><path id="kvg:05118-s12" kvg:type="&#12753;a" d="M43.32,77.28c0.51,0.48,1.16,1.5,1.27,1.91c0.85,3.25,1.06,9.84,1.64,15.68"/><path id="kvg:05118-s13" kvg:type="&#12757;b" d="M44.87,78.69c9.1-0.67,37.44-3.77,40.75-3.69c1.43,0.04,2.32,0.73,2.08,1.94c-0.45,2.31-1.45,9.56-2.64,15.68"/><path id="kvg:05118-s14" kvg:type="&#12753;a" d="M58.03,79.37c0.21,0.31,0.52,1.4,0.52,1.8c0,4.88,0.08,6.34,0.14,12.59"/><path id="kvg:05118-s15" kvg:type="&#12753;a" d="M71.44,77.94c0.39,0.37,0.71,1,0.69,1.48C72,84,71.5,87.5,70.94,92.92"/><path id="kvg:05118-s16" kvg:type="&#12752;" d="M35.82,95.44c1.16,0.54,3.29,0.62,4.44,0.54c12.07-0.9,32.65-3.05,54.86-3.19c1.93-0.01,3.09,0.25,4.06,0.52"/></g></g></g></g></svg>