<svg xmlns="http://www.w3.org/2000/svg" width="109" height="109" viewBox="0 0 109 109"><g xmlns:kvg="http://kanjivg.tagaini.net" id="kvg:StrokePaths_05112" style="fill:none;stroke:#000000;stroke-width:3;stroke-linecap:round;stroke-linejoin:round;"><g id="kvg:05112" kvg:element="&#20754;"><g id="kvg:05112-g1" kvg:element="&#20155;" kvg:variant="true" kvg:original="&#20154;" kvg:position="left" kvg:radical="general"><path id="kvg:05112-s1" kvg:type="&#12754;" d="M30.25,15.39c0.13,1.14-0.02,2.08-0.37,3.48c-2.19,8.88-10.64,26.05-20.82,38.09"/><path id="kvg:05112-s2" kvg:type="&#12753;" d="M24.73,36.5c0.95,0.95,1.12,2.52,1.12,3.97c0,12.9,0,37.07-0.07,50.03c-0.01,2.13-0.02,3.95-0.02,5.38"/></g><g id="kvg:05112-g2" kvg:element="&#38656;" kvg:position="right" kvg:phon="&#38656;"><g id="kvg:05112-g3" kvg:element="&#38632;" kvg:variant="true" kvg:position="top"><path id="kvg:05112-s3" kvg:type="&#12752;" d="M45.42,19.39c2.58,0.48,5.21-0.01,7.83-0.35c7.14-0.91,19.84-2.52,25.62-2.85c1.97-0.11,4.04-0.26,6,0.04"/><path id="kvg:05112-s4" kvg:type="&#12756;/&#12753;" d="M41.39,30.33c-0.17,5.22-1.67,9.99-2.78,15.26"/><path id="kvg:05112-s5" kvg:type="&#12758;b/&#12742;" d="M42.09,31.76c16.16-2.39,35.69-5.01,47.79-5.01c7.01,0,2.24,5.49-0.22,8.14"/><path id="kvg:05112-s6" kvg:type="&#12753;" d="M63.79,20.93c0.7,1.4,1.01,2.32,1.02,3.69c0,0.36-0.11,13.58-0.17,21.13c-0.02,2.73-0.04,4.72-0.04,5.08"/><path id="kvg:05112-s7" kvg:type="&#12756;" d="M50.51,36.12c2.51,0.5,5.92,2.01,7.29,2.85"/><path id="kvg:05112-s8" kvg:type="&#12756;" d="M49.03,43.86c2.54,0.57,6.45,2.67,7.84,3.62"/><path id="kvg:05112-s9" kvg:type="&#12756;" d="M73.88,33.5c2.93,0.6,6.25,1.79,7.42,2.29"/><path id="kvg:05112-s10" kvg:type="&#12756;" d="M74.79,42.15c2.84,0.6,6.71,2.39,8.26,3.39"/></g><g id="kvg:05112-g4" kvg:element="&#32780;" kvg:position="bottom"><g id="kvg:05112-g5" kvg:position="top"><path id="kvg:05112-s11" kvg:type="&#12752;" d="M43.04,59.13c2.58,0.62,5.29,0.4,7.45,0.16c7.76-0.89,21.56-2.25,28.88-2.59c2.17-0.1,4.54-0.2,6.67,0.35"/><path id="kvg:05112-s12" kvg:type="&#12754;" d="M63,61.11c0,0.64-0.26,1.34-0.59,1.8c-1.06,2.16-1.96,3.41-5.06,6.85"/></g><g id="kvg:05112-g6" kvg:position="bottom"><g id="kvg:05112-g7" kvg:element="&#20866;"><path id="kvg:05112-s13" kvg:type="&#12753;" d="M40.74,72.13c0.94,0.94,1.41,2.4,1.54,4.08c0.13,1.68,0.71,8.83,1.18,14.29c0.22,2.53,0.42,4.7,0.54,5.79"/><path id="kvg:05112-s14" kvg:type="&#12742;a" d="M42.39,73.98c6.21-0.74,40.98-4.85,45.61-5.44c2.65-0.34,4.13,0.96,4.09,3.44C92,78,91,85.25,89.5,91.6c-1.52,6.44-4.78,5.02-6.74,2.61"/></g><path id="kvg:05112-s15" kvg:type="&#12753;" d="M56.93,74.74c0.92,0.92,1.16,2.01,1.16,3.46c0,2.8-0.09,6.89-0.08,11.08c0,2.17,0,3.89,0,4.35"/><path id="kvg:05112-s16" kvg:type="&#12753;" d="M72.13,73.52c0.86,0.86,1.02,2.33,1.02,3.69c0,2.94-0.02,8.51-0.02,12.79c0,1.77-0.01,3.32-0.01,4.38"/></g></g></g></g></g></svg>