<svg xmlns="http://www.w3.org/2000/svg" width="109" height="109" viewBox="0 0 109 109"><g xmlns:kvg="http://kanjivg.tagaini.net" id="kvg:StrokePaths_0513a" style="fill:none;stroke:#000000;stroke-width:3;stroke-linecap:round;stroke-linejoin:round;"><g id="kvg:0513a" kvg:element="&#20794;"><g id="kvg:0513a-g1" kvg:element="&#20155;" kvg:variant="true" kvg:original="&#20154;" kvg:position="left" kvg:radical="general"><path id="kvg:0513a-s1" kvg:type="&#12754;" d="M27.45,15.5c0.12,1.2,0.2,2.71-0.1,4.19c-1.95,9.36-9.5,27.45-18.6,40.13"/><path id="kvg:0513a-s2" kvg:type="&#12753;" d="M21.98,41.11c0.59,0.61,0.76,1.97,0.76,3.23c0,13.02-0.29,43.15-0.29,51.9"/></g><g id="kvg:0513a-g2" kvg:element="&#38627;" kvg:variant="true" kvg:position="right"><g id="kvg:0513a-g3" kvg:position="left"><g id="kvg:0513a-g4" kvg:element="&#24319;"><g id="kvg:0513a-g5" kvg:element="&#33401;" kvg:part="1" kvg:variant="true" kvg:original="&#33400;"><g id="kvg:0513a-g6" kvg:element="&#21313;"><path id="kvg:0513a-s3" kvg:type="&#12752;" d="M30.48,28.55c0.69,0.38,1.5,0.44,2.19,0.38c7.82-0.67,19.96-3.27,27.26-3.3c1.16-0.01,1.85,0.18,2.43,0.37"/><path id="kvg:0513a-s4" kvg:type="&#12753;" d="M36.87,17.07c1,1.73,1.32,2.26,1.42,3.32c1,9.96,1.48,16.47,1.76,20.09"/></g></g><g id="kvg:0513a-g7" kvg:element="&#33401;" kvg:part="2" kvg:variant="true" kvg:original="&#33400;"><path id="kvg:0513a-s5" kvg:type="&#12753;" d="M52.86,14.31c0.37,1.04,1.07,2.26,0.94,3.6c-0.55,5.59-0.3,12.34-0.69,19.07"/></g><path id="kvg:0513a-s6" kvg:type="&#12752;" d="M42,38.25c3.5-0.5,7.25-1.5,9.75-1.75"/></g><g id="kvg:0513a-g8" kvg:element="&#21475;"><path id="kvg:0513a-s7" kvg:type="&#12753;" d="M31.91,45.25c0.28,0.27,0.56,0.5,0.69,0.84c0.97,2.71,2.54,9.68,3.2,14.54"/><path id="kvg:0513a-s8" kvg:type="&#12757;b" d="M33.64,47.08c5.71-1.41,20.6-3.86,23.87-4.21c1.2-0.13,1.91,0.77,1.74,1.53c-0.71,3.16-1.53,6.49-2.59,10.86"/><path id="kvg:0513a-s9" kvg:type="&#12752;b" d="M35.93,58.26c3.84-0.4,16.66-1.98,21.93-2.6"/></g><g id="kvg:0513a-g9" kvg:element="&#22827;"><path id="kvg:0513a-s10" kvg:type="&#12752;" d="M32.49,66.96c0.58,0.25,1.64,0.35,2.22,0.25c5.02-0.87,16.24-2.04,21.57-2.57c0.96-0.1,1.54,0.12,2.03,0.25"/><g id="kvg:0513a-g10" kvg:element="&#22823;"><path id="kvg:0513a-s11" kvg:type="&#12752;" d="M29.39,77.33c0.67,0.19,1.89,0.19,2.57,0.19c3.99-0.01,20.55-2.46,27.22-2.92c1.11-0.08,1.79,0.09,2.34,0.18"/><path id="kvg:0513a-s12" kvg:type="&#12754;" d="M45,40.14c0.25,0.79,1.19,1.99,1.18,3.53c-0.25,30.31-3.14,43.85-14.74,52.52"/><path id="kvg:0513a-s13" kvg:type="&#12751;" d="M45.38,79.67c5.05,3,9.83,8.19,11.93,13.51"/></g></g></g><g id="kvg:0513a-g11" kvg:element="&#38585;" kvg:position="right"><g id="kvg:0513a-g12" kvg:element="&#20155;" kvg:variant="true" kvg:original="&#20154;"><path id="kvg:0513a-s14" kvg:type="&#12754;" d="M72.24,14.8c0.11,1.44-0.03,3.3-0.4,4.51c-2.35,7.71-5.33,14.19-10.72,23.47"/><path id="kvg:0513a-s15" kvg:type="&#12753;" d="M66.25,36.09c0.5,0.66,0.62,1.67,0.62,2.91c0,13.75-0.36,51.08-0.13,57.08"/></g><path id="kvg:0513a-s16" kvg:type="&#12754;" d="M86.54,16.02c0.06,0.88-0.01,2.04-0.19,2.79c-1.11,4.78-2.52,8.45-5.08,14.23"/><path id="kvg:0513a-s17" kvg:type="&#12752;b" d="M66.52,36.59c5.2-0.86,25.5-2.65,27.73-3.15"/><path id="kvg:0513a-s18" kvg:type="&#12753;a" d="M80.8,37.66c0.25,0.43,0.87,3.01,0.87,3.74c0,7.38,0.03,36.78-0.12,48.38"/><path id="kvg:0513a-s19" kvg:type="&#12752;b" d="M66.95,53.62c4.91-0.68,24.41-2.01,26.51-2.4"/><path id="kvg:0513a-s20" kvg:type="&#12752;b" d="M66.85,70.57c5.18-0.53,25.17-2.26,27.39-2.58"/><path id="kvg:0513a-s21" kvg:type="&#12752;b" d="M67.62,91.19c6.7-0.69,26.9-2.02,29.13-2.52"/></g></g></g></g></svg>