<svg xmlns="http://www.w3.org/2000/svg" width="109" height="109" viewBox="0 0 109 109"><g xmlns:kvg="http://kanjivg.tagaini.net" id="kvg:StrokePaths_05141" style="fill:none;stroke:#000000;stroke-width:3;stroke-linecap:round;stroke-linejoin:round;"><g id="kvg:05141" kvg:element="&#20801;"><g id="kvg:05141-g1" kvg:element="&#21430;" kvg:position="top" kvg:radical="nelson"><path id="kvg:05141-s1" kvg:type="&#12764;" d="M52.5,10.75c0.62,1.5,0.12,3-0.75,4.19c-7.33,10-15.99,20.11-26.25,27.9c-3.25,2.47-3.19,4.64,1.5,3.72c13.62-2.69,33.25-6.82,49.25-9.87"/><path id="kvg:05141-s2" kvg:type="&#12756;" d="M67.77,25.08c6.02,4.13,15.54,16.97,17.04,23.39"/></g><g id="kvg:05141-g2" kvg:element="&#20799;" kvg:position="bottom" kvg:radical="tradit"><g id="kvg:05141-g3" kvg:element="&#20843;" kvg:variant="true"><g id="kvg:05141-g4" kvg:element="&#20031;" kvg:position="left"><path id="kvg:05141-s3" kvg:type="&#12754;" d="M42.9,50.71c0.23,1.04,0.41,2.22,0.1,3.73c-1.81,8.92-12.58,30.94-27.61,41.23"/></g><g id="kvg:05141-g5" kvg:position="right"><path id="kvg:05141-s4" kvg:type="&#12767;" d="M58.78,46.12c1.05,1.05,1.32,2.88,1.32,4.72c0,12.91-0.01,22.36-0.01,29.56c0,13.35,2.41,14.66,16.96,14.66c14.96,0,17.62-2.31,17.62-11.55"/></g></g></g></g></g></svg>