<svg xmlns="http://www.w3.org/2000/svg" width="109" height="109" viewBox="0 0 109 109"><g xmlns:kvg="http://kanjivg.tagaini.net" id="kvg:StrokePaths_0514b" style="fill:none;stroke:#000000;stroke-width:3;stroke-linecap:round;stroke-linejoin:round;"><g id="kvg:0514b" kvg:element="&#20811;"><g id="kvg:0514b-g1" kvg:element="&#21476;" kvg:position="top"><g id="kvg:0514b-g2" kvg:element="&#21313;" kvg:position="top" kvg:radical="nelson"><path id="kvg:0514b-s1" kvg:type="&#12752;" d="M21.25,26.25c3.15,0.97,6.15,0.8,9.36,0.38C43,25,63.01,22.68,74.88,21.77c3.19-0.24,6.21-0.11,9.37,0.48"/><path id="kvg:0514b-s2" kvg:type="&#12753;a" d="M52.56,11.5c1.41,1.41,1.58,2.75,1.58,4.68c0,4.82-0.01,15.32-0.01,22.32"/></g><g id="kvg:0514b-g3" kvg:element="&#20804;" kvg:part="1"><g id="kvg:0514b-g4" kvg:element="&#21475;" kvg:position="bottom"><path id="kvg:0514b-s3" kvg:type="&#12753;" d="M34.47,40.29c0.81,0.81,1.22,2.06,1.33,3.1c0.67,3.08,1.71,8.19,2.6,13.03c0.26,1.4,0.5,2.78,0.72,4.08"/><path id="kvg:0514b-s4" kvg:type="&#12757;b" d="M36.56,41.79c8.58-1.15,23.19-3.29,32.82-4.19c3.23-0.3,5.37,0.77,4.32,4.04c-1.23,3.86-2.42,7.02-3.63,11.8"/><path id="kvg:0514b-s5" kvg:type="&#12752;b" d="M39.84,57.24c7.73-0.84,18.03-1.74,27.65-2.55c1.58-0.13,3.07-0.17,4.42-0.23"/></g></g></g><g id="kvg:0514b-g5" kvg:element="&#20804;" kvg:part="2" kvg:position="bottom"><g id="kvg:0514b-g6" kvg:element="&#20799;" kvg:original="&#20843;" kvg:radical="tradit"><g id="kvg:0514b-g7" kvg:element="&#20031;"><path id="kvg:0514b-s6" kvg:type="&#12754;" d="M46.98,64c0.09,0.7,0.19,1.82-0.18,2.83c-2.19,5.97-13.17,18.54-31.88,27.09"/></g><path id="kvg:0514b-s7" kvg:type="&#12767;" d="M57.74,60.12c0.95,0.95,1.27,2.34,1.31,4.18c0.19,8.19-0.03,12.14-0.03,17.7c0,10,1.6,11.53,16.6,11.53c16.38,0,17.76-1.28,17.76-9.12"/></g></g></g></g></svg>