<svg xmlns="http://www.w3.org/2000/svg" width="109" height="109" viewBox="0 0 109 109"><g xmlns:kvg="http://kanjivg.tagaini.net" id="kvg:StrokePaths_0515a" style="fill:none;stroke:#000000;stroke-width:3;stroke-linecap:round;stroke-linejoin:round;"><g id="kvg:0515a" kvg:element="&#20826;"><g id="kvg:0515a-g1" kvg:element="&#23578;" kvg:variant="true" kvg:position="top" kvg:phon="&#23578;"><g id="kvg:0515a-g2" kvg:element="&#11916;" kvg:variant="true" kvg:original="&#23567;" kvg:position="top" kvg:radical="nelson"><path id="kvg:0515a-s1" kvg:type="&#12753;a" d="M52.46,13.37c1.04,0.88,1.51,2.35,1.51,3.99c0,7.39-0.01,14.07-0.01,16.76"/><path id="kvg:0515a-s2" kvg:type="&#12756;" d="M29.02,19.71c3.28,1.99,8.47,8.17,9.29,11.26"/><path id="kvg:0515a-s3" kvg:type="&#12754;" d="M77.01,16.25c0.07,0.84-0.02,1.66-0.37,2.42c-1.64,3.58-3.62,7.2-7.83,13.3"/></g><g id="kvg:0515a-g3" kvg:position="bottom"><g id="kvg:0515a-g4" kvg:element="&#20866;" kvg:variant="true"><path id="kvg:0515a-s4" kvg:type="&#12756;" d="M19.75,36.12c-0.14,4.65-2.56,15.54-3.75,18.31"/><path id="kvg:0515a-s5" kvg:type="&#12758;b" d="M20.74,39.18c12.76-1.8,45.26-5.3,66.55-6.37c12.94-0.65,0.9,7.94-0.65,9.2"/></g><g id="kvg:0515a-g5" kvg:element="&#20804;" kvg:part="1"><g id="kvg:0515a-g6" kvg:element="&#21475;"><path id="kvg:0515a-s6" kvg:type="&#12753;" d="M34.64,46.98c0.69,0.69,1.36,1.52,1.55,2.51c0.61,3.24,1.58,7.78,2.44,12.23c0.32,1.68,0.61,3.31,0.82,4.78"/><path id="kvg:0515a-s7" kvg:type="&#12757;b" d="M36.52,48.13c4.84-0.75,22.14-2.64,30.22-3.5c3.51-0.38,5.51,1.37,5,4.06c-0.82,4.3-1.36,6.19-2.42,12.1"/><path id="kvg:0515a-s8" kvg:type="&#12752;b" d="M39.58,63.69c9.8-0.98,17.37-1.57,25.94-2.11c1.85-0.12,3.98-0.21,5.7-0.13"/></g></g></g></g><g id="kvg:0515a-g7" kvg:element="&#20804;" kvg:part="2" kvg:position="bottom"><g id="kvg:0515a-g8" kvg:element="&#20799;" kvg:original="&#20843;" kvg:radical="tradit"><g id="kvg:0515a-g9" kvg:element="&#20031;"><path id="kvg:0515a-s9" kvg:type="&#12754;" d="M44.99,66.75c0.07,0.66,0.28,1.68,0.11,2.67c-1.23,6.96-8.48,19.33-25.68,25.75"/></g><path id="kvg:0515a-s10" kvg:type="&#12767;" d="M58.24,64.12c0.88,0.88,1.28,2.02,1.28,3.46c0,7.42,0.01,13.11,0.01,17.46c0,9.59,1.35,10.25,16.49,10.25c15.99,0,16.87-1.04,16.87-9.38"/></g></g></g></g></svg>