<svg xmlns="http://www.w3.org/2000/svg" width="109" height="109" viewBox="0 0 109 109"><g xmlns:kvg="http://kanjivg.tagaini.net" id="kvg:StrokePaths_05178" style="fill:none;stroke:#000000;stroke-width:3;stroke-linecap:round;stroke-linejoin:round;"><g id="kvg:05178" kvg:element="&#20856;"><g id="kvg:05178-g1" kvg:element="&#26354;" kvg:variant="true" kvg:position="top"><g id="kvg:05178-g2" kvg:element="&#26085;" kvg:part="1"><path id="kvg:05178-s1" kvg:type="&#12753;a" d="M25.22,31.84c0.97,0.97,1.46,2.71,1.58,4c0.33,3.53,3.63,34.81,3.63,35.46"/><path id="kvg:05178-s2" kvg:type="&#12757;b" d="M27.23,33.41c4.5-0.49,43.47-3.96,52.29-4.8c3.65-0.35,5.9,0.52,5.28,4.65c-0.87,5.77-3.43,20.11-5.2,34.53"/></g><g id="kvg:05178-g3" kvg:element="&#24318;"><g id="kvg:05178-g4" kvg:element="&#20031;" kvg:variant="true"><path id="kvg:05178-s3" kvg:type="&#12753;a" d="M42.47,16.98c1.28,0.89,1.77,2.6,1.8,3.44c0.48,17.45,1.36,39.95,1.71,49.4"/></g><g id="kvg:05178-g5" kvg:element="&#21313;"><path id="kvg:05178-s4" kvg:type="&#12753;a" d="M65.06,13.25c0.84,0.84,1.38,2.37,1.29,3.69c-1.73,25.81-2.32,34.68-3.51,52.09"/><path id="kvg:05178-s5" kvg:type="&#12752;a" d="M29.59,52.34c15.66-1.47,42.41-3.97,51.5-4.23"/></g></g><g id="kvg:05178-g6" kvg:element="&#26085;" kvg:part="2"><path id="kvg:05178-s6" kvg:type="&#12752;" d="M15.75,72.45c2.21,0.54,6.28,0.75,8.49,0.54C41.38,71.38,73,69.12,88,68.51c3.69-0.15,5.9,0.26,7.75,0.53"/></g></g><g id="kvg:05178-g7" kvg:element="&#20843;" kvg:position="bottom" kvg:radical="general"><g id="kvg:05178-g8" kvg:position="left"><path id="kvg:05178-s7" kvg:type="&#12754;" d="M41.97,78.64c0.09,0.54-0.2,1.21-0.67,1.92C38.38,85,31.88,90.5,20.17,97.08"/></g><g id="kvg:05178-g9" kvg:position="right"><path id="kvg:05178-s8" kvg:type="&#12756;/&#12751;" d="M64.88,78.62C73.14,81.68,86.23,91.23,88.29,96"/></g></g></g></g></svg>