<svg xmlns="http://www.w3.org/2000/svg" width="109" height="109" viewBox="0 0 109 109"><g xmlns:kvg="http://kanjivg.tagaini.net" id="kvg:StrokePaths_05176" style="fill:none;stroke:#000000;stroke-width:3;stroke-linecap:round;stroke-linejoin:round;"><g id="kvg:05176" kvg:element="&#20854;"><g id="kvg:05176-g1" kvg:position="top"><g id="kvg:05176-g2" kvg:element="&#29976;"><g id="kvg:05176-g3" kvg:element="&#24319;" kvg:part="1"><g id="kvg:05176-g4" kvg:element="&#21313;"><path id="kvg:05176-s1" kvg:type="&#12752;" d="M23,30.42c2.61,0.41,5.23,0.48,7.86,0.2c14.14-1.87,32.14-4,48.88-5.6c2.61-0.25,5.18-0.36,7.76,0.08"/><path id="kvg:05176-s2" kvg:type="&#12753;" d="M39.87,16.5c1,1,1.21,2.48,1.21,3.5c0,4,0.03,43.88,0.03,51.5"/></g><path id="kvg:05176-s3" kvg:type="&#12753;" d="M66.87,12.25c1.07,1.06,1.46,2.73,1.46,3.75c0,3.38,0.03,45.12,0.03,52.75"/></g><path id="kvg:05176-s4" kvg:type="&#12752;" d="M42,43.25c5.5-0.62,20.52-2.42,25.5-2.75"/><g id="kvg:05176-g5" kvg:element="&#24319;" kvg:part="2"><path id="kvg:05176-s5" kvg:type="&#12752;" d="M42.5,56.75c4.5-0.25,18.25-2,24.75-2.25"/></g></g><path id="kvg:05176-s6" kvg:type="&#12752;" d="M16.75,73.7c3.51,0.72,6.96,0.37,10.51,0.02c17.37-1.72,39.52-3.94,55.75-4.61c3.34-0.26,7.24-0.24,10.99,0.68"/></g><g id="kvg:05176-g6" kvg:element="&#20843;" kvg:position="bottom" kvg:radical="general"><path id="kvg:05176-s7" kvg:type="&#12754;" d="M43.08,79.39c-0.11,1.33-0.55,2.52-1.4,3.51c-4.06,4.72-8.68,8.47-19.79,14.81"/><path id="kvg:05176-s8" kvg:type="&#12756;/&#12751;" d="M66.02,79.08c7.25,3.24,18.73,13.34,20.54,18.38"/></g></g></g></svg>