<svg xmlns="http://www.w3.org/2000/svg" width="109" height="109" viewBox="0 0 109 109"><g xmlns:kvg="http://kanjivg.tagaini.net" id="kvg:StrokePaths_0518c" style="fill:none;stroke:#000000;stroke-width:3;stroke-linecap:round;stroke-linejoin:round;"><g id="kvg:0518c" kvg:element="&#20876;"><g id="kvg:0518c-g1" kvg:element="&#20866;" kvg:variant="true" kvg:radical="tradit"><g id="kvg:0518c-g2" kvg:element="&#20031;" kvg:radical="nelson"><path id="kvg:0518c-s1" kvg:type="&#12754;" d="M27.25,19.25c0.75,1,1.25,2,1.5,3S29,40.25,29,51.5C29,71,24.5,88.75,17.75,96"/></g><path id="kvg:0518c-s2" kvg:type="&#12742;" d="M29,21.69c2.55-0.24,13.2-2.41,15.1-2.69c3.4-0.49,3.4,2.12,3.4,3.66c0,8.31-0.64,45.78-0.64,64c0,12.7-5.1,4.4-7.23,2.2"/></g><g id="kvg:0518c-g3" kvg:element="&#20866;" kvg:radical="tradit"><path id="kvg:0518c-s3" kvg:type="&#12753;" d="M60.52,16.25c0.63,1.04,1.06,2.07,1.27,3.11C62,20.39,62,45.27,62,52.26C62,67.5,61,87,52.5,95.25"/><path id="kvg:0518c-s4" kvg:type="&#12742;a" d="M61.75,18.25c3-0.25,13.02-2.47,15.25-2.75c4-0.5,4,2.17,4,3.75c0,8.5-0.25,48.85-0.25,67.5c0,13-4.5,6-7,3.75"/></g><g id="kvg:0518c-g4" kvg:element="&#19968;"><path id="kvg:0518c-s5" kvg:type="&#12752;" d="M13.25,53.18c1.78,0.56,5.04,0.66,6.82,0.56c9.88-0.51,50.9-6.49,70.45-6.48c2.97,0,4.75,0.27,6.23,0.55"/></g></g></g></svg>