<svg xmlns="http://www.w3.org/2000/svg" width="109" height="109" viewBox="0 0 109 109"><g xmlns:kvg="http://kanjivg.tagaini.net" id="kvg:StrokePaths_0518f" style="fill:none;stroke:#000000;stroke-width:3;stroke-linecap:round;stroke-linejoin:round;"><g id="kvg:0518f" kvg:element="&#20879;"><g id="kvg:0518f-g1" kvg:element="&#20866;" kvg:radical="general"><path id="kvg:0518f-s1" kvg:type="&#12753;" d="M20.25,17.75c0.74,1.25,0.99,2,0.99,4c0,2.26,0.25,69.5,0.25,73.25"/><path id="kvg:0518f-s2" kvg:type="&#12742;a" d="M21.23,20.25c9.43-1,61.18-5,63.07-5c6.45,0,5.46,3.25,5.46,7.75c0,2.5,0.25,60.5,0.25,66.25c0,10.75-5.26,4.5-8.71,1"/></g><g id="kvg:0518f-g2" kvg:element="&#20799;" kvg:variant="true" kvg:original="&#20843;"><g id="kvg:0518f-g3" kvg:element="&#20031;"><path id="kvg:0518f-s3" kvg:type="&#12754;" d="M43.91,21.35c0.06,1.15,0.45,1.11,0.43,2.44c-0.09,6.71-4.59,17.96-12.26,23.37"/></g><path id="kvg:0518f-s4" kvg:type="&#12767;" d="M60.41,20.37c0.42,0.77,0.76,1.67,0.78,2.86c0.11,5.28-0.3,10.42-0.3,14.01c0,8.39,5.08,7.44,10.07,7.44c5.27,0,8.74-1.08,9.48-1.69c1.57-1.29,1.14-1.94,1.28-4.2"/></g><g id="kvg:0518f-g4" kvg:element="&#21475;"><path id="kvg:0518f-s5" kvg:type="&#12753;" d="M39,57.64c0.42,0.39,0.85,0.72,1.04,1.21c1.46,3.9,2.71,14.65,3.71,21.65"/><path id="kvg:0518f-s6" kvg:type="&#12757;b" d="M41.63,59.28C50.25,58,63.25,56,68.19,55.49c1.8-0.19,2.89,1.11,2.63,2.21c-1.18,5.03-1.94,10.52-3.41,16.35"/><path id="kvg:0518f-s7" kvg:type="&#12752;b" d="M43.95,77.58c5.8-0.58,17.3-1.58,25.27-2.47"/></g></g></g></svg>