<svg xmlns="http://www.w3.org/2000/svg" width="109" height="109" viewBox="0 0 109 109"><g xmlns:kvg="http://kanjivg.tagaini.net" id="kvg:StrokePaths_05197" style="fill:none;stroke:#000000;stroke-width:3;stroke-linecap:round;stroke-linejoin:round;"><g id="kvg:05197" kvg:element="&#20887;"><g id="kvg:05197-g1" kvg:element="&#20886;" kvg:position="top" kvg:radical="general"><path id="kvg:05197-s1" kvg:type="&#12756;" d="M22.41,21.19c-0.13,5.71-2.54,17.94-4.66,24.06"/><path id="kvg:05197-s2" kvg:type="&#12758;b" d="M22.97,25.5c17.4-2.25,39.03-7.38,60.22-7.75c12.05-0.21,3.56,7.5-0.94,11.25"/></g><g id="kvg:05197-g2" kvg:element="&#20960;" kvg:position="bottom"><g id="kvg:05197-g3" kvg:element="&#20031;"><path id="kvg:05197-s3" kvg:type="&#12754;" d="M39.57,45.25c0.97,0.97,1.14,2.47,1.05,4.19c-0.75,15.31-6.25,34.81-20.12,45.81"/></g><path id="kvg:05197-s4" kvg:type="&#12744;b" d="M41.75,48.65c3.59-0.68,14.06-2.51,18.26-3.36c3.9-0.79,5.17,0.28,4.62,4.35c-1.09,8.19-2.04,16.72-2.22,28.36c-0.19,11.64,1.39,14.11,16.18,14.11c15.66,0,16.7-1.11,16.7-8.73"/></g></g></g></svg>