<svg xmlns="http://www.w3.org/2000/svg" width="109" height="109" viewBox="0 0 109 109"><g xmlns:kvg="http://kanjivg.tagaini.net" id="kvg:StrokePaths_05190" style="fill:none;stroke:#000000;stroke-width:3;stroke-linecap:round;stroke-linejoin:round;"><g id="kvg:05190" kvg:element="&#20880;"><g id="kvg:05190-g1" kvg:element="&#26085;" kvg:variant="true" kvg:position="top"><g id="kvg:05190-g2" kvg:element="&#20866;" kvg:variant="true"><path id="kvg:05190-s1" kvg:type="&#12753;" d="M23.75,14.25c0.75,1.25,1.89,3.12,2,4c0.85,6.58,2.42,17.98,3.5,25.25"/><path id="kvg:05190-s2" kvg:type="&#12757;" d="M25.75,16.34C35.94,15.37,73.5,12.5,78,12c2.78-0.31,5.25,2.91,5,4.25c-1.03,5.45-2.54,17-3.8,23.75"/></g><g id="kvg:05190-g3" kvg:element="&#20108;"><g id="kvg:05190-g4" kvg:position="top"><path id="kvg:05190-s3" kvg:type="&#12752;" d="M34.75,26.65c0.65,0.21,3.08,0.56,3.73,0.48C44,26.5,60.5,24.5,68.22,24c1.09-0.07,3.24,0.45,3.78,0.56"/></g><g id="kvg:05190-g5" kvg:position="bottom"><path id="kvg:05190-s4" kvg:type="&#12752;" d="M35.5,39.56c0.65,0.24,2.74,0.37,3.39,0.38c5.47,0.04,28.15-3.03,30.59-2.86c1.08,0.07,2.48,0.42,3.02,0.54"/></g></g></g><g id="kvg:05190-g6" kvg:element="&#26376;" kvg:position="bottom" kvg:radical="tradit"><path id="kvg:05190-s5" kvg:type="&#12754;" d="M32.75,50.5c1.03,0.69,1.5,2.72,1.5,3.5c0,5.25,0.39,43.43,0.25,45"/><path id="kvg:05190-s6" kvg:type="&#12742;a" d="M35.28,52.33c3.04-0.21,32.44-3.41,34.7-3.62c4.05-0.39,5.08,1.94,5.08,3.05c0,2.49-0.08,25.46-0.08,38.8c0,10.69-7.01,2.52-8.03,1.71"/><path id="kvg:05190-s7" kvg:type="&#12752;a" d="M36.83,64.54c10.32-1,27.19-2.52,36.26-3.07"/><path id="kvg:05190-s8" kvg:type="&#12752;a" d="M35.75,76.71c8.29-0.59,27.92-2.47,37.5-2.92"/></g></g></g></svg>