<svg xmlns="http://www.w3.org/2000/svg" width="109" height="109" viewBox="0 0 109 109"><g xmlns:kvg="http://kanjivg.tagaini.net" id="kvg:StrokePaths_051a4" style="fill:none;stroke:#000000;stroke-width:3;stroke-linecap:round;stroke-linejoin:round;"><g id="kvg:051a4" kvg:element="&#20900;"><g id="kvg:051a4-g1" kvg:element="&#20886;" kvg:position="top" kvg:radical="general"><path id="kvg:051a4-s1" kvg:type="&#12756;" d="M20.91,15.63c0,3.48-3.03,13.05-4.41,15.37"/><path id="kvg:051a4-s2" kvg:type="&#12758;b" d="M21.24,17.24c9.51-0.99,56.24-2.53,63.95-2.9c12.05-0.59,2.55,7.16-0.45,9.28"/></g><g id="kvg:051a4-g2" kvg:element="&#20820;" kvg:position="bottom"><g id="kvg:051a4-g3" kvg:element="&#20813;" kvg:variant="true" kvg:position="kamae"><g id="kvg:051a4-g4" kvg:position="top"><g id="kvg:051a4-g5" kvg:element="&#20992;" kvg:variant="true" kvg:original="&#21241;"><path id="kvg:051a4-s3" kvg:type="&#12742;" d="M  28.39074,25.402849 c 0.96,0.26 2.16,0.22 2.99,0.14 3.083623,0.03528 31.34935,-3.628723 35.62871,-4.230953 2.46,-0.17 3.13,1.75 3,2.94 -0.36,3.15 -1.6,10.91 -4.41,15.01 -3.74,5.47 -4.36,1.54 -5.72,0.16"/><path id="kvg:051a4-s4" kvg:type="&#12754;" d="M 41.230741,26.656067 c -0.04012,2.32286 -1.873232,6.677289 -3.685362,9.131202 -2.262277,3.063483 -11.132862,11.90212 -16.00572,15.97012"/></g><path id="kvg:051a4-s5" kvg:type="&#12753;" d="M 26.830802,49.142979 c 0.57,0.43 1.15,0.79 1.4,1.33 1.329046,4.740715 1.63857,9.157378 2.257497,16.717259"/><path id="kvg:051a4-s6" kvg:type="&#12757;" d="M 29.169014,48.760238 c 13.89,-1.79 38.680347,-4.54 45.850347,-5.15 2.62,-0.22 4.19,2.22 3.82,3.52 -1.55,5.36 -3.14,10.89 -4.78,15.47"/><path id="kvg:051a4-s7" kvg:type="&#12752;" d="M 31.458061,66.401787 c 5.62,-0.46 35.38987,-4.921549 41.56987,-5.151549"/></g><g id="kvg:051a4-g6" kvg:element="&#20799;" kvg:original="&#20843;" kvg:position="bottom"><g id="kvg:051a4-g7" kvg:element="&#20031;" kvg:position="left"><path id="kvg:051a4-s8" kvg:type="&#12754;" d="M52.23,49.85c0.09,1.13,0.12,2.91-0.18,4.56c-2.02,11.16-11.2,35.66-31.38,44.5"/></g><g id="kvg:051a4-g8" kvg:position="right"><path id="kvg:051a4-s9" kvg:type="&#12767;" d="M53.99,65.48c0.74,0.96,1.33,2.1,1.38,3.59c0.2,6.64-0.53,13.48-0.53,18c0,10.55,8.9,9.76,17.67,9.76c9.25,0,15.34-1.36,16.64-2.13c2.75-1.62,2-2.43,2.25-5.28"/></g></g></g><g id="kvg:051a4-g9" kvg:element="&#20022;"><path id="kvg:051a4-s10" kvg:type="&#12756;" d="M70,72.24c2.47,2.1,6.38,8.66,7,11.93"/></g></g></g></g></svg>