<svg xmlns="http://www.w3.org/2000/svg" width="109" height="109" viewBox="0 0 109 109"><g xmlns:kvg="http://kanjivg.tagaini.net" id="kvg:StrokePaths_051b3" style="fill:none;stroke:#000000;stroke-width:3;stroke-linecap:round;stroke-linejoin:round;"><g id="kvg:051b3" kvg:element="&#20915;"><g id="kvg:051b3-g1" kvg:element="&#20907;" kvg:position="left" kvg:original="&#27700;" kvg:radical="tradit"><g id="kvg:051b3-g2" kvg:position="top"><path id="kvg:051b3-s1" kvg:type="&#12756;" d="M14.25,23.5c3.62,1.41,9.34,5.8,10.25,8"/></g><g id="kvg:051b3-g3" kvg:position="bottom"><path id="kvg:051b3-s2" kvg:type="&#12736;" d="M12.75,81.71c1.5,1.31,3.31,1.36,4.25-0.25C19.75,76.75,22.5,71,25,65"/></g></g><g id="kvg:051b3-g4" kvg:element="&#22828;" kvg:position="right"><path id="kvg:051b3-s3" kvg:type="&#12757;c" d="M41.55,37.57c1.41,0.72,3.05,0.86,5.17,0.71c3.78-0.28,28.98-3.43,31.78-3.86c4.7-0.72,4.33,2.19,3.74,6.33c-0.5,3.5-1,7-2.75,13.5"/><g id="kvg:051b3-g5" kvg:element="&#22823;"><path id="kvg:051b3-s4" kvg:type="&#12752;" d="M36.12,58.03c0.91,0.42,3.24,0.66,4.24,0.59c11.63-0.87,33.76-4.54,49.04-4.94c1.26-0.03,3.05,0.16,5.87,0.89"/><g id="kvg:051b3-g6" kvg:element="&#20154;"><path id="kvg:051b3-s5" kvg:type="&#12754;" d="M59.66,14.5c0.59,1,1.7,2.08,1.7,4.17c0,8.89-0.06,9.37,0.05,16.09C61.85,61.78,54,84.75,34.5,95.75"/><path id="kvg:051b3-s6" kvg:type="&#12751;" d="M59.56,56.96c8.17,9.1,24.78,28.47,32.94,34.56c2.77,2.07,3.74,2.38,5,2.58"/></g></g></g></g></g></svg>