<svg xmlns="http://www.w3.org/2000/svg" width="109" height="109" viewBox="0 0 109 109"><g xmlns:kvg="http://kanjivg.tagaini.net" id="kvg:StrokePaths_051b7" style="fill:none;stroke:#000000;stroke-width:3;stroke-linecap:round;stroke-linejoin:round;"><g id="kvg:051b7" kvg:element="&#20919;"><g id="kvg:051b7-g1" kvg:element="&#20907;" kvg:original="&#27703;" kvg:position="left" kvg:radical="general"><g id="kvg:051b7-g2" kvg:position="top"><path id="kvg:051b7-s1" kvg:type="&#12756;" d="M13.88,24.62c3.99,1.97,10.31,8.11,11.31,11.18"/></g><g id="kvg:051b7-g3" kvg:position="bottom"><path id="kvg:051b7-s2" kvg:type="&#12736;" d="M12.6,84.79c1.46,0.67,3,0.19,3.94-1.07c1.21-1.62,8.56-14.38,13.21-22.6"/></g></g><g id="kvg:051b7-g4" kvg:element="&#20196;" kvg:position="right" kvg:phon="&#20196;"><g id="kvg:051b7-g5" kvg:element="&#20154;" kvg:position="top"><path id="kvg:051b7-s3" kvg:type="&#12754;" d="M61.04,12.25c0.08,0.98,0.12,2.59-0.4,3.93C56.5,26.88,48,41.5,34.5,54.35"/><path id="kvg:051b7-s4" kvg:type="&#12751;" d="M60.85,16.24c5.4,5.39,20.25,21.5,27.55,28.74c2.1,2.08,4.13,4.02,6.85,5.24"/></g><g id="kvg:051b7-g6" kvg:position="bottom"><g id="kvg:051b7-g7" kvg:element="&#19968;"><path id="kvg:051b7-s5" kvg:type="&#12756;" d="M57.56,41.08c3.57,2.18,9.79,8.98,10.69,12.38"/></g><g id="kvg:051b7-g8" kvg:element="&#12510;"><path id="kvg:051b7-s6" kvg:type="&#12742;a" d="M40.71,62.54c1.54,0.71,4.08,0.96,5.48,0.76c5.68-0.8,32.59-4.94,35.52-5.35c2.93-0.41,3.8,1.62,1.81,3.91C76.12,70.38,70,77.5,63.8,84.58"/><path id="kvg:051b7-s7" kvg:type="&#12756;" d="M53.12,77.4c5.38,3.22,14.38,11.22,17.63,18.1"/></g></g></g></g></g></svg>