<svg xmlns="http://www.w3.org/2000/svg" width="109" height="109" viewBox="0 0 109 109"><g xmlns:kvg="http://kanjivg.tagaini.net" id="kvg:StrokePaths_051b2" style="fill:none;stroke:#000000;stroke-width:3;stroke-linecap:round;stroke-linejoin:round;"><g id="kvg:051b2" kvg:element="&#20914;"><g id="kvg:051b2-g1" kvg:element="&#20907;" kvg:position="left" kvg:original="&#27700;" kvg:radical="general"><g id="kvg:051b2-g2" kvg:position="top"><path id="kvg:051b2-s1" kvg:type="&#12756;" d="M16.29,23.5c4.69,2.06,12.12,8.46,13.29,11.66"/></g><g id="kvg:051b2-g3" kvg:position="bottom"><path id="kvg:051b2-s2" kvg:type="&#12736;" d="M12.48,84.17c1.27,0.58,3.44,0.23,4.63-1.5c1.16-1.68,8.39-14.17,12.66-23.51"/></g></g><g id="kvg:051b2-g4" kvg:element="&#20013;" kvg:position="right"><g id="kvg:051b2-g5" kvg:element="&#21475;"><path id="kvg:051b2-s3" kvg:type="&#12753;" d="M41.06,39.38c0.48,0.26,1.42,0.86,1.57,1.54c1.09,4.89,2.41,13.56,3.95,22.83"/><path id="kvg:051b2-s4" kvg:type="&#12757;b" d="M42.95,40.53c13.55-2.03,39.68-4.42,48.38-4.8c3.39-0.15,4.07,2.43,3.65,3.92c-1.44,5.1-2.58,10.04-4.92,18.52"/><path id="kvg:051b2-s5" kvg:type="&#12752;b" d="M46.72,62.21c9.75-1.32,31.98-2.74,45.62-4.12"/></g><g id="kvg:051b2-g6" kvg:element="&#20008;"><path id="kvg:051b2-s6" kvg:type="&#12753;" d="M65.66,11.75c1.21,0.49,1.94,2.22,2.18,3.21c0.24,0.99,0,77.88-0.24,84.04"/></g></g></g></g></svg>