<svg xmlns="http://www.w3.org/2000/svg" width="109" height="109" viewBox="0 0 109 109"><g xmlns:kvg="http://kanjivg.tagaini.net" id="kvg:StrokePaths_051cb" style="fill:none;stroke:#000000;stroke-width:3;stroke-linecap:round;stroke-linejoin:round;"><g id="kvg:051cb" kvg:element="&#20939;"><g id="kvg:051cb-g1" kvg:element="&#20907;" kvg:original="&#27703;" kvg:position="left" kvg:radical="general"><g id="kvg:051cb-g2" kvg:position="top"><path id="kvg:051cb-s1" kvg:type="&#12756;" d="M17.79,22.25c3.99,1.93,10.3,7.92,11.29,10.91"/></g><g id="kvg:051cb-g3" kvg:position="bottom"><path id="kvg:051cb-s2" kvg:type="&#12736;" d="M12.98,77.19c1.52,0.81,5.04,1.22,6.43-0.5c1.34-1.67,9.19-13.53,14.12-22.77"/></g></g><g id="kvg:051cb-g4" kvg:element="&#21608;" kvg:position="right"><g id="kvg:051cb-g5" kvg:element="&#20866;" kvg:variant="true"><path id="kvg:051cb-s3" kvg:type="&#12754;/&#12753;" d="M45.2,17.82c0.72,1.19,1.66,3.04,1.66,5.19c0,3.32,0.01,3.91,0.01,19.57c0,17.52-3.59,42.11-13.62,50.42"/><path id="kvg:051cb-s4" kvg:type="&#12742;a" d="M46.7,19.71c6.41-0.94,40.14-6.11,41.42-6.21c3.04-0.24,3.71,0,3.71,4.48c0,2.36,0.17,64.27,0.17,69.69c0,8.48-3,10.58-9.13,1.84"/></g><g id="kvg:051cb-g6" kvg:element="&#21513;"><g id="kvg:051cb-g7" kvg:element="&#22763;"><path id="kvg:051cb-s5" kvg:type="&#12752;" d="M55.85,34.68c0.88,0.39,2.5,0.33,3.39,0.24c2.87-0.31,15.18-2.95,18.72-3.14c1.48-0.08,2.36,0.07,3.1,0.25"/><path id="kvg:051cb-s6" kvg:type="&#12753;a" d="M67.49,21.14c0.72,0.36,1.15,1.76,1.29,2.56c0.14,0.8,0.01,18.74-0.13,23.83"/><path id="kvg:051cb-s7" kvg:type="&#12752;" d="M53.64,49.28c0.62,0.24,1.75,0.19,2.36,0.12c8.14-0.86,14.92-2.89,26.71-3.73c1.03-0.07,1.64,0.03,2.16,0.13"/></g><g id="kvg:051cb-g8" kvg:element="&#21475;"><path id="kvg:051cb-s8" kvg:type="&#12753;" d="M55.86,57.68c0.22,0.36,0.44,0.66,0.53,1.11c0.75,3.55,3.14,11.34,3.65,17.72"/><path id="kvg:051cb-s9" kvg:type="&#12757;b" d="M57.2,59.44c5.27-1.44,18.59-2.84,21.45-3.02c1.05-0.06,1.59,1.88,1.41,2.86c-0.78,4.07-1.86,7.54-3.41,13.36"/><path id="kvg:051cb-s10" kvg:type="&#12752;b" d="M60.25,75.16c3.19-0.55,14.16-2.3,18.41-2.41"/></g></g></g></g></g></svg>