<svg xmlns="http://www.w3.org/2000/svg" width="109" height="109" viewBox="0 0 109 109"><g xmlns:kvg="http://kanjivg.tagaini.net" id="kvg:StrokePaths_051c6" style="fill:none;stroke:#000000;stroke-width:3;stroke-linecap:round;stroke-linejoin:round;"><g id="kvg:051c6" kvg:element="&#20934;"><g id="kvg:051c6-g1" kvg:element="&#20907;" kvg:position="left" kvg:original="&#27700;" kvg:radical="general"><g id="kvg:051c6-g2" kvg:position="top"><path id="kvg:051c6-s1" kvg:type="&#12756;" d="M17.75,26.75c3.88,1.54,10.03,6.35,11,8.75"/></g><g id="kvg:051c6-g3" kvg:position="bottom"><path id="kvg:051c6-s2" kvg:type="&#12736;" d="M13.36,86.29c1.39,0.34,2.64-0.25,3.49-1.53c2.97-4.5,5.95-10.01,8.65-15.76"/></g></g><g id="kvg:051c6-g4" kvg:element="&#38585;" kvg:position="right" kvg:phon="&#38585;/&#28310;T"><g id="kvg:051c6-g5" kvg:element="&#20155;" kvg:variant="true" kvg:original="&#20154;"><path id="kvg:051c6-s3" kvg:type="&#12754;" d="M55.77,15c0.24,1.78-0.07,3.1-0.82,4.63c-4.8,9.65-10.98,17.71-22,29.48"/><path id="kvg:051c6-s4" kvg:type="&#12753;" d="M48.25,37.25c1.25,1.25,1.68,2.75,1.68,4.98c0,7.3,0.03,33.17,0.05,46.4c0,4.48,0.01,7.51,0.01,7.88"/></g><path id="kvg:051c6-s5" kvg:type="&#12754;" d="M78.18,16.75c0.06,0.93,0.03,1.66-0.22,2.44c-1.58,5.06-2.71,8.93-5.58,15.68"/><path id="kvg:051c6-s6" kvg:type="&#12752;b" d="M50.76,39.35c7.09-0.93,26.89-3.05,36.78-4.28c2.43-0.3,4.2-0.53,4.95-0.66"/><path id="kvg:051c6-s7" kvg:type="&#12753;a" d="M71.42,38.74c0.86,0.86,1.27,2.01,1.27,3.62c0,6.77,0.04,41.89,0.04,46.83"/><path id="kvg:051c6-s8" kvg:type="&#12752;b" d="M51.19,55.55c8.19-0.8,23.4-2.58,32.58-3.62c2.72-0.31,4.73-0.55,5.55-0.67"/><path id="kvg:051c6-s9" kvg:type="&#12752;b" d="M51.18,71.83c7.07-0.65,25.65-2.1,35.1-2.77c2.3-0.16,3.99-0.3,4.73-0.38"/><path id="kvg:051c6-s10" kvg:type="&#12752;b" d="M51.18,91.37c9.82-0.49,30.43-1.75,41.59-2.55c2.65-0.19,4.55-0.35,5.28-0.47"/></g></g></g></svg>