<svg xmlns="http://www.w3.org/2000/svg" width="109" height="109" viewBox="0 0 109 109"><g xmlns:kvg="http://kanjivg.tagaini.net" id="kvg:StrokePaths_051c5" style="fill:none;stroke:#000000;stroke-width:3;stroke-linecap:round;stroke-linejoin:round;"><g id="kvg:051c5" kvg:element="&#20933;"><g id="kvg:051c5-g1" kvg:element="&#20907;" kvg:original="&#27703;" kvg:position="left" kvg:radical="general"><g id="kvg:051c5-g2" kvg:position="top"><path id="kvg:051c5-s1" kvg:type="&#12756;" d="M17.04,19.25c4.78,2.1,12.35,8.64,13.54,11.91"/></g><g id="kvg:051c5-g3" kvg:position="bottom"><path id="kvg:051c5-s2" kvg:type="&#12736;" d="M12.48,87.67c2.77,1.33,3.94-0.27,5.13-2C18.77,83.99,25,72.5,29.27,63.17"/></g></g><g id="kvg:051c5-g4" kvg:element="&#22266;" kvg:position="right"><g id="kvg:051c5-g5" kvg:element="&#22231;" kvg:part="1"><path id="kvg:051c5-s3" kvg:type="&#12753;" d="M39,15.98c0.58,1.48,1.43,2.59,1.45,4.56c0.11,14.77,0.11,50.77-0.24,78.96"/><path id="kvg:051c5-s4" kvg:type="&#12757;a" d="M41.21,18.39c14.03-1.71,37.93-4.89,47.32-4.89c2.14,0,4.22,1.5,4.22,3.69c0,16.29-0.78,57.25-0.39,80.27"/></g><g id="kvg:051c5-g6" kvg:element="&#21476;"><g id="kvg:051c5-g7" kvg:element="&#21313;" kvg:position="top"><path id="kvg:051c5-s5" kvg:type="&#12752;" d="M46.28,41.46c0.57,0.2,2.1,0.73,3.61,0.59c6.21-0.59,24.27-4.72,33.2-4.72c1.52,0,1.9-0.2,2.85,0"/><path id="kvg:051c5-s6" kvg:type="&#12753;a" d="M64.31,23.47c0.99,0.64,1.78,2.83,1.78,4.13c0,22.26,0,24.7-0.2,32.65"/></g><g id="kvg:051c5-g8" kvg:element="&#21475;" kvg:position="bottom"><path id="kvg:051c5-s7" kvg:type="&#12753;" d="M51.26,61.34c0.33,0.74,0.72,1.26,0.83,1.83c0.83,4.13,2.17,14.32,3.33,22.15"/><path id="kvg:051c5-s8" kvg:type="&#12757;b" d="M52.16,63.04c6.19-0.79,21.93-3.41,26.16-3.53c1.75-0.05,2.69,1.12,2.54,2.33c-0.58,4.56-2.2,11.98-3.14,18.03"/><path id="kvg:051c5-s9" kvg:type="&#12752;b" d="M55.48,82.29c5.12-0.33,18.41-1.91,24.56-2.33"/></g></g><g id="kvg:051c5-g9" kvg:element="&#22231;" kvg:part="2"><path id="kvg:051c5-s10" kvg:type="&#12752;a" d="M40.44,95.32c10.17,0,37.88-2.17,51.92-2.6"/></g></g></g></g></svg>