<svg xmlns="http://www.w3.org/2000/svg" width="109" height="109" viewBox="0 0 109 109"><g xmlns:kvg="http://kanjivg.tagaini.net" id="kvg:StrokePaths_051e6" style="fill:none;stroke:#000000;stroke-width:3;stroke-linecap:round;stroke-linejoin:round;"><g id="kvg:051e6" kvg:element="&#20966;"><g id="kvg:051e6-g1" kvg:element="&#22786;" kvg:position="nyo" kvg:radical="nelson"><path id="kvg:051e6-s1" kvg:type="&#12754;" d="M32.08,17.5c0.17,1,0.22,2.39-0.11,3.69c-2.09,8.31-9.09,23.56-19.72,35.56"/><path id="kvg:051e6-s2" kvg:type="&#12743;" d="M32.43,31.15c0.22,0.05,1.17,0,1.81-0.13c3.38-0.64,6.01-1.39,11.35-3.1c2.05-0.91,3.97,0.86,3.31,3.47c-3.59,14.29-21.67,50-37.65,57.36"/><path id="kvg:051e6-s3" kvg:type="&#12751;" d="M22,48.25c5.4,2.81,40.39,27.53,59.52,37.32c4.42,2.26,9.1,4.05,12.98,5.18"/></g><g id="kvg:051e6-g2" kvg:element="&#20960;" kvg:radical="tradit"><g id="kvg:051e6-g3" kvg:element="&#20031;"><path id="kvg:051e6-s4" kvg:type="&#12754;" d="M62.26,26c0.68,0.68,1.23,1.8,1.23,3.24c0,13.11,0.25,25.76-9.35,33.26"/></g><path id="kvg:051e6-s5" kvg:type="&#12744;b" d="M64.46,27.9c3.32-1,8.05-2.35,10.55-3.01c2.96-0.78,4.83,0.11,4.83,2.99c0,4.5-0.2,19.17-0.2,26.88c0,7.38,1.37,9.44,7.34,9.44c7.04,0,8.02-1.44,8.02-6.18"/></g></g></g></svg>