<svg xmlns="http://www.w3.org/2000/svg" width="109" height="109" viewBox="0 0 109 109"><g xmlns:kvg="http://kanjivg.tagaini.net" id="kvg:StrokePaths_051ed" style="fill:none;stroke:#000000;stroke-width:3;stroke-linecap:round;stroke-linejoin:round;"><g id="kvg:051ed" kvg:element="&#20973;"><g id="kvg:051ed-g1" kvg:element="&#20219;" kvg:position="top"><g id="kvg:051ed-g2" kvg:element="&#20155;" kvg:variant="true" kvg:original="&#20154;" kvg:position="left"><path id="kvg:051ed-s1" kvg:type="&#12754;" d="M34.38,12.9c0.23,1.41-0.06,3.26-0.79,4.48c-4.62,7.72-9.57,15.32-20.16,24.72"/><path id="kvg:051ed-s2" kvg:type="&#12753;" d="M27.68,31.77c0.1,0.55,0.59,1.25,0.64,2.07c0.45,7.3-0.36,22.63,0.04,26.91"/></g><g id="kvg:051ed-g3" kvg:element="&#22764;" kvg:position="right"><g id="kvg:051ed-g4" kvg:element="&#20031;"><path id="kvg:051ed-s3" kvg:type="&#12754;" d="M77.97,10.75c0.09,0.31-0.65,1.91-1.18,2.26c-6.64,4.44-15.45,7.51-32.75,11.09"/></g><g id="kvg:051ed-g5" kvg:element="&#22763;"><path id="kvg:051ed-s4" kvg:type="&#12752;" d="M36.46,36.46c1.02,0.46,2.9,0.53,3.92,0.46c10.64-0.77,34.5-5,46.66-4.97c1.71,0,2.73,0.22,3.58,0.45"/><path id="kvg:051ed-s5" kvg:type="&#12753;a" d="M61.11,22.05c0.76,0.27,1.22,1.72,1.38,2.26c0.15,0.54,0,22.94-0.15,26.32"/><path id="kvg:051ed-s6" kvg:type="&#12752;" d="M42.15,51.94c1.06,0.43,3,0.49,4.05,0.43c10.3-0.62,23.8-2.87,35.18-3.48c1.76-0.09,2.82,0.2,3.7,0.42"/></g></g></g><g id="kvg:051ed-g6" kvg:element="&#20960;" kvg:position="bottom" kvg:radical="general"><g id="kvg:051ed-g7" kvg:element="&#20031;"><path id="kvg:051ed-s7" kvg:type="&#12754;" d="M40.55,62.5c0.65,1.89,1.05,1.88,1.07,4.24C41.75,81.5,32.25,96,19.25,100"/></g><path id="kvg:051ed-s8" kvg:type="&#12744;b" d="M42.5,64.5c3.75-0.75,19-2.75,22-3.5s6.25,0.75,5.5,4.5S69.5,88,69.5,90.75S70.25,99,81.75,99c17,0,13.5-4,13.5-9.75"/></g></g></g></svg>