<svg xmlns="http://www.w3.org/2000/svg" width="109" height="109" viewBox="0 0 109 109"><g xmlns:kvg="http://kanjivg.tagaini.net" id="kvg:StrokePaths_051fe" style="fill:none;stroke:#000000;stroke-width:3;stroke-linecap:round;stroke-linejoin:round;"><g id="kvg:051fe" kvg:element="&#20990;"><g id="kvg:051fe-g1" kvg:element="&#20102;"><path id="kvg:051fe-s1" kvg:type="&#12743;" d="M30.53,23.29c1.05,0.34,3.02,0.89,4.6,0.58c1.92-0.37,27.8-4.45,29.63-4.45c1.83,0,3.37,2.41,1.28,4.01c-3.67,2.81-10.53,8.15-14.91,12.42"/><g id="kvg:051fe-g2" kvg:element="&#20101;"><path id="kvg:051fe-s2" kvg:type="&#12762;" d="M48.23,34.75c6.52,6.81,8.52,22.59,5.56,38.28c-1.46,7.73-6.18,1.57-7.62,0.78"/></g></g><g id="kvg:051fe-g3" kvg:element="&#21475;"><path id="kvg:051fe-s3" kvg:type="&#12753;" d="M26.75,46.64c0.26,0.39,0.53,0.72,0.64,1.21c0.9,3.9,1.98,14.65,2.6,21.65"/><path id="kvg:051fe-s4" kvg:type="&#12757;b" d="M28.37,48.28C34.75,47,39.17,46,42.21,45.49c1.11-0.19,1.78,1.11,1.62,2.21c-0.66,4.55-1.93,12.05-2.91,18.35"/><path id="kvg:051fe-s5" kvg:type="&#12752;b" d="M30.11,68.08c3.58-0.58,7.51-1.08,12.43-1.97"/></g><g id="kvg:051fe-g4" kvg:element="&#21448;"><path id="kvg:051fe-s6" kvg:type="&#12743;" d="M61.58,44.14c0.2,0.03,1.25,0.25,1.81,0.18c2.5-0.32,11.39-1.95,14-2.74c1.8-0.55,2.31,0.62,1.85,2.11c-2.52,8.13-8.11,22.55-18.49,30.56"/><path id="kvg:051fe-s7" kvg:type="&#12751;" d="M62.39,54.99c6.62,3.83,13.98,10.87,17.24,16.86"/></g><g id="kvg:051fe-g5" kvg:element="&#20981;" kvg:radical="tradit"><path id="kvg:051fe-s8" kvg:type="&#12740;" d="M16.56,45.63c0.76,0.45,2.01,2.12,2.01,4.25c0,0.91-1.18,34.63-1.25,36.75s0.68,3.62,3.15,3.39c13.75-1.26,56.9-3.82,64.77-4.27"/><g id="kvg:051fe-g6" kvg:element="&#20008;" kvg:radical="nelson"><path id="kvg:051fe-s9" kvg:type="&#12753;" d="M88.81,40.88c1.44,0.62,2.51,1.87,2.51,4.25c0,4.79-2.57,25.12-4.75,45.75"/></g></g></g></g></svg>