<svg xmlns="http://www.w3.org/2000/svg" width="109" height="109" viewBox="0 0 109 109"><g xmlns:kvg="http://kanjivg.tagaini.net" id="kvg:StrokePaths_051f6" style="fill:none;stroke:#000000;stroke-width:3;stroke-linecap:round;stroke-linejoin:round;"><g id="kvg:051f6" kvg:element="&#20982;"><g id="kvg:051f6-g1" kvg:element="&#20034;"><g id="kvg:051f6-g2" kvg:element="&#20031;"><path id="kvg:051f6-s1" kvg:type="&#12754;" d="M67.6,18.18c0.59,1.4,0.68,3-0.21,5.47C59.5,45.75,48.38,62.62,31,75.07"/></g><path id="kvg:051f6-s2" kvg:type="&#12756;/&#12751;" d="M37.5,38.5c12.4,4.45,30.24,18.89,36.72,29.47"/></g><g id="kvg:051f6-g3" kvg:element="&#20981;" kvg:position="kamae" kvg:radical="general"><path id="kvg:051f6-s3" kvg:type="&#12740;a" d="M21.06,40.38c1.09,1.09,1.31,2.62,1.26,4.25c-0.17,5.59-0.82,28.74-1.14,37.25c-0.13,3.38,0.08,5.07,3.93,4.84c14.68-0.91,55.67-4.53,63.39-4.97"/><path id="kvg:051f6-s4" kvg:type="&#12753;" d="M89.31,36.63c1.22,1.22,1.69,2.49,1.76,4.25c0.03,0.76-0.61,21.34-1.17,38.38c-0.11,3.32-0.22,6.5-0.33,9.38"/></g></g></g></svg>