<svg xmlns="http://www.w3.org/2000/svg" width="109" height="109" viewBox="0 0 109 109"><g xmlns:kvg="http://kanjivg.tagaini.net" id="kvg:StrokePaths_05204" style="fill:none;stroke:#000000;stroke-width:3;stroke-linecap:round;stroke-linejoin:round;"><g id="kvg:05204" kvg:element="&#20996;"><g id="kvg:05204-g1" kvg:element="&#20992;" kvg:radical="general"><path id="kvg:05204-s1" kvg:type="&#12742;" d="M20.92,20.72c1.94,0.87,4.35,0.61,6.07,0.47c14.26-1.19,37.7-3.54,45.35-4.43c4.98-0.58,7.19,1.74,6.91,5.81c-0.73,10.74-8.54,49.54-15.32,61.89c-4.92,8.96-7.79,6.09-11.51,0.28"/><g id="kvg:05204-g2" kvg:element="&#20034;" kvg:part="1"><g id="kvg:05204-g3" kvg:element="&#20031;"><path id="kvg:05204-s2" kvg:type="&#12754;" d="M47.88,22.74c0.1,1.62,0.66,2.26,0.3,4.56C44.94,48.51,37.5,74,15,90.41"/></g></g></g><g id="kvg:05204-g4" kvg:element="&#20034;" kvg:part="2"><path id="kvg:05204-s3" kvg:type="&#12751;" d="M21,35.25c2,0,3.32,0.68,5.72,3.2c14.53,15.3,36,30.96,51.49,37.67c6.67,2.89,9.06,4.45,15.54,5.38"/></g></g></g></svg>