<svg xmlns="http://www.w3.org/2000/svg" width="109" height="109" viewBox="0 0 109 109"><g xmlns:kvg="http://kanjivg.tagaini.net" id="kvg:StrokePaths_0520e" style="fill:none;stroke:#000000;stroke-width:3;stroke-linecap:round;stroke-linejoin:round;"><g id="kvg:0520e" kvg:element="&#21006;"><g id="kvg:0520e-g1" kvg:element="&#21247;" kvg:position="left"><g id="kvg:0520e-g2" kvg:element="&#21241;"><g id="kvg:0520e-g3" kvg:element="&#20031;"><path id="kvg:0520e-s1" kvg:type="&#12754;" d="M30.34,14.25c0.04,0.74,0.09,1.92-0.09,2.98C29.21,23.52,23.21,37.31,15,45.75"/></g><path id="kvg:0520e-s2" kvg:type="&#12742;" d="M28.46,30.64c0.83,0.67,2.44,0.64,3.83,0.45c5.96-0.84,20.46-3.26,23.79-3.48c3.33-0.22,4.83,1.13,4.49,4.95C60,39,57.25,74.5,51.97,90.74c-1.84,5.65-5.72,4.01-8.33-0.62"/></g><g id="kvg:0520e-g4" kvg:element="&#20031;"><path id="kvg:0520e-s3" kvg:type="&#12754;" d="M34.32,34.25c0.05,0.78,0.14,2.03-0.1,3.12c-2.37,10.77-8.01,21.03-17.35,29.88"/></g><g id="kvg:0520e-g5" kvg:element="&#20031;"><path id="kvg:0520e-s4" kvg:type="&#12754;" d="M48.01,32c0.08,1.26,0.16,3.25-0.15,5.06c-1.86,10.67-11.91,34.1-26.5,48.44"/></g></g><g id="kvg:0520e-g6" kvg:element="&#20994;" kvg:variant="true" kvg:original="&#20992;" kvg:position="right" kvg:radical="general"><path id="kvg:0520e-s5" kvg:type="&#12753;" d="M73.77,24.83c0.98,0.92,1.67,1.99,1.76,5.02c0.4,14.55-0.02,34.69-0.02,39.65"/><path id="kvg:0520e-s6" kvg:type="&#12762;" d="M90.27,13.33c0.98,0.92,1.67,1.99,1.76,5.02c0.4,14.55-0.26,65.66-0.26,70.62c0,13.14-7.21,1.5-8.71,0.25"/></g></g></g></svg>