<svg xmlns="http://www.w3.org/2000/svg" width="109" height="109" viewBox="0 0 109 109"><g xmlns:kvg="http://kanjivg.tagaini.net" id="kvg:StrokePaths_0522a" style="fill:none;stroke:#000000;stroke-width:3;stroke-linecap:round;stroke-linejoin:round;"><g id="kvg:0522a" kvg:element="&#21034;"><g id="kvg:0522a-g1" kvg:element="&#20874;" kvg:position="left"><g id="kvg:0522a-g2" kvg:element="&#20866;"><path id="kvg:0522a-s1" kvg:type="&#12753;" d="M17.41,16.98c0.84,1.02,1.74,3.23,1.6,5.46c-0.15,2.24,0.15,69.08,0.15,72.8"/><path id="kvg:0522a-s2" kvg:type="&#12742;a" d="M19.01,19.47c5.65-0.99,36.68-4.62,37.8-4.97c2.38-0.75,4.13,1.82,3.87,2.98c-0.45,1.99-0.45,64.84-0.45,70.56c0,9.19-2.97,4.96-5.82,1.99"/></g><g id="kvg:0522a-g3" kvg:element="&#24318;" kvg:variant="true"><g id="kvg:0522a-g4" kvg:element="&#20031;" kvg:variant="true"><path id="kvg:0522a-s3" kvg:type="&#12753;" d="M32.01,20.46c0.83,0.52,1.33,2.33,1.5,3.37c0.17,1.04,0,60.84-0.17,67.32"/></g><g id="kvg:0522a-g5" kvg:element="&#21313;" kvg:part="1" kvg:variant="true"><path id="kvg:0522a-s4" kvg:type="&#12753;" d="M44.04,18.65c0.83,0.52,1.33,2.33,1.5,3.37c0.09,0.55,0.01,60.4-0.17,67.37"/></g><g id="kvg:0522a-g6" kvg:element="&#21313;" kvg:part="2" kvg:variant="true"><path id="kvg:0522a-s5" kvg:type="&#12752;" d="M8.77,52.03c1.16,0.56,3.3,0.64,4.46,0.56c12.02-0.84,37.79-4.39,51.92-4.9c1.94-0.07,3.1,0.27,4.07,0.55"/></g></g></g><g id="kvg:0522a-g7" kvg:element="&#20994;" kvg:variant="true" kvg:original="&#20992;" kvg:position="right" kvg:radical="general"><path id="kvg:0522a-s6" kvg:type="&#12753;" d="M74.27,22.83c0.98,0.92,1.67,1.99,1.76,5.02C76.42,42.41,76,65.54,76,70.5"/><path id="kvg:0522a-s7" kvg:type="&#12762;" d="M89.77,12.83c0.98,0.92,1.67,1.99,1.76,5.02c0.4,14.55-0.26,67.16-0.26,72.12c0,13.14-7.21,1.5-8.71,0.25"/></g></g></g></svg>