<svg xmlns="http://www.w3.org/2000/svg" width="109" height="109" viewBox="0 0 109 109"><g xmlns:kvg="http://kanjivg.tagaini.net" id="kvg:StrokePaths_0522e" style="fill:none;stroke:#000000;stroke-width:3;stroke-linecap:round;stroke-linejoin:round;"><g id="kvg:0522e" kvg:element="&#21038;"><g id="kvg:0522e-g1" kvg:element="&#33292;" kvg:position="left" kvg:radical="nelson"><g id="kvg:0522e-g2" kvg:position="top"><path id="kvg:0522e-s1" kvg:type="&#12754;" d="M46.77,13.25c0.08,0.41-0.64,1.95-1.1,2.39c-3.53,3.35-12.48,9.49-28.12,14.15"/><path id="kvg:0522e-s2" kvg:type="&#12752;" d="M10.03,48.06c1.06,0.45,3.69,0.58,4.75,0.45c9.35-1.11,35.47-5.07,42.5-5.65c1.76-0.15,2.82,0.22,3.7,0.44"/><path id="kvg:0522e-s3" kvg:type="&#12753;a" d="M34.71,26.87c0.44,0.35,1.35,2.63,1.44,3.33c0.16,1.31,0.45,33.67,0.36,38.19"/></g><g id="kvg:0522e-g3" kvg:element="&#21475;" kvg:position="bottom"><path id="kvg:0522e-s4" kvg:type="&#12753;" d="M18.18,70.09c0.43,0.45,0.86,0.82,1.05,1.38c1.47,4.44,3.74,15.79,4.75,23.77"/><path id="kvg:0522e-s5" kvg:type="&#12757;b" d="M20.55,71.35c11.2-1.34,23.85-3.41,30.15-3.96c2.3-0.2,2.97,2.04,2.64,3.23c-1.26,4.52-2.58,10.64-4.08,18.48"/><path id="kvg:0522e-s6" kvg:type="&#12752;b" d="M24.27,91.78c6.61-0.67,18.5-1.42,27.57-2.46"/></g></g><g id="kvg:0522e-g4" kvg:element="&#20994;" kvg:variant="true" kvg:original="&#20992;" kvg:position="right" kvg:radical="tradit"><path id="kvg:0522e-s7" kvg:type="&#12753;" d="M69.27,25.08c0.98,0.92,1.67,1.99,1.76,5.02C71.42,44.66,71,58.79,71,63.75"/><path id="kvg:0522e-s8" kvg:type="&#12762;" d="M89.27,11.08c0.98,0.92,1.67,1.99,1.76,5.02c0.4,14.55-0.26,68.66-0.26,73.62c0,13.14-7.21,1.5-8.71,0.25"/></g></g></g></svg>