<svg xmlns="http://www.w3.org/2000/svg" width="109" height="109" viewBox="0 0 109 109"><g xmlns:kvg="http://kanjivg.tagaini.net" id="kvg:StrokePaths_0524c" style="fill:none;stroke:#000000;stroke-width:3;stroke-linecap:round;stroke-linejoin:round;"><g id="kvg:0524c" kvg:element="&#21068;"><g id="kvg:0524c-g1" kvg:element="&#26463;" kvg:position="left"><g id="kvg:0524c-g2" kvg:element="&#26408;" kvg:part="1"><path id="kvg:0524c-s1" kvg:type="&#12752;" d="M17.25,27.72c0.72,0.47,3.24,0.76,3.97,0.68c6.07-0.63,25.22-3.96,31.73-4.4c1.2-0.08,3.12,0.22,3.73,0.45"/></g><g id="kvg:0524c-g3" kvg:element="&#21475;"><path id="kvg:0524c-s2" kvg:type="&#12753;" d="M18.67,39.58c0.29,0.38,0.59,0.69,0.72,1.16c1.01,3.73,2.78,12.26,3.47,18.95"/><path id="kvg:0524c-s3" kvg:type="&#12757;b" d="M20.48,41.61c8.73-1.61,30.08-4.7,33.5-5.07c2.13-0.23,3.47,2.42,2.91,4.58c-1.51,5.78-1.87,8.34-3.06,12.76"/><path id="kvg:0524c-s4" kvg:type="&#12752;b" d="M23,57.49c10.49-0.93,24.77-2.38,32.64-3.08"/></g><g id="kvg:0524c-g4" kvg:element="&#26408;" kvg:part="2"><path id="kvg:0524c-s5" kvg:type="&#12753;" d="M35.95,11c1.24,0.5,1.98,2.23,2.23,3.22c0.25,0.99,0,78.08-0.25,84.28"/><path id="kvg:0524c-s6" kvg:type="&#12754;" d="M37.87,56.05c-4.07,10.4-14.64,25.11-23.1,31"/><path id="kvg:0524c-s7" kvg:type="&#12751;" d="M40.85,61.59c6.66,3.02,12.02,8.96,15.37,14.98"/></g></g><g id="kvg:0524c-g5" kvg:element="&#20994;" kvg:variant="true" kvg:original="&#20992;" kvg:position="right" kvg:radical="general"><path id="kvg:0524c-s8" kvg:type="&#12753;" d="M68.77,25.33c0.98,0.92,1.67,1.99,1.76,5.02c0.4,14.55-0.02,36.19-0.02,41.15"/><path id="kvg:0524c-s9" kvg:type="&#12762;" d="M88.77,11.33c0.98,0.92,1.67,1.99,1.76,5.02c0.4,14.55-0.26,68.66-0.26,73.62c0,13.14-7.21,1.5-8.71,0.25"/></g></g></g></svg>