<svg xmlns="http://www.w3.org/2000/svg" width="109" height="109" viewBox="0 0 109 109"><g xmlns:kvg="http://kanjivg.tagaini.net" id="kvg:StrokePaths_0524b" style="fill:none;stroke:#000000;stroke-width:3;stroke-linecap:round;stroke-linejoin:round;"><g id="kvg:0524b" kvg:element="&#21067;"><g id="kvg:0524b-g1" kvg:element="&#20811;" kvg:position="nyo"><g id="kvg:0524b-g2" kvg:element="&#21476;" kvg:position="top"><g id="kvg:0524b-g3" kvg:element="&#21313;" kvg:position="top" kvg:radical="nelson"><path id="kvg:0524b-s1" kvg:type="&#12752;" d="M15.02,26.75c0.61,0.25,2.25,0.9,3.87,0.75c7.98-0.75,26.8-3.5,35.41-4c1.63-0.09,2.79,0.25,3.81,0.5"/><path id="kvg:0524b-s2" kvg:type="&#12753;" d="M34.82,11.5c1.08,0.66,1.94,2.59,1.94,3.93c0,4.82-0.22,16.57-0.22,23.57"/></g><g id="kvg:0524b-g4" kvg:element="&#20804;" kvg:part="1"><g id="kvg:0524b-g5" kvg:element="&#21475;" kvg:position="bottom"><path id="kvg:0524b-s3" kvg:type="&#12753;" d="M18.83,40.91c0.28,0.69,0.62,1.17,0.71,1.7c0.71,3.85,3.27,12.34,4.27,19.64"/><path id="kvg:0524b-s4" kvg:type="&#12757;b" d="M20.27,42.59c8.75-1.45,26.19-4.59,32.49-4.6c1.62,0,2.81,1.49,2.34,3.38c-1.19,4.75-2.62,8.94-3.83,14.82"/><path id="kvg:0524b-s5" kvg:type="&#12752;b" d="M23.74,60.1c8.27-1.11,21.61-2.91,29.48-3.33"/></g></g></g><g id="kvg:0524b-g6" kvg:element="&#20804;" kvg:part="2" kvg:position="bottom"><g id="kvg:0524b-g7" kvg:element="&#20799;" kvg:original="&#20843;"><g id="kvg:0524b-g8" kvg:element="&#20031;"><path id="kvg:0524b-s6" kvg:type="&#12754;" d="M32.38,62.5c0.06,0.83,0.13,2.14-0.12,3.33c-1.44,7.01-9.03,23.75-21.01,31.84"/></g><path id="kvg:0524b-s7" kvg:type="&#12767;" d="M42.78,60.37c0.52,1.19,0.93,2.59,0.96,4.43c0.14,8.19-0.52,14.64-0.52,20.2c0,11,3.04,12.03,26.83,12.03c22.96,0,27.2-2.53,27.18-11.12"/></g></g></g><g id="kvg:0524b-g9" kvg:element="&#20994;" kvg:variant="true" kvg:original="&#20992;" kvg:radical="tradit"><path id="kvg:0524b-s8" kvg:type="&#12753;" d="M67.77,25.08c0.98,0.92,1.67,1.99,1.76,5.02c0.4,14.55-0.02,32.69-0.02,37.65"/><path id="kvg:0524b-s9" kvg:type="&#12762;" d="M86.77,13.08c0.98,0.92,1.67,1.99,1.76,5.02c0.4,14.55-0.26,56.16-0.26,61.12c0,13.14-7.21,1.5-8.71,0.25"/></g></g></g></svg>