<svg xmlns="http://www.w3.org/2000/svg" width="109" height="109" viewBox="0 0 109 109"><g xmlns:kvg="http://kanjivg.tagaini.net" id="kvg:StrokePaths_052a9" style="fill:none;stroke:#000000;stroke-width:3;stroke-linecap:round;stroke-linejoin:round;"><g id="kvg:052a9" kvg:element="&#21161;"><g id="kvg:052a9-g1" kvg:element="&#19988;" kvg:variant="true" kvg:position="left" kvg:phon="&#19988;"><g id="kvg:052a9-g2" kvg:element="&#26376;" kvg:variant="true"><path id="kvg:052a9-s1" kvg:type="&#12753;a" d="M22.75,24.79c0.8,0.8,1.35,2.21,1.35,3.6c0,0.87,0.31,49.89,0.26,51.79"/><path id="kvg:052a9-s2" kvg:type="&#12757;b" d="M24.93,26.01c1.68-0.09,16.6-2.56,17.85-2.68c2.09-0.2,3.34,0.8,3.32,3.98c-0.01,1.23-0.21,28.32-0.21,44.81"/><path id="kvg:052a9-s3" kvg:type="&#12752;a" d="M25.24,43.99c9.51-1.49,12.26-2.24,19.68-3.09"/><path id="kvg:052a9-s4" kvg:type="&#12752;a" d="M25.33,60.72c6.17-1.22,12.17-1.97,19.48-2.79"/></g><g id="kvg:052a9-g3" kvg:element="&#19968;"><path id="kvg:052a9-s5" kvg:type="&#12736;/&#12752;" d="M15.44,82.34c1.01,0.69,2.25,1.04,4.29,0.41c5.64-1.75,19.64-6,29.27-9.25"/></g></g><g id="kvg:052a9-g4" kvg:element="&#21147;" kvg:position="right" kvg:radical="general"><path id="kvg:052a9-s6" kvg:type="&#12742;" d="M54.58,45.41c2.8,0.72,5.63,0.42,8.35-0.23c9.06-2.15,22.83-5.97,26.95-6.62c2.83-0.44,4.94,1.99,4.73,5.1c-0.98,14.21-7.48,35.96-14.17,45.73c-3.84,5.61-5.68,1.86-9.46-1.67"/><path id="kvg:052a9-s7" kvg:type="&#12754;" d="M74.23,19.55c1.05,1.05,1.41,2.7,1.36,4.3c-0.71,23.28-9.46,51.91-30.46,68.46"/></g></g></g></svg>