<svg xmlns="http://www.w3.org/2000/svg" width="109" height="109" viewBox="0 0 109 109"><g xmlns:kvg="http://kanjivg.tagaini.net" id="kvg:StrokePaths_052d2" style="fill:none;stroke:#000000;stroke-width:3;stroke-linecap:round;stroke-linejoin:round;"><g id="kvg:052d2" kvg:element="&#21202;"><g id="kvg:052d2-g1" kvg:element="&#38761;" kvg:position="left" kvg:radical="nelson"><g id="kvg:052d2-g2" kvg:element="&#24319;" kvg:position="top"><g id="kvg:052d2-g3" kvg:element="&#21313;"><path id="kvg:052d2-s1" kvg:type="&#12752;" d="M12.9,28.92c1.09,0.39,3.59,0.99,4.68,0.89C24,29.25,41,26,50.9,25.13c1.81-0.16,2.91,0.19,3.82,0.38"/><path id="kvg:052d2-s2" kvg:type="&#12753;" d="M23.92,15.96c0.61,0.45,1,2.02,1.1,2.93C26,28,25.95,34.05,26.6,44.25"/></g><path id="kvg:052d2-s3" kvg:type="&#12753;a" d="M42.05,13.25c0.57,0.4,1.1,1.79,1.02,2.6c-0.79,8.34-0.4,11.46-1.9,22.67"/><path id="kvg:052d2-s4" kvg:type="&#12752;b" d="M26.83,40.75c1.77,0,15.18-1.73,16.77-1.87"/></g><g id="kvg:052d2-g4" kvg:position="bottom"><path id="kvg:052d2-s5" kvg:type="&#12753;" d="M18.76,52.1c0.29,0.47,0.58,0.86,0.7,1.45c0.99,4.66,1.83,8.03,2.5,16.41"/><path id="kvg:052d2-s6" kvg:type="&#12757;" d="M19.98,53.21c8.4-1.71,25.42-3.53,29.02-4.19c1.32-0.24,2.43,1.45,2.2,2.85c-0.47,2.88-1.75,6.38-2.78,11.4"/><path id="kvg:052d2-s7" kvg:type="&#12752;" d="M21.75,67.38c4.23-0.75,21-2.88,27.98-3.38"/><path id="kvg:052d2-s8" kvg:type="&#12752;" d="M14.25,79.2c1.11,0.54,3.64,1.17,4.76,1.04c8.99-0.99,24.65-3.49,31.11-4.23c1.83-0.21,2.96,0.26,3.89,0.53"/><path id="kvg:052d2-s9" kvg:type="&#12753;" d="M34.96,42.75c0.36,1,0.54,2.23,0.54,3.25c0,8.5,0,44.75-0.12,51"/></g></g><g id="kvg:052d2-g5" kvg:element="&#21147;" kvg:position="right" kvg:radical="tradit"><path id="kvg:052d2-s10" kvg:type="&#12742;" d="M57.91,38.97c1.07,0.68,2.4,0.51,3.36,0.36c8.98-1.33,22.43-3.84,26.71-4.09c4.27-0.24,4.52,2.03,4.37,5.19c-0.4,8.34-6.1,39.81-11.55,48.09c-4.12,6.25-8.3,1.72-9.34,0.32"/><path id="kvg:052d2-s11" kvg:type="&#12754;" d="M72.44,16.68C73,18,73.6,18.87,73.32,21.46c-2.08,19.21-7.52,57.6-22.68,72.2"/></g></g></g></svg>