<svg xmlns="http://www.w3.org/2000/svg" width="109" height="109" viewBox="0 0 109 109"><g xmlns:kvg="http://kanjivg.tagaini.net" id="kvg:StrokePaths_052f2" style="fill:none;stroke:#000000;stroke-width:3;stroke-linecap:round;stroke-linejoin:round;"><g id="kvg:052f2" kvg:element="&#21234;"><g id="kvg:052f2-g1" kvg:element="&#21205;" kvg:position="top"><g id="kvg:052f2-g2" kvg:element="&#37325;" kvg:position="left" kvg:phon="&#29071;V1"><g id="kvg:052f2-g3" kvg:element="&#21315;" kvg:part="1"><g id="kvg:052f2-g4" kvg:element="&#20031;"><path id="kvg:052f2-s1" kvg:type="&#12754;" d="M49.29,13.14c0,1.24-1.44,2.18-2.06,2.54c-3.81,2.16-11.99,5.23-24.81,8.21"/></g><g id="kvg:052f2-g5" kvg:element="&#21313;" kvg:part="1"><path id="kvg:052f2-s2" kvg:type="&#12752;" d="M14.97,30.29c2.43,0.3,4.76,0.15,7.17-0.18c7.99-1.1,18.77-2.15,26.5-2.94c2.58-0.26,5.07-0.6,7.64-0.09"/></g></g><g id="kvg:052f2-g6" kvg:element="&#37324;" kvg:variant="true"><path id="kvg:052f2-s3" kvg:type="&#12753;" d="M20.29,38.85c0.68,0.68,1.15,1.63,1.32,2.51c1.02,5.52,1.49,8.6,2.25,13.34c0.26,1.6,0.47,3.15,0.63,4.53"/><path id="kvg:052f2-s4" kvg:type="&#12757;a" d="M22.2,40.16c10.21-1.86,19.18-3.17,27.18-4.1c3.52-0.41,5.76,0.13,5.11,4.31c-0.43,2.74-1.12,6.6-1.88,10.69c-0.27,1.46-0.55,2.92-0.81,4.29"/><path id="kvg:052f2-s5" kvg:type="&#12752;a" d="M23.74,47.85c2.83-0.41,24.76-3.23,28.72-3.23"/><path id="kvg:052f2-s6" kvg:type="&#12752;a" d="M25.35,56.85c9.23-1.62,17.09-2.53,25.72-3.37"/><g id="kvg:052f2-g7" kvg:element="&#21315;" kvg:part="2"><g id="kvg:052f2-g8" kvg:element="&#21313;" kvg:part="2"><path id="kvg:052f2-s7" kvg:type="&#12753;a" d="M37.08,22.38c0.64,0.64,1.03,1.75,1.03,3.02c0,0.72-0.12,40.21-0.12,46.73"/></g></g><path id="kvg:052f2-s8" kvg:type="&#12752;" d="M22.57,66.52c1.53,0.53,3.91,0.18,5.46-0.08c7.73-1.32,14.35-2.94,18.98-3.82c1.03-0.2,2.62-0.35,3.14-0.25"/><path id="kvg:052f2-s9" kvg:type="&#12736;/&#12752;" d="M18.7,77.2c0.8,0.93,1.82,1.51,3.86,0.89c10.44-3.21,14.19-4.33,27.35-8.41"/></g></g><g id="kvg:052f2-g9" kvg:element="&#21147;" kvg:position="right" kvg:radical="tradit"><path id="kvg:052f2-s10" kvg:type="&#12742;" d="M61.97,34.72c2.03,0.53,4.48,0.81,6.27,0.47c6.86-1.31,15.93-3.2,20.63-3.99c4.92-0.83,5.51,1.51,4.88,5.93c-1.3,9.07-6.12,27.25-10.59,34.55c-3.78,6.17-5.4,2.7-7.06-0.05"/><path id="kvg:052f2-s11" kvg:type="&#12754;" d="M77.14,15.17c0.86,1.21,0.83,2.29,0.52,4.24c-2.29,14.35-5.91,37.35-20.29,53"/></g></g><g id="kvg:052f2-g10" kvg:element="&#28780;" kvg:variant="true" kvg:original="&#28779;" kvg:position="bottom" kvg:radical="nelson" kvg:phon="&#29071;V2"><path id="kvg:052f2-s12" kvg:type="&#12756;" d="M23.19,83.71c0,5.18-3.92,12.82-4.94,14.29"/><path id="kvg:052f2-s13" kvg:type="&#12756;" d="M40.52,82.57c2.45,2.62,4.78,9.84,5.39,13.93"/><path id="kvg:052f2-s14" kvg:type="&#12756;" d="M61.17,82.46c2.27,2.56,5.86,10.55,6.43,14.54"/><path id="kvg:052f2-s15" kvg:type="&#12756;" d="M81.88,82.38c3.59,2.53,9.28,10.42,10.18,14.36"/></g></g></g></svg>