<svg xmlns="http://www.w3.org/2000/svg" width="109" height="109" viewBox="0 0 109 109"><g xmlns:kvg="http://kanjivg.tagaini.net" id="kvg:StrokePaths_052f3" style="fill:none;stroke:#000000;stroke-width:3;stroke-linecap:round;stroke-linejoin:round;"><g id="kvg:052f3" kvg:element="&#21235;"><g id="kvg:052f3-g1" kvg:element="&#29071;" kvg:position="left"><g id="kvg:052f3-g2" kvg:position="top"><g id="kvg:052f3-g3" kvg:element="&#21315;" kvg:part="1"><g id="kvg:052f3-g4" kvg:element="&#20031;"><path id="kvg:052f3-s1" kvg:type="&#12754;" d="M47.04,13.67c0.09,0.26-0.67,1.66-1.15,1.94c-3.71,2.17-13.13,5.75-29.58,8.77"/></g><g id="kvg:052f3-g5" kvg:element="&#21313;"><path id="kvg:052f3-s2" kvg:type="&#12752;" d="M11.7,31.46c0.98,0.4,3.42,0.52,4.39,0.4c9.15-1.11,25.9-4.36,36.6-5.24c1.63-0.13,2.61,0.19,3.42,0.39"/></g></g><g id="kvg:052f3-g6" kvg:element="&#40657;" kvg:variant="true" kvg:original="&#40658;"><g id="kvg:052f3-g7" kvg:element="&#37324;" kvg:variant="true"><path id="kvg:052f3-s3" kvg:type="&#12753;" d="M16.51,38.51c0.28,0.35,0.62,1.35,0.78,1.79c1.26,3.58,3.44,12.52,4.22,19.2"/><path id="kvg:052f3-s4" kvg:type="&#12757;" d="M18.04,39.71c8.92-0.82,25.38-3.59,32.03-4.28c2.44-0.25,3.69,1,3.57,2.3c-0.29,3.31-1.9,10.77-3.07,17.74"/><path id="kvg:052f3-s5" kvg:type="&#12756;" d="M24.72,44.84c1.75,1.16,4.51,4.77,4.95,6.57"/><path id="kvg:052f3-s6" kvg:type="&#12754;" d="M44.97,40.97c0.01,0.21,0.02,0.53-0.02,0.83c-0.2,1.74-1.37,5.57-2.98,7.91"/><path id="kvg:052f3-s7" kvg:type="&#12752;" d="M21.66,57.52c6.42-0.35,19.73-2.57,28.6-3.14"/><g id="kvg:052f3-g8" kvg:element="&#21315;" kvg:part="2"><path id="kvg:052f3-s8" kvg:type="&#12753;" d="M34.06,22.46c0.52,0.45,1.61,3.36,1.71,4.25c0.1,0.9-0.17,41.29-0.17,48.79"/></g><path id="kvg:052f3-s9" kvg:type="&#12752;" d="M20.02,66.89c0.82,0.28,2.31,0.37,3.13,0.28C29.5,66.5,39.25,65,46.9,63.95c1.35-0.18,2.18,0.13,2.86,0.27"/><path id="kvg:052f3-s10" kvg:type="&#12736;/&#12752;" d="M15.38,78.97c0.77,1.16,2.19,1.34,2.96,1.16c8.04-1.94,22.94-6.44,33.43-8.64"/></g></g></g><g id="kvg:052f3-g9" kvg:element="&#28780;" kvg:variant="true" kvg:original="&#28779;" kvg:position="bottom"><path id="kvg:052f3-s11" kvg:type="&#12756;" d="M17.54,88.25c-0.54,4.24-3.12,9.19-3.81,10.25"/><path id="kvg:052f3-s12" kvg:type="&#12756;" d="M27.08,85c1.13,1.93,2.82,7.06,2.49,10.25"/><path id="kvg:052f3-s13" kvg:type="&#12756;" d="M36.73,82c1.7,1.37,4.17,5.34,4.17,7.75"/><path id="kvg:052f3-s14" kvg:type="&#12756;" d="M46,78.08c1.7,1.39,4.38,5.72,4.81,7.88"/></g></g><g id="kvg:052f3-g10" kvg:element="&#21147;" kvg:position="right" kvg:radical="tradit"><path id="kvg:052f3-s15" kvg:type="&#12742;" d="M59.81,40.77c0.92,0.45,2.07,0.4,2.88,0.24c6.54-1.25,24.32-5.07,27.95-5.53c2.36-0.3,2.92,1.34,2.88,3.44c-0.26,15.33-5.26,40.58-12.25,51.89c-2.57,4.16-5.84-0.79-6.79-1.45"/><path id="kvg:052f3-s16" kvg:type="&#12754;" d="M76.7,15.68c0.07,1.81,0.17,4.68-0.14,7.26c-2.27,19.15-8.31,49.32-24.17,69.47"/></g></g></g></svg>