<svg xmlns="http://www.w3.org/2000/svg" width="109" height="109" viewBox="0 0 109 109"><g xmlns:kvg="http://kanjivg.tagaini.net" id="kvg:StrokePaths_0530d" style="fill:none;stroke:#000000;stroke-width:3;stroke-linecap:round;stroke-linejoin:round;"><g id="kvg:0530d" kvg:element="&#21261;"><g id="kvg:0530d-g1" kvg:element="&#21241;" kvg:radical="general"><g id="kvg:0530d-g2" kvg:element="&#20031;"><path id="kvg:0530d-s1" kvg:type="&#12754;" d="M37,11c0.07,0.75,0.14,1.92-0.13,2.99c-1.62,6.31-10.9,20.16-23.61,28.63"/></g><path id="kvg:0530d-s2" kvg:type="&#12742;" d="M35,23.38c1.34,0.77,3.16,0.73,5.35,0.51c6.65-0.64,40.92-4.14,46.28-4.14c4.13,0,6.31,1,6.11,5.97C92.25,38,90.25,70.5,86.02,91.18c-1.13,5.53-4.11,5.07-8.12,0.19"/></g><g id="kvg:0530d-g3" kvg:element="&#29995;"><path id="kvg:0530d-s3" kvg:type="&#12752;" d="M27.25,40.47c1.02,0.38,2.88,0.45,3.9,0.38c8.35-0.54,18.35-2.56,29.79-2.89c1.69-0.05,2.71,0.18,3.56,0.38"/><g id="kvg:0530d-g4" kvg:element="&#29992;" kvg:variant="true"><path id="kvg:0530d-s4" kvg:type="&#12753;" d="M27.41,50.09c0.55,0.59,0.91,1.68,1.09,2.28c0.18,0.59-0.22,38.43-0.2,43.77"/><path id="kvg:0530d-s5" kvg:type="&#12742;" d="M28.6,51.56c6.14-0.25,34.13-3.07,35.76-3.24c2.92-0.3,4.01,1.92,3.65,2.81c-0.04,2-0.62,25.41-0.62,38.96c0,9.66-6,1.44-7.29,0.86"/><path id="kvg:0530d-s6" kvg:type="&#12752;" d="M29.1,62.79c8.13-0.52,31.57-2.24,38.13-2.69"/><path id="kvg:0530d-s7" kvg:type="&#12752;" d="M28.77,74.74c5.83-0.44,31.71-2.25,38.46-2.54"/><path id="kvg:0530d-s8" kvg:type="&#12753;" d="M45.2,28.85c1.29,0.48,2.06,2.15,2.32,3.11c0.26,0.96,0,56.22-0.26,62.2"/></g><g id="kvg:0530d-g5" kvg:element="&#20022;"><path id="kvg:0530d-s9" kvg:type="&#12756;" d="M60.5,28.25c3.56,1.56,8.61,5.87,9.5,8.3"/></g></g></g></g></svg>