<svg xmlns="http://www.w3.org/2000/svg" width="109" height="109" viewBox="0 0 109 109"><g xmlns:kvg="http://kanjivg.tagaini.net" id="kvg:StrokePaths_05300" style="fill:none;stroke:#000000;stroke-width:3;stroke-linecap:round;stroke-linejoin:round;"><g id="kvg:05300" kvg:element="&#21248;"><g id="kvg:05300-g1" kvg:element="&#21241;"><g id="kvg:05300-g2" kvg:element="&#20031;"><path id="kvg:05300-s1" kvg:type="&#12754;" d="M39.347137,4.4573948C39.427372,5.4742637,39.363184,6.8222064,38.785487,8.2292693C34.260199,19.237467,25.434283,33.568226,10.799308,46.882115"/></g><path id="kvg:05300-s2" kvg:type="&#12742;" d="M32.52711,29.193324C35.271168,29.725407,37.501718,29.630814,39.908786,29.441629C45.894362,28.980491,79.288421,25.705227,85.065384,25.433274C90.842348,25.16132,95.447872,26.130893,94.34062,31.865561C90.633735,51.008711,85.418421,74.964253,72.291876,94.225643C68.954075,99.120803,63.546195,98.316767,58.635776,93.445255"/></g><g id="kvg:05300-g3" kvg:element="&#20907;"><g id="kvg:05300-g4" kvg:element="&#20108;" kvg:variant="true"><g id="kvg:05300-g5" kvg:position="top"><path id="kvg:05300-s3" kvg:type="&#12756;" d="M31.291482,43.275777C37.82266,45.238571,46.712765,50.275619,49.809859,54.366744"/></g><g id="kvg:05300-g6" kvg:position="bottom"><path id="kvg:05300-s4" kvg:type="&#12736;" d="M27.263654,76.891574C28.900461,77.411833,31.740801,77.435481,33.634362,76.371316C41.304885,72.04371,56.854546,64.062471,64.862059,60.054115"/></g></g></g></g></g></svg>