<svg xmlns="http://www.w3.org/2000/svg" width="109" height="109" viewBox="0 0 109 109"><g xmlns:kvg="http://kanjivg.tagaini.net" id="kvg:StrokePaths_05302" style="fill:none;stroke:#000000;stroke-width:3;stroke-linecap:round;stroke-linejoin:round;"><g id="kvg:05302" kvg:element="&#21250;"><g id="kvg:05302-g1" kvg:element="&#21241;" kvg:radical="general"><g id="kvg:05302-g2" kvg:element="&#20031;"><path id="kvg:05302-s1" kvg:type="&#12754;" d="M42.23,10c0.08,0.98,0.38,2.6-0.16,3.94C38,24,28.75,38.75,13.25,51.63"/></g><path id="kvg:05302-s2" kvg:type="&#12742;" d="M38,29.25c1.25,0.75,3,1,5,0.5s39.25-4.25,44.25-4.5s5.6,0.46,5.25,5.75C92,38.5,87.75,74,78,94.25c-2.35,4.87-5.05,1.88-8-1.25"/></g><g id="kvg:05302-g3" kvg:element="&#21269;"><path id="kvg:05302-s3" kvg:type="&#12754;" d="M59.53,45.06c0.19,0.28,0.32,1.1-0.18,1.54c-3.24,2.8-13.09,8.9-24.84,12.9"/><path id="kvg:05302-s4" kvg:type="&#12767;" d="M31,44.25c1.07,1.19,1.51,1.95,1.51,3.57c0,3.93,0.19,14.42,0.19,18.26c0,9.87,9.3,8.33,17.22,8.33c14.34,0,15.34-2.91,15.34-10.01"/></g></g></g></svg>