<svg xmlns="http://www.w3.org/2000/svg" width="109" height="109" viewBox="0 0 109 109"><g xmlns:kvg="http://kanjivg.tagaini.net" id="kvg:StrokePaths_05308" style="fill:none;stroke:#000000;stroke-width:3;stroke-linecap:round;stroke-linejoin:round;"><g id="kvg:05308" kvg:element="&#21256;"><g id="kvg:05308-g1" kvg:element="&#21241;" kvg:position="kamae" kvg:radical="general"><g id="kvg:05308-g2" kvg:element="&#20031;"><path id="kvg:05308-s1" kvg:type="&#12754;" d="M40.5,11.5c0.07,0.89,0.35,2.35-0.13,3.56C37,23.5,32,35.75,17.25,49.13"/></g><path id="kvg:05308-s2" kvg:type="&#12742;" d="M38.5,27.01c1.29,0.79,3.1,1.06,5.16,0.53c2.06-0.53,39.5-5.03,44.66-5.29c5.16-0.26,6.2,2.65,5.42,8.2C92.97,36.01,89,76,78.19,93.62c-2.97,4.83-5.21,1.99-8.26-1.32"/></g><g id="kvg:05308-g3" kvg:element="&#20982;"><g id="kvg:05308-g4" kvg:element="&#20034;"><g id="kvg:05308-g5" kvg:element="&#20031;"><path id="kvg:05308-s3" kvg:type="&#12754;" d="M54.88,39.68c0.34,0.87,0.61,1.53,0.17,3.09c-3.96,13.88-11.17,26.32-20.93,32.48"/></g><path id="kvg:05308-s4" kvg:type="&#12756;/&#12751;" d="M37.02,50.42c8.48,4.33,17.48,11.83,22.33,20.34"/></g><g id="kvg:05308-g6" kvg:element="&#20981;" kvg:position="kamae"><path id="kvg:05308-s5" kvg:type="&#12740;a" d="M26.97,52.44c0.45,0.27,1.11,3.02,1.01,3.56C27,61.25,25.75,72.5,25.34,81.13c-0.08,1.62,1.03,2.28,1.9,2.03c11.02-3.17,35.11-4.8,39.85-5.07"/><path id="kvg:05308-s6" kvg:type="&#12753;" d="M68.41,46.88c0.46,0.27,1.42,2.02,1.51,2.56c0.09,0.54-1.42,19.56-2.15,32.84"/></g></g></g></g></svg>