<svg xmlns="http://www.w3.org/2000/svg" width="109" height="109" viewBox="0 0 109 109"><g xmlns:kvg="http://kanjivg.tagaini.net" id="kvg:StrokePaths_05301" style="fill:none;stroke:#000000;stroke-width:3;stroke-linecap:round;stroke-linejoin:round;"><g id="kvg:05301" kvg:element="&#21249;"><g id="kvg:05301-g1" kvg:element="&#21241;" kvg:radical="tradit"><g id="kvg:05301-g2" kvg:element="&#20031;" kvg:radical="nelson"><path id="kvg:05301-s1" kvg:type="&#12754;" d="M44.74,13.25c0.08,0.87-0.09,1.83-0.66,2.99C40.5,23.5,31.75,38.75,16.5,49.63"/></g><path id="kvg:05301-s2" kvg:type="&#12742;" d="M39,31.25c3.38,0.62,6.05,0.4,9.02-0.02c7.72-1.08,23.89-3.58,30.1-4.3c5.67-0.66,7.32,1.18,6.66,6.57c-0.59,4.77-7.93,37.41-20.08,53.65c-5.46,7.29-7.19,7.63-11.68,2.1"/></g><g id="kvg:05301-g3" kvg:element="&#20034;"><g id="kvg:05301-g4" kvg:element="&#20031;"><path id="kvg:05301-s3" kvg:type="&#12754;" d="M55.28,33.68c0.6,1.29,0.6,3.02-0.2,5.32C47.96,59.51,37.5,74,18.25,85.75"/></g><path id="kvg:05301-s4" kvg:type="&#12751;" d="M31.25,45.25c4.39,0.21,30.25,24.5,48.62,38.16c4.55,3.38,9.11,6.19,14.38,8.34"/></g></g></g></svg>