<svg xmlns="http://www.w3.org/2000/svg" width="109" height="109" viewBox="0 0 109 109"><g xmlns:kvg="http://kanjivg.tagaini.net" id="kvg:StrokePaths_05310" style="fill:none;stroke:#000000;stroke-width:3;stroke-linecap:round;stroke-linejoin:round;"><g id="kvg:05310" kvg:element="&#21264;"><g id="kvg:05310-g1" kvg:element="&#21241;" kvg:radical="general"><g id="kvg:05310-g2" kvg:element="&#20031;"><path id="kvg:05310-s1" kvg:type="&#12754;" d="M37.95,10.5c0.07,0.84,0.15,2.17-0.14,3.38c-1.7,7.13-11.56,21.37-24.31,32.36"/></g><path id="kvg:05310-s2" kvg:type="&#12742;" d="M34.82,24.57c1.42,0.79,3.4,1.05,5.66,0.52c2.27-0.52,41.38-4.48,47.05-4.74c5.66-0.26,6.35,2.07,5.95,7.63C92.25,44.75,92,66.5,85.15,91.63c-1.54,5.64-4.45,5.12-8.69,0.14"/></g><g id="kvg:05310-g3" kvg:element="&#19968;"><path id="kvg:05310-s3" kvg:type="&#12752;" d="M26.75,37.91c0.94,0.31,2.66,0.39,3.6,0.31c5.98-0.53,28.15-3.74,35.11-3.83c1.56-0.02,2.5,0.15,3.29,0.3"/></g><g id="kvg:05310-g4" kvg:element="&#21475;"><path id="kvg:05310-s4" kvg:type="&#12753;" d="M30.53,46.11c0.33,0.25,0.68,0.46,0.82,0.78c1.16,2.49,2.54,9.38,3.33,13.86"/><path id="kvg:05310-s5" kvg:type="&#12757;b" d="M32.61,47.37c8.18-1.05,26.1-3.33,30.32-3.68c1.54-0.13,2.47,1.3,2.25,2.06c-0.91,3.14-1.96,5.35-3.92,9.88"/><path id="kvg:05310-s6" kvg:type="&#12752;b" d="M35.02,59.1c4.95-0.4,22-2.17,28.28-2.57"/></g><g id="kvg:05310-g5" kvg:element="&#30000;"><path id="kvg:05310-s7" kvg:type="&#12753;" d="M26.61,69.79c0.29,0.48,0.8,1.8,0.96,2.4c1.3,4.88,2.97,16.07,3.74,25.06"/><path id="kvg:05310-s8" kvg:type="&#12757;a" d="M27.99,70.65c13.51-1.58,31.04-3.94,38.75-4.42c2.83-0.18,4.28,1.24,4.12,2.55c-0.57,4.79-2.61,16.86-4.11,26.26"/><path id="kvg:05310-s9" kvg:type="&#12753;a" d="M46.39,69.29c1.11,0.38,1.96,1.1,1.96,2.4c-0.01,6,0.19,18.58,0.19,20.53"/><path id="kvg:05310-s10" kvg:type="&#12752;a" d="M30.33,82.55c3.37-0.24,35.43-3.87,38.21-3.87"/><path id="kvg:05310-s11" kvg:type="&#12752;a" d="M31.85,95.17c12.15-0.96,22.4-2.06,34.99-2.93"/></g></g></g></svg>