<svg xmlns="http://www.w3.org/2000/svg" width="109" height="109" viewBox="0 0 109 109"><g xmlns:kvg="http://kanjivg.tagaini.net" id="kvg:StrokePaths_05319" style="fill:none;stroke:#000000;stroke-width:3;stroke-linecap:round;stroke-linejoin:round;"><g id="kvg:05319" kvg:element="&#21273;"><g id="kvg:05319-g1" kvg:element="&#26159;" kvg:position="nyo"><g id="kvg:05319-g2" kvg:element="&#26085;" kvg:position="top" kvg:radical="nelson"><path id="kvg:05319-s1" kvg:type="&#12753;" d="M19.27,16.54c0.78,0.78,1.04,1.72,1.24,2.77c0.32,1.69,1.52,9.5,2.44,15.55c0.47,3.12,0.87,5.78,1.04,6.89"/><path id="kvg:05319-s2" kvg:type="&#12757;a" d="M21.12,18.89c3.01-0.33,16.74-2.35,22.51-2.93c3.19-0.32,4.95,1.28,4.56,4.42c-0.38,3.06-1.05,8.13-1.6,12.38c-0.51,3.92-0.93,7.12-0.93,7.38"/><path id="kvg:05319-s3" kvg:type="&#12752;a" d="M23.15,29.48c6.47-0.73,16.6-2.35,22.97-2.69"/><path id="kvg:05319-s4" kvg:type="&#12752;a" d="M24.84,40.16c6.78-0.66,12.78-1.39,19.95-1.78"/></g><g id="kvg:05319-g3" kvg:element="&#30091;" kvg:variant="true" kvg:position="bottom"><path id="kvg:05319-s5" kvg:type="&#12752;" d="M11.75,50.2c2.83,0.59,5.67,0.48,8.53,0.11c9.97-1.31,17.6-1.93,25.97-2.78c3.03-0.31,5.99-0.67,9-0.23"/><g id="kvg:05319-g4" kvg:element="&#21340;" kvg:original="&#12488;"><path id="kvg:05319-s6" kvg:type="&#12753;" d="M34.5,50.5c0.88,0.88,1,1.75,1,3.25c0,2.5,0,18.12,0,24.75"/><path id="kvg:05319-s7" kvg:type="&#12752;" d="M37.12,64.88c4.44-0.52,7.5-1.12,11.38-1.49c1.77-0.17,2.85-0.07,3.74,0.12"/></g><g id="kvg:05319-g5" kvg:element="&#20154;"><path id="kvg:05319-s8" kvg:type="&#12754;" d="M22.74,58.89c0.24,1.11,0.56,2.19,0.46,3.41C22.5,71,18.62,85,10.81,94.47"/><path id="kvg:05319-s9" kvg:type="&#12751;" d="M22.38,75.25c9.72,2.98,37.67,13.24,53.6,17.11C80.94,93.49,85.95,94.37,91,95"/></g></g></g><g id="kvg:05319-g6" kvg:element="&#21269;" kvg:radical="tradit"><path id="kvg:05319-s10" kvg:type="&#12754;" d="M91.88,27.97c-0.25,1.28-0.85,2.28-1.78,3.14C86,34.88,80,40,68.62,45"/><path id="kvg:05319-s11" kvg:type="&#12767;" d="M64.53,19.28c0.97,0.97,1.09,2.12,1.09,3.6c0,1.17,0,38.88,0,42.5c0,9.96,2.79,11.66,14.96,11.66c11.67,0,12.91-1.46,13.67-11.31"/></g></g></g></svg>