<svg xmlns="http://www.w3.org/2000/svg" width="109" height="109" viewBox="0 0 109 109"><g xmlns:kvg="http://kanjivg.tagaini.net" id="kvg:StrokePaths_0532f" style="fill:none;stroke:#000000;stroke-width:3;stroke-linecap:round;stroke-linejoin:round;"><g id="kvg:0532f" kvg:element="&#21295;"><g id="kvg:0532f-g1" kvg:element="&#21274;" kvg:part="1" kvg:radical="general"><path id="kvg:0532f-s1" kvg:type="&#12752;" d="M17.88,17.04c1.55,0.51,4.39,0.6,5.94,0.51c16.13-0.86,42.15-3.51,59.82-3.51c2.58,0,4.13,0.25,5.42,0.5"/></g><g id="kvg:0532f-g2" kvg:element="&#28142;"><g id="kvg:0532f-g3" kvg:element="&#27701;" kvg:variant="true" kvg:original="&#27700;" kvg:position="left"><path id="kvg:0532f-s2" kvg:type="&#12756;" d="M32.85,26.06c3.42,1.28,8.82,5.27,9.67,7.27"/><path id="kvg:0532f-s3" kvg:type="&#12756;" d="M28.25,44.37c3.52,1.13,9.1,4.64,9.98,6.39"/><path id="kvg:0532f-s4" kvg:type="&#12736;" d="M30.38,79.29c1.31,0.92,2.9,0.95,3.72-0.18c2.41-3.29,4.82-7.31,7.01-11.51"/></g><g id="kvg:0532f-g4" kvg:element="&#38585;" kvg:position="right"><g id="kvg:0532f-g5" kvg:element="&#20155;" kvg:variant="true" kvg:original="&#20154;"><path id="kvg:0532f-s5" kvg:type="&#12754;" d="M58.88,24.91c0.15,1.24-0.04,2.86-0.54,3.91c-3.15,6.75-6.63,12.96-13.85,21.18"/><path id="kvg:0532f-s6" kvg:type="&#12753;" d="M53.33,38.76c0.59,0.7,1.04,2.23,1.07,3.31c0.35,9.64-0.48,38.19-0.19,43.21"/></g><path id="kvg:0532f-s7" kvg:type="&#12754;" d="M75.47,24.73c0.08,0.68-0.02,1.58-0.26,2.16c-1.53,3.73-3.49,6.62-7.01,11.16"/><path id="kvg:0532f-s8" kvg:type="&#12752;b" d="M53.73,40.46c8.22-0.92,31.25-3.65,34.16-4.15"/><path id="kvg:0532f-s9" kvg:type="&#12753;a" d="M70.42,40.4c0.33,0.36,0.59,0.84,0.59,1.46c0,6.25,0.04,27.85-0.16,37.69"/><path id="kvg:0532f-s10" kvg:type="&#12752;b" d="M55.14,53.79c6.41-0.75,27.72-2.34,30.47-2.75"/><path id="kvg:0532f-s11" kvg:type="&#12752;b" d="M54.37,66.82c6.76-0.63,28.48-2.82,31.38-3.16"/><path id="kvg:0532f-s12" kvg:type="&#12752;b" d="M54.37,82.51C61.16,81.6,88.08,80.1,91,79.6"/></g></g><g id="kvg:0532f-g6" kvg:element="&#21274;" kvg:part="2" kvg:radical="general"><path id="kvg:0532f-s13" kvg:type="&#12759;" d="M21.83,18.96c0,3.8-0.5,70.21-0.5,73.77c0,3.02,1.01,3.92,2.81,3.8c10.21-0.71,59.88-4.56,63.2-4.56c3.32,0,6.12,0.24,8.17,0.71"/></g></g></g></svg>