<svg xmlns="http://www.w3.org/2000/svg" width="109" height="109" viewBox="0 0 109 109"><g xmlns:kvg="http://kanjivg.tagaini.net" id="kvg:StrokePaths_05349" style="fill:none;stroke:#000000;stroke-width:3;stroke-linecap:round;stroke-linejoin:round;"><g id="kvg:05349" kvg:element="&#21321;"><g id="kvg:05349-g1" kvg:element="&#21313;" kvg:position="top" kvg:radical="tradit"><path id="kvg:05349-s1" kvg:type="&#12752;" d="M24.89,30.46c1.1,0.39,3.11,0.49,4.2,0.39c13.93-1.28,42.08-4.34,51.69-4.5c1.83-0.03,2.92,0.19,3.84,0.38"/><g id="kvg:05349-g2" kvg:element="&#20008;" kvg:radical="nelson"><path id="kvg:05349-s2" kvg:type="&#12753;" d="M53.27,11.88c0.38,0.3,1.19,2.27,1.26,2.87c0.08,0.61-0.05,30.6-0.13,34.38"/></g></g><g id="kvg:05349-g3" kvg:element="&#24318;" kvg:position="bottom"><g id="kvg:05349-g4" kvg:element="&#21313;" kvg:part="1" kvg:radical="tradit"><path id="kvg:05349-s3" kvg:type="&#12752;" d="M13.88,59.98c1.52,0.54,4.3,0.63,5.82,0.54c15.8-0.91,50.55-5.27,70.61-5.73c2.53-0.06,4.05,0.26,5.31,0.53"/></g><g id="kvg:05349-g5" kvg:element="&#20031;"><path id="kvg:05349-s4" kvg:type="&#12754;" d="M37.61,45c0.66,1.21,1.28,2.47,1.34,4.23c0.53,16.09-2.12,38.99-19.7,47.77"/></g><g id="kvg:05349-g6" kvg:element="&#21313;" kvg:part="2" kvg:radical="tradit"><path id="kvg:05349-s5" kvg:type="&#12753;" d="M70.87,41.75c0.7,0.72,1.96,1.75,1.96,3.25c0,6.75,0,45.75-0.22,52"/></g></g></g></g></svg>