<svg xmlns="http://www.w3.org/2000/svg" width="109" height="109" viewBox="0 0 109 109"><g xmlns:kvg="http://kanjivg.tagaini.net" id="kvg:StrokePaths_05346" style="fill:none;stroke:#000000;stroke-width:3;stroke-linecap:round;stroke-linejoin:round;"><g id="kvg:05346" kvg:element="&#21318;"><g id="kvg:05346-g1" kvg:element="&#20061;" kvg:position="top"><path id="kvg:05346-s1" kvg:type="&#12754;" d="M49.74,11.12c0.39,0.88,0.71,1.81,0.64,2.49C48.12,34.75,38.5,49.25,20.12,56.5"/><g id="kvg:05346-g2" kvg:element="&#20057;"><path id="kvg:05346-s2" kvg:type="&#12744;" d="M22.5,27.67c0.95,0.4,4.52,0.13,5.71,0c1.19-0.13,39.88-5.04,40.95-5.07c2.38-0.07,3.77,2.01,3.04,3.49c-1.07,2.19-3.7,10.84-3.7,16.42c0,9,3,10,12.5,10c10.25,0,11.25-1.25,11.25-6.5"/></g></g><g id="kvg:05346-g3" kvg:element="&#21313;" kvg:position="bottom" kvg:radical="general"><path id="kvg:05346-s3" kvg:type="&#12752;" d="M12.38,68.98c1.52,0.54,4.31,0.68,5.82,0.54c19.3-1.77,56.3-5.02,69.61-5.23c2.53-0.04,4.05,0.26,5.31,0.53"/><path id="kvg:05346-s4" kvg:type="&#12753;" d="M53.71,49.88c0.52,0.41,1.62,3.11,1.73,3.93c0.11,0.83-0.07,38.63-0.17,43.82"/></g></g></g></svg>