<svg xmlns="http://www.w3.org/2000/svg" width="109" height="109" viewBox="0 0 109 109"><g xmlns:kvg="http://kanjivg.tagaini.net" id="kvg:StrokePaths_05340" style="fill:none;stroke:#000000;stroke-width:3;stroke-linecap:round;stroke-linejoin:round;"><g id="kvg:05340" kvg:element="&#21312;"><g id="kvg:05340-g1" kvg:element="&#21274;" kvg:part="1" kvg:position="kamae" kvg:radical="general"><path id="kvg:05340-s1" kvg:type="&#12752;" d="M15.88,17.04c1.55,0.51,4.39,0.6,5.94,0.51c16.13-0.86,43.93-4.05,61.32-4.51c2.58-0.07,4.13,0.25,5.42,0.5"/></g><g id="kvg:05340-g2" kvg:element="&#21697;"><g id="kvg:05340-g3" kvg:element="&#21475;" kvg:position="top"><path id="kvg:05340-s2" kvg:type="&#12753;" d="M41.25,29.14c0.36,0.34,0.73,0.62,0.89,1.04c1.25,3.34,2.75,12.56,3.61,18.56"/><path id="kvg:05340-s3" kvg:type="&#12757;b" d="M42.88,30.78C51.5,29.5,66,28,70.94,27.49c1.8-0.19,2.89,1.11,2.63,2.21c-1.07,4.55-1.82,7.05-3.41,13.35"/><path id="kvg:05340-s4" kvg:type="&#12752;b" d="M45.7,46.08c5.8-0.58,18.8-1.58,26.77-2.47"/></g><g id="kvg:05340-g4" kvg:position="bottom"><g id="kvg:05340-g5" kvg:element="&#21475;" kvg:position="left"><path id="kvg:05340-s5" kvg:type="&#12753;" d="M30.25,60.64c0.42,0.39,0.85,0.72,1.04,1.21C32.75,65.75,34.5,79,35.5,86"/><path id="kvg:05340-s6" kvg:type="&#12757;b" d="M32.38,63.28c5.37-1.03,13.12-3.28,18.06-3.79c1.8-0.19,2.89,1.11,2.63,2.21c-1.07,4.55-1.82,12.55-3.41,18.85"/><path id="kvg:05340-s7" kvg:type="&#12752;b" d="M35.2,82.58C41,82,49.75,80.5,51.96,80.61"/></g><g id="kvg:05340-g6" kvg:element="&#21475;" kvg:position="right"><path id="kvg:05340-s8" kvg:type="&#12753;" d="M61.25,59.14c0.42,0.39,0.85,0.72,1.04,1.21C63.75,64.25,65.5,75,66.5,82"/><path id="kvg:05340-s9" kvg:type="&#12757;b" d="M62.88,60.78C71,59.25,78.5,58,83.44,57.49c1.8-0.19,2.89,1.11,2.63,2.21c-1.07,4.55-2.32,10.05-3.91,16.35"/><path id="kvg:05340-s10" kvg:type="&#12752;b" d="M66.2,79.58C72,79,76,78.5,83.96,77.61"/></g></g></g><g id="kvg:05340-g7" kvg:element="&#21274;" kvg:part="2" kvg:position="kamae" kvg:radical="general"><path id="kvg:05340-s11" kvg:type="&#12759;" d="M20.83,17.46c0,3.8-0.5,70.71-0.5,74.27c0,3.02,1.01,3.92,2.81,3.8c10.21-0.71,61.38-2.56,64.7-2.56c3.32,0,6.12,0.24,8.17,0.71"/></g></g></g></svg>