<svg xmlns="http://www.w3.org/2000/svg" width="109" height="109" viewBox="0 0 109 109"><g xmlns:kvg="http://kanjivg.tagaini.net" id="kvg:StrokePaths_05396" style="fill:none;stroke:#000000;stroke-width:3;stroke-linecap:round;stroke-linejoin:round;"><g id="kvg:05396" kvg:element="&#21398;"><g id="kvg:05396-g1" kvg:element="&#21378;" kvg:position="tare" kvg:radical="general"><path id="kvg:05396-s1" kvg:type="&#12752;" d="M21.13,19.73c2.12,0.27,4.31,0.68,5.82,0.54c16.8-1.52,39.3-4.02,54.61-4.73c2.53-0.12,4.05,0.26,5.31,0.53"/><path id="kvg:05396-s2" kvg:type="&#12754;" d="M25.5,20.5c0.5,1.5,0.51,1.9,0.43,4.36C25.25,44.5,23.5,75.75,12.81,92.47"/></g><g id="kvg:05396-g2" kvg:element="&#23592;"><g id="kvg:05396-g3" kvg:element="&#23588;" kvg:position="kamae" kvg:part="1"><g id="kvg:05396-g4" kvg:element="&#23586;"><path id="kvg:05396-s3" kvg:type="&#12752;" d="M31.51,44.17c0.73,0.46,2.05,0.47,2.79,0.46c7.2-0.13,22.7-3.13,30.73-3.94c1.21-0.12,1.94,0.22,2.54,0.45"/><g id="kvg:05396-g5" kvg:element="&#20799;" kvg:original="&#20843;"><g id="kvg:05396-g6" kvg:element="&#20031;"><path id="kvg:05396-s4" kvg:type="&#12754;" d="M49.75,26.75c0.5,1.5,0.65,1.63,0.68,4c0.14,11.16-5.93,48-27.26,64.26"/></g><path id="kvg:05396-s5" kvg:type="&#12767;" d="M51.3,56.44c0.86,1.21,1.14,1.92,1.19,3.79c0.23,8.36-0.21,17.21-0.21,22.89c0,12.86,4.66,12.14,20.47,12.14c18.14,0,21.88-1.65,21.88-9.68"/></g></g></g><g id="kvg:05396-g7" kvg:element="&#24417;"><g id="kvg:05396-g8" kvg:element="&#20031;"><path id="kvg:05396-s6" kvg:type="&#12754;" d="M83.73,29.5c0.05,0.59,0.3,1.63-0.11,2.36c-3.04,5.44-9.11,14.73-19.34,21.75"/></g><g id="kvg:05396-g9" kvg:element="&#20031;"><path id="kvg:05396-s7" kvg:type="&#12754;" d="M87.88,46.39c0.07,0.55,0.23,1.51-0.13,2.22c-2.45,4.85-12.4,15.64-22.49,21.23"/></g><g id="kvg:05396-g10" kvg:element="&#20031;"><path id="kvg:05396-s8" kvg:type="&#12754;" d="M89.62,65.68c0.08,0.54,0.16,1.39-0.15,2.16c-1.84,4.55-12.38,14.53-26.81,20.64"/></g></g><g id="kvg:05396-g11" kvg:element="&#23588;" kvg:position="kamae" kvg:part="2">  <path id="kvg:05396-s9" kvg:type="&#12756;" d="M60.16,25.46c2.61,1.35,6.75,5.57,7.4,7.68"/></g></g></g></g></svg>