<svg xmlns="http://www.w3.org/2000/svg" width="109" height="109" viewBox="0 0 109 109"><g xmlns:kvg="http://kanjivg.tagaini.net" id="kvg:StrokePaths_053a6" style="fill:none;stroke:#000000;stroke-width:3;stroke-linecap:round;stroke-linejoin:round;"><g id="kvg:053a6" kvg:element="&#21414;"><g id="kvg:053a6-g1" kvg:element="&#21378;" kvg:position="tare" kvg:radical="general"><path id="kvg:053a6-s1" kvg:type="&#12752;" d="M23.13,15.23c1.57,0.54,4.45,0.63,6.02,0.54c16.33-0.91,41.66-3.02,57.49-3.73c2.61-0.12,4.18,0.26,5.49,0.53"/><path id="kvg:053a6-s2" kvg:type="&#12754;" d="M27.42,16.5c0.58,1.56,0.6,1.98,0.5,4.52c-0.79,20.39-2.84,52.84-15.36,70.19"/></g><g id="kvg:053a6-g2" kvg:element="&#22799;"><g id="kvg:053a6-g3" kvg:position="top"><path id="kvg:053a6-s3" kvg:type="&#12752;" d="M34.69,26.69c1.1,0.34,3.13,0.47,4.23,0.34c10.33-1.28,29.83-4.03,42.55-4.36c1.84-0.05,2.94,0.16,3.86,0.33"/><g id="kvg:053a6-g4" kvg:element="&#33258;"><path id="kvg:053a6-s4" kvg:type="&#12754;" d="M57.43,26.36c0.32,0.09,0.7,1.49,0.58,1.8c-1.04,2.5-1.96,4.2-5.08,6.53"/><g id="kvg:053a6-g5" kvg:element="&#30446;"><path id="kvg:053a6-s5" kvg:type="&#12753;" d="M41.25,36.11c0.54,0.58,1.34,1.92,1.34,2.7s1.32,23.34,1.5,24.12"/><path id="kvg:053a6-s6" kvg:type="&#12757;a" d="M42.5,37.26c3.08-0.1,28.55-2.98,31.36-3.09c2.33-0.1,3.97,0.75,3.98,3.07c0,0.95-0.99,14.52-0.99,23.32"/><path id="kvg:053a6-s7" kvg:type="&#12752;a" d="M43.44,44.77c6.07-0.13,29.2-2.37,34.13-2.37"/><path id="kvg:053a6-s8" kvg:type="&#12752;a" d="M43.7,52.59c8.15-0.33,25.11-2.3,33.02-2.3"/><path id="kvg:053a6-s9" kvg:type="&#12752;a" d="M44.49,60.52c6.11,0,24.15-1.51,32.06-1.51"/></g></g></g><g id="kvg:053a6-g6" kvg:element="&#22786;" kvg:position="bottom"><path id="kvg:053a6-s10" kvg:type="&#12754;" d="M52.02,62.72c0.06,0.54,0.26,1.46-0.12,2.19C49.5,69.5,41.5,78.5,30.05,85.83"/><path id="kvg:053a6-s11" kvg:type="&#12743;" d="M51.73,70.71c0.38,0.03,1.67,0,2.75-0.08c3.57-0.24,12.48-2.14,17.58-2.89c3.5-0.51,3.57,1.49,2.68,2.88c-4.9,7.62-24.44,23.44-45.99,28.87"/><path id="kvg:053a6-s12" kvg:type="&#12751;" d="M46.02,73.71c5.99,4.08,31.45,18.7,39.52,22.42c2.41,1.11,4.36,1.65,6.7,1.98"/></g></g></g></g></svg>