<svg xmlns="http://www.w3.org/2000/svg" width="109" height="109" viewBox="0 0 109 109"><g xmlns:kvg="http://kanjivg.tagaini.net" id="kvg:StrokePaths_053ea" style="fill:none;stroke:#000000;stroke-width:3;stroke-linecap:round;stroke-linejoin:round;"><g id="kvg:053ea" kvg:element="&#21482;"><g id="kvg:053ea-g1" kvg:element="&#21475;" kvg:position="top" kvg:radical="general"><path id="kvg:053ea-s1" kvg:type="&#12753;" d="M24.75,27.02c0.63,0.61,1.27,1.11,1.54,1.87c0.16,0.43,0.36,0.91,0.47,1.45c1.43,6.85,3.26,16.09,4.65,24.55c0.42,2.55,0.8,5.04,1.12,7.36"/><path id="kvg:053ea-s2" kvg:type="&#12757;b" d="M27.52,29.03c18.68-2.16,39.17-4.27,49.37-5.15c4.42-0.38,6.95,0.77,5.84,5.51c-1.67,7.18-3.48,16.11-5.17,24.05"/><path id="kvg:053ea-s3" kvg:type="&#12752;b" d="M33.16,58.55c9.14-0.73,25.38-2.22,39.33-3.49c2.97-0.27,5.85-0.53,8.52-0.77"/></g><g id="kvg:053ea-g2" kvg:element="&#20843;" kvg:position="bottom"><g id="kvg:053ea-g3" kvg:position="left"><path id="kvg:053ea-s4" kvg:type="&#12754;" d="M40.49,67.89c0.14,1.35-0.01,2.8-0.77,3.97C36.5,76.88,29.02,84.9,17.56,93.22"/></g><g id="kvg:053ea-g4" kvg:position="right"><path id="kvg:053ea-s5" kvg:type="&#12751;" d="M67.52,68.58c7.78,4.13,20.1,17.46,22.04,23.88"/></g></g></g></g></svg>