<svg xmlns="http://www.w3.org/2000/svg" width="109" height="109" viewBox="0 0 109 109"><g xmlns:kvg="http://kanjivg.tagaini.net" id="kvg:StrokePaths_053ed" style="fill:none;stroke:#000000;stroke-width:3;stroke-linecap:round;stroke-linejoin:round;"><g id="kvg:053ed" kvg:element="&#21485;"><g id="kvg:053ed-g1" kvg:element="&#21475;" kvg:position="left" kvg:radical="general"><path id="kvg:053ed-s1" kvg:type="&#12753;" d="M10.25,33.26c0.37,0.5,0.76,0.92,0.92,1.55c1.29,4.99,3.34,18.74,4.23,27.69"/><path id="kvg:053ed-s2" kvg:type="&#12757;b" d="M12.58,35.16c7.67-1.66,16.55-2.51,20.92-3.16c1.6-0.24,2.56,1.42,2.33,2.83c-0.95,5.82-3.05,13.33-4.46,21.38"/><path id="kvg:053ed-s3" kvg:type="&#12752;b" d="M15.57,58.59c5.14-0.74,11.33-1.03,18.39-2.17"/></g><g id="kvg:053ed-g2" kvg:element="&#20843;" kvg:position="right"><g id="kvg:053ed-g3" kvg:position="left"><path id="kvg:053ed-s4" kvg:type="&#12754;" d="M52.18,35.03c0.39,1.69,0.69,3.63,0.45,5.69C51,54.75,45,77.75,29.75,91.5"/></g><g id="kvg:053ed-g4" kvg:position="right"><path id="kvg:053ed-s5" kvg:type="&#12751;" d="M57.42,15.75c1.56,0.72,3.03,1.66,4.02,3.54C70.53,36.54,81.48,72.31,90.1,83.1c3.71,4.65,5.04,7.15,8.65,8.65"/></g></g></g></g></svg>