<svg xmlns="http://www.w3.org/2000/svg" width="109" height="109" viewBox="0 0 109 109"><g xmlns:kvg="http://kanjivg.tagaini.net" id="kvg:StrokePaths_053e9" style="fill:none;stroke:#000000;stroke-width:3;stroke-linecap:round;stroke-linejoin:round;"><g id="kvg:053e9" kvg:element="&#21481;"><g id="kvg:053e9-g1" kvg:element="&#21475;" kvg:position="left" kvg:radical="general"><path id="kvg:053e9-s1" kvg:type="&#12753;" d="M13.75,29.79c0.47,0.51,0.94,0.94,1.15,1.58c1.62,5.07,4.05,18.54,5.16,27.63"/><path id="kvg:053e9-s2" kvg:type="&#12757;b" d="M16.65,31.22c11.77-2.22,19.79-3.56,25.25-4.23c2-0.24,3.19,1.44,2.91,2.87c-1.18,5.92-2.56,15.07-4.32,23.25"/><path id="kvg:053e9-s3" kvg:type="&#12752;b" d="M19.78,56.55c6.41-0.75,14.15-1.55,22.96-2.71"/></g><g id="kvg:053e9-g2" kvg:element="&#21353;" kvg:position="right"><path id="kvg:053e9-s4" kvg:type="&#12742;" d="M48.75,17.25c1,0.25,2.99,1.08,5,1C60,18,82.5,14.25,85,14s6.25-0.5,6.5,4.75c0.12,2.51,0.25,34.5-1.75,49.5C88.26,79.43,80.25,69.5,79.5,69"/><path id="kvg:053e9-s5" kvg:type="&#12753;" d="M61.33,18.5c0.22,1,0,73.75-0.22,80"/></g></g></g></svg>