<svg xmlns="http://www.w3.org/2000/svg" width="109" height="109" viewBox="0 0 109 109"><g xmlns:kvg="http://kanjivg.tagaini.net" id="kvg:StrokePaths_053e4" style="fill:none;stroke:#000000;stroke-width:3;stroke-linecap:round;stroke-linejoin:round;"><g id="kvg:053e4" kvg:element="&#21476;"><g id="kvg:053e4-g1" kvg:element="&#21313;" kvg:position="top" kvg:radical="nelson"><path id="kvg:053e4-s1" kvg:type="&#12752;" d="M11.25,43.25c2.75,0.62,5.54,0.83,9.53,0.5c23.85-2,49.47-4.12,67.35-4.75c4.02-0.14,6.87,0,9.12,0.5"/><path id="kvg:053e4-s2" kvg:type="&#12753;a" d="M52.41,12.5c1.42,1.42,2.13,3.25,2.13,5.06c0,17.05-0.14,39.31-0.14,48.94"/></g><g id="kvg:053e4-g2" kvg:element="&#21475;" kvg:position="bottom" kvg:radical="tradit"><path id="kvg:053e4-s3" kvg:type="&#12753;" d="M31,67.77c1.12,1.12,2,2.73,2.24,4.48c0.61,4.43,1.87,12.12,3.22,20.93c0.2,1.31,0.39,2.59,0.57,3.83"/><path id="kvg:053e4-s4" kvg:type="&#12757;b" d="M33.77,69.3c11.97-1.17,36.4-3.39,42.99-3.81c3.74-0.24,5.11,1.39,4.26,4.71c-1.18,4.63-3.81,13.6-5.23,20.06"/><path id="kvg:053e4-s5" kvg:type="&#12752;b" d="M37.88,94.42c7.81-0.36,23.99-1.88,35.14-2.65c1.87-0.13,3.61-0.24,5.18-0.32"/></g></g></g></svg>