<svg xmlns="http://www.w3.org/2000/svg" width="109" height="109" viewBox="0 0 109 109"><g xmlns:kvg="http://kanjivg.tagaini.net" id="kvg:StrokePaths_053f2" style="fill:none;stroke:#000000;stroke-width:3;stroke-linecap:round;stroke-linejoin:round;"><g id="kvg:053f2" kvg:element="&#21490;"><g id="kvg:053f2-g1" kvg:element="&#21475;" kvg:radical="tradit"><path id="kvg:053f2-s1" kvg:type="&#12753;" d="M26,32.48c0.89,0.89,1.43,1.85,1.51,2.99c0.86,3.97,1.79,10.89,2.51,17.03c0.22,1.9,0.43,3.73,0.6,5.38"/><path id="kvg:053f2-s2" kvg:type="&#12757;b" d="M28.54,34.91c13.76-1.62,39.22-4.77,49.08-5.71c3.8-0.36,7.1,0.59,5.65,4.97c-1.4,4.22-2.59,7.17-5.08,15.65"/><path id="kvg:053f2-s3" kvg:type="&#12752;b" d="M31.43,53.7c8.1-0.6,29.69-2.1,44.69-2.95c1.72-0.1,3.36-0.19,4.88-0.27"/></g><g id="kvg:053f2-g2" kvg:element="&#20034;"><g id="kvg:053f2-g3" kvg:element="&#20031;"><g id="kvg:053f2-g4" kvg:element="&#20008;" kvg:variant="true" kvg:radical="nelson"><path id="kvg:053f2-s4" kvg:type="&#12754;" d="M51.91,13.68c1.08,1.08,1.52,3.13,1.56,5.89C54,60.88,56.5,79.62,19.14,95.4"/></g></g><path id="kvg:053f2-s5" kvg:type="&#12751;" d="M32.75,62.75C40.42,62.09,67,81.57,79.58,89.38c3.83,2.38,7.66,4.2,12.17,4.87"/></g></g></g></svg>