<svg xmlns="http://www.w3.org/2000/svg" width="109" height="109" viewBox="0 0 109 109"><g xmlns:kvg="http://kanjivg.tagaini.net" id="kvg:StrokePaths_053f0" style="fill:none;stroke:#000000;stroke-width:3;stroke-linecap:round;stroke-linejoin:round;"><g id="kvg:053f0" kvg:element="&#21488;"><g id="kvg:053f0-g1" kvg:element="&#21430;" kvg:position="top" kvg:radical="nelson" kvg:phon="&#21430;"><path id="kvg:053f0-s1" kvg:type="&#12764;" d="M50.25,14.5c0.5,2-0.25,3.5-1.75,5.21c-9.59,10.93-15,16.79-23.75,26.36c-3.45,3.77-3.13,4.67,1.5,3.48C36.25,47,60.5,41.75,77,38.5"/><path id="kvg:053f0-s2" kvg:type="&#12756;" d="M69,29.75C75.18,33.32,84.71,44.44,86.25,50"/></g><g id="kvg:053f0-g2" kvg:element="&#21475;" kvg:position="bottom" kvg:radical="tradit"><path id="kvg:053f0-s3" kvg:type="&#12753;" d="M28.75,64.48c1.2,1.2,1.9,2.7,2.22,4.27c1.4,6.87,2.81,13.67,4.08,21.99c0.27,1.76,0.52,3.45,0.74,5.01"/><path id="kvg:053f0-s4" kvg:type="&#12757;b" d="M31,65.55c16.02-1.56,36.34-3.15,45.3-4.14c3.34-0.37,5.32,1.08,4.38,4.59c-1.76,6.58-3.5,16.65-5.02,23.28"/><path id="kvg:053f0-s5" kvg:type="&#12752;b" d="M36.37,92.75c11.39-0.66,24.26-1.37,35.4-1.98c1.74-0.09,3.55-0.05,5.42-0.06"/></g></g></g></svg>