<svg xmlns="http://www.w3.org/2000/svg" width="109" height="109" viewBox="0 0 109 109"><g xmlns:kvg="http://kanjivg.tagaini.net" id="kvg:StrokePaths_053fa" style="fill:none;stroke:#000000;stroke-width:3;stroke-linecap:round;stroke-linejoin:round;"><g id="kvg:053fa" kvg:element="&#21498;"><g id="kvg:053fa-g1" kvg:element="&#21475;" kvg:position="left" kvg:radical="general"><path id="kvg:053fa-s1" kvg:type="&#12753;" d="M10.25,33.29c0.37,0.51,0.76,0.94,0.92,1.58c1.29,5.07,3.34,18.54,4.23,27.63"/><path id="kvg:053fa-s2" kvg:type="&#12757;b" d="M12.58,35.72c9.17-2.22,16.55-3.06,20.92-3.73c1.6-0.24,2.56,1.44,2.33,2.87c-0.95,5.92-3.05,12.57-4.46,20.75"/><path id="kvg:053fa-s3" kvg:type="&#12752;b" d="M15.57,58.55c5.14-0.75,11.33-1.05,18.39-2.21"/></g><g id="kvg:053fa-g2" kvg:element="&#20837;" kvg:position="right"><path id="kvg:053fa-s4" kvg:type="&#12754;" d="M62.38,39.5c-5.83,17.25-21,41.66-33.13,51.42"/><path id="kvg:053fa-s5" kvg:type="&#12751;" d="M49.48,14.25c1.65,0,3.27,1.98,3.92,3.64c9.68,24.92,23.1,52.61,40.48,70c1.67,1.67,2.68,2.8,4.12,3.36"/></g></g></g></svg>