<svg xmlns="http://www.w3.org/2000/svg" width="109" height="109" viewBox="0 0 109 109"><g xmlns:kvg="http://kanjivg.tagaini.net" id="kvg:StrokePaths_0541b" style="fill:none;stroke:#000000;stroke-width:3;stroke-linecap:round;stroke-linejoin:round;"><g id="kvg:0541b" kvg:element="&#21531;"><g id="kvg:0541b-g1" kvg:element="&#23609;" kvg:phon="&#23609;"><g id="kvg:0541b-g2" kvg:element="&#11925;" kvg:variant="true" kvg:original="&#24401;"><g id="kvg:0541b-g3" kvg:element="&#23608;" kvg:part="1"><path id="kvg:0541b-s1" kvg:type="&#12757;c" d="M29.49,20.59c1.88,0.54,4.04,1.06,6.39,0.85C48,20.38,65,18.25,73.33,17.75c3.32-0.2,5.46,1.31,4.61,4.94c-1.44,6.19-3.44,14.19-5.09,24.64"/><path id="kvg:0541b-s2" kvg:type="&#12752;" d="M14.75,37.39c3.14,0.21,5.61,0.5,9.07,0.17c19.3-1.82,40.55-4.07,62.58-5.81c3.84-0.3,6.98,0.17,8.72,0.39"/></g><path id="kvg:0541b-s3" kvg:type="&#12752;" d="M26.53,52.37c1.73,0.21,4.86,0.11,6.91-0.11c13.81-1.5,24.31-3,34.53-3.94c2.75-0.25,4.99-0.25,7.07-0.04"/></g><g id="kvg:0541b-g4" kvg:element="&#23608;" kvg:part="2"><g id="kvg:0541b-g5" kvg:element="&#20031;"><path id="kvg:0541b-s4" kvg:type="&#12754;" d="M51.96,22.5c0.67,1.38,0.59,2.42,0.29,3.5C46.28,47.18,39,69.5,15.75,88.5"/></g></g></g><g id="kvg:0541b-g6" kvg:element="&#21475;" kvg:radical="general"><path id="kvg:0541b-s5" kvg:type="&#12753;" d="M39.5,66.6c0.95,0.95,1.32,2.26,1.5,3.4c1.09,6.87,1.8,13.94,2.65,21.25c0.12,1.07,0.25,2.14,0.38,3.21"/><path id="kvg:0541b-s6" kvg:type="&#12757;b" d="M41.64,68.46C54,66.5,71.31,64.38,77.69,63.77c2.81-0.27,4.56,0.98,3.9,3.85C80.23,73.5,79,78.5,76.92,88.52"/><path id="kvg:0541b-s7" kvg:type="&#12752;b" d="M44.04,92.38c6.29-0.63,20.95-2.05,30.6-2.64c1.84-0.11,3.49-0.19,4.87-0.23"/></g></g></g></svg>