<svg xmlns="http://www.w3.org/2000/svg" width="109" height="109" viewBox="0 0 109 109"><g xmlns:kvg="http://kanjivg.tagaini.net" id="kvg:StrokePaths_0542c" style="fill:none;stroke:#000000;stroke-width:3;stroke-linecap:round;stroke-linejoin:round;"><g id="kvg:0542c" kvg:element="&#21548;"><g id="kvg:0542c-g1" kvg:element="&#21475;" kvg:position="left" kvg:radical="general"><path id="kvg:0542c-s1" kvg:type="&#12753;" d="M10.25,33.29c0.37,0.51,0.76,0.94,0.92,1.58c1.29,5.07,3.34,18.54,4.23,27.63"/><path id="kvg:0542c-s2" kvg:type="&#12757;b" d="M12.58,35.72c9.42-2.22,16.55-3.56,20.92-4.23c1.6-0.24,2.56,1.44,2.33,2.87c-0.95,5.92-3.05,13.07-4.46,21.25"/><path id="kvg:0542c-s3" kvg:type="&#12752;b" d="M15.57,58.55c5.14-0.75,11.33-1.05,18.39-2.21"/></g><g id="kvg:0542c-g2" kvg:element="&#26020;" kvg:position="right"><path id="kvg:0542c-s4" kvg:type="&#12754;" d="M82.77,11.5c0.08,0.37,0.33,1.09-0.16,1.48c-6.71,5.43-15.28,9.54-29.42,14.21"/><path id="kvg:0542c-s5" kvg:type="&#12754;" d="M49.42,25.33c1.02,1.96,1,3.84,1,5.98c0,21.16-0.42,44.94-14.62,57.71"/><path id="kvg:0542c-s6" kvg:type="&#12752;" d="M52.59,45.35c0.53,0.2,2.63,0.34,4.04,0.12c7.81-1.26,25.44-3.59,34.33-4.21c1.43-0.1,3.9-0.2,4.79,0"/><path id="kvg:0542c-s7" kvg:type="&#12753;" d="M73.18,45.98c0.94,0.63,1.5,2.84,1.69,4.1c0.19,1.26,0,40.54-0.19,48.42"/></g></g></g></svg>