<svg xmlns="http://www.w3.org/2000/svg" width="109" height="109" viewBox="0 0 109 109"><g xmlns:kvg="http://kanjivg.tagaini.net" id="kvg:StrokePaths_0542d" style="fill:none;stroke:#000000;stroke-width:3;stroke-linecap:round;stroke-linejoin:round;"><g id="kvg:0542d" kvg:element="&#21549;"><g id="kvg:0542d-g1" kvg:element="&#21475;" kvg:position="left" kvg:radical="general"><path id="kvg:0542d-s1" kvg:type="&#12753;" d="M10.25,32.79c0.37,0.51,0.76,0.94,0.92,1.58c1.29,5.07,3.34,19.04,4.23,28.13"/><path id="kvg:0542d-s2" kvg:type="&#12757;b" d="M12.58,35.22C22,33,28.62,32.16,32.99,31.49c1.6-0.24,2.56,1.44,2.33,2.87c-0.95,5.92-2.55,13.07-3.96,21.25"/><path id="kvg:0542d-s3" kvg:type="&#12752;b" d="M15.57,58.55c5.14-0.75,10.83-1.05,17.89-2.21"/></g><g id="kvg:0542d-g2" kvg:element="&#20130;" kvg:position="right"><g id="kvg:0542d-g3" kvg:element="&#20128;" kvg:position="top"><path id="kvg:0542d-s4" kvg:type="&#12753;a" d="M63.93,11.75c0.91,0.61,2.4,2.96,2.4,4.16c0,4.45-0.29,8.38-0.12,12.15"/><path id="kvg:0542d-s5" kvg:type="&#12752;" d="M41.52,29.89c1.37,0.36,4.53,0.89,5.87,0.72c11.83-1.52,28.89-3.97,42.66-4.36c2.28-0.07,3.44,0.06,5.13,0.92"/></g><g id="kvg:0542d-g4" kvg:element="&#20960;" kvg:position="bottom"><g id="kvg:0542d-g5" kvg:element="&#20031;"><path id="kvg:0542d-s6" kvg:type="&#12754;" d="M52.94,41.5c0.46,0.89,1.02,3,1.08,4.68c0.12,3.6,0.12,4.41,0.06,11.12C53.91,74.7,46,89,36.25,94"/></g><path id="kvg:0542d-s7" kvg:type="&#12744;b" d="M54.37,44c4.55-1,13.33-1.99,17.88-3.25c3.62-1,4.75,2.01,4.49,4.55c-0.99,9.95-0.96,31.14-0.96,36.7c0,10.5,3.46,12.03,11.79,12.03c6.92,0,10.31,0.47,10.31-9.62"/></g></g></g></g></svg>