<svg xmlns="http://www.w3.org/2000/svg" width="109" height="109" viewBox="0 0 109 109"><g xmlns:kvg="http://kanjivg.tagaini.net" id="kvg:StrokePaths_0542e" style="fill:none;stroke:#000000;stroke-width:3;stroke-linecap:round;stroke-linejoin:round;"><g id="kvg:0542e" kvg:element="&#21550;"><g id="kvg:0542e-g1" kvg:element="&#21475;" kvg:position="left" kvg:radical="general"><path id="kvg:0542e-s1" kvg:type="&#12753;" d="M11.25,33.29c0.37,0.51,0.76,0.94,0.92,1.58C13.46,39.93,15.51,53.9,16.4,63"/><path id="kvg:0542e-s2" kvg:type="&#12757;b" d="M13.58,35.72c9.42-2.22,16.05-3.06,20.42-3.73c1.6-0.24,2.56,1.44,2.33,2.87c-0.95,5.92-2.55,14.07-3.96,22.25"/><path id="kvg:0542e-s3" kvg:type="&#12752;b" d="M16.57,59.05c5.14-0.75,10.83-1.05,17.89-2.21"/></g><g id="kvg:0542e-g2" kvg:element="&#20801;" kvg:position="right"><g id="kvg:0542e-g3" kvg:element="&#21430;" kvg:position="top"><path id="kvg:0542e-s4" kvg:type="&#12764;" d="M65.17,10.75c0.59,0.63,0.64,3.1,0.2,3.88C59.75,24.5,54,31.75,46.3,41.3c-2.15,2.67-2.54,2.97,1.18,2.28c9.05-1.68,26.34-5.57,38.94-8.39"/><path id="kvg:0542e-s5" kvg:type="&#12756;" d="M77.25,24.83c5.57,3.6,14.38,14.79,15.77,20.39"/></g><g id="kvg:0542e-g4" kvg:element="&#20799;" kvg:position="bottom"><g id="kvg:0542e-g5" kvg:element="&#20843;" kvg:variant="true"><g id="kvg:0542e-g6" kvg:element="&#20031;" kvg:position="left"><path id="kvg:0542e-s6" kvg:type="&#12754;" d="M56.47,49.21c0.78,0.79,1.39,2.96,1.38,4.63C57.75,68.75,53,90,34.89,98.17"/></g><g id="kvg:0542e-g7" kvg:position="right"><path id="kvg:0542e-s7" kvg:type="&#12767;" d="M72.84,43.87c0.61,1.54,1.09,3.35,1.12,5.72c0.16,10.58,0.07,25.86,0.07,33.06c0,12.1-0.04,13.91,12.44,13.91c9.77,0,10.94-2.56,10.94-13.3"/></g></g></g></g></g></g></svg>