<svg xmlns="http://www.w3.org/2000/svg" width="109" height="109" viewBox="0 0 109 109"><g xmlns:kvg="http://kanjivg.tagaini.net" id="kvg:StrokePaths_05439" style="fill:none;stroke:#000000;stroke-width:3;stroke-linecap:round;stroke-linejoin:round;"><g id="kvg:05439" kvg:element="&#21561;"><g id="kvg:05439-g1" kvg:element="&#21475;" kvg:position="left" kvg:radical="general"><path id="kvg:05439-s1" kvg:type="&#12753;" d="M13,30.89c0.79,0.93,1.22,2.01,1.26,3.24c0.49,6.63,0.96,12.07,1.42,19.13c0.11,1.76,0.24,3.45,0.4,4.99"/><path id="kvg:05439-s2" kvg:type="&#12757;b" d="M14.79,31.89c6.83-1.4,13.68-2.8,18.2-3.57c3.62-0.61,4.62,0.53,4.04,4.19c-0.87,5.53-1.91,12.12-3.12,20.06"/><path id="kvg:05439-s3" kvg:type="&#12752;b" d="M17,55.79c4.16-0.59,8.96-1.27,14.76-2.19c1.25-0.2,2.49-0.34,3.73-0.34"/></g><g id="kvg:05439-g2" kvg:element="&#27424;" kvg:position="right"><g id="kvg:05439-g3" kvg:position="top"><path id="kvg:05439-s4" kvg:type="&#12754;" d="M58.14,15.25c0.11,1.12,0,2.18-0.33,3.34C55.62,26.38,50.75,39.25,43.17,50"/><path id="kvg:05439-s5" kvg:type="&#12758;a" d="M55.52,34.74c0.95,0.36,3.24,0.38,4.69,0.11c5.91-1.1,20.04-3.52,23.39-3.79c6.89-0.56-0.48,7.44-4.64,11.44"/></g><g id="kvg:05439-g4" kvg:position="bottom"><path id="kvg:05439-s6" kvg:type="&#12754;" d="M57.87,48.25c0.63,1.12,0.49,2.97,0.09,4.46C54.75,64.75,48.5,82.5,29.5,93"/><path id="kvg:05439-s7" kvg:type="&#12751;" d="M57.23,59C63.62,65.69,74,78,83.42,87.07c2.73,2.63,6.08,4.93,9.33,6.43"/></g></g></g></g></svg>