<svg xmlns="http://www.w3.org/2000/svg" width="109" height="109" viewBox="0 0 109 109"><g xmlns:kvg="http://kanjivg.tagaini.net" id="kvg:StrokePaths_0543c" style="fill:none;stroke:#000000;stroke-width:3;stroke-linecap:round;stroke-linejoin:round;"><g id="kvg:0543c" kvg:element="&#21564;"><g id="kvg:0543c-g1" kvg:element="&#21475;" kvg:position="left" kvg:radical="general"><path id="kvg:0543c-s1" kvg:type="&#12753;" d="M10.75,34.62c0.36,0.46,0.73,0.85,0.89,1.43c1.25,4.58,2.76,17.23,3.61,25.46"/><path id="kvg:0543c-s2" kvg:type="&#12757;b" d="M13,36.82c9.13-2.01,14.58-3.23,18.81-3.83c1.55-0.22,2.48,1.3,2.26,2.6c-0.92,5.35-1.99,13.63-3.35,21.03"/><path id="kvg:0543c-s3" kvg:type="&#12752;b" d="M15.42,59.29c4.98-0.68,10.98-0.95,17.81-2"/></g><g id="kvg:0543c-g2" kvg:element="&#23380;" kvg:position="right"><g id="kvg:0543c-g3" kvg:element="&#23376;" kvg:variant="true" kvg:position="left"><path id="kvg:0543c-s4" kvg:type="&#12758;" d="M34.85,18.45c2.15,0.8,3.9,1.55,6.58,1.58c4.07,0.04,17.42-4.05,19.04-4.05c1.63,0,3.39,1.02,1.76,3.07c-1.62,2.05-9.62,13.06-15.27,18.99"/><path id="kvg:0543c-s5" kvg:type="&#12757;v" d="M44.07,37.97C54.25,43,59.21,62.4,53.96,86.24c-1.71,7.76-4.46,9.51-10.18,3.07"/><path id="kvg:0543c-s6" kvg:type="&#12736;/&#12752;" d="M33,66.87c1.16,0.8,2.79,1.17,4.54,0.07c9.12-5.77,14.76-9.61,25.17-16.47"/></g><g id="kvg:0543c-g4" kvg:element="&#20057;" kvg:position="right"><path id="kvg:0543c-s7" kvg:type="&#12767;" d="M74.47,12.87c0.49,1.25,0.88,2.73,0.9,4.67c0.13,8.63-0.35,54.97-0.35,60.84C75.03,92.08,76.25,94,85.9,94c9.1,0,10.99-1.75,10.99-14.14"/></g></g></g></g></svg>