<svg xmlns="http://www.w3.org/2000/svg" width="109" height="109" viewBox="0 0 109 109"><g xmlns:kvg="http://kanjivg.tagaini.net" id="kvg:StrokePaths_0544e" style="fill:none;stroke:#000000;stroke-width:3;stroke-linecap:round;stroke-linejoin:round;"><g id="kvg:0544e" kvg:element="&#21582;"><g id="kvg:0544e-g1" kvg:element="&#21475;" kvg:position="left" kvg:radical="general"><path id="kvg:0544e-s1" kvg:type="&#12753;" d="M10.25,33.29c0.37,0.51,0.76,0.94,0.92,1.58c1.29,5.07,3.34,18.54,4.23,27.63"/><path id="kvg:0544e-s2" kvg:type="&#12757;b" d="M11.58,35.22c9.42-1.72,17.55-3.06,21.92-3.73c1.6-0.24,2.56,1.44,2.33,2.87c-0.95,5.92-3.55,14.57-4.96,22.75"/><path id="kvg:0544e-s3" kvg:type="&#12752;b" d="M15.07,59.05c5.14-0.75,11.33-1.05,18.39-2.21"/></g><g id="kvg:0544e-g2" kvg:element="&#23610;" kvg:position="right"><g id="kvg:0544e-g3" kvg:element="&#23608;"><path id="kvg:0544e-s4" kvg:type="&#12757;c" d="M45.39,21.82c1.5,0.77,3.93,1.01,5.52,0.79c9.84-1.36,26.19-3.5,29.63-3.97c2.96-0.4,3.92,1.94,3.46,4.19c-1,4.91-2.25,12.16-4,20.41"/><path id="kvg:0544e-s5" kvg:type="&#12752;b" d="M49.5,46.25c4.32-0.26,27.55-2.51,32.06-2.76"/><g id="kvg:0544e-g4" kvg:element="&#20843;" kvg:part="1"><path id="kvg:0544e-s6" kvg:type="&#12754;" d="M49.59,24.12c0,3.91-0.01,9.27-0.67,17.64c-1.7,21.73-6.17,35.49-18.67,50.74"/></g></g><g id="kvg:0544e-g5" kvg:element="&#20843;" kvg:part="2"><path id="kvg:0544e-s7" kvg:type="&#12751;" d="M58.25,47c6.52,10.91,22.51,34.12,31.5,41.97c2.09,1.82,5.23,2.95,7,3.53"/></g></g></g></g></svg>