<svg xmlns="http://www.w3.org/2000/svg" width="109" height="109" viewBox="0 0 109 109"><g xmlns:kvg="http://kanjivg.tagaini.net" id="kvg:StrokePaths_05451" style="fill:none;stroke:#000000;stroke-width:3;stroke-linecap:round;stroke-linejoin:round;"><g id="kvg:05451" kvg:element="&#21585;"><g id="kvg:05451-g1" kvg:element="&#22829;" kvg:position="top"><g id="kvg:05451-g2" kvg:element="&#20031;"><path id="kvg:05451-s1" kvg:type="&#12754;" d="M66.45,12.89c0.11,0.4,0.2,1.02-0.21,1.62C62.76,19.6,48.8,27.22,29.06,29.98"/></g><g id="kvg:05451-g3" kvg:element="&#22823;"><g id="kvg:05451-g4" kvg:element="&#19968;" kvg:radical="nelson"><path id="kvg:05451-s2" kvg:type="&#12752;" d="M15.38,44.11c0.99,0.33,3.53,0.5,4.62,0.46c12.65-0.54,51.51-6.09,67.37-6.22c1.37-0.01,3.32,0.13,6.39,0.69"/></g><path id="kvg:05451-s3" kvg:type="&#12754;" d="M53.1,26.95c0.6,0.69,0.41,2.58-0.11,3.99C44.75,53.25,34.25,65.5,15.25,75.5"/><path id="kvg:05451-s4" kvg:type="&#12751;" d="M56,41.27c8.21,7.44,26.01,24.96,34.22,29.94c2.79,1.69,3.76,1.95,5.03,2.1"/></g></g><g id="kvg:05451-g5" kvg:element="&#21475;" kvg:position="bottom" kvg:radical="tradit"><path id="kvg:05451-s5" kvg:type="&#12753;" d="M33.75,71.52c0.51,0.44,1.03,0.8,1.26,1.34c1.77,4.32,3.89,16.23,5.1,23.99"/><path id="kvg:05451-s6" kvg:type="&#12757;b" d="M36.93,73.45c10.57-1.2,29.14-2.74,35.12-3.31c2.18-0.21,3.01,2.39,2.7,3.61c-1.29,5.04-3.32,12.97-5.25,19.95"/><path id="kvg:05451-s7" kvg:type="&#12752;b" d="M40.34,96.06c7.02-0.64,20.16-1.56,31.34-1.74"/></g></g></g></svg>