<svg xmlns="http://www.w3.org/2000/svg" width="109" height="109" viewBox="0 0 109 109"><g xmlns:kvg="http://kanjivg.tagaini.net" id="kvg:StrokePaths_0546a" style="fill:none;stroke:#000000;stroke-width:3;stroke-linecap:round;stroke-linejoin:round;"><g id="kvg:0546a" kvg:element="&#21610;"><g id="kvg:0546a-g1" kvg:element="&#21475;" kvg:position="left" kvg:radical="general"><path id="kvg:0546a-s1" kvg:type="&#12753;" d="M11.25,28.79c0.76,0.95,1.19,2.02,1.3,3.23c0.81,5.79,1.57,10.81,2.23,15.98c0.32,2.52,0.61,5.06,0.88,7.75"/><path id="kvg:0546a-s2" kvg:type="&#12757;b" d="M13.33,30.22c8.11-1.41,15.1-1.98,19.67-2.59c3.55-0.48,5.38,0.72,4.73,4.54c-0.96,5.68-2.12,11.67-3.37,18.94"/><path id="kvg:0546a-s3" kvg:type="&#12752;b" d="M16.82,53.55c4.98-0.51,9.17-0.84,14.18-1.26c1.7-0.14,3.5-0.29,5.45-0.45"/></g><g id="kvg:0546a-g2" kvg:element="&#20804;" kvg:position="right"><g id="kvg:0546a-g3" kvg:element="&#21475;" kvg:position="top"><path id="kvg:0546a-s4" kvg:type="&#12753;" d="M47.86,20.6c0.86,1.01,1.44,2.15,1.73,3.42c1.05,5.85,1.78,10.19,2.63,16.5c0.29,2.16,0.59,4.55,0.92,7.3"/><path id="kvg:0546a-s5" kvg:type="&#12757;b" d="M49.93,22.24c9.3-0.99,24.1-2.06,32.19-2.76c4.61-0.4,5.94,0.86,5.09,5.53c-0.84,4.6-2.02,9.31-3.81,17.17"/><path id="kvg:0546a-s6" kvg:type="&#12752;b" d="M54.02,45.09c7.97-0.63,17.14-1.2,24.47-1.76c2.53-0.19,4.85-0.38,6.82-0.58"/></g><g id="kvg:0546a-g4" kvg:element="&#20799;" kvg:original="&#20843;" kvg:position="bottom"><g id="kvg:0546a-g5" kvg:element="&#20031;"><path id="kvg:0546a-s7" kvg:type="&#12754;" d="M63.47,48.51c0,1.24-0.16,2.6-0.65,3.97c-3.69,10.27-11.19,25.27-26.7,37.27"/></g><path id="kvg:0546a-s8" kvg:type="&#12767;" d="M72.24,46.75c0.88,0.88,1.1,2.12,1.1,3.6c0,6.49-0.08,21.89-0.08,30.88c0,10.09,1.99,11.51,12.48,11.27C95.5,92.28,96.77,90.42,96.77,81"/></g></g></g></g></svg>