<svg xmlns="http://www.w3.org/2000/svg" width="109" height="109" viewBox="0 0 109 109"><g xmlns:kvg="http://kanjivg.tagaini.net" id="kvg:StrokePaths_05473" style="fill:none;stroke:#000000;stroke-width:3;stroke-linecap:round;stroke-linejoin:round;"><g id="kvg:05473" kvg:element="&#21619;"><g id="kvg:05473-g1" kvg:element="&#21475;" kvg:position="left" kvg:radical="general"><path id="kvg:05473-s1" kvg:type="&#12753;" d="M10.46,35.58c0.79,0.79,1.25,2.27,1.43,3.67c0.57,4.36,1.33,11.99,2.07,18.99c0.17,1.56,0.33,3.09,0.49,4.54"/><path id="kvg:05473-s2" kvg:type="&#12757;b" d="M12.64,37.37c4.54-0.72,13.77-2.2,18.75-2.73c3.08-0.32,4.74,1.14,4.01,4.27c-1.06,4.55-2.56,11.44-3.57,17.68"/><path id="kvg:05473-s3" kvg:type="&#12752;b" d="M14.17,58.88c3.12,0,10.34-0.95,15.96-1.42c1.54-0.13,2.95-0.22,4.13-0.25"/></g><g id="kvg:05473-g2" kvg:element="&#26410;" kvg:position="right" kvg:phon="&#26410;"><path id="kvg:05473-s4" kvg:type="&#12752;" d="M45.31,32.77c1.8,0.63,4.34,0.76,6.2,0.59c7.33-0.64,16.7-2.27,24.62-3.07c1.82-0.18,4.04-0.33,5.84,0.05"/><g id="kvg:05473-g3" kvg:element="&#26408;"><path id="kvg:05473-s5" kvg:type="&#12752;" d="M40.13,51.5c2.36,0.73,5.09,0.73,7.5,0.38c8.62-1.26,23.37-3.03,36.12-4.3c2.47-0.25,5.16-0.29,7.63,0.17"/><path id="kvg:05473-s6" kvg:type="&#12753;" d="M61.68,11.5c1.41,1.41,1.93,3.25,1.93,4.75c0,0.88-0.01,54.18-0.02,75.5c0,3.68,0,6.41,0,7.75"/><path id="kvg:05473-s7" kvg:type="&#12754;" d="M61,51.12c0,1.97-0.91,3.63-1.98,5.21c-7.06,10.48-19.73,23.07-30.64,28.54"/><path id="kvg:05473-s8" kvg:type="&#12751;" d="M64.65,50.62c3.78,5.82,16.49,19.94,23.74,26.88c2.02,1.93,3.61,3.5,6.36,4.75"/></g></g></g></g></svg>