<svg xmlns="http://www.w3.org/2000/svg" width="109" height="109" viewBox="0 0 109 109"><g xmlns:kvg="http://kanjivg.tagaini.net" id="kvg:StrokePaths_05471" style="fill:none;stroke:#000000;stroke-width:3;stroke-linecap:round;stroke-linejoin:round;"><g id="kvg:05471" kvg:element="&#21617;"><g id="kvg:05471-g1" kvg:element="&#21475;" kvg:position="left" kvg:radical="general"><path id="kvg:05471-s1" kvg:type="&#12753;" d="M11.25,33.29c0.37,0.51,0.76,0.94,0.92,1.58C13.46,39.93,15.01,53.9,15.9,63"/><path id="kvg:05471-s2" kvg:type="&#12757;b" d="M13.58,35.72c9.42-2.22,15.05-3.56,19.42-4.23c1.6-0.24,2.56,1.44,2.33,2.87c-0.95,5.92-2.05,15.07-3.46,23.25"/><path id="kvg:05471-s3" kvg:type="&#12752;b" d="M16.07,60.55c5.14-0.75,11.33-1.05,18.39-2.21"/></g><g id="kvg:05471-g2" kvg:element="&#29916;" kvg:position="right"><g id="kvg:05471-g3" kvg:element="&#20031;"><path id="kvg:05471-s4" kvg:type="&#12754;" d="M75,8c0.07,0.5-0.11,2.1-0.52,2.66c-5.14,7.03-12.37,12.82-25.78,18.49"/></g><path id="kvg:05471-s5" kvg:type="&#12754;" d="M45.24,28.21c0.35,0.82,0.9,2.26,0.99,4.6c0.96,24.32-0.63,52.82-12.19,64.41"/><g id="kvg:05471-g4" kvg:element="&#21430;" kvg:variant="true" kvg:original="&#21430;"><path id="kvg:05471-s6" kvg:type="&#12753;" d="M59.22,26.53c0.96,0.68,1.73,3.04,1.73,4.43c0,7.12-0.19,38.79-0.19,50.34"/><path id="kvg:05471-s7" kvg:type="&#12736;/&#12752;" d="M48.72,86.22c0.65,0.68,1.93,1.98,3.29,1.25c7.23-3.88,12.69-7.37,20.42-11.67"/><path id="kvg:05471-s8" kvg:type="&#12756;" d="M69.04,70.09c2.15,2.95,5.56,12.12,6.1,16.71"/></g><path id="kvg:05471-s9" kvg:type="&#12751;" d="M71.97,22c0.2,0,0.86,0.69,1.09,2.09c2.49,15.23,6.66,47.59,15.31,66.57c1.31,2.88,2.71,4.67,3.64,5.61"/></g></g></g></svg>