<svg xmlns="http://www.w3.org/2000/svg" width="109" height="109" viewBox="0 0 109 109"><g xmlns:kvg="http://kanjivg.tagaini.net" id="kvg:StrokePaths_05470" style="fill:none;stroke:#000000;stroke-width:3;stroke-linecap:round;stroke-linejoin:round;"><g id="kvg:05470" kvg:element="&#21616;"><g id="kvg:05470-g1" kvg:element="&#27492;" kvg:variant="true" kvg:position="top"><g id="kvg:05470-g2" kvg:element="&#27490;" kvg:variant="true" kvg:position="left"><g id="kvg:05470-g3" kvg:element="&#21340;" kvg:original="&#12488;"><path id="kvg:05470-s1" kvg:type="&#12753;" d="M34.32,13.23c1.01,0.35,1.62,1.56,1.82,2.25c0.2,0.69-0.07,27.91-0.07,35.35"/><path id="kvg:05470-s2" kvg:type="&#12752;" d="M36.65,31.49c4.5-0.52,10.82-2.06,15.24-2.58c1.1-0.13,1.38-0.17,2.06,0"/></g><path id="kvg:05470-s3" kvg:type="&#12740;" d="M17.45,27.51c1.01,0.35,1.82,2.04,1.82,2.75c0,3.81-0.74,18.49-0.74,24.11c0,1.38,0.48,2.4,2.47,1.88c6.75-1.75,18.25-5.75,30.5-10"/></g><g id="kvg:05470-g4" kvg:element="&#21269;" kvg:position="right"><path id="kvg:05470-s4" kvg:type="&#12754;" d="M88.04,16.19c0.2,0.33,0.32,1.3-0.18,1.81c-3.25,3.3-14.41,12.4-24.92,15.78"/><path id="kvg:05470-s5" kvg:type="&#12767;" d="M60.46,12.5c1.09,1.03,1.16,1.71,1.53,3.08c0.36,1.37,0.11,21.54,0.11,30.88c0,9.34,8.87,7.84,16.43,7.84c14.86,0,15.11-2.6,15.11-9.15"/></g></g><g id="kvg:05470-g5" kvg:element="&#21475;" kvg:position="bottom" kvg:radical="general"><path id="kvg:05470-s6" kvg:type="&#12753;" d="M31,67.35c0.47,0.52,0.95,0.96,1.16,1.61c1.63,5.18,3.09,18.47,4.2,27.78"/><path id="kvg:05470-s7" kvg:type="&#12757;b" d="M32.56,69.37c14.94-1.87,32.54-3.69,40.18-4.37c2.79-0.25,4.46,1.48,4.06,2.94c-1.65,6.05-3.08,13.87-5.54,22.24"/><path id="kvg:05470-s8" kvg:type="&#12752;b" d="M36.42,93.7c8.96-0.77,25.32-2.1,37.63-3.28"/></g></g></g></svg>