<svg xmlns="http://www.w3.org/2000/svg" width="109" height="109" viewBox="0 0 109 109"><g xmlns:kvg="http://kanjivg.tagaini.net" id="kvg:StrokePaths_0548f" style="fill:none;stroke:#000000;stroke-width:3;stroke-linecap:round;stroke-linejoin:round;"><g id="kvg:0548f" kvg:element="&#21647;"><g id="kvg:0548f-g1" kvg:element="&#21475;" kvg:position="left" kvg:radical="general"><path id="kvg:0548f-s1" kvg:type="&#12753;" d="M9.25,34.17c0.37,0.48,0.76,0.88,0.92,1.48c1.29,4.74,3.34,17.33,4.23,25.85"/><path id="kvg:0548f-s2" kvg:type="&#12757;b" d="M11.58,36.45c9.42-2.08,14.55-2.84,18.92-3.46c1.6-0.23,2.56,1.35,2.33,2.69c-0.95,5.54-2.55,11.61-3.96,19.27"/><path id="kvg:0548f-s3" kvg:type="&#12752;b" d="M14.57,57.71c5.14-0.7,9.83-0.98,16.89-2.07"/></g><g id="kvg:0548f-g2" kvg:element="&#27704;" kvg:position="right"><g id="kvg:0548f-g3" kvg:element="&#20022;" kvg:position="top"><path id="kvg:0548f-s4" kvg:type="&#12756;" d="M54.25,11.25c4.95,2.53,8.91,6.02,10.39,9.5"/></g><g id="kvg:0548f-g4" kvg:element="&#27700;" kvg:variant="true" kvg:position="bottom"><path id="kvg:0548f-s5" kvg:type="&#12742;" d="M45.69,32.75c0.02,0.12,1.26,0.95,3.13,0.81C53,33.25,58.16,31.5,61.5,31.5c1.77,0,3.94,1.01,3.75,4.25c-0.8,13.75-0.49,53.22-0.49,57.77c0,7.23-6.87,0.49-7.97-0.58"/><path id="kvg:0548f-s6" kvg:type="&#12743;" d="M38,53.46c1.27,0.23,2.76,0.91,4.03,0.45c1.27-0.45,7.39-1.85,9.5-2.75c2.12-0.91,3.98,0.75,3.18,2.72C49.75,66,43.25,76.5,33.27,84.87"/><path id="kvg:0548f-s7" kvg:type="&#12754;" d="M85.24,35.85c0.08,0.43,0.14,1.16-0.16,1.73c-2.77,5.29-8.96,12.31-13.98,15.06"/><path id="kvg:0548f-s8" kvg:type="&#12751;" d="M65.41,51.24c7.68,9.92,20.56,23.32,29.15,29.03c1.81,1.21,3.53,1.81,5.19,2.22"/></g></g></g></g></svg>