<svg xmlns="http://www.w3.org/2000/svg" width="109" height="109" viewBox="0 0 109 109"><g xmlns:kvg="http://kanjivg.tagaini.net" id="kvg:StrokePaths_05484" style="fill:none;stroke:#000000;stroke-width:3;stroke-linecap:round;stroke-linejoin:round;"><g id="kvg:05484" kvg:element="&#21636;"><g id="kvg:05484-g1" kvg:element="&#21475;" kvg:position="left" kvg:radical="general"><path id="kvg:05484-s1" kvg:type="&#12753;" d="M9.75,34.15c0.37,0.47,0.76,0.86,0.92,1.45c1.29,4.66,3.84,17.53,4.73,25.9"/><path id="kvg:05484-s2" kvg:type="&#12757;b" d="M12.08,35.89c7.17-1.39,16.05-2.78,20.42-3.39c1.6-0.22,2.56,1.33,2.33,2.64c-0.95,5.45-2.05,12.37-3.46,19.9"/><path id="kvg:05484-s3" kvg:type="&#12752;b" d="M15.57,57.75c5.14-0.69,11.33-0.97,18.39-2.03"/></g><g id="kvg:05484-g2" kvg:element="&#20986;" kvg:position="right"><g id="kvg:05484-g3" kvg:element="&#23665;"><path id="kvg:05484-s4" kvg:type="&#12753;a" d="M66.26,11.88c0.57,0.46,1.9,2.87,1.9,4.38c0,0.93,0.25,67.62,0.13,73.39"/><path id="kvg:05484-s5" kvg:type="&#12740;a" d="M47.94,34.99c0.5,0.39,1.07,3.31,0.99,4.1c-0.33,3.51-0.68,9.91-1.38,14.87c-0.25,1.77,0.81,1.74,2.03,1.48c10.18-2.19,30.18-4.19,41.22-4.65"/><path id="kvg:05484-s6" kvg:type="&#12753;" d="M92.12,28.64c0.58,0.46,0.8,4.09,0.71,5.02c-0.57,5.67-1.09,12.84-2.23,18.88"/></g><g id="kvg:05484-g4" kvg:element="&#20981;"><path id="kvg:05484-s7" kvg:type="&#12740;a" d="M47.09,70.7c0.5,0.4,1.07,3.39,0.99,4.2c-0.33,3.59-2.54,9.03-3.88,16.33c-0.33,1.8,0.76,2.47,1.99,2.2c13.56-2.93,36.66-6.25,46-6.02"/><path id="kvg:05484-s8" kvg:type="&#12753;" d="M92.73,65.93c0.58,0.46,1.6,4.09,1.47,5.01c-0.98,6.77-1.02,13.36-2.23,20.83"/></g></g></g></g></svg>