<svg xmlns="http://www.w3.org/2000/svg" width="109" height="109" viewBox="0 0 109 109"><g xmlns:kvg="http://kanjivg.tagaini.net" id="kvg:StrokePaths_05492" style="fill:none;stroke:#000000;stroke-width:3;stroke-linecap:round;stroke-linejoin:round;"><g id="kvg:05492" kvg:element="&#21650;"><g id="kvg:05492-g1" kvg:position="top"><g id="kvg:05492-g2" kvg:element="&#21475;" kvg:position="left" kvg:radical="general"><path id="kvg:05492-s1" kvg:type="&#12753;" d="M21.25,15.64c0.39,0.39,0.79,0.72,0.96,1.21c1.35,3.9,2.97,12.65,3.89,19.65"/><path id="kvg:05492-s2" kvg:type="&#12757;b" d="M23.68,17.78c8.57-1.53,17.66-2.78,22.22-3.29c1.67-0.19,2.67,1.11,2.43,2.21c-0.99,4.55-2.14,8.55-3.61,14.85"/><path id="kvg:05492-s3" kvg:type="&#12752;b" d="M26.28,34.58C31.64,34,39.02,33,46.38,32.11"/></g><g id="kvg:05492-g3" kvg:element="&#21475;" kvg:position="right" kvg:radical="general"><path id="kvg:05492-s4" kvg:type="&#12753;" d="M58.25,14.14c0.42,0.39,0.85,0.72,1.04,1.21c1.46,3.9,2.21,12.15,3.21,19.15"/><path id="kvg:05492-s5" kvg:type="&#12757;b" d="M60.38,15.28C70.75,13.75,79,13,83.94,12.49c1.8-0.19,2.89,1.11,2.63,2.21c-1.07,4.55-2.32,9.55-3.91,15.85"/><path id="kvg:05492-s6" kvg:type="&#12752;b" d="M62.7,32.08c5.8-0.58,12.55-0.83,21.77-1.47"/></g></g><g id="kvg:05492-g4" kvg:element="&#20960;" kvg:position="bottom"><g id="kvg:05492-g5" kvg:element="&#20031;"><path id="kvg:05492-s7" kvg:type="&#12754;" d="M38.83,46c0.92,1.25,1.28,1.56,1.28,4.06c0,22.77-2.62,37.69-22.62,47.69"/></g><path id="kvg:05492-s8" kvg:type="&#12744;b" d="M40.5,48c3.75-0.75,20-2.75,23-3.5s6.25,0.75,5.5,4.5s-0.5,35-0.5,37.75c0,5,1.75,8.25,13.25,8.25c13.75,0,14-2,14-9.75"/></g></g></g></svg>