<svg xmlns="http://www.w3.org/2000/svg" width="109" height="109" viewBox="0 0 109 109"><g xmlns:kvg="http://kanjivg.tagaini.net" id="kvg:StrokePaths_054a4" style="fill:none;stroke:#000000;stroke-width:3;stroke-linecap:round;stroke-linejoin:round;"><g id="kvg:054a4" kvg:element="&#21668;"><g id="kvg:054a4-g1" kvg:element="&#21475;" kvg:position="left" kvg:radical="general"><path id="kvg:054a4-s1" kvg:type="&#12753;" d="M9.25,32.79c0.37,0.51,0.76,0.94,0.92,1.58c1.29,5.07,2.84,19.04,3.73,28.13"/><path id="kvg:054a4-s2" kvg:type="&#12757;b" d="M11.58,35.22C21,33,27.62,32.16,31.99,31.49c1.6-0.24,2.56,1.44,2.33,2.87c-0.95,5.92-3.05,13.57-4.46,21.75"/><path id="kvg:054a4-s3" kvg:type="&#12752;b" d="M14.07,59.05c5.14-0.75,11.33-1.05,18.39-2.21"/></g><g id="kvg:054a4-g2" kvg:element="&#23429;" kvg:position="right"><g id="kvg:054a4-g3" kvg:element="&#23424;" kvg:position="top"><path id="kvg:054a4-s4" kvg:type="&#12753;a" d="M64.49,12c0.88,0.36,2.15,2.12,2.13,3.15c-0.07,3.26-0.07,10.95-0.07,13.92"/><g id="kvg:054a4-g4" kvg:element="&#20886;"><path id="kvg:054a4-s5" kvg:type="&#12756;" d="M44.58,29.34c0,3.98-2.92,14.92-4.24,17.58"/><path id="kvg:054a4-s6" kvg:type="&#12758;b" d="M44.45,31.89c6.45-0.19,40.07-4.52,45.26-4.52c9.45,0,2.1,6.93,0.08,8.7"/></g></g><g id="kvg:054a4-g5" kvg:position="bottom"><g id="kvg:054a4-g6" kvg:element="&#20031;"><path id="kvg:054a4-s7" kvg:type="&#12754;" d="M78.85,33.69c0.09,0.47-0.17,2.56-0.67,3.09c-6.17,6.63-14.79,12.01-30.87,17.35"/></g><g id="kvg:054a4-g7" kvg:element="&#19971;"><g id="kvg:054a4-g8" kvg:element="&#19968;"><path id="kvg:054a4-s8" kvg:type="&#12752;" d="M41.15,68.13c1.09,0.47,3.1,0.59,4.2,0.47c12.68-1.36,35.41-7.83,45.77-9.24c1.81-0.25,2.92-0.25,3.83-0.01"/></g><path id="kvg:054a4-s9" kvg:type="&#12767;" d="M64.11,50.4c0.6,0.95,1.4,2.99,1.4,4.28c0,4.02-0.29,25.21-0.29,29.16c0,10.48,2.2,11.91,17.07,11.91c16.34,0,13.77-4.51,13.77-11.25"/></g></g></g></g></g></svg>