<svg xmlns="http://www.w3.org/2000/svg" width="109" height="109" viewBox="0 0 109 109"><g xmlns:kvg="http://kanjivg.tagaini.net" id="kvg:StrokePaths_054ac" style="fill:none;stroke:#000000;stroke-width:3;stroke-linecap:round;stroke-linejoin:round;"><g id="kvg:054ac" kvg:element="&#21676;"><g id="kvg:054ac-g1" kvg:element="&#21475;" kvg:position="left" kvg:radical="general"><path id="kvg:054ac-s1" kvg:type="&#12753;" d="M10.75,32.79c0.37,0.51,0.76,0.94,0.92,1.58c1.29,5.07,3.34,19.04,4.23,28.13"/><path id="kvg:054ac-s2" kvg:type="&#12757;b" d="M13.58,35.22C23,33,29.62,32.16,33.99,31.49c1.6-0.24,2.56,1.44,2.33,2.87c-0.95,5.92-3.05,14.57-4.46,22.75"/><path id="kvg:054ac-s3" kvg:type="&#12752;b" d="M16.07,59.05c5.14-0.75,11.33-1.05,18.39-2.21"/></g><g id="kvg:054ac-g2" kvg:element="&#20132;" kvg:position="right"><g id="kvg:054ac-g3" kvg:element="&#20128;" kvg:position="top"><path id="kvg:054ac-s4" kvg:type="&#12753;a" d="M66.12,12.5c0.84,0.55,2.23,2.67,2.23,3.76c0,4.32-0.02,9.55-0.11,12.65"/><path id="kvg:054ac-s5" kvg:type="&#12752;" d="M45.5,31.01c1.33,0.09,4.35,0.64,5.64,0.5c11.49-1.26,28.62-3.76,37.58-4.1c2.19-0.08,3.3,0.04,4.93,0.63"/></g><g id="kvg:054ac-g4" kvg:element="&#29238;" kvg:position="bottom"><path id="kvg:054ac-s6" kvg:type="&#12754;" d="M56.95,38.59c0.25,0.69-0.01,2.3-0.62,3.43c-2.39,4.46-6.71,9.29-11.58,13.19"/><path id="kvg:054ac-s7" kvg:type="&#12756;" d="M77.27,36.98c6.94,4.91,12.67,10.58,16.13,16.54"/><path id="kvg:054ac-s8" kvg:type="&#12754;" d="M79.54,49.91c0.53,0.94,0.74,2.65-0.16,4.3C71,69.5,57,83.25,39,92.9"/><path id="kvg:054ac-s9" kvg:type="&#12751;" d="M53.84,55.77c3,0.24,25.87,25.07,38.32,34.47c2.34,1.77,4.07,1.74,6.1,1.9"/></g></g></g></g></svg>