<svg xmlns="http://www.w3.org/2000/svg" width="109" height="109" viewBox="0 0 109 109"><g xmlns:kvg="http://kanjivg.tagaini.net" id="kvg:StrokePaths_054c1" style="fill:none;stroke:#000000;stroke-width:3;stroke-linecap:round;stroke-linejoin:round;"><g id="kvg:054c1" kvg:element="&#21697;"><g id="kvg:054c1-g1" kvg:element="&#21475;" kvg:position="top" kvg:radical="general"><path id="kvg:054c1-s1" kvg:type="&#12753;" d="M31.25,18.63c1.12,0.9,1.84,1.63,2.17,3.11c1.34,6.06,2.95,14.39,4.27,22.02c0.23,1.36,0.46,2.69,0.67,3.99"/><path id="kvg:054c1-s2" kvg:type="&#12757;b" d="M34.31,20.67c11.36-2.13,27.84-3.97,36.21-4.76c3.58-0.34,6.48,0.83,5.44,4.83c-1.51,5.84-2.91,12.77-5.2,20.62"/><path id="kvg:054c1-s3" kvg:type="&#12752;b" d="M39.17,45.17c7.95-0.69,18.78-1.62,29.71-2.66c1.39-0.13,2.78-0.26,4.17-0.4"/></g><g id="kvg:054c1-g2" kvg:position="bottom"><g id="kvg:054c1-g3" kvg:element="&#21475;" kvg:position="left" kvg:radical="general"><path id="kvg:054c1-s4" kvg:type="&#12753;" d="M14.25,63.88c0.92,1.02,1.24,1.7,1.57,3.08c1.25,5.11,2.39,15.01,3.33,23.15c0.18,1.54,0.35,3.02,0.52,4.4"/><path id="kvg:054c1-s5" kvg:type="&#12757;b" d="M16.71,65.42c10.62-1.69,18.5-2.68,24.05-3.17c4.11-0.37,5.36,1.01,4.85,3.73c-1.12,5.95-2.51,13.41-4.21,21.38"/><path id="kvg:054c1-s6" kvg:type="&#12752;b" d="M19.9,90.92c5.67-0.67,11.17-1.43,20.47-2.36c1.43-0.14,2.95-0.29,4.57-0.44"/></g><g id="kvg:054c1-g4" kvg:element="&#21475;" kvg:position="right" kvg:radical="general"><path id="kvg:054c1-s7" kvg:type="&#12753;" d="M58.75,61.88c1,1,1.54,1.84,1.77,3.12c1.11,6.25,2.07,14.89,2.93,22.87c0.15,1.42,0.31,2.81,0.47,4.13"/><path id="kvg:054c1-s8" kvg:type="&#12757;b" d="M61.71,64.67c10.68-1.7,20.56-3.71,26.54-4.63c3.5-0.54,5.37,0.84,4.89,3.57c-1.09,6.13-2.53,15.22-4.23,23.25"/><path id="kvg:054c1-s9" kvg:type="&#12752;b" d="M64.4,89.42c7.96-0.58,12.59-0.85,23.11-1.5c1.51-0.09,3.15-0.2,4.93-0.31"/></g></g></g></g></svg>