<svg xmlns="http://www.w3.org/2000/svg" width="109" height="109" viewBox="0 0 109 109"><g xmlns:kvg="http://kanjivg.tagaini.net" id="kvg:StrokePaths_054e6" style="fill:none;stroke:#000000;stroke-width:3;stroke-linecap:round;stroke-linejoin:round;"><g id="kvg:054e6" kvg:element="&#21734;"><g id="kvg:054e6-g1" kvg:element="&#21475;" kvg:position="left" kvg:radical="general"><path id="kvg:054e6-s1" kvg:type="&#12753;" d="M9.75,33.79c0.37,0.51,0.76,0.94,0.92,1.58C11.96,40.43,14.51,52.9,15.4,62"/><path id="kvg:054e6-s2" kvg:type="&#12757;b" d="M11.58,36.22C21,34,27.12,33.16,31.49,32.49c1.6-0.24,2.56,1.44,2.33,2.87c-0.95,5.92-2.55,12.57-3.96,20.75"/><path id="kvg:054e6-s3" kvg:type="&#12752;b" d="M15.07,58.05c5.14-0.75,10.33-1.05,17.39-2.21"/></g><g id="kvg:054e6-g2" kvg:element="&#25105;" kvg:position="right"><g id="kvg:054e6-g3" kvg:element="&#20031;"><path id="kvg:054e6-s4" kvg:type="&#12754;" d="M61.52,15.14c0.05,0.39,0.21,1.08-0.11,1.57c-2.48,3.96-8.32,9.9-18.86,15.03"/></g><g id="kvg:054e6-g4" kvg:element="&#25096;" kvg:part="1"><g id="kvg:054e6-g5" kvg:element="&#24331;" kvg:part="1"><path id="kvg:054e6-s5" kvg:type="&#12752;" d="M38.5,44.89c1.17,0.38,3.32,0.56,4.47,0.38c4.72-0.74,38.04-6.09,50.67-6.61c1.94-0.08,3.11,0.18,4.08,0.37"/></g></g><g id="kvg:054e6-g6" kvg:element="&#20101;"><path id="kvg:054e6-s6" kvg:type="&#12762;" d="M53.22,28.33c1.03,0.97,1.93,2.64,2.02,5.85c0.43,15.42-0.25,51.03-0.28,56.28c-0.04,9.83-5.7,1.06-7.3-0.26"/></g><path id="kvg:054e6-s7" kvg:type="&#12736;" d="M36.73,70.5c2.02,1.4,4.29,1.19,6.31-0.01c1.19-0.7,15.63-9.35,20.67-12.74"/><g id="kvg:054e6-g7" kvg:element="&#25096;" kvg:part="2"><path id="kvg:054e6-s8" kvg:type="&#12738;" d="M71.25,13.25c1.23,1.84,1.81,2.33,1.99,6.29c1.51,32.96,9.26,61.71,21.75,74.13c4.32,4.3,4.13,0.79,3.52-7.34"/><g id="kvg:054e6-g8" kvg:element="&#20031;"><path id="kvg:054e6-s9" kvg:type="&#12754;" d="M90.12,46.39c0.07,0.85,0.35,2.26-0.14,3.41C86.75,57.5,78.25,72,65.93,83.25"/></g><g id="kvg:054e6-g9" kvg:element="&#24331;" kvg:part="2"><g id="kvg:054e6-g10" kvg:element="&#20022;"><path id="kvg:054e6-s10" kvg:type="&#12756;" d="M83.65,16.25c3.43,2.15,8.91,7.06,10.51,10.75"/></g></g></g></g></g></g></svg>