<svg xmlns="http://www.w3.org/2000/svg" width="109" height="109" viewBox="0 0 109 109"><g xmlns:kvg="http://kanjivg.tagaini.net" id="kvg:StrokePaths_0553e" style="fill:none;stroke:#000000;stroke-width:3;stroke-linecap:round;stroke-linejoin:round;"><g id="kvg:0553e" kvg:element="&#21822;"><g id="kvg:0553e-g1" kvg:element="&#21475;" kvg:position="left" kvg:radical="general"><path id="kvg:0553e-s1" kvg:type="&#12753;" d="M11.5,35.54c0.98,0.98,1.34,2.01,1.46,3.07c0.96,5.86,1.96,13.09,2.83,20.16c0.3,2.45,0.59,4.89,0.85,7.24"/><path id="kvg:0553e-s2" kvg:type="&#12757;b" d="M13.33,37.22c8.53-1.3,13.91-1.91,18.06-2.49c2.33-0.33,4.21,1.05,3.77,3.65c-0.96,5.77-2.47,13.01-3.8,20.73"/><path id="kvg:0553e-s3" kvg:type="&#12752;b" d="M16.82,61.8c3.89-0.57,7.44-0.95,12.07-1.55c1.48-0.19,3.07-0.41,4.82-0.65"/></g><g id="kvg:0553e-g2" kvg:element="&#22402;" kvg:position="right"><g id="kvg:0553e-g3" kvg:element="&#21315;" kvg:part="1"><g id="kvg:0553e-g4" kvg:element="&#20031;"><path id="kvg:0553e-s4" kvg:type="&#12754;" d="M80.21,12.5c0,0.88-0.58,1.82-1.5,2.38C72.38,18.75,64,22.62,48.84,26.54"/></g><g id="kvg:0553e-g5" kvg:element="&#21313;" kvg:part="1"><path id="kvg:0553e-s5" kvg:type="&#12752;" d="M43.06,37.79c2.79,0.73,5.56,0.47,8.45,0.12c9.34-1.14,24.55-2.89,33.12-3.6c2.73-0.38,5.45-0.36,8.17,0.04"/></g></g><path id="kvg:0553e-s6" kvg:type="&#12752;" d="M40,56.8c3.31,0.76,6.56,0.25,10-0.11c11.37-1.19,27.05-2.39,38.38-3.19c3.56-0.25,7.11-0.5,10.7-0.25"/><path id="kvg:0553e-s7" kvg:type="&#12753;" d="M49.92,46.25c0.98,0.98,1.28,2.18,1.36,3.09c0.85,9.28,1.22,11.78,1.91,18.66"/><path id="kvg:0553e-s8" kvg:type="&#12753;" d="M88.01,42.25c0.49,1,0.5,2.27,0.24,3.68c-1.75,9.45-2.12,11.45-3.81,20.57"/><g id="kvg:0553e-g6" kvg:element="&#22303;" kvg:part="1"><path id="kvg:0553e-s9" kvg:type="&#12752;" d="M44.62,75.45c2.91,0.56,5.8,0.34,8.77,0.06c9.24-0.88,22.27-2,31.1-2.48c2.89-0.16,5.71-0.35,8.53,0.18"/></g><g id="kvg:0553e-g7" kvg:element="&#22303;" kvg:part="2"><g id="kvg:0553e-g8" kvg:element="&#21315;" kvg:part="2"><g id="kvg:0553e-g9" kvg:element="&#21313;" kvg:part="2"><path id="kvg:0553e-s10" kvg:type="&#12753;" d="M67,24.25c1.19,1.19,1.22,2.75,1.22,4c0,1.02-0.06,53.5-0.06,63.5"/></g></g><path id="kvg:0553e-s11" kvg:type="&#12752;" d="M40.52,93.71c3.44,0.53,6.88,0.41,10.35,0.09c11.38-1.05,27.63-2.05,37.75-2.23c3.67-0.06,7.28,0.15,10.88,0.87"/></g></g></g></g></svg>