<svg xmlns="http://www.w3.org/2000/svg" width="109" height="109" viewBox="0 0 109 109"><g xmlns:kvg="http://kanjivg.tagaini.net" id="kvg:StrokePaths_05557" style="fill:none;stroke:#000000;stroke-width:3;stroke-linecap:round;stroke-linejoin:round;"><g id="kvg:05557" kvg:element="&#21847;"><g id="kvg:05557-g1" kvg:element="&#21475;" kvg:position="left" kvg:radical="general"><path id="kvg:05557-s1" kvg:type="&#12753;" d="M11.5,34.04c0.37,0.44,0.75,0.81,0.91,1.36c1.28,4.38,3.31,18.47,4.19,26.34"/><path id="kvg:05557-s2" kvg:type="&#12757;b" d="M13.8,36.15c9.33-1.92,14.89-3.08,19.22-3.66c1.58-0.21,2.53,1.25,2.31,2.48c-0.94,5.12-2.03,13.03-3.43,20.11"/><path id="kvg:05557-s3" kvg:type="&#12752;b" d="M16.27,58.13c5.08-0.65,11.22-1.41,18.2-2.41"/></g><g id="kvg:05557-g2" kvg:position="right"><g id="kvg:05557-g3" kvg:element="&#131210;" kvg:variant="true" kvg:original="&#21241;" kvg:position="top"><path id="kvg:05557-s4" kvg:type="&#12754;" d="M62.34,11c0.06,0.87,0.12,2.25-0.11,3.51c-1.38,7.39-9.3,23.62-20.15,33.55"/><path id="kvg:05557-s5" kvg:type="&#12743;" d="M62.41,21.59c0.65,0.28,1.55,0.33,2.59,0.19c4-0.53,15.58-2.77,18.17-2.86c2.59-0.09,3.11,0.93,2.72,2.88c-0.39,1.95-4.37,17.42-10.07,22.72c-1.71,1.59-3.72,0.43-5.66-1.34"/></g><g id="kvg:05557-g4" kvg:element="&#33276;" kvg:position="bottom"><path id="kvg:05557-s6" kvg:type="&#12754;" d="M63.47,48.71c0.05,0.27,0.21,0.8-0.1,1.1c-4.12,3.92-8.92,7.41-18.31,10.52"/><path id="kvg:05557-s7" kvg:type="&#12753;" d="M43.03,59.3c0.79,0.74,1.12,2.4,1.31,3.92c0.72,5.56,2.98,27.27,3.7,34.78"/><path id="kvg:05557-s8" kvg:type="&#12757;" d="M73.27,56.62c0.93,0.17,1.68,0.51,2.99,0.51c1.31,0,15.13-2.03,16.62-2.2c1.49-0.17,2.73,0.84,2.62,1.86c-1.12,9.8-2.62,28.72-3.74,36.82c-0.16,1.17,0,1.86-0.19,2.53"/><path id="kvg:05557-s9" kvg:type="&#12752;" d="M46.18,76.87c3.92-0.34,15.26-2.69,16.19-2.69c0.94,0,2.24,0,2.99,0"/><path id="kvg:05557-s10" kvg:type="&#12752;" d="M73.65,73.01c0.93,0.17,1.68,0.51,2.99,0.51s15.76-1.35,17.25-1.52"/><path id="kvg:05557-s11" kvg:type="&#12752;" d="M48.24,95.13c2.43,0,39.79-2.2,42.59-2.37"/></g></g></g></g></svg>