<svg xmlns="http://www.w3.org/2000/svg" width="109" height="109" viewBox="0 0 109 109"><g xmlns:kvg="http://kanjivg.tagaini.net" id="kvg:StrokePaths_0555d" style="fill:none;stroke:#000000;stroke-width:3;stroke-linecap:round;stroke-linejoin:round;"><g id="kvg:0555d" kvg:element="&#21853;"><g id="kvg:0555d-g1" kvg:element="&#21475;" kvg:position="left" kvg:radical="general"><path id="kvg:0555d-s1" kvg:type="&#12753;" d="M8.75,34.62c0.35,0.46,0.7,0.85,0.85,1.43c1.2,4.58,2.64,17.23,3.46,25.46"/><path id="kvg:0555d-s2" kvg:type="&#12757;b" d="M10.91,36.56c8.42-1.88,13.44-3.01,17.34-3.57c1.43-0.21,2.28,1.22,2.08,2.42c-0.85,5-1.83,12.73-3.09,19.64"/><path id="kvg:0555d-s3" kvg:type="&#12752;b" d="M13.14,57.54c4.59-0.64,10.12-0.89,16.42-1.86"/></g><g id="kvg:0555d-g2" kvg:element="&#21644;" kvg:position="right"><g id="kvg:0555d-g3" kvg:element="&#31166;" kvg:position="left"><g id="kvg:0555d-g4" kvg:element="&#20031;" kvg:position="top"><path id="kvg:0555d-s4" kvg:type="&#12754;" d="M63.45,12.5c0.07,0.35,0.15,0.91-0.14,1.42c-1.67,2.99-11.24,9.56-24.34,13.58"/></g><g id="kvg:0555d-g5" kvg:element="&#26408;" kvg:position="bottom"><path id="kvg:0555d-s5" kvg:type="&#12752;" d="M34.78,44.12c0.42,0.19,2.11,0.64,3.24,0.57c7.99-0.44,18.64-2.79,27.23-3.32c1.12-0.07,2.53-0.27,3.24-0.08"/><path id="kvg:0555d-s6" kvg:type="&#12753;" d="M53.71,25.5c0.61,0.46,0.97,2.05,1.09,2.97c0.12,0.91,0,64.58-0.12,70.28"/><path id="kvg:0555d-s7" kvg:type="&#12754;" d="M54.55,43.68c-5.05,14.07-14.3,29.82-25.8,38.57"/><path id="kvg:0555d-s8" kvg:type="&#12751;" d="M55.12,50.46c5.88,9.29,24.38,29.04,35,34.6c2.26,1.18,5,2.46,6.88,2.95"/></g></g><g id="kvg:0555d-g6" kvg:element="&#21475;" kvg:position="right"><path id="kvg:0555d-s9" kvg:type="&#12753;" d="M73.25,32.24c0.37,0.64,0.76,1.17,0.92,1.96c1.29,6.31,2.84,23.72,3.73,35.05"/><path id="kvg:0555d-s10" kvg:type="&#12757;b" d="M74.58,33.77c9.17-2.02,16.05-2.94,20.42-3.77c1.6-0.3,3.56,1.8,3.33,3.58c-0.95,7.37-2.05,21.27-3.46,31.46"/><path id="kvg:0555d-s11" kvg:type="&#12752;b" d="M78.07,67.2c5.14-0.94,10.93-1.7,19.39-2.25"/></g></g></g></g></svg>