<svg xmlns="http://www.w3.org/2000/svg" width="109" height="109" viewBox="0 0 109 109"><g xmlns:kvg="http://kanjivg.tagaini.net" id="kvg:StrokePaths_05563" style="fill:none;stroke:#000000;stroke-width:3;stroke-linecap:round;stroke-linejoin:round;"><g id="kvg:05563" kvg:element="&#21859;"><g id="kvg:05563-g1" kvg:element="&#21475;" kvg:position="left" kvg:radical="general"><path id="kvg:05563-s1" kvg:type="&#12753;" d="M8.25,34.07c0.35,0.45,0.7,0.83,0.85,1.39c1.2,4.46,3.14,18.27,3.96,26.29"/><path id="kvg:05563-s2" kvg:type="&#12757;b" d="M9.91,36.72c8.74-1.96,14.95-3.64,19.01-4.23c1.48-0.21,2.37,1.27,2.16,2.53c-0.88,5.21-2.4,12.77-3.71,19.98"/><path id="kvg:05563-s3" kvg:type="&#12752;b" d="M12.72,58.09c4.76-0.66,10.51-1.43,17.05-2.45"/></g><g id="kvg:05563-g2" kvg:element="&#21368;" kvg:position="right"><g id="kvg:05563-g3" kvg:position="left"><g id="kvg:05563-g4" kvg:element="&#21320;"><g id="kvg:05563-g5" kvg:position="top"><path id="kvg:05563-s4" kvg:type="&#12754;" d="M47.04,13c0.03,0.55,0.11,1.59-0.06,2.22c-2.1,7.79-5.21,14.93-10.69,21.21"/><g id="kvg:05563-g6" kvg:element="&#24178;" kvg:part="1"><path id="kvg:05563-s5" kvg:type="&#12752;" d="M45.28,26.63c0.35,0.17,0.98,0.21,1.33,0.17c3.51-0.35,12.56-3.83,15.63-3.99c0.58-0.03,1.29,0.08,1.58,0.17"/></g></g><g id="kvg:05563-g7" kvg:element="&#27491;" kvg:part="1" kvg:position="bottom"><g id="kvg:05563-g8" kvg:element="&#24178;" kvg:part="2"><g id="kvg:05563-g9" kvg:element="&#21313;"><path id="kvg:05563-s6" kvg:type="&#12752;" d="M34.24,43.24c0.96,0.18,2.72,0.21,3.68,0.18c6.33-0.17,19.48-3.21,26.5-3.44c1.59-0.05,2.56,0.09,3.36,0.18"/><g id="kvg:05563-g10" kvg:element="&#27490;" kvg:part="1"><g id="kvg:05563-g11" kvg:element="&#21340;" kvg:part="1" kvg:original="&#12488;"><path id="kvg:05563-s7" kvg:type="&#12753;" d="M51.23,26.86c0.8,0.45,1.28,2.04,1.44,2.95c0.16,0.91,0,34.67-0.16,40.34"/></g></g></g></g></g></g><g id="kvg:05563-g12" kvg:element="&#27491;" kvg:part="2"><g id="kvg:05563-g13" kvg:element="&#27490;" kvg:part="2"><g id="kvg:05563-g14" kvg:element="&#21340;" kvg:part="2" kvg:original="&#12488;"><path id="kvg:05563-s8" kvg:type="&#12752;" d="M53.08,54.43c4.17-0.68,8.5-1.09,11.06-1.77c1.25-0.33,1.6-0.23,2.39,0"/></g></g><path id="kvg:05563-s9" kvg:type="&#12753;" d="M38.23,54.06c0.8,0.45,1.28,2.04,1.44,2.95c0.16,0.91,0,14.9-0.16,20.57"/><path id="kvg:05563-s10" kvg:type="&#12752;" d="M32.63,78.92c0.87,0.58,2.48,0.84,3.43,0.3c6.69-3.77,25.21-12.76,30.84-16.08"/></g></g><g id="kvg:05563-g15" kvg:element="&#21353;" kvg:position="right"><path id="kvg:05563-s11" kvg:type="&#12742;" d="M73.08,27.18c0.64,0.2,1.93,1.43,3.21,1.22c1.28-0.2,17.18-3,18.79-3.2c1.6-0.2,4.01-0.41,4.17,3.88c0.08,2.05-1.5,25.17-5.03,34.48c-3.24,8.53-6.1,1.02-6.58,0.61"/><path id="kvg:05563-s12" kvg:type="&#12753;" d="M75.44,28.69c0.16,0.91,0,61.65-0.16,67.31"/></g></g></g></g></svg>