<svg xmlns="http://www.w3.org/2000/svg" width="109" height="109" viewBox="0 0 109 109"><g xmlns:kvg="http://kanjivg.tagaini.net" id="kvg:StrokePaths_0557b" style="fill:none;stroke:#000000;stroke-width:3;stroke-linecap:round;stroke-linejoin:round;"><g id="kvg:0557b" kvg:element="&#21883;"><g id="kvg:0557b-g1" kvg:element="&#24093;" kvg:position="top"><g id="kvg:0557b-g2" kvg:position="top"><g id="kvg:0557b-g3" kvg:element="&#20128;"><path id="kvg:0557b-s1" kvg:type="&#12753;a" d="M51.83,10.84c0.7,0.7,1.75,2.28,1.75,4.08c0,2.86,0-1.7,0,6.05"/><path id="kvg:0557b-s2" kvg:type="&#12752;" d="M22.5,23.13c1.48,0.29,3.22,0.33,4.69,0.29c8.36-0.25,37.48-3.97,50.12-4.18c2.47-0.04,3.95,0.14,5.19,0.28"/></g><path id="kvg:0557b-s3" kvg:type="&#12756;" d="M35.75,26.58c2.79,2.47,4.56,5.45,4.82,7.08"/><path id="kvg:0557b-s4" kvg:type="&#12754;" d="M68.87,22.82c0.55,0.34,0.24,1.18,0.1,1.45c-1.79,3.24-4.09,7.41-5.2,8.89"/><g id="kvg:0557b-g4" kvg:element="&#20886;"><path id="kvg:0557b-s5" kvg:type="&#12756;" d="M17.84,35.69c-0.11,3.7-2.62,13.36-3.52,15.56"/><path id="kvg:0557b-s6" kvg:type="&#12758;b" d="M17.72,39c8.53-0.75,48.75-5.65,68.68-6.75c13.6-0.75,4.35,6.25,1.22,8"/></g></g><g id="kvg:0557b-g5" kvg:element="&#24062;" kvg:position="bottom"><path id="kvg:0557b-s7" kvg:type="&#12753;" d="M29.23,46.63c0.39,0.3,1.22,2.21,1.3,2.8C31.25,54.5,32.5,62.5,33.4,66.8"/><path id="kvg:0557b-s8" kvg:type="&#12742;a" d="M30.46,48.82C37,48,72.83,44.28,75.74,44.19c3.4-0.11,3.14,2.36,3.02,3.32c-0.62,4.85-0.84,8-2.83,12.75c-1.43,3.42-3.67,1.99-6.25-1.21"/><path id="kvg:0557b-s9" kvg:type="&#12753;" d="M52.24,36.17c0.53,0.31,1.65,2.34,1.76,2.97c0.11,0.63-0.07,24.96-0.17,28.87"/></g></g><g id="kvg:0557b-g6" kvg:element="&#21475;" kvg:position="bottom" kvg:radical="tradit"><path id="kvg:0557b-s10" kvg:type="&#12753;" d="M31.5,74.43c0.39,0.42,0.79,0.77,0.96,1.29c1.35,4.14,2.98,15.56,3.9,22.99"/><path id="kvg:0557b-s11" kvg:type="&#12757;b" d="M32.93,76.43c12.32-1.43,34.29-3.22,40.24-3.84c2.18-0.22,3.48,2.27,3.17,3.59c-1.29,5.48-2.26,9.2-5.02,17.1"/><path id="kvg:0557b-s12" kvg:type="&#12752;b" d="M36.83,95.66c7.38-0.43,28.3-1.82,37.66-2.26"/></g></g></g></svg>