<svg xmlns="http://www.w3.org/2000/svg" width="109" height="109" viewBox="0 0 109 109"><g xmlns:kvg="http://kanjivg.tagaini.net" id="kvg:StrokePaths_0558b" style="fill:none;stroke:#000000;stroke-width:3;stroke-linecap:round;stroke-linejoin:round;"><g id="kvg:0558b" kvg:element="&#21899;"><g id="kvg:0558b-g1" kvg:element="&#21475;" kvg:position="left" kvg:radical="general"><path id="kvg:0558b-s1" kvg:type="&#12753;" d="M9.25,33.79c0.37,0.51,0.76,0.94,0.92,1.58c1.29,5.07,2.84,18.04,3.73,27.13"/><path id="kvg:0558b-s2" kvg:type="&#12757;b" d="M11.58,36.22C21,34,26.12,33.66,30.49,32.99c1.6-0.24,2.56,1.44,2.33,2.87c-0.95,5.92-3.05,13.07-4.46,21.25"/><path id="kvg:0558b-s3" kvg:type="&#12752;b" d="M14.07,60.05c5.14-0.75,9.83-1.05,16.89-2.21"/></g><g id="kvg:0558b-g2" kvg:position="right"><g id="kvg:0558b-g3" kvg:element="&#19990;" kvg:position="top"><g id="kvg:0558b-g4" kvg:element="&#24319;"><g id="kvg:0558b-g5" kvg:element="&#21313;"><g id="kvg:0558b-g6" kvg:element="&#19968;"><path id="kvg:0558b-s4" kvg:type="&#12752;" d="M37.75,29.36c1.02,0.36,2.9,0.4,3.92,0.36c7.86-0.32,39.05-4.18,51.25-4.83c1.7-0.09,2.72,0.17,3.58,0.35"/></g><path id="kvg:0558b-s5" kvg:type="&#12753;" d="M63.39,13c0.67,0.31,1.08,1.41,1.21,2.03s1.43,22.7,1.29,26.61"/></g><path id="kvg:0558b-s6" kvg:type="&#12753;" d="M80.05,11.75c0.67,0.31,1.08,1.41,1.21,2.03c0.13,0.63-2.79,17.85-3.18,24.42"/><path id="kvg:0558b-s7" kvg:type="&#12752;" d="M66.29,39.64c2.48,0,11.84-1.25,13.24-1.25"/></g><path id="kvg:0558b-s8" kvg:type="&#12759;" d="M47.5,15.82c0.74,0.33,1.18,1.5,1.33,2.17c0.15,0.67,0.55,21.2,0.02,28.87c-0.17,2.51-0.26,4.4,2.55,4.18C63.35,50.1,75.25,48.33,87.02,48c2.22-0.06,4.08,0.13,4.93,0.3"/></g><g id="kvg:0558b-g7" kvg:element="&#26408;" kvg:position="bottom"><path id="kvg:0558b-s9" kvg:type="&#12752;" d="M38.99,67.15c1.36,0.45,2.91,0.59,4.47,0.45c7.96-0.73,34.58-2.78,46.62-3.64c1.55-0.11,2.53,0.08,4.08,0.39"/><path id="kvg:0558b-s10" kvg:type="&#12753;" d="M64.82,54c0.72,0.29,1.79,2.29,1.79,2.88c0,6.09,0,37.99-0.14,41.62"/><path id="kvg:0558b-s11" kvg:type="&#12754;" d="M65.1,66.73C60.34,74.49,50,86.25,37.69,90.75"/><path id="kvg:0558b-s12" kvg:type="&#12751;" d="M66.68,66.09c3.92,4.41,20.58,19.16,26.3,22c1.59,0.79,2.65,1.5,4.08,1.8"/></g></g></g></g></svg>