<svg xmlns="http://www.w3.org/2000/svg" width="109" height="109" viewBox="0 0 109 109"><g xmlns:kvg="http://kanjivg.tagaini.net" id="kvg:StrokePaths_05587" style="fill:none;stroke:#000000;stroke-width:3;stroke-linecap:round;stroke-linejoin:round;"><g id="kvg:05587" kvg:element="&#21895;"><g id="kvg:05587-g1" kvg:element="&#21475;" kvg:position="left" kvg:radical="general"><path id="kvg:05587-s1" kvg:type="&#12753;" d="M8.75,34.56C9.07,35,9.4,35.38,9.54,35.94c1.11,4.42,3.35,18.12,4.11,26.06"/><path id="kvg:05587-s2" kvg:type="&#12757;b" d="M10.75,36.68c8.09-1.94,13.83-3.11,17.58-3.69c1.37-0.21,2.2,1.26,2,2.51c-0.81,5.17-2.22,12.65-3.43,19.8"/><path id="kvg:05587-s3" kvg:type="&#12752;b" d="M13.35,57.86c4.41-0.66,9.73-1.42,15.79-2.43"/></g><g id="kvg:05587-g2" kvg:element="&#21068;" kvg:position="right"><g id="kvg:05587-g3" kvg:element="&#26463;" kvg:position="left"><g id="kvg:05587-g4" kvg:element="&#26408;" kvg:part="1"><path id="kvg:05587-s4" kvg:type="&#12752;" d="M36.96,27.75c0.61,0.45,2.73,0.73,3.34,0.65c5.12-0.61,20.26-3.29,25.74-3.71c1.02-0.08,2.63,0.21,3.14,0.43"/></g><g id="kvg:05587-g5" kvg:element="&#21475;"><path id="kvg:05587-s5" kvg:type="&#12753;" d="M38.59,38.1c0.23,0.36,0.46,0.66,0.56,1.11c0.79,3.57,2.19,12.73,2.73,19.14"/><path id="kvg:05587-s6" kvg:type="&#12757;b" d="M40.01,40.05c6.86-1.54,23.14-3.5,25.83-3.86c1.67-0.22,2.73,2.31,2.29,4.38c-1.18,5.54-1.47,7.98-2.41,12.21"/><path id="kvg:05587-s7" kvg:type="&#12752;b" d="M41.99,56.25c8.24-0.89,18.97-2.28,25.15-2.95"/></g><g id="kvg:05587-g6" kvg:element="&#26408;" kvg:part="2"><path id="kvg:05587-s8" kvg:type="&#12753;" d="M52.16,12.75c0.97,0.47,1.56,2.13,1.75,3.08c0.19,0.95,0,74.74-0.19,80.67"/><path id="kvg:05587-s9" kvg:type="&#12754;" d="M53.17,55.87c-4.6,10.2-16.57,24.64-26.15,30.42"/><path id="kvg:05587-s10" kvg:type="&#12751;" d="M56.01,61.17c5.67,2.99,10.23,8.87,13.08,14.84"/></g></g><g id="kvg:05587-g7" kvg:element="&#20994;" kvg:variant="true" kvg:original="&#20992;" kvg:position="right"><path id="kvg:05587-s11" kvg:type="&#12753;" d="M77.95,23.97c0.77,0.79,1.31,1.71,1.38,4.31c0.32,12.51-0.02,37.11-0.02,41.37"/><path id="kvg:05587-s12" kvg:type="&#12762;" d="M92.75,14.07c0.99,0.88,1.68,1.9,1.76,4.8c0.41,13.93-0.26,65.72-0.26,70.46c0,12.58-7.25,1.44-8.76,0.24"/></g></g></g></g></svg>