<svg xmlns="http://www.w3.org/2000/svg" width="109" height="109" viewBox="0 0 109 109"><g xmlns:kvg="http://kanjivg.tagaini.net" id="kvg:StrokePaths_055a7" style="fill:none;stroke:#000000;stroke-width:3;stroke-linecap:round;stroke-linejoin:round;"><g id="kvg:055a7" kvg:element="&#21927;"><g id="kvg:055a7-g1" kvg:element="&#21475;" kvg:position="left" kvg:radical="general"><path id="kvg:055a7-s1" kvg:type="&#12753;" d="M11.75,29.79c0.66,1.15,1.01,2.38,1.04,3.71c0.49,4.09,1.45,12.61,2.15,19.76c0.3,3.07,0.56,5.89,0.71,7.99"/><path id="kvg:055a7-s2" kvg:type="&#12757;b" d="M13.83,31.72c6.19-1.1,12.37-1.88,15.3-2.24c3.67-0.46,4.47,0.84,4.06,3.53c-0.89,5.99-1.94,13.62-3.32,22.6"/><path id="kvg:055a7-s3" kvg:type="&#12752;b" d="M16.57,58.05c4.05-0.59,6.58-0.91,11.42-1.33c1.3-0.11,2.69-0.24,4.21-0.37"/></g><g id="kvg:055a7-g2" kvg:element="&#23459;" kvg:position="right"><g id="kvg:055a7-g3" kvg:element="&#23424;" kvg:position="top"><path id="kvg:055a7-s4" kvg:type="&#12753;a" d="M65.67,13.03c1.2,1.2,1.45,2.62,1.45,4.72c0,2.03,0.06,5.12,0.06,8.95"/><g id="kvg:055a7-g4" kvg:element="&#20886;"><path id="kvg:055a7-s5" kvg:type="&#12756;" d="M44.02,28.87c0,3.26-2.58,11.99-3.63,14.16"/><path id="kvg:055a7-s6" kvg:type="&#12758;b" d="M44.76,30.59C58.87,28.87,71.87,27.62,90.07,26.4C99.21,25.79,91.37,32.52,89.26,34.33"/></g></g><g id="kvg:055a7-g5" kvg:element="&#20120;" kvg:position="bottom"><g id="kvg:055a7-g6" kvg:element="&#20108;" kvg:position="top"><g id="kvg:055a7-g7" kvg:element="&#19968;"><path id="kvg:055a7-s7" kvg:type="&#12752;" d="M49.53,43.32c1.94,0.43,3.86,0.27,5.85,0.07c6.49-0.65,15.7-2.02,21.24-2.52c2.09-0.36,4.15-0.32,6.21,0.11"/></g></g><g id="kvg:055a7-g8" kvg:element="&#26086;" kvg:position="bottom"><g id="kvg:055a7-g9" kvg:element="&#26085;" kvg:position="top"><path id="kvg:055a7-s8" kvg:type="&#12753;" d="M51.47,53.59c0.91,0.91,1.21,2.31,1.21,3.22c0.65,7.39,1.7,15.32,2.41,23.34"/><path id="kvg:055a7-s9" kvg:type="&#12757;a" d="M53.34,55.02c6.54-1.02,20.18-2.6,26.05-2.93c2.74-0.16,4.17,1.81,3.96,4.3c-0.55,6.64-1.43,15.9-2.34,21.85"/><path id="kvg:055a7-s10" kvg:type="&#12752;a" d="M54.63,65.62c5.58-0.68,21.25-2.24,27.15-2.56"/><path id="kvg:055a7-s11" kvg:type="&#12752;a" d="M55.97,77.29c7.28-0.54,15.53-1.54,24.34-1.62"/></g><g id="kvg:055a7-g10" kvg:element="&#20108;" kvg:position="bottom"><g id="kvg:055a7-g11" kvg:element="&#19968;"><path id="kvg:055a7-s12" kvg:type="&#12752;" d="M40.53,89.09c3.36,0.38,6.72,0.37,10.1,0.09c11.12-0.93,26.65-1.78,37.25-2.12c3.11-0.12,6.19,0.11,9.24,0.68"/></g></g></g></g></g></g></g></svg>