<svg xmlns="http://www.w3.org/2000/svg" width="109" height="109" viewBox="0 0 109 109"><g xmlns:kvg="http://kanjivg.tagaini.net" id="kvg:StrokePaths_055c4" style="fill:none;stroke:#000000;stroke-width:3;stroke-linecap:round;stroke-linejoin:round;"><g id="kvg:055c4" kvg:element="&#21956;"><g id="kvg:055c4-g1" kvg:element="&#21475;" kvg:position="left" kvg:radical="general"><path id="kvg:055c4-s1" kvg:type="&#12753;" d="M12.75,34.06c0.35,0.45,0.72,0.82,0.87,1.38c1.23,4.42,3.7,18.12,4.54,26.06"/><path id="kvg:055c4-s2" kvg:type="&#12757;b" d="M14.96,36.18c8.94-1.94,15.27-3.11,19.41-3.69c1.52-0.21,2.43,1.26,2.21,2.51c-0.9,5.17-2.45,12.65-3.78,19.8"/><path id="kvg:055c4-s3" kvg:type="&#12752;b" d="M17.82,57.86c4.87-0.66,10.75-1.42,17.43-2.43"/></g><g id="kvg:055c4-g2" kvg:element="&#22799;" kvg:position="right"><g id="kvg:055c4-g3" kvg:position="top"><path id="kvg:055c4-s4" kvg:type="&#12752;" d="M40.93,16.13c1.09,0.23,3.07,0.24,4.16,0.23c9.45-0.08,22.69-2.64,43.46-2.7c1.81-0.01,2.89,0.11,3.8,0.23"/><g id="kvg:055c4-g4" kvg:element="&#33258;"><path id="kvg:055c4-s5" kvg:type="&#12754;" d="M64.56,15.19c0.24,0.11,0.54,1.75,0.44,2.11c-0.79,2.93-2.26,5.52-4.64,8.24"/><g id="kvg:055c4-g5" kvg:element="&#30446;"><path id="kvg:055c4-s6" kvg:type="&#12753;" d="M48.11,26.85c0.55,0.63,1.35,2.09,1.35,2.94c0,0.84,1.82,24.45,2,25.29"/><path id="kvg:055c4-s7" kvg:type="&#12757;a" d="M48.87,28.09c3.1-0.11,28.78-3.24,31.61-3.37c2.36-0.11,4.01,0.82,4.01,3.34c0,1.03-1,15.19-1.49,26.38"/><path id="kvg:055c4-s8" kvg:type="&#12752;a" d="M50.82,36.27c6.12-0.14,28.44-2.63,33.41-2.63"/><path id="kvg:055c4-s9" kvg:type="&#12752;a" d="M51.07,44.79c8.22-0.35,24.31-2.55,32.29-2.55"/><path id="kvg:055c4-s10" kvg:type="&#12752;a" d="M51.87,53.96c6.88-0.71,22.85-2.73,30.82-2.73"/></g></g></g><g id="kvg:055c4-g6" kvg:element="&#22786;" kvg:position="bottom"><path id="kvg:055c4-s11" kvg:type="&#12754;" d="M57.72,56.08c0.06,0.59,0.13,1.53-0.12,2.38c-1.51,5-10.18,15.98-22.05,22.7"/><path id="kvg:055c4-s12" kvg:type="&#12743;" d="M57.68,64.87c0.38,0.03,2.17,0,3.26-0.08c3.6-0.26,11.05-1.74,16.2-2.55c3.53-0.56,3.61,1.62,2.7,3.14C74.9,73.66,55.2,91.84,33.46,97.75"/><path id="kvg:055c4-s13" kvg:type="&#12751;" d="M52.43,69.36c5.55,4.7,29.17,21.54,36.65,25.83c2.23,1.28,4.04,1.9,6.21,2.29"/></g></g></g></g></svg>