<svg xmlns="http://www.w3.org/2000/svg" width="109" height="109" viewBox="0 0 109 109"><g xmlns:kvg="http://kanjivg.tagaini.net" id="kvg:StrokePaths_055c7" style="fill:none;stroke:#000000;stroke-width:3;stroke-linecap:round;stroke-linejoin:round;"><g id="kvg:055c7" kvg:element="&#21959;"><g id="kvg:055c7-g1" kvg:element="&#24043;" kvg:variant="true" kvg:position="top"><g id="kvg:055c7-g2" kvg:element="&#24037;" kvg:part="1" kvg:variant="true"><g id="kvg:055c7-g3" kvg:element="&#22303;" kvg:part="1"><g id="kvg:055c7-g4" kvg:element="&#19968;" kvg:radical="nelson"><path id="kvg:055c7-s1" kvg:type="&#12752;" d="M20.25,26.59c1.19,0.47,5.09,0.62,6.3,0.48c5.62-0.64,47.22-4.31,56.66-4.8c1.84-0.1,3.52,0.09,5.04,0.49"/></g><path id="kvg:055c7-s2" kvg:type="&#12753;" d="M52.62,12c2.27,2.01,2.27,3.22,2.27,4.83c0,11.28-0.07,15.08-0.07,34.42"/></g></g><g id="kvg:055c7-g5" kvg:element="&#20174;"><g id="kvg:055c7-g6" kvg:element="&#20154;" kvg:position="left"><path id="kvg:055c7-s3" kvg:type="&#12754;" d="M37.06,30.99c0.15,0.48,0.11,1.51-0.09,2.04c-1.95,5.17-5.01,11.91-11,16.84"/><path id="kvg:055c7-s4" kvg:type="&#12751;" d="M35.01,37.91c4.16,1.52,9.47,5.57,11.49,9.4"/></g><g id="kvg:055c7-g7" kvg:element="&#20154;" kvg:position="right"><path id="kvg:055c7-s5" kvg:type="&#12754;" d="M74.78,27.24c0.17,0.47,0.13,1.49-0.11,2.02c-2.29,5.1-5.9,11.75-12.95,16.62"/><path id="kvg:055c7-s6" kvg:type="&#12751;" d="M73.7,36.63c3.18,1.28,7.25,4.69,8.8,7.92"/></g></g><g id="kvg:055c7-g8" kvg:element="&#24037;" kvg:part="2" kvg:variant="true"><g id="kvg:055c7-g9" kvg:element="&#22303;"><path id="kvg:055c7-s7" kvg:type="&#12752;" d="M12.5,54.21c0.96,0.22,4.39,0.45,6.01,0.35c17.5-1.09,53.25-4.21,69.19-4.54c2.61-0.05,5.75,0.37,7.05,0.72"/></g></g></g><g id="kvg:055c7-g10" kvg:element="&#22238;" kvg:position="bottom"><g id="kvg:055c7-g11" kvg:element="&#22231;" kvg:part="1"><path id="kvg:055c7-s8" kvg:type="&#12753;" d="M25.71,63.72c0.81,0.78,0.94,1.61,1.1,2.6c1.13,6.68,2.15,16.35,3.81,29.43"/><path id="kvg:055c7-s9" kvg:type="&#12757;a" d="M27.32,64.98c15.67-1.38,46.32-3.48,56.14-3.48c2.24,0,3.1,1.31,2.85,2.88c-1.22,7.45-2.85,19.48-5.29,29.54"/></g><g id="kvg:055c7-g12" kvg:element="&#21475;" kvg:radical="tradit"><path id="kvg:055c7-s10" kvg:type="&#12753;" d="M42.74,72.29c0.35,0.24,0.71,0.44,0.86,0.74c1.22,2.37,1.8,8.78,2.84,13.03"/><path id="kvg:055c7-s11" kvg:type="&#12757;b" d="M44.92,73.29c7.18-1.23,16.58-2.1,20.69-2.41c1.5-0.11,2.4,0.67,2.19,1.34c-0.89,2.76-1.43,6.6-2.75,10.42"/><path id="kvg:055c7-s12" kvg:type="&#12752;b" d="M46.64,84.39c5.2-0.61,13.27-0.87,19.9-1.41"/></g><g id="kvg:055c7-g13" kvg:element="&#22231;" kvg:part="2"><path id="kvg:055c7-s13" kvg:type="&#12752;a" d="M30.83,95.19c11.86-0.31,36.13-1.9,50.76-2.74"/></g></g></g></g></svg>