<svg xmlns="http://www.w3.org/2000/svg" width="109" height="109" viewBox="0 0 109 109"><g xmlns:kvg="http://kanjivg.tagaini.net" id="kvg:StrokePaths_055f7" style="fill:none;stroke:#000000;stroke-width:3;stroke-linecap:round;stroke-linejoin:round;"><g id="kvg:055f7" kvg:element="&#22007;"><g id="kvg:055f7-g1" kvg:element="&#21475;" kvg:position="left" kvg:radical="general"><path id="kvg:055f7-s1" kvg:type="&#12753;" d="M8.75,34.56c0.32,0.45,0.64,0.82,0.78,1.38c1.1,4.42,2.81,18.12,3.56,26.06"/><path id="kvg:055f7-s2" kvg:type="&#12757;b" d="M9.72,36.68c8-1.94,15.17-3.11,18.88-3.69c1.36-0.21,2.17,1.26,1.98,2.51c-0.8,5.17-2.19,13.15-3.39,20.3"/><path id="kvg:055f7-s3" kvg:type="&#12752;b" d="M13.29,57.86c4.36-0.66,9.62-0.92,15.61-1.93"/></g><g id="kvg:055f7-g2" kvg:element="&#25942;" kvg:position="right"><g id="kvg:055f7-g3" kvg:position="left"><g id="kvg:055f7-g4" kvg:element="&#22303;" kvg:position="top"><path id="kvg:055f7-s4" kvg:type="&#12752;" d="M37.55,27.75c0.72,0.38,2.05,0.44,2.77,0.38c5.55-0.43,14.76-2.06,21.49-3.17c1.2-0.2,1.93,0.18,2.53,0.37"/><path id="kvg:055f7-s5" kvg:type="&#12753;a" d="M49.78,13c0.1,0.29,1.5,1.53,1.5,3.42c0,12.09-0.3,9.47-0.3,25.45"/><path id="kvg:055f7-s6" kvg:type="&#12752;" d="M34.53,43.74c1.07,0.7,3.02,0.78,4.09,0.7c3.37-0.23,18.54-3.31,23.26-3.6c1.78-0.11,2.85,0.33,3.74,0.69"/></g><g id="kvg:055f7-g5" kvg:element="&#25918;" kvg:part="1" kvg:position="bottom"><g id="kvg:055f7-g6" kvg:element="&#26041;" kvg:position="left"><g id="kvg:055f7-g7" kvg:element="&#20128;" kvg:position="top"><path id="kvg:055f7-s7" kvg:type="&#12753;a" d="M49.82,47.39c0.54,0.4,1.42,1.96,1.42,2.77c0,2.96-0.17,4.12-0.07,6.62"/><path id="kvg:055f7-s8" kvg:type="&#12752;" d="M34.71,59.01c0.72,0.26,2.23,0.46,2.9,0.37c6.4-0.88,18.87-2.98,25.12-3.83c1.12-0.15,1.69,0.03,2.53,0.46"/></g><g id="kvg:055f7-g8" kvg:position="bottom"><path id="kvg:055f7-s9" kvg:type="&#12742;a" d="M48.07,66.57c2.93,0.68,9.37,0.59,12.99,1.52c0.61,0.16,1.21,0.8,1.11,2.05c-0.27,3.29-6.17,17.75-8.49,20.42c-2.51,2.9-4.42,1.19-5.95-2"/><path id="kvg:055f7-s10" kvg:type="&#12754;" d="M48.31,60.34c0.24,0.9,0.19,1.92-0.09,2.93c-1.93,7-5.46,21.22-16.17,27.77"/></g></g></g></g><g id="kvg:055f7-g9" kvg:element="&#25918;" kvg:part="2" kvg:position="right"><g id="kvg:055f7-g10" kvg:element="&#25908;" kvg:variant="true" kvg:original="&#25909;" kvg:position="right"><g id="kvg:055f7-g11" kvg:position="top"><path id="kvg:055f7-s11" kvg:type="&#12754;" d="M76.21,12.61c0.03,0.83,0.07,2.18-0.05,3.35C75.4,24.04,72.25,38,67.32,50.13"/><path id="kvg:055f7-s12" kvg:type="&#12752;" d="M74,35.77c0.02-0.17,1.73,0,2.17-0.05c4.52-0.51,10.37-3.3,17.28-4.12c0.78-0.09,1.25-0.02,1.45,0.08"/></g><g id="kvg:055f7-g12" kvg:element="&#20034;" kvg:position="bottom"><g id="kvg:055f7-g13" kvg:element="&#20031;"><path id="kvg:055f7-s13" kvg:type="&#12754;" d="M87.88,37c0.4,1.37,0.62,2.35,0.2,4.85c-3.81,22.72-12.49,43.02-25.02,50.9"/></g><path id="kvg:055f7-s14" kvg:type="&#12751;" d="M70.04,48.18c4.51,10.45,17.28,34.85,25.21,43.25c1.53,1.62,2.5,1.88,3.75,2.06"/></g></g></g></g></g></g></svg>