<svg xmlns="http://www.w3.org/2000/svg" width="109" height="109" viewBox="0 0 109 109"><g xmlns:kvg="http://kanjivg.tagaini.net" id="kvg:StrokePaths_056d3" style="fill:none;stroke:#000000;stroke-width:3;stroke-linecap:round;stroke-linejoin:round;"><g id="kvg:056d3" kvg:element="&#22227;"><g id="kvg:056d3-g1" kvg:element="&#21475;" kvg:position="left" kvg:radical="tradit"><path id="kvg:056d3-s1" kvg:type="&#12753;" d="M9.75,35.09c0.33,0.48,0.66,0.87,0.8,1.47c1.13,4.71,2.47,16.72,3.24,25.19"/><path id="kvg:056d3-s2" kvg:type="&#12757;b" d="M11.27,36.29c7.48-1.54,14.73-3.18,18.53-3.8c1.39-0.23,2.23,1.34,2.03,2.67c-0.82,5.51-2.29,12.16-3.51,19.78"/><path id="kvg:056d3-s3" kvg:type="&#12752;b" d="M13.95,58.11c4.47-0.7,10.63-1.41,16.76-2.49"/></g><g id="kvg:056d3-g2" kvg:element="&#40807;" kvg:position="right"><g id="kvg:056d3-g3" kvg:position="top"><g id="kvg:056d3-g4" kvg:position="left"><g id="kvg:056d3-g5" kvg:element="&#24417;"><g id="kvg:056d3-g6" kvg:element="&#19977;" kvg:variant="true"><g id="kvg:056d3-g7" kvg:element="&#19968;" kvg:variant="true" kvg:position="top"><path id="kvg:056d3-s4" kvg:type="&#12754;/&#12752;" d="M55.69,12.5c0.04,0.23,0.17,0.61-0.09,0.91c-1.67,1.94-6.63,6.05-15.57,8.37"/></g><g id="kvg:056d3-g8" kvg:position="bottom"><g id="kvg:056d3-g9" kvg:element="&#19968;" kvg:variant="true"><path id="kvg:056d3-s5" kvg:type="&#12754;/&#12752;" d="M59.53,19.83c0.05,0.24,0.19,0.65-0.1,0.96c-1.97,2.1-8.15,6.88-18.09,9.2"/></g><g id="kvg:056d3-g10" kvg:element="&#19968;" kvg:variant="true"><path id="kvg:056d3-s6" kvg:type="&#12754;/&#12752;" d="M62.52,27.42c0.07,0.3,0.14,0.78-0.13,1.22c-1.56,2.56-10.52,8.17-22.78,11.61"/></g></g></g></g><path id="kvg:056d3-s7" kvg:type="&#12753;" d="M47.37,12.25c1.09,0.5,1.69,2.26,1.96,3.25C50,18,51.75,32,53,40"/></g><g id="kvg:056d3-g11" kvg:element="&#20992;" kvg:position="right"><path id="kvg:056d3-s8" kvg:type="&#12742;" d="M71.32,15.5c0.61,0.32,1.38,0.28,1.91,0.17c4.34-0.9,16.47-3.3,18.88-3.63c1.57-0.22,2,0.97,1.91,2.48c-0.23,3.99-4.71,20.27-7.13,22.98c-2.26,2.53-3.54,0.15-4.17-0.32"/><path id="kvg:056d3-s9" kvg:type="&#12754;" d="M77.71,18.18c0.03,0.44,0.06,1.13-0.05,1.75c-0.87,4.63-3.56,12.02-9.27,16.79"/></g></g><g id="kvg:056d3-g12" kvg:element="&#40786;" kvg:position="bottom"><g id="kvg:056d3-g13" kvg:element="&#27490;" kvg:position="top"><g id="kvg:056d3-g14" kvg:element="&#21340;" kvg:original="&#12488;"><path id="kvg:056d3-s10" kvg:type="&#12753;a" d="M66.25,39.25c0.9,0.34,1.61,1.53,1.61,2.24c0,3.62,0.24,9.82,0.24,13.26"/><path id="kvg:056d3-s11" kvg:type="&#12752;b/&#12756;" d="M68.74,47.34c5.86-0.52,12.22-1.38,18.38-1.72c1.43-0.08,1.79-0.17,2.69,0"/></g><path id="kvg:056d3-s12" kvg:type="&#12753;a" d="M50.22,44.07c0.9,0.34,1.43,1.55,1.61,2.24c0.18,0.69,0,5.34-0.18,9.64"/><path id="kvg:056d3-s13" kvg:type="&#12752;" d="M36.75,56.3c0.68,0.17,2.48,0.58,4.28,0.52c9.71-0.34,42.05-3.1,51.25-3.1c1.8,0,4.94,0.34,5.97,0.52"/></g><g id="kvg:056d3-g15" kvg:position="bottom"><g id="kvg:056d3-g16" kvg:element="&#20174;"><g id="kvg:056d3-g17" kvg:element="&#20154;"><path id="kvg:056d3-s14" kvg:type="&#12754;" d="M60.54,58.02c0.17,0.14-0.09,1.44-0.22,1.75c-1.47,3.39-5.28,8.94-10.71,12.12"/><path id="kvg:056d3-s15" kvg:type="&#12756;" d="M58.89,64.89c2.81,0.98,6.41,3.58,7.78,6.05"/></g><g id="kvg:056d3-g18" kvg:element="&#20154;"><path id="kvg:056d3-s16" kvg:type="&#12754;" d="M80.08,57.67c0.15,0.13-0.07,1.33-0.19,1.62c-1.22,3.14-4.38,8.27-8.89,11.22"/><path id="kvg:056d3-s17" kvg:type="&#12756;" d="M78.42,64.54c2.81,0.98,6.41,3.58,7.78,6.05"/></g></g><path id="kvg:056d3-s18" kvg:type="&#12752;" d="M45.27,75.76c2.91,0,43.63-2.24,46.33-2.24"/><g id="kvg:056d3-g19" kvg:element="&#20174;"><g id="kvg:056d3-g20" kvg:element="&#20154;"><path id="kvg:056d3-s19" kvg:type="&#12754;" d="M60.54,78.69c0.17,0.14-0.09,1.44-0.22,1.75c-1.47,3.39-5.28,8.94-10.71,12.12"/><path id="kvg:056d3-s20" kvg:type="&#12756;" d="M58.89,85.21c2.51,0.84,5.72,3.07,6.95,5.19"/></g><g id="kvg:056d3-g21" kvg:element="&#20154;"><path id="kvg:056d3-s21" kvg:type="&#12754;" d="M78.83,77.31c0.15,0.14-0.08,1.45-0.19,1.77c-1.25,3.43-4.48,9.05-9.09,12.28"/><path id="kvg:056d3-s22" kvg:type="&#12756;" d="M77.8,84.01c3.04,1.12,6.92,4.09,8.4,6.91"/></g></g><g id="kvg:056d3-g22" kvg:element="&#20981;"><path id="kvg:056d3-s23" kvg:type="&#12759;a" d="M43.03,61.21c0.63,0.31,1.82,1.29,1.67,2.93c-0.06,0.62-0.35,30.06-0.42,31c-0.06,0.94,0.54,1.73,1.79,1.65c13.52-0.88,32.85-1.57,45.52-1.91"/><path id="kvg:056d3-s24" kvg:type="&#12753;" d="M91.22,58.11c0.39,0.31,1.23,2.31,1.31,2.93c0.08,0.62-0.17,21.95-0.13,36.34"/></g></g></g></g></g></g></svg>