<svg xmlns="http://www.w3.org/2000/svg" width="109" height="109" viewBox="0 0 109 109"><g xmlns:kvg="http://kanjivg.tagaini.net" id="kvg:StrokePaths_056e3" style="fill:none;stroke:#000000;stroke-width:3;stroke-linecap:round;stroke-linejoin:round;"><g id="kvg:056e3" kvg:element="&#22243;"><g id="kvg:056e3-g1" kvg:element="&#22231;" kvg:part="1" kvg:position="kamae1" kvg:radical="general"><path id="kvg:056e3-s1" kvg:type="&#12753;" d="M17.5,17.32c0.97,0.97,1.65,3.06,1.65,4.41c0,8.9,0.02,58.27,0.02,67.03c0,1.93-0.09,4-0.09,6.25"/><path id="kvg:056e3-s2" kvg:type="&#12757;a" d="M20.05,19.4c23.33-2.65,46.33-4.9,64.7-5.61C88.6,13.64,90,15.6,90,19.5c0,14.5,0.1,43.5,0.1,67c0,3.2-0.12,6.62-0.12,9.5"/></g><g id="kvg:056e3-g2" kvg:element="&#23544;" kvg:phon="&#23554;/&#23544;"><path id="kvg:056e3-s3" kvg:type="&#12752;" d="M28.89,43.81c1.74,0.32,4.4,0.28,6.49,0.06c10.47-1.13,27.39-4.02,38.5-4.81c2.03-0.14,3.99-0.24,6,0.17"/><path id="kvg:056e3-s4" kvg:type="&#12762;" d="M62.37,24.33c0.77,0.77,1.56,2.04,1.56,3.54c0,13.09,0.09,44.73,0.09,47.91c0,7.72-4.82,1.14-6.23,0.16"/><path id="kvg:056e3-s5" kvg:type="&#12756;" d="M39.07,54.03c3.56,2.97,7.56,8.72,9.25,13.31"/></g><g id="kvg:056e3-g3" kvg:element="&#22231;" kvg:part="2" kvg:position="kamae2" kvg:radical="general"><path id="kvg:056e3-s6" kvg:type="&#12752;a" d="M20.3,91.01c17.58-0.89,50.27-1.85,68.69-2.26"/></g></g></g></svg>