<svg xmlns="http://www.w3.org/2000/svg" width="109" height="109" viewBox="0 0 109 109"><g xmlns:kvg="http://kanjivg.tagaini.net" id="kvg:StrokePaths_056e0" style="fill:none;stroke:#000000;stroke-width:3;stroke-linecap:round;stroke-linejoin:round;"><g id="kvg:056e0" kvg:element="&#22240;"><g id="kvg:056e0-g1" kvg:element="&#22231;" kvg:part="1" kvg:radical="general"><path id="kvg:056e0-s1" kvg:type="&#12753;" d="M18.75,16.32c1.22,1.22,1.86,3.01,1.86,4.91c0,12.2-0.05,48.6-0.06,68.4c0,2.96,0,5.54,0,7.62"/><path id="kvg:056e0-s2" kvg:type="&#12757;a" d="M21.23,18.4c18.9-1.27,51.45-3.15,63.52-3.15c2.75,0,4.55,1.74,4.5,4.75c-0.22,13.86-0.05,45.05-0.01,67.75c0.01,3.1,0.01,6.04,0.01,8.75"/></g><g id="kvg:056e0-g2" kvg:element="&#22823;"><path id="kvg:056e0-s3" kvg:type="&#12752;" d="M32.11,45.55c2.2,0.53,4.69,0.23,6.89,0c10.93-1.16,23.62-2.45,33.64-3.32c2.15-0.19,4.36-0.35,6.41,0"/><path id="kvg:056e0-s4" kvg:type="&#12754;" d="M53.55,24.5c0.41,0.81,0.62,1.73,0.61,3.47C54.12,56.38,46,73,29.75,83.25"/><path id="kvg:056e0-s5" kvg:type="&#12756;/&#12751;" d="M54.97,54.31c8.18,5.54,18.49,15.5,23.44,26.3"/></g><g id="kvg:056e0-g3" kvg:element="&#22231;" kvg:part="2" kvg:radical="general"><path id="kvg:056e0-s6" kvg:type="&#12752;a" d="M21.75,94.51C41.62,93.75,69.96,92.41,88,92"/></g></g></g></svg>