<svg xmlns="http://www.w3.org/2000/svg" width="109" height="109" viewBox="0 0 109 109"><g xmlns:kvg="http://kanjivg.tagaini.net" id="kvg:StrokePaths_056f3" style="fill:none;stroke:#000000;stroke-width:3;stroke-linecap:round;stroke-linejoin:round;"><g id="kvg:056f3" kvg:element="&#22259;"><g id="kvg:056f3-g1" kvg:element="&#22231;" kvg:part="1" kvg:radical="general"><path id="kvg:056f3-s1" kvg:type="&#12753;" d="M19,17.88c1.25,1.25,1.82,2.7,1.82,4.56c0,15.18,0.04,41.06,0.04,67.55c0,2.12-0.06,4.2-0.1,6.25"/><path id="kvg:056f3-s2" kvg:type="&#12757;a" d="M21.52,19.73c18.46-1.58,52.47-4.4,63.27-4.4c3.2,0,4.72,1.93,4.68,4.87c-0.22,13.81-0.33,46.02-0.1,67.53c0.03,2.46,0.06,4.83,0.11,7.06"/></g><g id="kvg:056f3-g2" kvg:element="&#11917;" kvg:part="1" kvg:original="&#12388;"><path id="kvg:056f3-s3" kvg:type="&#12756;" d="M33,37.12c2.82,1.52,7.29,6.26,8,8.62"/><path id="kvg:056f3-s4" kvg:type="&#12756;" d="M47.38,30.38c2.96,1.88,7.64,7.71,8.38,10.62"/></g><g id="kvg:056f3-g3" kvg:element="&#20034;" kvg:part="1"><g id="kvg:056f3-g4" kvg:element="&#11917;" kvg:part="2" kvg:original="&#12388;"><g id="kvg:056f3-g5" kvg:element="&#20031;"><path id="kvg:056f3-s5" kvg:type="&#12754;" d="M72.02,32.18c0.48,1.32,0.38,2.64-0.43,4.81C65.25,54.12,53.12,70.62,34,80.75"/></g></g></g><g id="kvg:056f3-g6" kvg:element="&#20034;" kvg:part="2"><path id="kvg:056f3-s6" kvg:type="&#12756;/&#12751;" d="M40.25,54.5C48.33,57.57,63.72,67.3,70.5,76"/></g><g id="kvg:056f3-g7" kvg:element="&#22231;" kvg:part="2" kvg:radical="general"><path id="kvg:056f3-s7" kvg:type="&#12752;a" d="M22.19,92.08c15.31-0.58,47.64-2.3,65.29-2.71"/></g></g></g></svg>