<svg xmlns="http://www.w3.org/2000/svg" width="109" height="109" viewBox="0 0 109 109"><g xmlns:kvg="http://kanjivg.tagaini.net" id="kvg:StrokePaths_05704" style="fill:none;stroke:#000000;stroke-width:3;stroke-linecap:round;stroke-linejoin:round;"><g id="kvg:05704" kvg:element="&#22276;"><g id="kvg:05704-g1" kvg:element="&#22231;" kvg:part="1" kvg:radical="general"><path id="kvg:05704-s1" kvg:type="&#12753;" d="M19.25,18.32c0.75,1.43,1.34,2.51,1.36,4.41C20.75,37,20.75,69.75,20.3,97"/><path id="kvg:05704-s2" kvg:type="&#12757;a" d="M20.23,21.15C38.25,19.5,73.68,17,85.75,17c2.75,0,3.55,2.49,3.5,5.5c-0.25,15.75-1,49.75-0.5,72"/></g><g id="kvg:05704-g2" kvg:element="&#21566;"><g id="kvg:05704-g3" kvg:element="&#20116;" kvg:position="top"><g id="kvg:05704-g4" kvg:element="&#20108;" kvg:part="1"><path id="kvg:05704-s3" kvg:type="&#12752;" d="M35.54,29.86c0.98,0.13,2.78,0.13,3.74,0.08C47,29.5,64,27,71.52,26.78c1.63-0.05,2.61,0.02,3.42,0.08"/></g><path id="kvg:05704-s4" kvg:type="&#12753;a" d="M51,30.4c0.75,1.1,0.73,2.22,0.62,2.61c-1,3.7-5.81,18.44-6.89,20.87"/><path id="kvg:05704-s5" kvg:type="&#12757;c" d="M34.93,41.62c0.79,0.29,2.89,0.4,3.53,0.33c7.05-0.7,20.8-2.17,27.31-2.71c1.5-0.12,3.21,0.9,3.21,2.13c0,2.12-1.27,7-2.48,11.65"/><g id="kvg:05704-g5" kvg:element="&#20108;" kvg:part="2"><path id="kvg:05704-s6" kvg:type="&#12752;" d="M28.33,55.69c0.98,0.19,3.42,0.2,4.39,0.06c3.96-0.59,26.33-2.24,45.19-3.5c1.63-0.11,3.25-0.01,4.06,0.07"/></g></g><g id="kvg:05704-g6" kvg:element="&#21475;" kvg:position="bottom"><path id="kvg:05704-s7" kvg:type="&#12753;" d="M37.5,63.41c0.3,0.32,0.61,0.59,0.74,1c1.04,3.21,2.79,13.07,3.51,18.84"/><path id="kvg:05704-s8" kvg:type="&#12757;b" d="M39.36,65.52C49.57,63.9,63,63.1,68.84,62.69c2.14-0.15,3.42,0.89,3.11,1.77c-1.27,3.64-2.75,9.54-4.63,14.58"/><path id="kvg:05704-s9" kvg:type="&#12752;b" d="M41.7,80.97c6.87-0.46,17.8-1.4,27.76-1.75"/></g></g><g id="kvg:05704-g7" kvg:element="&#22231;" kvg:part="2" kvg:radical="general"><path id="kvg:05704-s10" kvg:type="&#12752;a" d="M20.75,94.01c13.07,0,49.46-1.6,67.5-2.01"/></g></g></g></svg>