<svg xmlns="http://www.w3.org/2000/svg" width="109" height="109" viewBox="0 0 109 109"><g xmlns:kvg="http://kanjivg.tagaini.net" id="kvg:StrokePaths_0570b" style="fill:none;stroke:#000000;stroke-width:3;stroke-linecap:round;stroke-linejoin:round;"><g id="kvg:0570b" kvg:element="&#22283;"><g id="kvg:0570b-g1" kvg:element="&#22231;" kvg:part="1" kvg:radical="general"><path id="kvg:0570b-s1" kvg:type="&#12753;" d="M18.25,16.32c0.75,1.43,1.84,2.51,1.86,4.41C20.25,35,20.25,68.75,19.8,96"/><path id="kvg:0570b-s2" kvg:type="&#12757;a" d="M21.73,18.65C39.75,17,74.18,15,86.25,15c2.75,0,3.55,2.49,3.5,5.5c-0.25,15.75-1,52.75-0.5,75"/></g><g id="kvg:0570b-g2" kvg:element="&#25110;"><g id="kvg:0570b-g3" kvg:element="&#25096;" kvg:part="1"><g id="kvg:0570b-g4" kvg:element="&#24331;" kvg:part="1"><path id="kvg:0570b-s3" kvg:type="&#12752;" d="M28.68,36.88c1.05,0.42,3,0.59,4.05,0.42c8.12-1.34,32.88-4.15,42.39-4.72c1.76-0.1,2.81,0.2,3.69,0.41"/></g></g><g id="kvg:0570b-g5" kvg:element="&#21475;"><path id="kvg:0570b-s4" kvg:type="&#12753;" d="M28.55,45.94c0.31,0.29,0.66,0.52,0.76,0.91c0.88,3.38,1.99,11.67,2.87,16.62"/><path id="kvg:0570b-s5" kvg:type="&#12757;b" d="M30.47,47.92c5.68-0.71,13.22-2.09,18.46-2.81c1.32-0.18,2.11,0.83,1.92,1.65c-0.78,3.41-1.47,6.99-2.86,12.67"/><path id="kvg:0570b-s6" kvg:type="&#12752;b" d="M32.82,61.7c4.24-0.43,10.68-1.18,16.5-1.85"/></g><g id="kvg:0570b-g6" kvg:element="&#19968;"><path id="kvg:0570b-s7" kvg:type="&#12736;/&#12752;" d="M27.64,76.47c0.59,0.66,1.77,1.02,3.53,0.14c4.9-2.43,13.73-6.77,18.63-9.2"/></g><g id="kvg:0570b-g7" kvg:element="&#25096;" kvg:part="2"><g id="kvg:0570b-g8" kvg:element="&#24331;" kvg:part="2"><path id="kvg:0570b-s8" kvg:type="&#12738;" d="M56.71,21c0.95,1.29,1.28,1.65,1.54,4.42c2,21.83,8.03,49.08,19.02,57c3.74,2.69,4.19,0.55,3.72-5.16"/></g><g id="kvg:0570b-g9" kvg:element="&#20031;"><path id="kvg:0570b-s9" kvg:type="&#12754;" d="M74.94,42.53c0.07,0.91,0.15,2.35-0.14,3.65c-1.71,7.7-11.54,25.45-25,35.79"/></g><g id="kvg:0570b-g10" kvg:element="&#24331;" kvg:part="3"><g id="kvg:0570b-g11" kvg:element="&#20022;"><path id="kvg:0570b-s10" kvg:type="&#12756;" d="M69.78,20.89c2.52,1.3,6.56,4.29,7.73,6.52"/></g></g></g></g><g id="kvg:0570b-g12" kvg:element="&#22231;" kvg:part="2" kvg:radical="general"><path id="kvg:0570b-s11" kvg:type="&#12752;a" d="M20.75,93.51c13.07,0,50.46-2.6,68.5-3.01"/></g></g></g></svg>