<svg xmlns="http://www.w3.org/2000/svg" width="109" height="109" viewBox="0 0 109 109"><g xmlns:kvg="http://kanjivg.tagaini.net" id="kvg:StrokePaths_05712" style="fill:none;stroke:#000000;stroke-width:3;stroke-linecap:round;stroke-linejoin:round;"><g id="kvg:05712" kvg:element="&#22290;"><g id="kvg:05712-g1" kvg:element="&#22231;" kvg:part="1" kvg:radical="general"><path id="kvg:05712-s1" kvg:type="&#12753;" d="M18,18.79c1.29,1.29,1.61,2.94,1.61,4.78c0,12.45,0.07,46.78,0.08,66.05c0,2.27,0,4.33,0,6.12"/><path id="kvg:05712-s2" kvg:type="&#12757;a" d="M20.74,21.21c19.04-1.59,54.71-3.96,65.51-3.96c2.75,0,3.55,2.42,3.5,5.35C89.52,36.75,88.86,66.5,89.16,88c0.02,1.75,0.05,3.44,0.09,5.07"/></g><g id="kvg:05712-g2" kvg:element="&#34945;" kvg:phon="&#34945;"><g id="kvg:05712-g3" kvg:element="&#22303;" kvg:position="top"><path id="kvg:05712-s3" kvg:type="&#12752;" d="M37.07,30.57c1.25,0.26,3.52,0.34,4.77,0.26C50.25,30.25,60,29,65.82,28.47c2.07-0.19,3.32-0.13,4.36,0"/><path id="kvg:05712-s4" kvg:type="&#12753;a" d="M52.99,21.87c0.64,0.64,1.25,1.76,1.25,2.69c0,2.95-0.14,13.16-0.14,14.01"/><g id="kvg:05712-g4" kvg:element="&#34915;" kvg:part="1" kvg:variant="true" kvg:partial="true"><g id="kvg:05712-g5" kvg:element="&#20128;" kvg:partial="true"><path id="kvg:05712-s5" kvg:type="&#12752;" d="M29.39,40.62c1.62,0.43,4.3,0.34,5.91,0.18c11.94-1.18,29.44-2.8,39.52-3.69c2.68-0.24,4.32,0.2,5.67,0.42"/></g></g></g><g id="kvg:05712-g6" kvg:position="bottom"><g id="kvg:05712-g7" kvg:element="&#21475;"><path id="kvg:05712-s6" kvg:type="&#12753;" d="M38.31,47.95c0.68,0.68,1.19,1.42,1.34,2.23c0.61,3.29,0.96,5.69,1.67,9.55c0.26,1.42,0.26,1.78,0.49,2.94"/><path id="kvg:05712-s7" kvg:type="&#12757;b" d="M40.76,49.08c7.81-1.1,21.3-2.51,26.24-2.68c1.9-0.07,2.18,1.39,2.02,2.13c-0.35,1.58-2.31,6.52-2.98,8.39"/><path id="kvg:05712-s8" kvg:type="&#12752;b" d="M42.65,60.58c5.01-0.69,15.1-1.7,22.12-2.24c1.29-0.1,2.54-0.2,3.69-0.31"/></g><g id="kvg:05712-g8" kvg:element="&#34915;" kvg:part="2" kvg:variant="true" kvg:partial="true"><path id="kvg:05712-s9" kvg:type="&#12754;" d="M49.13,62.5c0.21,1.56-0.56,3.02-1.58,4.14c-4.67,5.11-9.92,9.11-18.49,13.86"/><path id="kvg:05712-s10" kvg:type="&#12753;/&#12761;" d="M51.09,66.7c0.98,0.98,1.43,1.67,1.43,3.08c0,3.46-0.01,8.12-0.01,12.09c0,1.16,0,2.25,0,3.25"/><path id="kvg:05712-s11" kvg:type="&#12754;" d="M71.59,63.21C71.5,64.12,71,65,69.97,66.04c-1.29,1.3-3.97,3.21-7.88,4.89"/><path id="kvg:05712-s12" kvg:type="&#12756;/&#12751;" d="M55.38,68c8.25,3.29,15.07,7.67,19.62,14.25"/></g></g></g><g id="kvg:05712-g9" kvg:element="&#22231;" kvg:part="2" kvg:position="kamae" kvg:radical="general"><path id="kvg:05712-s13" kvg:type="&#12752;a" d="M21,93.1c13.75-0.35,48.71-2.29,66.75-2.69"/></g></g></g></svg>