<svg xmlns="http://www.w3.org/2000/svg" width="109" height="109" viewBox="0 0 109 109"><g xmlns:kvg="http://kanjivg.tagaini.net" id="kvg:StrokePaths_05726" style="fill:none;stroke:#000000;stroke-width:3;stroke-linecap:round;stroke-linejoin:round;"><g id="kvg:05726" kvg:element="&#22310;"><g id="kvg:05726-g1" kvg:element="&#22303;" kvg:variant="true" kvg:position="left" kvg:radical="general"><path id="kvg:05726-s1" kvg:type="&#12752;" d="M11.5,47.64c0.79,0.38,2.36,0.46,3.15,0.36c5.06-0.66,19.06-3.39,24.68-4c1.32-0.14,2.75-0.18,3.41,0.01"/><path id="kvg:05726-s2" kvg:type="&#12753;a" d="M25.37,22c1.09,0.5,1.96,2.23,1.96,3.25c0,7.25,0.03,38.75,0.03,49.5"/><path id="kvg:05726-s3" kvg:type="&#12736;/&#12752;" d="M11.25,81.05c0.97,1.2,2.9,1.83,5.79,0.26c8.05-4.38,16.41-8.44,24.46-12.81"/></g><g id="kvg:05726-g2" kvg:element="&#20837;" kvg:position="right"><path id="kvg:05726-s4" kvg:type="&#12754;" d="M68.21,41.93C62.89,58.36,49.06,81.6,38,90.89"/><path id="kvg:05726-s5" kvg:type="&#12751;" d="M59.1,14c1.26,0,3.11,1.47,3.49,3.18C68.5,43.75,75.25,71.5,91.6,88.36c1.49,1.54,3.04,2.83,4.15,3.39"/></g></g></g></svg>