<svg xmlns="http://www.w3.org/2000/svg" width="109" height="109" viewBox="0 0 109 109"><g xmlns:kvg="http://kanjivg.tagaini.net" id="kvg:StrokePaths_05737" style="fill:none;stroke:#000000;stroke-width:3;stroke-linecap:round;stroke-linejoin:round;"><g id="kvg:05737" kvg:element="&#22327;"><g id="kvg:05737-g1" kvg:element="&#22303;" kvg:variant="true" kvg:position="left" kvg:radical="general"><path id="kvg:05737-s1" kvg:type="&#12752;" d="M12.5,45.64c0.76,0.38,2.74,0.46,3.5,0.36c4.82-0.66,17.65-2.89,23-3.5c1.25-0.14,2.62-0.18,3.25,0.01"/><path id="kvg:05737-s2" kvg:type="&#12753;a" d="M25.87,19c1.09,0.5,1.96,2.23,1.96,3.25c0,7.25,0.03,38.75,0.03,49.5"/><path id="kvg:05737-s3" kvg:type="&#12736;/&#12752;" d="M12.5,78.79c0.75,0.96,2.25,1.46,4.5,0.21c6.25-3.5,17.5-9.75,23.75-13.25"/></g><g id="kvg:05737-g2" kvg:element="&#19979;" kvg:position="right"><g id="kvg:05737-g3" kvg:element="&#19968;"><path id="kvg:05737-s4" kvg:type="&#12752;" d="M40,21.5c1.21,0.5,3.16,0.85,3.88,0.75C53.28,21,80.5,16.5,92.13,16c0.86-0.04,3.26,0.25,4.12,0.75"/></g><g id="kvg:05737-g4" kvg:element="&#21340;" kvg:original="&#12488;"><path id="kvg:05737-s5" kvg:type="&#12752;" d="M66.97,22.25c0.93,1.07,1.06,2.8,1.06,4.8c0,10.53-0.29,55.7-0.29,68.95"/><path id="kvg:05737-s6" kvg:type="&#12753;" d="M70.66,41.42C76,43.75,84.25,52.25,86.78,57.12"/></g></g></g></g></svg>