<svg xmlns="http://www.w3.org/2000/svg" width="109" height="109" viewBox="0 0 109 109"><g xmlns:kvg="http://kanjivg.tagaini.net" id="kvg:StrokePaths_05738" style="fill:none;stroke:#000000;stroke-width:3;stroke-linecap:round;stroke-linejoin:round;"><g id="kvg:05738" kvg:element="&#22328;"><g id="kvg:05738-g1" kvg:element="&#22303;" kvg:variant="true" kvg:position="left" kvg:radical="general"><path id="kvg:05738-s1" kvg:type="&#12752;" d="M10.5,48.14c0.76,0.38,2.24,0.39,3,0.36c7-0.25,19.15-2.89,24.5-3.5c1.25-0.14,2.62-0.18,3.25,0.01"/><path id="kvg:05738-s2" kvg:type="&#12753;a" d="M25.37,23c1.09,0.5,1.96,2.73,1.96,3.75c0,7.25,0.03,38.25,0.03,49"/><path id="kvg:05738-s3" kvg:type="&#12736;/&#12752;" d="M12,82.92c0.74,1.08,2.21,1.65,4.42,0.23c6.14-3.94,17.19-10.97,23.33-14.91"/></g><g id="kvg:05738-g2" kvg:element="&#23665;" kvg:position="right"><path id="kvg:05738-s4" kvg:type="&#12753;a" d="M68.81,15.38c0.76,0.45,2.01,2.12,2.01,4.25c0,0.91-0.1,62.65-0.25,68.25"/><path id="kvg:05738-s5" kvg:type="&#12740;a" d="M50.31,47.88c0.76,0.45,1.59,2.34,1.51,3.25c-0.57,7.12-1.07,24.62-2.5,36.5c-0.25,2.05,0.63,3.63,2.5,3.25c12.93-2.63,31.5-4.25,41-4.5"/><path id="kvg:05738-s6" kvg:type="&#12753;" d="M92.81,43.63c0.76,0.45,1.55,3.34,1.51,4.25C94,55,93.5,78.25,93.07,89.88"/></g></g></g></svg>