<svg xmlns="http://www.w3.org/2000/svg" width="109" height="109" viewBox="0 0 109 109"><g xmlns:kvg="http://kanjivg.tagaini.net" id="kvg:StrokePaths_0574f" style="fill:none;stroke:#000000;stroke-width:3;stroke-linecap:round;stroke-linejoin:round;"><g id="kvg:0574f" kvg:element="&#22351;"><g id="kvg:0574f-g1" kvg:element="&#22303;" kvg:variant="true" kvg:position="left" kvg:radical="general"><path id="kvg:0574f-s1" kvg:type="&#12752;" d="M10.5,44.53c0.81,0.42,2.89,0.43,3.7,0.4c4.8-0.18,18.87-2.67,24.58-3.35c1.34-0.16,2.8-0.2,3.47,0.01"/><path id="kvg:0574f-s2" kvg:type="&#12753;a" d="M25.37,19c1.09,0.5,1.96,2.73,1.96,3.75c0,7.25,0.03,39.75,0.03,50.5"/><path id="kvg:0574f-s3" kvg:type="&#12736;/&#12752;" d="M12,79.29c0.75,0.96,2.25,1.46,4.5,0.21C22.75,76,34,69.75,40.25,66.25"/></g><g id="kvg:0574f-g2" kvg:element="&#19981;" kvg:position="right"><g id="kvg:0574f-g3" kvg:element="&#19968;"><path id="kvg:0574f-s4" kvg:type="&#12752;" d="M42.97,22.96c1.2,0.52,3.41,0.65,4.62,0.52c11.53-1.23,32.36-3.53,45.6-4.47c2-0.14,3.21,0.25,4.22,0.51"/></g><g id="kvg:0574f-g4" kvg:element="&#20031;"><path id="kvg:0574f-s5" kvg:type="&#12754;" d="M71.56,23.66c0.08,1.15,0.46,3.05-0.17,4.61C67.5,38,56.75,58.5,41.87,72.42"/></g><g id="kvg:0574f-g5" kvg:element="&#20008;"><path id="kvg:0574f-s6" kvg:type="&#12753;" d="M66.12,44.75c1.44,1.2,1.9,2.88,1.9,4.91c0,4.45-0.11,33-0.11,48.84"/></g><path id="kvg:0574f-s7" kvg:type="&#12756;" d="M77.64,49.25c6.88,3.92,17.76,16.11,19.49,22.2"/></g></g></g></svg>