<svg xmlns="http://www.w3.org/2000/svg" width="109" height="109" viewBox="0 0 109 109"><g xmlns:kvg="http://kanjivg.tagaini.net" id="kvg:StrokePaths_0574a" style="fill:none;stroke:#000000;stroke-width:3;stroke-linecap:round;stroke-linejoin:round;"><g id="kvg:0574a" kvg:element="&#22346;"><g id="kvg:0574a-g1" kvg:element="&#22303;" kvg:variant="true" kvg:position="left" kvg:radical="general"><path id="kvg:0574a-s1" kvg:type="&#12752;" d="M13.5,41.39c0.76,0.38,2.24,0.46,3,0.36c0.78-0.11,1.71-0.01,2.74-0.18c5.3-0.91,11.51-2.32,17.51-3.57c1.24-0.26,2.62-0.43,3.25-0.24"/><path id="kvg:0574a-s2" kvg:type="&#12753;a" d="M26.87,19c0.88,1.25,1.21,2.5,1.21,4c0,7.25,0.03,32.75,0.03,43.5"/><path id="kvg:0574a-s3" kvg:type="&#12736;/&#12752;" d="M13.75,74.19c1.25,1.18,2.62,1.31,4.67-0.02c6.09-3.96,15.45-10.29,22.33-14.92"/></g><g id="kvg:0574a-g2" kvg:element="&#26041;" kvg:position="right" kvg:phon="&#26041;"><g id="kvg:0574a-g3" kvg:element="&#20128;" kvg:position="top"><path id="kvg:0574a-s4" kvg:type="&#12753;a" d="M68.8,13c1.16,1.16,1.59,2.38,1.59,4.29c0,4.86,0.11,9.33,0.11,12.75"/><path id="kvg:0574a-s5" kvg:type="&#12752;" d="M46.38,33.14c2.98,0.66,6.1,0.47,9.12,0.03c10.85-1.6,22.51-3.04,35.01-4.42c2.83-0.31,5.43-0.6,8.12,0.41"/></g><g id="kvg:0574a-g4" kvg:position="bottom"><path id="kvg:0574a-s6" kvg:type="&#12742;a" d="M66.86,45.58c5.77,2.3,11.77,4.67,18.09,6.09c3.11,0.7,4.55,1.92,3.75,5.1c-2,7.88-10.89,28.74-14.78,33.94c-4.4,5.88-7.17,0.8-8.66-1.02"/><path id="kvg:0574a-s7" kvg:type="&#12754;" d="M68.06,35c0.45,1.43,0.42,3.05-0.17,4.64c-4.51,12.11-14.01,31.48-31.21,44.19"/></g></g></g></g></svg>