<svg xmlns="http://www.w3.org/2000/svg" width="109" height="109" viewBox="0 0 109 109"><g xmlns:kvg="http://kanjivg.tagaini.net" id="kvg:StrokePaths_05766" style="fill:none;stroke:#000000;stroke-width:3;stroke-linecap:round;stroke-linejoin:round;"><g id="kvg:05766" kvg:element="&#22374;"><g id="kvg:05766-g1" kvg:element="&#22303;" kvg:variant="true" kvg:position="left" kvg:radical="general"><path id="kvg:05766-s1" kvg:type="&#12752;" d="M12.25,44.89c0.76,0.38,2.24,0.42,3,0.36c6.5-0.5,18.65-2.39,24-3c1.25-0.14,2.62-0.18,3.25,0.01"/><path id="kvg:05766-s2" kvg:type="&#12753;a" d="M27.37,19.75c1.09,0.5,1.74,2.25,1.96,3.25c0.22,1,0,43.25-0.22,49.5"/><path id="kvg:05766-s3" kvg:type="&#12736;/&#12752;" d="M13,82c2,0.5,3.75,0.25,5.12-0.68c7.45-5.02,14.51-10.59,21.63-16.08"/></g><g id="kvg:05766-g2" kvg:element="&#26086;" kvg:position="right"><g id="kvg:05766-g3" kvg:element="&#26085;" kvg:position="top"><path id="kvg:05766-s4" kvg:type="&#12753;" d="M51.56,23.66c0.5,1.11,1.01,1.67,1.01,3.16c0,1.49-0.17,44.84,0,46.33"/><path id="kvg:05766-s5" kvg:type="&#12757;a" d="M52.92,24.85c2.86-0.19,26.08-2.38,28.68-2.6c2.17-0.19,3.56,2.06,3.39,3.16c-0.34,2.23-0.17,44.89-0.17,46"/><path id="kvg:05766-s6" kvg:type="&#12752;a" d="M52.92,46.89c3.86,0,27.36-2.36,31.73-2.36"/><path id="kvg:05766-s7" kvg:type="&#12752;a" d="M52.42,70.1c8.83-0.85,24.08-2.1,32.4-2.49"/></g><g id="kvg:05766-g4" kvg:element="&#19968;" kvg:position="bottom"><path id="kvg:05766-s8" kvg:type="&#12752;" d="M39.55,88.59c1.16,0.46,3.3,0.49,4.46,0.46c10.28-0.23,38.58-2.56,50.61-2.54c1.94,0,3.1,0.22,4.07,0.45"/></g></g></g></g></svg>