<svg xmlns="http://www.w3.org/2000/svg" width="109" height="109" viewBox="0 0 109 109"><g xmlns:kvg="http://kanjivg.tagaini.net" id="kvg:StrokePaths_05769" style="fill:none;stroke:#000000;stroke-width:3;stroke-linecap:round;stroke-linejoin:round;"><g id="kvg:05769" kvg:element="&#22377;"><g id="kvg:05769-g1" kvg:element="&#22303;" kvg:variant="true" kvg:position="left" kvg:radical="general"><path id="kvg:05769-s1" kvg:type="&#12752;" d="M9.5,46.35c0.88,0.41,3.62,0.49,4.5,0.38c6.25-0.74,19.2-3.07,25.45-3.72c1.46-0.15,3.06-0.19,3.8,0.01"/><path id="kvg:05769-s2" kvg:type="&#12753;a" d="M25.87,21.5c1.09,0.5,1.96,2.23,1.96,3.25c0,7.25,0.53,40.25,0.53,51"/><path id="kvg:05769-s3" kvg:type="&#12736;/&#12752;" d="M12,82.29c0.75,0.96,2.25,1.46,4.5,0.21C22.75,79,34,72.75,40.25,69.25"/></g><g id="kvg:05769-g2" kvg:element="&#29976;" kvg:position="right"><g id="kvg:05769-g3" kvg:element="&#24319;" kvg:part="1"><g id="kvg:05769-g4" kvg:element="&#21313;"><path id="kvg:05769-s4" kvg:type="&#12752;" d="M42.35,35.26c1.39,0.49,3.95,0.61,5.34,0.49c10.26-0.9,29.28-2.44,46.09-3.63c2.32-0.16,3.71,0.23,4.88,0.48"/><path id="kvg:05769-s5" kvg:type="&#12753;" d="M54.03,15.63c1.16,0.52,1.85,2.36,2.08,3.41c0.23,1.05,0,71.14-0.23,77.71"/></g><path id="kvg:05769-s6" kvg:type="&#12753;" d="M82.9,12.5c1.16,0.53,1.85,2.36,2.08,3.42c0.23,1.05,0,72.72-0.23,79.28"/></g><path id="kvg:05769-s7" kvg:type="&#12752;" d="M56.32,62.41c5.91-0.36,25.34-2.58,28.52-2.58"/><g id="kvg:05769-g5" kvg:element="&#24319;" kvg:part="2"><path id="kvg:05769-s8" kvg:type="&#12752;" d="M56.32,93.88c6.9-0.26,21.89-1.34,28.26-1.6"/></g></g></g></g></svg>