<svg xmlns="http://www.w3.org/2000/svg" width="109" height="109" viewBox="0 0 109 109"><g xmlns:kvg="http://kanjivg.tagaini.net" id="kvg:StrokePaths_05788" style="fill:none;stroke:#000000;stroke-width:3;stroke-linecap:round;stroke-linejoin:round;"><g id="kvg:05788" kvg:element="&#22408;"><g id="kvg:05788-g1" kvg:element="&#20195;" kvg:position="top"><g id="kvg:05788-g2" kvg:element="&#20155;" kvg:variant="true" kvg:original="&#20154;" kvg:position="left"><path id="kvg:05788-s1" kvg:type="&#12754;" d="M37.95,14.71c0.27,1.79-0.07,4.14-0.92,5.68C31.61,30.18,26.42,38.93,14,50.84"/><path id="kvg:05788-s2" kvg:type="&#12753;" d="M31.97,33.08c0.78,0.92,1.01,2.23,1.06,3.21c0.44,8.51-0.87,25.3-0.47,30.43"/></g><g id="kvg:05788-g3" kvg:element="&#24331;" kvg:position="right"><path id="kvg:05788-s3" kvg:type="&#12752;" d="M45.41,35.23c1.31,0.29,3.73,0.43,5.02,0.29c5.3-0.56,22.58-4.21,33.54-5.5c2.14-0.25,3.29-0.22,4.58,0.01"/><path id="kvg:05788-s4" kvg:type="&#12738;" d="M57.83,12.04c1.53,1.17,2.09,1.57,2.48,4C63.75,37.25,69.5,55,88.02,65.32c6.18,3.44,5.16,0.5,4.39-4.66"/><g id="kvg:05788-g4" kvg:element="&#20022;"><path id="kvg:05788-s5" kvg:type="&#12756;" d="M72.6,11.71c2.91,1.74,7.56,5.73,8.92,8.72"/></g></g></g><g id="kvg:05788-g5" kvg:element="&#22303;" kvg:position="bottom" kvg:radical="general"><path id="kvg:05788-s6" kvg:type="&#12752;" d="M29.5,78.86c0.89,0.23,2.53,0.29,3.42,0.23c11.47-0.79,31.48-2.46,43.02-2.66c1.49-0.03,2.38,0.11,3.12,0.23"/><path id="kvg:05788-s7" kvg:type="&#12753;a" d="M52.78,65.84c0.12,0.3,1.82,1.57,1.82,3.49c0,6.67,0.13,19.42,0.13,25.17"/><path id="kvg:05788-s8" kvg:type="&#12752;" d="M16.67,96.43c1.77,0.61,5.02,0.75,6.78,0.61c21.91-1.73,44.58-3.13,64.17-3.94c2.95-0.12,4.72,0.29,6.19,0.6"/></g></g></g></svg>