<svg xmlns="http://www.w3.org/2000/svg" width="109" height="109" viewBox="0 0 109 109"><g xmlns:kvg="http://kanjivg.tagaini.net" id="kvg:StrokePaths_05789" style="fill:none;stroke:#000000;stroke-width:3;stroke-linecap:round;stroke-linejoin:round;"><g id="kvg:05789" kvg:element="&#22409;"><g id="kvg:05789-g1" kvg:element="&#22303;" kvg:variant="true" kvg:position="left" kvg:radical="general"><path id="kvg:05789-s1" kvg:type="&#12752;" d="M11.5,44.14c0.76,0.38,2.24,0.46,3,0.36c4.82-0.66,16.15-2.39,21.5-3c1.25-0.14,2.62-0.18,3.25,0.01"/><path id="kvg:05789-s2" kvg:type="&#12753;a" d="M24.87,16.5c1.09,0.5,1.96,2.23,1.96,3.25c0,7.25,0.03,42.75,0.03,53.5"/><path id="kvg:05789-s3" kvg:type="&#12736;/&#12752;" d="M13.5,79.23c0.7,1.02,2.11,1.57,4.22,0.22C23.58,75.7,34.14,69,40,65.25"/></g><g id="kvg:05789-g2" kvg:element="&#21253;" kvg:position="right"><g id="kvg:05789-g3" kvg:element="&#21241;"><g id="kvg:05789-g4" kvg:element="&#20031;"><path id="kvg:05789-s4" kvg:type="&#12754;" d="M60.09,14.5c0.06,0.77,0.29,2.03-0.11,3.07c-2.6,6.78-7.74,20.68-19.38,29.91"/></g><path id="kvg:05789-s5" kvg:type="&#12742;" d="M55.49,29.68c0.98,0.61,2.3,0.53,3.92,0.41C67,29.5,84.75,27,89.4,26.45c1.85-0.22,3.95,1.12,3.87,3.41c-0.27,6.89-3.02,27.64-9.6,40.21c-2.02,3.85-3.96,1.53-6.27-1.02"/></g><g id="kvg:05789-g5" kvg:element="&#24051;"><g id="kvg:05789-g6" kvg:element="&#24049;" kvg:variant="true"><path id="kvg:05789-s6" kvg:type="&#12757;" d="M51.03,45.24c1.28,0.94,2.37,0.94,4.25,0.63c3.81-0.63,15.64-3.27,16.8-3.39c1.54-0.16,3.06,1.24,2.7,2.97C74.25,48,73,53.5,71.16,59.98"/><path id="kvg:05789-s7" kvg:type="&#12752;" d="M51.74,62.85c4.12-0.45,16.07-2.29,21.93-2.68"/><path id="kvg:05789-s8" kvg:type="&#12767;" d="M50.02,43.52c0.81,1.1,1.52,2.39,1.51,4.09c-0.03,5.43,0.14,31.25,0.14,35.99c0,10.3,3.58,11.58,23.07,11.58c17.28,0,20.9-1.44,20.9-12.89"/></g></g></g></g></g></svg>