<svg xmlns="http://www.w3.org/2000/svg" width="109" height="109" viewBox="0 0 109 109"><g xmlns:kvg="http://kanjivg.tagaini.net" id="kvg:StrokePaths_057a4" style="fill:none;stroke:#000000;stroke-width:3;stroke-linecap:round;stroke-linejoin:round;"><g id="kvg:057a4" kvg:element="&#22436;"><g id="kvg:057a4-g1" kvg:element="&#22303;" kvg:variant="true" kvg:position="left" kvg:radical="general"><path id="kvg:057a4-s1" kvg:type="&#12752;" d="M11,43.21c0.74,0.33,2.21,0.41,2.95,0.32c4.74-0.58,17.84-2.53,23.1-3.06c1.23-0.13,2.58-0.16,3.2,0.01"/><path id="kvg:057a4-s2" kvg:type="&#12753;a" d="M25.34,17c1.12,0.51,2.01,2.29,2.01,3.34c0,7.46,0.03,39.85,0.03,50.91"/><path id="kvg:057a4-s3" kvg:type="&#12736;/&#12752;" d="M12,77.33c0.75,0.92,2.25,1.41,4.5,0.2c6.25-3.38,17.5-9.4,23.75-12.78"/></g><g id="kvg:057a4-g2" kvg:element="&#33267;" kvg:position="right"><path id="kvg:057a4-s4" kvg:type="&#12752;" d="M43.25,19.7c0.93,0.36,2.63,0.42,3.56,0.36c12.75-0.96,26.47-3.83,42.01-4.27c1.55-0.04,2.47,0.17,3.25,0.35"/><g id="kvg:057a4-g3" kvg:element="&#21430;"><path id="kvg:057a4-s5" kvg:type="&#12764;" d="M64.21,20.65c0.46,0.55,0.13,2.79-0.22,3.44C59.92,31.56,54.62,36.87,49,44.07c-1.81,2.32-1.94,3.89,0.97,3.2c6.79-1.6,24.69-6.87,35.39-9.51"/><path id="kvg:057a4-s6" kvg:type="&#12756;" d="M76.81,27.66c5.14,3.5,13.27,14.4,14.55,19.85"/></g><g id="kvg:057a4-g4" kvg:element="&#22303;"><path id="kvg:057a4-s7" kvg:type="&#12752;" d="M46.21,69.62C47.1,70,48.74,70.09,49.63,70c9.2-0.94,29.21-3.23,37.58-3.23c1.49,0,2.38,0.18,3.12,0.37"/><path id="kvg:057a4-s8" kvg:type="&#12753;a" d="M67.11,50.06c0.09,0.25,1.4,1.29,1.37,2.87c-0.15,9.02-0.07,34.27-0.07,36.84"/><path id="kvg:057a4-s9" kvg:type="&#12752;" d="M38.88,91.33c1.18,0.46,3.34,0.54,4.52,0.46c14.36-1.04,29.05-2.27,51.61-2.39c1.96-0.01,3.14,0.22,4.12,0.45"/></g></g></g></g></svg>