<svg xmlns="http://www.w3.org/2000/svg" width="109" height="109" viewBox="0 0 109 109"><g xmlns:kvg="http://kanjivg.tagaini.net" id="kvg:StrokePaths_057b3" style="fill:none;stroke:#000000;stroke-width:3;stroke-linecap:round;stroke-linejoin:round;"><g id="kvg:057b3" kvg:element="&#22451;"><g id="kvg:057b3-g1" kvg:element="&#22303;" kvg:variant="true" kvg:position="left" kvg:radical="general"><path id="kvg:057b3-s1" kvg:type="&#12752;" d="M10.5,44.64c0.76,0.38,2.24,0.46,3,0.36c4.82-0.66,16.65-2.89,22-3.5c1.25-0.14,2.62-0.18,3.25,0.01"/><path id="kvg:057b3-s2" kvg:type="&#12753;a" d="M25.37,15c1.09,0.5,1.96,2.23,1.96,3.25c0,7.25,0.03,42.25,0.03,53"/><path id="kvg:057b3-s3" kvg:type="&#12736;/&#12752;" d="M12,79.34c1,0.91,3.49,1.28,5.48-0.25C23.01,74.84,32.47,67.75,38,63.5"/></g><g id="kvg:057b3-g2" kvg:element="&#34892;" kvg:position="right"><g id="kvg:057b3-g3" kvg:element="&#24435;" kvg:position="left"><path id="kvg:057b3-s4" kvg:type="&#12754;" d="M57.65,16.5c0.03,0.45,0.17,1.24-0.07,1.79c-1.69,3.87-6.14,10.61-12.35,17.16"/><g id="kvg:057b3-g4" kvg:element="&#20155;" kvg:variant="true" kvg:original="&#20154;"><path id="kvg:057b3-s5" kvg:type="&#12754;" d="M59.93,34.27c0.05,0.71,0.18,1.93-0.1,2.84c-2.18,7.32-8.68,17.24-17.58,27.17"/><path id="kvg:057b3-s6" kvg:type="&#12753;" d="M52.95,54.62c0.27,0.24,0.93,2.09,0.98,2.58c0.05,0.49,0,32.27-0.05,35.3"/></g></g><g id="kvg:057b3-g5" kvg:position="right"><path id="kvg:057b3-s7" kvg:type="&#12752;" d="M68.34,21.65c0.66,0.27,3.48,0.74,4.14,0.65c5.11-0.75,16.28-2.28,19.33-2.16c1.1,0.04,1.76,0.13,2.31,0.27"/><path id="kvg:057b3-s8" kvg:type="&#12752;" d="M65.09,43.85c0.63,0.23,1.79,0.28,2.43,0.23c8.1-0.64,21.24-2.74,29.9-2.64c1.05,0.01,1.69,0.11,2.21,0.23"/><path id="kvg:057b3-s9" kvg:type="&#12762;" d="M82.75,45.16c0.75,0.59,1.56,2.09,1.56,3.75c0,13.86-0.22,35.8-0.22,40.51c0,7.65-6.1-0.48-7.37-1.67"/></g></g></g></g></svg>