<svg xmlns="http://www.w3.org/2000/svg" width="109" height="109" viewBox="0 0 109 109"><g xmlns:kvg="http://kanjivg.tagaini.net" id="kvg:StrokePaths_05800" style="fill:none;stroke:#000000;stroke-width:3;stroke-linecap:round;stroke-linejoin:round;"><g id="kvg:05800" kvg:element="&#22528;"><g id="kvg:05800-g1" kvg:element="&#22303;" kvg:variant="true" kvg:position="left" kvg:radical="general"><path id="kvg:05800-s1" kvg:type="&#12752;" d="M12.5,43.64c1.57,0.79,4.27,0.43,5.9,0.16c4.95-0.83,12.61-2.5,17.5-3.56c1.32-0.29,3.1-0.61,4.35-0.48"/><path id="kvg:05800-s2" kvg:type="&#12753;a" d="M27.12,22.25c1.06,1.06,1.21,2.5,1.21,4c0,7.25,0.03,29.75,0.03,40.5"/><path id="kvg:05800-s3" kvg:type="&#12736;/&#12752;" d="M12.25,74.09c0.56,0.66,1.68,1.02,3.35,0.14c4.66-2.43,18.36-9.67,23.02-12.1"/></g><g id="kvg:05800-g2" kvg:element="&#23624;" kvg:position="right" kvg:phon="&#23624;"><g id="kvg:05800-g3" kvg:element="&#23608;" kvg:position="tare"><path id="kvg:05800-s4" kvg:type="&#12757;c" d="M50.49,17.82c1.38,0.8,3.72,0.77,5.07,0.68c5.93-0.37,20.77-2.57,27.57-3.36c2.93-0.34,5.75,1.22,5.02,4.14c-0.74,2.95-2.62,8.02-3.54,11.58"/><path id="kvg:05800-s5" kvg:type="&#12752;b" d="M53.11,35.08c5.06-0.54,20.69-2.24,28.89-2.94c1.75-0.15,3.16-0.25,4.06-0.29"/><path id="kvg:05800-s6" kvg:type="&#12754;" d="M51.75,18.75c1.06,1.06,1.24,2.51,1.22,4.28c-0.22,20.47-4.59,52.59-23.11,67.23"/></g><g id="kvg:05800-g4" kvg:element="&#20986;"><g id="kvg:05800-g5" kvg:element="&#23665;"><path id="kvg:05800-s7" kvg:type="&#12753;a" d="M71.41,43.26c0.49,0.37,1.61,2.74,1.61,3.49c0,5.77,0.11,34.23,0.11,43.25"/><path id="kvg:05800-s8" kvg:type="&#12740;a" d="M57.06,54.64c0.71,0.71,1.06,1.86,0.84,2.7c-0.94,3.5-1.15,5.54-2.19,9.11c-0.53,1.83,0.14,2.21,1.79,1.81c11.37-2.75,22.73-4.02,31.45-4.37"/><path id="kvg:05800-s9" kvg:type="&#12753;" d="M91.14,49.84c0.61,1.16,0.74,2.16,0.44,3.73c-0.64,3.33-0.58,4.83-1.27,8.99c-0.18,1.1-0.4,2.42-0.66,4.06"/></g><g id="kvg:05800-g6" kvg:element="&#20981;"><path id="kvg:05800-s10" kvg:type="&#12740;a" d="M55.29,81.1c0.34,1.03,0.59,2.15,0.34,3.2c-0.47,1.96-1.11,3.88-2.01,7.48c-0.61,2.45-0.31,3.58,2.56,2.77c11.32-3.18,27.07-5.05,36.82-5.84"/><path id="kvg:05800-s11" kvg:type="&#12753;" d="M92.65,75.74c1.06,1.05,1.29,2,1.24,3.49C93.75,83,94.06,84.67,94,87.25c-0.04,1.59-0.12,3.33-0.12,5.62"/></g></g></g></g></g></svg>