<svg xmlns="http://www.w3.org/2000/svg" width="109" height="109" viewBox="0 0 109 109"><g xmlns:kvg="http://kanjivg.tagaini.net" id="kvg:StrokePaths_05861" style="fill:none;stroke:#000000;stroke-width:3;stroke-linecap:round;stroke-linejoin:round;"><g id="kvg:05861" kvg:element="&#22625;"><g id="kvg:05861-g1" kvg:element="&#22303;" kvg:variant="true" kvg:position="left" kvg:radical="general"><path id="kvg:05861-s1" kvg:type="&#12752;" d="M14.75,43.39c0.76,0.38,2.24,0.44,3,0.36c6.75-0.75,14.65-2.39,20-3c1.25-0.14,2.62-0.18,3.25,0.01"/><path id="kvg:05861-s2" kvg:type="&#12753;a" d="M26.87,16.75c1.09,0.5,1.74,2.25,1.96,3.25c0.22,1,0,43.25-0.22,49.5"/><path id="kvg:05861-s3" kvg:type="&#12736;/&#12752;" d="M13.5,75.94c0.74,1.06,2.23,1.63,4.45,0.23c6.18-3.9,13.61-8.52,19.8-12.42"/></g><g id="kvg:05861-g2" kvg:element="&#30494;" kvg:variant="true" kvg:original="&#30495;" kvg:position="right"><g id="kvg:05861-g3" kvg:element="&#21313;" kvg:position="top"><path id="kvg:05861-s4" kvg:type="&#12752;" d="M81.02,12.25c-0.31,0.7-0.61,1.06-1.25,1.36c-4.14,1.98-16.67,7.44-30.06,9.46"/><path id="kvg:05861-s5" kvg:type="&#12753;" d="M48,13c0.83,0.62,0.88,1.04,1.16,1.87c0.27,0.83-0.19,6-0.19,8.6c0,6.69,11.05,6.07,20.47,6.07c13.66,0,18.83-1.1,18.83-8.14"/></g><g id="kvg:05861-g4" kvg:element="&#20855;" kvg:position="bottom"><g id="kvg:05861-g5" kvg:element="&#30446;" kvg:position="top"><path id="kvg:05861-s6" kvg:type="&#12753;" d="M54.85,36.75c0.38,0.74,0.94,2.09,0.94,3.07c0,0.98-0.13,30.2,0,31.18"/><path id="kvg:05861-s7" kvg:type="&#12757;a" d="M56.43,39.3c2.17-0.12,19.67-2.85,21.65-2.82c0.91,0.02,1.8,0.49,1.8,2.07c0,1.18,0.03,30.47-0.1,31.2"/><path id="kvg:05861-s8" kvg:type="&#12752;a" d="M55.88,48.94c4.27-0.17,20.03-2.03,23.5-2.03"/><path id="kvg:05861-s9" kvg:type="&#12752;a" d="M55.72,58.86c5.74-0.41,18.17-1.95,23.74-1.95"/><path id="kvg:05861-s10" kvg:type="&#12752;a" d="M55.91,68.91c4.3,0,18.02-1.55,23.59-1.55"/></g><g id="kvg:05861-g6" kvg:position="bottom"><path id="kvg:05861-s11" kvg:type="&#12752;" d="M42.74,49c0.61,1,1.41,1.75,1.41,3.5S43.15,74,43.15,76.25s0.21,4.56,2.42,4.25c15.86-2.25,35.63-4,44.48-3.5c1.81,0.1,4.04,0.25,5.45,0.5"/><g id="kvg:05861-g7" kvg:element="&#20843;"><path id="kvg:05861-s12" kvg:type="&#12754;" d="M55.94,85.39c0.05,0.31,0.11,0.8-0.1,1.24c-1.25,2.61-8.44,8.33-18.28,11.84"/><path id="kvg:05861-s13" kvg:type="&#12751;" d="M75.06,83.83c5.78,2.41,14.92,9.89,16.36,13.63"/></g></g></g></g></g></g></svg>