<svg xmlns="http://www.w3.org/2000/svg" width="109" height="109" viewBox="0 0 109 109"><g xmlns:kvg="http://kanjivg.tagaini.net" id="kvg:StrokePaths_058bb" style="fill:none;stroke:#000000;stroke-width:3;stroke-linecap:round;stroke-linejoin:round;"><g id="kvg:058bb" kvg:element="&#22715;"><g id="kvg:058bb-g1" kvg:element="&#22303;" kvg:variant="true" kvg:position="left" kvg:radical="general"><path id="kvg:058bb-s1" kvg:type="&#12752;" d="M13.5,40.57c0.63,0.43,1.87,0.52,2.5,0.41c4.01-0.74,15.1-3.25,19.55-3.94c1.04-0.16,2.18-0.2,2.7,0.01"/><path id="kvg:058bb-s2" kvg:type="&#12753;a" d="M24.87,14c1.09,0.5,1.96,2.23,1.96,3.25c0,7.25,0.03,41.75,0.03,52.5"/><path id="kvg:058bb-s3" kvg:type="&#12736;/&#12752;" d="M13,75.43c0.65,0.82,1.45,1.76,3.4,0.68c5.42-3,15.68-8.86,21.1-11.86"/></g><g id="kvg:058bb-g2" kvg:element="&#21959;" kvg:position="right"><g id="kvg:058bb-g3" kvg:element="&#24043;" kvg:variant="true" kvg:position="top"><g id="kvg:058bb-g4" kvg:element="&#24037;" kvg:part="1" kvg:variant="true"><path id="kvg:058bb-s4" kvg:type="&#12752;" d="M46.04,25.59c0.89,0.47,3.81,0.62,4.71,0.48c4.2-0.64,28.81-2.81,35.87-3.3c1.38-0.1,2.63,0.09,3.77,0.49"/><path id="kvg:058bb-s5" kvg:type="&#12753;" d="M64.75,12c1.69,2.01,1.69,3.22,1.69,4.83c0,6.17-0.05,30.92-0.05,38.92"/></g><g id="kvg:058bb-g5" kvg:element="&#20174;"><g id="kvg:058bb-g6" kvg:element="&#20154;" kvg:position="left"><path id="kvg:058bb-s6" kvg:type="&#12754;" d="M53.59,33.99c0.15,0.43,0.11,1.37-0.09,1.85c-2.02,4.69-5.2,10.8-11.42,15.28"/><path id="kvg:058bb-s7" kvg:type="&#12751;" d="M52.58,42.41c2.39,1.2,5.43,4.38,6.6,7.4"/></g><g id="kvg:058bb-g7" kvg:element="&#20154;" kvg:position="right"><path id="kvg:058bb-s8" kvg:type="&#12754;" d="M82.82,30.24c0.13,0.47,0.1,1.49-0.08,2.02c-1.72,5.1-4.41,11.75-9.68,16.62"/><path id="kvg:058bb-s9" kvg:type="&#12751;" d="M83.01,39.13c2.74,1.12,6.24,4.1,7.58,6.92"/></g></g><g id="kvg:058bb-g8" kvg:element="&#24037;" kvg:part="2" kvg:variant="true"><path id="kvg:058bb-s10" kvg:type="&#12752;" d="M40.25,57.21c0.72,0.22,3.28,0.45,4.49,0.35c13.09-1.09,33.32-2.71,45.23-3.04c1.95-0.05,4.3,0.37,5.27,0.72"/></g></g><g id="kvg:058bb-g9" kvg:element="&#22238;" kvg:position="bottom"><g id="kvg:058bb-g10" kvg:element="&#22231;" kvg:part="1"><path id="kvg:058bb-s11" kvg:type="&#12753;" d="M44.63,66.33c0.61,0.73,0.7,1.51,0.83,2.43C46.3,75,47.06,85.54,48.3,97.75"/><path id="kvg:058bb-s12" kvg:type="&#12757;a" d="M45.83,67.5c11.72-1.29,35.63-2.75,42.97-2.75c1.67,0,2.32,1.22,2.13,2.69c-0.91,6.96-3.13,18.2-4.95,27.6"/></g><g id="kvg:058bb-g11" kvg:element="&#21475;"><path id="kvg:058bb-s13" kvg:type="&#12753;" d="M56.36,74.79c0.29,0.21,0.59,0.39,0.72,0.66c1.01,2.13,1.49,7.92,2.35,11.75"/><path id="kvg:058bb-s14" kvg:type="&#12757;b" d="M58.17,75.68c5.94-1.11,13.71-1.89,17.12-2.17c1.24-0.1,1.99,0.61,1.81,1.21c-0.74,2.49-1.18,5.95-2.28,9.39"/><path id="kvg:058bb-s15" kvg:type="&#12752;b" d="M59.59,85.69c4.3-0.55,10.98-0.78,16.47-1.27"/></g><g id="kvg:058bb-g12" kvg:element="&#22231;" kvg:part="2"><path id="kvg:058bb-s16" kvg:type="&#12752;a" d="M48.46,95.72c8.87-0.29,27.02-1.27,37.95-2.06"/></g></g></g></g></g></svg>