<svg xmlns="http://www.w3.org/2000/svg" width="109" height="109" viewBox="0 0 109 109"><g xmlns:kvg="http://kanjivg.tagaini.net" id="kvg:StrokePaths_0591c" style="fill:none;stroke:#000000;stroke-width:3;stroke-linecap:round;stroke-linejoin:round;"><g id="kvg:0591c" kvg:element="&#22812;"><g id="kvg:0591c-g1" kvg:element="&#20128;" kvg:position="top" kvg:radical="nelson" kvg:phon="&#20134;1"><path id="kvg:0591c-s1" kvg:type="&#12753;a" d="M52.27,10.5c1.24,1.24,1.92,2.75,1.92,4.26c0,4.29-0.12,5.13-0.12,8.81"/><path id="kvg:0591c-s2" kvg:type="&#12752;" d="M20,27.47c2.58,0.33,5.52,0.3,9.16-0.04c17.5-1.67,34.28-3.92,51.31-4.98c3.54-0.22,5.63-0.21,8.28,0.33"/></g><g id="kvg:0591c-g2" kvg:position="bottom"><g id="kvg:0591c-g3" kvg:element="&#20155;" kvg:variant="true" kvg:original="&#20154;" kvg:phon="&#20134;2"><path id="kvg:0591c-s3" kvg:type="&#12754;" d="M34.26,36c0.31,2-0.06,3.89-0.76,5.34c-4.44,9.2-10.07,17.85-20.25,29.05"/><path id="kvg:0591c-s4" kvg:type="&#12753;" d="M27.73,55.9c0.77,1.1,1.26,2.51,1.26,3.84c0,8.77,0.17,23.89,0.04,32.77C29,94.78,28.97,96.68,28.97,98"/></g><g id="kvg:0591c-g4" kvg:element="&#22805;" kvg:radical="tradit"><path id="kvg:0591c-s5" kvg:type="&#12754;" d="M60.5,32c0.13,1.12,0.18,2.04-0.15,2.89C57.86,41.41,52.87,50.32,45,57"/><path id="kvg:0591c-s6" kvg:type="&#12743;" d="M62.21,39.36c1.04,0.14,2.54,0.26,3.52,0.12c4.52-0.61,8.27-1.61,11.9-3.12c3-1.25,4.38,0.75,3.47,3.02C74.75,55.25,61,78.88,38.25,90"/><path id="kvg:0591c-s7" kvg:type="&#12756;" d="M56.75,49.12c2.73,1.25,7.04,5.14,7.73,7.08"/></g><g id="kvg:0591c-g5" kvg:phon="&#20134;3"><path id="kvg:0591c-s8" kvg:type="&#12751;" d="M45,62.75c7.38,0.75,28.23,18.89,38.64,25.59c3.13,2.01,6.66,4,10.36,4.66"/></g></g></g></g></svg>