<svg xmlns="http://www.w3.org/2000/svg" width="109" height="109" viewBox="0 0 109 109"><g xmlns:kvg="http://kanjivg.tagaini.net" id="kvg:StrokePaths_05916" style="fill:none;stroke:#000000;stroke-width:3;stroke-linecap:round;stroke-linejoin:round;"><g id="kvg:05916" kvg:element="&#22806;"><g id="kvg:05916-g1" kvg:element="&#22805;" kvg:position="left" kvg:radical="general" kvg:phon="&#22805;"><path id="kvg:05916-s1" kvg:type="&#12754;" d="M35.44,15.75c0.53,1.77,0.62,3.56,0.13,5.33C33.25,29.5,26.75,44.75,16.5,55"/><path id="kvg:05916-s2" kvg:type="&#12743;" d="M36.72,28.81c1.47,0.25,3.12,0.16,4.56-0.14c3.52-0.72,5.83-1.04,9.45-2.2c3.61-1.17,4.39,1.7,3.77,3.54c-5.46,16.06-22.18,50.32-39.75,58.5"/><path id="kvg:05916-s3" kvg:type="&#12756;" d="M27.5,47c3.71,1.68,9.57,6.89,10.5,9.5"/></g><g id="kvg:05916-g2" kvg:element="&#21340;" kvg:original="&#12488;" kvg:position="right"><path id="kvg:05916-s4" kvg:type="&#12753;" d="M65.56,12.13c1.09,1.09,1.76,2.87,1.76,5.25c0,0.78-0.07,54.62-0.19,73.62c-0.02,3.16-0.04,5.33-0.06,6.13"/><path id="kvg:05916-s5" kvg:type="&#12756;" d="M71.5,42.5c7.85,3.75,20.29,15.42,22.25,21.25"/></g></g></g></svg>