<svg xmlns="http://www.w3.org/2000/svg" width="109" height="109" viewBox="0 0 109 109"><g xmlns:kvg="http://kanjivg.tagaini.net" id="kvg:StrokePaths_0592c" style="fill:none;stroke:#000000;stroke-width:3;stroke-linecap:round;stroke-linejoin:round;"><g id="kvg:0592c" kvg:element="&#22828;"><path id="kvg:0592c-s1" kvg:type="&#12757;" d="M28.5,31.25C30,32,32.75,32.75,35,32.5c6.75-0.75,34.02-4.05,37-4.5c5-0.75,6.25,0.75,5.5,4.5s-3,16-3.25,19"/><g id="kvg:0592c-g1" kvg:element="&#22823;" kvg:radical="general"><path id="kvg:0592c-s2" kvg:type="&#12752;" d="M17.38,57.11c0.97,0.44,3.46,0.77,4.51,0.61c14.86-2.22,45.86-4.97,63.36-6.14c1.34-0.09,4.5-0.08,6.75,0.42"/><g id="kvg:0592c-g2" kvg:element="&#20154;"><path id="kvg:0592c-s3" kvg:type="&#12754;" d="M52.25,11.75c0.5,1,1.24,2.16,1.24,4.32c0,2.43,0.28,11.93,0.28,14.18c0,40-11.53,56.5-35.28,67.5"/><path id="kvg:0592c-s4" kvg:type="&#12751;" d="M54,56c8.06,9.05,25.52,30.38,33.56,36.44c2.74,2.06,3.69,2.37,4.94,2.56"/></g></g></g></g></svg>