<svg xmlns="http://www.w3.org/2000/svg" width="109" height="109" viewBox="0 0 109 109"><g xmlns:kvg="http://kanjivg.tagaini.net" id="kvg:StrokePaths_05925" style="fill:none;stroke:#000000;stroke-width:3;stroke-linecap:round;stroke-linejoin:round;"><g id="kvg:05925" kvg:element="&#22821;"><g id="kvg:05925-g1" kvg:element="&#26524;" kvg:position="left"><g id="kvg:05925-g2" kvg:element="&#30000;" kvg:part="1"><g id="kvg:05925-g3" kvg:element="&#26085;"><path id="kvg:05925-s1" kvg:type="&#12753;" d="M15.38,16.44c0.47,0.66,1.13,1.44,1.13,2.32c0,0.88,3.19,24.23,3.19,24.67s0.08,0.44,0.16,1.32"/><path id="kvg:05925-s2" kvg:type="&#12757;a" d="M16.6,17.89c1.4-0.11,29.25-3.15,30.52-3.14c1.68,0.01,2.38,2.56,2.29,3.21c-0.17,1.32-4.68,24.09-4.68,24.75"/><path id="kvg:05925-s3" kvg:type="&#12752;a" d="M18.3,30.27c1.89,0,27.42-3.26,29.55-3.26"/><path id="kvg:05925-s4" kvg:type="&#12752;a" d="M20.44,42.72c3.85-0.47,19.75-2.18,24.54-2.59"/></g></g><g id="kvg:05925-g4" kvg:element="&#26408;"><path id="kvg:05925-s5" kvg:type="&#12752;" d="M11.21,55.22c0.44,0.18,1.63,0.47,2.82,0.53c3.26,0.18,25.9-2.9,35.4-3.25c1.19-0.04,1.48,0.18,2.22,0.35"/><g id="kvg:05925-g5" kvg:element="&#30000;" kvg:part="2"><g id="kvg:05925-g6" kvg:element="&#20008;" kvg:radical="nelson"><path id="kvg:05925-s6" kvg:type="&#12753;" d="M30.94,18.25c0.77,0.5,1.23,2.25,1.38,3.25c0.15,1,0,70.75-0.15,77"/></g></g><path id="kvg:05925-s7" kvg:type="&#12754;" d="M31.47,56.25c-3.65,9.81-13.13,23.7-20.72,29.25"/><path id="kvg:05925-s8" kvg:type="&#12756;/&#12751;" d="M35.07,62.5c4.4,2.05,10.55,8.2,12.62,12.9"/></g></g><g id="kvg:05925-g7" kvg:element="&#22810;" kvg:position="right"><g id="kvg:05925-g8" kvg:element="&#22805;" kvg:position="top" kvg:radical="tradit"><path id="kvg:05925-s9" kvg:type="&#12754;" d="M68.78,13.17c0.16,0.25,0.51,0.99,0.39,1.49c-0.71,2.96-7.3,11.83-14.82,17.41"/><path id="kvg:05925-s10" kvg:type="&#12743;" d="M71.54,17.49c0.28,0.02,1.44-0.02,2.22-0.11c2.55-0.29,9.62-1.62,12.98-2.64c2.41-0.73,3.29,0.58,2.75,2.07c-2.96,8.14-19.37,28.17-34.82,32.53"/><path id="kvg:05925-s11" kvg:type="&#12756;" d="M64.4,28.83c2.29,1.46,6,6.08,6.65,8.42"/></g><g id="kvg:05925-g9" kvg:element="&#22805;" kvg:position="bottom" kvg:radical="tradit"><path id="kvg:05925-s12" kvg:type="&#12754;" d="M75.74,45.75c0.28,0.41,0.6,1.23,0.24,1.99c-2.76,5.82-9.21,14.96-21.35,22.85"/><path id="kvg:05925-s13" kvg:type="&#12743;" d="M77.08,52.69c0.29,0.03,2.01,0.48,2.83,0.38c2.68-0.32,9.43-1.33,12.96-2.45c2.53-0.81,3.36,0.6,2.88,2.27C93.08,62.2,73.25,89,47.75,98.5"/><path id="kvg:05925-s14" kvg:type="&#12756;" d="M66.51,65.13c2.95,1.93,7.74,8.05,8.57,11.14"/></g></g></g></g></svg>