<svg xmlns="http://www.w3.org/2000/svg" width="109" height="109" viewBox="0 0 109 109"><g xmlns:kvg="http://kanjivg.tagaini.net" id="kvg:StrokePaths_05947" style="fill:none;stroke:#000000;stroke-width:3;stroke-linecap:round;stroke-linejoin:round;"><g id="kvg:05947" kvg:element="&#22855;"><g id="kvg:05947-g1" kvg:element="&#22823;" kvg:variant="true" kvg:position="top" kvg:radical="general"><path id="kvg:05947-s1" kvg:type="&#12752;" d="M27.85,21.94c2.32,0.52,5.22,0.34,7.54,0.06c11.08-1.34,25.13-2.82,35.24-3.58c2.63-0.2,5.25-0.43,7.74-0.08"/><path id="kvg:05947-s2" kvg:type="&#12754;" d="M52.82,8.25c0.71,0.86,0.62,1.97,0.55,3.01c-0.94,14.15-14.12,29.31-25.69,32.37"/><path id="kvg:05947-s3" kvg:type="&#12756;/&#12751;" d="M53.75,23.75c7.31,3.89,15.78,10.19,20.25,16"/></g><g id="kvg:05947-g2" kvg:element="&#21487;" kvg:position="bottom" kvg:phon="&#21487;"><g id="kvg:05947-g3" kvg:element="&#19969;" kvg:part="1"><g id="kvg:05947-g4" kvg:element="&#19968;"><path id="kvg:05947-s4" kvg:type="&#12752;" d="M12.63,50.48c3.09,1.1,7.28,0.67,10.49,0.37c13.21-1.23,44.89-4.24,60.77-5.56c3.95-0.33,8.1-0.55,11.99,0.29"/></g></g><g id="kvg:05947-g5" kvg:element="&#21475;"><path id="kvg:05947-s5" kvg:type="&#12753;" d="M30.88,62.88c0.72,0.75,1.11,1.65,1.18,2.7c0.69,3.03,1.42,7.94,2.01,12.4c0.21,1.61,0.4,3.15,0.57,4.53"/><path id="kvg:05947-s6" kvg:type="&#12757;b" d="M32.57,64.61c6.45-1.49,14.34-3,19.16-3.61c2.81-0.36,5.04-0.42,4.26,3.03c-0.77,3.44-1.38,7.15-2.62,11.92"/><path id="kvg:05947-s7" kvg:type="&#12752;b" d="M35.56,79.56c4.15-0.4,9.32-1.3,14.96-1.93c1.31-0.15,2.63-0.29,3.95-0.44"/></g><g id="kvg:05947-g6" kvg:element="&#19969;" kvg:part="2"><g id="kvg:05947-g7" kvg:element="&#20101;"><path id="kvg:05947-s8" kvg:type="&#12762;" d="M72.21,49.83c1.04,1.04,1.51,2.67,1.51,4.77c0,14.56-0.01,33.94-0.01,38.9c0,10.12-7.96,2.62-11.21,0"/></g></g></g></g></g></svg>