<svg xmlns="http://www.w3.org/2000/svg" width="109" height="109" viewBox="0 0 109 109"><g xmlns:kvg="http://kanjivg.tagaini.net" id="kvg:StrokePaths_05955" style="fill:none;stroke:#000000;stroke-width:3;stroke-linecap:round;stroke-linejoin:round;"><g id="kvg:05955" kvg:element="&#22869;"><g id="kvg:05955-g1" kvg:element="&#20134;" kvg:position="top"><g id="kvg:05955-g2" kvg:element="&#20128;" kvg:position="top" kvg:radical="nelson"><path id="kvg:05955-s1" kvg:type="&#12753;a" d="M51.78,11.25c0.89,0.34,2.35,2.17,2.35,2.86c0,2.52-0.28,6.72-0.12,8.86"/><path id="kvg:05955-s2" kvg:type="&#12752;" d="M20.27,24.71c1.29,0.06,4.25,0.42,5.51,0.33c10.17-0.69,46.76-3.25,59.67-3.43c2.13-0.03,3.22,0.03,4.81,0.42"/></g><g id="kvg:05955-g3" kvg:position="bottom"><g id="kvg:05955-g4" kvg:element="&#20031;"><path id="kvg:05955-s3" kvg:type="&#12754;" d="M46.91,25.98c0.55,0.91,0.97,1.64,0.83,2.77C46.5,38.75,43.5,52,35.83,57.5"/></g><g id="kvg:05955-g5" kvg:element="&#20101;"><path id="kvg:05955-s4" kvg:type="&#12762;" d="M62.26,24.81c0.78,0.52,1.38,2.12,1.38,3.84c0,9.99-0.2,19.21-0.2,22.02c0,5.88-2.45,3.83-6.37,0.14"/></g><path id="kvg:05955-s5" kvg:type="&#12754;" d="M35.01,32.4c0.05,0.43,0.3,1.14-0.1,1.71c-3.03,4.43-8.69,10.86-17.11,16.37"/><path id="kvg:05955-s6" kvg:type="&#12756;" d="M72.33,33.09c5.84,2.75,15.09,11.3,16.55,15.58"/></g></g><g id="kvg:05955-g6" kvg:element="&#22823;" kvg:position="bottom" kvg:radical="tradit"><path id="kvg:05955-s7" kvg:type="&#12752;" d="M18.8,68.38c1.29,0.41,4.72,0.88,7.45,0.7c18.48-1.21,42.75-3.63,59.34-4.21c2.85-0.1,5.15-0.05,7.72,0.27"/><path id="kvg:05955-s8" kvg:type="&#12754;" d="M52.35,55.12c0.58,0.63,0.89,1.36,0.87,2.73c-0.28,23.66-13.47,37.4-37.38,43.4"/><path id="kvg:05955-s9" kvg:type="&#12751;" d="M53.29,66.55c7.71,7.27,25.7,25.78,33.4,30.64c2.62,1.65,3.53,1.9,4.72,2.06"/></g></g></g></svg>