<svg xmlns="http://www.w3.org/2000/svg" width="109" height="109" viewBox="0 0 109 109"><g xmlns:kvg="http://kanjivg.tagaini.net" id="kvg:StrokePaths_05974" style="fill:none;stroke:#000000;stroke-width:3;stroke-linecap:round;stroke-linejoin:round;"><g id="kvg:05974" kvg:element="&#22900;"><g id="kvg:05974-g1" kvg:element="&#22899;" kvg:variant="true" kvg:position="left" kvg:radical="general" kvg:phon="&#22899;"><path id="kvg:05974-s1" kvg:type="&#12763;" d="M26.62,19.62c0.38,1.13,0.82,2.99,0.63,4.63c-0.97,8.06-2.62,28.25-6.52,40.18c-0.66,2.02,0.38,2.74,0.88,2.87c5.2,1.37,10.33,3.88,14.91,7.68c1.94,1.61,3.78,3.44,5.48,5.52"/><path id="kvg:05974-s2" kvg:type="&#12754;" d="M40.26,38.25c0.07,1.19,0.11,3.09-0.14,4.82C38.12,57.04,31.84,78.1,17.5,88.5"/><path id="kvg:05974-s3" kvg:type="&#12736;/&#12752;" d="M10.75,54.17c0.38,0.88,1.91,1.39,3.65,0.77c7.47-2.69,16.47-5.69,30.6-10.96"/></g><g id="kvg:05974-g2" kvg:element="&#21448;" kvg:position="right"><path id="kvg:05974-s4" kvg:type="&#12743;" d="M48.41,28.98c1.5,0.42,3.69,0.54,6.69-0.08c3-0.62,21.8-3.99,23.91-4.42c2.99-0.61,4.69,1,3.82,4.08C75.62,54.12,61,78.5,43.27,86.75"/><path id="kvg:05974-s5" kvg:type="&#12751;" d="M51.72,43.57c3.86,0.94,19.86,23.01,33.86,35.61c2.89,2.6,6.14,5.87,9.65,7.61"/></g></g></g></svg>