<svg xmlns="http://www.w3.org/2000/svg" width="109" height="109" viewBox="0 0 109 109"><g xmlns:kvg="http://kanjivg.tagaini.net" id="kvg:StrokePaths_05983" style="fill:none;stroke:#000000;stroke-width:3;stroke-linecap:round;stroke-linejoin:round;"><g id="kvg:05983" kvg:element="&#22915;"><g id="kvg:05983-g1" kvg:element="&#22899;" kvg:variant="true" kvg:position="left" kvg:radical="general"><path id="kvg:05983-s1" kvg:type="&#12763;" d="M31.06,19.37c0.4,1,0.62,2.38,0.41,3.82c-1.01,7.08-6.28,32.24-10.73,40.52c-0.91,1.7,0.41,2.36,0.91,2.52c6.77,2.16,11.95,5.47,16.42,10.19c1.92,2.02,3.7,4.31,5.43,6.87"/><path id="kvg:05983-s2" kvg:type="&#12754;" d="M43,37.39c0.5,1.23,0.64,2.59,0.34,4.43C40.93,56.66,33.62,78.38,16.5,90.5"/><path id="kvg:05983-s3" kvg:type="&#12736;/&#12752;" d="M11.75,50.47c0.5,1.41,1.77,1.77,3.75,1.39c3.88-0.74,24.09-5.6,33-7.98"/></g><g id="kvg:05983-g2" kvg:element="&#24049;" kvg:position="right" kvg:phon="&#24049;/&#37197;T"><path id="kvg:05983-s4" kvg:type="&#12757;c" d="M52.94,23.81c1.94,0.81,3.51,0.95,5.91,0.6c9.66-1.41,25.33-2.77,26.81-2.93c1.95-0.21,3.74,1.14,3.04,4.43c-0.21,0.98-2.27,11.23-3.64,20.63"/><path id="kvg:05983-s5" kvg:type="&#12752;" d="M54.54,49.87c1.21,0.38,2.44,0.78,3.99,0.67c6.17-0.42,15.1-1.67,24-2.59c1.82-0.19,3.61-0.24,5.07-0.24"/><path id="kvg:05983-s6" kvg:type="&#12767;" d="M55.79,50.87c0.92,0.92,1.36,2.13,1.36,3.51c0,6.98-0.02,15.05-0.02,21.37C57.12,89,58,90,76.5,90c17.62,0,18.99-1.75,18.99-11.24"/></g></g></g></svg>