<svg xmlns="http://www.w3.org/2000/svg" width="109" height="109" viewBox="0 0 109 109"><g xmlns:kvg="http://kanjivg.tagaini.net" id="kvg:StrokePaths_0598d" style="fill:none;stroke:#000000;stroke-width:3;stroke-linecap:round;stroke-linejoin:round;"><g id="kvg:0598d" kvg:element="&#22925;"><g id="kvg:0598d-g1" kvg:element="&#22899;" kvg:variant="true" kvg:position="left" kvg:radical="general"><path id="kvg:0598d-s1" kvg:type="&#12763;" d="M27.98,16.87c0.39,1.04,1.08,2.74,0.89,4.24c-0.98,7.39-7.32,34.16-11.63,42.79c-0.89,1.77,0.4,2.46,0.89,2.63C27.5,69.75,36,76.16,41.25,83.78"/><path id="kvg:0598d-s2" kvg:type="&#12754;" d="M39.75,36.89c0.08,1.27,0.14,4.34-0.16,6.18C37.18,57.91,31,79.75,13,90"/><path id="kvg:0598d-s3" kvg:type="&#12736;/&#12752;" d="M8.5,47.22c0.75,0.94,1.75,1.62,3.75,1.39c2.15-0.24,21.34-4.85,30.25-7.23"/></g><g id="kvg:0598d-g2" kvg:element="&#24181;" kvg:partial="true" kvg:position="right"><g id="kvg:0598d-g3" kvg:element="&#24178;"><path id="kvg:0598d-s4" kvg:type="&#12752;" d="M48.08,20.39c1.22,0.45,3.44,0.5,4.66,0.45c7.31-0.32,24.65-3.56,35.6-3.4c2.03,0.03,3.24,0.21,4.25,0.44"/><g id="kvg:0598d-g4" kvg:element="&#21313;"><path id="kvg:0598d-s5" kvg:type="&#12752;" d="M45.06,52.26c1.02,0.4,2.88,0.51,3.9,0.4c13.29-1.4,37.55-4.71,46.72-4.56c1.7,0.03,2.71,0.19,3.56,0.39"/><path id="kvg:0598d-s6" kvg:type="&#12754;/&#12753;" d="M59.38,22.98c0.87,1.02,1.62,2.35,1.62,3.92s0,4.97,0,18.31c0,13.34-0.76,37.04-16.26,48.39"/></g></g><g id="kvg:0598d-g5" kvg:element="&#24178;" kvg:partial="true"><g id="kvg:0598d-g6" kvg:element="&#21313;" kvg:partial="true"><path id="kvg:0598d-s7" kvg:type="&#12753;" d="M79.16,21.14c1.08,1.05,1.9,2.09,1.9,3.14s0,69.58,0,72.72"/></g></g></g></g></g></svg>