<svg xmlns="http://www.w3.org/2000/svg" width="109" height="109" viewBox="0 0 109 109"><g xmlns:kvg="http://kanjivg.tagaini.net" id="kvg:StrokePaths_05999" style="fill:none;stroke:#000000;stroke-width:3;stroke-linecap:round;stroke-linejoin:round;"><g id="kvg:05999" kvg:element="&#22937;"><g id="kvg:05999-g1" kvg:element="&#22899;" kvg:variant="true" kvg:position="left" kvg:radical="general"><path id="kvg:05999-s1" kvg:type="&#12763;" d="M27.3,18.62c0.37,0.93,0.53,2.44,0.34,3.78c-0.93,6.58-4.39,29.35-7.87,38.58c-0.63,1.67,0.37,2.23,0.84,2.34c6.9,1.56,12.19,4.83,16.09,9.23c1.55,1.75,2.88,3.67,4,5.74"/><path id="kvg:05999-s2" kvg:type="&#12754;" d="M39.75,34.07c0.5,1.05,0.89,2.59,0.59,4.43c-2.41,14.84-8.71,37.88-27.34,51"/><path id="kvg:05999-s3" kvg:type="&#12736;/&#12752;" d="M10,47.47c0.75,1.03,1.79,1.58,3.75,1.14c7.75-1.74,19.75-4.86,30.5-7.23"/></g><g id="kvg:05999-g2" kvg:element="&#23569;" kvg:position="right"><g id="kvg:05999-g3" kvg:element="&#23567;"><path id="kvg:05999-s4" kvg:type="&#12762;" d="M69.96,12.25c0.96,0.96,1.01,2,1.01,3.33c0,10.12-0.01,37.95-0.01,41.4c0,9.77-4.21,2.54-5.71,1.67"/><path id="kvg:05999-s5" kvg:type="&#12754;" d="M57.95,35.92c0.04,0.54,0.14,1.42-0.08,2.16c-1.54,5.38-8.04,15.76-13.33,20.72"/><path id="kvg:05999-s6" kvg:type="&#12756;" d="M84.13,34.11c5.4,2.98,12.64,10.65,13.99,15.29"/></g><g id="kvg:05999-g4" kvg:element="&#20031;"><path id="kvg:05999-s7" kvg:type="&#12754;" d="M86.27,48.07c0.11,1.17,0.08,2.79-0.48,4.45c-4.56,13.68-21.55,34.73-39.9,45.23"/></g></g></g></g></svg>