<svg xmlns="http://www.w3.org/2000/svg" width="109" height="109" viewBox="0 0 109 109"><g xmlns:kvg="http://kanjivg.tagaini.net" id="kvg:StrokePaths_059b2" style="fill:none;stroke:#000000;stroke-width:3;stroke-linecap:round;stroke-linejoin:round;"><g id="kvg:059b2" kvg:element="&#22962;"><g id="kvg:059b2-g1" kvg:element="&#22899;" kvg:variant="true" kvg:position="left" kvg:radical="general"><path id="kvg:059b2-s1" kvg:type="&#12763;" d="M28.98,16.87c0.39,1.04,1.08,2.74,0.89,4.24c-0.98,7.39-6.82,34.16-11.13,42.79c-0.89,1.77,0.4,2.46,0.89,2.63c9.38,3.22,19.13,9.22,22.63,18.25"/><path id="kvg:059b2-s2" kvg:type="&#12754;" d="M41.75,36.89c0.75,1.36,0.64,2.84,0.34,4.68C39.68,56.41,32.23,78.96,15,90"/><path id="kvg:059b2-s3" kvg:type="&#12736;/&#12752;" d="M10,46.72c0.75,0.94,1.75,1.62,3.75,1.39c2.15-0.24,21-4.36,31.75-6.73"/></g><g id="kvg:059b2-g2" kvg:element="&#26086;" kvg:position="right"><g id="kvg:059b2-g3" kvg:element="&#26085;" kvg:position="top"><path id="kvg:059b2-s4" kvg:type="&#12753;" d="M55.06,17.83c0.52,1.32,1.04,1.98,1.04,3.75c0,1.76-0.35,50.29-0.35,51.17c0,0.88,0.17,0.88,0.35,2.65"/><path id="kvg:059b2-s5" kvg:type="&#12757;a" d="M56.97,19.83c2.94-0.22,25.33-2.82,28.02-3.09c2.23-0.22,3.67,2.44,3.5,3.75c-0.35,2.65-0.52,30.43-0.51,49.83c0,2-0.18,2.87-0.18,4.19"/><path id="kvg:059b2-s6" kvg:type="&#12752;a" d="M56.46,45.41c3.98,0,26.65-2.21,31.16-2.21"/><path id="kvg:059b2-s7" kvg:type="&#12752;a" d="M55.94,73.56c9.11-1.01,23.28-2.5,31.85-2.95"/></g><g id="kvg:059b2-g4" kvg:element="&#19968;" kvg:position="bottom"><path id="kvg:059b2-s8" kvg:type="&#12752;" d="M45.3,90.09c1.71,1.11,4.84,1.22,6.55,1.11C63,90.5,82.5,88.5,95.47,88.35c2.85-0.03,4.55,0.53,5.98,1.09"/></g></g></g></g></svg>