<svg xmlns="http://www.w3.org/2000/svg" width="109" height="109" viewBox="0 0 109 109"><g xmlns:kvg="http://kanjivg.tagaini.net" id="kvg:StrokePaths_059cb" style="fill:none;stroke:#000000;stroke-width:3;stroke-linecap:round;stroke-linejoin:round;"><g id="kvg:059cb" kvg:element="&#22987;"><g id="kvg:059cb-g1" kvg:element="&#22899;" kvg:variant="true" kvg:position="left" kvg:radical="general"><path id="kvg:059cb-s1" kvg:type="&#12763;" d="M30.62,20.12c0.88,1.26,1.07,2.99,0.88,4.63c-0.97,8.06-4.74,28.25-9.02,37.68c-0.88,1.94,0.37,2.8,0.88,2.87c4.97,0.64,10.79,3.67,15.66,8.56c2.37,2.38,4.52,5.2,6.24,8.39"/><path id="kvg:059cb-s2" kvg:type="&#12754;" d="M43.75,38.75c0.08,1.16,0.14,3.99-0.17,5.67c-2.52,13.62-9.8,33.19-27.83,43.33"/><path id="kvg:059cb-s3" kvg:type="&#12736;/&#12752;" d="M13,48.46c0.75,1.04,2.25,1.29,4.25,1.04c2.15-0.27,22.09-5.13,31-7.78"/></g><g id="kvg:059cb-g2" kvg:element="&#21488;" kvg:position="right" kvg:phon="&#21488;"><g id="kvg:059cb-g3" kvg:element="&#21430;"><path id="kvg:059cb-s4" kvg:type="&#12764;" d="M72.66,14.92c0.59,1.83-0.09,3.9-1,5.76c-5.9,12.07-10.15,20.07-16.41,28.98c-2.66,3.78-0.74,5.04,2.51,4.19c9-2.35,15.5-4.35,29.92-8.45"/><path id="kvg:059cb-s5" kvg:type="&#12756;" d="M80.67,36.83C85.02,39.94,91.91,49.62,93,54.46"/></g><g id="kvg:059cb-g4" kvg:element="&#21475;"><path id="kvg:059cb-s6" kvg:type="&#12753;" d="M55.37,65.21c1.01,0.54,1.63,1.79,1.84,3.03c0.97,5.83,1.89,13.59,2.71,20c0.15,1.17,0.3,2.29,0.44,3.36"/><path id="kvg:059cb-s7" kvg:type="&#12757;b" d="M57.84,66.93c12.13-2.51,21.57-3.92,28.52-4.76c3.35-0.4,5.46,0.32,4.67,3.97c-1.53,7.12-2.83,12.4-4.37,19.26"/><path id="kvg:059cb-s8" kvg:type="&#12752;b" d="M61.49,88.74c9.87-0.91,13.42-1.41,24.01-2.1c0.96-0.06,1.97-0.13,3.05-0.19"/></g></g></g></g></svg>