<svg xmlns="http://www.w3.org/2000/svg" width="109" height="109" viewBox="0 0 109 109"><g xmlns:kvg="http://kanjivg.tagaini.net" id="kvg:StrokePaths_059da" style="fill:none;stroke:#000000;stroke-width:3;stroke-linecap:round;stroke-linejoin:round;"><g id="kvg:059da" kvg:element="&#23002;"><g id="kvg:059da-g1" kvg:element="&#22899;" kvg:variant="true" kvg:position="left" kvg:radical="general"><path id="kvg:059da-s1" kvg:type="&#12763;" d="M26.98,16.87c0.39,1.04,1.08,2.74,0.89,4.24c-0.98,7.39-6.82,34.16-11.13,42.79c-0.89,1.77,0.38,2.52,0.89,2.63C27,68.5,35.5,76.16,40.75,83.78"/><path id="kvg:059da-s2" kvg:type="&#12754;" d="M39.75,36.89c0.08,1.27,0.14,4.34-0.16,6.18C37.18,57.91,30.23,78.96,13,90"/><path id="kvg:059da-s3" kvg:type="&#12736;/&#12752;" d="M8.5,47.22c0.75,0.94,1.75,1.62,3.75,1.39c2.15-0.24,20.5-4.36,31.75-6.73"/></g><g id="kvg:059da-g2" kvg:element="&#20806;" kvg:position="right"><g id="kvg:059da-g3" kvg:element="&#20799;" kvg:part="1" kvg:position="left"><g id="kvg:059da-g4" kvg:element="&#20031;"><path id="kvg:059da-s4" kvg:type="&#12754;" d="M60.04,13.91c0.96,1.09,1.39,3.58,1.39,4.82c0,7.79,0.06,24.67,0.06,33.26c0,21.27-7.99,34.52-19.59,42.2"/></g><g id="kvg:059da-g5" kvg:element="&#20907;"><g id="kvg:059da-g6" kvg:position="top"><path id="kvg:059da-s5" kvg:type="&#12756;" d="M46.66,33.31c2.8,2.26,7.25,9.3,7.95,12.82"/></g><g id="kvg:059da-g7" kvg:position="bottom"><path id="kvg:059da-s6" kvg:type="&#12736;" d="M42.61,65.75c1.04,0.49,2.09,0.65,2.88,0.1c1.1-0.77,9-7.12,13.31-10.82"/></g></g></g><g id="kvg:059da-g8" kvg:position="right"><g id="kvg:059da-g9" kvg:element="&#20799;" kvg:part="2"><path id="kvg:059da-s7" kvg:type="&#12767;" d="M73.28,12.69c0.97,1.06,1.46,2.83,1.49,4.47c0.14,7.34-0.02,61.79-0.02,66.79c0,11.66,3.76,10.79,12.19,10.79c10.31,0,11.56-1.73,11.56-8.68"/></g><path id="kvg:059da-s8" kvg:type="&#12754;" d="M91.14,28.25c0.04,0.39,0.09,1-0.08,1.55c-0.98,3.27-6.64,10.45-14.37,14.84"/><path id="kvg:059da-s9" kvg:type="&#12756;" d="M77.45,50.27c5.28,3.24,13.63,13.3,14.95,18.34"/></g></g></g></g></svg>