<svg xmlns="http://www.w3.org/2000/svg" width="109" height="109" viewBox="0 0 109 109"><g xmlns:kvg="http://kanjivg.tagaini.net" id="kvg:StrokePaths_059f6" style="fill:none;stroke:#000000;stroke-width:3;stroke-linecap:round;stroke-linejoin:round;"><g id="kvg:059f6" kvg:element="&#23030;"><g id="kvg:059f6-g1" kvg:element="&#22899;" kvg:variant="true" kvg:position="left" kvg:radical="general"><path id="kvg:059f6-s1" kvg:type="&#12763;" d="M28.62,18.87c0.6,1.77,0.59,3.83,0.2,5.64c-2.46,11.58-7.09,29.55-11.05,38.93c-1.07,2.53-1.06,3.54,1.49,4.55c5.3,2.09,11.44,5.33,16.73,10.72c1.89,1.93,3.67,4.1,5.27,6.54"/><path id="kvg:059f6-s2" kvg:type="&#12754;" d="M39.76,37.75c0.62,1.88,0.74,3.75,0.35,6.37c-2.33,15.29-6.6,36.13-25.35,48.38"/><path id="kvg:059f6-s3" kvg:type="&#12736;/&#12752;" d="M10,50.21c0.75,1.04,1.75,1.79,3.75,1.54c2.15-0.27,22.84-5.63,31.75-8.28"/></g><g id="kvg:059f6-g2" kvg:element="&#21512;" kvg:position="right"><g id="kvg:059f6-g3" kvg:position="top"><g id="kvg:059f6-g4" kvg:element="&#20154;"><path id="kvg:059f6-s4" kvg:type="&#12754;" d="M65.42,12.5c0.06,1.05-0.19,3.3-0.62,4.7c-3.55,11.42-8.92,26.55-20.98,40.23"/><path id="kvg:059f6-s5" kvg:type="&#12751;" d="M66.08,16.58c5.42,8.17,15.79,22.3,22.82,31.14c1.85,2.33,3.97,4.4,7.03,6.34"/></g><g id="kvg:059f6-g5" kvg:element="&#19968;"><path id="kvg:059f6-s6" kvg:type="&#12752;" d="M55.55,51.39c1.83,0.48,3.94,0.29,5.21,0.05c4.37-0.82,9.49-1.57,13.24-1.94c1.46-0.15,3.17-0.27,4.6,0.16"/></g></g><g id="kvg:059f6-g6" kvg:element="&#21475;" kvg:position="bottom"><path id="kvg:059f6-s7" kvg:type="&#12753;" d="M50.84,66.58c0.91,1.15,1.55,2.88,1.76,4.3c1.18,7.65,2.15,12.95,3,18.88c0.23,1.61,0.46,3.27,0.68,5.03"/><path id="kvg:059f6-s8" kvg:type="&#12757;b" d="M53.06,68.09c10.03-1.46,21.11-2.57,27.08-3.34c3.64-0.46,4.74,1.17,4.14,4.65c-1.07,6.23-2.41,13.22-4.05,21.05"/><path id="kvg:059f6-s9" kvg:type="&#12752;b" d="M57,93.31c6.64-0.58,13.69-1.15,21.37-1.7c1.43-0.1,2.88-0.2,4.35-0.3"/></g></g></g></g></svg>