<svg xmlns="http://www.w3.org/2000/svg" width="109" height="109" viewBox="0 0 109 109"><g xmlns:kvg="http://kanjivg.tagaini.net" id="kvg:StrokePaths_05a11" style="fill:none;stroke:#000000;stroke-width:3;stroke-linecap:round;stroke-linejoin:round;"><g id="kvg:05a11" kvg:element="&#23057;"><g id="kvg:05a11-g1" kvg:element="&#27801;" kvg:position="top"><g id="kvg:05a11-g2" kvg:element="&#27701;" kvg:variant="true" kvg:original="&#27700;" kvg:position="left"><path id="kvg:05a11-s1" kvg:type="&#12756;" d="M24.88,12.75c3.66,1.14,9.45,4.67,10.37,6.43"/><path id="kvg:05a11-s2" kvg:type="&#12756;" d="M17.5,26.76c3.88,0.86,10.03,3.54,11,4.88"/><path id="kvg:05a11-s3" kvg:type="&#12736;" d="M18.75,56.39c1.78,1.07,3.41,1.61,4.53,0.29c3.26-3.84,7.01-9.03,9.97-13.93"/></g><g id="kvg:05a11-g3" kvg:element="&#23569;" kvg:position="right"><g id="kvg:05a11-g4" kvg:element="&#23567;"><path id="kvg:05a11-s4" kvg:type="&#12762;" d="M64.36,11.75c0.05,0.23,0.73,1.22,0.78,2.7c0.25,7.13-0.16,18.04-0.16,20.47c0,6.89-4.17,1.44-5.11,0.83"/><path id="kvg:05a11-s5" kvg:type="&#12754;" d="M53.18,21.12c0.03,0.34,0.12,0.89-0.06,1.36c-1.32,3.39-6.91,9.92-11.45,13.04"/><path id="kvg:05a11-s6" kvg:type="&#12756;" d="M80.25,20.13c5.11,2.72,11.97,9.7,13.25,13.93"/></g><g id="kvg:05a11-g5" kvg:element="&#20031;"><path id="kvg:05a11-s7" kvg:type="&#12754;" d="M79.9,27.31c0.1,0.69,0.31,1.78-0.21,2.75C75.41,38.08,58.95,51.61,42.25,57"/></g></g></g><g id="kvg:05a11-g6" kvg:element="&#22899;" kvg:position="bottom" kvg:radical="general"><path id="kvg:05a11-s8" kvg:type="&#12763;" d="M47.77,60.12c0.43,1.02,0.13,2.3-0.22,3.57c-1.7,6.2-6.55,13.07-10.84,18.08c-1.27,1.48-0.24,1.86,0.65,1.87C49.93,83.79,70.5,91.43,77,99.41"/><path id="kvg:05a11-s9" kvg:type="&#12754;" d="M68.33,65.36c0.12,0.82,0.21,2.81-0.24,4C64.45,78.97,53.97,92.6,28,99.75"/><path id="kvg:05a11-s10" kvg:type="&#12752;" d="M12.38,70.93c2.21,0.57,4.58,0.96,5.64,0.87c22.39-1.8,51.34-5.05,72.72-5.3c1.77-0.02,4.82,0.35,6.26,1"/></g></g></g></svg>