<svg xmlns="http://www.w3.org/2000/svg" width="109" height="109" viewBox="0 0 109 109"><g xmlns:kvg="http://kanjivg.tagaini.net" id="kvg:StrokePaths_05a36" style="fill:none;stroke:#000000;stroke-width:3;stroke-linecap:round;stroke-linejoin:round;"><g id="kvg:05a36" kvg:element="&#23094;"><g id="kvg:05a36-g1" kvg:element="&#21462;" kvg:position="top"><g id="kvg:05a36-g2" kvg:element="&#32819;" kvg:position="left"><path id="kvg:05a36-s1" kvg:type="&#12752;" d="M15.46,17.2c0.88,0.31,2.49,0.39,3.37,0.31c7.64-0.66,19.25-2.5,31.14-2.86c1.46-0.04,2.34,0.15,3.07,0.31"/><path id="kvg:05a36-s2" kvg:type="&#12753;a" d="M25.65,19.11c0.26,0.73,1.04,1.45,1.04,2.31s-0.13,26.55-0.13,29.64"/><path id="kvg:05a36-s3" kvg:type="&#12752;a" d="M28.57,27.86c7.45-1.08,9.48-1.23,16.06-1.75"/><path id="kvg:05a36-s4" kvg:type="&#12752;a" d="M28.32,38.07c6.08-0.75,8.51-1.06,15.94-1.58"/><path id="kvg:05a36-s5" kvg:type="&#12736;" d="M16.15,52.53c0.25,0.61,2.36,0.96,3.22,0.71c3.45-1.01,21.01-6.71,26.31-8.33"/><path id="kvg:05a36-s6" kvg:type="&#12753;" d="M45.12,17.02c0.81,0.77,0.89,0.91,0.89,1.77S46.14,48.95,46.14,56"/></g><g id="kvg:05a36-g3" kvg:element="&#21448;" kvg:position="right"><path id="kvg:05a36-s7" kvg:type="&#12743;" d="M58.65,19.69c1.21,0.24,1.36,0.6,3.78,0.24c2.42-0.36,18.84-3.96,20.5-4.32c1.66-0.36,2.8,1.3,2.27,2.63C80,31.25,70.5,44.75,56.9,53.11"/><path id="kvg:05a36-s8" kvg:type="&#12751;" d="M57.49,24.59c3.61,1.23,19.94,20.73,33.24,27.66c2.04,1.06,3.33,2.03,5.12,2.44"/></g></g><g id="kvg:05a36-g4" kvg:element="&#22899;" kvg:position="bottom" kvg:radical="general"><path id="kvg:05a36-s9" kvg:type="&#12763;" d="M50.39,58.62c0.44,1.04,0.13,2.35-0.22,3.64c-1.74,6.34-5.68,11.41-11.23,18.7c-1.21,1.58-0.25,1.9,0.67,1.91C52.48,83.04,73.58,90.85,80.25,99"/><path id="kvg:05a36-s10" kvg:type="&#12754;" d="M69.38,63.18c0.12,0.84,0.09,2.85-0.24,4.11C66.25,78,51.5,93.75,29,98.5"/><path id="kvg:05a36-s11" kvg:type="&#12752;" d="M16.88,70.93c2.12,0.57,4.39,0.96,5.41,0.87C43.75,70,71,68.25,91.5,68c1.7-0.02,4.62,0.35,6,1"/></g></g></g></svg>