<svg xmlns="http://www.w3.org/2000/svg" width="109" height="109" viewBox="0 0 109 109"><g xmlns:kvg="http://kanjivg.tagaini.net" id="kvg:StrokePaths_05a40" style="fill:none;stroke:#000000;stroke-width:3;stroke-linecap:round;stroke-linejoin:round;"><g id="kvg:05a40" kvg:element="&#23104;"><g id="kvg:05a40-g1" kvg:element="&#22899;" kvg:variant="true" kvg:position="left" kvg:radical="general"><path id="kvg:05a40-s1" kvg:type="&#12763;" d="M26.48,17.37c0.39,1.04,1.08,2.74,0.89,4.24C26.38,29,20.55,54.27,16.23,62.9c-0.89,1.77,0.4,2.46,0.89,2.63C26.5,68.75,35,76.5,39.75,85.28"/><path id="kvg:05a40-s2" kvg:type="&#12754;" d="M37.75,36.89c0.08,1.27,0.14,4.34-0.16,6.18C35.18,57.91,28.75,79,11,90"/><path id="kvg:05a40-s3" kvg:type="&#12736;/&#12752;" d="M8,46.72c0.75,0.94,1.75,1.62,3.75,1.39c2.15-0.24,21.34-4.35,30.25-6.73"/></g><g id="kvg:05a40-g2" kvg:element="&#38463;" kvg:position="right"><g id="kvg:05a40-g3" kvg:element="&#11990;" kvg:variant="true" kvg:original="&#38428;" kvg:position="left"><path id="kvg:05a40-s4" kvg:type="&#12743;" d="M43.75,19.75c1.1,0.05,2.28,0.55,3.5,0.5c4.6-0.19,11.1-1.53,13-2.33c2.41-1.01,4.42,1.01,3.35,3.37c-1.07,2.36-6.42,13.8-8.29,17.16"/><path id="kvg:05a40-s5" kvg:type="&#12757;va" d="M55.31,39.45c9.94,7.8,11.19,37.55,1.51,28.55"/><path id="kvg:05a40-s6" kvg:type="&#12753;" d="m 48.497083,21.60625 c -0.274166,9.018125 0.0094,60.450625 -0.274166,73.519792"/></g><g id="kvg:05a40-g4" kvg:element="&#21487;" kvg:position="right"><g id="kvg:05a40-g5" kvg:element="&#19969;" kvg:part="1"><g id="kvg:05a40-g6" kvg:element="&#19968;"><path id="kvg:05a40-s7" kvg:type="&#12752;" d="M70.35,20.29c1.22,0.55,3.45,0.57,4.67,0.55c4.73-0.09,15.98-2.59,21.71-2.79c2.04-0.07,3.25,0.26,4.27,0.54"/></g></g><g id="kvg:05a40-g7" kvg:element="&#21475;"><path id="kvg:05a40-s8" kvg:type="&#12753;" d="M67.56,39.36c0.32,0.35,0.65,0.64,0.79,1.08c1.11,3.47,2.95,13.53,3.71,19.75"/><path id="kvg:05a40-s9" kvg:type="&#12757;b" d="M68.68,40.24c4.57-0.74,10.64-1.83,14.41-2.29c1.37-0.17,2.2,0.99,2,1.96c-0.82,4.05-1.77,9.86-2.98,15.46"/><path id="kvg:05a40-s10" kvg:type="&#12752;b" d="M71.71,57.07c4.42-0.51,6.09-0.9,12.16-1.7"/></g><g id="kvg:05a40-g8" kvg:element="&#19969;" kvg:part="2"><g id="kvg:05a40-g9" kvg:element="&#20101;"><path id="kvg:05a40-s11" kvg:type="&#12762;" d="M92.73,21.63c0.07,0.48,1.34,1.51,1.41,4.57c0.32,14.7-0.21,58.24-0.21,63.25c0,8.58-6.08,0.52-7.29-0.74"/></g></g></g></g></g></g></svg>