<svg xmlns="http://www.w3.org/2000/svg" width="109" height="109" viewBox="0 0 109 109"><g xmlns:kvg="http://kanjivg.tagaini.net" id="kvg:StrokePaths_05afa" style="fill:none;stroke:#000000;stroke-width:3;stroke-linecap:round;stroke-linejoin:round;"><g id="kvg:05afa" kvg:element="&#23290;"><g id="kvg:05afa-g1" kvg:element="&#22899;" kvg:variant="true" kvg:position="left" kvg:radical="general"><path id="kvg:05afa-s1" kvg:type="&#12763;" d="M26.48,16.87c0.39,1.04,1.08,2.74,0.89,4.24c-0.98,7.39-6.81,34.15-11.13,42.79c-0.89,1.77,0.4,2.46,0.89,2.63C26.5,69.75,35,76.5,39.75,85.28"/><path id="kvg:05afa-s2" kvg:type="&#12754;" d="M37.75,37.39c0.08,1.27,0.14,4.34-0.16,6.18C35.18,58.41,28.23,79.46,11,90.5"/><path id="kvg:05afa-s3" kvg:type="&#12736;/&#12752;" d="M8,46.72c0.75,0.94,1.75,1.62,3.75,1.39c2.15-0.24,21.34-4.35,30.25-6.73"/></g><g id="kvg:05afa-g2" kvg:element="&#38291;" kvg:variant="true" kvg:position="right"><g id="kvg:05afa-g3" kvg:element="&#38272;" kvg:position="kamae"><g id="kvg:05afa-g4" kvg:position="left"><path id="kvg:05afa-s4" kvg:type="&#12753;" d="M47.89,18.16c0.6,0.45,1.06,2.38,1.18,3.27c0.12,0.89-0.08,69.28-0.2,74.84"/><path id="kvg:05afa-s5" kvg:type="&#12757;a" d="M49.23,19.12c2.01-0.1,14.78-2.63,16.6-2.75c1.52-0.1,2.31,0.9,2.39,1.69c0.11,1.21-1.77,24.56-1.77,25.15"/><path id="kvg:05afa-s6" kvg:type="&#12752;a" d="M49.59,30.78c4.93-0.58,12.59-1.59,17.34-2.22"/><path id="kvg:05afa-s7" kvg:type="&#12752;a" d="M49.23,43.74c6.68-1.14,11.26-1.5,17.16-2.02"/></g><g id="kvg:05afa-g5" kvg:position="right"><path id="kvg:05afa-s8" kvg:type="&#12753;" d="M76.68,16.3c0.34,0.53,0.69,1.65,0.69,2.36c0,0.7-0.12,23,0,23.7"/><path id="kvg:05afa-s9" kvg:type="&#12742;a" d="M77.44,17.73c1.94-0.09,16.73-2.88,18.5-2.99c1.48-0.09,2.33,1.46,2.31,1.99c-0.38,16.2-0.39,62-0.39,73.75c0,10.01-5.93,1.29-7.06,0.22"/><path id="kvg:05afa-s10" kvg:type="&#12752;a" d="M77.78,28.45c2.63,0,16.25-1.66,19.22-1.66"/><path id="kvg:05afa-s11" kvg:type="&#12752;a" d="M77.94,40.44c3.89,0,14.3-1.48,19.33-1.48"/></g></g><g id="kvg:05afa-g6" kvg:element="&#26085;" kvg:variant="true"><g id="kvg:05afa-g7" kvg:element="&#26376;"><path id="kvg:05afa-s12" kvg:type="&#12754;" d="M62.45,51.48c0.31,0.51,0.51,1.02,0.61,1.52c0.1,0.5,0.09,14.07-0.24,18.26c-0.47,5.97-0.94,11.99-5.32,18.85"/><path id="kvg:05afa-s13" kvg:type="&#12742;a" d="M63.57,52.86c2.1-0.05,12.65-1.92,14.21-2.02c2.8-0.19,3.5,1.07,3.5,2.19c0,2.65-0.53,14.92-0.53,29.96c0,10.34-4.41,4.42-6.2,3.17"/><path id="kvg:05afa-s14" kvg:type="&#12752;a" d="M63.57,62.87c4.61-0.29,12.53-1.68,16.58-1.7"/><path id="kvg:05afa-s15" kvg:type="&#12752;a" d="M63.51,73c3.79-0.07,11.14-1.05,16.29-1.39"/></g></g></g></g></g></svg>