<svg xmlns="http://www.w3.org/2000/svg" width="109" height="109" viewBox="0 0 109 109"><g xmlns:kvg="http://kanjivg.tagaini.net" id="kvg:StrokePaths_05b45" style="fill:none;stroke:#000000;stroke-width:3;stroke-linecap:round;stroke-linejoin:round;"><g id="kvg:05b45" kvg:element="&#23365;"><g id="kvg:05b45-g1" kvg:element="&#22899;" kvg:variant="true" kvg:position="left" kvg:radical="general"><path id="kvg:05b45-s1" kvg:type="&#12763;" d="M24.48,16.37c0.39,1.04,1.08,2.74,0.89,4.24C24.38,28,18.05,52.26,13.73,60.9c-0.89,1.77,0.4,2.46,0.89,2.63C24,66.75,32,72.66,37.25,80.28"/><path id="kvg:05b45-s2" kvg:type="&#12754;" d="M33.01,36.39c0.07,1.21,0.12,4.16-0.14,5.92c-2.14,14.21-8.31,34.36-23.62,44.94"/><path id="kvg:05b45-s3" kvg:type="&#12736;/&#12752;" d="M8,44.06c0.66,1.05,1.53,1.8,3.28,1.55c1.88-0.27,14.22-3.36,26.47-6.48"/></g><g id="kvg:05b45-g2" kvg:position="right"><g id="kvg:05b45-g3" kvg:element="&#20174;"><g id="kvg:05b45-g4" kvg:element="&#20154;" kvg:position="left"><path id="kvg:05b45-s4" kvg:type="&#12754;" d="M49.55,16.24c0.16,0.29,0.12,0.89,0.11,1.5c-0.11,4.87-1.9,13.86-6.44,18.14"/><path id="kvg:05b45-s5" kvg:type="&#12751;" d="M49.46,27.07c1.82,0.98,4.16,3.6,5.04,6.08"/></g><g id="kvg:05b45-g5" kvg:element="&#20154;" kvg:position="right"><path id="kvg:05b45-s6" kvg:type="&#12754;" d="M64.05,15.24c0.16,0.29,0.12,0.89,0.11,1.5c-0.11,4.87-1.9,13.86-6.45,18.14"/><path id="kvg:05b45-s7" kvg:type="&#12751;" d="M63.96,26.07c2.55,1.27,5.8,4.64,7.04,7.83"/></g></g><g id="kvg:05b45-g6" kvg:element="&#25096;" kvg:part="1"><g id="kvg:05b45-g7" kvg:element="&#24331;" kvg:part="1"><path id="kvg:05b45-s8" kvg:type="&#12752;" d="M40.5,43.2c1.14,0.54,3.22,0.64,4.36,0.54c8.89-0.74,34.69-5.49,44.95-6.23c1.89-0.14,3.04,0.26,3.99,0.53"/></g></g><g id="kvg:05b45-g8" kvg:element="&#38893;"><g id="kvg:05b45-g9" kvg:element="&#38750;"><g id="kvg:05b45-g10" kvg:position="left"><path id="kvg:05b45-s9" kvg:type="&#12754;" d="M51.09,48.16c0.49,0.29,0.79,1.3,0.89,1.88c0.1,0.58,0,32.32-0.1,35.93"/><path id="kvg:05b45-s10" kvg:type="&#12752;c" d="M59.14,47c0.49,0.29,0.79,1.3,0.89,1.88c0.1,0.58,0,30.4-0.1,34.01"/><path id="kvg:05b45-s11" kvg:type="&#12752;c" d="M38.1,56.74c0.43,0.22,1.21,0.22,1.63,0.22c3.47-0.01,7.56-0.38,10.72-0.59c0.71-0.05,1.04-0.08,1.49-0.08"/><path id="kvg:05b45-s12" kvg:type="&#12736;" d="M38.71,66.23c0.43,0.22,1.21,0.22,1.63,0.22c3.47-0.01,6.83-0.67,9.99-0.88c0.71-0.05,1.04-0.08,1.49-0.08"/></g><g id="kvg:05b45-g11" kvg:position="right"><path id="kvg:05b45-s13" kvg:type="&#12753;" d="M38.03,75.71c0.43,0.22,1.21,0.22,1.63,0.22c3.47-0.01,7.28-0.67,10.67-1.46c0.7-0.16,1.04-0.08,1.49-0.08"/><path id="kvg:05b45-s14" kvg:type="&#12752;b" d="M60.22,54.65c0.57,0,0.53-0.01,0.95-0.07c2.71-0.38,6.3-1.02,8.9-1.38c0.71-0.1,1.14,0.11,1.49,0.21"/><path id="kvg:05b45-s15" kvg:type="&#12752;b" d="M60.11,63.27c0.57,0,0.53-0.01,0.95-0.07c2.72-0.38,6.53-1.02,9.12-1.38c0.71-0.1,1.14,0.1,1.49,0.21"/><path id="kvg:05b45-s16" kvg:type="&#12752;b" d="M60.22,71.25c0.57,0,0.53-0.01,0.95-0.07c2.71-0.38,6.98-1.02,9.58-1.38c0.71-0.1,1.14,0.11,1.49,0.21"/></g></g><g id="kvg:05b45-g12" kvg:element="&#19968;"><path id="kvg:05b45-s17" kvg:type="&#12752;" d="M39.08,89.93c0.92,1.07,3.17,0.66,3.88,0.35c10.04-4.52,18.79-7.52,28.25-11.7"/></g></g><g id="kvg:05b45-g13" kvg:element="&#25096;" kvg:part="2"><g id="kvg:05b45-g14" kvg:element="&#24331;" kvg:part="2"><path id="kvg:05b45-s18" kvg:type="&#12738;" d="M73.5,13.5c1.06,1.72,1.24,2.2,1.46,5.89c1.85,30.92,8.61,61.11,21.58,72.64c4.17,3.7,3.58,0.74,3.04-6.87"/></g><g id="kvg:05b45-g15" kvg:element="&#20031;"><path id="kvg:05b45-s19" kvg:type="&#12754;" d="M91.84,47.39c0.07,1.02,0.14,2.62-0.13,4.08c-1.58,8.6-10.67,28.44-23.11,39.99"/></g><g id="kvg:05b45-g16" kvg:element="&#24331;" kvg:part="3"><g id="kvg:05b45-g17" kvg:element="&#20022;"><path id="kvg:05b45-s20" kvg:type="&#12756;" d="M84.99,18.5c2.38,2,6.2,6.57,7.31,10"/></g></g></g></g></g></g></svg>