<svg xmlns="http://www.w3.org/2000/svg" width="109" height="109" viewBox="0 0 109 109"><g xmlns:kvg="http://kanjivg.tagaini.net" id="kvg:StrokePaths_05b50" style="fill:none;stroke:#000000;stroke-width:3;stroke-linecap:round;stroke-linejoin:round;"><g id="kvg:05b50" kvg:element="&#23376;" kvg:radical="general"><path id="kvg:05b50-s1" kvg:type="&#12758;" d="M33.28,19.04c1.84,0.71,3.7,0.86,5.4,0.63c4.95-0.67,27.95-4.58,29.86-4.92c3.46-0.62,4.06,1.36,2.11,3.58c-1.95,2.22-11.41,13.17-16.35,17.19"/><path id="kvg:05b50-s2" kvg:type="&#12757;v" d="M52.48,37.74c6.42,2.97,11.75,30.73,5.24,52.57c-2.8,9.38-8.09,2.96-10.47,0.99"/><path id="kvg:05b50-s3" kvg:type="&#12752;" d="M12.25,51.48c3.75,1.14,8.79,1.03,12.48,0.49c16.77-2.47,42.86-5.84,58.53-6.75c4.26-0.25,9.11-0.34,13.11,0.57"/></g></g></svg>