<svg xmlns="http://www.w3.org/2000/svg" width="109" height="109" viewBox="0 0 109 109"><g xmlns:kvg="http://kanjivg.tagaini.net" id="kvg:StrokePaths_05b55" style="fill:none;stroke:#000000;stroke-width:3;stroke-linecap:round;stroke-linejoin:round;"><g id="kvg:05b55" kvg:element="&#23381;"><g id="kvg:05b55-g1" kvg:element="&#20035;" kvg:position="top"><g id="kvg:05b55-g2" kvg:element="&#20031;"><path id="kvg:05b55-s1" kvg:type="&#12754;" d="M44.76,18.23c0.51,0.78,0.3,2.57-0.24,3.77c-4.77,10.5-10.27,21.5-29.14,33.66"/></g><path id="kvg:05b55-s2" kvg:type="&#12748;" d="M28.99,15.95c1.41,0.5,3.42,0.6,4.82,0.5c10.86-0.83,27.53-3.31,37.98-4.47c2.62-0.29,3.92,1.15,3.02,2.48c-2.81,4.13-6.14,12.06-8.95,16.35c-0.56,0.85-0.2,2.33,1.41,1.98c4.62-0.99,14.24-2.37,18.57-3.48c3.16-0.81,4.02,1.39,3.21,3.98c-2.8,8.96-5.07,15.2-9.18,22.58c-2.96,5.31-6.74,1.65-8.35-0.66"/></g><g id="kvg:05b55-g3" kvg:element="&#23376;" kvg:position="bottom" kvg:radical="general"><path id="kvg:05b55-s3" kvg:type="&#12758;" d="M35.07,45.34c1.02,0.24,2.96,0.63,4.5,0.42C41.46,45.5,66.81,42,68.6,42c1.79,0,3.24,1.24,1.44,2.71c-1.79,1.47-12,9.72-16.54,12.39"/><path id="kvg:05b55-s4" kvg:type="&#12757;v" d="M50.86,57.79c6.08,2.05,13.14,21.17,6.97,36.23c-2.65,6.46-6.82,4.23-9.93,0.68"/><path id="kvg:05b55-s5" kvg:type="&#12752;" d="M20.58,69.89c1.2,0.72,4.32,0.97,6.48,0.79c7.57-0.63,50.93-5.83,60.09-5.2c2.16,0.15,4.08,0.24,5.52,0.96"/></g></g></g></svg>