<svg xmlns="http://www.w3.org/2000/svg" width="109" height="109" viewBox="0 0 109 109"><g xmlns:kvg="http://kanjivg.tagaini.net" id="kvg:StrokePaths_05b54" style="fill:none;stroke:#000000;stroke-width:3;stroke-linecap:round;stroke-linejoin:round;"><g id="kvg:05b54" kvg:element="&#23380;"><g id="kvg:05b54-g1" kvg:element="&#23376;" kvg:variant="true" kvg:position="left" kvg:radical="general"><path id="kvg:05b54-s1" kvg:type="&#12758;" d="M15.79,24.01c2.4,0.84,4.88,0.62,7.36,0.18c5.36-0.94,12.98-2.7,17.37-3.88c3.49-0.94,5.53,0.56,2.95,3.78c-2.17,2.7-7.61,10.05-13.22,15.64"/><path id="kvg:05b54-s2" kvg:type="&#12757;v" d="M27.6,40.38c8.9,7.37,16.65,24.37,9.9,43.12c-2.57,7.14-6,8-11.25,0.5"/><path id="kvg:05b54-s3" kvg:type="&#12736;/&#12752;" d="M13.69,68.37c1.18,1,2.71,0.6,4.29-0.47C28.5,60.75,35.25,56,47.25,47.5"/></g><g id="kvg:05b54-g2" kvg:element="&#20057;" kvg:position="right"><path id="kvg:05b54-s4" kvg:type="&#12767;" d="M61.99,15.62c0.95,0.95,1.26,2,1.26,3.93c0,8.19,0.01,52.89,0.01,58.45c0,9.88,2.24,11.5,17.49,11.5C95,89.5,96.89,87,96.89,79.4"/></g></g></g></svg>