<svg xmlns="http://www.w3.org/2000/svg" width="109" height="109" viewBox="0 0 109 109"><g xmlns:kvg="http://kanjivg.tagaini.net" id="kvg:StrokePaths_05b66" style="fill:none;stroke:#000000;stroke-width:3;stroke-linecap:round;stroke-linejoin:round;"><g id="kvg:05b66" kvg:element="&#23398;"><g id="kvg:05b66-g1" kvg:position="top" kvg:phon="&#158063;"><g id="kvg:05b66-g2" kvg:element="&#11917;" kvg:original="&#12388;"><path id="kvg:05b66-s1" kvg:type="&#12756;" d="M29.5,17.25c3.5,3,6.5,7.25,7.75,9.75"/><path id="kvg:05b66-s2" kvg:type="&#12756;" d="M49,12c1.25,2,4.75,8.25,5.25,11.5"/><path id="kvg:05b66-s3" kvg:type="&#12754;" d="M75,11c0.25,1.75-0.12,2.75-0.75,4.25c-1.29,3.1-4.25,7.38-6.5,9.75"/></g><g id="kvg:05b66-g3" kvg:element="&#20886;"><path id="kvg:05b66-s4" kvg:type="&#12756;" d="M21.25,33.75c-0.12,4.75-2,12.5-3.75,16.25"/><path id="kvg:05b66-s5" kvg:type="&#12758;b" d="M23.5,36.5c17-1.62,42.38-5.5,60-5.75c9.5-0.13,4.12,5.12,0,9"/></g></g><g id="kvg:05b66-g4" kvg:element="&#23376;" kvg:position="bottom" kvg:radical="general"><path id="kvg:05b66-s6" kvg:type="&#12758;" d="M37.25,46.5c1,0.25,3.75,0.25,5.5-0.25s18.25-4,20-4s2.75,0.75,1,2.25S54.5,53.5,53,54.75"/><path id="kvg:05b66-s7" kvg:type="&#12757;v" d="M50.75,55.75c4,8.75,7.18,24.67,1.75,38c-2.75,6.75-7.75,1.25-9.75-2"/><path id="kvg:05b66-s8" kvg:type="&#12752;" d="M15.75,67.75c1.75,1,4.64,1.36,7.5,1c15.88-2,44.43-6.25,61.37-5.5c2.5,0.11,4.72,0.25,6.39,1"/></g></g></g></svg>