<svg xmlns="http://www.w3.org/2000/svg" width="109" height="109" viewBox="0 0 109 109"><g xmlns:kvg="http://kanjivg.tagaini.net" id="kvg:StrokePaths_05b83" style="fill:none;stroke:#000000;stroke-width:3;stroke-linecap:round;stroke-linejoin:round;"><g id="kvg:05b83" kvg:element="&#23427;"><g id="kvg:05b83-g1" kvg:element="&#23424;" kvg:position="top" kvg:radical="general"><path id="kvg:05b83-s1" kvg:type="&#12753;a" d="M51.53,10.49c1.17,0.38,2.84,2.25,2.81,3.35c-0.09,3.46-0.09,9.35-0.09,12.5"/><g id="kvg:05b83-g2" kvg:element="&#20886;"><path id="kvg:05b83-s2" kvg:type="&#12756;" d="M22.4,28.37c0,4.05-3.7,15.19-5.39,17.89"/><path id="kvg:05b83-s3" kvg:type="&#12758;b" d="M24.04,29.85c8.71-0.1,53.21-5.6,61.32-5.35c10.71,0.32,2.27,6.36-0.4,8.24"/></g></g><g id="kvg:05b83-g3" kvg:element="&#21269;" kvg:position="bottom"><path id="kvg:05b83-s4" kvg:type="&#12754;" d="M77.47,46.06c0.03,0.94-0.58,2.19-1.25,2.86C71.89,53.23,57.51,65.09,43.5,69.5"/><path id="kvg:05b83-s5" kvg:type="&#12767;" d="M41.5,37.75c1.07,1.19,1.15,1.99,1.51,3.57c0.36,1.59-0.14,41.16-0.14,46.14c0,12.79,13.39,10.79,25.64,10.79c9.5,0,16.42-0.67,20-4.25s3.14-7.73,3.5-11.3"/></g></g></g></svg>