<svg xmlns="http://www.w3.org/2000/svg" width="109" height="109" viewBox="0 0 109 109"><g xmlns:kvg="http://kanjivg.tagaini.net" id="kvg:StrokePaths_05b9a" style="fill:none;stroke:#000000;stroke-width:3;stroke-linecap:round;stroke-linejoin:round;"><g id="kvg:05b9a" kvg:element="&#23450;"><g id="kvg:05b9a-g1" kvg:element="&#23424;" kvg:position="top" kvg:radical="general"><path id="kvg:05b9a-s1" kvg:type="&#12753;a" d="M52.57,10.17c1.26,1.26,1.76,2.96,1.76,4.56c0,3.61-0.09,5.75-0.1,9.03"/><g id="kvg:05b9a-g2" kvg:element="&#20886;"><path id="kvg:05b9a-s2" kvg:type="&#12756;" d="M21.25,26c0,3.53-2.41,13.23-3.5,15.58"/><path id="kvg:05b9a-s3" kvg:type="&#12758;b" d="M22.44,29.18c18.31-2.68,47.53-6.83,63.05-7.33c11.01-0.35,4.26,7.15-0.18,9.58"/></g></g><g id="kvg:05b9a-g3" kvg:element="&#30091;" kvg:variant="true" kvg:position="bottom" kvg:phon="&#27491;"><path id="kvg:05b9a-s4" kvg:type="&#12752;" d="M33.6,42.82c2.72,0.44,5.36,0.34,8.12,0c6.54-0.82,24.05-2.75,28.37-3.07c3.41-0.25,5.16-0.25,7.66,0.38"/><g id="kvg:05b9a-g4" kvg:element="&#21340;" kvg:original="&#12488;"><path id="kvg:05b9a-s5" kvg:type="&#12753;a" d="M52.9,42.77c0.92,0.92,1.17,2.46,1.17,3.37c0,2.99,0.28,30.49,0.28,36.39"/><path id="kvg:05b9a-s6" kvg:type="&#12752;b" d="M54.61,62.86c6.14-0.74,12.39-1.49,19.43-2.39c1.69-0.22,3.13-0.22,4.2,0"/></g><g id="kvg:05b9a-g5" kvg:element="&#20154;"><path id="kvg:05b9a-s7" kvg:type="&#12754;" d="M36.36,57.64c0.06,0.86,0.12,2.22-0.11,3.46c-1.4,7.29-8.89,21.86-19.87,31.65"/><path id="kvg:05b9a-s8" kvg:type="&#12751;" d="M31.96,73.89c7.12,2.96,36.49,16.08,47.62,20.58c3.44,1.39,6.85,2.38,10.55,2.78"/></g></g></g></g></svg>