<svg xmlns="http://www.w3.org/2000/svg" width="109" height="109" viewBox="0 0 109 109"><g xmlns:kvg="http://kanjivg.tagaini.net" id="kvg:StrokePaths_05b9f" style="fill:none;stroke:#000000;stroke-width:3;stroke-linecap:round;stroke-linejoin:round;"><g id="kvg:05b9f" kvg:element="&#23455;"><g id="kvg:05b9f-g1" kvg:element="&#23424;" kvg:position="top" kvg:radical="general"><path id="kvg:05b9f-s1" kvg:type="&#12753;a" d="M52.54,11.25c1.17,1.17,1.84,2.74,1.82,3.75c-0.08,3.16-0.08,7.05-0.08,9.93"/><g id="kvg:05b9f-g2" kvg:element="&#20886;"><path id="kvg:05b9f-s2" kvg:type="&#12756;" d="M26.63,26.78c0,2.82-3.96,13.59-5.08,15.47"/><path id="kvg:05b9f-s3" kvg:type="&#12758;b" d="M27.03,28.49c16.72-1.87,43.97-4.69,56.24-5.3c8.99-0.45,4.24,4.43-0.86,8.03"/></g></g><g id="kvg:05b9f-g3" kvg:position="bottom"><g id="kvg:05b9f-g4" kvg:element="&#19977;"><g id="kvg:05b9f-g5" kvg:element="&#19968;"><path id="kvg:05b9f-s4" kvg:type="&#12752;" d="M35,42.8c1.75,0.45,3.66,0.38,5.41,0.18c6.52-0.75,20.65-2.15,27.2-2.77c1.82-0.17,3.37-0.22,5.14,0.21"/></g><g id="kvg:05b9f-g6" kvg:element="&#19968;"><path id="kvg:05b9f-s5" kvg:type="&#12752;" d="M32.75,55.15c2.25,0.47,4.78,0.24,6.87,0.07C47,54.62,60,53.38,68.99,52.6c2.41-0.21,4.88-0.25,7.26,0.27"/></g><g id="kvg:05b9f-g7" kvg:element="&#19968;"><path id="kvg:05b9f-s6" kvg:type="&#12752;" d="M23.75,69.4c3.25,0.6,5.43,0.47,7.87,0.22c9.92-1.01,33.55-3.35,45.5-3.95c2.85-0.14,5.81-0.42,8.62,0.2"/></g></g><g id="kvg:05b9f-g8" kvg:element="&#20154;"><path id="kvg:05b9f-s7" kvg:type="&#12754;" d="M52.27,31.5c1.3,1.3,1.75,3.13,1.83,5.06C55.88,79.62,44,88.12,24,97.75"/><path id="kvg:05b9f-s8" kvg:type="&#12751;" d="M53.5,70c9.25,8.25,22.2,19.32,29.2,24.65c2.38,1.81,5.42,2.58,7.8,3.1"/></g></g></g></g></svg>