<svg xmlns="http://www.w3.org/2000/svg" width="109" height="109" viewBox="0 0 109 109"><g xmlns:kvg="http://kanjivg.tagaini.net" id="kvg:StrokePaths_05b9c" style="fill:none;stroke:#000000;stroke-width:3;stroke-linecap:round;stroke-linejoin:round;"><g id="kvg:05b9c" kvg:element="&#23452;"><g id="kvg:05b9c-g1" kvg:element="&#23424;" kvg:position="top" kvg:radical="general"><path id="kvg:05b9c-s1" kvg:type="&#12753;a" d="M52.94,12c0.97,0.97,1.3,2.38,1.3,3.79c0,3.15-0.08,6.25-0.08,9.12"/><g id="kvg:05b9c-g2" kvg:element="&#20886;"><path id="kvg:05b9c-s2" kvg:type="&#12756;" d="M26.95,26.5c0,3.77-2.95,14.13-4.3,16.65"/><path id="kvg:05b9c-s3" kvg:type="&#12758;b" d="M27.4,29.39c12.48-1.76,44.1-5.26,53.83-5.71c9.73-0.44,3.52,5.57-1.11,8.99"/></g></g><g id="kvg:05b9c-g3" kvg:element="&#19988;" kvg:position="bottom"><g id="kvg:05b9c-g4" kvg:element="&#26376;"><path id="kvg:05b9c-s4" kvg:type="&#12753;a" d="M38.02,42.63c0.62,0.72,0.99,1.74,0.99,2.88c0,0.73-0.01,40.98-0.01,44.36"/><path id="kvg:05b9c-s5" kvg:type="&#12757;b" d="M40.23,44.77c4.89-0.52,24.21-3.08,26.03-3.2c3.27-0.21,4.12,1.18,4.12,3.47c0,6.46-0.01,27.71-0.01,41.58"/><path id="kvg:05b9c-s6" kvg:type="&#12752;a" d="M40.07,60.52c8.38-0.7,21.83-2.45,29.19-2.67"/><path id="kvg:05b9c-s7" kvg:type="&#12752;a" d="M40.06,75.48c10.44-1.23,18.31-1.98,29.17-2.76"/></g><g id="kvg:05b9c-g5" kvg:element="&#19968;"><path id="kvg:05b9c-s8" kvg:type="&#12752;" d="M17.37,91.82c3.11,0.92,6.72,0.39,9.9,0.17c14.02-0.99,39.36-3.62,55.49-4.05c3.59-0.1,7.49,0.23,11.05,0.85"/></g></g></g></g></svg>