<svg xmlns="http://www.w3.org/2000/svg" width="109" height="109" viewBox="0 0 109 109"><g xmlns:kvg="http://kanjivg.tagaini.net" id="kvg:StrokePaths_05bb9" style="fill:none;stroke:#000000;stroke-width:3;stroke-linecap:round;stroke-linejoin:round;"><g id="kvg:05bb9" kvg:element="&#23481;"><g id="kvg:05bb9-g1" kvg:element="&#23424;" kvg:position="top" kvg:radical="general"><path id="kvg:05bb9-s1" kvg:type="&#12753;a" d="M53.53,10.66c0.84,0.84,1.3,2.44,1.3,3.63c0,1.96-0.1,4.21-0.1,8.06"/><g id="kvg:05bb9-g2" kvg:element="&#20886;"><path id="kvg:05bb9-s2" kvg:type="&#12756;" d="M20.75,24.38c0,3.39-3.61,12.7-5.25,14.96"/><path id="kvg:05bb9-s3" kvg:type="&#12758;b" d="M21.51,26.36c13.49-0.98,44.87-4.11,65.16-4.97c11.61-0.49,2.46,6.9-0.43,8.93"/></g></g><g id="kvg:05bb9-g3" kvg:element="&#35895;" kvg:position="bottom" kvg:phon="&#35895;"><g id="kvg:05bb9-g4" kvg:position="top"><path id="kvg:05bb9-s4" kvg:type="&#12754;" d="M39.84,34.23c0.13,1.1-0.32,2.05-0.98,2.98c-2.59,3.68-7.83,7.74-15.69,12.6"/><path id="kvg:05bb9-s5" kvg:type="&#12756;" d="M65.88,34.38c6.01,3.2,13.34,9.31,15.4,12.58"/></g><g id="kvg:05bb9-g5" kvg:position="bottom"><path id="kvg:05bb9-s6" kvg:type="&#12754;" d="M52.32,43.05c0.09,0.77-0.03,2.13-0.69,3.1c-6.01,8.97-17.01,18.97-34.12,29.71"/><path id="kvg:05bb9-s7" kvg:type="&#12751;" d="M52.23,47.34c10.69,7.66,22.21,16.25,31.45,22.27c2.87,1.87,5.07,3.4,7.92,4.59"/><g id="kvg:05bb9-g6" kvg:element="&#21475;"><path id="kvg:05bb9-s8" kvg:type="&#12753;" d="M34.27,74.32c0.71,0.71,1.12,1.64,1.32,2.71C37,84.38,37.56,88.22,38.51,95c0.15,1.03,0.29,2.03,0.42,2.96"/><path id="kvg:05bb9-s9" kvg:type="&#12757;b" d="M36.56,76.45c11.31-1.36,23.31-2.7,32.08-3.34c3.51-0.25,5.07,1.59,3.96,5.17c-1.56,5.04-2.56,8.12-4.07,14.3"/><path id="kvg:05bb9-s10" kvg:type="&#12752;b" d="M39.86,95.72c8.45-0.47,16.94-0.92,26.38-1.6c1.26-0.09,3.04-0.18,4.34-0.28"/></g></g></g></g></g></svg>