<svg xmlns="http://www.w3.org/2000/svg" width="109" height="109" viewBox="0 0 109 109"><g xmlns:kvg="http://kanjivg.tagaini.net" id="kvg:StrokePaths_05bbf" style="fill:none;stroke:#000000;stroke-width:3;stroke-linecap:round;stroke-linejoin:round;"><g id="kvg:05bbf" kvg:element="&#23487;"><g id="kvg:05bbf-g1" kvg:element="&#23424;" kvg:position="top" kvg:radical="general"><path id="kvg:05bbf-s1" kvg:type="&#12753;a" d="M53.25,10.5c1,1,1.74,2.53,1.71,3.77c-0.09,3.9-0.1,6.23-0.1,8.83"/><g id="kvg:05bbf-g2" kvg:element="&#20886;"><path id="kvg:05bbf-s2" kvg:type="&#12756;" d="M21.75,24.75c0,3.89-3.25,15.16-4.5,17.75"/><path id="kvg:05bbf-s3" kvg:type="&#12758;b" d="M22.72,27.76c18.03-2.01,43.91-5.26,63.12-5.93c12.16-0.42,3.17,7.41-0.42,9.28"/></g></g><g id="kvg:05bbf-g3" kvg:element="&#20336;" kvg:position="bottom"><g id="kvg:05bbf-g4" kvg:element="&#20155;" kvg:variant="true" kvg:original="&#20154;"><path id="kvg:05bbf-s4" kvg:type="&#12754;" d="M32.77,37.81c0.21,1.75-0.06,3.54-0.73,5.04C27.77,52.4,22.79,61.21,13,72.83"/><path id="kvg:05bbf-s5" kvg:type="&#12753;" d="M25.71,59.44c0.99,0.99,1.65,2.31,1.65,4.06c0,9.93-0.1,23.35-0.14,31.25c-0.01,1.55-0.01,2.88-0.01,3.94"/></g><g id="kvg:05bbf-g5" kvg:element="&#30334;"><path id="kvg:05bbf-s6" kvg:type="&#12752;" d="M43.62,44.56c2.26,0.56,5.09,0.25,7.53-0.05c8.81-1.11,20.6-2.76,30.35-3.68c2.29-0.22,4.53-0.24,6.79,0.2"/><g id="kvg:05bbf-g6" kvg:element="&#30333;"><g id="kvg:05bbf-g7" kvg:position="top"><path id="kvg:05bbf-s7" kvg:type="&#12754;" d="M64.17,45.27c0.36,0.8,0.38,1.59,0.08,2.38c-0.54,2.37-1.87,5.47-4.72,10.48"/></g><g id="kvg:05bbf-g8" kvg:element="&#26085;" kvg:position="bottom"><path id="kvg:05bbf-s8" kvg:type="&#12753;" d="M48.26,59.41c0.92,0.92,1.62,2.44,1.64,3.73c0.09,8.52-0.06,20.6-0.11,29.74c-0.01,1.44-0.01,2.8-0.01,4.06"/><path id="kvg:05bbf-s9" kvg:type="&#12757;a" d="M50.98,61.44c2.99-0.15,22.75-2.59,27.9-3.08c3.26-0.31,5.17,0.94,4.95,4.28c-0.46,6.99-1.54,18.46-1.97,27.74c-0.08,1.61-0.13,3.09-0.17,4.39"/><path id="kvg:05bbf-s10" kvg:type="&#12752;a" d="M51.08,76.19c11.67-1.07,21.8-2.32,30.73-2.65"/><path id="kvg:05bbf-s11" kvg:type="&#12752;a" d="M50.97,93.8c10.54-0.64,19.9-1.68,29.68-2.21"/></g></g></g></g></g></g></svg>