<svg xmlns="http://www.w3.org/2000/svg" width="109" height="109" viewBox="0 0 109 109"><g xmlns:kvg="http://kanjivg.tagaini.net" id="kvg:StrokePaths_05be4" style="fill:none;stroke:#000000;stroke-width:3;stroke-linecap:round;stroke-linejoin:round;"><g id="kvg:05be4" kvg:element="&#23524;"><g id="kvg:05be4-g1" kvg:element="&#23424;" kvg:position="top" kvg:radical="general"><path id="kvg:05be4-s1" kvg:type="&#12753;a" d="M51.57,9.34c1.07,0.35,2.6,2.06,2.57,3.07c-0.08,3.17-0.08,7.53-0.08,10.42"/><g id="kvg:05be4-g2" kvg:element="&#20886;"><path id="kvg:05be4-s2" kvg:type="&#12756;" d="M19.83,23.16c0,3.23-2.46,12.1-3.58,14.25"/><path id="kvg:05be4-s3" kvg:type="&#12758;b" d="M19.53,26.03c9.16-0.95,61.05-4.81,68.48-5.17c11.62-0.56,1.74,6.24-1.16,8.27"/></g></g><g id="kvg:05be4-g3" kvg:position="bottom"><g id="kvg:05be4-g4" kvg:element="&#29247;" kvg:position="left"><path id="kvg:05be4-s4" kvg:type="&#12740;" d="M37.48,32.22c0.97,1.03,1.6,2.79,1.6,4c0,11.62-0.03,58.45-0.03,62.4"/><path id="kvg:05be4-s5" kvg:type="&#12752;" d="M22.7,38.63c1.1,0.48,1.52,1.04,1.62,2.62c0.14,2.37-2.6,11.02-2.94,13.51c-0.11,0.79,0.31,2.47,1.83,1.85c4.54-1.85,11.77-3.07,15.45-3.56"/><path id="kvg:05be4-s6" kvg:type="&#12754;" d="M15.3,67.75c1.23,0.17,1.48,0.66,2.92,0.55c6.15-0.49,16.34-2.26,20.64-2.53"/><path id="kvg:05be4-s7" kvg:type="&#12753;" d="M25.16,69.02c0.03,0.63,0.82,1.63,0.72,2.54C25,79.5,24,88,14.23,95.84"/></g><g id="kvg:05be4-g5" kvg:element="&#21566;" kvg:position="right"><g id="kvg:05be4-g6" kvg:element="&#20116;" kvg:position="top"><g id="kvg:05be4-g7" kvg:element="&#20108;" kvg:part="1"><path id="kvg:05be4-s8" kvg:type="&#12752;" d="M49.55,35.17c0.84,0.1,2.39,0.09,3.22,0.06C58.5,35,69.5,33.5,77.53,33.13c1.4-0.06,2.25,0.01,2.95,0.06"/></g><path id="kvg:05be4-s9" kvg:type="&#12753;a" d="M64.56,36.08c0.23,0.17,0.61,0.76,0.53,1.16c-0.83,3.88-3.59,17.26-6.06,26.14"/><path id="kvg:05be4-s10" kvg:type="&#12757;c" d="M50.54,47.95c0.67,0.3,2.42,0.39,2.97,0.35c7.25-0.55,19.23-2.31,24.71-2.87c1.26-0.13,2.7,0.94,2.7,2.24c0,2.23-2.33,8.94-3.34,13.82"/><g id="kvg:05be4-g8" kvg:element="&#20108;" kvg:part="2"><path id="kvg:05be4-s11" kvg:type="&#12752;" d="M45.33,64.15c0.91,0.18,3.16,0.66,4.06,0.56c12.48-1.43,29.1-3.21,41.82-3.34c1.51-0.02,3-0.01,3.76,0.07"/></g></g><g id="kvg:05be4-g9" kvg:element="&#21475;" kvg:position="bottom"><path id="kvg:05be4-s12" kvg:type="&#12753;" d="M52.52,73.96c0.28,0.44,0.57,0.8,0.69,1.34c0.97,4.31,2.13,14.2,2.8,21.95"/><path id="kvg:05be4-s13" kvg:type="&#12757;b" d="M53.25,75.29c10.75-1.04,22.57-2.6,28.01-3.15c1.99-0.2,3.18,1.19,2.9,2.37c-1.18,4.89-2.56,12.3-4.31,19.06"/><path id="kvg:05be4-s14" kvg:type="&#12752;b" d="M57.36,94.84c6.39-0.62,14.71-1.21,23.98-1.67"/></g></g></g></g></g></svg>