<svg xmlns="http://www.w3.org/2000/svg" width="109" height="109" viewBox="0 0 109 109"><g xmlns:kvg="http://kanjivg.tagaini.net" id="kvg:StrokePaths_05bfe" style="fill:none;stroke:#000000;stroke-width:3;stroke-linecap:round;stroke-linejoin:round;"><g id="kvg:05bfe" kvg:element="&#23550;"><g id="kvg:05bfe-g1" kvg:element="&#25991;" kvg:position="left" kvg:radical="nelson"><g id="kvg:05bfe-g2" kvg:element="&#20128;" kvg:position="top"><path id="kvg:05bfe-s1" kvg:type="&#12753;a" d="M33.81,16c1.1,1.09,1.81,2.38,1.81,3.99c0,4.01-0.02,10.94-0.08,13.82"/><path id="kvg:05bfe-s2" kvg:type="&#12752;" d="M13.25,37.54c1.75,0.46,3.56,0.44,5.51,0.1C27.5,36.12,40.5,34,46.99,33.02c1.74-0.26,3.76-0.27,5.26-0.02"/></g><g id="kvg:05bfe-g3" kvg:element="&#20034;" kvg:position="bottom"><path id="kvg:05bfe-s3" kvg:type="&#12754;" d="M41.84,41.31c0.35,1.04,0.5,2.3-0.08,4.2c-5.01,16.62-15.13,32.87-27.88,42.24"/><path id="kvg:05bfe-s4" kvg:type="&#12756;/&#12751;" d="M21.21,52.76C31.25,58.5,43.07,72.34,48.25,81"/></g></g><g id="kvg:05bfe-g4" kvg:element="&#23544;" kvg:position="right" kvg:radical="tradit"><path id="kvg:05bfe-s5" kvg:type="&#12752;" d="M54.38,43.11c1.58,0.53,4.51,0.53,6.07,0.28c7.3-1.15,25.05-4.48,31.14-4.62c2.64-0.06,4.22-0.08,5.54,0.19"/><path id="kvg:05bfe-s6" kvg:type="&#12762;" d="M78.52,13.08c1.33,1.33,2.01,2.92,2.01,5.02c0,14.56-0.01,66.41-0.01,71.37c0,9.41-4.52,3.66-7.21,1"/><path id="kvg:05bfe-s7" kvg:type="&#12756;" d="M56.25,59.12c3.07,1.54,7.94,6.34,8.71,8.74"/></g></g></g></svg>