<svg xmlns="http://www.w3.org/2000/svg" width="109" height="109" viewBox="0 0 109 109"><g xmlns:kvg="http://kanjivg.tagaini.net" id="kvg:StrokePaths_05c13" style="fill:none;stroke:#000000;stroke-width:3;stroke-linecap:round;stroke-linejoin:round;"><g id="kvg:05c13" kvg:element="&#23571;"><g id="kvg:05c13-g1" kvg:position="top"><g id="kvg:05c13-g2" kvg:element="&#20031;"><path id="kvg:05c13-s1" kvg:type="&#12754;" d="M34.75,12.14c0.17,1.86,0.01,3.67-0.49,5.44c-2.14,8.43-9.87,24.06-20.19,33.88"/></g><path id="kvg:05c13-s2" kvg:type="&#12752;" d="M31.75,31.15c3.12,0.47,5.12,0.1,7.88-0.03c10.07-0.46,32.42-3.59,42.26-4.35c2.3-0.35,4.59-0.28,6.87,0.22"/></g><g id="kvg:05c13-g3" kvg:element="&#23567;" kvg:position="bottom" kvg:radical="tradit"><path id="kvg:05c13-s3" kvg:type="&#12762;" d="M54.96,32.87c0.09,0.48,1.26,2.49,1.26,5.52c0,16.49-0.09,48.41-0.09,53.37c0,11.25-7.38,1.25-8.88,0"/><path id="kvg:05c13-s4" kvg:type="&#12754;" d="M31.95,53.18c0.13,1.7-0.05,3.37-0.55,4.99c-1.78,6.7-6.28,17.96-14.4,25.58"/><path id="kvg:05c13-s5" kvg:type="&#12756;" d="M71.71,51.62c6.99,5.23,18.05,21.5,19.79,29.63"/></g></g></g></svg>