<svg xmlns="http://www.w3.org/2000/svg" width="109" height="109" viewBox="0 0 109 109"><g xmlns:kvg="http://kanjivg.tagaini.net" id="kvg:StrokePaths_05c24" style="fill:none;stroke:#000000;stroke-width:3;stroke-linecap:round;stroke-linejoin:round;"><g id="kvg:05c24" kvg:element="&#23588;"><g id="kvg:05c24-g1" kvg:element="&#23586;" kvg:radical="tradit"><path id="kvg:05c24-s1" kvg:type="&#12752;" d="M20.25,37c1.37,0.49,3.88,0.63,5.25,0.49c9.75-0.98,45-4.73,59.71-4.71c2.28,0,3.65,0.23,4.79,0.48"/><g id="kvg:05c24-g2" kvg:element="&#20799;" kvg:original="&#20843;"><g id="kvg:05c24-g3" kvg:element="&#20031;"><path id="kvg:05c24-s2" kvg:type="&#12754;" d="M52.95,11.5c0.12,2.18,0.27,2.06,0.27,5.06C53.22,37,46.75,81,11.67,96.67"/></g><path id="kvg:05c24-s3" kvg:type="&#12767;" d="M55.48,46.37c0.74,1.57,1.33,3.42,1.38,5.83c0.2,10.79-0.53,21.27-0.53,28.61c0,17.14,8.91,15.2,17.67,15.2c9.25,0,15.34-2.21,16.64-3.46c2.75-2.64,2-3.96,2.25-8.57"/></g></g><g id="kvg:05c24-g4" kvg:element="&#20022;" kvg:radical="nelson"><path id="kvg:05c24-s4" kvg:type="&#12756;" d="M70.75,13.25c3.09,1.81,7.98,7.44,8.75,10.25"/></g></g></g></svg>