<svg xmlns="http://www.w3.org/2000/svg" width="109" height="109" viewBox="0 0 109 109"><g xmlns:kvg="http://kanjivg.tagaini.net" id="kvg:StrokePaths_05c28" style="fill:none;stroke:#000000;stroke-width:3;stroke-linecap:round;stroke-linejoin:round;"><g id="kvg:05c28" kvg:element="&#23592;"><g id="kvg:05c28-g1" kvg:element="&#23588;" kvg:position="kamae" kvg:part="1"><g id="kvg:05c28-g2" kvg:element="&#23586;" kvg:radical="tradit"><path id="kvg:05c28-s1" kvg:type="&#12752;" d="M13.97,37.44c0.95,0.54,2.68,0.61,3.64,0.54c9.39-0.73,31.21-5.23,41.42-5.21c1.58,0,2.53,0.26,3.32,0.53"/><g id="kvg:05c28-g3" kvg:element="&#20799;" kvg:original="&#20843;"><g id="kvg:05c28-g4" kvg:element="&#20031;"><path id="kvg:05c28-s2" kvg:type="&#12754;" d="M37.19,13.5c0.08,2.1,0.15,1.98,0.18,4.88C37.5,32,31.65,82.39,10.92,96.17"/></g><path id="kvg:05c28-s3" kvg:type="&#12767;" d="M41.76,43.62c1.06,1.66,1.41,2.62,1.47,5.19c0.28,11.44-0.26,23.56-0.26,31.34c0,17.61,5.77,16.62,25.33,16.61c22.44-0.01,27.08-2.26,27.08-13.25"/></g></g></g><g id="kvg:05c28-g5" kvg:element="&#24417;"><g id="kvg:05c28-g6" kvg:element="&#20031;"><path id="kvg:05c28-s4" kvg:type="&#12754;" d="M83.13,13.5c0.06,0.7,0.32,1.93-0.12,2.8c-3.26,6.45-9.76,17.45-20.73,25.77"/></g><g id="kvg:05c28-g7" kvg:element="&#20031;"><path id="kvg:05c28-s5" kvg:type="&#12754;" d="M88.87,32.42c0.08,0.68,0.27,1.85-0.14,2.71c-2.81,5.93-14.22,19.12-25.8,25.96"/></g><g id="kvg:05c28-g8" kvg:element="&#20031;"><path id="kvg:05c28-s6" kvg:type="&#12754;" d="M94.39,51.53c0.09,0.79,0.2,2.04-0.18,3.17C91.97,61.38,79.1,76.03,61.48,85"/></g></g><g id="kvg:05c28-g9" kvg:element="&#20022;" kvg:radical="nelson" kvg:part="2">  <path id="kvg:05c28-s7" kvg:type="&#12756;" d="M47.45,15.5c3.41,1.59,8.81,6.53,9.66,9"/></g></g></g></svg>