<svg xmlns="http://www.w3.org/2000/svg" width="109" height="109" viewBox="0 0 109 109"><g xmlns:kvg="http://kanjivg.tagaini.net" id="kvg:StrokePaths_05c3c" style="fill:none;stroke:#000000;stroke-width:3;stroke-linecap:round;stroke-linejoin:round;"><g id="kvg:05c3c" kvg:element="&#23612;"><g id="kvg:05c3c-g1" kvg:element="&#23608;" kvg:position="tare" kvg:radical="general"><path id="kvg:05c3c-s1" kvg:type="&#12757;c" d="M25.78,17.81c1.72,0.94,5.13,1.15,6.97,0.94c9.87-1.14,35.89-3.71,43.65-4.45C79.5,14,81.58,15.54,81,18c-1.5,6.37-2.62,9.87-4.36,15.69"/><path id="kvg:05c3c-s2" kvg:type="&#12752;b" d="M32.19,38.93c4.12-0.22,29.43-2.78,41.33-3.83c2.55-0.23,4.47-0.38,5.39-0.43"/><path id="kvg:05c3c-s3" kvg:type="&#12754;" d="M30.12,19.68c1.1,1.1,1.24,2.57,1.21,4.08C31.02,46.41,29,71.12,13.75,92.25"/></g><g id="kvg:05c3c-g2" kvg:element="&#21269;"><path id="kvg:05c3c-s4" kvg:type="&#12754;" d="M81.77,52.23c-0.27,1.02-0.82,1.59-1.49,1.95c-5.66,3.07-15.03,7.32-29.91,11.32"/><path id="kvg:05c3c-s5" kvg:type="&#12767;" d="M45.37,47.61c0.82,0.82,1.08,2.02,1.08,3.73c0,1.47-0.07,25.67-0.07,30.16c0,10.59,1.62,11.65,23.57,11.65c20.31,0,21.56-1.15,21.56-12.8"/></g></g></g></svg>