<svg xmlns="http://www.w3.org/2000/svg" width="109" height="109" viewBox="0 0 109 109"><g xmlns:kvg="http://kanjivg.tagaini.net" id="kvg:StrokePaths_05c3f" style="fill:none;stroke:#000000;stroke-width:3;stroke-linecap:round;stroke-linejoin:round;"><g id="kvg:05c3f" kvg:element="&#23615;"><g id="kvg:05c3f-g1" kvg:element="&#23608;" kvg:position="tare" kvg:radical="general"><path id="kvg:05c3f-s1" kvg:type="&#12757;c" d="M20.99,18.14c1.86,0.6,5.49,1.23,7.46,1.02c10.67-1.16,37.59-3.1,45.81-3.64c3.38-0.22,5.46,0.56,4.78,4.36c-0.55,3.08-1.14,5.69-2.58,11.38"/><path id="kvg:05c3f-s2" kvg:type="&#12752;b" d="M27.04,36.18c5.21-0.56,30.18-2.49,44.21-3.62c4.04-0.33,7.08-0.55,8.33-0.6"/><path id="kvg:05c3f-s3" kvg:type="&#12754;" d="M24.77,19.95c0.73,1.05,1.02,2.05,1.05,3.3C26.31,43.83,26.36,69.52,11,85.39"/></g><g id="kvg:05c3f-g2" kvg:element="&#27700;"><path id="kvg:05c3f-s4" kvg:type="&#12762;" d="M56.48,41.08c0.84,0.84,1.27,2.04,1.27,3.75c0,10.56,0.07,44.72,0.07,48.32c0,7.09-5.43,0.02-6.51-0.88"/><path id="kvg:05c3f-s5" kvg:type="&#12743;" d="M30.52,60.71c1.4,0.25,3.19,0.11,4.58-0.28c2.77-0.77,8.67-2.58,10.05-3.16c1.7-0.73,3.35,0.56,2.81,2.18C44.25,70.5,37.5,82,24.29,90"/><path id="kvg:05c3f-s6" kvg:type="&#12754;" d="M81.02,47.23c-0.03,0.94-0.56,1.62-1.22,2.21c-4.98,4.45-9.72,7.78-18.55,12.07"/><path id="kvg:05c3f-s7" kvg:type="&#12751;" d="M59.29,63.14c9.03,7.06,18.03,14.9,26.63,20.48c2.37,1.54,4.96,3,8.06,4.36"/></g></g></g></svg>