<svg xmlns="http://www.w3.org/2000/svg" width="109" height="109" viewBox="0 0 109 109"><g xmlns:kvg="http://kanjivg.tagaini.net" id="kvg:StrokePaths_05c5e" style="fill:none;stroke:#000000;stroke-width:3;stroke-linecap:round;stroke-linejoin:round;"><g id="kvg:05c5e" kvg:element="&#23646;"><g id="kvg:05c5e-g1" kvg:element="&#23608;" kvg:position="tare" kvg:radical="general"><path id="kvg:05c5e-s1" kvg:type="&#12757;c" d="M26.18,16.65c1.91,0.73,4.13,0.88,6.16,0.73C43.3,16.57,75,13.25,79.37,12.65c2.88-0.4,4.17,1.25,3.13,3.97c-0.62,1.63-1.62,5.01-2.62,8.19"/><path id="kvg:05c5e-s2" kvg:type="&#12752;b" d="M31.4,30.92c6.85-0.67,35.16-3.69,46.63-4.81c1.72-0.17,3.03-0.28,3.77-0.31"/><path id="kvg:05c5e-s3" kvg:type="&#12754;" d="M29.08,18.08c1.04,1.04,1.48,2.14,1.47,3.42c-0.3,28.88-5.05,49.63-16.55,66"/></g><g id="kvg:05c5e-g2" kvg:element="&#31161;" kvg:phon="&#34560;V"><g id="kvg:05c5e-g3" kvg:element="&#20031;"><path id="kvg:05c5e-s4" kvg:type="&#12754;" d="M69.94,30c-0.07,1-0.51,1.72-1.51,2.22c-6.05,3.03-12.3,4.9-26,8.14"/></g><g id="kvg:05c5e-g4" kvg:element="&#34411;" kvg:part="1"><path id="kvg:05c5e-s5" kvg:type="&#12753;" d="M38.79,45.69c0.63,0.63,0.96,1.19,1.3,2.15c1.02,2.85,1.26,4.15,2.28,9.14c0.22,1.09,0.44,2.24,0.66,3.46"/><path id="kvg:05c5e-s6" kvg:type="&#12757;b" d="M40.31,46.49c11.44-1.36,29.8-3.96,36.74-4.24c2.71-0.11,4.2,1.13,3.62,3.32c-1.05,3.99-1.55,5.19-2.23,7.8"/><path id="kvg:05c5e-s7" kvg:type="&#12752;b" d="M43.88,58.49c6.9-0.64,21.87-2.8,32.64-3.73c1.28-0.11,2.51-0.2,3.66-0.28"/></g><g id="kvg:05c5e-g5" kvg:element="&#31160;" kvg:variant="true"><path id="kvg:05c5e-s8" kvg:type="&#12753;" d="M33.09,66.64c0.82,0.82,1.54,1.99,1.71,3.08c0.65,4.2,1.98,16.55,2.73,23.25c0.27,2.4,0.45,4.11,0.45,4.53"/><path id="kvg:05c5e-s9" kvg:type="&#12742;a" d="M35.38,69.38c8.16-0.87,41.61-4.79,51-5.87c4.26-0.49,5.81,0.23,5.39,4.63c-0.84,8.9-2.73,18.26-4.74,24.81c-1.9,6.18-4.15,2.68-6.75-0.61"/><g id="kvg:05c5e-g6" kvg:element="&#34411;" kvg:part="2"><path id="kvg:05c5e-s10" kvg:type="&#12753;a" d="M58.23,38.23c0.96,0.96,1.64,2.4,1.64,3.87c0,4.04-0.01,32.27-0.01,38.43"/><path id="kvg:05c5e-s11" kvg:type="&#12736;" d="M48.09,84.45c0.55,0.56,1.67,0.91,2.21,0.72c5.46-1.86,20.26-7.96,21.91-8.67"/><path id="kvg:05c5e-s12" kvg:type="&#12756;" d="M69.49,72.24c2.73,1.93,7.31,7.95,8,10.96"/></g></g></g></g></g></svg>