<svg xmlns="http://www.w3.org/2000/svg" width="109" height="109" viewBox="0 0 109 109"><g xmlns:kvg="http://kanjivg.tagaini.net" id="kvg:StrokePaths_05c50" style="fill:none;stroke:#000000;stroke-width:3;stroke-linecap:round;stroke-linejoin:round;"><g id="kvg:05c50" kvg:element="&#23632;"><g id="kvg:05c50-g1" kvg:element="&#23608;" kvg:position="tare" kvg:radical="general"><path id="kvg:05c50-s1" kvg:type="&#12757;c" d="M23.68,16.15c1.91,0.73,4.13,0.88,6.16,0.73c10.97-0.81,44.66-3.13,49.03-3.73c2.88-0.4,3.63,1.1,3.13,3.97c-0.63,3.61-2,4.63-2.87,8.94"/><path id="kvg:05c50-s2" kvg:type="&#12752;b" d="M26.9,30.17c5.5-0.24,48.17-3.63,53.91-3.87"/><path id="kvg:05c50-s3" kvg:type="&#12754;" d="M27.08,17.33c0,3.96-0.25,14.96-0.65,18.64C24.19,56.9,22.54,73.48,11.5,88.5"/></g><g id="kvg:05c50-g2" kvg:element="&#24435;" kvg:position="left"><path id="kvg:05c50-s4" kvg:type="&#12754;" d="M45.52,35c0.04,0.4,0.18,1.12-0.08,1.61c-1.83,3.49-6.63,9.54-13.34,15.44"/><g id="kvg:05c50-g3" kvg:element="&#20155;" kvg:variant="true" kvg:original="&#20154;"><path id="kvg:05c50-s5" kvg:type="&#12754;" d="M46.11,49.33c0.06,0.62,0.28,1.73-0.11,2.49c-2.81,5.39-10.19,14.74-20.5,23.85"/><path id="kvg:05c50-s6" kvg:type="&#12753;" d="M38.7,65.39c0.25,0.17,0.4,0.79,0.45,1.13c0.05,0.35,0,28.29-0.05,30.47"/></g></g><g id="kvg:05c50-g4" kvg:element="&#25903;" kvg:position="right"><g id="kvg:05c50-g5" kvg:element="&#21313;" kvg:position="top"><path id="kvg:05c50-s7" kvg:type="&#12752;" d="M48.85,45.82c0.71,0.23,2.02,0.32,2.72,0.23c10.86-1.38,25.47-3.39,32.35-3.91c1.18-0.09,1.89,0.11,2.48,0.23"/><path id="kvg:05c50-s8" kvg:type="&#12753;a" d="M64.31,31.88c0.4,0.4,1.24,3.01,1.32,3.81c0.08,0.8-0.05,18.08-0.13,23.1"/></g><g id="kvg:05c50-g6" kvg:element="&#21448;" kvg:position="bottom"><path id="kvg:05c50-s9" kvg:type="&#12743;" d="M51.54,60.38c1.11,0.34,1.24,0.86,3.46,0.34c2.21-0.52,23.57-2.9,25.09-3.41c1.52-0.52,2.46,1.34,1.44,3C71,77.5,62,86.25,46.9,94.3"/><path id="kvg:05c50-s10" kvg:type="&#12751;" d="M53.13,65.88c3.41,0.7,20.06,19.5,31.93,27.2c1.85,1.2,3.2,2,4.92,2.4"/></g></g></g></g></svg>