<svg xmlns="http://www.w3.org/2000/svg" width="109" height="109" viewBox="0 0 109 109"><g xmlns:kvg="http://kanjivg.tagaini.net" id="kvg:StrokePaths_05c6e" style="fill:none;stroke:#000000;stroke-width:3;stroke-linecap:round;stroke-linejoin:round;"><g id="kvg:05c6e" kvg:element="&#23662;" kvg:radical="general"><g id="kvg:05c6e-g1" kvg:element="&#20981;"><path id="kvg:05c6e-s1" kvg:type="&#12759;a" d="M22.6,33.16c0.9,0.46,2.3,1.71,2.3,4.41c0,3.13-1.15,17.8-1.65,23.3c-0.26,2.84-1,4.5,3.31,4.16c12.59-0.99,48.44-5.16,59.7-6.42"/><path id="kvg:05c6e-s2" kvg:type="&#12753;" d="M86.48,27.75c0.77,0.62,2.42,2.62,2.3,3.91c-0.54,5.96-1.79,21.71-2.73,32.08"/></g><g id="kvg:05c6e-g2" kvg:element="&#20031;"><path id="kvg:05c6e-s3" kvg:type="&#12754;" d="M53.07,10.12c1.18,1,2.25,3,2.25,4.63c0,13.95,0.05,22.37-0.18,35.38c-0.4,23.24-7.4,40.99-27.59,51.46"/></g></g></g></svg>