<svg xmlns="http://www.w3.org/2000/svg" width="109" height="109" viewBox="0 0 109 109"><g xmlns:kvg="http://kanjivg.tagaini.net" id="kvg:StrokePaths_05c64" style="fill:none;stroke:#000000;stroke-width:3;stroke-linecap:round;stroke-linejoin:round;"><g id="kvg:05c64" kvg:element="&#23652;"><g id="kvg:05c64-g1" kvg:element="&#23608;" kvg:position="tare" kvg:radical="general"><path id="kvg:05c64-s1" kvg:type="&#12757;c" d="M25.4,17.03c1.35,0.72,3.11,0.89,5.13,0.74c10.92-0.82,41.97-4.02,48.6-4.53c2.17-0.09,3.12,1.64,3.12,3.02c-0.88,3.37-1.44,5.33-3.11,10.24"/><path id="kvg:05c64-s2" kvg:type="&#12752;b" d="M29.35,31.54c9.88-0.81,32.53-2.79,47.15-4.2c2.05-0.2,3.78-0.2,5.06-0.21"/><path id="kvg:05c64-s3" kvg:type="&#12754;" d="M27.24,17.98c0.95,0.95,1.35,2.27,1.35,4.11C28.59,45.5,24,71,10,86.4"/></g><g id="kvg:05c64-g2" kvg:element="&#26365;" kvg:phon="&#26365;"><g id="kvg:05c64-g3" kvg:position="top"><path id="kvg:05c64-s4" kvg:type="&#12756;" d="M41.96,35.3c2.32,1.58,6,6.49,6.58,8.94"/><path id="kvg:05c64-s5" kvg:type="&#12754;" d="M71.82,31.56c0.09,0.81-0.06,1.58-0.44,2.3c-1.19,2.66-4.5,6.6-8.76,10.64"/><g id="kvg:05c64-g4" kvg:element="&#30000;"><path id="kvg:05c64-s6" kvg:type="&#12753;" d="M33.04,47.59c0.74,0.74,1.29,1.67,1.44,2.29c1.27,5.24,2.06,9.95,2.83,15.61c0.21,1.52,0.39,2.98,0.56,4.31"/><path id="kvg:05c64-s7" kvg:type="&#12757;a" d="M35.37,49.11c11.91-1.28,34.24-3.6,45.63-4.35c4.13-0.27,5.12,0.45,4.43,4.37c-0.58,3.25-1.55,8.24-2.86,12.89c-0.38,1.33-0.77,2.65-1.17,3.92"/><path id="kvg:05c64-s8" kvg:type="&#12753;a" d="M57.43,47.9c0.84,0.84,1,2.07,0.99,3.37c-0.04,4.36-0.22,10.48-0.22,13.41"/><path id="kvg:05c64-s9" kvg:type="&#12752;a" d="M37.33,57.52c10.67-1.14,39.57-2.85,46.11-3.1"/><path id="kvg:05c64-s10" kvg:type="&#12752;a" d="M38.74,67.29c13.64-1.29,27.64-2.67,42.01-3.21"/></g></g><g id="kvg:05c64-g5" kvg:element="&#26085;" kvg:position="bottom"><path id="kvg:05c64-s11" kvg:type="&#12753;" d="M41.82,74.26c0.77,0.77,1.11,2.2,1.17,3.1c0.38,5.44,0.98,11.71,1.42,17.37c0.1,1.29,0.19,2.56,0.26,3.77"/><path id="kvg:05c64-s12" kvg:type="&#12757;a" d="M44.18,76.21c6.32-0.71,25.98-2.73,28.99-2.84c2.51-0.09,3.21,2.06,3.14,2.6c-0.34,2.73-0.77,9.04-1.42,17.04c-0.11,1.3-0.22,2.65-0.36,4.02"/><path id="kvg:05c64-s13" kvg:type="&#12752;a" d="M44.3,85.74c6.82-0.49,21.7-1.49,30.17-1.75"/><path id="kvg:05c64-s14" kvg:type="&#12752;a" d="M45.54,95.55c8.86-0.34,19.66-0.95,28.22-0.95"/></g></g></g></g></svg>