<svg xmlns="http://www.w3.org/2000/svg" width="109" height="109" viewBox="0 0 109 109"><g xmlns:kvg="http://kanjivg.tagaini.net" id="kvg:StrokePaths_05c90" style="fill:none;stroke:#000000;stroke-width:3;stroke-linecap:round;stroke-linejoin:round;"><g id="kvg:05c90" kvg:element="&#23696;"><g id="kvg:05c90-g1" kvg:element="&#23665;" kvg:position="left" kvg:radical="general"><path id="kvg:05c90-s1" kvg:type="&#12753;a" d="M25.76,21.75c0.93,0.93,1.06,2,1.06,3.24c0,0.75,0.04,33.14,0.04,42.53"/><path id="kvg:05c90-s2" kvg:type="&#12740;a" d="M14.32,47.34c0.55,0.78,0.68,2.03,0.49,3.17c-0.54,3.26-1.06,9.99-2.3,18.44c-0.38,2.57,0.01,3.43,2.46,2.6c5.1-1.71,17.4-4.3,24.51-4.77"/><path id="kvg:05c90-s3" kvg:type="&#12753;" d="M39.96,42.37c0.9,0.9,1.04,2.13,0.99,3.99c-0.1,3.65-0.67,11.42-1.24,18.91c-0.14,1.86-0.31,3.67-0.52,5.35"/></g><g id="kvg:05c90-g2" kvg:element="&#25903;" kvg:position="right" kvg:phon="&#25903;"><g id="kvg:05c90-g3" kvg:element="&#21313;" kvg:position="top"><path id="kvg:05c90-s4" kvg:type="&#12752;" d="M44.35,32.88c2.23,0.78,5.27,0.43,7.55,0.06c10.97-1.82,20.47-3.19,30.23-4.46c2.27-0.29,4.29-0.35,6.53,0.12"/><path id="kvg:05c90-s5" kvg:type="&#12753;a" d="M63.15,11.88c0.92,0.92,1.26,2.24,1.26,4.08c0,3.29,0.07,26.41,0.07,33.17"/></g><g id="kvg:05c90-g4" kvg:element="&#21448;" kvg:position="bottom"><path id="kvg:05c90-s6" kvg:type="&#12743;" d="M48.17,52.04c1.47,0.44,2.86,0.58,5.85,0.19c5.48-0.73,18.73-3.6,22.65-4.49c2.08-0.47,3.96,1.14,2.67,4.05c-8.05,18.26-24.09,35.46-40.1,43.46"/><path id="kvg:05c90-s7" kvg:type="&#12751;" d="M46.94,57.39c4.3,0.83,20.56,17.11,38.02,31.54c3.08,2.55,6.42,4.69,9.02,5.79"/></g></g></g></g></svg>