<svg xmlns="http://www.w3.org/2000/svg" width="109" height="109" viewBox="0 0 109 109"><g xmlns:kvg="http://kanjivg.tagaini.net" id="kvg:StrokePaths_05ca8" style="fill:none;stroke:#000000;stroke-width:3;stroke-linecap:round;stroke-linejoin:round;"><g id="kvg:05ca8" kvg:element="&#23720;"><g id="kvg:05ca8-g1" kvg:element="&#23665;" kvg:position="left" kvg:radical="general"><path id="kvg:05ca8-s1" kvg:type="&#12753;a" d="M24.95,19c0.9,0.9,1.26,2.38,1.26,3.67c0,7.55,0,33.97,0,43.65"/><path id="kvg:05ca8-s2" kvg:type="&#12740;a" d="M11.79,42.26c0.79,0.79,1.08,1.86,1.08,3.13c0,5.53-0.12,12.74-0.12,22.24c0,2.38,0.27,3.23,2.63,2.65c8.57-2.11,13.34-3.62,24.12-5.83"/><path id="kvg:05ca8-s3" kvg:type="&#12753;" d="M39.72,36.91c0.93,0.93,1.08,2.09,1.08,3.76c0,4.65-0.03,12.88-0.04,21.07c-0.01,2.75-0.01,5.47-0.01,8"/></g><g id="kvg:05ca8-g2" kvg:element="&#19988;" kvg:position="right"><g id="kvg:05ca8-g3" kvg:element="&#26376;"><path id="kvg:05ca8-s4" kvg:type="&#12753;a" d="M53.71,17.03c1,1,1.18,2.09,1.18,3.31c0,1.03-0.02,64.25-0.02,67.78"/><path id="kvg:05ca8-s5" kvg:type="&#12757;b" d="M55.8,19.17c3.66-0.45,16.93-2.18,22.47-2.87c4.17-0.52,5.9,0.09,5.9,4.7c0,2.38-0.04,45.25-0.04,65.39"/><path id="kvg:05ca8-s6" kvg:type="&#12752;a" d="M55.38,41.84c7.76-1,20.7-2.19,27.52-2.5"/><path id="kvg:05ca8-s7" kvg:type="&#12752;a" d="M55.59,63.04C63,62.38,74.88,61,82.92,60.98"/></g><g id="kvg:05ca8-g4" kvg:element="&#19968;"><path id="kvg:05ca8-s8" kvg:type="&#12752;" d="M38.04,89.38c2.86,1,5.74,1.06,8.73,0.77c14.61-1.4,31.86-2.53,45.11-2.52c2.87,0,5.7,0.34,8.5,0.95"/></g></g></g></g></svg>