<svg xmlns="http://www.w3.org/2000/svg" width="109" height="109" viewBox="0 0 109 109"><g xmlns:kvg="http://kanjivg.tagaini.net" id="kvg:StrokePaths_05d18" style="fill:none;stroke:#000000;stroke-width:3;stroke-linecap:round;stroke-linejoin:round;"><g id="kvg:05d18" kvg:element="&#23832;"><g id="kvg:05d18-g1" kvg:element="&#23665;" kvg:position="left" kvg:radical="tradit"><path id="kvg:05d18-s1" kvg:type="&#12753;a" d="M22.65,22.45c0.56,0.33,1.86,2.44,1.86,3.11c0,6.86,0.24,33.12,0.24,41.92"/><path id="kvg:05d18-s2" kvg:type="&#12740;a" d="M12.54,44.76c0.62,0.36,1.29,1.88,1.24,2.61c-0.35,5.01,0.12,14.31-1.11,21.85c-0.27,1.64,0.18,2.01,1.69,1.65c8.58-2.1,11.59-3.01,22.01-5.1"/><path id="kvg:05d18-s3" kvg:type="&#12753;" d="M36.07,41.13c0.62,0.36,1.24,2.69,1.24,3.42c0,5.64-0.35,16.99-0.35,26.12"/></g><g id="kvg:05d18-g2" kvg:element="&#20374;" kvg:position="right"><g id="kvg:05d18-g3" kvg:element="&#20154;" kvg:position="top"><path id="kvg:05d18-s4" kvg:type="&#12754;" d="M66.23,13.15c0.07,0.87,0.14,2.25-0.14,3.5c-1.68,7.39-10.14,22.99-23.85,34"/><path id="kvg:05d18-s5" kvg:type="&#12751;" d="M67,15.82c5.05,4.85,21.25,23.47,25.52,27.5c1.45,1.37,3.31,1.95,4.75,2.34"/></g><g id="kvg:05d18-g4" kvg:position="bottom"><g id="kvg:05d18-g5" kvg:element="&#19968;"><path id="kvg:05d18-s6" kvg:type="&#12752;" d="M56.69,44.96c0.74,0.31,2.08,0.34,2.82,0.31c5.23-0.26,14.66-1.94,19.92-2.23c1.23-0.07,1.97,0.15,2.58,0.3"/></g><g id="kvg:05d18-g6" kvg:element="&#20874;"><g id="kvg:05d18-g7" kvg:element="&#20866;"><path id="kvg:05d18-s7" kvg:type="&#12753;" d="M48.86,57.1c0.48,0.62,1.07,1.61,1.15,2.75c0.44,6.12-0.25,28.37,0.37,34.58"/><path id="kvg:05d18-s8" kvg:type="&#12742;a" d="M50.53,58.89c6.09-0.5,35.71-4.17,36.91-4.35c2.57-0.38,3.5,2.62,3.53,3.87c0.14,6.67-0.42,17.68-0.42,29.59c0,7.86-2.44,5.29-5.7,2.54"/></g><g id="kvg:05d18-g8" kvg:element="&#24318;" kvg:variant="true"><g id="kvg:05d18-g9" kvg:element="&#21313;" kvg:part="1" kvg:variant="true"><path id="kvg:05d18-s9" kvg:type="&#12752;" d="M51,73.49c4.88-0.43,36.4-3.64,39.83-3.86"/></g><g id="kvg:05d18-g10" kvg:element="&#20031;" kvg:variant="true"><path id="kvg:05d18-s10" kvg:type="&#12753;" d="M63.12,57.95c0.27,0.79,0.45,1.7,0.48,4.3c0.11,12.48,0.18,24.55,0.18,28.8"/></g><g id="kvg:05d18-g11" kvg:element="&#21313;" kvg:part="2" kvg:variant="true"><path id="kvg:05d18-s11" kvg:type="&#12753;" d="M75.78,56.86c0.18,0.79,0.3,1.7,0.32,4.3c0.07,12.47,0,25.23,0,29.48"/></g></g></g></g></g></g></g></svg>