<svg xmlns="http://www.w3.org/2000/svg" width="109" height="109" viewBox="0 0 109 109"><g xmlns:kvg="http://kanjivg.tagaini.net" id="kvg:StrokePaths_05d4e" style="fill:none;stroke:#000000;stroke-width:3;stroke-linecap:round;stroke-linejoin:round;"><g id="kvg:05d4e" kvg:element="&#23886;"><g id="kvg:05d4e-g1" kvg:element="&#23665;" kvg:position="left" kvg:radical="general"><path id="kvg:05d4e-s1" kvg:type="&#12753;a" d="M23.78,19c0.58,0.35,1.93,2.58,1.93,3.28c0,7.24,0.24,37.86,0.24,47.16"/><path id="kvg:05d4e-s2" kvg:type="&#12740;a" d="M13.33,46.23c0.64,0.38,1.33,1.99,1.28,2.76c-0.36,5.3-0.36,13.37-1.63,21.34c-0.28,1.73,0.19,2.13,1.75,1.74c8.88-2.22,12.96-2.7,23.76-4.9"/><path id="kvg:05d4e-s3" kvg:type="&#12753;" d="M38.72,42.05c0.64,0.38,1.28,2.84,1.28,3.61c0,5.96-1.38,16.48-1.38,26.13"/></g><g id="kvg:05d4e-g2" kvg:element="&#31162;" kvg:position="right"><g id="kvg:05d4e-g3" kvg:element="&#26085;"><g id="kvg:05d4e-g4" kvg:element="&#30000;" kvg:part="1" kvg:variant="true"><path id="kvg:05d4e-s4" kvg:type="&#12753;" d="M49.67,16.18c0.28,0.53,0.78,1.89,0.93,2.54c1.23,5.38,2.27,18.05,2.98,27.93"/><path id="kvg:05d4e-s5" kvg:type="&#12757;" d="M50.97,17.51c9.81-0.34,30.08-2.62,37.41-2.99c2.69-0.14,3.29,1.55,3.07,4.8c-0.36,5.28-1.65,14.9-3.26,25.19"/><path id="kvg:05d4e-s6" kvg:type="&#12752;" d="M52.83,30.92c3.2-0.19,34.5-2.6,37.14-2.55"/><path id="kvg:05d4e-s7" kvg:type="&#12752;" d="M53.73,44.61c10.03-1.09,24.8-2.33,34.56-2.27"/></g></g><g id="kvg:05d4e-g5" kvg:element="&#31160;"><path id="kvg:05d4e-s8" kvg:type="&#12753;" d="M47.01,54.54c0.8,0.66,1.37,2.47,1.43,3.65c0.27,5.81,0.85,32.22,1.29,38.69"/><path id="kvg:05d4e-s9" kvg:type="&#12742;" d="M48.94,58.76c6.4-0.79,42.62-4.94,43.9-4.92c1.93,0.03,3.6,2.16,3.54,5.77c-0.17,9.57-1.81,23.48-4.08,31.96c-1.79,6.68-4.54,3.18-6.58-0.23"/><g id="kvg:05d4e-g6" kvg:element="&#30000;" kvg:part="2" kvg:variant="true"><path id="kvg:05d4e-s10" kvg:type="&#12753;" d="M69.16,18.39c0.42,0.9,1.07,1.79,1.07,3.35c-0.02,6.87,0.11,50.14,0.1,52.25"/></g><path id="kvg:05d4e-s11" kvg:type="&#65302;" d="M56.39,75.42c1.34,0.85,2.82,1.34,4.01,1.05c3.34-0.8,17.07-4.49,24.07-5.91"/><path id="kvg:05d4e-s12" kvg:type="&#12756;" d="M80.22,62.96c2.88,2.75,7.42,11.14,8.14,15.28"/></g></g></g></g></svg>