<svg xmlns="http://www.w3.org/2000/svg" width="109" height="109" viewBox="0 0 109 109"><g xmlns:kvg="http://kanjivg.tagaini.net" id="kvg:StrokePaths_05d4c" style="fill:none;stroke:#000000;stroke-width:3;stroke-linecap:round;stroke-linejoin:round;"><g id="kvg:05d4c" kvg:element="&#23884;"><g id="kvg:05d4c-g1" kvg:element="&#23665;" kvg:position="top" kvg:radical="general"><path id="kvg:05d4c-s1" kvg:type="&#12753;a" d="M52.51,11.38c0.56,0.33,1.75,2.48,1.86,3.15c0.11,0.66-0.07,9.58-0.18,13.73"/><path id="kvg:05d4c-s2" kvg:type="&#12740;a" d="M25.93,18.75c0.56,0.33,1.12,1.73,1.12,2.41c0,2.59-0.3,4.84-1.59,8.76c-0.48,1.45,0.82,2.54,2.11,2.28c16.93-3.45,51.33-4.92,56.35-5.05"/><path id="kvg:05d4c-s3" kvg:type="&#12753;" d="M84.02,15.62c0.56,0.33,1.21,2.48,1.12,3.15c-0.56,4.07-0.64,7.23-1.54,11.19"/></g><g id="kvg:05d4c-g2" kvg:position="bottom"><g id="kvg:05d4c-g3" kvg:element="&#29976;" kvg:position="left"><g id="kvg:05d4c-g4" kvg:element="&#24319;" kvg:part="1"><g id="kvg:05d4c-g5" kvg:element="&#21313;"><path id="kvg:05d4c-s4" kvg:type="&#12752;" d="M9.92,55.75c1.09,0.49,3.08,0.61,4.16,0.49c8-0.89,22.83-3.4,35.94-4.58c1.81-0.16,2.9,0.23,3.8,0.48"/><path id="kvg:05d4c-s5" kvg:type="&#12753;" d="M22.03,43.24c0.81,0.36,1.3,1.62,1.46,2.34c0.16,0.72,0,46.66-0.16,51.17"/></g><path id="kvg:05d4c-s6" kvg:type="&#12753;" d="M40.95,39.75c0.81,0.36,1.3,1.62,1.46,2.34c0.16,0.72,0,48.92-0.16,53.43"/></g><path id="kvg:05d4c-s7" kvg:type="&#12752;" d="M24,72.52c4.16-0.25,15.87-1.93,18.11-1.93"/><g id="kvg:05d4c-g6" kvg:element="&#24319;" kvg:part="2"><path id="kvg:05d4c-s8" kvg:type="&#12752;" d="M24,94.09c6.75-1.09,13.45-1.76,17.92-1.94"/></g></g><g id="kvg:05d4c-g7" kvg:element="&#27424;" kvg:position="right"><g id="kvg:05d4c-g8" kvg:position="top"><path id="kvg:05d4c-s9" kvg:type="&#12754;" d="M66.75,35.75c0.04,0.65,0.08,1.68-0.08,2.62c-0.97,5.52-6.54,17.64-14.17,25.06"/><path id="kvg:05d4c-s10" kvg:type="&#12758;a" d="M65.76,48.13c0.77,0.29,2.24,0.75,3.4,0.49c1.42-0.31,16.39-3.52,17.74-3.68c6.79-0.8-2.13,8.27-3.55,9.79"/></g><g id="kvg:05d4c-g9" kvg:position="bottom"><path id="kvg:05d4c-s11" kvg:type="&#12754;" d="M69.59,56.13c0.06,0.95,0.14,2.43-0.12,3.8C66.99,73.17,62.2,86.83,48.5,96.3"/><path id="kvg:05d4c-s12" kvg:type="&#12751;" d="M68.37,67.02c3.81,6.2,17.55,20.78,23.81,25.91c1.32,1.08,2.32,1.72,3.57,2.07"/></g></g></g></g></g></svg>