<svg xmlns="http://www.w3.org/2000/svg" width="109" height="109" viewBox="0 0 109 109"><g xmlns:kvg="http://kanjivg.tagaini.net" id="kvg:StrokePaths_05d50" style="fill:none;stroke:#000000;stroke-width:3;stroke-linecap:round;stroke-linejoin:round;"><g id="kvg:05d50" kvg:element="&#23888;"><g id="kvg:05d50-g1" kvg:element="&#23665;" kvg:position="top" kvg:radical="general"><path id="kvg:05d50-s1" kvg:type="&#12753;a" d="M52.77,11.35c1.06,1.06,1.11,2.37,1.11,3.65c0,0.67,0.06,6.88,0.06,11.51"/><path id="kvg:05d50-s2" kvg:type="&#12740;a" d="M27.43,18c0.85,0.85,0.82,2.25,0.62,3.41c-0.39,2.25-0.52,3.32-1.42,6.22c-0.83,2.65-0.05,3.87,2.77,3.35c13.48-2.48,32.48-4.35,50.53-5.33"/><path id="kvg:05d50-s3" kvg:type="&#12753;" d="M81.27,13.88c0.73,0.88,0.73,1.88,0.62,3.15c-0.23,2.78-0.5,4.82-0.82,7.36c-0.15,1.2-0.3,2.52-0.47,4.07"/></g><g id="kvg:05d50-g2" kvg:element="&#39080;" kvg:position="bottom"><g id="kvg:05d50-g3" kvg:element="&#20960;"><g id="kvg:05d50-g4" kvg:element="&#20031;"><path id="kvg:05d50-s4" kvg:type="&#12754;" d="M28.3,42.45c0.88,0.88,1.19,2.28,1.15,4.23C29,70.12,28.12,87.12,14.75,99.5"/></g><path id="kvg:05d50-s5" kvg:type="&#12744;b" d="M30.29,44.45c10.8-1.46,39.46-5.14,46.38-5.7c3.08-0.25,4.24,1.26,3.9,4.45C78.5,62.5,78.5,78,88.36,91.72c5.45,7.57,5.15,2.91,5.39-2.5"/></g><path id="kvg:05d50-s6" kvg:type="&#12754;" d="M63.63,46.58c-0.26,1.3-1.14,2-1.88,2.37c-5.25,2.67-13.5,5.3-22.36,7.51"/><g id="kvg:05d50-g5" kvg:element="&#34411;"><g id="kvg:05d50-g6" kvg:element="&#20013;"><g id="kvg:05d50-g7" kvg:element="&#21475;"><path id="kvg:05d50-s7" kvg:type="&#12753;" d="M36.16,64.29c0.84,0.84,1.09,1.58,1.28,2.42c0.49,2.17,0.92,4.7,1.53,8.15c0.19,1.09,0.41,2.26,0.64,3.55"/><path id="kvg:05d50-s8" kvg:type="&#12757;b" d="M37.57,65.18c10.39-1.48,20.39-3.24,28.05-4.19c3.17-0.39,3.9,0.21,3.05,3.28c-0.67,2.43-1.24,4.49-2.31,8.2"/><path id="kvg:05d50-s9" kvg:type="&#12752;b" d="M40.66,76.51c5.32-0.48,15.34-1.97,23.71-2.77c1.67-0.16,3.28-0.29,4.77-0.38"/></g><g id="kvg:05d50-g8" kvg:element="&#20008;"><path id="kvg:05d50-s10" kvg:type="&#12753;a" d="M52.8,55.72c0.87,0.87,0.9,2.03,0.9,3.16c0,0.45-0.08,25.89-0.08,30.5"/></g></g><path id="kvg:05d50-s11" kvg:type="&#12736;" d="M34.47,92.67c0.78,0.96,1.66,1.85,3.15,1.52c8.01-1.81,25.13-5.94,31.51-7.5"/><path id="kvg:05d50-s12" kvg:type="&#12756;" d="M67.38,81.12c2.2,2.41,6.71,9.22,7.45,12.36"/></g></g></g></g></svg>