<svg xmlns="http://www.w3.org/2000/svg" width="109" height="109" viewBox="0 0 109 109"><g xmlns:kvg="http://kanjivg.tagaini.net" id="kvg:StrokePaths_05d6c" style="fill:none;stroke:#000000;stroke-width:3;stroke-linecap:round;stroke-linejoin:round;"><g id="kvg:05d6c" kvg:element="&#23916;"><g id="kvg:05d6c-g1" kvg:element="&#23665;" kvg:position="top" kvg:radical="general"><path id="kvg:05d6c-s1" kvg:type="&#12753;a" d="M52.51,11.38c0.56,0.33,1.75,2.48,1.86,3.15c0.11,0.66-0.07,8.58-0.18,12.73"/><path id="kvg:05d6c-s2" kvg:type="&#12740;a" d="M26.93,17.25c0.56,0.33,1.12,1.73,1.12,2.41c0,2.59-0.8,5.09-1.09,8.76c-0.12,1.52,0.83,2.59,2.11,2.28c4.93-1.2,47.83-5.42,52.85-5.55"/><path id="kvg:05d6c-s3" kvg:type="&#12753;" d="M82.02,12.62c0.56,0.33,1.21,2.48,1.12,3.15c-0.56,4.07-0.64,7.48-1.04,13.19"/></g><g id="kvg:05d6c-g2" kvg:element="&#39740;" kvg:position="bottom"><g id="kvg:05d6c-g3" kvg:element="&#20031;"><path id="kvg:05d6c-s4" kvg:type="&#12754;" d="M52.27,31c0.03,0.31,0.11,0.9-0.06,1.26c-2.03,4.41-5.03,8.46-10.33,12.02"/></g><g id="kvg:05d6c-g4" kvg:element="&#30000;"><path id="kvg:05d6c-s5" kvg:type="&#12753;" d="M29.39,44.52c0.36,0.47,0.37,0.78,0.56,1.36c1.61,4.76,3.58,14.47,4.53,23.23"/><path id="kvg:05d6c-s6" kvg:type="&#12757;a" d="M31.09,45.67c12.75-0.48,36.71-3.45,46.23-3.91c3.5-0.17,4.43,1.86,4.06,3.84c-0.89,4.65-2.16,12.21-5.25,20.53"/><path id="kvg:05d6c-s7" kvg:type="&#12753;a" d="M 55.283334,45.142916 c 0.208634,10.282062 0.261641,12.796614 0.128333,20.018333"/><path id="kvg:05d6c-s8" kvg:type="&#12752;a" d="M32.86,56.08c4.15-0.23,40.87-3.3,46.68-3.77"/><path id="kvg:05d6c-s9" kvg:type="&#12752;a" d="M35.15,67.44c13.59-1.64,26.08-2.07,39.89-3.35"/></g><g id="kvg:05d6c-g5" kvg:element="&#20799;" kvg:variant="true" kvg:original="&#20843;"><g id="kvg:05d6c-g6" kvg:element="&#20031;" kvg:position="left"><path id="kvg:05d6c-s10" kvg:type="&#12754;" d="M45.96,69.76c0.28,0.56,0.85,1.68,0.4,2.58C43.26,78.55,34.79,90.32,20.75,97"/></g><g id="kvg:05d6c-g7" kvg:position="right"><path id="kvg:05d6c-s11" kvg:type="&#12767;" d="M58.15,67.64c0.87,0.87,1.57,1.89,1.62,3.22c0.23,5.96,0.05,9.83-0.39,17.91c-0.44,8.08,8.5,8.22,16.86,8.22c13.69,0,18.02,0.4,18.02-6.51"/></g></g><g id="kvg:05d6c-g8" kvg:element="&#21430;"><path id="kvg:05d6c-s12" kvg:type="&#12764;" d="M75.68,70.9c0.26,0.33,0.17,1.83-0.08,2.23c-2.25,3.68-4.04,7.54-7.62,11.29c-1.13,1.19,0.09,2.38,1.7,1.97c5.6-1.42,10.33-2.79,15.77-4.28"/><path id="kvg:05d6c-s13" kvg:type="&#12756;" d="M82.38,76.78c1.51,1.61,4.83,7.96,5.21,10.46"/></g></g></g></g></svg>