<svg xmlns="http://www.w3.org/2000/svg" width="109" height="109" viewBox="0 0 109 109"><g xmlns:kvg="http://kanjivg.tagaini.net" id="kvg:StrokePaths_05d8c" style="fill:none;stroke:#000000;stroke-width:3;stroke-linecap:round;stroke-linejoin:round;"><g id="kvg:05d8c" kvg:element="&#23948;"><g id="kvg:05d8c-g1" kvg:element="&#23665;" kvg:position="top" kvg:radical="general"><path id="kvg:05d8c-s1" kvg:type="&#12753;a" d="M52.01,9.38c0.56,0.33,1.75,2.48,1.86,3.15c0.11,0.66-0.07,9.58-0.18,13.73"/><path id="kvg:05d8c-s2" kvg:type="&#12740;a" d="M26.43,16.75c0.56,0.33,1.12,1.73,1.12,2.41c0,2.59-0.8,3.84-2.09,7.76c-0.48,1.45,0.81,2.5,2.11,2.28c17.18-2.95,48.83-4.42,53.85-4.55"/><path id="kvg:05d8c-s3" kvg:type="&#12753;" d="M82.02,11.62c0.56,0.33,1.21,2.48,1.12,3.15c-0.56,4.07-1.14,8.73-2.04,12.69"/></g><g id="kvg:05d8c-g2" kvg:element="&#40165;" kvg:position="bottom"><path id="kvg:05d8c-s4" kvg:type="&#12754;" d="M49.74,30.93c0.02,0.23,0.03,0.59-0.03,0.92c-0.38,1.93-2.53,6.18-5.47,8.78"/><path id="kvg:05d8c-s5" kvg:type="&#12753;" d="M33.17,40.35c0.58,0.9,1.24,2.76,1.24,3.32c0,5.66,0.05,27.4-0.21,36.31"/><path id="kvg:05d8c-s6" kvg:type="&#12757;a" d="M34.43,42.95c1.68-0.09,33.7-3.73,35.34-3.73c2.42,0,3.61,1.55,3.39,3.07c-0.13,0.93-2.28,10.64-3.84,17.82"/><path id="kvg:05d8c-s7" kvg:type="&#12752;a" d="M35.2,51.79c2.06,0,33.86-3.42,36.19-3.42"/><path id="kvg:05d8c-s8" kvg:type="&#12752;a" d="M35.1,61.13c4.2-0.33,29.47-2.98,34.7-3.26"/><path id="kvg:05d8c-s9" kvg:type="&#12752;b" d="M35.33,70.62c15.09-2.03,39.95-4.56,45.46-5.16c1.92-0.21,5.19-0.45,6.16-0.3"/><path id="kvg:05d8c-s10" kvg:type="&#12742;a" d="M34.22,80.15c11.29-1.78,41.72-4.31,47.98-4.96c4.07-0.43,5.8,2.03,4.93,4.9c-1.87,6.15-4.12,11.65-6.59,15.82C77.55,100.93,75.75,98,73.5,96"/><g id="kvg:05d8c-g3" kvg:element="&#28780;" kvg:variant="true" kvg:original="&#28779;"><path id="kvg:05d8c-s11" kvg:type="&#12756;" d="M24.3,85.25c-0.55,4.5-2.05,9.63-4.3,12.5"/><path id="kvg:05d8c-s12" kvg:type="&#12756;" d="M36.51,85.26c2.84,1.73,5.54,6.51,6.25,9.21"/><path id="kvg:05d8c-s13" kvg:type="&#12756;" d="M53.53,84.42c1.84,1.2,4.74,4.95,5.2,6.82"/><path id="kvg:05d8c-s14" kvg:type="&#12756;" d="M66.97,81.36c2.06,0.96,5.32,3.96,5.83,5.46"/></g></g></g></g></svg>