<svg xmlns="http://www.w3.org/2000/svg" width="109" height="109" viewBox="0 0 109 109"><g xmlns:kvg="http://kanjivg.tagaini.net" id="kvg:StrokePaths_05df4" style="fill:none;stroke:#000000;stroke-width:3;stroke-linecap:round;stroke-linejoin:round;"><g id="kvg:05df4" kvg:element="&#24052;"><g id="kvg:05df4-g1" kvg:element="&#24049;" kvg:part="1" kvg:original="&#24051;" kvg:radical="tradit"><path id="kvg:05df4-s1" kvg:type="&#12757;" d="M26.5,23.62c2.1,0.95,4.3,0.39,6.47,0.08c14.07-2.03,32.29-4.05,41.9-4.86c4.24-0.36,7.77,1.41,6.23,6.74c-1.78,6.14-3.48,12.8-6.55,22.47"/><path id="kvg:05df4-s2" kvg:type="&#12753;" d="M53.06,24.13c0.94,1.49,0.89,2.87,0.76,4.25C53.25,34.88,52.75,40.88,52,46.5"/></g><g id="kvg:05df4-g2" kvg:element="&#24049;" kvg:part="2" kvg:original="&#24051;" kvg:radical="tradit"><path id="kvg:05df4-s3" kvg:type="&#12752;" d="M31,49.75c5.25-0.5,31.12-3,43-3.5"/><g id="kvg:05df4-g3" kvg:element="&#20057;" kvg:radical="nelson"><path id="kvg:05df4-s4" kvg:type="&#12767;" d="M28.13,24.5c0.87,0.87,1.29,1.94,1.29,4.03c0,9.72-0.05,35.32-0.05,41.6c0,21,0.5,21.67,31.36,21.67c31.14,0,32.39-5.79,32.26-15.39"/></g></g></g></g></svg>