<svg xmlns="http://www.w3.org/2000/svg" width="109" height="109" viewBox="0 0 109 109"><g xmlns:kvg="http://kanjivg.tagaini.net" id="kvg:StrokePaths_05df3" style="fill:none;stroke:#000000;stroke-width:3;stroke-linecap:round;stroke-linejoin:round;"><g id="kvg:05df3" kvg:element="&#24051;"><g id="kvg:05df3-g1" kvg:element="&#24049;" kvg:variant="true" kvg:radical="general"><path id="kvg:05df3-s1" kvg:type="&#12757;" d="M25.5,20.89c2.38,1.39,4.42,1.39,7.92,0.93c7.1-0.93,38.8-4.65,40.97-4.83c2.86-0.23,5.11,1.52,4.09,5.1C78.18,23.15,76,34.75,74,45"/><path id="kvg:05df3-s2" kvg:type="&#12752;" d="M30,50.5c4.39-0.42,25.32-2.76,39.72-4.25c2.82-0.29,5.38-0.55,7.53-0.75"/><path id="kvg:05df3-s3" kvg:type="&#12767;" d="M28.48,22.4c0.81,0.81,0.74,1.89,0.75,3.85c0.02,12.11-0.06,39.32-0.06,45.25c0,18,1.21,20.25,32.03,20.25c31.18,0,31.56-2.62,31.56-12.75"/></g></g></g></svg>