<svg xmlns="http://www.w3.org/2000/svg" width="109" height="109" viewBox="0 0 109 109"><g xmlns:kvg="http://kanjivg.tagaini.net" id="kvg:StrokePaths_05df5" style="fill:none;stroke:#000000;stroke-width:3;stroke-linecap:round;stroke-linejoin:round;"><g id="kvg:05df5" kvg:element="&#24053;"><g id="kvg:05df5-g1" kvg:position="tare"><g id="kvg:05df5-g2" kvg:element="&#21378;" kvg:variant="true"><g id="kvg:05df5-g3" kvg:element="&#20031;"><path id="kvg:05df5-s1" kvg:type="&#12754;" d="M74.18,11.39c0.13,0.31,0.27,0.8-0.25,1.24c-3.09,2.61-20.84,8.33-45.12,11.84"/></g><path id="kvg:05df5-s2" kvg:type="&#12754;" d="M23.76,23.75c0.59,0.7,0.77,1.63,0.77,2.79c0,40.16-3.86,58.96-14.78,69.21"/></g><path id="kvg:05df5-s3" kvg:type="&#12752;" d="M26,37.5c1.28,0.39,3.62-0.07,4.89-0.13c10.67-0.54,39.14-4.69,53.15-5.46c2.12-0.12,3.4,0.18,4.46,0.38"/></g><g id="kvg:05df5-g4" kvg:element="&#24052;"><g id="kvg:05df5-g5" kvg:element="&#24049;" kvg:part="1" kvg:original="&#24051;" kvg:radical="general"><path id="kvg:05df5-s4" kvg:type="&#12757;" d="M37.65,51.18c11.6-0.93,29.69-2.62,37.49-3.16c2.85-0.19,3.68,1.8,3.34,2.97c-1.24,4.26-1.74,9.76-2.67,16.18"/><path id="kvg:05df5-s5" kvg:type="&#12753;" d="M55.21,51.59c0.62,0.3,1.25,2.22,1.23,2.83c-0.19,4.33-0.19,7.33-0.18,14.06"/></g><g id="kvg:05df5-g6" kvg:element="&#24049;" kvg:part="2" kvg:original="&#24051;" kvg:radical="general"><path id="kvg:05df5-s6" kvg:type="&#12752;" d="M37.95,69.97c4.25-0.33,34.96-2,39.82-2.33"/><path id="kvg:05df5-s7" kvg:type="&#12767;" d="M36.13,49.83c0.67,0.9,1.21,1.96,1.25,3.35c0.18,6.19,0.66,23.59,0.66,27.77c0,14.31,1.21,14.84,25,14.84C88,95.79,88.54,91,88.54,85.38"/></g></g></g></g></svg>