<svg xmlns="http://www.w3.org/2000/svg" width="109" height="109" viewBox="0 0 109 109"><g xmlns:kvg="http://kanjivg.tagaini.net" id="kvg:StrokePaths_05df2" style="fill:none;stroke:#000000;stroke-width:3;stroke-linecap:round;stroke-linejoin:round;"><g id="kvg:05df2" kvg:element="&#24050;"><g id="kvg:05df2-g1" kvg:element="&#24049;" kvg:variant="true" kvg:radical="general"><path id="kvg:05df2-s1" kvg:type="&#12757;" d="M25.75,19.89c2.38,1.39,4.42,1.39,7.92,0.93c7.1-0.93,38.05-4.15,40.22-4.33c2.86-0.23,5.11,1.52,4.09,5.1c-0.3,1.07-2.73,12.42-4.73,22.67"/><path id="kvg:05df2-s2" kvg:type="&#12752;" d="M30.25,48.75c5.25-0.5,30-2.5,45.5-4.5"/><path id="kvg:05df2-s3" kvg:type="&#12767;" d="M28.74,34.87c1.16,1.69,1.67,3.68,1.65,6.28c-0.04,7.6-0.28,23.71-0.28,30.6C30.11,93.25,33.1,92,61.94,92C93.06,92,91,85.5,91,76.75"/></g></g></g></svg>