<svg xmlns="http://www.w3.org/2000/svg" width="109" height="109" viewBox="0 0 109 109"><g xmlns:kvg="http://kanjivg.tagaini.net" id="kvg:StrokePaths_05e0b" style="fill:none;stroke:#000000;stroke-width:3;stroke-linecap:round;stroke-linejoin:round;"><g id="kvg:05e0b" kvg:element="&#24075;"><g id="kvg:05e0b-g1" kvg:element="&#27663;" kvg:position="top"><path id="kvg:05e0b-s1" kvg:type="&#12754;" d="M68,10.5c0.1,0.32,0.21,0.82-0.2,1.28c-2.46,2.7-20.55,10.97-38.05,12.94"/><path id="kvg:05e0b-s2" kvg:type="&#12761;" d="M23.25,21.61C24.5,21.98,25,24.34,25,25.45s-0.25,24.66-0.25,26.38c0,2.92,0.41,3.07,3.5,1.48c4.5-2.31,15-7.56,18.75-9.55"/><path id="kvg:05e0b-s3" kvg:type="&#12752;" d="M25.02,34.83c13.48-0.5,43.82-4.57,60.98-6.94c2.14-0.3,3.46,0.21,4.53,0.43"/><path id="kvg:05e0b-s4" kvg:type="&#12738;" d="M54.5,21.87c0.37,0.7,1.11,1.38,1.46,2.41C60,36.25,69.5,49.25,90.8,52.42c8.1,1.2,5.48-3.66,5.48-5.08"/></g><g id="kvg:05e0b-g2" kvg:element="&#24062;" kvg:position="bottom" kvg:radical="tradit"><path id="kvg:05e0b-s5" kvg:type="&#12753;" d="M23.81,62.7c0.66,0.28,2.06,2.13,2.19,2.7c0.13,0.57,2,21.59,2.78,26.93"/><path id="kvg:05e0b-s6" kvg:type="&#12742;a" d="M26.09,64.3c4.14-0.2,52.28-4.19,55.37-4.31c3.63-0.14,4.42,2.51,4.29,3.81c-0.66,6.54-2.68,17.54-4.8,23.95c-1.53,4.61-4.2,2.5-7.2-0.95"/><path id="kvg:05e0b-s7" kvg:type="&#12753;" d="M52.75,49.88c0.66,0.29,2.06,2.13,2.19,2.7c0.13,0.57-0.09,45.23-0.22,48.8"/></g></g></g></svg>