<svg xmlns="http://www.w3.org/2000/svg" width="109" height="109" viewBox="0 0 109 109"><g xmlns:kvg="http://kanjivg.tagaini.net" id="kvg:StrokePaths_05e19" style="fill:none;stroke:#000000;stroke-width:3;stroke-linecap:round;stroke-linejoin:round;"><g id="kvg:05e19" kvg:element="&#24089;"><g id="kvg:05e19-g1" kvg:element="&#24062;" kvg:position="left" kvg:radical="general"><path id="kvg:05e19-s1" kvg:type="&#12753;" d="M10.38,35.31c0.54,0.39,1.69,2.92,1.8,3.7c0.43,3.08,2.47,29.06,2.36,33.93"/><path id="kvg:05e19-s2" kvg:type="&#12742;a" d="M11.41,36.75c2.22-0.27,23.57-3.41,25.23-3.57c1.95-0.19,3.17,1.34,3.2,3.07c0.15,8.75-0.54,21.35-1.67,29.89c-0.82,6.14-3.41,2.12-5.76-0.27"/><path id="kvg:05e19-s3" kvg:type="&#12753;" d="M23,14.13c0.61,0.42,1.89,3.18,2.01,4.03c0.12,0.85-0.08,74.16-0.2,79.47"/></g><g id="kvg:05e19-g2" kvg:element="&#22833;" kvg:position="right"><g id="kvg:05e19-g3" kvg:element="&#20031;"><path id="kvg:05e19-s4" kvg:type="&#12754;" d="M55.12,22.08c0.03,0.59,0.05,1.53-0.05,2.38c-0.63,5.01-4.24,16.01-9.18,22.74"/></g><g id="kvg:05e19-g4" kvg:element="&#22827;"><path id="kvg:05e19-s5" kvg:type="&#12752;" d="M55.66,35.72c0.76,0.33,2.15,0.4,2.93,0.33c10.56-0.94,20.45-3.62,27.58-4.22c1.27-0.11,4.37,0.16,5,0.32"/><g id="kvg:05e19-g5" kvg:element="&#22823;"><path id="kvg:05e19-s6" kvg:type="&#12752;" d="M45.07,55.96c1.8,0.11,4.14,0.29,4.86,0.24c9.04-0.61,37.59-3.74,43.96-3.66c1.18,0.02,4.03,0.11,4.62,0.23"/><path id="kvg:05e19-s7" kvg:type="&#12754;" d="M68.79,12c0.52,1.3,0.72,2.5,0.72,5.01c0,53.29-3.25,62.46-30.01,79.74"/><path id="kvg:05e19-s8" kvg:type="&#12751;" d="M67.64,58.09c7.42,11.89,17.48,29.35,24.87,35.9c2.15,1.91,3.6,2.83,4.49,3.07"/></g></g></g></g></g></svg>