<svg xmlns="http://www.w3.org/2000/svg" width="109" height="109" viewBox="0 0 109 109"><g xmlns:kvg="http://kanjivg.tagaini.net" id="kvg:StrokePaths_05e2f" style="fill:none;stroke:#000000;stroke-width:3;stroke-linecap:round;stroke-linejoin:round;"><g id="kvg:05e2f" kvg:element="&#24111;"><g id="kvg:05e2f-g1" kvg:element="&#19991;" kvg:position="top"><g id="kvg:05e2f-g2" kvg:element="&#21317;"><g id="kvg:05e2f-g3" kvg:element="&#24318;"><g id="kvg:05e2f-g4" kvg:element="&#24319;" kvg:part="1" kvg:variant="true"><g id="kvg:05e2f-g5" kvg:element="&#21313;" kvg:part="1"><path id="kvg:05e2f-s1" kvg:type="&#12752;" d="M12.25,27.95c4.25,0.93,8.04,0.63,11.77,0.17c15.23-1.87,43.1-4.25,61.23-4.96c3.59-0.14,6.62,0.09,10,0.63"/></g></g><g id="kvg:05e2f-g6" kvg:element="&#24029;" kvg:part="1" kvg:variant="true" kvg:original="&#24027;"><g id="kvg:05e2f-g7" kvg:element="&#20031;" kvg:variant="true"><g id="kvg:05e2f-g8" kvg:element="&#24319;" kvg:part="2" kvg:variant="true"><path id="kvg:05e2f-s2" kvg:type="&#12753;" d="M33,14c1,1,1.67,2.5,1.61,3.5c-0.2,3.31-0.6,13.03-0.84,20c-0.04,1.18-0.08,2.27-0.11,3.25"/></g></g></g><g id="kvg:05e2f-g9" kvg:element="&#24029;" kvg:part="2" kvg:variant="true" kvg:original="&#24027;"><g id="kvg:05e2f-g10" kvg:element="&#21313;" kvg:part="2"><g id="kvg:05e2f-g11" kvg:element="&#24319;" kvg:part="3" kvg:variant="true"><path id="kvg:05e2f-s3" kvg:type="&#12753;a" d="M53.45,10.5c0.96,0.96,1.38,2.48,1.36,3.5c-0.07,4.25-0.19,14.88-0.21,23"/></g></g></g></g><g id="kvg:05e2f-g12" kvg:element="&#24029;" kvg:part="1" kvg:variant="true" kvg:original="&#24027;"><path id="kvg:05e2f-s4" kvg:type="&#12753;a" d="M74.65,12.5c0.86,0.86,1.44,2.48,1.36,3.5c-0.27,3.5-1.64,11.38-2.46,19.25"/></g></g><g id="kvg:05e2f-g13" kvg:element="&#24319;" kvg:part="4" kvg:variant="true"><path id="kvg:05e2f-s5" kvg:type="&#12752;b" d="M33.85,39.88c9.78-1.01,26.65-3.01,36.04-3.63c2.04-0.13,3.74-0.13,5.19,0.38"/></g></g><g id="kvg:05e2f-g14" kvg:position="bottom"><g id="kvg:05e2f-g15" kvg:element="&#20886;"><path id="kvg:05e2f-s6" kvg:type="&#12756;" d="M17.75,50.62c-0.15,3.93-3.73,16.28-5,18.62"/><path id="kvg:05e2f-s7" kvg:type="&#12758;b" d="M18.4,52.34c3.84-0.45,49.59-6.35,68.62-6.35c14.24,0,1.12,7.48-0.56,8.81"/></g><g id="kvg:05e2f-g16" kvg:element="&#24062;" kvg:radical="general"><path id="kvg:05e2f-s8" kvg:type="&#12753;" d="M30.71,62.14c0.66,0.61,1.19,1.99,1.19,3.03c0,2.09,0.03,10.83,0.05,17.2c0,1.88,0.01,3.55,0.01,4.78"/><path id="kvg:05e2f-s9" kvg:type="&#12742;a" d="M32.43,64.79c5.07-0.92,39.64-4.98,42.37-5.13c3.22-0.18,3.88,3.04,3.8,4.63c-0.46,8.48-0.6,11.46-2,18.01c-0.86,4-4.22,2.82-6.62-0.41"/><path id="kvg:05e2f-s10" kvg:type="&#12753;" d="M52.1,50.88c1.01,1.01,1.44,2.37,1.44,3.53c0,0.57,0.04,25.2,0.05,38.08c0,3.1,0.01,5.52,0.01,6.76"/></g></g></g></g></svg>