<svg xmlns="http://www.w3.org/2000/svg" width="109" height="109" viewBox="0 0 109 109"><g xmlns:kvg="http://kanjivg.tagaini.net" id="kvg:StrokePaths_05e2d" style="fill:none;stroke:#000000;stroke-width:3;stroke-linecap:round;stroke-linejoin:round;"><g id="kvg:05e2d" kvg:element="&#24109;"><g id="kvg:05e2d-g1" kvg:element="&#24191;" kvg:position="tare" kvg:radical="general" kvg:phon="&#24246;1T"><path id="kvg:05e2d-s1" kvg:type="&#12753;a" d="M54.81,9.63c1.03,1.03,1.51,2.37,1.51,3.65c0,2.34-0.07,5.09-0.07,7.46"/><g id="kvg:05e2d-g2" kvg:element="&#21378;"><path id="kvg:05e2d-s2" kvg:type="&#12752;" d="M22.63,24.23c3.87,0.65,7,0.61,10.25,0.25c14.62-1.6,32.52-3.47,47.87-4.6c3.14-0.23,6.02-0.22,9.12,0.44"/><path id="kvg:05e2d-s3" kvg:type="&#12754;" d="M25.99,24.75c0.82,0.82,0.93,2.12,0.9,3.52c-0.39,21.1-3.77,45.48-16.84,60.44"/></g></g><g id="kvg:05e2d-g3" kvg:element="&#24319;" kvg:phon="&#24246;2T"><g id="kvg:05e2d-g4" kvg:element="&#21313;"><path id="kvg:05e2d-s4" kvg:type="&#12752;" d="M30.53,40.5c2.73,0.66,5.76,0.21,8.51-0.07c9.04-0.9,27.83-3.28,39.84-4.24c2.97-0.24,5.88-0.49,8.85-0.06"/><path id="kvg:05e2d-s5" kvg:type="&#12753;" d="M43.66,30.79c0.77,0.77,1.34,1.87,1.43,2.4c0.57,3.52,1.4,15.08,1.93,21.18c0.08,0.94,0.16,1.74,0.22,2.37"/></g><path id="kvg:05e2d-s6" kvg:type="&#12753;a" d="M68.4,26.75c0.86,0.86,1.1,2.12,0.93,3.4C68.53,36.29,66.62,47.3,66,52.5"/><path id="kvg:05e2d-s7" kvg:type="&#12752;b" d="M48.25,56c3.59-0.38,11.4-1.8,16.5-2.4c1.64-0.19,2.98-0.08,3.75-0.1"/></g><g id="kvg:05e2d-g5" kvg:element="&#24062;" kvg:radical="tradit"><path id="kvg:05e2d-s8" kvg:type="&#12753;" d="M34.13,68.3c0.91,0.91,1.62,1.95,1.85,3.13c0.78,4.07,1.58,9.52,2.67,18.81c0.13,1.09,0.26,2.22,0.39,3.42"/><path id="kvg:05e2d-s9" kvg:type="&#12742;a" d="M36.47,69.56C42,69,78.71,65.05,81.32,64.9c3.06-0.17,3.73,2.9,3.62,4.41c-0.55,7.57-1.28,10.85-3.3,18.21c-1.17,4.24-4.27,0.94-5.82-0.6"/><path id="kvg:05e2d-s10" kvg:type="&#12753;" d="M57.23,58c1.07,1.07,1.35,2.5,1.35,3.63c0,4.25,0.04,22.84,0.06,34.25c0,2.38,0,4.2,0,5.12"/></g></g></g></svg>