<svg xmlns="http://www.w3.org/2000/svg" width="109" height="109" viewBox="0 0 109 109"><g xmlns:kvg="http://kanjivg.tagaini.net" id="kvg:StrokePaths_05e36" style="fill:none;stroke:#000000;stroke-width:3;stroke-linecap:round;stroke-linejoin:round;"><g id="kvg:05e36" kvg:element="&#24118;"><g id="kvg:05e36-g1" kvg:position="top"><g id="kvg:05e36-g2" kvg:element="&#24319;"><g id="kvg:05e36-g3" kvg:element="&#21313;"><path id="kvg:05e36-s1" kvg:type="&#12752;" d="M17.2,23.16c1.29,0.46,3.65,0.54,4.94,0.46c6.72-0.42,48.26-4.66,62.41-4.86c2.15-0.03,3.43,0.22,4.51,0.45"/><path id="kvg:05e36-s2" kvg:type="&#12753;" d="M44.64,11.11c0.9,0.32,1.44,1.43,1.63,2.07c0.18,0.64,0,18.59-0.18,22.57"/></g><path id="kvg:05e36-s3" kvg:type="&#12753;a" d="M58.4,9.75c0.9,0.32,1.45,1.43,1.63,2.07s-0.95,15.36-1.49,21.25"/><path id="kvg:05e36-s4" kvg:type="&#12752;b" d="M46.08,34.64c4.17-0.39,11.66-1.61,14.75-1.75"/></g><path id="kvg:05e36-s5" kvg:type="&#12754;" d="M33.73,13.25c0.48,0.71,0.66,1.27,0.66,2.16c0,8.14-2.14,20.84-13.84,24.55"/><path id="kvg:05e36-s6" kvg:type="&#12740;" d="M70.25,10.5c0.8,1.05,1.49,2.29,1.49,3.92c0,2.18-0.24,11.28-0.24,12.83c0,5,1,6,8,6c4.75,0,7.25,0,9.26-1.37"/></g><g id="kvg:05e36-g4" kvg:position="bottom"><g id="kvg:05e36-g5" kvg:element="&#20886;"><path id="kvg:05e36-s7" kvg:type="&#12756;" d="M22.41,43.63c0,3.48-3.03,13.05-4.41,15.37"/><path id="kvg:05e36-s8" kvg:type="&#12758;b" d="M22.24,46.74c15.26-2.24,55.74-5.53,63.45-5.9c12.05-0.59,2.55,7.16-0.45,9.28"/></g><g id="kvg:05e36-g6" kvg:element="&#24062;" kvg:radical="tradit"><path id="kvg:05e36-s9" kvg:type="&#12753;" d="M31.26,59.2c0.48,0.29,1.5,2.13,1.6,2.7c0.1,0.57-0.06,23.37-0.16,26.93"/><path id="kvg:05e36-s10" kvg:type="&#12742;a" d="M33.29,61.8c3.02-0.2,39.64-3.69,41.9-3.81c2.65-0.14,3.22,2.51,3.13,3.81c-0.48,6.54-1.81,16.7-4.5,23.45c-1.76,4.41-3.98,0.64-5.25-0.96"/><path id="kvg:05e36-s11" kvg:type="&#12753;" d="M52.58,45.38c0.48,0.29,1.5,2.13,1.6,2.7c0.1,0.57-0.06,49.73-0.16,53.3"/></g></g></g></g></svg>