<svg xmlns="http://www.w3.org/2000/svg" width="109" height="109" viewBox="0 0 109 109"><g xmlns:kvg="http://kanjivg.tagaini.net" id="kvg:StrokePaths_05e7a" style="fill:none;stroke:#000000;stroke-width:3;stroke-linecap:round;stroke-linejoin:round;"><g id="kvg:05e7a" kvg:element="&#24186;" kvg:radical="general"><path id="kvg:05e7a-s1" kvg:type="&#12764;" d="M52.38,14.87c0.6,1.81,0.67,3.04-0.3,5.12C48,28.75,39.75,38.5,33.18,44.49c-1.11,1.02-0.69,3.18,0.5,3.52c6.33,1.81,13.57,2.74,22.18,6.13"/><path id="kvg:05e7a-s2" kvg:type="&#12764;" d="M74.98,27.31c0.6,0.9,0.21,4.26-0.5,5.32c-8.73,13.11-32.83,40.03-47.29,54.79c-1.94,1.98-1.23,4.39,1.21,3.91c13.11-2.59,36.25-6.83,49.21-9.24"/><path id="kvg:05e7a-s3" kvg:type="&#12756;" d="M68.39,67.96c5.73,4.65,14.81,19.13,16.24,26.37"/></g></g></svg>