<svg xmlns="http://www.w3.org/2000/svg" width="109" height="109" viewBox="0 0 109 109"><g xmlns:kvg="http://kanjivg.tagaini.net" id="kvg:StrokePaths_05e76" style="fill:none;stroke:#000000;stroke-width:3;stroke-linecap:round;stroke-linejoin:round;"><g id="kvg:05e76" kvg:element="&#24182;"><g id="kvg:05e76-g1" kvg:element="&#20843;" kvg:variant="true" kvg:position="top" kvg:radical="nelson"><path id="kvg:05e76-s1" kvg:type="&#12756;" d="M35.33,12.14c2.86,2.04,7.39,8.4,8.1,11.58"/><path id="kvg:05e76-s2" kvg:type="&#12754;" d="M69.96,11.14c0.02,0.37,0.05,0.96-0.05,1.5c-0.62,3.16-4.16,10.09-9,14.33"/></g><g id="kvg:05e76-g2" kvg:position="bottom"><g id="kvg:05e76-g3" kvg:element="&#24178;" kvg:part="1" kvg:radical="tradit"><path id="kvg:05e76-s3" kvg:type="&#12752;" d="M23,32.25c1.22,0.45,3.47,0.54,4.69,0.45c9.06-0.7,43.88-5.12,55.52-5.12c2.04,0,3.27,0.21,4.29,0.44"/><g id="kvg:05e76-g4" kvg:element="&#21313;" kvg:part="1"><path id="kvg:05e76-s4" kvg:type="&#12752;" d="M15.25,60.7c1.52,0.54,4.3,0.66,5.82,0.54C37.5,60,74.25,56,91.69,56.01c2.53,0,4.05,0.26,5.31,0.53"/></g></g><path id="kvg:05e76-s5" kvg:type="&#12754;" d="M42.74,33.75c0.67,1.74,1.63,3.11,1.63,5.28C44.36,58.88,46,82,24.31,97.72"/><g id="kvg:05e76-g5" kvg:element="&#24178;" kvg:part="2" kvg:radical="tradit"><g id="kvg:05e76-g6" kvg:element="&#21313;" kvg:part="2"><path id="kvg:05e76-s6" kvg:type="&#12753;" d="M65.87,31.75c1.09,0.5,1.74,2.25,1.96,3.25c0.22,1,0,57.25-0.22,63.5"/></g></g></g></g></g></svg>