<svg xmlns="http://www.w3.org/2000/svg" width="109" height="109" viewBox="0 0 109 109"><g xmlns:kvg="http://kanjivg.tagaini.net" id="kvg:StrokePaths_05e74" style="fill:none;stroke:#000000;stroke-width:3;stroke-linecap:round;stroke-linejoin:round;"><g id="kvg:05e74" kvg:element="&#24180;"><g id="kvg:05e74-g1" kvg:element="&#20031;" kvg:radical="nelson"><path id="kvg:05e74-s1" kvg:type="&#12754;" d="M40.01,11.89c0.24,1.61-0.01,2.86-0.84,4.46c-2.53,4.84-6.91,11.4-15.86,19.62"/></g><g id="kvg:05e74-g2" kvg:element="&#24178;" kvg:part="1" kvg:radical="tradit"><path id="kvg:05e74-s2" kvg:type="&#12752;" d="M39.13,23.62c2.25,0.38,4.4,0.18,5.79,0.03c11.7-1.27,21.33-2.9,33.22-4.07c2.3-0.23,4.2,0,5.35,0.26"/><g id="kvg:05e74-g3" kvg:element="&#21313;"><path id="kvg:05e74-s3" kvg:type="&#12752;" d="M30.13,43.59c1.36,0.33,3.87,0.46,5.21,0.33c10.91-1.05,28.53-3.42,40.78-4.26c2.26-0.15,3.63,0.16,4.76,0.32"/></g></g><path id="kvg:05e74-s4" kvg:type="&#12753;a" d="M33.75,44.5c1,1.25,1,1.97,1.01,3.5C34.8,52.33,35,65.29,35,66.25"/><path id="kvg:05e74-s5" kvg:type="&#12752;" d="M13.88,67.74c1.97,0.47,5.61,0.66,7.57,0.47c20.21-2.03,36.35-4.62,66.65-5.31c3.29-0.08,5.26,0.22,6.91,0.46"/><g id="kvg:05e74-g4" kvg:element="&#24178;" kvg:part="2" kvg:radical="tradit"><path id="kvg:05e74-s6" kvg:type="&#12753;" d="M56.56,25.46c1.12,1.12,1.79,3.54,1.79,4.94c0,0.89-0.05,44.26-0.13,61.6c-0.01,3.12-0.03,5.39-0.05,6.38"/></g></g></g></svg>