<svg xmlns="http://www.w3.org/2000/svg" width="109" height="109" viewBox="0 0 109 109"><g xmlns:kvg="http://kanjivg.tagaini.net" id="kvg:StrokePaths_05e8f" style="fill:none;stroke:#000000;stroke-width:3;stroke-linecap:round;stroke-linejoin:round;"><g id="kvg:05e8f" kvg:element="&#24207;"><g id="kvg:05e8f-g1" kvg:element="&#24191;" kvg:position="tare" kvg:radical="general"><path id="kvg:05e8f-s1" kvg:type="&#12753;a" d="M54.31,8.13c0.84,0.84,1.51,2.62,1.51,4.15c0,1.96-0.07,4.09-0.07,8.96"/><g id="kvg:05e8f-g2" kvg:element="&#21378;"><path id="kvg:05e8f-s2" kvg:type="&#12752;" d="M21.13,24.23c1.52,0.54,4.3,0.63,5.82,0.54c15.8-0.91,43.05-5.02,59.61-5.73c2.53-0.11,4.05,0.26,5.31,0.53"/><path id="kvg:05e8f-s3" kvg:type="&#12754;" d="M24.74,25c0.88,0.88,1.3,2.51,1.16,4.61c-1.4,20.27-3.52,42.02-16.09,58.86"/></g></g><g id="kvg:05e8f-g3" kvg:element="&#20104;" kvg:phon="&#20104;"><g id="kvg:05e8f-g4" kvg:element="&#12510;" kvg:position="top"><path id="kvg:05e8f-s4" kvg:type="&#12743;" d="M42.7,33.92c1.18,0.58,3.55,0.5,4.9,0.29c2.67-0.42,21.39-4.3,24.2-4.72c2.82-0.42,3.78,1.77,2.1,3.14c-2.88,2.36-13.42,11.66-15.2,13.34"/><path id="kvg:05e8f-s5" kvg:type="&#12756;" d="M49.5,42.25c2.66,1.18,9.55,5.74,10.8,8.83"/></g><g id="kvg:05e8f-g5" kvg:element="&#20102;" kvg:position="bottom"><path id="kvg:05e8f-s6" kvg:type="&#12743;a" d="M32.84,57.58c2.41,0.54,3.93,0.76,6.24,0.31c8.42-1.64,30.44-6.27,42.59-7.24c8.57-0.69,2.57,5.1-1.93,9.6"/><g id="kvg:05e8f-g6" kvg:element="&#20101;"><path id="kvg:05e8f-s7" kvg:type="&#12762;" d="M60.46,55.91c0.87,0.88,1.33,2.58,1.33,4.16c0,1.57-0.02,30.9-0.02,33.78c0,9.78-5.77,1.03-7.81-1.54"/></g></g></g></g></g></svg>