<svg xmlns="http://www.w3.org/2000/svg" width="109" height="109" viewBox="0 0 109 109"><g xmlns:kvg="http://kanjivg.tagaini.net" id="kvg:StrokePaths_05e83" style="fill:none;stroke:#000000;stroke-width:3;stroke-linecap:round;stroke-linejoin:round;"><g id="kvg:05e83" kvg:element="&#24195;"><g id="kvg:05e83-g1" kvg:element="&#24191;" kvg:position="tare" kvg:radical="general"><path id="kvg:05e83-s1" kvg:type="&#12753;a" d="M55.1,15.28c1.12,1.12,1.58,2.47,1.58,4.14c0,2.46-0.07,5.21-0.07,9.28"/><g id="kvg:05e83-g2" kvg:element="&#21378;"><path id="kvg:05e83-s2" kvg:type="&#12752;" d="M25.38,31.24c2.05,0.5,5.56,0.66,7.6,0.5c13.01-1,33.26-3.37,49.47-3.67c3.41-0.06,5.46,0.24,7.17,0.49"/><path id="kvg:05e83-s3" kvg:type="&#12754;" d="M27.64,32.32c0.48,1.18,0.54,2.27,0.41,4.09C27.25,47.62,24.12,71.5,12,87.25"/></g></g><g id="kvg:05e83-g3" kvg:element="&#21430;" kvg:phon="&#21430;"><path id="kvg:05e83-s4" kvg:type="&#12764;" d="M59.48,44.99c0.39,1.51,0.14,3.51-0.73,5.26c-6.05,12.1-14,25-22.17,38.22c-1.83,2.95-1.31,4.35,1.97,3.67c9.7-2.01,29.33-6.26,42.83-8.86"/><path id="kvg:05e83-s5" kvg:type="&#12756;" d="M72.56,69.34C77.75,74,85.25,85.5,88,93.75"/></g></g></g></svg>