<svg xmlns="http://www.w3.org/2000/svg" width="109" height="109" viewBox="0 0 109 109"><g xmlns:kvg="http://kanjivg.tagaini.net" id="kvg:StrokePaths_05e9c" style="fill:none;stroke:#000000;stroke-width:3;stroke-linecap:round;stroke-linejoin:round;"><g id="kvg:05e9c" kvg:element="&#24220;"><g id="kvg:05e9c-g1" kvg:element="&#24191;" kvg:position="tare" kvg:radical="general"><path id="kvg:05e9c-s1" kvg:type="&#12753;a" d="M52.31,11.38c1.03,1.03,1.51,2.62,1.51,3.4c0,1.84-0.07,4.59-0.07,8.96"/><g id="kvg:05e9c-g2" kvg:element="&#21378;"><path id="kvg:05e9c-s2" kvg:type="&#12752;" d="M20.63,26.98c1.98,0.54,5.62,0.71,7.59,0.54C45.8,26,63.05,23.12,83.95,22.54c3.3-0.09,5.28,0.26,6.93,0.53"/><path id="kvg:05e9c-s3" kvg:type="&#12754;" d="M24.24,28.25c1,1,1.29,2.26,1.15,4.23c-0.89,12.9-3.14,37.15-15.34,53.99"/></g></g><g id="kvg:05e9c-g3" kvg:element="&#20184;" kvg:phon="&#20184;"><g id="kvg:05e9c-g4" kvg:element="&#20155;" kvg:variant="true" kvg:original="&#20154;" kvg:position="left"><path id="kvg:05e9c-s4" kvg:type="&#12754;" d="M45.19,33.63c0.19,1.47-0.05,2.92-0.67,4.17c-3.92,8.01-9.28,18.09-18.27,27.84"/><path id="kvg:05e9c-s5" kvg:type="&#12753;" d="M37.35,55.28c0.94,0.94,1.5,2.65,1.5,3.94c0,5.21,0,20.51-0.01,30.9c0,2.37,0,4.48,0,6.16"/></g><g id="kvg:05e9c-g5" kvg:element="&#23544;" kvg:position="right"><path id="kvg:05e9c-s6" kvg:type="&#12752;" d="M48.08,53.06c2.05,0.44,4.61,0.45,6.25,0.23c13.55-1.79,26.18-3.54,36.1-4.18c2.7-0.17,4.34,0.05,5.7,0.36"/><path id="kvg:05e9c-s7" kvg:type="&#12762;" d="M76.73,31.08c0.84,0.84,1.36,2.29,1.36,3.8c0,17.87,0.02,51.23,0.02,55.09c0,11.28-5.99,2.4-8.21-0.06"/><path id="kvg:05e9c-s8" kvg:type="&#12756;" d="M56.61,67.15c2.32,1.55,6.01,6.38,6.59,8.8"/></g></g></g></g></svg>