<svg xmlns="http://www.w3.org/2000/svg" width="109" height="109" viewBox="0 0 109 109"><g xmlns:kvg="http://kanjivg.tagaini.net" id="kvg:StrokePaths_05ec8" style="fill:none;stroke:#000000;stroke-width:3;stroke-linecap:round;stroke-linejoin:round;"><g id="kvg:05ec8" kvg:element="&#24264;"><g id="kvg:05ec8-g1" kvg:element="&#24191;" kvg:position="tare" kvg:radical="general"><path id="kvg:05ec8-s1" kvg:type="&#12753;a" d="M54.81,8.63c0.76,0.38,2.36,2.88,2.51,3.65c0.15,0.77,0.08,2.65-0.07,7.46"/><g id="kvg:05ec8-g2" kvg:element="&#21378;"><path id="kvg:05ec8-s2" kvg:type="&#12752;" d="M24.13,21.95c1.65,0.33,4.67,0.38,6.32,0.33c17.16-0.55,40.52-3.06,57.15-3.5c2.75-0.07,4.4,0.16,5.77,0.32"/><path id="kvg:05ec8-s3" kvg:type="&#12754;" d="M27.99,23c0.05,1.61,0.03,4.14-0.1,6.45C27,45.75,25,77,11.06,90.72"/></g></g><g id="kvg:05ec8-g3" kvg:element="&#22799;"><g id="kvg:05ec8-g4" kvg:position="top"><path id="kvg:05ec8-s4" kvg:type="&#12752;" d="M37.71,31.5c0.94,0.32,2.68,0.47,3.61,0.32c3.81-0.62,20.17-3.56,38.19-3.64c1.57-0.01,2.51,0.15,3.3,0.31"/><g id="kvg:05ec8-g5" kvg:element="&#33258;"><path id="kvg:05ec8-s5" kvg:type="&#12754;" d="M57.29,31.16c0.26,0.09,0.07,2.04-0.04,2.35c-0.83,2.57-1.88,4.34-4.38,6.73"/><g id="kvg:05ec8-g6" kvg:element="&#30446;"><path id="kvg:05ec8-s6" kvg:type="&#12753;" d="M42.38,40.3c0.55,0.54,1.35,1.78,1.35,2.5c0,0.72,1.32,21.11,1.5,21.83"/><path id="kvg:05ec8-s7" kvg:type="&#12757;a" d="M44.64,41.36c3.1-0.09,28.25-2.87,31.08-2.87c1.29,0,2.5,0.7,2.51,2.85c0,0.88,0.01,13.17,0.01,21.62"/><path id="kvg:05ec8-s8" kvg:type="&#12752;a" d="M45.09,48.33c6.11-0.12,27.4-2.66,32.38-2.66"/><path id="kvg:05ec8-s9" kvg:type="&#12752;a" d="M45.34,55.58c8.21-0.3,23.79-2.6,31.76-2.6"/><path id="kvg:05ec8-s10" kvg:type="&#12752;a" d="M45.13,63.4c6.16,0,23.32-2.33,31.29-2.33"/></g></g></g><g id="kvg:05ec8-g7" kvg:element="&#22786;" kvg:position="bottom"><path id="kvg:05ec8-s11" kvg:type="&#12754;" d="M51.99,65.45c0.06,0.53-0.21,1.93-0.61,2.62C48.5,73,42,81.5,31.58,87.81"/><path id="kvg:05ec8-s12" kvg:type="&#12743;" d="M52.04,72.19c0.39,0.03,2.17,0,3.29-0.07c3.67-0.24,11.23-2.63,16.48-3.37c3.6-0.51,3.68,1.48,2.76,2.86c-5.04,7.56-24.13,22.76-46.32,28.15"/><path id="kvg:05ec8-s13" kvg:type="&#12751;" d="M48.69,76.79c5.45,3.66,28.62,16.79,35.96,20.14c2.19,1,3.96,1.48,6.1,1.78"/></g></g></g></g></svg>