<svg xmlns="http://www.w3.org/2000/svg" width="109" height="109" viewBox="0 0 109 109"><g xmlns:kvg="http://kanjivg.tagaini.net" id="kvg:StrokePaths_05edd" style="fill:none;stroke:#000000;stroke-width:3;stroke-linecap:round;stroke-linejoin:round;"><g id="kvg:05edd" kvg:element="&#24285;"><g id="kvg:05edd-g1" kvg:element="&#24191;" kvg:position="tare" kvg:radical="general"><path id="kvg:05edd-s1" kvg:type="&#12753;a" d="M51.81,9.63c0.76,0.38,2.36,2.88,2.51,3.65c0.15,0.77,0.08,3.65-0.07,8.46"/><g id="kvg:05edd-g2" kvg:element="&#21378;"><path id="kvg:05edd-s2" kvg:type="&#12752;" d="M17.38,23.37c1.75,0.4,4.96,0.47,6.71,0.4c18.22-0.67,43.01-3.72,60.66-4.24c2.91-0.09,4.67,0.19,6.13,0.39"/><path id="kvg:05edd-s3" kvg:type="&#12754;" d="M23,24c0.04,1.65-0.08,4.26-0.08,6.64c0,15.11-2.17,48.11-12.87,63.07"/></g></g><g id="kvg:05edd-g3" kvg:element="&#26031;"><g id="kvg:05edd-g4" kvg:element="&#20854;" kvg:position="left"><g id="kvg:05edd-g5" kvg:position="top"><g id="kvg:05edd-g6" kvg:element="&#29976;"><g id="kvg:05edd-g7" kvg:element="&#24319;" kvg:part="1"><g id="kvg:05edd-g8" kvg:element="&#21313;"><path id="kvg:05edd-s4" kvg:type="&#12752;" d="M25.92,42.14c1.2,0.14,3.24,0.81,3.81,0.75c5.23-0.61,18.93-1.83,25.35-2.34c0.95-0.08,2.38,0.15,2.85,0.3"/><path id="kvg:05edd-s5" kvg:type="&#12753;a" d="M33.76,30.23c0.66,0.43,1.05,1.92,1.18,2.77c0.13,0.85,0,38.55-0.13,43.88"/></g><path id="kvg:05edd-s6" kvg:type="&#12753;a" d="M48.57,28.75c0.66,0.43,1.05,1.92,1.18,2.77c0.13,0.85,0,39.21-0.13,44.54"/></g><path id="kvg:05edd-s7" kvg:type="&#12752;a" d="M35.19,53.76c2.42-0.21,11.94-1.19,14.21-1.4"/><g id="kvg:05edd-g9" kvg:element="&#24319;" kvg:part="2"><path id="kvg:05edd-s8" kvg:type="&#12752;a" d="M35.54,65.35c2.72-0.21,11.03-1.47,14.21-1.9"/></g></g><path id="kvg:05edd-s9" kvg:type="&#12752;" d="M24.88,78.2c1.17,0.06,2.33,0.07,3.17,0c5.7-0.45,19.2-2.17,28.31-2.99c1.37-0.12,2.2,0.21,2.89,0.44"/></g><g id="kvg:05edd-g10" kvg:element="&#20843;" kvg:position="bottom"><path id="kvg:05edd-s10" kvg:type="&#12754;" d="M34.74,81.65c0.04,0.38,0.08,0.97-0.08,1.51c-0.95,3.18-6.41,10.16-13.89,14.43"/><path id="kvg:05edd-s11" kvg:type="&#12756;/&#12751;" d="M45.95,82.82c2.57,1.87,6.65,7.68,7.29,10.58"/></g></g><g id="kvg:05edd-g11" kvg:element="&#26020;" kvg:position="right"><path id="kvg:05edd-s12" kvg:type="&#12754;" d="M84.92,26.87c0.05,0.3,0.19,0.88-0.09,1.2c-3.89,4.38-8.87,7.69-17.08,11.46"/><path id="kvg:05edd-s13" kvg:type="&#12754;" d="M66.38,39.03c0.79,1.72,0.8,3.35,0.78,5.22c-0.06,5.64-0.12,7.11-0.12,13.83c0,12.28-1.68,27.47-7.46,36.12"/><path id="kvg:05edd-s14" kvg:type="&#12752;" d="M67.28,51.87c0.29,0.15,1.44,0.18,2.24,0.09c3.98-0.46,16.41-1.83,21.33-2.3c0.79-0.08,2.16-0.15,2.65,0"/><path id="kvg:05edd-s15" kvg:type="&#12753;" d="M80.79,53.03c0.64,0.48,1.02,2.15,1.15,3.1c0.13,0.95,0,36.16-0.13,42.12"/></g></g></g></g></svg>