<svg xmlns="http://www.w3.org/2000/svg" width="109" height="109" viewBox="0 0 109 109"><g xmlns:kvg="http://kanjivg.tagaini.net" id="kvg:StrokePaths_05eda" style="fill:none;stroke:#000000;stroke-width:3;stroke-linecap:round;stroke-linejoin:round;"><g id="kvg:05eda" kvg:element="&#24282;"><g id="kvg:05eda-g1" kvg:element="&#24191;" kvg:position="tare" kvg:radical="general"><path id="kvg:05eda-s1" kvg:type="&#12753;a" d="M51.39,10.38c0.71,0.36,2.22,2.7,2.36,3.43c0.14,0.72,0.07,3.43-0.07,7.94"/><g id="kvg:05eda-g2" kvg:element="&#21378;"><path id="kvg:05eda-s2" kvg:type="&#12752;" d="M19.38,24.68c1.68,0.59,4.76,0.68,6.44,0.59c17.47-0.98,41.25-5.45,58.19-6.22c2.79-0.13,4.48,0.28,5.88,0.58"/><path id="kvg:05eda-s3" kvg:type="&#12754;" d="M24,25.5c0.03,1.64,0.07,4.24-0.07,6.6C23.09,46,21.18,79.74,12.06,94.72"/></g></g><g id="kvg:05eda-g3" kvg:position="left"><g id="kvg:05eda-g4" kvg:element="&#21513;" kvg:part="1"><g id="kvg:05eda-g5" kvg:element="&#22763;"><path id="kvg:05eda-s4" kvg:type="&#12752;" d="M27.36,40.55c0.77,0.22,2.19,0.23,2.96,0.13c6.02-0.75,17.67-2.63,24.13-2.94c1.29-0.06,2.06,0.04,2.7,0.14"/><path id="kvg:05eda-s5" kvg:type="&#12753;" d="M40.67,30.51c1.02,0.36,1.83,1.7,1.83,2.52c0,2.77,0.15,7.55,0.15,15.81"/><g id="kvg:05eda-g6" kvg:element="&#35910;" kvg:part="1"><path id="kvg:05eda-s6" kvg:type="&#12752;" d="M30.99,50.34c0.52,0.14,1.47,0.11,1.98,0.07c6.84-0.51,9.87-1.72,19.78-2.22c0.86-0.04,1.38,0.02,1.81,0.08"/></g></g><g id="kvg:05eda-g7" kvg:element="&#35910;" kvg:part="2"><g id="kvg:05eda-g8" kvg:element="&#21513;" kvg:part="2"><g id="kvg:05eda-g9" kvg:element="&#21475;"><path id="kvg:05eda-s7" kvg:type="&#12753;" d="M31.39,58.42c0.24,0.24,0.48,0.43,0.58,0.73c0.82,2.34,1.8,9.79,2.36,13.99"/><path id="kvg:05eda-s8" kvg:type="&#12757;b" d="M32.86,59.66c5.79-0.98,16.71-2.71,19.7-3.04c1.09-0.12,1.75,1.22,1.59,1.93c-0.65,2.95-1.08,6.04-2.47,10.29"/><path id="kvg:05eda-s9" kvg:type="&#12752;b" d="M34.57,71.1c3.51-0.37,14.91-1.51,19.36-1.88"/></g></g></g></g><g id="kvg:05eda-g10" kvg:element="&#35910;" kvg:part="3"><path id="kvg:05eda-s10" kvg:type="&#12756;" d="M31.35,77.9c2.12,1.51,5.46,6.21,5.99,8.56"/><path id="kvg:05eda-s11" kvg:type="&#12754;" d="M52.21,73.45c0.01,0.31,0.03,0.8-0.03,1.24c-0.33,2.62-2.24,8.36-4.85,11.88"/><path id="kvg:05eda-s12" kvg:type="&#12752;" d="M25.93,93.17c0.64,1.36,2.18,1.84,4.35,1.16c11.09-3.49,15.81-5.63,25.68-8.74"/></g></g><g id="kvg:05eda-g11" kvg:element="&#23544;" kvg:position="right"><path id="kvg:05eda-s13" kvg:type="&#12752;" d="M60.32,45.16c1.33,0.55,3.75,0.22,5.09,0.05c8.4-1.06,16.09-2.71,26.14-3.73c2.2-0.22,3.54,0.26,4.64,0.54"/><path id="kvg:05eda-s14" kvg:type="&#12762;" d="M82.54,26.96c0.07,0.44,0.98,2.27,0.98,5.03c0,18.6-0.2,53.52-0.2,58.05c0,10.97-5.88,1.62-7.6,0.23"/><path id="kvg:05eda-s15" kvg:type="&#12756;" d="M66.92,57.54c2,1.88,5.18,7.73,5.68,10.65"/></g></g></g></svg>