<svg xmlns="http://www.w3.org/2000/svg" width="109" height="109" viewBox="0 0 109 109"><g xmlns:kvg="http://kanjivg.tagaini.net" id="kvg:StrokePaths_05f01" style="fill:none;stroke:#000000;stroke-width:3;stroke-linecap:round;stroke-linejoin:round;"><g id="kvg:05f01" kvg:element="&#24321;"><g id="kvg:05f01-g1" kvg:element="&#21430;" kvg:position="top" kvg:radical="nelson"><path id="kvg:05f01-s1" kvg:type="&#12764;" d="M52.05,10.75c0.2,0.88-0.05,2.25-0.52,3.01c-4.91,7.99-13.16,17.99-21.34,25.72c-2.48,2.34-2.01,4.29,1.68,3.51C41.25,41,60,37,73.69,34.09"/><path id="kvg:05f01-s2" kvg:type="&#12756;" d="M66.21,25.98c5.35,2.87,13.17,11.4,15.17,16.24"/></g><g id="kvg:05f01-g2" kvg:element="&#24318;" kvg:position="bottom" kvg:radical="tradit"><g id="kvg:05f01-g3" kvg:element="&#21313;" kvg:part="1"><path id="kvg:05f01-s3" kvg:type="&#12752;" d="M13.88,63.48c3.75,0.77,6.66,0.58,9.75,0.28c16.75-1.63,44.02-4.51,62.75-5.32c3.21-0.14,6.6-0.04,9.75,0.64"/></g><g id="kvg:05f01-g4" kvg:element="&#20031;"><path id="kvg:05f01-s4" kvg:type="&#12754;" d="M40.13,45.25c1.06,1.06,1.79,2.55,1.82,4.37c0.42,23.5-2.45,37.88-19.45,49.13"/></g><g id="kvg:05f01-g5" kvg:element="&#21313;" kvg:part="2"><path id="kvg:05f01-s5" kvg:type="&#12753;" d="M66.62,42.25c0.94,0.94,1.46,2.38,1.46,3.5c0,4.25-0.05,33.74-0.07,47c0,3.12-0.01,5.34-0.01,6.12"/></g></g></g></g></svg>