<svg xmlns="http://www.w3.org/2000/svg" width="109" height="109" viewBox="0 0 109 109"><g xmlns:kvg="http://kanjivg.tagaini.net" id="kvg:StrokePaths_05f0f" style="fill:none;stroke:#000000;stroke-width:3;stroke-linecap:round;stroke-linejoin:round;"><g id="kvg:05f0f" kvg:element="&#24335;"><g id="kvg:05f0f-g1" kvg:element="&#24331;" kvg:part="1" kvg:radical="general" kvg:phon="&#24331;1"><path id="kvg:05f0f-s1" kvg:type="&#12752;" d="M17.5,39.45c2.61,0.54,7.43,0.8,10.02,0.54c13.86-1.37,34.52-4.37,56.22-5.48c4.34-0.22,6.97,0.01,9.14,0.28"/></g><g id="kvg:05f0f-g2" kvg:element="&#24037;" kvg:variant="true"><path id="kvg:05f0f-s2" kvg:type="&#12752;" d="M22.46,60.85c1.01,0.33,2.66,0.44,3.68,0.34c8.48-0.81,14.4-2.44,21.9-3.04c1.55-0.12,2.98,0.07,4.27,0.34"/><path id="kvg:05f0f-s3" kvg:type="&#12753;a" d="M36.71,62.1c1.03,1.03,1.38,2.15,1.38,3.4c0,4.43-0.1,12.03-0.1,16.5"/><path id="kvg:05f0f-s4" kvg:type="&#12736;/&#12752;" d="M17.54,88.55c0.96,0.82,3.25,0.88,4.34,0.45C33.16,84.5,39.07,82.5,56,76.25"/></g><g id="kvg:05f0f-g3" kvg:element="&#24331;" kvg:part="2" kvg:radical="general" kvg:phon="&#24331;2"><path id="kvg:05f0f-s5" kvg:type="&#12738;" d="M55.5,10.5c2,1.75,2.91,3.98,3.25,7.75c2.38,26.38,10,61.75,32,75.25c7.43,4.56,6.12,1.88,4.5-9.5"/><g id="kvg:05f0f-g4" kvg:element="&#20022;"><path id="kvg:05f0f-s6" kvg:type="&#12756;" d="M78,11.25c3.85,2.05,9.46,6.74,11.25,10.25"/></g></g></g></g></svg>