<svg xmlns="http://www.w3.org/2000/svg" width="109" height="109" viewBox="0 0 109 109"><g xmlns:kvg="http://kanjivg.tagaini.net" id="kvg:StrokePaths_05f09" style="fill:none;stroke:#000000;stroke-width:3;stroke-linecap:round;stroke-linejoin:round;"><g id="kvg:05f09" kvg:element="&#24329;"><g id="kvg:05f09-g1" kvg:element="&#22767;" kvg:position="top"><g id="kvg:05f09-g2" kvg:element="&#29247;" kvg:position="left"><path id="kvg:05f09-s1" kvg:type="&#12740;" d="M41.34,12.22c0.75,0.86,1.24,2.33,1.24,3.33c0,9.68-0.02,36.77-0.02,40.07"/><path id="kvg:05f09-s2" kvg:type="&#12752;" d="M23.76,14.56c0.86,0.4,1.19,1.37,1.27,2.7c0.11,1.99-0.97,8.89-1.23,10.97c-0.09,0.66,0.17,1.8,1.44,1.55c4.43-0.89,12.52-2.03,17.02-2.02"/><path id="kvg:05f09-s3" kvg:type="&#12754;" d="M14.75,40.4c1.6,0.11,1.93,0.45,3.8,0.37c8.01-0.33,18.26-2.71,23.85-2.9"/><path id="kvg:05f09-s4" kvg:type="&#12753;" d="M27.72,40.81c0.03,0.44-0.06,1.12-0.06,1.75c0,5.36-1.67,11.31-9.72,16.73"/></g><g id="kvg:05f09-g3" kvg:element="&#22763;" kvg:position="right"><path id="kvg:05f09-s5" kvg:type="&#12752;" d="M49,30.32c0.93,0.22,2.81,0.43,4.73,0.28c9.49-0.74,25.82-2.94,37.07-3.18c1.45-0.03,2.79,0.13,3.51,0.27"/><path id="kvg:05f09-s6" kvg:type="&#12753;a" d="M67.72,11.75c0.13,0.32,1.93,1.65,1.93,3.68c0,7.07,0.11,28.07,0.11,34.48"/><path id="kvg:05f09-s7" kvg:type="&#12752;" d="M52.67,51.17c0.79,0.19,2.25,0.23,3.04,0.19c9.84-0.52,23.03-2.04,31.83-2.29c1.32-0.04,2.12,0.09,2.78,0.18"/></g></g><g id="kvg:05f09-g4" kvg:element="&#24318;" kvg:position="bottom" kvg:radical="tradit"><g id="kvg:05f09-g5" kvg:element="&#21313;" kvg:part="1"><path id="kvg:05f09-s8" kvg:type="&#12752;" d="M15.38,71.47c1.52,0.46,4.3,0.53,5.82,0.46c15.8-0.76,50.05-4.86,70.11-5.25c2.53-0.05,4.05,0.22,5.31,0.45"/></g><g id="kvg:05f09-g6" kvg:element="&#20031;"><path id="kvg:05f09-s9" kvg:type="&#12754;" d="M42.47,59.97c1.36,1.26,1.14,1.84,1.22,3.16c0.65,12.01-2.01,29.1-23.69,35.66"/></g><g id="kvg:05f09-g7" kvg:element="&#21313;" kvg:part="2"><path id="kvg:05f09-s10" kvg:type="&#12753;" d="M68.87,57.23c1.09,0.42,1.74,1.9,1.96,2.74c0.22,0.84,0,33.76-0.22,39.03"/></g></g></g></g></svg>