<svg xmlns="http://www.w3.org/2000/svg" width="109" height="109" viewBox="0 0 109 109"><g xmlns:kvg="http://kanjivg.tagaini.net" id="kvg:StrokePaths_05f16" style="fill:none;stroke:#000000;stroke-width:3;stroke-linecap:round;stroke-linejoin:round;"><g id="kvg:05f16" kvg:element="&#24342;"><g id="kvg:05f16-g1" kvg:element="&#24339;" kvg:position="top" kvg:radical="general"><path id="kvg:05f16-s1" kvg:type="&#12757;c" d="M32.2,17.81c1.55,1.19,3.24,1.49,5.04,1.27c1.8-0.21,26.62-2.97,30.22-3.61s4.6,1.53,3.52,3.22c-0.73,1.15-2.06,6.77-2.97,11.05c-0.43,2.05-0.77,3.79-0.91,4.59"/><path id="kvg:05f16-s2" kvg:type="&#12752;" d="M38.5,37.25c2.64,0,24.32-2.5,26.21-2.5s3.78,0,5.29,0"/><path id="kvg:05f16-s3" kvg:type="&#12745;" d="M37.64,33.97c0.61,1.28,0.41,3.16-0.29,4.5c-0.8,1.54-7.04,14.64-7.41,15.49c-0.36,0.85,0,2.97,2.88,2.55c5.17-0.76,32.78-4.95,38.55-5.58c5.77-0.64,4.37,4.27,3.95,5.79c-2.16,7.86-4.57,15.29-9.39,24.14c-2.79,5.12-8.5-0.14-10.14-1.78"/></g><g id="kvg:05f16-g2" kvg:element="&#19968;" kvg:position="bottom"><path id="kvg:05f16-s4" kvg:type="&#12752;" d="M15,95.02c2.33,0.29,6.12,0.7,7.86,0.58c21.26-1.46,47.47-4.45,65.52-4.44c2.91,0,4.66,0.28,6.12,0.57"/></g></g></g></svg>