<svg xmlns="http://www.w3.org/2000/svg" width="109" height="109" viewBox="0 0 109 109"><g xmlns:kvg="http://kanjivg.tagaini.net" id="kvg:StrokePaths_05f50" style="fill:none;stroke:#000000;stroke-width:3;stroke-linecap:round;stroke-linejoin:round;"><g id="kvg:05f50" kvg:element="&#24400;" kvg:variant="true" kvg:original="&#24401;" kvg:radical="tradit"><path id="kvg:05f50-s1" kvg:type="&#12757;" d="M26.75,40.5c2.5,0.25,3.7,0.66,6,0.5c14-1,31-3.25,42-3.25c3.25,0,5.5,1.25,5,3.75c-1.31,6.54-2.25,9.75-4,21"/><path id="kvg:05f50-s2" kvg:type="&#12752;" d="M16,54.75c2.25,0.25,4.01,0.73,6.5,0.5c21.75-2,47.25-5.5,64.5-6.25c2.76-0.12,5,0.5,6.25,0.75"/><path id="kvg:05f50-s3" kvg:type="&#12752;c" d="M28.25,65.93c1.25,0.15,3.51,0.54,5,0.46C47,65.63,61,64.41,73.5,64.11c2-0.05,3.25,0,4.75,0.15"/></g></g></svg>