<svg xmlns="http://www.w3.org/2000/svg" width="109" height="109" viewBox="0 0 109 109"><g xmlns:kvg="http://kanjivg.tagaini.net" id="kvg:StrokePaths_05f62" style="fill:none;stroke:#000000;stroke-width:3;stroke-linecap:round;stroke-linejoin:round;"><g id="kvg:05f62" kvg:element="&#24418;"><g id="kvg:05f62-g1" kvg:element="&#24181;" kvg:partial="true" kvg:position="left" kvg:phon="&#24181;"><g id="kvg:05f62-g2" kvg:element="&#24178;"><path id="kvg:05f62-s1" kvg:type="&#12752;" d="M19.63,23.42c1.2,0.38,3.39,0.46,4.59,0.38c4.66-0.3,16.61-2.55,25.33-3.88c1.96-0.3,3.83-0.32,4.83-0.13"/><g id="kvg:05f62-g3" kvg:element="&#21313;"><path id="kvg:05f62-s2" kvg:type="&#12752;" d="M10.88,51.92c1.82,0.38,4.24,0.39,6.04,0.13c13.24-1.92,31.41-5.55,39.38-6.3c3.01-0.28,4.85-0.07,6.36,0.12"/><path id="kvg:05f62-s3" kvg:type="&#12754;/&#12753;" d="M28.52,36.64c0.98,0.98,1.19,2.31,1.19,4.02C29.71,57,30.38,74.5,19,88"/></g></g><g id="kvg:05f62-g4" kvg:element="&#24178;" kvg:partial="true"><g id="kvg:05f62-g5" kvg:element="&#21313;" kvg:partial="true"><path id="kvg:05f62-s4" kvg:type="&#12753;" d="M45.87,27.25c1,1,1.46,2.38,1.46,3.5c0,0.87-0.12,43.25-0.12,58.26c0,2.92-0.06,5.04-0.1,5.99"/></g></g></g><g id="kvg:05f62-g6" kvg:element="&#24417;" kvg:position="right" kvg:radical="general"><g id="kvg:05f62-g7" kvg:element="&#20031;"><path id="kvg:05f62-s5" kvg:type="&#12754;" d="M85.5,17.5c0.13,1.15-0.23,2.18-0.89,3.13C81.25,25.46,76,31.75,67.38,36.75"/></g><g id="kvg:05f62-g8" kvg:element="&#20031;"><path id="kvg:05f62-s6" kvg:type="&#12754;" d="M90.51,41.5c0.15,1.2-0.03,2.02-0.64,3.07C86.63,50.11,78.28,57.44,66.88,64"/></g><g id="kvg:05f62-g9" kvg:element="&#20031;"><path id="kvg:05f62-s7" kvg:type="&#12754;" d="M96.8,64.71c0.2,1.4-0.39,2.9-1.21,4.04c-4.76,6.62-15.5,17.3-31.85,24.38"/></g></g></g></g></svg>