<svg xmlns="http://www.w3.org/2000/svg" width="109" height="109" viewBox="0 0 109 109"><g xmlns:kvg="http://kanjivg.tagaini.net" id="kvg:StrokePaths_05f6d" style="fill:none;stroke:#000000;stroke-width:3;stroke-linecap:round;stroke-linejoin:round;"><g id="kvg:05f6d" kvg:element="&#24429;"><g id="kvg:05f6d-g1" kvg:position="left"><g id="kvg:05f6d-g2" kvg:element="&#21513;" kvg:part="1"><g id="kvg:05f6d-g3" kvg:element="&#22763;"><path id="kvg:05f6d-s1" kvg:type="&#12752;" d="M13.62,25.66c1.04,0.32,2.96,0.84,4,0.69c8.13-1.1,24.38-2.85,33.12-3.3c1.74-0.09,2.78,0.06,3.65,0.2"/><path id="kvg:05f6d-s2" kvg:type="&#12753;" d="M32.68,13.26c1.47,0.52,2.65,2.49,2.65,3.69c0,4.05,0.23,9.05,0.23,21.14"/><g id="kvg:05f6d-g4" kvg:element="&#35910;" kvg:part="1"><path id="kvg:05f6d-s3" kvg:type="&#12752;" d="M18.18,39.03c0.75,0.21,2.13,0.12,2.88,0.11C31.25,39,39.5,37.5,49.79,36.38c1.25-0.14,2,0.02,2.63,0.12"/></g></g><g id="kvg:05f6d-g5" kvg:element="&#35910;" kvg:part="2"><g id="kvg:05f6d-g6" kvg:element="&#21513;" kvg:part="2"><g id="kvg:05f6d-g7" kvg:element="&#21475;"><path id="kvg:05f6d-s4" kvg:type="&#12753;" d="M19.49,48.42c0.33,0.28,0.67,0.51,0.81,0.86c1.14,2.78,2.51,10.44,3.29,15.42"/><path id="kvg:05f6d-s5" kvg:type="&#12757;b" d="M21.54,49.9c8.07-1.16,24.31-3.72,28.47-4.11c1.52-0.14,2.44,1.45,2.22,2.29c-0.9,3.5-1.51,6.49-3.45,11.53"/><path id="kvg:05f6d-s6" kvg:type="&#12752;b" d="M23.92,62.88c4.89-0.44,20.79-2.38,27-2.83"/></g></g></g></g><g id="kvg:05f6d-g8" kvg:element="&#35910;" kvg:part="3"><path id="kvg:05f6d-s7" kvg:type="&#12756;" d="M22.77,70.61c2.31,2.28,5.97,9.37,6.54,12.91"/><path id="kvg:05f6d-s8" kvg:type="&#12754;" d="M47.79,64.14c0.01,0.43,0.03,1.12-0.03,1.73c-0.34,3.66-2.29,11.68-4.95,16.59"/><path id="kvg:05f6d-s9" kvg:type="&#12752;" d="M16.25,91.25C17,93,18.8,93.66,21.32,92.74C30.25,89.5,42.75,84,54.25,80"/></g></g><g id="kvg:05f6d-g9" kvg:element="&#24417;" kvg:position="right" kvg:radical="general"><g id="kvg:05f6d-g10" kvg:element="&#20031;"><path id="kvg:05f6d-s10" kvg:type="&#12754;" d="M85.8,14c0.06,0.53,0.24,1.45-0.13,2.15c-2.46,4.58-10.92,13.6-22.95,19.76"/></g><g id="kvg:05f6d-g11" kvg:element="&#20031;"><path id="kvg:05f6d-s11" kvg:type="&#12754;" d="M89.01,37.86c0.08,0.58,0.3,1.58-0.16,2.32C85.72,45.27,74,56.25,60.19,62.42"/></g><g id="kvg:05f6d-g12" kvg:element="&#20031;"><path id="kvg:05f6d-s12" kvg:type="&#12754;" d="M93.79,63c0.11,0.84-0.07,2.75-0.72,3.87C88.75,74.25,75,87.75,54.32,98.5"/></g></g></g></g></svg>