<svg xmlns="http://www.w3.org/2000/svg" width="109" height="109" viewBox="0 0 109 109"><g xmlns:kvg="http://kanjivg.tagaini.net" id="kvg:StrokePaths_05f80" style="fill:none;stroke:#000000;stroke-width:3;stroke-linecap:round;stroke-linejoin:round;"><g id="kvg:05f80" kvg:element="&#24448;"><g id="kvg:05f80-g1" kvg:element="&#24435;" kvg:position="left" kvg:radical="general"><path id="kvg:05f80-s1" kvg:type="&#12754;" d="M31.84,15.75c0.05,0.5-0.24,1.65-0.61,2.26C28.66,22.35,21.88,30,13.62,35.75"/><g id="kvg:05f80-g2" kvg:element="&#20155;" kvg:variant="true" kvg:original="&#20154;"><path id="kvg:05f80-s2" kvg:type="&#12754;" d="M34.1,33.5c0.06,0.78-0.18,2.43-0.63,3.4C30.32,43.69,22.3,54.5,10.75,66"/><path id="kvg:05f80-s3" kvg:type="&#12753;" d="M24.72,54c0.58,0.58,1.15,2.12,1.15,3.16c0,0.41-0.05,20.89-0.06,31.59c0,2.69-0.01,4.77-0.01,5.75"/></g></g><g id="kvg:05f80-g3" kvg:element="&#20027;" kvg:position="right"><g id="kvg:05f80-g4" kvg:element="&#20022;" kvg:position="top"><path id="kvg:05f80-s4" kvg:type="&#12756;" d="M58.89,15.57c3.45,1.84,8.51,6.83,9.37,9.53"/></g><g id="kvg:05f80-g5" kvg:element="&#29579;" kvg:original="&#29577;" kvg:partial="true" kvg:position="bottom" kvg:phon="&#29579;"><path id="kvg:05f80-s5" kvg:type="&#12752;" d="M46.59,36.87c2.16,0.63,4.45,0.39,6.15,0.17c8.18-1.04,20.16-2.56,28.64-3.01c1.96-0.1,4.5-0.16,6.33,0.25"/><path id="kvg:05f80-s6" kvg:type="&#12753;a" d="M64.14,38.57c1.02,1.02,1.43,2.31,1.43,3.97c0,6.29,0.38,37.5,0.17,43.78"/><path id="kvg:05f80-s7" kvg:type="&#12752;" d="M48.88,61.65c1.99,0.6,4.54,0.33,6.12,0.16c6.23-0.68,19.11-2.32,25.99-2.92c2.05-0.18,4.25-0.39,6.3,0"/><path id="kvg:05f80-s8" kvg:type="&#12752;" d="M36.67,88.67c3.46,0.7,6.79,0.58,9.59,0.38c16.18-1.17,34.12-2.13,43.25-2.59c2.64-0.14,6.25,0.04,8.5,0.77"/></g></g></g></g></svg>