<svg xmlns="http://www.w3.org/2000/svg" width="109" height="109" viewBox="0 0 109 109"><g xmlns:kvg="http://kanjivg.tagaini.net" id="kvg:StrokePaths_05f82" style="fill:none;stroke:#000000;stroke-width:3;stroke-linecap:round;stroke-linejoin:round;"><g id="kvg:05f82" kvg:element="&#24450;"><g id="kvg:05f82-g1" kvg:element="&#24435;" kvg:position="left" kvg:radical="general"><path id="kvg:05f82-s1" kvg:type="&#12754;" d="M33.09,16.25c0.05,0.52,0.26,1.44-0.11,2.08c-2.61,4.5-10.46,15.33-18.11,19.92"/><g id="kvg:05f82-g2" kvg:element="&#20155;" kvg:variant="true" kvg:original="&#20154;"><path id="kvg:05f82-s2" kvg:type="&#12754;" d="M38.33,32.75c0.07,0.71,0.36,1.97-0.15,2.84c-3.55,6.13-12.9,16.79-25.93,27.16"/><path id="kvg:05f82-s3" kvg:type="&#12753;" d="M27.72,53c0.36,0.25,0.57,1.15,0.65,1.66c0.07,0.51,0,39.15-0.07,42.34"/></g></g><g id="kvg:05f82-g3" kvg:element="&#19988;" kvg:position="right"><g id="kvg:05f82-g4" kvg:element="&#26376;"><path id="kvg:05f82-s4" kvg:type="&#12753;a" d="M50.12,20.69c0.62,1.09,1.03,2.16,1.24,3.22c0.21,1.06,0.45,65.13,0.38,67.48"/><path id="kvg:05f82-s5" kvg:type="&#12757;b" d="M52.57,23.39c2.39-0.11,25.28-3.63,27.05-3.81c3.18-0.32,4.39,3.68,4,5.23c-0.38,1.48-0.19,42.22-0.3,63.41"/><path id="kvg:05f82-s6" kvg:type="&#12752;a" d="M51.66,44.62c8.15-1.05,24.48-2.56,31.64-2.89"/><path id="kvg:05f82-s7" kvg:type="&#12752;a" d="M52.14,65.1c6.37-0.38,22.29-2.35,29.65-2.4"/></g><g id="kvg:05f82-g5" kvg:element="&#19968;"><path id="kvg:05f82-s8" kvg:type="&#12752;" d="M38.65,92.54c1.23,0.46,3.49,0.53,4.72,0.46c12.81-0.76,36.46-3.05,49.35-3.05c2.05,0,3.28,0.22,4.31,0.44"/></g></g></g></g></svg>