<svg xmlns="http://www.w3.org/2000/svg" width="109" height="109" viewBox="0 0 109 109"><g xmlns:kvg="http://kanjivg.tagaini.net" id="kvg:StrokePaths_05f99" style="fill:none;stroke:#000000;stroke-width:3;stroke-linecap:round;stroke-linejoin:round;"><g id="kvg:05f99" kvg:element="&#24473;"><g id="kvg:05f99-g1" kvg:element="&#24435;" kvg:position="left" kvg:radical="general"><path id="kvg:05f99-s1" kvg:type="&#12754;" d="M34.59,15.75c0.06,0.48,0.27,1.33-0.11,1.92C31.8,21.81,23.73,31.78,15.87,36"/><g id="kvg:05f99-g2" kvg:element="&#20155;" kvg:variant="true" kvg:original="&#20154;"><path id="kvg:05f99-s2" kvg:type="&#12754;" d="M36.85,35.25c0.07,0.71,0.32,1.97-0.13,2.84C33.53,44.22,24.75,56.5,13.5,65.25"/><path id="kvg:05f99-s3" kvg:type="&#12753;" d="M27.22,55c0.36,0.25,1.07,1.65,1.15,2.16c0.07,0.51,0,35.15-0.07,38.34"/></g></g><g id="kvg:05f99-g3" kvg:position="right"><g id="kvg:05f99-g4" kvg:element="&#27490;"><g id="kvg:05f99-g5" kvg:element="&#21340;" kvg:original="&#12488;"><path id="kvg:05f99-s4" kvg:type="&#12753;a" d="M64.37,16c1.09,0.5,1.74,2.25,1.96,3.25c0.22,1,0.5,19.75,0.28,26"/><path id="kvg:05f99-s5" kvg:type="&#12752;b" d="M66.88,30.5c7.12-0.75,11.87-2.25,18.85-3c1.73-0.19,2.18-0.25,3.26,0"/></g><path id="kvg:05f99-s6" kvg:type="&#12753;a" d="M49.37,25.25c1.09,0.5,1.74,2.25,1.96,3.25c0.22,1,1.5,12.25,1.28,18.5"/><path id="kvg:05f99-s7" kvg:type="&#12752;" d="M41,47.49c0.73,0.23,2.7,0.77,4.66,0.69c10.56-0.46,28.28-3.86,41.35-5.1c1.96-0.18,5.37,0.46,6.49,0.69"/></g><path id="kvg:05f99-s8" kvg:type="&#12753;" d="M65.86,48.5c0.39,0.46,1.31,2.48,1.31,3.4c0,6.25,0.36,23.91,0.28,29.63"/><path id="kvg:05f99-s9" kvg:type="&#12752;" d="M88.92,60.67c-1.24,0-2.72,0.02-4.29,0.31c-7.42,1.37-15.89,3.06-17.1,3.06"/><path id="kvg:05f99-s10" kvg:type="&#12754;" d="M51.84,57.31c0.08,0.88,0.56,2.25,0.38,3.53C50.64,71.92,49.29,81.53,38,92.21"/><path id="kvg:05f99-s11" kvg:type="&#12751;" d="M50.83,72.47c10.24,4.45,27.8,17.8,34.49,20.09c2.12,0.73,3.89,1.41,5.94,1.69"/></g></g></g></svg>