<svg xmlns="http://www.w3.org/2000/svg" width="109" height="109" viewBox="0 0 109 109"><g xmlns:kvg="http://kanjivg.tagaini.net" id="kvg:StrokePaths_05f93" style="fill:none;stroke:#000000;stroke-width:3;stroke-linecap:round;stroke-linejoin:round;"><g id="kvg:05f93" kvg:element="&#24467;"><g id="kvg:05f93-g1" kvg:element="&#24435;" kvg:position="left" kvg:radical="general"><path id="kvg:05f93-s1" kvg:type="&#12754;" d="M29.35,17c0.11,0.95-0.52,1.94-1.03,2.67c-2.78,4.03-8.94,9.95-16.2,14.58"/><g id="kvg:05f93-g2" kvg:element="&#20155;" kvg:variant="true" kvg:original="&#20154;"><path id="kvg:05f93-s2" kvg:type="&#12754;" d="M32.61,33.5c0.18,1.27-0.11,2.34-0.66,3.47C28.5,44.1,21.84,53.99,10.75,63.5"/><path id="kvg:05f93-s3" kvg:type="&#12753;" d="M24.22,52.75c0.7,0.7,0.9,2,0.9,2.91c0,3.59,0.02,25.51-0.03,35.84c-0.01,2.83-0.03,4.85-0.04,5.5"/></g></g><g id="kvg:05f93-g3" kvg:position="right" kvg:phon="&#20843;+&#30091;"><path id="kvg:05f93-s4" kvg:type="&#12756;" d="M45.88,19.5c3.15,2.6,8.15,10.68,8.93,14.72"/><path id="kvg:05f93-s5" kvg:type="&#12754;" d="M77.03,14.64c0.35,0.86,0.23,1.99-0.05,2.75c-2.1,5.73-5.23,12.6-9.42,20.32"/><g id="kvg:05f93-g4" kvg:element="&#30091;" kvg:variant="true"><path id="kvg:05f93-s6" kvg:type="&#12752;" d="M40.25,42.82c2.1,0.57,5.49,0.54,7.66,0.16c10.59-1.85,27.15-4.17,36.1-4.96c2.43-0.22,5.09-0.28,7.49,0.11"/><g id="kvg:05f93-g5" kvg:element="&#21340;" kvg:original="&#12488;"><path id="kvg:05f93-s7" kvg:type="&#12753;a" d="M63.35,44c0.82,0.82,1.36,2.12,1.36,3.12c0,0.86-0.02,27.38-0.02,35.28"/><path id="kvg:05f93-s8" kvg:type="&#12752;b" d="M66.91,61.18c4.84-0.56,8.71-1.93,14.25-2.67c1.42-0.19,1.78-0.2,2.67,0"/></g><g id="kvg:05f93-g6" kvg:element="&#20154;"><path id="kvg:05f93-s9" kvg:type="&#12754;" d="M48.07,60.62c0.18,0.76,0.18,1.72-0.09,2.79c-1.73,6.84-7.27,20.36-15.75,28.98"/><path id="kvg:05f93-s10" kvg:type="&#12751;" d="M45.72,74.13c5.32,2.53,23.74,12.54,34.13,17.56c2.1,1.01,6.77,2.94,10.73,4.06"/></g></g></g></g></g></svg>