<svg xmlns="http://www.w3.org/2000/svg" width="109" height="109" viewBox="0 0 109 109"><g xmlns:kvg="http://kanjivg.tagaini.net" id="kvg:StrokePaths_05fbd" style="fill:none;stroke:#000000;stroke-width:3;stroke-linecap:round;stroke-linejoin:round;"><g id="kvg:05fbd" kvg:element="&#24509;"><g id="kvg:05fbd-g1" kvg:element="&#24435;" kvg:position="left" kvg:radical="general"><path id="kvg:05fbd-s1" kvg:type="&#12754;" d="M28.11,17.25c0.04,0.5,0.21,1.4-0.08,2.01C25.95,23.6,19.7,34.07,13.62,38.5"/><g id="kvg:05fbd-g2" kvg:element="&#20155;" kvg:original="&#20154;"><path id="kvg:05fbd-s2" kvg:type="&#12754;" d="M30.36,35.25c0.06,0.68,0.29,1.89-0.12,2.72C27.4,43.85,19.93,54.06,9.5,64"/><path id="kvg:05fbd-s3" kvg:type="&#12753;" d="M23.22,53.5c0.36,0.25,0.57,1.15,0.65,1.66c0.07,0.51,0,35.15-0.07,38.34"/></g></g><g id="kvg:05fbd-g3" kvg:position="right"><g id="kvg:05fbd-g4" kvg:position="left"><g id="kvg:05fbd-g5" kvg:element="&#23665;" kvg:position="top"><path id="kvg:05fbd-s4" kvg:type="&#12753;a" d="M49.98,13.67c0.27,0.33,0.89,1.73,0.89,3.13c0,0.67-0.03,10.57-0.09,14.69"/><path id="kvg:05fbd-s5" kvg:type="&#12740;a" d="M37.98,20.89c0.29,0.36,0.62,1.89,0.58,2.61c-0.19,3.21-0.39,4.1-0.73,7.13c-0.19,1.61-0.15,3.23,0.58,3.01c2.59-0.8,21.01-2.62,24.66-2.82"/><path id="kvg:05fbd-s6" kvg:type="&#12753;" d="M64.19,17.8c0.29,0.36,0.62,2.68,0.58,3.41c-0.22,4.6-1.83,8.3-2.11,12.38"/></g><g id="kvg:05fbd-g6" kvg:position="bottom"><path id="kvg:05fbd-s7" kvg:type="&#12752;" d="M37.8,40.27c0.95,0.14,2.7,0,3.21-0.02c5.3-0.23,11.46-1.71,19.55-2.08c0.91-0.04,1.47-0.01,1.7,0.04"/><g id="kvg:05fbd-g7" kvg:element="&#31992;"><path id="kvg:05fbd-s8" kvg:type="&#12764;" d="M47.07,42c0.25,0.71,0.26,1.23-0.13,2c-1.7,3.4-5.7,7.46-9.03,10.17c-0.46,0.38-0.5,1.63,0,1.77c2.63,0.71,6.67,1.64,8.93,2.93"/><path id="kvg:05fbd-s9" kvg:type="&#12764;" d="M58.49,48.89c0.29,0.36,0.36,1.53,0,1.92c-5.59,6.04-14.92,13.76-22.61,18.89c-1.76,1.18,0.44,1.85,1.59,1.61c4.81-1,16.25-2.79,22.44-3.75"/><path id="kvg:05fbd-s10" kvg:type="&#12756;" d="M56.41,61.88c2.52,1.74,6.5,7.14,7.13,9.85"/><path id="kvg:05fbd-s11" kvg:type="&#12753;" d="M48.24,72.24c0.06,0.22,0.88,1.15,0.94,2.54c0.3,6.7-0.19,17.86-0.19,20.15"/><path id="kvg:05fbd-s12" kvg:type="&#12754;" d="M38.77,79.48c0.14,0.58,0.12,1.73-0.14,2.15c-1.65,2.72-5.79,7.98-8.13,10.31"/><path id="kvg:05fbd-s13" kvg:type="&#12756;" d="M56.94,76.55c2.74,2.16,4.85,7.16,5.49,9.11"/></g></g></g><g id="kvg:05fbd-g8" kvg:element="&#25909;" kvg:position="right"><g id="kvg:05fbd-g9" kvg:position="top"><path id="kvg:05fbd-s14" kvg:type="&#12754;" d="M77.19,16.89c0.03,0.78,0.18,2.04-0.07,3.13c-1.78,7.89-5.78,21.25-11.94,30.76"/><path id="kvg:05fbd-s15" kvg:type="&#12752;" d="M72.05,38.89c0.92,0.23,2.62,0,3.12-0.03c5.14-0.37,11.11-2.74,18.96-3.33c0.88-0.07,1.42-0.02,1.65,0.06"/></g><g id="kvg:05fbd-g10" kvg:element="&#20034;" kvg:position="bottom"><g id="kvg:05fbd-g11" kvg:element="&#20031;"><path id="kvg:05fbd-s16" kvg:type="&#12754;" d="M84.9,40.38c0.36,1.26,0.56,2.16,0.18,4.46C81.66,65.74,73.91,83.72,62.6,92.5"/></g><path id="kvg:05fbd-s17" kvg:type="&#12751;" d="M67.4,54.22c1.1,0,1.74,0.91,2.61,2.16c5.89,8.44,16.72,24.75,24.58,32.75c1.45,1.47,2.98,2.45,4.2,2.6"/></g></g></g></g></g></svg>