<svg xmlns="http://www.w3.org/2000/svg" width="109" height="109" viewBox="0 0 109 109"><g xmlns:kvg="http://kanjivg.tagaini.net" id="kvg:StrokePaths_05fd6" style="fill:none;stroke:#000000;stroke-width:3;stroke-linecap:round;stroke-linejoin:round;"><g id="kvg:05fd6" kvg:element="&#24534;"><g id="kvg:05fd6-g1" kvg:element="&#24516;" kvg:variant="true" kvg:original="&#24515;" kvg:position="left" kvg:radical="general"><path id="kvg:05fd6-s1" kvg:type="&#12756;" d="M18.22,37.25c0,6.61-3.72,16.36-4.69,18.25"/><path id="kvg:05fd6-s2" kvg:type="&#12756;" d="M30.02,32.33c3.19,2.41,8.24,9.89,9.04,13.63"/><path id="kvg:05fd6-s3" kvg:type="&#12753;" d="M25.37,13.25c1.09,0.5,1.74,2.25,1.96,3.25c0.22,1,0,74.75-0.22,81"/></g><g id="kvg:05fd6-g2" kvg:element="&#23544;" kvg:position="right"><path id="kvg:05fd6-s4" kvg:type="&#12752;" d="M45,39.03c1.34,0.47,3.78,0.59,5.13,0.47c14.82-1.32,25.36-3.5,41.69-4.22c2.22-0.1,3.57,0.23,4.68,0.46"/><path id="kvg:05fd6-s5" kvg:type="&#12762;" d="M78.48,13.83c0.1,0.48,1.41,2.49,1.41,5.52c0,20.4-0.29,62.66-0.29,67.62c0,12.03-6.35,4.03-8.67,1.25"/><path id="kvg:05fd6-s6" kvg:type="&#12756;" d="M53.83,52.62c3.09,2.47,7.98,10.16,8.75,14"/></g></g></g></svg>