<svg xmlns="http://www.w3.org/2000/svg" width="109" height="109" viewBox="0 0 109 109"><g xmlns:kvg="http://kanjivg.tagaini.net" id="kvg:StrokePaths_05fd8" style="fill:none;stroke:#000000;stroke-width:3;stroke-linecap:round;stroke-linejoin:round;"><g id="kvg:05fd8" kvg:element="&#24536;"><g id="kvg:05fd8-g1" kvg:element="&#20129;" kvg:position="top" kvg:phon="&#20129;"><g id="kvg:05fd8-g2" kvg:element="&#20128;" kvg:radical="nelson"><path id="kvg:05fd8-s1" kvg:type="&#12753;a" d="M51.97,11.74c1.08,1.08,1.35,3.13,1.35,4.42c0,4.18-0.02,7.97-0.02,11.53"/><g id="kvg:05fd8-g3" kvg:element="&#21304;" kvg:part="1" kvg:variant="true" kvg:original="&#21274;"><path id="kvg:05fd8-s2" kvg:type="&#12752;" d="M17.7,31.21c3.08,0.22,5.7,0.48,8.8,0.16c11.96-1.24,38.61-4.25,52-4.88c2.67-0.13,5.5-0.24,8.05,0.52"/></g></g><g id="kvg:05fd8-g4" kvg:element="&#21304;" kvg:part="2" kvg:variant="true" kvg:original="&#21274;"><path id="kvg:05fd8-s3" kvg:type="&#12740;" d="M33.07,33.85c0.79,0.79,1.16,2.15,1.16,3.84c0,1.8,0,3.68,0,5.86c0,7.69,1.53,8.82,22.53,8.82c8.12,0,15.39-0.15,22.47-1.91"/></g></g><g id="kvg:05fd8-g5" kvg:element="&#24515;" kvg:position="bottom" kvg:radical="tradit"><path id="kvg:05fd8-s4" kvg:type="&#12756;" d="M19.55,73.88c0.36,2.62-3.6,14.21-6.49,18.58"/><path id="kvg:05fd8-s5" kvg:type="&#12767;b" d="M30.12,69.01C37.62,86.12,51,98,82.32,96.61c7.78-0.35,8.43-3.11,3-8.2"/><path id="kvg:05fd8-s6" kvg:type="&#12756;a" d="M52.85,68.17c1.65,4.58,6.15,11.08,7.4,4.28"/><path id="kvg:05fd8-s7" kvg:type="&#12756;" d="M83.42,62.91c4.33,4.09,8.83,8.59,12.02,14.7"/></g></g></g></svg>