<svg xmlns="http://www.w3.org/2000/svg" width="109" height="109" viewBox="0 0 109 109"><g xmlns:kvg="http://kanjivg.tagaini.net" id="kvg:StrokePaths_05feb" style="fill:none;stroke:#000000;stroke-width:3;stroke-linecap:round;stroke-linejoin:round;"><g id="kvg:05feb" kvg:element="&#24555;"><g id="kvg:05feb-g1" kvg:element="&#24516;" kvg:variant="true" kvg:original="&#24515;" kvg:position="left" kvg:radical="general"><path id="kvg:05feb-s1" kvg:type="&#12756;" d="M14.75,39.5c0,6.61-2.97,16.36-3.75,18.25"/><path id="kvg:05feb-s2" kvg:type="&#12756;" d="M30.88,36.5c2.89,1.45,7.46,5.96,8.18,8.22"/><path id="kvg:05feb-s3" kvg:type="&#12753;" d="M23.87,14.75c0.88,0.88,1.46,2.62,1.46,4c0,0.84-0.15,47.34-0.2,67.88c-0.01,4.35-0.02,7.54-0.02,8.88"/></g><g id="kvg:05feb-g2" kvg:element="&#22828;" kvg:position="right" kvg:phon="&#22828;"><path id="kvg:05feb-s4" kvg:type="&#12757;c" d="M45.81,36.01c1.21,0.6,3.37,1.02,5.18,0.76c8.64-1.27,24.15-4.36,26.52-4.72c4.02-0.6,5.28,1.1,4.68,4.12c-0.6,3.02-2.76,14.72-2.96,17.14"/><g id="kvg:05feb-g3" kvg:element="&#22823;"><path id="kvg:05feb-s5" kvg:type="&#12752;" d="M35.95,57.85c2.55,1.15,6.28,0.65,8.92,0.26c11.63-1.74,27.45-3.58,41.14-4.72c3.34-0.28,6.4-0.5,9.69,0.33"/><g id="kvg:05feb-g4" kvg:element="&#20154;"><path id="kvg:05feb-s6" kvg:type="&#12754;" d="M61.97,14.25c0.83,0.83,1.04,2.52,1.13,4.54C65.38,74,52.62,82.25,34.01,94.75"/><path id="kvg:05feb-s7" kvg:type="&#12751;" d="M62.55,56.56c6.09,7.38,17.41,23.75,25.66,31.31c1.97,1.8,4.41,3.76,7.09,5.04"/></g></g></g></g></g></svg>