<svg xmlns="http://www.w3.org/2000/svg" width="109" height="109" viewBox="0 0 109 109"><g xmlns:kvg="http://kanjivg.tagaini.net" id="kvg:StrokePaths_05fe4" style="fill:none;stroke:#000000;stroke-width:3;stroke-linecap:round;stroke-linejoin:round;"><g id="kvg:05fe4" kvg:element="&#24548;"><g id="kvg:05fe4-g1" kvg:element="&#24516;" kvg:variant="true" kvg:original="&#24515;" kvg:position="left" kvg:radical="tradit"><path id="kvg:05fe4-s1" kvg:type="&#12756;" d="M17.22,36.25c0,6.61-3.72,16.36-4.69,18.25"/><path id="kvg:05fe4-s2" kvg:type="&#12756;" d="M29.52,29.83c3.02,2.14,7.79,8.8,8.54,12.13"/><path id="kvg:05fe4-s3" kvg:type="&#12753;" d="M24.87,11.75c1.09,0.5,1.74,2.25,1.96,3.25c0.22,1,0,76.25-0.22,82.5"/></g><g id="kvg:05fe4-g2" kvg:element="&#21320;" kvg:position="right"><g id="kvg:05fe4-g3" kvg:position="top"><path id="kvg:05fe4-s4" kvg:type="&#12754;" d="M55,13.39c0.03,0.7,0.07,1.82-0.06,2.83c-0.78,5.96-5.78,18.3-11.33,27.06"/><g id="kvg:05fe4-g4" kvg:element="&#24178;" kvg:part="1"><path id="kvg:05fe4-s5" kvg:type="&#12752;" d="M55.29,26.55c0.72,0.17,2.04,0.19,2.76,0.17c4.82-0.12,18.37-2.36,27.29-3.78c1.17-0.19,4.09,0.08,4.69,0.17"/></g></g><g id="kvg:05fe4-g5" kvg:element="&#24178;" kvg:part="2" kvg:position="bottom"><g id="kvg:05fe4-g6" kvg:element="&#21313;"><path id="kvg:05fe4-s6" kvg:type="&#12752;" d="M39,54.4c1.43,0.36,4.04,0.44,5.47,0.36c14.12-0.72,25.38-3.06,48.28-3.7c2.38-0.07,3.8,0.17,4.99,0.36"/><path id="kvg:05fe4-s7" kvg:type="&#12753;" d="M67.25,28.52c0.42,0.48,1.33,3.62,1.41,4.59c0.09,0.97-0.05,58.48-0.14,64.53"/></g></g></g></g></g></svg>