<svg xmlns="http://www.w3.org/2000/svg" width="109" height="109" viewBox="0 0 109 109"><g xmlns:kvg="http://kanjivg.tagaini.net" id="kvg:StrokePaths_05fff" style="fill:none;stroke:#000000;stroke-width:3;stroke-linecap:round;stroke-linejoin:round;"><g id="kvg:05fff" kvg:element="&#24575;"><g id="kvg:05fff-g1" kvg:element="&#20998;" kvg:position="top"><g id="kvg:05fff-g2" kvg:element="&#20843;" kvg:position="top" kvg:radical="nelson"><path id="kvg:05fff-s1" kvg:type="&#12754;" d="M40.95,15.64c0.41,0.84-0.09,1.78-0.58,2.82c-3.99,8.58-15.24,21.47-23.62,25.13"/><path id="kvg:05fff-s2" kvg:type="&#12751;" d="M56.69,11c10.48,3.11,20.96,22.83,29.7,27.8c3.38,1.92,4.59,2.95,7.86,3.57"/></g><g id="kvg:05fff-g3" kvg:element="&#20992;" kvg:position="bottom"><path id="kvg:05fff-s3" kvg:type="&#12742;" d="M34.6,40.41c1.4,0.84,2.76,0.77,3.83,0.67c8.71-0.87,26.38-2.59,31.21-2.91c3.14-0.21,4.03,1.62,3.86,3.08c-0.46,3.84-3.75,16.01-7.72,22.36c-3.5,5.59-4.28,4.15-7.37-0.31"/><path id="kvg:05fff-s4" kvg:type="&#12754;" d="M52,43.15c0.07,0.54,0.24,1.44-0.15,2.19c-4.35,8.44-11.1,15.47-25.35,22.32"/></g></g><g id="kvg:05fff-g4" kvg:element="&#24515;" kvg:position="bottom" kvg:radical="tradit"><path id="kvg:05fff-s5" kvg:type="&#12756;" d="M26.14,80.07c0.42,2.35-4.2,12.75-7.56,16.67"/><path id="kvg:05fff-s6" kvg:type="&#12767;b" d="M34.58,76.75c6.8,11,17.54,20.55,43.75,20.68c12.64,0.07,13.47-3.93,2.92-8.94"/><path id="kvg:05fff-s7" kvg:type="&#12756;a" d="M53.91,75.75c2.17,5.25,5.32,10.5,7.63,2.46"/><path id="kvg:05fff-s8" kvg:type="&#12756;" d="M80.38,69.98c5.02,2.32,8.78,4.43,12.85,11.61"/></g></g></g></svg>