<svg xmlns="http://www.w3.org/2000/svg" width="109" height="109" viewBox="0 0 109 109"><g xmlns:kvg="http://kanjivg.tagaini.net" id="kvg:StrokePaths_05ff1" style="fill:none;stroke:#000000;stroke-width:3;stroke-linecap:round;stroke-linejoin:round;"><g id="kvg:05ff1" kvg:element="&#24561;"><g id="kvg:05ff1-g1" kvg:element="&#24516;" kvg:variant="true" kvg:original="&#24515;" kvg:position="left" kvg:radical="general"><path id="kvg:05ff1-s1" kvg:type="&#12756;" d="M17.47,37.5c0,6.06-4.31,15.02-5.44,16.75"/><path id="kvg:05ff1-s2" kvg:type="&#12756;" d="M29.02,31.58c2.84,2.19,7.33,8.98,8.04,12.38"/><path id="kvg:05ff1-s3" kvg:type="&#12753;" d="M24.37,13.75c1.09,0.5,1.74,2.25,1.96,3.25c0.22,1,0,73.75-0.22,80"/></g><g id="kvg:05ff1-g2" kvg:position="right"><g id="kvg:05ff1-g3" kvg:element="&#20886;"><path id="kvg:05ff1-s4" kvg:type="&#12756;" d="M46.41,33.38c0,3.54-2,13.26-2.91,15.62"/><path id="kvg:05ff1-s5" kvg:type="&#12758;b" d="M46.74,36.24c13.76-1.99,30.51-3.49,39.45-4.4c12.01-1.23,3.8,7.41-0.45,10.78"/></g><g id="kvg:05ff1-g4" kvg:element="&#20799;" kvg:original="&#20843;"><g id="kvg:05ff1-g5" kvg:element="&#20031;" kvg:position="left"><path id="kvg:05ff1-s6" kvg:type="&#12754;" d="M65.65,14c0.89,1.77,1.12,2.33,1.15,5.08c0.18,23.02-0.91,61.23-28.38,77.34"/></g><g id="kvg:05ff1-g6" kvg:position="right"><path id="kvg:05ff1-s7" kvg:type="&#12767;" d="M69.99,49.87c0.74,1.19,1.33,2.59,1.38,4.43c0.2,8.19-0.03,19.64-0.03,25.2c0,13-0.08,15.5,12.17,15.03c11.24-0.43,10.89-2.03,10.89-13.62"/></g></g></g></g></g></svg>