<svg xmlns="http://www.w3.org/2000/svg" width="109" height="109" viewBox="0 0 109 109"><g xmlns:kvg="http://kanjivg.tagaini.net" id="kvg:StrokePaths_0600e" style="fill:none;stroke:#000000;stroke-width:3;stroke-linecap:round;stroke-linejoin:round;"><g id="kvg:0600e" kvg:element="&#24590;"><g id="kvg:0600e-g1" kvg:element="&#20045;" kvg:position="top"><g id="kvg:0600e-g2" kvg:element="&#20031;"><path id="kvg:0600e-s1" kvg:type="&#12754;" d="M40.21,11c0.06,0.77,0.14,2-0.13,3.11c-1.56,6.56-10.03,20.95-22.3,29.76"/></g><path id="kvg:0600e-s2" kvg:type="&#12752;" d="M38.35,23.91c0.93,0.28,2.64,0.32,3.58,0.28c12.31-0.58,31.01-4.09,40.18-4.74c1.72-0.12,2.47-0.18,3.63-0.06"/><path id="kvg:0600e-s3" kvg:type="&#12753;" d="M51.47,25.38c0.78,0.87,1.51,2.64,1.69,3.37c0.19,0.73-0.19,30.49-0.19,37.24"/><path id="kvg:0600e-s4" kvg:type="&#12752;b" d="M53.39,36.55c6.3-0.33,16.23-1.82,27.94-3.26c1-0.12,1.61,0.13,2.12,0.28"/><path id="kvg:0600e-s5" kvg:type="&#12752;b" d="M53.64,49.99C62.25,49,72.25,48,79.86,47.31c1.65-0.15,2.65,0.07,3.48,0.14"/></g><g id="kvg:0600e-g3" kvg:element="&#24515;" kvg:position="bottom" kvg:radical="general"><path id="kvg:0600e-s6" kvg:type="&#12756;" d="M25.64,76.32c0.45,2.67-4.48,14.47-8.06,18.92"/><path id="kvg:0600e-s7" kvg:type="&#12767;b" d="M37.08,69.75c6.39,15.92,16.49,29.73,41.12,29.93c11.88,0.1,12.66-4.25,2.75-11.49"/><path id="kvg:0600e-s8" kvg:type="&#12756;a" d="M58.41,72.75c2.17,5.25,5.32,10.5,7.63,2.46"/><path id="kvg:0600e-s9" kvg:type="&#12756;" d="M80.63,66.73c5.31,2.27,9.29,4.34,13.6,11.36"/></g></g></g></svg>