<svg xmlns="http://www.w3.org/2000/svg" width="109" height="109" viewBox="0 0 109 109"><g xmlns:kvg="http://kanjivg.tagaini.net" id="kvg:StrokePaths_0602a" style="fill:none;stroke:#000000;stroke-width:3;stroke-linecap:round;stroke-linejoin:round;"><g id="kvg:0602a" kvg:element="&#24618;"><g id="kvg:0602a-g1" kvg:element="&#24516;" kvg:variant="true" kvg:original="&#24515;" kvg:position="left" kvg:radical="general"><path id="kvg:0602a-s1" kvg:type="&#12756;" d="M15,40.25c0,6.61-2.97,16.36-3.75,18.25"/><path id="kvg:0602a-s2" kvg:type="&#12756;" d="M29.62,33.75c3.24,1.94,8.37,7.96,9.18,10.97"/><path id="kvg:0602a-s3" kvg:type="&#12753;" d="M24.62,13.75c1,1,1.21,2.38,1.21,4c0,0.7,0.02,51.68,0.03,71.25c0,3.91,0,6.54,0,7.25"/></g><g id="kvg:0602a-g2" kvg:element="&#22307;" kvg:position="right" kvg:phon="&#22307;"><g id="kvg:0602a-g3" kvg:element="&#21448;" kvg:position="top"><path id="kvg:0602a-s4" kvg:type="&#12743;" d="M46.22,18.57c1.29,0.32,2.44,0.2,5.04-0.18c3.61-0.52,18.44-3.72,20.22-4.18c2.76-0.71,3.89,0.29,2.68,3.56C66.4,38.75,51.38,52.32,36.82,60.25"/><path id="kvg:0602a-s5" kvg:type="&#12751;" d="M46.72,26.73c5.44,0.69,22.34,14.79,36.44,23.16c3.34,1.98,7.09,3.86,9.77,4.72"/></g><g id="kvg:0602a-g4" kvg:element="&#22303;" kvg:position="bottom"><path id="kvg:0602a-s6" kvg:type="&#12752;" d="M45.13,72.17c2.12,0.33,4.75,0.32,6.76,0.09c7.49-0.88,18.99-2,27.87-2.27c1.96-0.06,3.96-0.15,5.88,0.3"/><path id="kvg:0602a-s7" kvg:type="&#12753;a" d="M63.92,56.37c0.86,0.86,1.26,2.27,1.27,4.14c0.06,11.5-0.07,25.33-0.07,28.37"/><path id="kvg:0602a-s8" kvg:type="&#12752;" d="M36.88,91.23c2.35,0.84,5.07,0.65,7.5,0.43c14.68-1.33,26.97-2.55,42.75-2.83c2.7-0.05,5.35-0.08,8,0.49"/></g></g></g></g></svg>