<svg xmlns="http://www.w3.org/2000/svg" width="109" height="109" viewBox="0 0 109 109"><g xmlns:kvg="http://kanjivg.tagaini.net" id="kvg:StrokePaths_06020" style="fill:none;stroke:#000000;stroke-width:3;stroke-linecap:round;stroke-linejoin:round;"><g id="kvg:06020" kvg:element="&#24608;"><g id="kvg:06020-g1" kvg:element="&#21488;" kvg:position="top" kvg:phon="&#21488;"><g id="kvg:06020-g2" kvg:element="&#21430;" kvg:position="top" kvg:radical="nelson"><path id="kvg:06020-s1" kvg:type="&#12764;" d="M51.24,9.25c0.01,1.62-0.47,2.77-1.62,4C44.5,18.75,38,24.5,29.47,31.33c-2.97,2.38-2.58,3.89,1.24,3.09c8.24-1.72,29.07-5.74,42.67-7.92"/><path id="kvg:06020-s2" kvg:type="&#12756;" d="M66.7,18.19c4.65,2.84,12.01,11.7,13.17,16.12"/></g><g id="kvg:06020-g3" kvg:element="&#21475;" kvg:position="bottom"><path id="kvg:06020-s3" kvg:type="&#12753;" d="M31.11,42.67c0.88,0.54,1.39,1.56,1.63,2.54C34,50.5,35.2,55.92,36.25,61.7c0.23,1.26,0.44,2.46,0.62,3.55"/><path id="kvg:06020-s4" kvg:type="&#12757;b" d="M33.37,44.23c13.56-1.4,28.03-2.7,36.37-3.46c3.24-0.3,5.13,0.61,4.51,4.01c-0.85,4.59-1.37,6.85-2.9,13.76"/><path id="kvg:06020-s5" kvg:type="&#12752;b" d="M37.67,62.61C49.5,61.5,56.38,60.75,69,59.8c1.45-0.11,2.93-0.09,4.44-0.09"/></g></g><g id="kvg:06020-g4" kvg:element="&#24515;" kvg:position="bottom" kvg:radical="tradit"><path id="kvg:06020-s6" kvg:type="&#12756;" d="M25.89,78.57C25,84.5,21.55,90.49,18.08,94.24"/><path id="kvg:06020-s7" kvg:type="&#12767;b" d="M38.58,75.75C46,88.5,53.5,97.79,77.28,97.93c11.47,0.07,12.22-3.15,2.65-8.52"/><path id="kvg:06020-s8" kvg:type="&#12756;a" d="M55.91,74.25c3.84,5.5,7.34,6.88,7.63,2.46"/><path id="kvg:06020-s9" kvg:type="&#12756;" d="M84.88,71.23c4.04,2.82,8.49,8.14,11.1,14.61"/></g></g></g></svg>