<svg xmlns="http://www.w3.org/2000/svg" width="109" height="109" viewBox="0 0 109 109"><g xmlns:kvg="http://kanjivg.tagaini.net" id="kvg:StrokePaths_06026" style="fill:none;stroke:#000000;stroke-width:3;stroke-linecap:round;stroke-linejoin:round;"><g id="kvg:06026" kvg:element="&#24614;"><g id="kvg:06026-g1" kvg:element="&#24516;" kvg:variant="true" kvg:original="&#24515;" kvg:position="left" kvg:radical="general"><path id="kvg:06026-s1" kvg:type="&#12756;" d="M16.22,34.5c0.02,4.31-1.94,14.14-3.69,17.5"/><path id="kvg:06026-s2" kvg:type="&#12756;" d="M30.77,29.33c2.22,2.23,5.74,9.17,6.29,12.63"/><path id="kvg:06026-s3" kvg:type="&#12753;" d="M22.37,15.25c1.09,0.5,1.74,2.25,1.96,3.25c0.22,1,0,71.75-0.22,78"/></g><g id="kvg:06026-g2" kvg:element="&#24179;" kvg:variant="true" kvg:position="right"><g id="kvg:06026-g3" kvg:element="&#24178;" kvg:part="1"><path id="kvg:06026-s4" kvg:type="&#12752;" d="M42.26,20.92c0.86,0.23,3.84,0.25,4.71,0.21c5.98-0.27,27.44-2.95,37.64-3.41c1.44-0.06,4.46,0.2,5.18,0.32"/></g><path id="kvg:06026-s5" kvg:type="&#12754;" d="M51.33,30.73c0.03,0.46,0.07,1.19-0.07,1.85c-0.82,3.9-5.53,12.47-11.97,17.71"/><path id="kvg:06026-s6" kvg:type="&#12756;" d="M78.23,30.42c5.67,3.6,11.94,11.15,13.36,16.75"/><g id="kvg:06026-g4" kvg:element="&#24178;" kvg:part="2"><g id="kvg:06026-g5" kvg:element="&#21313;"><path id="kvg:06026-s7" kvg:type="&#12752;" d="M37,60.65c1.5,0.52,4.24,0.61,5.73,0.52C54.25,60.5,77.75,58,91.76,57.34c2.49-0.12,3.99,0.25,5.24,0.51"/><path id="kvg:06026-s8" kvg:type="&#12753;" d="M64.35,20.82c0.41,0.47,1.26,3.49,1.34,4.42c0.08,0.93-0.05,68.07-0.13,73.89"/></g></g></g></g></g></svg>