<svg xmlns="http://www.w3.org/2000/svg" width="109" height="109" viewBox="0 0 109 109"><g xmlns:kvg="http://kanjivg.tagaini.net" id="kvg:StrokePaths_0602f" style="fill:none;stroke:#000000;stroke-width:3;stroke-linecap:round;stroke-linejoin:round;"><g id="kvg:0602f" kvg:element="&#24623;"><g id="kvg:0602f-g1" kvg:element="&#24516;" kvg:variant="true" kvg:original="&#24515;" kvg:position="left" kvg:radical="general"><path id="kvg:0602f-s1" kvg:type="&#12756;" d="M15.72,40.75c0,6.61-2.97,13.86-3.94,15.75"/><path id="kvg:0602f-s2" kvg:type="&#12756;" d="M31.02,38.08c2.49,1.74,6.17,7.67,6.79,10.38"/><path id="kvg:0602f-s3" kvg:type="&#12753;" d="M23.75,16.12c1.06,1.06,1.46,2.75,1.46,4.25c0,0.82-0.05,44.54-0.07,65.62c0,5.21-0.01,9.04-0.01,10.5"/></g><g id="kvg:0602f-g2" kvg:element="&#21435;" kvg:position="right"><g id="kvg:0602f-g3" kvg:element="&#22303;" kvg:position="top"><path id="kvg:0602f-s4" kvg:type="&#12752;" d="M46.88,36.23c2.45,0.46,4.92,0.5,7.38,0.12c8.3-1.13,18.07-2.57,28.36-3.17c2.01-0.24,4.01-0.16,6.01,0.24"/><path id="kvg:0602f-s5" kvg:type="&#12753;a" d="M64.42,15c0.85,0.85,1.27,2.12,1.27,3.6c0,11.15-0.07,32.38-0.07,35.4"/><path id="kvg:0602f-s6" kvg:type="&#12752;" d="M37.88,56.67c3.79,0.7,7.54,0.41,11.37,0.05c11.83-1.11,26.5-2.42,36.13-2.94c3.6-0.15,7.19,0.04,10.75,0.56"/></g><g id="kvg:0602f-g4" kvg:element="&#21430;" kvg:position="bottom"><path id="kvg:0602f-s7" kvg:type="&#12764;" d="M62.97,59.57c0,1.68-0.39,2.9-0.88,3.61c-6.72,9.7-9.54,13.93-17.71,24.35c-2.36,3-2.51,5.31,2.29,4.03C60,88,60.88,87.77,81.5,82.75"/><path id="kvg:0602f-s8" kvg:type="&#12756;" d="M74.27,70.82c6.86,5.56,13.98,15.06,17.29,24.65"/></g></g></g></g></svg>