<svg xmlns="http://www.w3.org/2000/svg" width="109" height="109" viewBox="0 0 109 109"><g xmlns:kvg="http://kanjivg.tagaini.net" id="kvg:StrokePaths_06046" style="fill:none;stroke:#000000;stroke-width:3;stroke-linecap:round;stroke-linejoin:round;"><g id="kvg:06046" kvg:element="&#24646;"><g id="kvg:06046-g1" kvg:element="&#24516;" kvg:variant="true" kvg:original="&#24515;" kvg:position="left" kvg:radical="tradit"><path id="kvg:06046-s1" kvg:type="&#12756;" d="M17.47,34.75c0.02,4.01-1.81,13.13-3.44,16.25"/><path id="kvg:06046-s2" kvg:type="&#12756;" d="M28.77,30.33c2.93,2.23,7.56,9.17,8.29,12.63"/><path id="kvg:06046-s3" kvg:type="&#12753;" d="M23.37,14.25c1.09,0.5,1.74,2.25,1.96,3.25c0.22,1,0,71.75-0.22,78"/></g><g id="kvg:06046-g2" kvg:element="&#20121;" kvg:position="right"><g id="kvg:06046-g3" kvg:element="&#20114;" kvg:part="1" kvg:variant="true"><g id="kvg:06046-g4" kvg:element="&#20108;" kvg:part="1" kvg:position="top"><path id="kvg:06046-s4" kvg:type="&#12752;" d="M40.41,22.22c0.98,0.28,2.78,0.33,3.77,0.28c9.49-0.5,34.66-4.16,44-4.16c1.64,0,2.62,0.13,3.44,0.27"/></g></g><g id="kvg:06046-g5" kvg:element="&#24401;" kvg:part="1" kvg:variant="true"><path id="kvg:06046-s5" kvg:type="&#12753;" d="M55.22,24.65c0.73,1.41,0.75,4.12,0.37,6.33c-1.83,10.56-9.82,35.07-12.1,43.14"/><path id="kvg:06046-s6" kvg:type="&#12757;" d="M53.45,39.94c6.16-1.18,22.39-3.13,24.52-3.38c2.57-0.3,2.99,1.81,2.4,3.91c-2.17,7.79-4.65,22.52-8.99,49.67"/></g><g id="kvg:06046-g6" kvg:element="&#20022;"><path id="kvg:06046-s7" kvg:type="&#12756;" d="M57.92,48.66c3.27,1.48,8.45,6.08,9.27,8.39"/></g><g id="kvg:06046-g7" kvg:element="&#20022;"><path id="kvg:06046-s8" kvg:type="&#12756;" d="M54.76,67.06c3.22,1.66,8.33,6.81,9.14,9.38"/></g><g id="kvg:06046-g8" kvg:element="&#20114;" kvg:part="2" kvg:variant="true"><g id="kvg:06046-g9" kvg:element="&#24401;" kvg:part="2" kvg:variant="true"><g id="kvg:06046-g10" kvg:element="&#20108;" kvg:part="2" kvg:position="bottom"><path id="kvg:06046-s9" kvg:type="&#12752;" d="M33.75,92.1c1.2,0.69,3.41,0.75,4.61,0.69C51.1,92.15,79.67,89.03,92.29,90c2,0.15,3.21,0.33,4.21,0.67"/></g></g></g></g></g></g></svg>