<svg xmlns="http://www.w3.org/2000/svg" width="109" height="109" viewBox="0 0 109 109"><g xmlns:kvg="http://kanjivg.tagaini.net" id="kvg:StrokePaths_0604d" style="fill:none;stroke:#000000;stroke-width:3;stroke-linecap:round;stroke-linejoin:round;"><g id="kvg:0604d" kvg:element="&#24653;"><g id="kvg:0604d-g1" kvg:element="&#24516;" kvg:variant="true" kvg:original="&#24515;" kvg:position="left" kvg:radical="general"><path id="kvg:0604d-s1" kvg:type="&#12756;" d="M15.72,36c0.03,4.31-2.47,14.14-4.69,17.5"/><path id="kvg:0604d-s2" kvg:type="&#12756;" d="M29.27,30.33c2.22,1.96,5.74,8.08,6.29,11.13"/><path id="kvg:0604d-s3" kvg:type="&#12753;" d="M21.37,13.75c1.09,0.5,1.74,2.25,1.96,3.25c0.22,1,0,72.25-0.22,78.5"/></g><g id="kvg:0604d-g2" kvg:element="&#20809;" kvg:position="right"><g id="kvg:0604d-g3" kvg:element="&#11916;" kvg:variant="true" kvg:original="&#23567;" kvg:position="top"><path id="kvg:0604d-s4" kvg:type="&#12753;" d="M62.25,14.37c1.25,0.63,1.91,2.85,1.97,4.49c0.31,7.9-0.2,25.57-0.2,28.26"/><path id="kvg:0604d-s5" kvg:type="&#12756;" d="M42.94,26.83c3.27,2.32,8.44,9.53,9.26,13.13"/><path id="kvg:0604d-s6" kvg:type="&#12754;" d="M84.17,23.25c0.03,0.38,0.06,0.97-0.06,1.51c-0.73,3.19-4.9,10.18-10.62,14.46"/></g><g id="kvg:0604d-g4" kvg:element="&#20800;" kvg:position="bottom"><g id="kvg:0604d-g5" kvg:element="&#19968;"><path id="kvg:0604d-s7" kvg:type="&#12752;" d="M37.38,48.98c1.09,0.54,3.09,0.59,4.18,0.54C53.25,49,76,45.25,91.43,45.29c1.82,0,2.91,0.26,3.82,0.53"/></g><g id="kvg:0604d-g6" kvg:element="&#20799;" kvg:original="&#20843;"><g id="kvg:0604d-g7" kvg:element="&#20031;"><path id="kvg:0604d-s8" kvg:type="&#12754;" d="M55.84,52.5c0.06,0.98,0.17,2.55-0.12,3.95c-2.43,11.88-7.22,29.8-21.21,37.8"/></g><path id="kvg:0604d-s9" kvg:type="&#12767;" d="M69.82,49.87c0.52,1.19,0.94,2.59,0.97,4.43c0.09,5.5-0.33,19.39-0.33,27.19c0,12.01,2.54,12.54,12.75,12.54c10.04,0,11.68-0.78,11.68-12.62"/></g></g></g></g></g></svg>