<svg xmlns="http://www.w3.org/2000/svg" width="109" height="109" viewBox="0 0 109 109"><g xmlns:kvg="http://kanjivg.tagaini.net" id="kvg:StrokePaths_0606a" style="fill:none;stroke:#000000;stroke-width:3;stroke-linecap:round;stroke-linejoin:round;"><g id="kvg:0606a" kvg:element="&#24682;"><g id="kvg:0606a-g1" kvg:element="&#24516;" kvg:variant="true" kvg:original="&#24515;" kvg:position="left" kvg:radical="general"><path id="kvg:0606a-s1" kvg:type="&#12756;" d="M16.22,37c0.03,4.31-2.47,14.14-4.69,17.5"/><path id="kvg:0606a-s2" kvg:type="&#12756;" d="M28.27,30.83c2.75,1.7,7.1,6.99,7.79,9.63"/><path id="kvg:0606a-s3" kvg:type="&#12753;" d="M23.87,15.25c1.09,0.5,1.74,2.25,1.96,3.25c0.22,1,0,73.75-0.22,80"/></g><g id="kvg:0606a-g2" kvg:element="&#21508;" kvg:position="right"><g id="kvg:0606a-g3" kvg:element="&#22786;" kvg:position="top"><path id="kvg:0606a-s4" kvg:type="&#12754;" d="M58.77,14.25c0.06,0.75,0.3,1.98-0.12,3c-3.16,7.84-10.66,23-20.08,29.32"/><path id="kvg:0606a-s5" kvg:type="&#12743;" d="M58.76,23.41c0.33,0.04,1.76,0,2.71-0.11c3.14-0.35,11.96-2.59,16.44-3.68c3.08-0.75,4.06,0.9,3.16,2.89C74.75,36.5,61,56,37.44,67.53"/><path id="kvg:0606a-s6" kvg:type="&#12751;" d="M54.15,32.58c5.21,5.34,28.82,25.64,35.84,30.52c2.09,1.45,3.79,2.16,5.83,2.6"/></g><g id="kvg:0606a-g4" kvg:element="&#21475;" kvg:position="bottom"><path id="kvg:0606a-s7" kvg:type="&#12753;" d="M49.33,69.32c0.39,0.46,0.79,0.84,0.96,1.41c1.35,4.54,2.43,17.57,3.36,25.72"/><path id="kvg:0606a-s8" kvg:type="&#12757;b" d="M51.76,71.37c10.96-1.53,25.41-2.91,29.97-3.51c1.67-0.22,2.67,1.29,2.43,2.57c-0.99,5.3-3.22,13.23-4.69,20.55"/><path id="kvg:0606a-s9" kvg:type="&#12752;b" d="M53.83,94c5.36-0.68,20.48-0.79,27.85-1.83"/></g></g></g></g></svg>