<svg xmlns="http://www.w3.org/2000/svg" width="109" height="109" viewBox="0 0 109 109"><g xmlns:kvg="http://kanjivg.tagaini.net" id="kvg:StrokePaths_0606c" style="fill:none;stroke:#000000;stroke-width:3;stroke-linecap:round;stroke-linejoin:round;"><g id="kvg:0606c" kvg:element="&#24684;"><g id="kvg:0606c-g1" kvg:element="&#24516;" kvg:variant="true" kvg:original="&#24515;" kvg:position="left" kvg:radical="general"><path id="kvg:0606c-s1" kvg:type="&#12756;" d="M16.22,35.5c0.03,4.31-2.47,14.14-4.69,17.5"/><path id="kvg:0606c-s2" kvg:type="&#12756;" d="M33.02,29.33c2.49,2.05,6.42,8.44,7.04,11.63"/><path id="kvg:0606c-s3" kvg:type="&#12753;" d="M23.87,13.75c1.09,0.5,1.74,2.25,1.96,3.25c0.22,1,0,73.75-0.22,80"/></g><g id="kvg:0606c-g2" kvg:element="&#33292;" kvg:position="right"><g id="kvg:0606c-g3" kvg:position="top"><path id="kvg:0606c-s4" kvg:type="&#12754;" d="M82.25,14.75c0.1,0.45-0.76,2.87-1.32,3.36C76.67,21.85,65.87,28.04,47,33.25"/><path id="kvg:0606c-s5" kvg:type="&#12752;" d="M40.83,50.21c1.08,0.3,3.79,0.37,4.88,0.3c9.35-0.65,35.73-4.55,48.67-4.73c1.81-0.02,2.89,0.14,3.8,0.29"/><path id="kvg:0606c-s6" kvg:type="&#12753;a" d="M66.92,30.5c0.55,0.38,1.72,2.87,1.83,3.64c0.21,1.43-0.07,30.06-0.18,35"/></g><g id="kvg:0606c-g4" kvg:element="&#21475;" kvg:position="bottom"><path id="kvg:0606c-s7" kvg:type="&#12753;" d="M48.5,69.58c0.51,0.41,1.63,1.73,1.76,2.27c1.39,5.9,3.45,15.4,3.98,24.15"/><path id="kvg:0606c-s8" kvg:type="&#12757;b" d="M51.25,72.06c12.01-1.33,28.96-3.38,35.72-3.93c2.47-0.2,3.18,2.02,2.83,3.2c-1.46,4.85-3.29,12.42-5.5,19.92"/><path id="kvg:0606c-s9" kvg:type="&#12752;b" d="M54.49,93.82c7.94-0.62,21.64-1.18,32.54-2.13"/></g></g></g></g></svg>