<svg xmlns="http://www.w3.org/2000/svg" width="109" height="109" viewBox="0 0 109 109"><g xmlns:kvg="http://kanjivg.tagaini.net" id="kvg:StrokePaths_0606f" style="fill:none;stroke:#000000;stroke-width:3;stroke-linecap:round;stroke-linejoin:round;"><g id="kvg:0606f" kvg:element="&#24687;"><g id="kvg:0606f-g1" kvg:element="&#33258;" kvg:position="top" kvg:radical="nelson"><path id="kvg:0606f-s1" kvg:type="&#12754;" d="M54.25,10c0.13,0.85-0.12,1.71-0.56,2.63c-2,4.16-4.68,7.36-9.66,12.04"/><g id="kvg:0606f-g2" kvg:element="&#30446;"><path id="kvg:0606f-s2" kvg:type="&#12753;" d="M36.65,25.89c0.98,0.98,1.15,2.28,1.15,3.5c0,2.28,0,25.17,0,34.74c0,1.9,0,3.28,0,3.86"/><path id="kvg:0606f-s3" kvg:type="&#12757;a" d="M38.99,27.9c9.13-1.77,22.51-3.6,28.25-4.47c3.26-0.49,5.43,0.68,5.35,4.19c-0.1,4.7-0.12,23.31-0.12,32.75c0,1.93,0,3.47,0,4.42"/><path id="kvg:0606f-s4" kvg:type="&#12752;a" d="M38.69,40.23c10.56-1.73,22.56-3.6,32.67-4.66"/><path id="kvg:0606f-s5" kvg:type="&#12752;a" d="M38.95,52.79c9.8-1.67,21.05-3.29,32.27-4.52"/><path id="kvg:0606f-s6" kvg:type="&#12752;a" d="M39.01,65.04c8.49-1.17,22.87-3.17,32.02-4"/></g></g><g id="kvg:0606f-g3" kvg:element="&#24515;" kvg:position="bottom" kvg:radical="tradit"><path id="kvg:0606f-s7" kvg:type="&#12756;" d="M23.99,80.4c-0.24,4.1-4.69,11.45-8.24,14.89"/><path id="kvg:0606f-s8" kvg:type="&#12767;b" d="M32.25,78.2C43.5,93.25,54.75,99.75,84,98.63c7.77-0.3,8.75-2.76-0.25-8.63"/><path id="kvg:0606f-s9" kvg:type="&#12756;a" d="M53.5,73.5c3.38,5.88,6.25,8.99,7.5,5.07"/><path id="kvg:0606f-s10" kvg:type="&#12756;" d="M83.75,71.12c5.62,3.63,8.62,7.63,9.75,10.74"/></g></g></g></svg>