<svg xmlns="http://www.w3.org/2000/svg" width="109" height="109" viewBox="0 0 109 109"><g xmlns:kvg="http://kanjivg.tagaini.net" id="kvg:StrokePaths_06089" style="fill:none;stroke:#000000;stroke-width:3;stroke-linecap:round;stroke-linejoin:round;"><g id="kvg:06089" kvg:element="&#24713;"><g id="kvg:06089-g1" kvg:element="&#37318;" kvg:position="top" kvg:radical="nelson"><g id="kvg:06089-g2" kvg:element="&#20031;" kvg:position="top"><path id="kvg:06089-s1" kvg:type="&#12754;" d="M73.43,10.89c-0.43,0.98-1.34,1.86-2.68,2.47c-7.12,3.26-24.97,7.53-44.25,8.89"/></g><g id="kvg:06089-g3" kvg:element="&#31859;" kvg:position="bottom"><path id="kvg:06089-s2" kvg:type="&#12756;" d="M31.5,26.25c2.45,1.82,6.14,6.95,6.75,9.77"/><path id="kvg:06089-s3" kvg:type="&#12754;" d="M77.26,20.5c0,1-0.23,1.69-0.67,2.3c-1.81,3.42-4.1,6.33-9.47,10.95"/><path id="kvg:06089-s4" kvg:type="&#12752;" d="M16.75,40.42c4.84,0.42,9.68,0.27,14.52-0.3c13.44-1.59,34.23-3,47.35-3.96c4.41-0.32,8.76-0.63,13.13-0.19"/><path id="kvg:06089-s5" kvg:type="&#12753;" d="M53.25,21c0.94,0.94,1.25,2.12,1.25,3.22c0,0.78,0,21.36,0,34.28c0,4.08,0,7.38,0,9"/><path id="kvg:06089-s6" kvg:type="&#12754;" d="M52.25,38.69C52,40,51,41.25,49.98,42.54c-7.09,8.9-19.44,17.82-34.73,22.05"/><path id="kvg:06089-s7" kvg:type="&#12751;" d="M56,38.68c3.62,2.45,13.75,9.82,22.13,15.51c4.29,2.91,8.91,5.07,13.87,6.43"/></g></g><g id="kvg:06089-g4" kvg:element="&#24515;" kvg:position="bottom" kvg:radical="tradit"><path id="kvg:06089-s8" kvg:type="&#12756;" d="M24.4,79.45c0.32,2.39-3.73,12.68-6.32,16.67"/><path id="kvg:06089-s9" kvg:type="&#12767;b" d="M36.58,74.8c6.61,12.44,17.06,23.23,42.53,23.39c12.29,0.08,13.6-3.57,3.34-9.23"/><path id="kvg:06089-s10" kvg:type="&#12756;a" d="M55.41,75.25c1.88,4.3,4.12,8.1,6.13,1.52"/><path id="kvg:06089-s11" kvg:type="&#12756;" d="M78.38,68.98c5.62,2.64,9.74,5.39,13.6,10.34"/></g></g></g></svg>