<svg xmlns="http://www.w3.org/2000/svg" width="109" height="109" viewBox="0 0 109 109"><g xmlns:kvg="http://kanjivg.tagaini.net" id="kvg:StrokePaths_0608d" style="fill:none;stroke:#000000;stroke-width:3;stroke-linecap:round;stroke-linejoin:round;"><g id="kvg:0608d" kvg:element="&#24717;"><g id="kvg:0608d-g1" kvg:element="&#24516;" kvg:variant="true" kvg:original="&#24515;" kvg:position="left" kvg:radical="general"><path id="kvg:0608d-s1" kvg:type="&#12756;" d="M18.72,33.5c0.03,4.31-2.47,14.14-4.69,17.5"/><path id="kvg:0608d-s2" kvg:type="&#12756;" d="M33.77,31.83c2.22,2.23,5.74,9.17,6.29,12.63"/><path id="kvg:0608d-s3" kvg:type="&#12753;" d="M24.87,12.25c1.09,0.5,1.74,2.25,1.96,3.25c0.22,1,0,73.75-0.22,80"/></g><g id="kvg:0608d-g2" kvg:element="&#26097;" kvg:position="right"><g id="kvg:0608d-g3" kvg:element="&#26085;" kvg:position="top"><path id="kvg:0608d-s4" kvg:type="&#12753;" d="M49.5,15.02c0.39,0.47,0.4,0.8,0.62,1.4c1.78,4.91,2.67,17.33,3.78,26.49"/><path id="kvg:0608d-s5" kvg:type="&#12757;a" d="M50.72,16.75c9.15-0.98,27.15-2.65,33.98-3.47c2.51-0.3,3.02,1.73,2.89,2.8c-0.47,3.92-2.41,18.48-3.56,25.04"/><path id="kvg:0608d-s6" kvg:type="&#12752;a" d="M52.81,28.75c2.98-0.38,29.17-3.18,33.17-2.87"/><path id="kvg:0608d-s7" kvg:type="&#12752;a" d="M54.18,41.12c8.47-1.07,20.76-1.68,29.86-2.36"/></g><g id="kvg:0608d-g4" kvg:element="&#24178;" kvg:position="bottom"><path id="kvg:0608d-s8" kvg:type="&#12752;" d="M47.22,52.87c0.82,0.46,3.64,0.5,4.46,0.42c5.66-0.54,24.91-1.86,34.57-2.77c1.36-0.13,4.22,0.4,4.9,0.63"/><g id="kvg:0608d-g5" kvg:element="&#21313;"><path id="kvg:0608d-s9" kvg:type="&#12752;" d="M39,69.98c1.27,0.27,3.62,0.38,4.88,0.27c13.04-1.18,35.53-2.55,49.41-2.81c2.12-0.04,3.39,0.13,4.46,0.26"/><path id="kvg:0608d-s10" kvg:type="&#12753;" d="M66.33,54.22c0.42,0.49,1.38,2.03,1.38,4.67c0,0.99-0.05,33.97-0.14,40.12"/></g></g></g></g></g></svg>