<svg xmlns="http://www.w3.org/2000/svg" width="109" height="109" viewBox="0 0 109 109"><g xmlns:kvg="http://kanjivg.tagaini.net" id="kvg:StrokePaths_06096" style="fill:none;stroke:#000000;stroke-width:3;stroke-linecap:round;stroke-linejoin:round;"><g id="kvg:06096" kvg:element="&#24726;"><g id="kvg:06096-g1" kvg:element="&#24516;" kvg:variant="true" kvg:original="&#24515;" kvg:position="left" kvg:radical="general"><path id="kvg:06096-s1" kvg:type="&#12756;" d="M16.22,33.5c0.03,4.31-2.47,14.14-4.69,17.5"/><path id="kvg:06096-s2" kvg:type="&#12756;" d="M31.27,31.83C33.49,34.06,37,41,37.56,44.47"/><path id="kvg:06096-s3" kvg:type="&#12753;" d="M22.37,13.25c1.09,0.5,1.74,2.25,1.96,3.25c0.22,1,0,73.75-0.22,80"/></g><g id="kvg:06096-g2" kvg:element="&#23387;" kvg:position="right"><g id="kvg:06096-g3" kvg:position="top"><g id="kvg:06096-g4" kvg:element="&#21313;"><path id="kvg:06096-s4" kvg:type="&#12752;" d="M47.23,22.78c1.04,0.47,3.08,0.58,4.11,0.45c6.6-0.82,24.87-2.64,32.21-3.4c1.72-0.18,3.59,0.25,4.45,0.49"/><path id="kvg:06096-s5" kvg:type="&#12753;" d="M64.58,11.5c0.82,0.47,1.47,2.11,1.47,3.08c0,6.87,0.02,13.15,0.02,18.36"/></g><g id="kvg:06096-g5" kvg:element="&#20886;"><path id="kvg:06096-s6" kvg:type="&#12756;" d="M44.78,33.75c0,3.51-2.41,13.16-3.51,15.5"/><path id="kvg:06096-s7" kvg:type="&#12758;b" d="M45.8,35.25c11.23-0.94,37.56-4.08,43.34-4.14c9.86-0.1,1.91,6.79-0.34,8.79"/></g></g><g id="kvg:06096-g6" kvg:element="&#23376;" kvg:position="bottom"><path id="kvg:06096-s8" kvg:type="&#12758;" d="M52.07,45.46c0.79,0.26,2.28,0.67,3.46,0.44c1.45-0.28,19.41-3.46,20.79-3.46s2.87,0.78,1.5,2.34C76.44,46.34,67.6,53.98,64.1,56.8"/><path id="kvg:06096-s9" kvg:type="&#12757;v" d="M62.35,57.6c5.15,4.65,12.68,20.06,7.01,33.92c-3.1,7.59-6.36,5.69-9.21,0.56"/><path id="kvg:06096-s10" kvg:type="&#12752;" d="M39.58,68.11c0.97,0.61,3.49,0.83,5.24,0.67c6.11-0.53,39.03-4.96,46.42-4.42c1.75,0.13,3.3,0.21,4.46,0.82"/></g></g></g></g></svg>