<svg xmlns="http://www.w3.org/2000/svg" width="109" height="109" viewBox="0 0 109 109"><g xmlns:kvg="http://kanjivg.tagaini.net" id="kvg:StrokePaths_060a6" style="fill:none;stroke:#000000;stroke-width:3;stroke-linecap:round;stroke-linejoin:round;"><g id="kvg:060a6" kvg:element="&#24742;"><g id="kvg:060a6-g1" kvg:element="&#24516;" kvg:variant="true" kvg:original="&#24515;" kvg:position="left" kvg:radical="general"><path id="kvg:060a6-s1" kvg:type="&#12756;" d="M19.25,40.25c0,6.61-3.37,16.36-4.25,18.25"/><path id="kvg:060a6-s2" kvg:type="&#12756;" d="M35.02,33.33c2.4,1.61,6.19,6.63,6.79,9.13"/><path id="kvg:060a6-s3" kvg:type="&#12753;" d="M28.62,15c1,1,1.21,2.5,1.21,3.75c0,0.87-0.08,59.75-0.08,69.38c0,3.4,0.03,5.93,0,6.88"/></g><g id="kvg:060a6-g2" kvg:element="&#20812;" kvg:position="right" kvg:phon="&#20812;"><g id="kvg:060a6-g3" kvg:element="&#20843;" kvg:variant="true" kvg:position="top"><g id="kvg:060a6-g4" kvg:position="left"><path id="kvg:060a6-s4" kvg:type="&#12756;" d="M50.06,18.83c2.58,2.14,6.65,8.8,7.3,12.13"/></g><g id="kvg:060a6-g5" kvg:position="right"><path id="kvg:060a6-s5" kvg:type="&#12754;" d="M78.02,13.64c0.09,1.04-0.03,2.05-0.36,3.03c-1.78,3.95-4.66,9.27-8.91,15.05"/></g></g><g id="kvg:060a6-g6" kvg:element="&#20804;" kvg:position="bottom"><g id="kvg:060a6-g7" kvg:element="&#21475;" kvg:position="top"><path id="kvg:060a6-s6" kvg:type="&#12753;" d="M48.24,37.58c0.62,1,0.95,2.1,1.01,3.28c0.56,3.33,1.3,8.74,1.93,13.62c0.15,1.19,0.31,2.34,0.47,3.43"/><path id="kvg:060a6-s7" kvg:type="&#12757;b" d="M49.87,38.99c8.97-1.19,19.43-2.61,27.26-3.4c2.76-0.28,4.7,0.96,4.06,3.92c-0.88,4.09-2.03,8.29-3.17,13.57"/><path id="kvg:060a6-s8" kvg:type="&#12752;b" d="M52.56,56.36c4.79-0.31,15.14-1.4,22.96-2.23c1.33-0.14,3.59-0.26,4.72-0.35"/></g><g id="kvg:060a6-g8" kvg:element="&#20799;" kvg:original="&#20843;" kvg:position="bottom"><g id="kvg:060a6-g9" kvg:element="&#20031;"><path id="kvg:060a6-s9" kvg:type="&#12754;" d="M60.28,59c0.06,0.78,0.12,2.02-0.11,3.15c-1.36,6.63-8.64,22.15-19.86,30.11"/></g><path id="kvg:060a6-s10" kvg:type="&#12767;" d="M69.56,57.6c0.86,0.86,1.2,2.27,1.2,3.6c0,4.95,0,12.29,0,18.42c0,9.83,1.5,10.67,11.45,10.67c11.17,0,12.05-0.63,12.05-8.66"/></g></g></g></g></g></svg>