<svg xmlns="http://www.w3.org/2000/svg" width="109" height="109" viewBox="0 0 109 109"><g xmlns:kvg="http://kanjivg.tagaini.net" id="kvg:StrokePaths_060a7" style="fill:none;stroke:#000000;stroke-width:3;stroke-linecap:round;stroke-linejoin:round;"><g id="kvg:060a7" kvg:element="&#24743;"><g id="kvg:060a7-g1" kvg:element="&#24516;" kvg:variant="true" kvg:original="&#24515;" kvg:position="left" kvg:radical="general"><path id="kvg:060a7-s1" kvg:type="&#12756;" d="M14.97,35.75C15,40.13,12.9,50.1,11.03,53.5"/><path id="kvg:060a7-s2" kvg:type="&#12756;" d="M25.77,29.33c2.93,1.88,7.56,7.71,8.29,10.63"/><path id="kvg:060a7-s3" kvg:type="&#12753;" d="M20.87,14.25c1.09,0.5,1.74,2.25,1.96,3.25c0.22,1,0,71.75-0.22,78"/></g><g id="kvg:060a7-g2" kvg:element="&#21033;" kvg:position="right"><g id="kvg:060a7-g3" kvg:element="&#31166;" kvg:position="left"><g id="kvg:060a7-g4" kvg:element="&#20031;" kvg:position="top"><path id="kvg:060a7-s4" kvg:type="&#12754;" d="M62.72,12.96c0.07,0.38,0.15,0.98-0.14,1.52c-1.72,3.21-11.6,10.24-25.11,14.55"/></g><g id="kvg:060a7-g5" kvg:element="&#26408;" kvg:position="bottom"><path id="kvg:060a7-s5" kvg:type="&#12752;" d="M37.12,45.82c0.32,0.23,1.19,0.61,2.05,0.7c2.37,0.23,22.3-2.88,28.22-4.04c0.86-0.17,1.08-0.23,1.62,0"/><path id="kvg:060a7-s6" kvg:type="&#12753;" d="M52.92,25.44c0.66,0.46,1.18,3.51,1.18,4.44c0,5.44,0,59.34-0.13,65.15"/><path id="kvg:060a7-s7" kvg:type="&#12754;" d="M54.25,47.09c-4.31,10.07-11.52,22.5-21.29,30.73"/><path id="kvg:060a7-s8" kvg:type="&#12751;" d="M57.02,51.18c4.13,2.47,7.62,7.41,9.85,10.58"/></g></g><g id="kvg:060a7-g6" kvg:element="&#20994;" kvg:variant="true" kvg:original="&#20992;" kvg:position="right"><path id="kvg:060a7-s9" kvg:type="&#12753;" d="M77.14,25.32c0.83,1,1.49,2.16,1.49,5.46c0,15.47-0.02,32.35-0.02,37.74"/><path id="kvg:060a7-s10" kvg:type="&#12762;" d="M91.93,13.58c0.9,0.85,1.53,1.84,1.61,4.66c0.37,13.51-0.23,66.03-0.23,70.63c0,10.93-6.13,1.39-7.5,0.23"/></g></g></g></g></svg>