<svg xmlns="http://www.w3.org/2000/svg" width="109" height="109" viewBox="0 0 109 109"><g xmlns:kvg="http://kanjivg.tagaini.net" id="kvg:StrokePaths_060b4" style="fill:none;stroke:#000000;stroke-width:3;stroke-linecap:round;stroke-linejoin:round;"><g id="kvg:060b4" kvg:element="&#24756;"><g id="kvg:060b4-g1" kvg:element="&#24516;" kvg:variant="true" kvg:original="&#24515;" kvg:position="left" kvg:radical="general"><path id="kvg:060b4-s1" kvg:type="&#12756;" d="M16.22,37c0.03,4.31-2.47,14.14-4.69,17.5"/><path id="kvg:060b4-s2" kvg:type="&#12756;" d="M31.77,31.83c2.22,2.05,5.74,8.44,6.29,11.63"/><path id="kvg:060b4-s3" kvg:type="&#12753;" d="M23.37,14.25c1.09,0.5,1.74,2.25,1.96,3.25c0.22,1,0,73.75-0.22,80"/></g><g id="kvg:060b4-g2" kvg:element="&#21330;" kvg:position="right"><g id="kvg:060b4-g3" kvg:position="top"><g id="kvg:060b4-g4" kvg:element="&#20128;"><path id="kvg:060b4-s4" kvg:type="&#12753;a" d="M63.14,11c0.49,0.47,1.3,2.26,1.3,3.19c0,3.41-0.16,5.69-0.06,8.57"/><path id="kvg:060b4-s5" kvg:type="&#12752;" d="M40.96,23.91c1.79,0.34,3.85,0.92,4.99,0.83C56,24,73.25,22,85.14,21.08c1.93-0.15,2.92,0.03,4.36,0.43"/></g><g id="kvg:060b4-g5" kvg:element="&#20174;"><g id="kvg:060b4-g6" kvg:element="&#20154;" kvg:position="left"><path id="kvg:060b4-s6" kvg:type="&#12754;" d="M52.61,30.99c0,0.59,0.04,1.07-0.12,1.78c-0.83,3.71-8.72,16.11-15.48,21.6"/><path id="kvg:060b4-s7" kvg:type="&#12751;" d="M50.8,41.21c3.16,1.42,7.19,5.2,8.73,8.79"/></g><g id="kvg:060b4-g7" kvg:element="&#20154;" kvg:position="right"><path id="kvg:060b4-s8" kvg:type="&#12754;" d="M77.85,28.99c0,0.59,0.04,1.07-0.11,1.78c-0.74,3.71-7.77,16.11-13.78,21.6"/><path id="kvg:060b4-s9" kvg:type="&#12751;" d="M75.61,40.71c4.45,1.87,10.12,6.83,12.29,11.54"/></g></g></g><g id="kvg:060b4-g8" kvg:element="&#21313;" kvg:position="bottom"><path id="kvg:060b4-s10" kvg:type="&#12752;" d="M35.5,68.51c2,0.74,4.07,0.96,5.5,0.86c18.24-1.19,37.14-3.54,49.73-3.69c2.39-0.03,4.32,0.67,5.52,0.86"/><path id="kvg:060b4-s11" kvg:type="&#12753;" d="M62.14,58c0.67,0.56,2.08,4.19,2.21,5.3c0.13,1.12-0.09,28.21-0.22,35.2"/></g></g></g></g></svg>