<svg xmlns="http://www.w3.org/2000/svg" width="109" height="109" viewBox="0 0 109 109"><g xmlns:kvg="http://kanjivg.tagaini.net" id="kvg:StrokePaths_060c6" style="fill:none;stroke:#000000;stroke-width:3;stroke-linecap:round;stroke-linejoin:round;"><g id="kvg:060c6" kvg:element="&#24774;"><g id="kvg:060c6-g1" kvg:element="&#24516;" kvg:variant="true" kvg:original="&#24515;" kvg:position="left" kvg:radical="general"><path id="kvg:060c6-s1" kvg:type="&#12756;" d="M16.72,37.5c0.02,4.31-1.94,14.14-3.69,17.5"/><path id="kvg:060c6-s2" kvg:type="&#12756;" d="M31.27,33.83c2.04,1.88,5.28,7.71,5.79,10.63"/><path id="kvg:060c6-s3" kvg:type="&#12753;" d="M22.87,13.25c1.09,0.5,1.74,2.25,1.96,3.25c0.22,1,0,73.75-0.22,80"/></g><g id="kvg:060c6-g2" kvg:element="&#21608;" kvg:variant="true" kvg:position="right"><g id="kvg:060c6-g3" kvg:element="&#20866;" kvg:variant="true"><path id="kvg:060c6-s4" kvg:type="&#12754;/&#12753;" d="M43.69,18.82c0.51,1.18,1.17,3.02,1.17,5.16c0,3.3,0.01,6.36,0.01,21.92c0,17.4-0.37,39.85-9.62,47.6"/><path id="kvg:060c6-s5" kvg:type="&#12742;a" d="M44.7,21.21c6.41-0.94,41.63-5.71,42.92-5.71c2.38,0,3.71,2.25,3.71,4.48c0,2.36,0.17,64.27,0.17,69.69c0,8.48-1.75,8.58-7.13,2.84"/></g><g id="kvg:060c6-g4" kvg:element="&#21513;" kvg:variant="true"><g id="kvg:060c6-g5" kvg:element="&#22763;" kvg:variant="true"><path id="kvg:060c6-s6" kvg:type="&#12752;" d="M53.35,34.22c1.02,0.37,2.88,0.26,3.9,0.22c5.5-0.19,17.44-2.77,21.51-2.94c1.7-0.07,2.71,0.06,3.56,0.23"/><path id="kvg:060c6-s7" kvg:type="&#12752;" d="M49.64,46.9c1.06,0.19,3,0.19,4.06,0.1c5.79-0.5,20.29-2.75,27.21-2.9c1.77-0.04,2.83,0.02,3.71,0.1"/><path id="kvg:060c6-s8" kvg:type="&#12753;" d="M65.55,23.14c0.66,0.33,1.05,1.61,1.18,2.34c0.13,0.74,0.01,25.14-0.12,29.8"/></g><g id="kvg:060c6-g6" kvg:element="&#21475;"><path id="kvg:060c6-s9" kvg:type="&#12753;" d="M54.36,61.68c0.22,0.36,0.44,0.66,0.53,1.11c0.75,3.55,1.64,15.34,2.15,21.72"/><path id="kvg:060c6-s10" kvg:type="&#12757;b" d="M55.2,63.44c5.55-1.19,18.59-2.84,21.45-3.02c1.05-0.06,1.59,1.88,1.41,2.86c-0.78,4.07-2.36,10.54-3.91,16.36"/><path id="kvg:060c6-s11" kvg:type="&#12752;b" d="M57.25,81.66C63,81,73.91,79.86,78.16,79.75"/></g></g></g></g></g></svg>