<svg xmlns="http://www.w3.org/2000/svg" width="109" height="109" viewBox="0 0 109 109"><g xmlns:kvg="http://kanjivg.tagaini.net" id="kvg:StrokePaths_060df" style="fill:none;stroke:#000000;stroke-width:3;stroke-linecap:round;stroke-linejoin:round;"><g id="kvg:060df" kvg:element="&#24799;"><g id="kvg:060df-g1" kvg:element="&#24516;" kvg:variant="true" kvg:original="&#24515;" kvg:position="left" kvg:radical="general"><path id="kvg:060df-s1" kvg:type="&#12756;" d="M18,37.25c0,6.16-4.15,15.24-5.23,17"/><path id="kvg:060df-s2" kvg:type="&#12756;" d="M32.52,33.83c2.13,1.74,5.51,7.17,6.04,9.88"/><path id="kvg:060df-s3" kvg:type="&#12753;" d="M24.87,15c1.19,1.19,1.21,2.38,1.21,4.25c0,7.22,0.02,50.39,0.03,69.5c0,3.38,0,6,0,7.5"/></g><g id="kvg:060df-g2" kvg:element="&#38585;" kvg:position="right"><g id="kvg:060df-g3" kvg:element="&#20155;" kvg:variant="true" kvg:original="&#20154;"><path id="kvg:060df-s4" kvg:type="&#12754;" d="M56,15c0.17,1.94-0.3,3.23-0.85,4.89c-3.55,10.59-8.54,20.3-16.67,33.19"/><path id="kvg:060df-s5" kvg:type="&#12753;" d="M49.04,38.27c0.85,0.85,1.11,2.22,1.11,3.67c0,8.18,0.09,38.06,0.09,44.31c0,3.69-0.07,6.74-0.07,8.75"/></g><path id="kvg:060df-s6" kvg:type="&#12754;" d="M78.4,14c0.08,0.94-0.02,2.17-0.29,2.97c-1.72,5.12-3.9,8.83-7.85,15.06"/><path id="kvg:060df-s7" kvg:type="&#12752;b" d="M49.94,34.8c7.56-0.77,25.22-1.9,35.55-2.85c3.76-0.34,6.55-0.63,7.54-0.81"/><path id="kvg:060df-s8" kvg:type="&#12753;a" d="M70.8,35.87c0.85,0.85,1.25,2.13,1.25,4.2c0,8.35,0.04,33.81,0.04,47.38"/><path id="kvg:060df-s9" kvg:type="&#12752;b" d="M51.34,52.88c7.03-0.38,22.76-1.48,32.43-2.16c3.3-0.23,5.76-0.43,6.64-0.57"/><path id="kvg:060df-s10" kvg:type="&#12752;b" d="M51.36,69.33c7.27-0.46,22.89-1.51,32.93-2.23c3.36-0.24,5.86-0.44,6.79-0.55"/><path id="kvg:060df-s11" kvg:type="&#12752;b" d="M51.36,89.24c8.27-0.49,27.69-1.15,38.9-1.73c3.17-0.16,5.46-0.32,6.27-0.46"/></g></g></g></svg>