<svg xmlns="http://www.w3.org/2000/svg" width="109" height="109" viewBox="0 0 109 109"><g xmlns:kvg="http://kanjivg.tagaini.net" id="kvg:StrokePaths_060da" style="fill:none;stroke:#000000;stroke-width:3;stroke-linecap:round;stroke-linejoin:round;"><g id="kvg:060da" kvg:element="&#24794;"><g id="kvg:060da-g1" kvg:element="&#24516;" kvg:variant="true" kvg:original="&#24515;" kvg:position="left" kvg:radical="general"><path id="kvg:060da-s1" kvg:type="&#12756;" d="M15.7,39.75c0,5.7-2.9,14.12-3.65,15.75"/><path id="kvg:060da-s2" kvg:type="&#12756;" d="M30.02,33.83c2.49,2.32,6.42,10.03,7.04,13.63"/><path id="kvg:060da-s3" kvg:type="&#12753;" d="M23.62,13.5c1,1,1.21,2.12,1.21,3.5c0,0.83,0.02,48.19,0.03,69.88c0,5.14,0,8.83,0,10.12"/></g><g id="kvg:060da-g2" kvg:element="&#24573;" kvg:position="right"><g id="kvg:060da-g3" kvg:element="&#21247;" kvg:position="top"><g id="kvg:060da-g4" kvg:element="&#21241;"><g id="kvg:060da-g5" kvg:element="&#20031;"><path id="kvg:060da-s4" kvg:type="&#12754;" d="M58.65,13.25c-0.13,1.03-0.13,2.13-0.6,3.05c-3.8,7.45-7.92,14.07-14.45,21.53"/></g><path id="kvg:060da-s5" kvg:type="&#12742;" d="M55.35,27.31c2.21,0.37,4.42,0.4,6.64,0.09c6.35-0.87,20.12-2.86,25.27-3.4c4.64-0.48,5.73,1.4,5.01,5.76c-0.8,4.83-3.38,19.52-8.27,28.81c-2.32,4.42-4.54,8.01-8.84,4.11"/></g><g id="kvg:060da-g6" kvg:element="&#20031;"><path id="kvg:060da-s6" kvg:type="&#12754;" d="M61.9,30.55c0.06,0.95-0.13,1.82-0.55,2.62c-3.63,7.81-7.87,14.07-15.69,20.2"/></g><g id="kvg:060da-g7" kvg:element="&#20031;"><path id="kvg:060da-s7" kvg:type="&#12754;" d="M77.74,29.13c0.08,0.88,0.05,1.8-0.4,3.01c-2.96,7.98-11.09,23.23-25.67,33.61"/></g></g><g id="kvg:060da-g8" kvg:element="&#24515;" kvg:position="bottom" kvg:radical="nelson"><path id="kvg:060da-s8" kvg:type="&#12756;" d="M41.51,81.05c0.23,2.18-2.32,11.08-4.18,14.73"/><path id="kvg:060da-s9" kvg:type="&#12767;b" d="M50.55,75.58c5.17,11.22,13.35,20.96,33.29,21.1c9.62,0.07,10.25-2.99,2.22-8.1"/><path id="kvg:060da-s10" kvg:type="&#12756;a" d="M63.92,73.5c2.33,6.25,4.45,7.5,6.07,1.91"/><path id="kvg:060da-s11" kvg:type="&#12756;" d="M83.45,71.48c5.17,2.89,10.17,7.02,12.28,10.95"/></g></g></g></g></svg>