<svg xmlns="http://www.w3.org/2000/svg" width="109" height="109" viewBox="0 0 109 109"><g xmlns:kvg="http://kanjivg.tagaini.net" id="kvg:StrokePaths_060d8" style="fill:none;stroke:#000000;stroke-width:3;stroke-linecap:round;stroke-linejoin:round;"><g id="kvg:060d8" kvg:element="&#24792;"><g id="kvg:060d8-g1" kvg:element="&#24516;" kvg:variant="true" kvg:original="&#24515;" kvg:position="left" kvg:radical="general"><path id="kvg:060d8-s1" kvg:type="&#12756;" d="M16.47,36c0.03,4.31-2.07,14.14-3.94,17.5"/><path id="kvg:060d8-s2" kvg:type="&#12756;" d="M31.02,33.33c1.96,2.32,5.05,9.53,5.54,13.13"/><path id="kvg:060d8-s3" kvg:type="&#12753;" d="M22.37,13.75c1.09,0.5,1.74,2.25,1.96,3.25c0.22,1,0,73.75-0.22,80"/></g><g id="kvg:060d8-g2" kvg:element="&#32596;" kvg:position="right"><g id="kvg:060d8-g3" kvg:element="&#32594;" kvg:variant="true" kvg:original="&#32593;" kvg:position="kamae"><g id="kvg:060d8-g4" kvg:element="&#20866;"><path id="kvg:060d8-s4" kvg:type="&#12753;" d="M42.24,17.53c0.71,1.26,1.19,3.29,0.95,5.57c-0.24,2.28,0.24,69.35,0.24,73.15"/><path id="kvg:060d8-s5" kvg:type="&#12742;a" d="M43.23,19.56c6.89-1.01,43.61-5.06,44.99-5.06c1.99,0,3.26,0.76,3.26,3.04c0,4.81-0.18,64.4-0.18,70.23c0,15.74-6.62,4.51-8.48,2.1"/></g><path id="kvg:060d8-s6" kvg:type="&#12756;" d="M55.19,24.67c2.04,1.66,5.26,6.85,5.77,9.44"/><path id="kvg:060d8-s7" kvg:type="&#12754;" d="M78.82,20.97c0.02,0.35,0.13,0.93-0.04,1.42c-1.28,3.61-3.21,9.54-6.96,13.55"/><path id="kvg:060d8-s8" kvg:type="&#12752;" d="M49.82,40.19c1.55,0.26,3.28,0.36,4.32,0.26c8.14-0.83,19.22-3.16,27.85-3.85c1.47-0.12,2.71,0.34,3.62,0.3"/></g><g id="kvg:060d8-g5" kvg:element="&#20129;"><g id="kvg:060d8-g6" kvg:element="&#20128;"><path id="kvg:060d8-s9" kvg:type="&#12753;a" d="M65.33,41.55c0.59,0.42,1.49,2.3,1.49,3.13c0,3.05-0.12,6.95-0.01,9.53"/><g id="kvg:060d8-g7" kvg:element="&#21304;" kvg:part="1" kvg:variant="true" kvg:original="&#21274;"><path id="kvg:060d8-s10" kvg:type="&#12752;" d="M49.25,56.02c0.81,0.1,2.63,0.61,3.42,0.54C59.25,56,74,53,82.61,52.02c1.32-0.15,2,0.05,2.99,0.69"/></g></g><g id="kvg:060d8-g8" kvg:element="&#21304;" kvg:part="2" kvg:variant="true" kvg:original="&#21274;"><path id="kvg:060d8-s11" kvg:type="&#12740;a" d="M55.9,58.3c0.44,0.49,0.66,1.9,0.66,2.58c0,6.07,0,6.44,0,8.74c0,2.55,0.28,5.41,5.19,5.78c5.32,0.4,14.19-0.08,15.39-0.13c2.09-0.09,3.86-0.36,4.93-0.67"/></g></g></g></g></g></svg>