<svg xmlns="http://www.w3.org/2000/svg" width="109" height="109" viewBox="0 0 109 109"><g xmlns:kvg="http://kanjivg.tagaini.net" id="kvg:StrokePaths_060e0" style="fill:none;stroke:#000000;stroke-width:3;stroke-linecap:round;stroke-linejoin:round;"><g id="kvg:060e0" kvg:element="&#24800;"><g id="kvg:060e0-g1" kvg:position="top"><g id="kvg:060e0-g2" kvg:element="&#21313;" kvg:part="1"><path id="kvg:060e0-s1" kvg:type="&#12752;" d="M24,23.39c1.38,0.36,3.92,0.48,5.29,0.36c20.11-1.78,30.81-3.19,50.38-4.14c2.3-0.11,3.68,0.17,4.83,0.35"/></g><g id="kvg:060e0-g3" kvg:element="&#26085;"><path id="kvg:060e0-s2" kvg:type="&#12753;" d="M28.81,33.08c0.74,0.46,1.69,2.17,1.83,2.77c1.01,4.36,2.23,13.76,3.65,22.02"/><path id="kvg:060e0-s3" kvg:type="&#12757;a" d="M31.68,34.73c11.33-0.88,37.57-3.49,45.3-3.62c3.2-0.06,3.86,1.2,3.72,2.56c-0.47,4.7-1.62,12.41-4.17,20.12"/><path id="kvg:060e0-s4" kvg:type="&#12752;a" d="M34.35,45.62c8.54-0.23,28.39-3.4,44.49-3.4"/><path id="kvg:060e0-s5" kvg:type="&#12752;a" d="M34.35,56.01c9.93-0.91,29.25-3.13,42.18-3.13"/></g><g id="kvg:060e0-g4" kvg:element="&#21313;" kvg:part="2"><path id="kvg:060e0-s6" kvg:type="&#12753;" d="M52.81,10.5c0.76,0.6,2.01,2.5,2.01,4.66c0,1.2-0.1,44.63-0.25,52.09"/></g><path id="kvg:060e0-s7" kvg:type="&#12752;" d="M26,69.92c1.25,1.33,2.2,1.83,4.12,1.57c7.38-1,40.84-7.31,48.63-8.5"/><path id="kvg:060e0-s8" kvg:type="&#12756;" d="M74.02,58.58c4.34,1.88,11.21,7.71,12.29,10.63"/></g><g id="kvg:060e0-g5" kvg:element="&#24515;" kvg:position="bottom" kvg:radical="general"><path id="kvg:060e0-s9" kvg:type="&#12756;" d="M22.89,80.57c0.35,2.21-3.51,11.98-6.31,15.67"/><path id="kvg:060e0-s10" kvg:type="&#12767;b" d="M32.58,78.25C39.25,90,48.75,98.5,77.75,98.43c13.05-0.03,13.91-2.86,3.02-7.75"/><path id="kvg:060e0-s11" kvg:type="&#12756;a" d="M54.41,76.57c1.95,4.73,4.79,9.47,6.88,2.22"/><path id="kvg:060e0-s12" kvg:type="&#12756;" d="M83.38,75.98c4.82,2.22,8.44,4.24,12.35,11.11"/></g></g></g></svg>