<svg xmlns="http://www.w3.org/2000/svg" width="109" height="109" viewBox="0 0 109 109"><g xmlns:kvg="http://kanjivg.tagaini.net" id="kvg:StrokePaths_060e7" style="fill:none;stroke:#000000;stroke-width:3;stroke-linecap:round;stroke-linejoin:round;"><g id="kvg:060e7" kvg:element="&#24807;"><g id="kvg:060e7-g1" kvg:element="&#24516;" kvg:variant="true" kvg:original="&#24515;" kvg:position="left" kvg:radical="tradit"><path id="kvg:060e7-s1" kvg:type="&#12756;" d="M16.72,36c0.03,4.31-1.97,14.14-4.19,17.5"/><path id="kvg:060e7-s2" kvg:type="&#12756;" d="M33.27,32.33c2.22,2.05,5.74,8.44,6.29,11.63"/><path id="kvg:060e7-s3" kvg:type="&#12753;" d="M23.87,12.25c1.09,0.5,1.74,2.25,1.96,3.25c0.22,1,0,73.75-0.22,80"/></g><g id="kvg:060e7-g2" kvg:element="&#20855;" kvg:position="right"><g id="kvg:060e7-g3" kvg:element="&#30446;" kvg:position="top"><path id="kvg:060e7-s4" kvg:type="&#12753;" d="M50.05,14.81c0.32,0.87,0.94,2.01,1,3.54c0.27,6.78,0.39,57.56,0.39,58.33"/><path id="kvg:060e7-s5" kvg:type="&#12757;a" d="M51.23,17.37c2.31-0.19,23.06-2.75,25.16-2.98c1.76-0.19,2.99,1.11,2.99,4.1c0,6.67-0.01,35.76-0.53,53.83"/><path id="kvg:060e7-s6" kvg:type="&#12752;a" d="M51.72,31.68c8.03-0.68,22.06-1.65,27.65-2.02"/><path id="kvg:060e7-s7" kvg:type="&#12752;a" d="M51.58,45.98c6.13-0.65,19.64-1.51,27.2-1.93"/><path id="kvg:060e7-s8" kvg:type="&#12752;a" d="M51.49,60.31c9.26-0.56,18.51-1.06,27.61-1.47"/></g><g id="kvg:060e7-g4" kvg:position="bottom"><path id="kvg:060e7-s9" kvg:type="&#12752;" d="M35.84,76.96c1.19,0.32,3.39,0.4,4.58,0.32c7.42-0.44,38.53-2.99,52.05-2.98c1.99,0,3.19,0.15,4.18,0.32"/><g id="kvg:060e7-g5" kvg:element="&#20843;"><path id="kvg:060e7-s10" kvg:type="&#12754;" d="M56.26,82.5c0.05,0.33,0.11,0.84-0.1,1.31c-1.27,2.76-8.53,8.83-18.47,12.54"/><path id="kvg:060e7-s11" kvg:type="&#12751;" d="M75.57,82.04c5.08,2.69,13.12,11.08,14.39,15.27"/></g></g></g></g></g></svg>