<svg xmlns="http://www.w3.org/2000/svg" width="109" height="109" viewBox="0 0 109 109"><g xmlns:kvg="http://kanjivg.tagaini.net" id="kvg:StrokePaths_060e8" style="fill:none;stroke:#000000;stroke-width:3;stroke-linecap:round;stroke-linejoin:round;"><g id="kvg:060e8" kvg:element="&#24808;"><g id="kvg:060e8-g1" kvg:element="&#24516;" kvg:variant="true" kvg:original="&#24515;" kvg:position="left" kvg:radical="general"><path id="kvg:060e8-s1" kvg:type="&#12756;" d="M14.22,38.5c0.03,4.13-2.07,13.54-3.94,16.75"/><path id="kvg:060e8-s2" kvg:type="&#12756;" d="M26.12,29.38c3.51,1.65,9.06,6.78,9.93,9.34"/><path id="kvg:060e8-s3" kvg:type="&#12753;" d="M21.87,13.5c1.06,1.06,1.46,2.5,1.46,4.25c0,6.37,0.02,52.36,0.03,72.75c0,3.62,0,6.41,0,8"/></g><g id="kvg:060e8-g2" kvg:element="&#21442;" kvg:position="right" kvg:phon="&#21442;/&#21443;"><g id="kvg:060e8-g3" kvg:element="&#21430;" kvg:position="top"><path id="kvg:060e8-s4" kvg:type="&#12764;" d="M60.04,10.75c0.33,1.25-0.16,2.58-0.83,3.49c-3.96,5.39-5.96,8.01-11.88,13.95c-1.57,1.58-1.46,2.89,1.06,2.39c6.74-1.33,17.74-3.45,28.93-6.08"/><path id="kvg:060e8-s5" kvg:type="&#12756;" d="M72.75,17c3.38,2.29,8.72,9.41,9.57,12.97"/></g><g id="kvg:060e8-g4" kvg:position="bottom"><g id="kvg:060e8-g5" kvg:element="&#22823;"><path id="kvg:060e8-s6" kvg:type="&#12752;" d="M37.8,44.24c3.1,0.52,5.86,0.47,8.95-0.04c11.87-1.95,28.67-3.94,40-5.12c2.63-0.27,5.12-0.45,8.09,0.13"/><path id="kvg:060e8-s7" kvg:type="&#12754;" d="M62.02,30.5c0.23,1.12,0.1,2.27-0.33,3.37c-6.06,15.25-13.81,26.75-27.94,36.96"/><path id="kvg:060e8-s8" kvg:type="&#12751;" d="M68.77,42.86c4.74,4.47,13.52,13.43,19.86,18.66c2,1.65,4.12,3.1,7.12,4.23"/></g><g id="kvg:060e8-g6" kvg:element="&#24417;"><g id="kvg:060e8-g7" kvg:element="&#20031;"><path id="kvg:060e8-s9" kvg:type="&#12754;" d="M67,53.5c0,1-0.27,1.82-0.85,2.64c-2.57,3.65-10.41,9.87-17.1,13.24"/></g><g id="kvg:060e8-g8" kvg:element="&#20031;"><path id="kvg:060e8-s10" kvg:type="&#12754;" d="M74.37,65.39c0,0.98-0.52,1.77-1.17,2.54c-3.04,3.62-12.25,9.82-19.78,13.43"/></g><g id="kvg:060e8-g9" kvg:element="&#20031;"><path id="kvg:060e8-s11" kvg:type="&#12754;" d="M83.92,75.5c-0.05,1.37-0.71,2.42-1.69,3.36c-5.08,4.91-14.86,11.51-31.54,18.63"/></g></g></g></g></g></g></svg>