<svg xmlns="http://www.w3.org/2000/svg" width="109" height="109" viewBox="0 0 109 109"><g xmlns:kvg="http://kanjivg.tagaini.net" id="kvg:StrokePaths_06134" style="fill:none;stroke:#000000;stroke-width:3;stroke-linecap:round;stroke-linejoin:round;"><g id="kvg:06134" kvg:element="&#24884;"><g id="kvg:06134-g1" kvg:element="&#24516;" kvg:variant="true" kvg:original="&#24515;" kvg:position="left" kvg:radical="general"><path id="kvg:06134-s1" kvg:type="&#12756;" d="M16.72,33.5c0.02,4.31-1.94,14.14-3.69,17.5"/><path id="kvg:06134-s2" kvg:type="&#12756;" d="M31.27,29.58c2.4,1.92,6.19,7.9,6.79,10.88"/><path id="kvg:06134-s3" kvg:type="&#12753;" d="M23.37,13.25c1.09,0.5,1.74,2.25,1.96,3.25c0.22,1,0,75.25-0.22,81.5"/></g><g id="kvg:06134-g2" kvg:element="&#20489;" kvg:position="right"><g id="kvg:06134-g3" kvg:element="&#20154;" kvg:position="top"><path id="kvg:06134-s4" kvg:type="&#12754;" d="M61.71,11.75c0.07,0.82,0.35,2.2-0.13,3.31c-3.33,7.69-10.33,20.69-23.08,31.69"/><path id="kvg:06134-s5" kvg:type="&#12751;" d="M61.89,13.75c4.2,5.16,22.31,22.02,26.95,25.8c1.57,1.28,3.59,1.83,5.16,2.2"/></g><g id="kvg:06134-g4" kvg:position="bottom"><path id="kvg:06134-s6" kvg:type="&#12752;" d="M53.61,36.84c0.51,0,2.39-0.07,3.48-0.19c3.72-0.4,8.82-0.91,13.3-1.44c1.94-0.23,2.51-0.39,3.36-0.39"/><path id="kvg:06134-s7" kvg:type="&#12757;" d="M47.25,45.75c1.5,0.5,3.4,0.79,4.75,0.69c8.38-0.59,25.55-2.79,26.88-2.93c1.4-0.15,2.91,0.74,2.76,2.5c-0.25,2.78-2.01,9.87-3.08,18.07"/><path id="kvg:06134-s8" kvg:type="&#12752;" d="M50.45,56.34c2.48-0.1,26.03-2.8,28.83-2.91"/><path id="kvg:06134-s9" kvg:type="&#12752;" d="M48.86,67.13c5.11-0.6,25.57-2.13,31.91-2.73"/><path id="kvg:06134-s10" kvg:type="&#12754;" d="M50.12,46.5c0.53,0.72,0.79,2.78,0.68,4.33C50.08,61.04,48,83.25,35.66,92.75"/><g id="kvg:06134-g5" kvg:element="&#21475;"><path id="kvg:06134-s11" kvg:type="&#12753;" d="M49.21,76.38c0.33,0.35,0.67,0.63,0.81,1.07c1.15,3.43,3.02,12.89,3.8,19.05"/><path id="kvg:06134-s12" kvg:type="&#12757;b" d="M51.27,77.71c7.16-1.21,26.77-3.27,30.64-3.72c1.42-0.17,2.27,0.98,2.06,1.94c-0.84,4.01-2.82,10.35-4.07,15.89"/><path id="kvg:06134-s13" kvg:type="&#12752;b" d="M53.99,94.49c4.55-0.51,21.1-1.39,27.34-2.17"/></g></g></g></g></g></svg>