<svg xmlns="http://www.w3.org/2000/svg" width="109" height="109" viewBox="0 0 109 109"><g xmlns:kvg="http://kanjivg.tagaini.net" id="kvg:StrokePaths_06148" style="fill:none;stroke:#000000;stroke-width:3;stroke-linecap:round;stroke-linejoin:round;"><g id="kvg:06148" kvg:element="&#24904;"><g id="kvg:06148-g1" kvg:element="&#20857;" kvg:variant="true" kvg:original="&#33586;" kvg:position="top" kvg:phon="&#20857;/&#33586;V"><g id="kvg:06148-g2" kvg:element="&#33401;" kvg:variant="true" kvg:original="&#33400;" kvg:position="top"><g id="kvg:06148-g3" kvg:element="&#29572;" kvg:part="1" kvg:number="1" kvg:partial="true"><g id="kvg:06148-g4" kvg:element="&#20128;" kvg:partial="true"><g id="kvg:06148-g5" kvg:element="&#20843;" kvg:part="1" kvg:variant="true" kvg:radical="nelson"><path id="kvg:06148-s1" kvg:type="&#12756;" d="M37.82,14.36c2.64,1.41,6.83,5.8,7.49,7.99"/></g></g></g><g id="kvg:06148-g6" kvg:element="&#20843;" kvg:part="2" kvg:variant="true" kvg:radical="nelson"><path id="kvg:06148-s2" kvg:type="&#12754;" d="M71.37,12.64c0.12,0.53-0.15,1.31-0.38,1.69c-1.5,2.46-2.48,4.04-5.49,8.17"/></g><path id="kvg:06148-s3" kvg:type="&#12752;" d="M21.88,29.18c3.5,0.57,6.87,0.44,10.15-0.01c13.69-1.9,29.43-3.73,48.23-4.69c2.94-0.15,5.8-0.14,8.71,0.49"/></g><g id="kvg:06148-g7" kvg:position="bottom"><g id="kvg:06148-g8" kvg:element="&#29572;" kvg:part="2" kvg:number="1" kvg:partial="true" kvg:position="left"><g id="kvg:06148-g9" kvg:element="&#24186;"><path id="kvg:06148-s4" kvg:type="&#12764;" d="M36.02,35.9c0.23,0.65,0.05,1.64-0.37,2.34c-1.93,3.24-3.51,5.15-6.49,8.5c-0.74,0.83-0.53,1.45,0.25,1.63c3.34,0.76,5.46,1.51,7.81,2.43"/><path id="kvg:06148-s5" kvg:type="&#12764;" d="M47.8,38.86c0.32,1.02,0.2,2.27-0.55,3.24c-4.4,5.74-10.98,12.05-19.64,19.65c-0.99,0.87-0.57,2.19,0.6,1.85c9.17-2.72,11.04-3.34,18.94-5.36"/><path id="kvg:06148-s6" kvg:type="&#12756;" d="M45,52.88c2.1,2.12,5.42,8.72,5.94,12.03"/></g></g><g id="kvg:06148-g10" kvg:element="&#29572;" kvg:part="1" kvg:number="2" kvg:partial="true" kvg:position="right"><g id="kvg:06148-g11" kvg:element="&#24186;"><path id="kvg:06148-s7" kvg:type="&#12764;" d="M67.07,31.26c0.25,0.73,0.29,1.27-0.12,2.08c-1.7,3.31-3.12,5.49-6.16,9.04c-1.06,1.25-1.2,2.46,0.18,3.01c3.04,1.23,5.71,2.4,7.8,3.65"/><path id="kvg:06148-s8" kvg:type="&#12764;" d="M79.39,34.91c0.11,1.09-0.19,2.39-0.53,2.9c-3.91,5.88-10.42,13.12-18.3,20.38c-1.69,1.56-1.32,2.81,0.72,2.36c6.57-1.46,14.76-3.58,20.33-4.66"/><path id="kvg:06148-s9" kvg:type="&#12756;" d="M78.04,50.21c2.62,2.03,6.77,8.35,7.42,11.51"/></g></g></g></g><g id="kvg:06148-g12" kvg:element="&#24515;" kvg:position="bottom" kvg:radical="tradit"><path id="kvg:06148-s10" kvg:type="&#12756;" d="M25.52,78.19c0.34,2.27-3.7,12.27-6.44,16.05"/><path id="kvg:06148-s11" kvg:type="&#12767;b" d="M34.58,75.5c8.17,11.62,15.67,19.88,45.06,20.43c12.88,0.25,14.22-3.61,3.48-8.92"/><path id="kvg:06148-s12" kvg:type="&#12756;a" d="M52.91,73.25c2.17,5.25,4.97,9.25,6.88,2.96"/><path id="kvg:06148-s13" kvg:type="&#12756;" d="M78.75,70.25c4.78,1.57,8.36,2.99,12.24,7.84"/></g></g></g></svg>