<svg xmlns="http://www.w3.org/2000/svg" width="109" height="109" viewBox="0 0 109 109"><g xmlns:kvg="http://kanjivg.tagaini.net" id="kvg:StrokePaths_0614e" style="fill:none;stroke:#000000;stroke-width:3;stroke-linecap:round;stroke-linejoin:round;"><g id="kvg:0614e" kvg:element="&#24910;"><g id="kvg:0614e-g1" kvg:element="&#24516;" kvg:variant="true" kvg:original="&#24515;" kvg:position="left" kvg:radical="general"><path id="kvg:0614e-s1" kvg:type="&#12756;" d="M14.75,35.62c0.02,4.47-1.43,14.65-2.72,18.12"/><path id="kvg:0614e-s2" kvg:type="&#12756;" d="M31.27,33.08c3.1,1.35,8.02,5.54,8.79,7.63"/><path id="kvg:0614e-s3" kvg:type="&#12753;" d="M24.62,16c1.19,1.19,1.21,3,1.21,4.75c0,1.79,0.02,46.77,0.03,66.25c0,3.82,0,6.52,0,7.5"/></g><g id="kvg:0614e-g2" kvg:element="&#30495;" kvg:position="right" kvg:phon="&#30495;"><g id="kvg:0614e-g3" kvg:element="&#21313;" kvg:position="top"><path id="kvg:0614e-s4" kvg:type="&#12752;" d="M44.82,23.93c2.68,0.57,5.12,0.46,7.07,0.18C63,22.5,76.57,21.18,84.75,20.6c2.03-0.14,4.62-0.1,6.47,0.36"/><path id="kvg:0614e-s5" kvg:type="&#12753;a" d="M65.61,13.75c0.76,0.76,1.24,1.62,1.24,2.75c0,4.38-0.01,8.25-0.01,16.55"/></g><g id="kvg:0614e-g4" kvg:element="&#20855;" kvg:position="bottom"><g id="kvg:0614e-g5" kvg:element="&#30446;" kvg:position="top"><path id="kvg:0614e-s6" kvg:type="&#12753;" d="M51.09,34.89c0.88,0.88,1.27,1.98,1.27,3.89c0,6.34-0.1,19.5-0.04,28.22c0.02,3.08,0.03,5.15,0.03,5.3"/><path id="kvg:0614e-s7" kvg:type="&#12757;a" d="M52.97,35.75c6.28-0.62,24.1-3.19,26.77-3.36c2.22-0.14,3.78,0.74,3.79,3.8c0,3.23,0.08,18.95,0.1,27.7c0,3.17,0,5.42-0.02,5.83"/><path id="kvg:0614e-s8" kvg:type="&#12752;a" d="M53.58,46.78c10.67-0.81,20.3-1.91,28.67-2.52"/><path id="kvg:0614e-s9" kvg:type="&#12752;a" d="M53.28,57.81c7.75-0.48,19.4-1.87,28.97-2.18"/><path id="kvg:0614e-s10" kvg:type="&#12752;a" d="M53.3,69.49c11.54-1.17,19.93-2.14,29.47-2.73"/></g><g id="kvg:0614e-g6" kvg:position="bottom"><path id="kvg:0614e-s11" kvg:type="&#12752;" d="M41.84,79.83c2.49,0.84,5.48,0.49,8.03,0.29c8.82-0.69,26.53-2.32,37.5-2.62c2.51-0.07,5.06,0.04,7.53,0.54"/><g id="kvg:0614e-g7" kvg:element="&#20843;"><path id="kvg:0614e-s12" kvg:type="&#12754;" d="M57.79,85.47c0.13,0.87-0.07,1.64-0.6,2.33c-2.69,3.08-8.14,7.75-15.49,11.17"/><path id="kvg:0614e-s13" kvg:type="&#12756;/&#12751;" d="M77,85.5c4.88,2,12.6,8.2,13.82,11.31"/></g></g></g></g></g></g></svg>