<svg xmlns="http://www.w3.org/2000/svg" width="109" height="109" viewBox="0 0 109 109"><g xmlns:kvg="http://kanjivg.tagaini.net" id="kvg:StrokePaths_06165" style="fill:none;stroke:#000000;stroke-width:3;stroke-linecap:round;stroke-linejoin:round;"><g id="kvg:06165" kvg:element="&#24933;"><g id="kvg:06165-g1" kvg:element="&#24516;" kvg:variant="true" kvg:original="&#24515;" kvg:position="left" kvg:radical="general"><path id="kvg:06165-s1" kvg:type="&#12756;" d="M15.72,33.5c0.03,4.31-2.21,14.14-4.19,17.5"/><path id="kvg:06165-s2" kvg:type="&#12756;" d="M25.27,26.08c2.75,1.48,7.1,6.08,7.79,8.38"/><path id="kvg:06165-s3" kvg:type="&#12753;" d="M21.37,12.25c1.09,0.5,1.74,2.25,1.96,3.25c0.22,1-0.22,73.75-0.22,83"/></g><g id="kvg:06165-g2" kvg:element="&#36896;" kvg:variant="true" kvg:position="right"><g id="kvg:06165-g3" kvg:element="&#21578;"><g id="kvg:06165-g4" kvg:element="&#29275;" kvg:position="top"><path id="kvg:06165-s4" kvg:type="&#12754;" d="M62.76,18.19c0.02,0.49,0.05,1.28-0.05,1.99c-0.57,4.19-3.85,13.38-8.34,19"/><path id="kvg:06165-s5" kvg:type="&#12752;" d="M61.31,29.25c0.62,0.33,2.64,0.41,3.26,0.33c7.57-0.91,18.4-2.15,25.36-2.44c1.03-0.04,1.65,0.16,2.16,0.32"/><path id="kvg:06165-s6" kvg:type="&#12752;" d="M52.58,45.86c1.16,0.34,3.28,0.4,4.44,0.34c12.04-0.57,18.21-1.96,36.36-2.57c1.93-0.06,3.08,0.16,4.05,0.33"/><path id="kvg:06165-s7" kvg:type="&#12753;" d="M72.88,11.38c0.45,0.35,1.39,2.61,1.48,3.31c0.09,0.7-0.06,34.49-0.15,38.84"/></g><g id="kvg:06165-g5" kvg:element="&#21475;" kvg:position="bottom"><path id="kvg:06165-s8" kvg:type="&#12753;" d="M58.67,59.45c0.31,0.36,0.62,0.66,0.76,1.12c1.07,3.6,2.43,15.18,3.16,21.64"/><path id="kvg:06165-s9" kvg:type="&#12757;b" d="M59.98,61.19c8.25-0.83,22.48-2.46,26.37-2.97c1.42-0.18,2.27,1.88,2.07,2.97c-0.84,4.53-1.72,10.36-3.52,16.89"/><path id="kvg:06165-s10" kvg:type="&#12752;b" d="M63.2,79.72c7.15-0.49,19.29-1.01,24.42-1.45"/></g></g><g id="kvg:06165-g6" kvg:element="&#36790;" kvg:position="nyo"><path id="kvg:06165-s11" kvg:type="&#12756;" d="M37.4,18.25c3.81,1.39,9.83,5.72,10.79,7.88"/><path id="kvg:06165-s12" kvg:type="&#12756;" d="M38.15,39c3.1,1.39,8.01,5.72,8.79,7.88"/><path id="kvg:06165-s13" kvg:type="&#12747;" d="M34.5,60.7c1.81,0.66,3.02,0.33,3.82,0.17c0.81-0.17,6.94-3.31,8.15-3.64s3.02,0.83,2.21,1.82s-3.72,5.79-4.32,6.61c-0.6,0.83-0.4,2.31,0.8,3.47c1.21,1.16,2.21,2.48,2.82,3.47c0.6,0.99,0.6,1.82-0.6,2.64s-7.25,5.45-8.45,5.78"/><path id="kvg:06165-s14" kvg:type="&#12751;" d="M30.51,84.37c2.42-0.44,7.25-1.55,10.87-0.66c3.62,0.88,24.21,6.82,27.77,7.96c9.66,3.09,17.11,3.98,24.35,2.43"/></g></g></g></g></svg>