<svg xmlns="http://www.w3.org/2000/svg" width="109" height="109" viewBox="0 0 109 109"><g xmlns:kvg="http://kanjivg.tagaini.net" id="kvg:StrokePaths_06168" style="fill:none;stroke:#000000;stroke-width:3;stroke-linecap:round;stroke-linejoin:round;"><g id="kvg:06168" kvg:element="&#24936;"><g id="kvg:06168-g1" kvg:element="&#24516;" kvg:variant="true" kvg:original="&#24515;" kvg:position="left" kvg:radical="general"><path id="kvg:06168-s1" kvg:type="&#12756;" d="M14.97,36c0,6.52-3.72,16.14-4.69,18"/><path id="kvg:06168-s2" kvg:type="&#12756;" d="M26.12,32.5c2.54,1.58,6.55,6.51,7.18,8.97"/><path id="kvg:06168-s3" kvg:type="&#12753;" d="M22.12,15.75c0.88,1,1.21,2.5,1.21,4.5c0,6.32,0.02,51.9,0.03,69.62c0,3.09,0,5.33,0,6.38"/></g><g id="kvg:06168-g2" kvg:element="&#26082;" kvg:position="right" kvg:phon="&#26082;"><g id="kvg:06168-g3" kvg:element="&#33390;" kvg:variant="true" kvg:position="left"><path id="kvg:06168-s4" kvg:type="&#12757;" d="M38.72,22.58c1.53,0.67,3.08,0.57,4.84,0.23c3.62-0.7,8.21-1.57,10.57-2c2.57-0.47,3.69,0.09,3.59,2.94c-0.22,5.82-1.37,16.08-1.97,22.27c-0.18,1.86-0.33,3.33-0.43,4.17"/><path id="kvg:06168-s5" kvg:type="&#12752;a" d="M41.57,36.47c4.24-0.73,9.08-1.86,14.04-2.44"/><path id="kvg:06168-s6" kvg:type="&#12752;a" d="M41.75,50.02c3.15-0.4,8.26-1.44,12.73-2.02"/><path id="kvg:06168-s7" kvg:type="&#12761;" d="M39.22,23.08c0.72,0.72,1.17,1.54,1.17,2.78c0,3.54-0.01,41.89-0.01,52.01c0,5.5,0.12,5.62,4.25,2c3.24-2.85,6.13-5.5,12.09-10.64"/><path id="kvg:06168-s8" kvg:type="&#12756;" d="M53.88,62.25c2.19,2.08,5.46,7.69,6.4,12.47"/></g><g id="kvg:06168-g4" kvg:element="&#26081;" kvg:variant="true" kvg:original="&#26080;" kvg:position="right"><path id="kvg:06168-s9" kvg:type="&#12752;" d="M66.29,23.89c1.96,0.23,3.98,0.18,5.61-0.1c4.15-0.71,9.63-1.75,14.23-2.23c1.57-0.16,2.99-0.23,4.52,0.19"/><path id="kvg:06168-s10" kvg:type="&#12753;a" d="M69.04,25.42c0.46,0.83,0.59,1.83,0.53,3.11c-0.21,4.25-0.94,11.22-1.55,18.94"/><path id="kvg:06168-s11" kvg:type="&#12752;" d="M60.77,48.78c2.12,0.31,3.87,0.22,5.99-0.06C72.9,47.9,81.48,46.4,90,45.59c1.82-0.17,3.44-0.23,5.25,0.08"/><g id="kvg:06168-g5" kvg:element="&#20799;"><g id="kvg:06168-g6" kvg:element="&#20843;" kvg:variant="true"><g id="kvg:06168-g7" kvg:element="&#20031;" kvg:position="left"><path id="kvg:06168-s12" kvg:type="&#12754;" d="M82.38,25.13c0.37,0.88,0.59,2.11,0.22,4.24C79.5,47,73.5,72.25,57.5,87.5"/></g><g id="kvg:06168-g8" kvg:position="right"><path id="kvg:06168-s13" kvg:type="&#12767;" d="M78.91,56.52c1.04,1.04,1.3,2.48,1.3,4.12c0,7.73-0.08,13.73-0.08,22.35s1.61,9.75,9.05,9.75s8.32-1.14,8.32-7.93"/></g></g></g></g></g></g></g></svg>