<svg xmlns="http://www.w3.org/2000/svg" width="109" height="109" viewBox="0 0 109 109"><g xmlns:kvg="http://kanjivg.tagaini.net" id="kvg:StrokePaths_06177" style="fill:none;stroke:#000000;stroke-width:3;stroke-linecap:round;stroke-linejoin:round;"><g id="kvg:06177" kvg:element="&#24951;"><g id="kvg:06177-g1" kvg:element="&#24516;" kvg:variant="true" kvg:original="&#24515;" kvg:position="left" kvg:radical="general"><path id="kvg:06177-s1" kvg:type="&#12756;" d="M15.75,36.5c0,6.16-2.97,15.24-3.75,17"/><path id="kvg:06177-s2" kvg:type="&#12756;" d="M27.77,32.33c2.57,1.79,6.65,7.35,7.29,10.13"/><path id="kvg:06177-s3" kvg:type="&#12753;" d="M23.37,15.25c1.09,0.5,1.74,2.25,1.96,3.25c0.22,1,0,73.25-0.22,79.5"/></g><g id="kvg:06177-g2" kvg:element="&#24247;" kvg:position="right"><g id="kvg:06177-g3" kvg:element="&#24191;" kvg:position="tare"><path id="kvg:06177-s4" kvg:type="&#12753;a" d="M65.93,12.63c0.58,0.36,1.82,2.72,1.94,3.44c0.12,0.73,0.06,3.42-0.06,7.96"/><g id="kvg:06177-g4" kvg:element="&#21378;"><path id="kvg:06177-s5" kvg:type="&#12752;" d="M42.27,26.32c1.28,0.54,3.64,0.63,4.92,0.54c13.37-0.9,32.15-4.47,44.36-4.72c2.14-0.04,3.43,0.26,4.5,0.53"/><path id="kvg:06177-s6" kvg:type="&#12754;" d="M46.81,27.47c0.04,1.44,0.09,3.22-0.08,5.28c-1.01,12.15-0.98,40.5-14.17,54.72"/></g></g><g id="kvg:06177-g5" kvg:element="&#38582;"><g id="kvg:06177-g6" kvg:element="&#11925;" kvg:variant="true" kvg:original="&#24401;"><path id="kvg:06177-s7" kvg:type="&#12757;" d="M53.02,37.83c1.18,0.11,2.48,0.2,4.05,0.06c10.19-0.89,16.54-2.18,26.35-3.37c2.88-0.35,3.71,1.15,3.37,3.3c-0.88,5.62-1.68,8.74-2.86,18.37"/><path id="kvg:06177-s8" kvg:type="&#12752;" d="M48.99,48.45c1.34,0.06,2.36,0.19,3.86,0.03c14.13-1.52,31.31-3.13,41.55-4.44c1.64-0.21,2.97,0.1,3.71,0.21"/><path id="kvg:06177-s9" kvg:type="&#12752;c" d="M53.02,59.03c0.84,0.1,2.35,0.31,3.37,0.22c8.11-0.75,17.76-1.69,26.19-2.78c1.35-0.17,2.19-0.19,3.2-0.11"/></g><g id="kvg:06177-g7" kvg:element="&#27706;" kvg:variant="true" kvg:original="&#27700;"><path id="kvg:06177-s10" kvg:type="&#12762;" d="M69.09,27.98c0.06,0.4,1.2,2.09,1.26,4.64c0.29,12.25-0.18,54.96-0.18,59.13c0,8.24-5.51,1.26-6.59,0.21"/><path id="kvg:06177-s11" kvg:type="&#12756;" d="M49.63,65.89c2.99,1.27,7.73,5.22,8.47,7.2"/><path id="kvg:06177-s12" kvg:type="&#12736;" d="M44.62,88.01c1.26,1.07,2.31,1.53,3.57,0.61c0.74-0.54,11.34-9.18,14.49-11.78"/><path id="kvg:06177-s13" kvg:type="&#12754;" d="M89.17,62.17c0.03,0.21,0.06,0.54-0.05,0.84c-0.64,1.78-4.34,5.68-9.39,8.07"/><path id="kvg:06177-s14" kvg:type="&#12751;" d="M72.32,72.13c2.54,0.78,16.54,15.43,19.87,18.07c1.13,0.9,2.1,1.28,3.23,1.54"/></g></g></g></g></g></svg>