<svg xmlns="http://www.w3.org/2000/svg" width="109" height="109" viewBox="0 0 109 109"><g xmlns:kvg="http://kanjivg.tagaini.net" id="kvg:StrokePaths_06171" style="fill:none;stroke:#000000;stroke-width:3;stroke-linecap:round;stroke-linejoin:round;"><g id="kvg:06171" kvg:element="&#24945;"><g id="kvg:06171-g1" kvg:element="&#24516;" kvg:variant="true" kvg:original="&#24515;" kvg:position="left" kvg:radical="general"><path id="kvg:06171-s1" kvg:type="&#12756;" d="M17.72,39c0.03,3.95-2.47,12.93-4.69,16"/><path id="kvg:06171-s2" kvg:type="&#12756;" d="M33.52,33.58c2.49,2.1,6.42,8.62,7.04,11.88"/><path id="kvg:06171-s3" kvg:type="&#12753;" d="M24.87,15.75c1.09,0.5,1.74,2.25,1.96,3.25c0.22,1,0,73.75-0.22,80"/></g><g id="kvg:06171-g2" kvg:element="&#23560;" kvg:position="right"><g id="kvg:06171-g3" kvg:position="top"><g id="kvg:06171-g4" kvg:element="&#21313;" kvg:part="1"><path id="kvg:06171-s4" kvg:type="&#12752;" d="M43.35,20.24c1.29,0.5,3.66,0.6,4.95,0.5c12.62-1.05,26.95-2.49,38.55-3.61c2.15-0.21,3.45,0.24,4.52,0.49"/></g><path id="kvg:06171-s5" kvg:type="&#12753;" d="M46.81,28.75c0.6,0.4,1.37,1.91,1.48,2.45c0.81,3.86,1.85,12.32,3.04,20.42"/><path id="kvg:06171-s6" kvg:type="&#12757;" d="M49.12,30.71c9.88-1.21,30.21-4.24,36.45-4.36c2.58-0.05,2.79,1.22,2.6,3.33c-0.38,4.16-1.42,11.22-2.96,18.71"/><path id="kvg:06171-s7" kvg:type="&#12752;" d="M51.78,39.76c6.9-0.2,21.8-3.01,34.79-3.01"/><path id="kvg:06171-s8" kvg:type="&#12752;" d="M51.38,49.42c8.02-0.8,23.4-2.78,33.84-2.78"/><g id="kvg:06171-g5" kvg:element="&#21313;" kvg:part="2"><path id="kvg:06171-s9" kvg:type="&#12753;" d="M66.06,9.5c0.61,0.6,1.63,1.75,1.63,5.66c0,1.2-0.08,37.13-0.2,44.59"/></g><path id="kvg:06171-s10" kvg:type="&#12752;" d="M43.68,61.56c0.7,0.83,2.51,1.27,3.51,1.21c3.29-0.2,35.37-4.93,41.5-5.77"/><path id="kvg:06171-s11" kvg:type="&#12756;" d="M81.69,52.37c4.44,1.9,11.47,7.8,12.58,10.75"/></g><g id="kvg:06171-g6" kvg:element="&#23544;" kvg:position="bottom"><path id="kvg:06171-s12" kvg:type="&#12752;" d="M42.13,74.67c1.28,0.8,3.62,0.96,4.91,0.8C59.02,74,82,72,93.39,70.79c2.13-0.23,3.42,0.38,4.49,0.78"/><path id="kvg:06171-s13" kvg:type="&#12762;" d="M80.67,62.58c0.06,0.4,0.84,2.06,0.84,4.58c0,16.93-0.17,20.67-0.17,24.78c0,9.99-5.05,1.48-6.52,0.21"/><path id="kvg:06171-s14" kvg:type="&#12756;" d="M56.51,81.12c2.59,1.68,6.68,6.89,7.33,9.5"/></g></g></g></g></svg>