<svg xmlns="http://www.w3.org/2000/svg" width="109" height="109" viewBox="0 0 109 109"><g xmlns:kvg="http://kanjivg.tagaini.net" id="kvg:StrokePaths_0619a" style="fill:none;stroke:#000000;stroke-width:3;stroke-linecap:round;stroke-linejoin:round;"><g id="kvg:0619a" kvg:element="&#24986;"><g id="kvg:0619a-g1" kvg:element="&#24516;" kvg:variant="true" kvg:original="&#24515;" kvg:position="left" kvg:radical="general"><path id="kvg:0619a-s1" kvg:type="&#12756;" d="M15.72,37c0.02,4.31-1.94,14.14-3.69,17.5"/><path id="kvg:0619a-s2" kvg:type="&#12756;" d="M30.27,34.33c2.57,2.05,6.65,8.44,7.29,11.63"/><path id="kvg:0619a-s3" kvg:type="&#12753;" d="M22.37,14.25c1.09,0.5,1.74,2.25,1.96,3.25c0.22,1,0,73.75-0.22,80"/></g><g id="kvg:0619a-g2" kvg:element="&#21934;" kvg:position="right"><g id="kvg:0619a-g3" kvg:position="top"><g id="kvg:0619a-g4" kvg:element="&#21475;" kvg:position="left"><path id="kvg:0619a-s4" kvg:type="&#12753;" d="M39,14.83c0.33,0.29,0.71,0.52,0.82,0.9c0.95,3.36,2.69,9.06,3.64,13.99"/><path id="kvg:0619a-s5" kvg:type="&#12757;b" d="M41.08,15.9c6.16-0.71,11.46-1.23,17.14-1.95c1.42-0.18,2.29,0.83,2.08,1.65c-0.85,3.39-1.17,4.94-2.67,10.58"/><path id="kvg:0619a-s6" kvg:type="&#12752;b" d="M44.16,28.41c4.59-0.43,9.01-1.15,15.32-1.82"/></g><g id="kvg:0619a-g5" kvg:element="&#21475;" kvg:position="right"><path id="kvg:0619a-s7" kvg:type="&#12753;" d="M67.79,12.79c0.31,0.34,1.22,1.62,1.32,2.07c0.88,3.97,0.94,7.46,1.83,13.29"/><path id="kvg:0619a-s8" kvg:type="&#12757;b" d="M69.39,13.68c7.3-0.93,13.94-1.96,19.21-2.81c1.32-0.21,2.12,0.98,1.93,1.95c-0.79,4.01-2.27,7.18-3.31,11.52"/><path id="kvg:0619a-s9" kvg:type="&#12752;b" d="M70.7,26.07c5.61-0.32,10.58-1.07,18.85-1.21"/></g></g><g id="kvg:0619a-g6" kvg:position="bottom"><g id="kvg:0619a-g7" kvg:element="&#30002;" kvg:part="1"><g id="kvg:0619a-g8" kvg:element="&#30000;" kvg:partial="true"><path id="kvg:0619a-s10" kvg:type="&#12753;" d="M45.48,36.01c0.27,0.47,0.78,1.29,0.93,1.88c1.24,4.82,2.34,13.37,4.09,23.47"/><path id="kvg:0619a-s11" kvg:type="&#12757;" d="M47.25,37.83c10.3-1.62,28.32-3.31,35.42-4.13c2.61-0.3,4.18,0.65,4.1,2.68c-0.18,4.83-2.97,19.78-3.43,21.8"/><path id="kvg:0619a-s12" kvg:type="&#12752;" d="M49.32,48.13C52.42,47.74,81,45,85.31,45.27"/><path id="kvg:0619a-s13" kvg:type="&#12752;" d="M50.87,59.04c10.63-1.29,22.73-1.84,32.54-2.78"/></g></g><g id="kvg:0619a-g9" kvg:element="&#19968;"><path id="kvg:0619a-s14" kvg:type="&#12752;" d="M37.94,71.5c1.43,0.46,4.06,0.53,5.5,0.46c7.96-0.42,30.98-2.48,48.86-3.1c2.39-0.08,3.82,0.22,5.02,0.45"/></g><g id="kvg:0619a-g10" kvg:element="&#30002;" kvg:part="2"><g id="kvg:0619a-g11" kvg:element="&#20008;"><path id="kvg:0619a-s15" kvg:type="&#12753;" d="M65.39,38.49c0.53,0.36,0.86,1.36,0.87,2.58c0.03,6.19,0.16,53.42,0.17,55.44"/></g></g></g></g></g></g></svg>