<svg xmlns="http://www.w3.org/2000/svg" width="109" height="109" viewBox="0 0 109 109"><g xmlns:kvg="http://kanjivg.tagaini.net" id="kvg:StrokePaths_06191" style="fill:none;stroke:#000000;stroke-width:3;stroke-linecap:round;stroke-linejoin:round;"><g id="kvg:06191" kvg:element="&#24977;"><g id="kvg:06191-g1" kvg:element="&#39342;" kvg:position="top"><g id="kvg:06191-g2" kvg:element="&#20907;" kvg:original="&#27703;" kvg:position="left"><g id="kvg:06191-g3" kvg:position="top"><path id="kvg:06191-s1" kvg:type="&#12756;" d="M17.5,15.87c3.88,1.91,10.03,7.87,11,10.85"/></g><g id="kvg:06191-g4" kvg:position="bottom"><path id="kvg:06191-s2" kvg:type="&#12736;" d="M15.5,60.09c2.5,0.81,3.68,0.59,5.14-0.92c1.42-1.47,9.44-12.33,14.86-19.8"/></g></g><g id="kvg:06191-g5" kvg:element="&#39340;" kvg:position="right"><path id="kvg:06191-s3" kvg:type="&#12753;" d="M49.54,14.41c0.36,0.26,0.75,1.73,0.75,2.19c0,4.65,0.04,23.88-0.18,31.21"/><path id="kvg:06191-s4" kvg:type="&#12752;b" d="M50.84,15.17c8.88-0.91,29.62-2.54,33.43-3.04c1.33-0.17,3.59-0.38,4.26-0.25"/><path id="kvg:06191-s5" kvg:type="&#12753;a" d="M67.84,16.13c0.36,0.26,0.65,1.63,0.65,2.08c0,4.65,0.04,19.48-0.18,26.81"/><path id="kvg:06191-s6" kvg:type="&#12752;b" d="M50.45,26.36c8.88-0.91,26.53-2.84,30.34-3.34c1.33-0.17,3.59-0.38,4.26-0.25"/><path id="kvg:06191-s7" kvg:type="&#12752;b" d="M50.65,35.68c8.88-0.91,26.53-2.34,30.34-2.84c1.33-0.17,3.59-0.37,4.26-0.25"/><path id="kvg:06191-s8" kvg:type="&#12742;a" d="M50.12,47.85c12.63-1.25,30.24-4.08,36.47-4.7c4.05-0.4,5.82,1.81,5.4,4.58C90.82,55.6,90,61.56,86.88,66.47c-4.35,6.83-5.74,3.68-9.86-0.04"/><g id="kvg:06191-g6" kvg:element="&#28780;" kvg:variant="true" kvg:original="&#28779;"><path id="kvg:06191-s9" kvg:type="&#12756;" d="M43.8,55.62c-0.29,4.5-1.33,8.81-3.02,11.94"/><path id="kvg:06191-s10" kvg:type="&#12756;" d="M53.55,55.5c1.68,1.51,3.28,5.65,3.7,8"/><path id="kvg:06191-s11" kvg:type="&#12756;" d="M64.15,52.39c1.61,1.55,4.16,6.38,4.56,8.79"/><path id="kvg:06191-s12" kvg:type="&#12756;" d="M74.31,49.89c1.99,1.19,5.14,4.89,5.64,6.73"/></g></g></g><g id="kvg:06191-g7" kvg:element="&#24515;" kvg:position="bottom" kvg:radical="general"><path id="kvg:06191-s13" kvg:type="&#12756;" d="M23.56,80.63c0.36,2.42-3.65,13.13-6.56,17.17"/><path id="kvg:06191-s14" kvg:type="&#12767;b" d="M34,76.57c6.58,11.27,16.97,21.04,42.33,21.18c12.23,0.07,13.03-3,2.83-8.13"/><path id="kvg:06191-s15" kvg:type="&#12756;a" d="M56.83,73.82c1.88,4.85,4.62,9.7,6.63,2.28"/><path id="kvg:06191-s16" kvg:type="&#12756;" d="M81.8,78.05c5.02,1.72,8.78,3.29,12.85,8.61"/></g></g></g></svg>