<svg xmlns="http://www.w3.org/2000/svg" width="109" height="109" viewBox="0 0 109 109"><g xmlns:kvg="http://kanjivg.tagaini.net" id="kvg:StrokePaths_06196" style="fill:none;stroke:#000000;stroke-width:3;stroke-linecap:round;stroke-linejoin:round;"><g id="kvg:06196" kvg:element="&#24982;"><g id="kvg:06196-g1" kvg:position="top"><g id="kvg:06196-g2" kvg:element="&#20358;" kvg:position="left"><g id="kvg:06196-g3" kvg:element="&#26408;" kvg:part="1"><path id="kvg:06196-s1" kvg:type="&#12752;" d="M14.68,23.71c0.96,0.31,2.06,0.41,3.17,0.31c5.64-0.5,22.02-2.26,30.55-2.86c1.1-0.08,1.79,0.05,2.89,0.27"/></g><g id="kvg:06196-g4" kvg:element="&#20174;"><g id="kvg:06196-g5" kvg:element="&#20154;" kvg:position="left"><path id="kvg:06196-s2" kvg:type="&#12754;" d="M22.46,29.99c0,0.41,0.05,0.75-0.07,1.22c-1.1,4.42-4.38,9.91-9.19,14.79"/><path id="kvg:06196-s3" kvg:type="&#12751;" d="M21.56,37.17c2.21,0.89,5.02,3.26,6.1,5.5"/></g><g id="kvg:06196-g6" kvg:element="&#20154;" kvg:position="right"><path id="kvg:06196-s4" kvg:type="&#12754;" d="M45.57,27.5c0,0.31,0.06,0.58-0.06,0.93c-1.04,3.05-4,8.47-7.53,11.54"/><path id="kvg:06196-s5" kvg:type="&#12751;" d="M44.58,34.43c3.61,1.98,6.39,4.47,8.55,7.48"/></g></g><g id="kvg:06196-g7" kvg:element="&#26408;" kvg:part="2"><path id="kvg:06196-s6" kvg:type="&#12753;" d="M32.9,12.25c0.6,0.29,1.07,1.3,1.07,1.9c0,6.15,0,46.69-0.12,50.35"/><path id="kvg:06196-s7" kvg:type="&#12754;" d="M33.86,41.42c-3.45,7.11-12.69,17.97-19.86,22"/><path id="kvg:06196-s8" kvg:type="&#12756;/&#12751;" d="M36.73,47.16c3.04,1.24,10.04,7.04,11.64,9.5"/></g></g><g id="kvg:06196-g8" kvg:element="&#29356;" kvg:position="right"><g id="kvg:06196-g9" kvg:element="&#22823;"><path id="kvg:06196-s9" kvg:type="&#12752;" d="M56.15,31.28c0.54,0.25,2.38,0.56,3.43,0.41c5.45-0.76,24.33-3.03,30.91-3.55c0.75-0.06,1.82,0.1,3.5,0.52"/><path id="kvg:06196-s10" kvg:type="&#12754;" d="M72.92,12.75c0.65,0.71,1.18,1.4,1.14,2.81C73.5,34.75,70.5,51,51.25,62.5"/><path id="kvg:06196-s11" kvg:type="&#12751;" d="M72.37,30.18c4.89,8.41,14.4,22.65,20.64,28.65c1.64,1.58,2.24,1.78,3,1.92"/></g><g id="kvg:06196-g10" kvg:element="&#20022;"><path id="kvg:06196-s12" kvg:type="&#12756;" d="M83.38,12.41c4.85,2.79,6.18,4.92,7.68,7.54"/></g></g></g><g id="kvg:06196-g11" kvg:element="&#24515;" kvg:position="bottom" kvg:radical="general"><path id="kvg:06196-s13" kvg:type="&#12756;" d="M25.06,79.13c0.42,2.35-4.2,12.75-7.56,16.67"/><path id="kvg:06196-s14" kvg:type="&#12767;b" d="M36.75,73.07c6.2,12.99,16,24.27,39.9,24.43c11.53,0.08,12.28-3.47,2.67-9.38"/><path id="kvg:06196-s15" kvg:type="&#12756;a" d="M56.83,71.32c2.17,5.25,5.32,10.5,7.63,2.46"/><path id="kvg:06196-s16" kvg:type="&#12756;" d="M81.05,68.3c5.11,2.17,8.95,4.15,13.1,10.86"/></g></g></g></svg>