<svg xmlns="http://www.w3.org/2000/svg" width="109" height="109" viewBox="0 0 109 109"><g xmlns:kvg="http://kanjivg.tagaini.net" id="kvg:StrokePaths_061ae" style="fill:none;stroke:#000000;stroke-width:3;stroke-linecap:round;stroke-linejoin:round;"><g id="kvg:061ae" kvg:element="&#25006;"><g id="kvg:061ae-g1" kvg:element="&#24516;" kvg:variant="true" kvg:original="&#24515;" kvg:position="left" kvg:radical="general"><path id="kvg:061ae-s1" kvg:type="&#12756;" d="M16.47,34.5c0.03,4.19-2.07,13.74-3.94,17"/><path id="kvg:061ae-s2" kvg:type="&#12756;" d="M26.77,32.33c2.22,1.79,5.74,7.35,6.29,10.13"/><path id="kvg:061ae-s3" kvg:type="&#12753;" d="M21.87,13.25c1.09,0.5,1.74,2.25,1.96,3.25c0.22,1,0,73.75-0.22,80"/></g><g id="kvg:061ae-g2" kvg:element="&#28961;" kvg:position="right"><g id="kvg:061ae-g3" kvg:position="top"><g id="kvg:061ae-g4" kvg:element="&#20031;"><path id="kvg:061ae-s4" kvg:type="&#12754;" d="M52.73,12.5c0.04,0.6,0.15,1.72-0.08,2.39c-2.8,8.41-6.95,16.12-14.25,22.9"/></g><path id="kvg:061ae-s5" kvg:type="&#12752;" d="M46.1,30.76c8.23-0.17,34.38-2.97,42.27-3.4c1.83-0.1,2.94,0.13,3.86,0.26"/><g id="kvg:061ae-g5" kvg:element="&#19968;"><path id="kvg:061ae-s6" kvg:type="&#12752;" d="M31.5,51.92c1.43,0.36,4.07,0.94,5.5,0.86c9.25-0.53,42.25-3.53,55.23-4.27c2.38-0.14,3.82,0.17,5.02,0.35"/></g><path id="kvg:061ae-s7" kvg:type="&#12753;" d="M46.3,32.75c0.83,0.5,1.5,2.24,1.49,3.25c-0.04,3.5-0.04,23.25,0.34,35.5"/><path id="kvg:061ae-s8" kvg:type="&#12753;" d="M57.71,32.25c0.83,0.5,1.5,2.23,1.49,3.25C59.15,41,59.34,56,59.34,70.25"/><path id="kvg:061ae-s9" kvg:type="&#12753;" d="M69.63,31.25c0.83,0.5,1.55,2.23,1.49,3.25c-0.44,8-0.82,19.5-1.39,35.25"/><path id="kvg:061ae-s10" kvg:type="&#12753;" d="M81.44,29.75c0.83,0.5,1.53,2.26,1.49,4.25c-0.18,9.5-0.18,18-1.3,34.75"/><path id="kvg:061ae-s11" kvg:type="&#12752;" d="M37.57,71.66c1.34,0.58,3.8,0.71,5.14,0.58c7.66-0.79,32.29-2.68,46.79-3.46c2.23-0.12,3.57,0.27,4.69,0.56"/></g><g id="kvg:061ae-g6" kvg:element="&#28780;" kvg:variant="true" kvg:original="&#28779;" kvg:position="bottom"><path id="kvg:061ae-s12" kvg:type="&#12756;" d="M43.11,81c0,5.61-5.96,13.9-7.52,15.5"/><path id="kvg:061ae-s13" kvg:type="&#12756;" d="M55,79.83c2.09,2.99,4.07,11.23,4.59,15.88"/><path id="kvg:061ae-s14" kvg:type="&#12756;" d="M70.37,78.83c2.51,2.71,6.47,11.16,7.1,15.38"/><path id="kvg:061ae-s15" kvg:type="&#12756;" d="M84.72,78.08c3.71,2.89,9.59,11.89,10.52,16.38"/></g></g></g></g></svg>