<svg xmlns="http://www.w3.org/2000/svg" width="109" height="109" viewBox="0 0 109 109"><g xmlns:kvg="http://kanjivg.tagaini.net" id="kvg:StrokePaths_061c3" style="fill:none;stroke:#000000;stroke-width:3;stroke-linecap:round;stroke-linejoin:round;"><g id="kvg:061c3" kvg:element="&#25027;"><g id="kvg:061c3-g1" kvg:position="top"><g id="kvg:061c3-g2" kvg:position="left"><g id="kvg:061c3-g3" kvg:element="&#21220;" kvg:variant="true"><g id="kvg:061c3-g4" kvg:element="&#24319;"><g id="kvg:061c3-g5" kvg:element="&#33401;" kvg:variant="true" kvg:original="&#33400;"><g id="kvg:061c3-g6" kvg:element="&#21313;"><path id="kvg:061c3-s1" kvg:type="&#12752;" d="M14.5,20.01c1.04,0.41,2.26,0.49,3.31,0.41c9.6-0.75,24.46-3.03,35.53-3.09c1.74-0.01,2.79,0.2,3.66,0.4"/><path id="kvg:061c3-s2" kvg:type="&#12753;" d="M25.38,13.22c0.66,0.39,1.67,1.24,1.76,1.83c0.9,5.49,1.67,12.37,1.92,14.37"/></g><path id="kvg:061c3-s3" kvg:type="&#12753;" d="M44.62,11.37c0.11,0.72,0.49,2.18,0.26,3.15c-1.12,4.73-0.87,7.23-1.59,12.31"/></g><path id="kvg:061c3-s4" kvg:type="&#12752;" d="M31.25,27.75c3.25,0,10.5-0.5,14.25-0.75"/></g></g><g id="kvg:061c3-g7" kvg:position="bottom"><path id="kvg:061c3-s5" kvg:type="&#12753;" d="M19.4,34.83c0.37,0.21,0.74,0.39,0.9,0.65c1.27,2.08,2.3,7.83,3.17,11.57"/><path id="kvg:061c3-s6" kvg:type="&#12757;" d="M21.67,35.9c8.93-0.87,22.08-2.4,28.4-3.32c1.67-0.24,2.7,1.09,2.46,1.72c-1,2.62-1.16,5.53-3.3,9.31"/><path id="kvg:061c3-s7" kvg:type="&#12752;" d="M23.82,45.67c5.41-0.33,21.72-1.75,28.59-2.09"/><path id="kvg:061c3-s8" kvg:type="&#12753;" d="M35.33,29.05c1.04,0.41,1.88,1.81,1.88,2.65c0,9.55,0.29,31.05,0.29,37.64"/><g id="kvg:061c3-g8" kvg:element="&#19977;"><g id="kvg:061c3-g9" kvg:element="&#19968;" kvg:position="top"><path id="kvg:061c3-s9" kvg:type="&#12752;" d="M20.98,53.79c0.58,0.11,2.34,0.14,2.93,0.11c5.33-0.21,16.99-1.72,25.03-2.31c0.96-0.07,2.64,0.05,3.12,0.11"/></g><g id="kvg:061c3-g10" kvg:position="bottom"><g id="kvg:061c3-g11" kvg:element="&#19968;"><path id="kvg:061c3-s10" kvg:type="&#12752;" d="M22.26,62.01c0.55,0.13,3.25,0.15,3.8,0.13c7.27-0.17,14.23-1.42,22.6-2.47c0.9-0.11,2.49,0.06,2.95,0.13"/></g><g id="kvg:061c3-g12" kvg:element="&#19968;"><path id="kvg:061c3-s11" kvg:type="&#12752;" d="M19.62,72.39c0.48,0.82,1.91,1.05,4.3,0.49c6.64-1.57,18.59-4.37,25.22-5.94"/></g></g></g></g></g><g id="kvg:061c3-g13" kvg:element="&#21147;" kvg:position="right"><path id="kvg:061c3-s12" kvg:type="&#12742;" d="M60.12,31c1.03,0.56,2.31,0.4,3.23,0.3c9.01-1,21.14-2.89,25.22-3.46c2.65-0.37,4.42,1.15,4.2,4.26c-0.5,6.84-5.7,27.75-10.02,33.05c-4.99,6.11-5.49,2.61-7.06-0.55"/><path id="kvg:061c3-s13" kvg:type="&#12754;" d="M77.17,13.09c0.58,1.16,0.5,2.39,0.39,4.27c-0.81,14.89-5.81,39.14-19.34,51.49"/></g></g><g id="kvg:061c3-g14" kvg:element="&#24515;" kvg:position="bottom" kvg:radical="general"><path id="kvg:061c3-s14" kvg:type="&#12756;" d="M25.82,81.13C26.14,83.42,22.59,93.5,20,97.3"/><path id="kvg:061c3-s15" kvg:type="&#12767;b" d="M36,78.32c6.51,10.6,15.5,20.18,41.93,19.93c12.12-0.12,12.91-2.83,2.8-7.65"/><path id="kvg:061c3-s16" kvg:type="&#12756;a" d="M56.83,76.82c2.17,5.25,5.32,10.5,7.63,2.46"/><path id="kvg:061c3-s17" kvg:type="&#12756;" d="M78.55,77.05c5.11,1.82,8.95,3.48,13.1,9.11"/></g></g></g></svg>