<svg xmlns="http://www.w3.org/2000/svg" width="109" height="109" viewBox="0 0 109 109"><g xmlns:kvg="http://kanjivg.tagaini.net" id="kvg:StrokePaths_061c6" style="fill:none;stroke:#000000;stroke-width:3;stroke-linecap:round;stroke-linejoin:round;"><g id="kvg:061c6" kvg:element="&#25030;"><g id="kvg:061c6-g1" kvg:element="&#24516;" kvg:variant="true" kvg:original="&#24515;" kvg:position="left" kvg:radical="general"><path id="kvg:061c6-s1" kvg:type="&#12756;" d="M16.22,34.5c0.03,4.31-2.21,14.14-4.19,17.5"/><path id="kvg:061c6-s2" kvg:type="&#12756;" d="M27.02,31.83c2.31,1.7,5.97,6.99,6.54,9.63"/><path id="kvg:061c6-s3" kvg:type="&#12753;" d="M21.87,13.75c1.09,0.5,1.74,2.25,1.96,3.25c0.22,1,0,73.75-0.22,80"/></g><g id="kvg:061c6-g2" kvg:position="right"><g id="kvg:061c6-g3" kvg:element="&#21697;" kvg:position="top"><g id="kvg:061c6-g4" kvg:element="&#21475;" kvg:position="top"><path id="kvg:061c6-s4" kvg:type="&#12753;" d="M46.67,14.29c0.44,0.29,0.9,0.52,1.09,0.88c1.53,2.82,2.19,10.3,3.24,15.35"/><path id="kvg:061c6-s5" kvg:type="&#12757;b" d="M48.96,16.18c9.04-1.47,21.07-3.32,26.25-3.69c1.89-0.14,3.03,1.07,2.76,1.87c-1.12,3.29-2.09,7.27-3.76,11.81"/><path id="kvg:061c6-s6" kvg:type="&#12752;b" d="M52.44,28.61c6.08-0.42,15.97-1.39,24.32-2.03"/></g><g id="kvg:061c6-g5" kvg:position="bottom"><g id="kvg:061c6-g6" kvg:element="&#21475;" kvg:position="left"><path id="kvg:061c6-s7" kvg:type="&#12753;" d="M40.21,38.06c0.31,0.3,0.62,0.54,0.76,0.92c1.07,2.94,1.63,10.48,2.36,15.76"/><path id="kvg:061c6-s8" kvg:type="&#12757;b" d="M42.13,39.43c7.78-1.08,12.97-2.08,16.57-2.47c1.32-0.14,2.11,0.84,1.92,1.67c-0.78,3.44-1.69,7.37-2.85,12.13"/><path id="kvg:061c6-s9" kvg:type="&#12752;b" d="M43.47,52.22c4.23-0.44,8.7-0.9,16.58-1.54"/></g><g id="kvg:061c6-g7" kvg:element="&#21475;" kvg:position="right"><path id="kvg:061c6-s10" kvg:type="&#12753;" d="M68.01,35.44c0.31,0.31,0.63,1.06,0.76,1.45c1.08,3.05,1.71,9.39,2.44,14.86"/><path id="kvg:061c6-s11" kvg:type="&#12757;b" d="M69.44,36.63c7.85-1.12,14.36-1.97,17.99-2.37c1.33-0.15,2.12,0.87,1.93,1.73c-0.79,3.56-1.7,7.01-2.87,11.93"/><path id="kvg:061c6-s12" kvg:type="&#12752;b" d="M71.19,49.54c5.93-0.39,8.35-0.66,17.61-1.18"/></g></g></g><g id="kvg:061c6-g8" kvg:element="&#26408;" kvg:position="bottom"><path id="kvg:061c6-s13" kvg:type="&#12752;" d="M37.06,65.94c1.67,0.33,3.57,0.43,5.49,0.33c9.79-0.54,31.76-2.81,46.56-3.45c1.91-0.08,3.1,0.06,5.01,0.29"/><path id="kvg:061c6-s14" kvg:type="&#12753;" d="M62.98,54.14c1.38,0.55,2.49,2.45,2.49,3.6c0,11.62,0,32.18-0.28,39.1"/><path id="kvg:061c6-s15" kvg:type="&#12754;" d="M63.23,64.68c-5.2,8.82-19.12,22.3-29.92,27.3"/><path id="kvg:061c6-s16" kvg:type="&#12751;" d="M65.32,65.01c4.58,5.19,19.31,19.05,26.51,22.72c1.61,0.82,2.67,1.55,4.11,1.86"/></g></g></g></g></svg>