<svg xmlns="http://www.w3.org/2000/svg" width="109" height="109" viewBox="0 0 109 109"><g xmlns:kvg="http://kanjivg.tagaini.net" id="kvg:StrokePaths_061f6" style="fill:none;stroke:#000000;stroke-width:3;stroke-linecap:round;stroke-linejoin:round;"><g id="kvg:061f6" kvg:element="&#25078;"><g id="kvg:061f6-g1" kvg:element="&#24516;" kvg:variant="true" kvg:original="&#24515;" kvg:position="left" kvg:radical="general"><path id="kvg:061f6-s1" kvg:type="&#12756;" d="M16.22,38.5c0.03,4.31-2.47,14.14-4.69,17.5"/><path id="kvg:061f6-s2" kvg:type="&#12756;" d="M27.52,33.33c1.96,1.88,5.05,7.71,5.54,10.63"/><path id="kvg:061f6-s3" kvg:type="&#12753;" d="M22.37,14.25c1.09,0.5,1.74,2.25,1.96,3.25c0.22,1,0,72.25-0.22,78.5"/></g><g id="kvg:061f6-g2" kvg:element="&#38972;" kvg:position="right"><g id="kvg:061f6-g3" kvg:element="&#26463;" kvg:position="left"><g id="kvg:061f6-g4" kvg:element="&#26408;" kvg:part="1"><path id="kvg:061f6-s4" kvg:type="&#12752;" d="M35.18,27.4c0.62,0.2,2.8,0.54,3.42,0.5c5.24-0.27,17.63-1.68,23.24-1.87c1.04-0.03,2.7,0.09,3.21,0.19"/></g><g id="kvg:061f6-g5" kvg:element="&#21475;"><path id="kvg:061f6-s5" kvg:type="&#12753;" d="M38.83,38.55c0.19,0.38,0.38,0.7,0.47,1.19c0.66,3.81,1.81,13.04,2.26,19.88"/><path id="kvg:061f6-s6" kvg:type="&#12757;b" d="M40.01,40.63c5.99-1.38,17.24-3.29,19.49-3.19c1.49,0.06,2.75,1.47,2.39,3.68c-0.98,5.92-2.22,10.53-2.99,15.05"/><path id="kvg:061f6-s7" kvg:type="&#12752;b" d="M41.64,57.87c6.81-0.95,14.32-1.03,19.44-1.75"/></g><g id="kvg:061f6-g6" kvg:element="&#26408;" kvg:part="2"><path id="kvg:061f6-s8" kvg:type="&#12753;" d="M48.89,13.5c0.97,0.48,1.55,2.18,1.74,3.15s0,73.84-0.19,79.89"/><path id="kvg:061f6-s9" kvg:type="&#12754;" d="M50.39,58.02c-3.41,9.42-12.28,22.75-19.38,28.08"/><path id="kvg:061f6-s10" kvg:type="&#12751;" d="M53.95,65.63c3.45,2.32,6.22,6.89,7.95,11.52"/></g></g><g id="kvg:061f6-g7" kvg:element="&#38913;" kvg:variant="true" kvg:position="right"><g id="kvg:061f6-g8" kvg:element="&#20992;"><path id="kvg:061f6-s11" kvg:type="&#12742;" d="M67.25,17.25C68.5,17.75,70,18,72,17.87c4.01-0.26,19.07-2.69,21.27-2.91c1.43-0.14,1.83,0.65,1.75,1.65c-0.21,2.65-3.81,13.48-6.03,15.28c-2.07,1.68-3.5,0.86-4.32-0.72"/><path id="kvg:061f6-s12" kvg:type="&#12754;" d="M79.98,20.18c0.03,0.33,0.17,0.91-0.06,1.35C77.5,26,75,29.5,68.89,34.4"/></g><g id="kvg:061f6-g9" kvg:element="&#35997;"><g id="kvg:061f6-g10" kvg:element="&#30446;" kvg:position="top"><path id="kvg:061f6-s13" kvg:type="&#12753;" d="M69.69,40.2c0.36,0.95,0.89,1.68,0.89,2.92c0,1.25-0.24,34.23-0.24,34.85c0,0.62,0.12,0.63,0.24,1.88"/><path id="kvg:061f6-s14" kvg:type="&#12757;a" d="M71.18,41.95c2.04-0.05,18.93-2.4,20.8-2.49c1.55-0.07,1.85,1.18,1.85,2.98c0,1.49-0.46,35.4-0.46,36.33"/><path id="kvg:061f6-s15" kvg:type="&#12752;a" d="M71.15,52.94c3.56-0.5,17.8-1.58,22.18-1.68"/><path id="kvg:061f6-s16" kvg:type="&#12752;a" d="M71.05,64.77c7.37-0.27,16.45-1.44,22.03-1.58"/><path id="kvg:061f6-s17" kvg:type="&#12752;a" d="M70.79,77.09c6.06-0.37,16.09-0.84,22.04-0.99"/></g><g id="kvg:061f6-g11" kvg:position="bottom"><path id="kvg:061f6-s18" kvg:type="&#12754;" d="M75.54,83.84c0.4,1.13,0.31,1.72-0.38,2.63c-2.25,2.97-8.23,7.43-14.41,10.46"/><path id="kvg:061f6-s19" kvg:type="&#12756;" d="M85.63,82.73c4.05,3.52,9.15,11.33,10.25,14.28"/></g></g></g></g></g></g></svg>