<svg xmlns="http://www.w3.org/2000/svg" width="109" height="109" viewBox="0 0 109 109"><g xmlns:kvg="http://kanjivg.tagaini.net" id="kvg:StrokePaths_06208" style="fill:none;stroke:#000000;stroke-width:3;stroke-linecap:round;stroke-linejoin:round;"><g id="kvg:06208" kvg:element="&#25096;" kvg:radical="general"><g id="kvg:06208-g1" kvg:element="&#24331;" kvg:part="1"><path id="kvg:06208-s1" kvg:type="&#12752;" d="M15.75,39.45c2.85,0.72,5.68,0.77,8.5,0.16c13.53-1.89,45.83-5.57,59.76-6.49c2.34-0.23,4.67-0.09,6.99,0.43"/><path id="kvg:06208-s2" kvg:type="&#12738;" d="M45.5,11.75c2,1.75,2.58,3.49,3,7.25C52,50.5,64.25,80.25,88.75,92c7.86,3.77,6.75,0.75,5.75-7"/></g><g id="kvg:06208-g2" kvg:element="&#20031;"><path id="kvg:06208-s3" kvg:type="&#12754;" d="M77.68,42.89c0.34,2,0.09,3.87-0.8,5.58c-5.16,9.94-22.48,29.14-46.82,40.74"/></g><g id="kvg:06208-g3" kvg:element="&#24331;" kvg:part="2"><g id="kvg:06208-g4" kvg:element="&#20022;"><path id="kvg:06208-s4" kvg:type="&#12756;" d="M67.25,12.5c3.18,2,8.27,6.57,9.75,10"/></g></g></g></g></svg>