<svg xmlns="http://www.w3.org/2000/svg" width="109" height="109" viewBox="0 0 109 109"><g xmlns:kvg="http://kanjivg.tagaini.net" id="kvg:StrokePaths_0620d" style="fill:none;stroke:#000000;stroke-width:3;stroke-linecap:round;stroke-linejoin:round;"><g id="kvg:0620d" kvg:element="&#25101;"><g id="kvg:0620d-g1" kvg:element="&#25100;" kvg:variant="true"><g id="kvg:0620d-g2" kvg:element="&#21378;" kvg:part="1"><path id="kvg:0620d-s1" kvg:type="&#12754;" d="M25.76,35.64c0.99,0.99,1.2,2.85,1.15,4.86c-0.41,18.75-5.41,45.75-16.1,54.47"/></g><g id="kvg:0620d-g3" kvg:element="&#25096;" kvg:part="1" kvg:radical="general"><g id="kvg:0620d-g4" kvg:element="&#24331;" kvg:part="1"><g id="kvg:0620d-g5" kvg:element="&#21378;" kvg:part="2"><path id="kvg:0620d-s2" kvg:type="&#12752;" d="M22.75,33.7c2.66,0.58,5.32,0.7,7.99,0.37c9.35-0.78,34.33-3.32,49.51-3.97c2.6-0.21,5.18-0.06,7.75,0.44"/></g></g></g><g id="kvg:0620d-g6" kvg:element="&#19968;" kvg:variant="true"><g id="kvg:0620d-g7" kvg:element="&#20022;"><path id="kvg:0620d-s3" kvg:type="&#12756;" d="M37.75,54.75c2.75,1.5,7.75,8,10.25,14"/></g></g><g id="kvg:0620d-g8" kvg:element="&#25096;" kvg:part="2" kvg:radical="general"><g id="kvg:0620d-g9" kvg:element="&#24331;" kvg:part="2"><path id="kvg:0620d-s4" kvg:type="&#12738;" d="M53.75,11c1.72,1.84,2.29,3.34,2.54,7.29C58.38,51.25,69.5,80.75,89.75,93c6.69,4.05,5.71,2.71,4.85-5.42"/></g><g id="kvg:0620d-g10" kvg:element="&#20031;"><path id="kvg:0620d-s5" kvg:type="&#12754;" d="M82.21,42.14c0.29,1.23,0.12,2.94-0.46,4.5c-3.62,9.73-15.5,31.23-35.19,44.58"/></g><g id="kvg:0620d-g11" kvg:element="&#24331;" kvg:part="3"><g id="kvg:0620d-g12" kvg:element="&#20022;"><path id="kvg:0620d-s6" kvg:type="&#12756;" d="M73.25,11.5c3.1,2,8.05,6.57,9.5,10"/></g></g></g></g></g></g></svg>