<svg xmlns="http://www.w3.org/2000/svg" width="109" height="109" viewBox="0 0 109 109"><g xmlns:kvg="http://kanjivg.tagaini.net" id="kvg:StrokePaths_06209" style="fill:none;stroke:#000000;stroke-width:3;stroke-linecap:round;stroke-linejoin:round;"><g id="kvg:06209" kvg:element="&#25097;"><g id="kvg:06209-g1" kvg:element="&#21378;" kvg:part="1" kvg:variant="true"><path id="kvg:06209-s1" kvg:type="&#12761;" d="M25.88,36.12c1.12,1.12,1.52,2.75,1.52,4.62c0,6.88,0.17,36.28,0.17,41.97c0,2.08-5.81,7.41,0.51,4.37C33.59,84.43,42.5,80,50,76.75"/></g><g id="kvg:06209-g2" kvg:element="&#25096;" kvg:radical="general"><g id="kvg:06209-g3" kvg:element="&#24331;" kvg:part="1"><g id="kvg:06209-g4" kvg:element="&#21378;" kvg:part="2" kvg:variant="true"><path id="kvg:06209-s2" kvg:type="&#12752;" d="M21.75,33.9c3.04,0.63,6.08,0.66,9.11,0.08C43,32.67,66.55,29.99,79,29.08c2.67-0.35,5.34-0.26,8,0.27"/></g><path id="kvg:06209-s3" kvg:type="&#12738;" d="M54,12c1.67,1.82,2,2.33,2.3,6.24c2.58,33.64,12.95,64.39,34.52,76.45c6.67,3.73,4.39,0.78,3.55-7.28"/></g><g id="kvg:06209-g5" kvg:element="&#20031;"><path id="kvg:06209-s4" kvg:type="&#12754;" d="M82.21,43.39c0.27,2,0.09,3.93-0.55,5.79c-3.24,10.22-17.01,31.3-35.6,43.79"/></g><g id="kvg:06209-g6" kvg:element="&#24331;" kvg:part="2"><g id="kvg:06209-g7" kvg:element="&#20022;"><path id="kvg:06209-s5" kvg:type="&#12756;" d="M71.5,11.25c3.59,1.55,9.33,5.09,11,7.75"/></g></g></g></g></g></svg>