<svg xmlns="http://www.w3.org/2000/svg" width="109" height="109" viewBox="0 0 109 109"><g xmlns:kvg="http://kanjivg.tagaini.net" id="kvg:StrokePaths_06211" style="fill:none;stroke:#000000;stroke-width:3;stroke-linecap:round;stroke-linejoin:round;"><g id="kvg:06211" kvg:element="&#25105;"><g id="kvg:06211-g1" kvg:element="&#20031;" kvg:radical="nelson"><path id="kvg:06211-s1" kvg:type="&#12754;" d="M45.99,16.14c0.06,0.38-0.2,1.85-0.62,2.27c-3.75,3.71-9.5,7.96-21.56,13.8"/></g><g id="kvg:06211-g2" kvg:element="&#25096;" kvg:part="1" kvg:radical="tradit"><g id="kvg:06211-g3" kvg:element="&#24331;" kvg:part="1"><path id="kvg:06211-s2" kvg:type="&#12752;" d="M15.75,44.95c2.88,0.68,5.82,0.43,8.52,0.1c9.61-1.17,43.59-6.49,60.24-7.8c3.07-0.24,5.97-0.35,9,0.3"/></g></g><g id="kvg:06211-g4" kvg:element="&#20101;"><path id="kvg:06211-s3" kvg:type="&#12762;" d="M39.02,27.33c0.83,0.83,1.51,2.04,1.51,4.27c0,14.56-0.01,52.4-0.01,58.37c0,11.78-5.71,1.75-7.21,0.5"/></g><path id="kvg:06211-s4" kvg:type="&#12736;" d="M15.62,74.5c1.38,0.88,3.03,0.67,4.69-0.35c1.62-1,21.43-13.52,29.93-19.15"/><g id="kvg:06211-g5" kvg:element="&#25096;" kvg:part="2" kvg:radical="tradit"><path id="kvg:06211-s5" kvg:type="&#12738;" d="M60,12.25c1.12,1.38,1.5,3.38,1.74,6.29c2.89,35.21,8.89,61.71,29.79,75.88c5.93,4.02,6.23,2.08,4.9-5.59"/><g id="kvg:06211-g6" kvg:element="&#20031;"><path id="kvg:06211-s6" kvg:type="&#12754;" d="M84.21,47.14c0.09,1,0.08,2.39-0.43,3.78c-3.28,8.82-13.86,27.11-31.47,38.54"/></g><g id="kvg:06211-g7" kvg:element="&#24331;" kvg:part="2"><g id="kvg:06211-g8" kvg:element="&#20022;"><path id="kvg:06211-s7" kvg:type="&#12756;" d="M80.88,16.62c3.22,1.82,8.37,6,9.88,9.12"/></g></g></g></g></g></svg>