<svg xmlns="http://www.w3.org/2000/svg" width="109" height="109" viewBox="0 0 109 109"><g xmlns:kvg="http://kanjivg.tagaini.net" id="kvg:StrokePaths_06214" style="fill:none;stroke:#000000;stroke-width:3;stroke-linecap:round;stroke-linejoin:round;"><g id="kvg:06214" kvg:element="&#25108;"><g id="kvg:06214-g1" kvg:element="&#25096;" kvg:position="top" kvg:radical="general"><g id="kvg:06214-g2" kvg:element="&#24331;" kvg:part="1"><path id="kvg:06214-s1" kvg:type="&#12752;" d="M19.79,26.46c2.23,0.45,4.47,0.61,6.71,0.37c12.75-1.33,40.74-3.95,53-4.76c2.02-0.2,4.03-0.08,6.04,0.37"/><path id="kvg:06214-s2" kvg:type="&#12738;" d="M42.38,10.25c1.7,0.87,2.4,2.63,2.84,4.47C49,30.38,58.81,44.76,79.67,50.57c6.69,1.87,6.58-0.32,4.89-6.46"/></g><g id="kvg:06214-g3" kvg:element="&#20031;"><path id="kvg:06214-s3" kvg:type="&#12754;" d="M68.3,26.45c-0.17,1.68-1.21,3.1-2.52,4.09C57.25,37.75,43.64,45.06,20.3,52.1"/></g><g id="kvg:06214-g4" kvg:element="&#24331;" kvg:part="2"><g id="kvg:06214-g5" kvg:element="&#20022;"><path id="kvg:06214-s4" kvg:type="&#12756;" d="M59.83,9.93c3.15,1.36,8.18,4.48,9.65,6.81"/></g></g></g><g id="kvg:06214-g6" kvg:element="&#25096;" kvg:position="bottom" kvg:radical="general"><g id="kvg:06214-g7" kvg:element="&#24331;" kvg:part="1"><path id="kvg:06214-s5" kvg:type="&#12752;" d="M21.29,67.46c2.56,0.57,5.1,0.51,7.68,0.19c12.9-1.65,38.9-4.6,51.4-5.49c2.4-0.29,4.79-0.2,7.17,0.29"/><path id="kvg:06214-s6" kvg:type="&#12738;" d="M46.38,50.75c1.74,1,2.55,3.24,3.01,5.25c4.11,18,14.44,34.95,36.97,41.68c7.36,2.2,6.32-0.81,5.38-5.33"/></g><g id="kvg:06214-g8" kvg:element="&#20031;"><path id="kvg:06214-s7" kvg:type="&#12754;" d="M76.27,68.95c-0.2,2.21-1.1,3.92-2.68,5.18c-8.84,7-27.33,17.12-54.04,23.73"/></g><g id="kvg:06214-g9" kvg:element="&#24331;" kvg:part="2"><g id="kvg:06214-g10" kvg:element="&#20022;"><path id="kvg:06214-s8" kvg:type="&#12756;" d="M59.83,49.93c3.15,1.36,8.18,4.48,9.65,6.81"/></g></g></g></g></g></svg>