<svg xmlns="http://www.w3.org/2000/svg" width="109" height="109" viewBox="0 0 109 109"><g xmlns:kvg="http://kanjivg.tagaini.net" id="kvg:StrokePaths_06220" style="fill:none;stroke:#000000;stroke-width:3;stroke-linecap:round;stroke-linejoin:round;"><g id="kvg:06220" kvg:element="&#25120;"><g id="kvg:06220-g1" kvg:element="&#38899;"><g id="kvg:06220-g2" kvg:element="&#31435;" kvg:position="top"><path id="kvg:06220-s1" kvg:type="&#12753;a" d="m29.367094,17.05221c1.187197,0.783808,2.224116,2.103385,2.224116,3.115391,0,3.333667-0.09017,5.317992-0.09017,8.602051"/><path id="kvg:06220-s2" kvg:type="&#12752;" d="m15.105705,30.198366c0.886641,0.07937,4.373092,0.446473,5.244705,0.416709,7.063069,-0.287728,17.206839,-1.656912,25.472133,-2.272053,1.457697,-0.109138,2.314282,-0.138903,3.050645,-0.11906"/><path id="kvg:06220-s3" kvg:type="&#12756;" d="m17.269709,38.51269c4.598509,3.581708,7.363626,8.086126,8.009822,10.596298"/><path id="kvg:06220-s4" kvg:type="&#12754;" d="m43.297871,32.926814c0.450834,0.992163,0.646196,2.361347,0.165306,3.472569-2.148976,5.079874-3.276062,7.19318-5.665483,12.898116"/><g id="kvg:06220-g3" kvg:element="&#25096;" kvg:part="1"><g id="kvg:06220-g4" kvg:element="&#24331;" kvg:part="1"><path id="kvg:06220-s5" kvg:type="&#12752;" d="m10.882892,52.273987c3.291089,0.188511,6.64229,0.42663,9.918352,0.08929,22.015737,-2.242288,44.046502,-4.256378,64.48432,-5.605719,3.065673,-0.208355,6.882736,-0.654828,9.768075,0.347256"/></g></g></g><g id="kvg:06220-g5" kvg:element="&#26085;" kvg:position="bottom"><path id="kvg:06220-s6" kvg:type="&#12753;" d="m17.555238,62.036869c1.09703,0.724279,1.592947,1.895031,1.592947,2.996331,0,2.172837,0.04508,14.426047,0.06011,20.974321,0,1.726363,0,3.055861,0,3.700767"/><path id="kvg:06220-s7" kvg:type="&#12757;a" d="m20.696049,63.50527c2.40445,-0.198433,15.328364,-1.656912,21.730209,-2.490329,4.087564,-0.535768,6.356763,0.317492,6.356763,2.549858,0,3.671003-0.01503,14.515342,0,20.468318,0,1.785893,0.01503,3.135234,0.01503,3.72061"/><path id="kvg:06220-s8" kvg:type="&#12752;a" d="m20.410521,74.766317c4.929121,-0.416708,22.286238,-1.805736,26.358774,-1.984326"/><path id="kvg:06220-s9" kvg:type="&#12752;a" d="m21.071745,86.682192c6.522068,-0.42663,18.49923,-1.468401,25.396994,-1.76605"/></g></g><g id="kvg:06220-g6" kvg:element="&#25096;" kvg:part="2"><g id="kvg:06220-g7" kvg:element="&#24331;" kvg:part="2"><path id="kvg:06220-s10" kvg:type="&#12738;" d="m59.708236,13.331599c1.78831,1.180674,2.479589,2.599467,2.614839,5.357679,1.532836,30.608221,10.369187,65.214858,31.603478,76.952143,6.522067,3.601551,5.425038,1.260047,4.628565,-6.617725"/></g><g id="kvg:06220-g8" kvg:element="&#20031;"><path id="kvg:06220-s11" kvg:type="&#12754;" d="m89.403183,55.895381c0.07514,0.734201-0.09017,2.152994-0.525973,3.184843-2.855283,6.587961-12.247663,19.734117-27.560998,29.02076"/></g><g id="kvg:06220-g9" kvg:element="&#24331;" kvg:part="3"><g id="kvg:06220-g10" kvg:element="&#20022;"><path id="kvg:06220-s12" kvg:type="&#12756;" d="m78.808579,22.648008c3.877174,2.103385,10.083659,6.925296,11.886996,10.536768"/></g></g></g></g></g></svg>