<svg xmlns="http://www.w3.org/2000/svg" width="109" height="109" viewBox="0 0 109 109"><g xmlns:kvg="http://kanjivg.tagaini.net" id="kvg:StrokePaths_06234" style="fill:none;stroke:#000000;stroke-width:3;stroke-linecap:round;stroke-linejoin:round;"><g id="kvg:06234" kvg:element="&#25140;"><g id="kvg:06234-g1" kvg:element="&#35009;"><g id="kvg:06234-g2" kvg:element="&#22303;" kvg:part="1"><g id="kvg:06234-g3" kvg:element="&#21313;" kvg:radical="nelson"><path id="kvg:06234-s1" kvg:type="&#12752;" d="M21.13,23.43c1.16,0.25,3.27,0.3,4.43,0.25c8.08-0.35,18.68-2.61,26.27-3.15c1.91-0.14,3.08,0.12,4.05,0.24"/><path id="kvg:06234-s2" kvg:type="&#12753;" d="M37.42,10.12c0.12,0.29,1.77,1.52,1.77,3.39c0,12,0.14,4,0.14,19.86"/></g><g id="kvg:06234-g4" kvg:element="&#25096;" kvg:part="1" kvg:radical="tradit"><g id="kvg:06234-g5" kvg:element="&#24331;" kvg:part="1"><path id="kvg:06234-s3" kvg:type="&#12752;" d="M14.88,35.23c1.52,0.54,4.31,0.72,5.82,0.54c17.05-2.02,51.3-5.52,68.11-6.23c2.53-0.11,4.05,0.26,5.31,0.53"/></g></g></g><g id="kvg:06234-g6" kvg:element="&#30064;"><g id="kvg:06234-g7" kvg:element="&#30000;" kvg:position="top"><path id="kvg:06234-s4" kvg:type="&#12753;" d="M21.95,44.29c0.22,0.34,0.23,0.56,0.35,0.98c1,3.43,2.51,11.97,3.1,18.28"/><path id="kvg:06234-s5" kvg:type="&#12757;a" d="M23.32,45.44c8.68-1.19,24.75-3.89,30.68-4.22c2.18-0.12,2.56,1.83,2.44,2.75c-0.68,5.28-1.21,9.9-3.15,15.73"/><path id="kvg:06234-s6" kvg:type="&#12753;a" d="M38.3,43.85c0.35,0.45,0.89,1.25,0.89,2.37c0,4.47-0.16,8.31-0.16,13.28"/><path id="kvg:06234-s7" kvg:type="&#12752;a" d="M24.73,53.41c2.58-0.17,27.78-3.62,29.92-3.62"/><path id="kvg:06234-s8" kvg:type="&#12752;a" d="M25.51,62.01c7.09-0.87,22.17-2.51,27.65-2.81"/></g><g id="kvg:06234-g8" kvg:element="&#20849;" kvg:position="bottom"><g id="kvg:06234-g9" kvg:position="top"><path id="kvg:06234-s9" kvg:type="&#12752;" d="M22.53,74.16c0.62,0.18,1.75,0.26,2.36,0.18c2.49-0.34,24.84-3.8,30.7-3.8c1.03,0,1.64,0.08,2.16,0.17"/><path id="kvg:06234-s10" kvg:type="&#12753;a" d="M31.17,66.43c0.43,0.18,0.75,0.79,0.78,1.15c0.3,4.67,1.66,8.55,1.65,13.06"/><path id="kvg:06234-s11" kvg:type="&#12753;a" d="M46.17,63.66c0.66,0.24,1.21,2.07,1.18,2.56c-0.35,6.58-0.56,8-1.11,13.58"/><path id="kvg:06234-s12" kvg:type="&#12752;" d="M16.23,84.47c0.92,0.26,2.6,0.33,3.52,0.26c6-0.47,30.39-4.23,38.06-4.46c1.53-0.05,2.45,0.12,3.21,0.25"/></g><g id="kvg:06234-g10" kvg:element="&#20843;" kvg:position="bottom"><path id="kvg:06234-s13" kvg:type="&#12754;" d="M32.87,88.92c0.03,0.27,0.07,0.7-0.07,1.09c-0.79,2.31-6.01,6.76-11.58,10.47"/><path id="kvg:06234-s14" kvg:type="&#12756;" d="M44.29,87c3.95,1.89,10.21,7.78,11.2,10.72"/></g></g></g><g id="kvg:06234-g11" kvg:element="&#25096;" kvg:part="2" kvg:radical="tradit"><g id="kvg:06234-g12" kvg:element="&#24331;" kvg:part="2"><path id="kvg:06234-s15" kvg:type="&#12738;" d="M63.25,8.5c1.27,1.93,2.11,2.47,2.47,6.61C68.5,47,76.5,80,91.35,96.58c4.37,4.88,4.28,0.83,3.65-7.71"/></g><g id="kvg:06234-g13" kvg:element="&#20031;"><path id="kvg:06234-s16" kvg:type="&#12754;" d="M86.23,43.89c0.08,1.14,0.26,2.97-0.16,4.59C83.42,58.88,75.75,80,59.81,92.97"/></g><g id="kvg:06234-g14" kvg:element="&#24331;" kvg:part="3"><g id="kvg:06234-g15" kvg:element="&#20022;"><path id="kvg:06234-s17" kvg:type="&#12756;" d="M77.25,12.25c3.18,1.85,8.27,6.08,9.75,9.25"/></g></g></g></g></g></g></svg>