<svg xmlns="http://www.w3.org/2000/svg" width="109" height="109" viewBox="0 0 109 109"><g xmlns:kvg="http://kanjivg.tagaini.net" id="kvg:StrokePaths_06255" style="fill:none;stroke:#000000;stroke-width:3;stroke-linecap:round;stroke-linejoin:round;"><g id="kvg:06255" kvg:element="&#25173;"><g id="kvg:06255-g1" kvg:element="&#25164;" kvg:variant="true" kvg:original="&#25163;" kvg:position="left" kvg:radical="general"><path id="kvg:06255-s1" kvg:type="&#12752;" d="M14.5,38.17c1.88,0.58,3.51,0.74,5.75,0.5c5.12-0.54,14.96-2.42,23.76-4.08c1.54-0.29,2.74-0.33,4.41-0.33"/><path id="kvg:06255-s2" kvg:type="&#12762;" d="M34.02,15.25c1.24,1.24,1.51,2.75,1.51,4.77c0,15.23-0.01,54.46-0.01,65.9c0,14.25-6.32,3.53-7.77,2"/><path id="kvg:06255-s3" kvg:type="&#12736;" d="M14,73.18c1.5,0.7,2.62,0.45,4.25-0.68c4.95-3.43,14.5-10.67,27.5-20.5"/></g><g id="kvg:06255-g2" kvg:element="&#21430;" kvg:position="right" kvg:phon="&#21430;"><path id="kvg:06255-s4" kvg:type="&#12764;" d="M73.21,26c0.55,1.17,0.41,2.53-0.09,3.99c-5.49,16.14-13.49,36.26-20.73,51.78c-2.04,4.38-1.57,4.72,2.59,3.46c9.77-2.98,21.02-6.1,35.27-10.6"/><path id="kvg:06255-s5" kvg:type="&#12756;" d="M83.2,60.03c4.67,4.93,12.06,20.27,13.23,27.94"/></g></g></g></svg>