<svg xmlns="http://www.w3.org/2000/svg" width="109" height="109" viewBox="0 0 109 109"><g xmlns:kvg="http://kanjivg.tagaini.net" id="kvg:StrokePaths_06276" style="fill:none;stroke:#000000;stroke-width:3;stroke-linecap:round;stroke-linejoin:round;"><g id="kvg:06276" kvg:element="&#25206;"><g id="kvg:06276-g1" kvg:element="&#25164;" kvg:variant="true" kvg:original="&#25163;" kvg:position="left" kvg:radical="general"><path id="kvg:06276-s1" kvg:type="&#12752;" d="M12.25,37.92c2.04,0.25,3.94,0.46,6.03,0.1c4.85-0.84,12.72-2.52,19.23-3.98c1.21-0.27,2.49-0.54,3.91-0.29"/><path id="kvg:06276-s2" kvg:type="&#12762;" d="M29.02,15.25c1.12,1.12,1.51,2.75,1.51,4.77c0,15.23-0.01,53.96-0.01,65.4c0,14.25-6.07,3.53-7.52,2"/><path id="kvg:06276-s3" kvg:type="&#12736;" d="M11.25,65.93c1.38,0.82,2.5,0.82,4.5-0.43c5.11-3.19,9.62-6.25,22-14.33"/></g><g id="kvg:06276-g2" kvg:element="&#22827;" kvg:position="right" kvg:phon="&#22827;"><path id="kvg:06276-s4" kvg:type="&#12752;" d="M47.39,39.22c2,0.57,4.11,0.21,6.1-0.12c6.67-1.09,18.45-3.61,25-4.13c1.62-0.13,3.25-0.22,4.91,0.09"/><g id="kvg:06276-g3" kvg:element="&#22823;"><path id="kvg:06276-s5" kvg:type="&#12752;" d="M42.65,58.23c2.7,0.69,5.42,0.41,8.1-0.09c10.25-1.89,26.63-3.93,35.37-4.81c2.06-0.21,4.75-0.36,6.75,0.33"/><path id="kvg:06276-s6" kvg:type="&#12754;" d="M63.35,15.5c1.08,1.08,1.05,2.62,1.08,4.44C65.12,61,58.5,80.5,41,94"/><path id="kvg:06276-s7" kvg:type="&#12751;" d="M64.18,56.87c6.88,9.09,15.07,20.88,22.93,29.65c1.9,2.11,4.22,4.25,6.64,5.76"/></g></g></g></g></svg>