<svg xmlns="http://www.w3.org/2000/svg" width="109" height="109" viewBox="0 0 109 109"><g xmlns:kvg="http://kanjivg.tagaini.net" id="kvg:StrokePaths_06289" style="fill:none;stroke:#000000;stroke-width:3;stroke-linecap:round;stroke-linejoin:round;"><g id="kvg:06289" kvg:element="&#25225;"><g id="kvg:06289-g1" kvg:element="&#25164;" kvg:variant="true" kvg:original="&#25163;" kvg:position="left" kvg:radical="general"><path id="kvg:06289-s1" kvg:type="&#12752;" d="M12.5,38.75C14.58,39,13.75,39,16,39c4.26,0,16-2,25.17-3.17"/><path id="kvg:06289-s2" kvg:type="&#12762;" d="M28.77,15.33c0.48,0.92,1.67,2.49,1.76,5.52c0.4,14.55-0.26,60.16-0.26,65.12c0,14.78-6.21,3-7.71,1.75"/><path id="kvg:06289-s3" kvg:type="&#12736;" d="M10.5,64.9c2.29,1.51,3.76,0.82,6.05-0.47c1.35-0.76,19.22-12.03,24.95-15.68"/></g><g id="kvg:06289-g2" kvg:element="&#22828;" kvg:position="right"><path id="kvg:06289-s4" kvg:type="&#12757;c" d="M47.63,34.61c1.2,0.58,2.59,1.16,4.39,0.96c1.79-0.19,25.27-3.57,27.67-3.68c3.06-0.14,3.8,1.75,3.17,5.06C82,41.5,81.25,48.5,80.33,54.75"/><g id="kvg:06289-g3" kvg:element="&#22823;"><path id="kvg:06289-s5" kvg:type="&#12752;" d="M39.62,58.03c0.85,0.42,3.01,0.66,3.94,0.59c14.18-1.12,34.16-4.04,48.36-4.44c1.17-0.03,2.84,0.16,5.46,0.89"/><g id="kvg:06289-g4" kvg:element="&#20154;"><path id="kvg:06289-s6" kvg:type="&#12754;" d="M62.59,11.75c0.55,1,1.58,2.08,1.58,4.17c0,8.89-0.29,19.12-0.19,25.84c0.41,27.02-10.67,46.49-26,55.49"/><path id="kvg:06289-s7" kvg:type="&#12751;" d="M63.55,56.96c6.77,9.16,20.55,28.66,27.31,34.79c2.3,2.09,3.1,2.4,4.15,2.59"/></g></g></g></g></g></svg>