<svg xmlns="http://www.w3.org/2000/svg" width="109" height="109" viewBox="0 0 109 109"><g xmlns:kvg="http://kanjivg.tagaini.net" id="kvg:StrokePaths_06293" style="fill:none;stroke:#000000;stroke-width:3;stroke-linecap:round;stroke-linejoin:round;"><g id="kvg:06293" kvg:element="&#25235;"><g id="kvg:06293-g1" kvg:element="&#25164;" kvg:variant="true" kvg:original="&#25163;" kvg:position="left" kvg:radical="general"><path id="kvg:06293-s1" kvg:type="&#12752;" d="M11,36.7c2.23,0.23,1.36,0.52,3.75,0.23c5.89-0.7,16.6-2.34,26.42-3.44"/><path id="kvg:06293-s2" kvg:type="&#12762;" d="M27.27,13c0.48,0.92,1.67,2.49,1.76,5.52c0.4,14.55,0.24,62.94,0.24,67.9c0,14.25-6.32,3.53-7.77,2"/><path id="kvg:06293-s3" kvg:type="&#12736;" d="M10.5,63.66c2.36,1.35,3.87,0.74,6.23-0.43c1.39-0.69,18.88-10.27,24.77-13.56"/></g><g id="kvg:06293-g2" kvg:element="&#29226;" kvg:position="right"><g id="kvg:06293-g3" kvg:element="&#20031;"><path id="kvg:06293-s4" kvg:type="&#12754;" d="M81.12,13.5c0.08,0.36-0.12,1.5-0.57,1.9C74.92,20.42,64.58,26,49.89,30.04"/></g><path id="kvg:06293-s5" kvg:type="&#12754;" d="M47.38,29.25c0.33,0.77,0.98,2.12,0.93,4.31C47.85,54.93,48.25,83,36.81,94.97"/><path id="kvg:06293-s6" kvg:type="&#12753;" d="M61.18,30.25c1.06,0.62,1.91,2.76,1.91,4.03c0,6.47-0.21,50.97-0.21,61.47"/><path id="kvg:06293-s7" kvg:type="&#12751;" d="M71.31,30.75c0.24,0,0.93,0.59,1.27,1.68C77.75,49,83.25,68.75,93.02,85.99c1.4,2.47,3.15,3.76,4.23,4.51"/></g></g></g></svg>