<svg xmlns="http://www.w3.org/2000/svg" width="109" height="109" viewBox="0 0 109 109"><g xmlns:kvg="http://kanjivg.tagaini.net" id="kvg:StrokePaths_06292" style="fill:none;stroke:#000000;stroke-width:3;stroke-linecap:round;stroke-linejoin:round;"><g id="kvg:06292" kvg:element="&#25234;"><g id="kvg:06292-g1" kvg:element="&#25164;" kvg:variant="true" kvg:original="&#25163;" kvg:position="left" kvg:radical="general"><path id="kvg:06292-s1" kvg:type="&#12752;" d="M12,35.86c2.34,0.28,1.43,0.62,3.94,0.28c6.18-0.84,17.43-2.81,27.73-4.12"/><path id="kvg:06292-s2" kvg:type="&#12762;" d="M28.77,12c0.48,0.92,1.67,2.49,1.76,5.52c0.4,14.55,0.24,62.94,0.24,67.9c0,14.25-6.32,3.53-7.77,2"/><path id="kvg:06292-s3" kvg:type="&#12736;" d="M13,63.74c2.04,1.22,3.34,1.16,5.38,0.12c1.2-0.61,19.53-11.23,24.62-14.19"/></g><g id="kvg:06292-g2" kvg:element="&#20104;" kvg:position="right"><g id="kvg:06292-g3" kvg:element="&#12510;" kvg:position="top"><path id="kvg:06292-s4" kvg:type="&#12743;" d="M48.51,17.59c1.74,0.91,3.59,0.68,4.83,0.42c2.46-0.52,27.5-4.24,30.1-4.76c2.6-0.52,3.49,2.21,1.94,3.92c-2.66,2.94-14.29,13.29-15.93,15.39"/><path id="kvg:06292-s5" kvg:type="&#12756;" d="M58.5,28c3.76,1.37,13.48,6.66,15.25,10.25"/></g><g id="kvg:06292-g4" kvg:element="&#20102;" kvg:position="bottom"><path id="kvg:06292-s6" kvg:type="&#12743;" d="M46.67,43.88c0.83,0.62,2.43,1.3,5.83,0.62c3.41-0.68,27.83-5.45,30.5-6.25c11.75-3.5,10,3.25-1.25,11.5"/><g id="kvg:06292-g5" kvg:element="&#20101;"><path id="kvg:06292-s7" kvg:type="&#12762;" d="M68.26,46.75c1.62,1.02,2.82,2.38,2.82,4.41c0,2.04,0.21,35.86,0.19,39.59c-0.03,8.25-4.28,5-8.5,0.98"/></g></g></g></g></g></svg>