<svg xmlns="http://www.w3.org/2000/svg" width="109" height="109" viewBox="0 0 109 109"><g xmlns:kvg="http://kanjivg.tagaini.net" id="kvg:StrokePaths_06298" style="fill:none;stroke:#000000;stroke-width:3;stroke-linecap:round;stroke-linejoin:round;"><g id="kvg:06298" kvg:element="&#25240;"><g id="kvg:06298-g1" kvg:element="&#25164;" kvg:variant="true" kvg:original="&#25163;" kvg:position="left" kvg:radical="general"><path id="kvg:06298-s1" kvg:type="&#12752;" d="M13.5,37c1.9,0.23,3.73,0.42,5.64,0.1c5.11-0.85,13.37-2.65,20.74-4.22c1.31-0.28,2.62-0.51,3.79-0.55"/><path id="kvg:06298-s2" kvg:type="&#12762;" d="M32.27,11.58c1.2,1.2,1.76,2.79,1.76,4.77c0,14.56-0.26,66.16-0.26,71.12c0,12.78-6.22,3.24-8.21,1.25"/><path id="kvg:06298-s3" kvg:type="&#12736;" d="M12.6,63.29c1.1,0.6,2.1,0.76,3.9-0.04c1.75-0.78,18.28-9.76,25.5-14"/></g><g id="kvg:06298-g2" kvg:element="&#26020;" kvg:position="right"><path id="kvg:06298-s4" kvg:type="&#12754;" d="M76.54,13.75c0.05,0.45,0,1.34-0.35,1.82C72,21.38,65.5,27.88,57.12,33"/><path id="kvg:06298-s5" kvg:type="&#12754;" d="M54.49,34.88c0.88,0.88,1.11,2.16,1.16,4.06c0.73,28.93-4.52,43.18-14.9,52.31"/><path id="kvg:06298-s6" kvg:type="&#12752;" d="M57.99,46.59c1.64,0.03,2.7-0.01,3.97-0.17C69.38,45.5,85.5,43,92.77,41.64c1.25-0.24,3.23-0.39,4.52,0"/><path id="kvg:06298-s7" kvg:type="&#12753;" d="M76.33,47.48c0.91,0.91,1.6,2.4,1.6,4c0,1.05,0.03,27.44,0.04,40.9c0,2.48,0,4.51,0,5.88"/></g></g></g></svg>