<svg xmlns="http://www.w3.org/2000/svg" width="109" height="109" viewBox="0 0 109 109"><g xmlns:kvg="http://kanjivg.tagaini.net" id="kvg:StrokePaths_06294" style="fill:none;stroke:#000000;stroke-width:3;stroke-linecap:round;stroke-linejoin:round;"><g id="kvg:06294" kvg:element="&#25236;"><g id="kvg:06294-g1" kvg:element="&#25164;" kvg:variant="true" kvg:original="&#25163;" kvg:position="left" kvg:radical="general"><path id="kvg:06294-s1" kvg:type="&#12752;" d="M12,37.39c2.32,0.27,1.42,0.59,3.9,0.27c6.13-0.8,17.29-2.66,27.51-3.9"/><path id="kvg:06294-s2" kvg:type="&#12762;" d="M29.27,13.5c0.48,0.92,1.67,2.49,1.76,5.52c0.4,14.55,0.24,62.94,0.24,67.9c0,14.25-6.82,4.53-8.27,3"/><path id="kvg:06294-s3" kvg:type="&#12736;" d="M11,65.16c2.49,1.35,4.09,0.74,6.58-0.43c1.47-0.69,20.44-10.77,26.67-14.06"/></g><g id="kvg:06294-g2" kvg:element="&#19981;" kvg:position="right"><g id="kvg:06294-g3" kvg:element="&#19968;"><path id="kvg:06294-s4" kvg:type="&#12752;" d="M45.47,20.61c1.25,0.6,3.53,0.74,4.79,0.6c11.95-1.42,28.31-2.33,42.03-3.42c2.08-0.16,3.33,0.28,4.37,0.58"/></g><g id="kvg:06294-g4" kvg:element="&#20031;"><path id="kvg:06294-s5" kvg:type="&#12754;" d="M72.06,22.91c0.08,0.95,0.41,2.53-0.17,3.81C68,35.25,56.75,52,41.87,63.17"/></g><g id="kvg:06294-g5" kvg:element="&#20008;"><path id="kvg:06294-s6" kvg:type="&#12753;" d="M67.75,41.5c2,1.25,2.64,3,2.64,5.12c0,4.63-0.16,33.38-0.16,49.88"/></g><path id="kvg:06294-s7" kvg:type="&#12756;" d="M79.39,42.75c5.73,3.21,14.8,13.2,16.24,18.2"/></g></g></g></svg>