<svg xmlns="http://www.w3.org/2000/svg" width="109" height="109" viewBox="0 0 109 109"><g xmlns:kvg="http://kanjivg.tagaini.net" id="kvg:StrokePaths_062b1" style="fill:none;stroke:#000000;stroke-width:3;stroke-linecap:round;stroke-linejoin:round;"><g id="kvg:062b1" kvg:element="&#25265;"><g id="kvg:062b1-g1" kvg:element="&#25164;" kvg:variant="true" kvg:original="&#25163;" kvg:position="left" kvg:radical="general"><path id="kvg:062b1-s1" kvg:type="&#12752;" d="M13.75,35.89c2.12,0.24,4.1,0.5,6.26,0.17c5.51-0.84,13.52-2.58,21.39-3.62c1.18-0.16,2.48-0.44,3.77-0.18"/><path id="kvg:062b1-s2" kvg:type="&#12762;" d="M32.02,12.75c1.12,1.12,1.51,2.75,1.51,4.77c0,15.23-0.01,60.21-0.01,71.65c0,12.71-5.57,4.03-7.02,2.5"/><path id="kvg:062b1-s3" kvg:type="&#12736;" d="M14.5,68.18c1.38,1.07,2.62,0.82,4.5-0.43c5.01-3.34,9-6.25,20.25-14.33"/></g><g id="kvg:062b1-g2" kvg:element="&#21253;" kvg:position="right" kvg:phon="&#21253;"><g id="kvg:062b1-g3" kvg:element="&#21241;"><g id="kvg:062b1-g4" kvg:element="&#20031;"><path id="kvg:062b1-s4" kvg:type="&#12754;" d="M60.36,13.25c0.05,0.74,0.25,1.96-0.09,2.96c-2.2,6.52-7.69,18.01-15.91,27.52"/></g><path id="kvg:062b1-s5" kvg:type="&#12742;" d="M55.99,32.93c2.38,0.69,4.41,0.54,6.29,0.21c5.69-0.99,19.38-3.24,24.85-3.98c3.5-0.47,5.78,0.57,5.58,4.46c-0.33,6.52-1.47,17.71-4.88,28.9c-1.67,5.47-3.23,7.16-7.43,2.52"/></g><g id="kvg:062b1-g5" kvg:element="&#24049;"><path id="kvg:062b1-s6" kvg:type="&#12757;c" d="M50.03,48.49c2.02,0.64,3.68,0.5,5.73,0.11c3.68-0.69,9.83-2.08,13.25-2.75c2.48-0.49,4.86,0.52,4.26,3.35c-0.15,0.73-2.53,9.43-3.62,13.78"/><path id="kvg:062b1-s7" kvg:type="&#12752;" d="M49.49,65.35c1.04,0.21,2.52,0.24,4.26,0.16c3.9-0.18,9.6-1.16,13.97-1.72c2.2-0.28,4.19-0.27,5.7-0.37"/><path id="kvg:062b1-s8" kvg:type="&#12767;" d="M50.77,66.02c0.91,0.91,1.27,2.14,1.26,3.84C52,75.29,52,79.63,52,84.38c0,10.3,1.38,11.81,23.24,11.81c17.28,0,19.4-3.07,19.4-12.89"/></g></g></g></g></svg>