<svg xmlns="http://www.w3.org/2000/svg" width="109" height="109" viewBox="0 0 109 109"><g xmlns:kvg="http://kanjivg.tagaini.net" id="kvg:StrokePaths_062b5" style="fill:none;stroke:#000000;stroke-width:3;stroke-linecap:round;stroke-linejoin:round;"><g id="kvg:062b5" kvg:element="&#25269;"><g id="kvg:062b5-g1" kvg:element="&#25164;" kvg:variant="true" kvg:original="&#25163;" kvg:position="left" kvg:radical="general"><path id="kvg:062b5-s1" kvg:type="&#12752;" d="M12,39.67c2.05,0.25,3.36,0.29,5.5-0.04c4.87-0.75,11.62-2.03,19.48-3.69c1.04-0.22,2.27-0.43,3.43-0.43"/><path id="kvg:062b5-s2" kvg:type="&#12762;" d="M28.02,14.5c1.12,1.12,1.51,2.75,1.51,5.02c0,15.23-0.01,54.21-0.01,65.65c0,14.25-3.52,6.58-6.27,3"/><path id="kvg:062b5-s3" kvg:type="&#12736;" d="M11.25,70.68c1.35,1.35,2.25,0.95,4-0.43c5.59-4.39,8.25-6.5,22-17.83"/></g><g id="kvg:062b5-g2" kvg:element="&#27664;" kvg:position="right" kvg:phon="&#27664;"><g id="kvg:062b5-g3" kvg:element="&#27663;" kvg:position="top"><path id="kvg:062b5-s4" kvg:type="&#12754;" d="M70.5,15.11c0,0.89-0.25,1.51-0.97,2.12c-3.4,2.89-7.23,6.32-18.93,12.31"/><path id="kvg:062b5-s5" kvg:type="&#12761;" d="M46.91,29.95c1.2,1.2,1.57,2.57,1.57,4.54c0,1.97-0.1,34.57-0.1,37.64c0,3.07,0.46,3.45,2.9,1.5c2.98-2.38,10.35-8.63,13.11-10.86"/><path id="kvg:062b5-s6" kvg:type="&#12752;" d="M50.53,46.57c1.22-0.07,2.33-0.43,2.97-0.54c11.52-2.12,20.26-3.5,30.38-5.54c2-0.4,4.49-1.15,6.53-0.75"/><path id="kvg:062b5-s7" kvg:type="&#12738;" d="M65.65,28.57c0.95,0.95,1.72,2.3,1.84,3.93c1.38,18.76,10.02,46.02,26.91,57.6c6.24,4.28,4.11-3.07,4.11-5.7"/></g><g id="kvg:062b5-g4" kvg:element="&#19968;" kvg:position="bottom"><path id="kvg:062b5-s8" kvg:type="&#12752;" d="M41.5,90.14c1.84,0.75,3.98,0.34,5.88,0.12c6.37-0.73,18.12-2.37,24.75-2.6c1.87-0.06,3.79-0.1,5.62,0.35"/></g></g></g></g></svg>