<svg xmlns="http://www.w3.org/2000/svg" width="109" height="109" viewBox="0 0 109 109"><g xmlns:kvg="http://kanjivg.tagaini.net" id="kvg:StrokePaths_062c8" style="fill:none;stroke:#000000;stroke-width:3;stroke-linecap:round;stroke-linejoin:round;"><g id="kvg:062c8" kvg:element="&#25288;"><g id="kvg:062c8-g1" kvg:element="&#25164;" kvg:variant="true" kvg:original="&#25163;" kvg:position="left" kvg:radical="general"><path id="kvg:062c8-s1" kvg:type="&#12752;" d="M12.5,38.51c2.27,0.2,1.38,0.45,3.81,0.2c5.99-0.61,16.88-2.03,26.86-2.98"/><path id="kvg:062c8-s2" kvg:type="&#12762;" d="M28.64,13.5c0.52,0.95,1.78,2.57,1.87,5.71c0.43,15.05,0.26,65.08,0.26,70.21c0,14.74-6.73,3.65-8.26,2.07"/><path id="kvg:062c8-s3" kvg:type="&#12736;" d="M11.5,66.1c2.62,1.46,4.31,0.79,6.94-0.46c1.55-0.74,19.5-10.68,26.06-14.22"/></g><g id="kvg:062c8-g2" kvg:element="&#21344;" kvg:position="right"><g id="kvg:062c8-g3" kvg:element="&#21340;" kvg:variant="true" kvg:original="&#12488;" kvg:position="top"><path id="kvg:062c8-s4" kvg:type="&#12753;a" d="M65.31,13.63c0.76,0.45,2.36,3.35,2.51,4.25c0.15,0.9-0.25,37.12-0.25,50.25"/><path id="kvg:062c8-s5" kvg:type="&#12752;b" d="M68.25,40.39c9.82-1.01,19.73-3.04,21.09-3.04c1.36,0,3.82,0,4.91,0.34"/></g><g id="kvg:062c8-g4" kvg:element="&#21475;" kvg:position="bottom"><path id="kvg:062c8-s6" kvg:type="&#12753;" d="M48.91,68.05c0.41,0.51,0.82,0.94,1,1.59c1.41,5.09,2.59,19.13,3.55,28.27"/><path id="kvg:062c8-s7" kvg:type="&#12757;b" d="M50.71,69.89c12.54-1.14,34.14-2.94,39.25-3.66c1.87-0.26,2.99,2.65,2.73,4.2c-1.11,6.41-2.49,13.51-4.02,21.64"/><path id="kvg:062c8-s8" kvg:type="&#12752;b" d="M53.86,94.48c7.64-0.46,27.64-1.36,37.68-1.68"/></g></g></g></g></svg>