<svg xmlns="http://www.w3.org/2000/svg" width="109" height="109" viewBox="0 0 109 109"><g xmlns:kvg="http://kanjivg.tagaini.net" id="kvg:StrokePaths_062db" style="fill:none;stroke:#000000;stroke-width:3;stroke-linecap:round;stroke-linejoin:round;"><g id="kvg:062db" kvg:element="&#25307;"><g id="kvg:062db-g1" kvg:element="&#25164;" kvg:variant="true" kvg:original="&#25163;" kvg:position="left" kvg:radical="general"><path id="kvg:062db-s1" kvg:type="&#12752;" d="M13.75,37.17c2.08,0.25,4,0.44,6.13,0.13c5.36-0.77,14.23-1.76,21.34-2.97c1.15-0.2,2.4-0.2,3.45-0.07"/><path id="kvg:062db-s2" kvg:type="&#12762;" d="M30.77,12.5c0.87,0.87,1.76,3,1.76,5.02c0,15.23-0.01,56.96-0.01,68.4c0,14.25-5.91,4.6-7.77,2.75"/><path id="kvg:062db-s3" kvg:type="&#12736;" d="M12.47,68.06c1.39,0.76,2.43,0.85,4.53-0.56c5-3.36,14-9.5,25.25-17.58"/></g><g id="kvg:062db-g2" kvg:element="&#21484;" kvg:position="right" kvg:phon="&#21484;"><g id="kvg:062db-g3" kvg:element="&#20992;" kvg:position="top"><path id="kvg:062db-s4" kvg:type="&#12742;" d="M51.78,23.17c2.12,0.47,4.1,0.57,6.23,0.25c9.94-1.49,26.42-5.55,31.39-5.95c3.46-0.28,5.21,1.28,4.64,5.28c-0.92,6.38-3.54,17.19-8.7,25.49C81.75,54,79,49,76.76,46.28"/><path id="kvg:062db-s5" kvg:type="&#12754;" d="M68.51,24.39c0.06,0.78,0.05,2.3-0.37,3.38C63.5,39.5,58.5,48.75,47.17,58.35"/></g><g id="kvg:062db-g4" kvg:element="&#21475;" kvg:position="bottom"><path id="kvg:062db-s6" kvg:type="&#12753;" d="M51.58,66.17c0.87,0.87,1.42,2.08,1.66,3.12c0.88,3.75,2.2,12.92,3.06,20.9c0.17,1.55,0.32,3.01,0.47,4.3"/><path id="kvg:062db-s7" kvg:type="&#12757;b" d="M54.38,68.22c8.53-1.45,25.73-3.61,32.61-4.19c2.28-0.19,5.44,0.72,4.27,5.27c-1.29,5.05-3.51,12.8-4.9,19.94"/><path id="kvg:062db-s8" kvg:type="&#12752;b" d="M57.69,91.62c5.71-0.32,17.11-1.05,26.56-1.53c1.47-0.07,2.88-0.14,4.2-0.2"/></g></g></g></g></svg>