<svg xmlns="http://www.w3.org/2000/svg" width="109" height="109" viewBox="0 0 109 109"><g xmlns:kvg="http://kanjivg.tagaini.net" id="kvg:StrokePaths_062d1" style="fill:none;stroke:#000000;stroke-width:3;stroke-linecap:round;stroke-linejoin:round;"><g id="kvg:062d1" kvg:element="&#25297;"><g id="kvg:062d1-g1" kvg:element="&#25164;" kvg:variant="true" kvg:original="&#25163;" kvg:position="left" kvg:radical="general"><path id="kvg:062d1-s1" kvg:type="&#12752;" d="M14.5,38.42c2.08,0.25,1.27,0.55,3.5,0.25c5.5-0.75,13-2,22.17-3.17"/><path id="kvg:062d1-s2" kvg:type="&#12762;" d="M28.77,13c0.48,0.92,1.67,2.49,1.76,5.52c0.4,14.55,0.24,64.44,0.24,69.4c0,14.25-6.32,3.53-7.77,2"/><path id="kvg:062d1-s3" kvg:type="&#12736;" d="M12.5,65.42c2.81,1.77,4.62,0.96,7.43-0.56c1.66-0.89,11.79-6.89,18.82-11.2"/></g><g id="kvg:062d1-g2" kvg:element="&#29976;" kvg:position="right"><g id="kvg:062d1-g3" kvg:element="&#24319;" kvg:part="1"><g id="kvg:062d1-g4" kvg:element="&#21313;"><path id="kvg:062d1-s4" kvg:type="&#12752;" d="M46.86,37.02c1.29,0.46,3.67,0.57,4.96,0.46c9.52-0.84,24.18-2.73,39.79-3.83c2.15-0.15,3.45,0.22,4.53,0.45"/><path id="kvg:062d1-s5" kvg:type="&#12753;" d="M56.17,16.37c1.07,0.49,1.71,2.19,1.93,3.17c0.21,0.98,0,71.12-0.21,77.21"/></g><path id="kvg:062d1-s6" kvg:type="&#12753;" d="M79.62,13.5c1.07,0.49,1.71,2.19,1.93,3.17c0.21,0.98,0,71.01-0.21,77.1"/></g><path id="kvg:062d1-s7" kvg:type="&#12752;" d="M58.26,61.34c5.49-0.34,20.28-1.93,23.23-1.93"/><g id="kvg:062d1-g5" kvg:element="&#24319;" kvg:part="2"><path id="kvg:062d1-s8" kvg:type="&#12752;" d="M58.26,91.65c6.4-0.24,17.08-1.71,22.98-1.95"/></g></g></g></g></svg>