<svg xmlns="http://www.w3.org/2000/svg" width="109" height="109" viewBox="0 0 109 109"><g xmlns:kvg="http://kanjivg.tagaini.net" id="kvg:StrokePaths_062d2" style="fill:none;stroke:#000000;stroke-width:3;stroke-linecap:round;stroke-linejoin:round;"><g id="kvg:062d2" kvg:element="&#25298;"><g id="kvg:062d2-g1" kvg:element="&#25164;" kvg:variant="true" kvg:original="&#25163;" kvg:position="left" kvg:radical="general"><path id="kvg:062d2-s1" kvg:type="&#12752;" d="M16,39.67c1.95,0.23,3.78,0.46,5.77,0.2c5.39-0.71,14.21-2.52,21.46-3.51c0.9-0.12,2.02-0.1,2.68-0.1"/><path id="kvg:062d2-s2" kvg:type="&#12762;" d="M33.02,15.75c1.12,1.12,1.51,2.88,1.51,4.77c0,15.23,0.24,53.46,0.24,64.9c0,14.25-6.32,3.53-7.77,2"/><path id="kvg:062d2-s3" kvg:type="&#12736;" d="M16,67.27c1.12,0.73,2.47,0.7,4.08-0.34c6.29-4.05,15.54-10.3,24.04-16.43"/></g><g id="kvg:062d2-g2" kvg:element="&#24040;" kvg:position="right" kvg:phon="&#24040;"><g id="kvg:062d2-g3" kvg:element="&#21274;" kvg:part="1" kvg:variant="true"><path id="kvg:062d2-s4" kvg:type="&#12753;" d="M51.54,21.59c0.94,0.94,1.34,2.27,1.34,3.47c0,0.7,0.03,39.99,0,61.57c0,2.54-0.01,4.82-0.01,6.75"/></g><g id="kvg:062d2-g4" kvg:element="&#20108;" kvg:part="1"><path id="kvg:062d2-s5" kvg:type="&#12752;b" d="M53.35,23.11c6.73-0.68,25.4-2.36,33.31-3.61c2.34-0.37,3.79-0.22,4.98,0.03"/></g><path id="kvg:062d2-s6" kvg:type="&#12757;b" d="M54,45.04c10.37-1.17,21.5-2.67,29.5-3.32c2.74-0.22,4.24,1.28,3.66,4.13c-0.93,4.5-3.07,11.6-4.23,16.96"/><path id="kvg:062d2-s7" kvg:type="&#12752;b" d="M54.07,66.96c5.11-0.48,18.07-1.85,26.39-2.71c2.29-0.24,4.23-0.42,5.56-0.5"/><g id="kvg:062d2-g5" kvg:element="&#20108;" kvg:part="2"><g id="kvg:062d2-g6" kvg:element="&#21274;" kvg:part="2" kvg:variant="true"><path id="kvg:062d2-s8" kvg:type="&#12752;b" d="M54.1,91.36c6.73-0.68,21.11-1.98,36.75-2.65c2.37-0.1,3.79-0.22,4.98,0.03"/></g></g></g></g></g></svg>