<svg xmlns="http://www.w3.org/2000/svg" width="109" height="109" viewBox="0 0 109 109"><g xmlns:kvg="http://kanjivg.tagaini.net" id="kvg:StrokePaths_062e1" style="fill:none;stroke:#000000;stroke-width:3;stroke-linecap:round;stroke-linejoin:round;"><g id="kvg:062e1" kvg:element="&#25313;"><g id="kvg:062e1-g1" kvg:element="&#25164;" kvg:variant="true" kvg:original="&#25163;" kvg:position="left" kvg:radical="general"><path id="kvg:062e1-s1" kvg:type="&#12752;" d="M13.38,39.54c2,0.59,3.91,0.61,5.87,0.28c6.5-1.07,14.47-2.16,22.27-3.71c1.05-0.21,2.12-0.25,3.15-0.36"/><path id="kvg:062e1-s2" kvg:type="&#12762;" d="M31.27,15c1.05,1.05,1.76,2.75,1.76,4.52c0,15.23-0.01,55.96-0.01,67.4c0,13.33-6.02,3.33-7.27,1.5"/><path id="kvg:062e1-s3" kvg:type="&#12736;" d="M11.88,70.12c1.62,0.88,3.25,0.38,4.62-0.74C21.51,65.26,28.5,59.29,40.25,50"/></g><g id="kvg:062e1-g2" kvg:element="&#24195;" kvg:position="right" kvg:phon="&#24195;"><g id="kvg:062e1-g3" kvg:element="&#24191;" kvg:position="tare"><path id="kvg:062e1-s4" kvg:type="&#12753;a" d="M69.85,16.03c0.81,0.81,1.33,2.22,1.33,3.39c0,0.73,0.07,8.71,0.07,13.08"/><g id="kvg:062e1-g4" kvg:element="&#21378;"><path id="kvg:062e1-s5" kvg:type="&#12752;" d="M51.63,34.9c2.05,0.73,4.98,0.55,7.12,0.34c8.93-0.89,20.55-2.56,30.01-3.27c2.1-0.16,4.05-0.24,6.12,0.21"/><path id="kvg:062e1-s6" kvg:type="&#12754;" d="M53.4,35.82c0.89,0.89,1.17,2.06,1.17,3.31c0,19.13-4.19,40.5-14.56,54.38"/></g></g><g id="kvg:062e1-g5" kvg:element="&#21430;"><path id="kvg:062e1-s7" kvg:type="&#12764;" d="M74.84,49.24c0.43,0.86,0.43,2.64,0.01,3.69c-4.07,10.33-8.13,22.25-13.92,33.39c-1.29,2.49-0.45,3.44,1.87,2.84c6.95-1.79,19.2-5.54,28.57-8.05"/><path id="kvg:062e1-s8" kvg:type="&#12756;" d="M86.06,71.34C90,75.5,95.25,85,97,91"/></g></g></g></g></svg>