<svg xmlns="http://www.w3.org/2000/svg" width="109" height="109" viewBox="0 0 109 109"><g xmlns:kvg="http://kanjivg.tagaini.net" id="kvg:StrokePaths_062ff" style="fill:none;stroke:#000000;stroke-width:3;stroke-linecap:round;stroke-linejoin:round;"><g id="kvg:062ff" kvg:element="&#25343;"><g id="kvg:062ff-g1" kvg:element="&#21512;" kvg:position="top"><g id="kvg:062ff-g2" kvg:position="top"><g id="kvg:062ff-g3" kvg:element="&#20154;" kvg:radical="nelson"><path id="kvg:062ff-s1" kvg:type="&#12754;" d="M53.51,9.75c0.11,0.78,0.63,2.18-0.22,3.16C46.25,21,36.75,32,14.78,43.12"/><path id="kvg:062ff-s2" kvg:type="&#12751;" d="M53.04,14.11C58.5,18.77,82,33.99,88.02,37.4c2.04,1.16,4.66,1.65,6.7,1.98"/></g><g id="kvg:062ff-g4" kvg:element="&#19968;"><path id="kvg:062ff-s3" kvg:type="&#12752;" d="M38.41,32.02c0.6,0.12,3.42,0.64,4.03,0.62c6.3-0.14,12.67-1.87,21.66-1.89c1.01,0,2.47,0.06,2.97,0.12"/></g></g><g id="kvg:062ff-g5" kvg:element="&#21475;" kvg:position="bottom"><path id="kvg:062ff-s4" kvg:type="&#12753;" d="M31.81,39.96c0.43,0.29,0.94,1,1.05,1.39c1.43,5.06,2.05,7.71,3.02,11.93"/><path id="kvg:062ff-s5" kvg:type="&#12757;b" d="M33.85,41.46c9.15-0.96,33.83-2.75,38.82-3.14c1.83-0.14,2.92,0.83,2.66,1.66c-1.08,3.42-1.73,4.85-3.95,9.63"/><path id="kvg:062ff-s6" kvg:type="&#12752;b" d="M35.77,51.92c6.74-0.33,30.33-1.55,38.93-1.87"/></g></g><g id="kvg:062ff-g6" kvg:element="&#25163;" kvg:position="bottom" kvg:radical="tradit"><path id="kvg:062ff-s7" kvg:type="&#12754;" d="M68.22,53.75c0.1,0.23,0.22,0.59-0.21,0.92c-2.52,1.95-16.98,6.22-36.76,8.84"/><path id="kvg:062ff-s8" kvg:type="&#12752;" d="M26.38,71.38c1.17,0.31,3.31,0.38,4.48,0.31C45.49,70.84,61,68.75,77.81,67.3c1.93-0.17,5.09-0.12,6.06,0.03"/><path id="kvg:062ff-s9" kvg:type="&#12752;" d="M15.9,81.32c1.76,0.41,4.98,0.5,6.73,0.41c13.25-0.68,46.12-3.48,66.01-3.65c2.93-0.03,4.68,0.19,6.15,0.4"/><path id="kvg:062ff-s10" kvg:type="&#12757;v" d="M54.38,61.47c5.12,9.53,5.87,21.78,3.45,31.39c-2.2,8.73-4.83,4.95-8.89,1.43"/></g></g></g></svg>