<svg xmlns="http://www.w3.org/2000/svg" width="109" height="109" viewBox="0 0 109 109"><g xmlns:kvg="http://kanjivg.tagaini.net" id="kvg:StrokePaths_0630c" style="fill:none;stroke:#000000;stroke-width:3;stroke-linecap:round;stroke-linejoin:round;"><g id="kvg:0630c" kvg:element="&#25356;"><g id="kvg:0630c-g1" kvg:element="&#25164;" kvg:variant="true" kvg:original="&#25163;" kvg:position="left" kvg:radical="general"><path id="kvg:0630c-s1" kvg:type="&#12752;" d="M12,37.45c2.21,0.23,1.35,0.52,3.72,0.23c5.84-0.7,16.46-2.34,26.2-3.44"/><path id="kvg:0630c-s2" kvg:type="&#12762;" d="M27.77,13.5c0.48,0.92,1.76,2.49,1.76,5.52c0,15.23,0.24,57.46,0.24,68.9c0,14.25-6.32,3.53-7.77,2"/><path id="kvg:0630c-s3" kvg:type="&#12736;" d="M12,64.89c1.04,1.15,2.71,1.82,5.01,0.76C18.37,65.03,37.24,54.68,43,51.67"/></g><g id="kvg:0630c-g2" kvg:element="&#21508;" kvg:position="right"><g id="kvg:0630c-g3" kvg:element="&#22786;" kvg:position="top"><path id="kvg:0630c-s4" kvg:type="&#12754;" d="M61.78,11.75c0.05,0.77,0.28,2.03-0.11,3.07c-3,8.02-9.69,19.99-19.09,30"/><path id="kvg:0630c-s5" kvg:type="&#12743;" d="M61.76,22.41c0.33,0.04,1.76,0,2.71-0.11c3.14-0.35,12.46-2.59,16.94-3.68c3.08-0.75,3.95,0.85,3.16,2.89C80.28,32.64,64.5,59,41.44,69.03"/><path id="kvg:0630c-s6" kvg:type="&#12751;" d="M54.65,31.58c5.24,5.26,28.99,25.25,36.05,30.06c2.11,1.43,3.81,2.13,5.86,2.56"/></g><g id="kvg:0630c-g4" kvg:element="&#21475;" kvg:position="bottom"><path id="kvg:0630c-s7" kvg:type="&#12753;" d="M51.33,70.08c0.38,0.46,0.76,0.85,0.93,1.42c1.3,4.58,2.34,17.73,3.23,25.95"/><path id="kvg:0630c-s8" kvg:type="&#12757;b" d="M53.67,72.29c11.85-1.61,26.42-3.05,31.36-3.68c1.8-0.23,2.89,1.35,2.63,2.69c-1.07,5.55-2.99,13.33-4.57,21.01"/><path id="kvg:0630c-s9" kvg:type="&#12752;b" d="M55.91,95.47c7.34-0.72,20.59-1.72,30.57-1.92"/></g></g></g></g></svg>