<svg xmlns="http://www.w3.org/2000/svg" width="109" height="109" viewBox="0 0 109 109"><g xmlns:kvg="http://kanjivg.tagaini.net" id="kvg:StrokePaths_06301" style="fill:none;stroke:#000000;stroke-width:3;stroke-linecap:round;stroke-linejoin:round;"><g id="kvg:06301" kvg:element="&#25345;"><g id="kvg:06301-g1" kvg:element="&#25164;" kvg:variant="true" kvg:original="&#25163;" kvg:position="left" kvg:radical="general"><path id="kvg:06301-s1" kvg:type="&#12752;" d="M15.67,37c1.46,0.5,3.09,0.44,5.08,0.25c2.19-0.21,12.99-2.13,19.01-2.92c1.19-0.16,2.19-0.25,2.9-0.25"/><path id="kvg:06301-s2" kvg:type="&#12762;" d="M30.77,13.83c1.14,1.14,1.76,2.92,1.76,5.02c0,14.56-0.01,62.92-0.01,67.87c0,11.52-6.21,2.5-7.71,1.25"/><path id="kvg:06301-s3" kvg:type="&#12736;" d="M14.38,65.87c1.37,0.45,2.71,0.29,4.2-0.74c1.55-1.08,12.99-10.2,19.55-15.38"/></g><g id="kvg:06301-g2" kvg:element="&#23546;" kvg:position="right" kvg:phon="&#23546;"><g id="kvg:06301-g3" kvg:element="&#22303;"><path id="kvg:06301-s4" kvg:type="&#12752;" d="M50.71,29.03c1.41,0.22,3.56,0.2,4.68,0.06c7.48-0.96,18.86-2.34,26.76-3.06c1.86-0.17,2.99,0.15,3.92,0.3"/><path id="kvg:06301-s5" kvg:type="&#12753;a" d="M66.95,11.62c0.78,0.78,1.36,1.99,1.36,3.5c0,8.26,0.02,26.13,0.02,28.6"/><path id="kvg:06301-s6" kvg:type="&#12752;" d="M44.63,45.35c1.53,0.44,4.32,0.6,5.85,0.44c12.52-1.29,26.9-3.16,39.07-3.99c2.53-0.17,4.06,0.21,5.34,0.43"/></g><g id="kvg:06301-g4" kvg:element="&#23544;"><path id="kvg:06301-s7" kvg:type="&#12752;" d="M44.57,60.99c1.77,0.46,5.01,0.64,6.79,0.46c10.26-1.07,27.3-3.2,37.82-3.89c2.93-0.19,4.72,0.22,6.19,0.44"/><path id="kvg:06301-s8" kvg:type="&#12762;" d="M77.06,46.08c1.12,1.12,1.72,3.04,1.72,4.56c0,12.03-0.09,34.43-0.09,38.52c0,10.21-5.31,3.08-7.24,0.71"/><path id="kvg:06301-s9" kvg:type="&#12756;" d="M56.25,70.5c2.58,1.59,6.66,6.53,7.3,9"/></g></g></g></g></svg>