<svg xmlns="http://www.w3.org/2000/svg" width="109" height="109" viewBox="0 0 109 109"><g xmlns:kvg="http://kanjivg.tagaini.net" id="kvg:StrokePaths_06328" style="fill:none;stroke:#000000;stroke-width:3;stroke-linecap:round;stroke-linejoin:round;"><g id="kvg:06328" kvg:element="&#25384;"><g id="kvg:06328-g1" kvg:element="&#25164;" kvg:variant="true" kvg:original="&#25163;" kvg:position="left" kvg:radical="general"><path id="kvg:06328-s1" kvg:type="&#12752;" d="M13.5,36.5c2.25,0.62,3.77,0.72,5.76,0.43c4.77-0.68,11.44-2.06,18.23-3.09c1.22-0.18,2.45-0.36,3.67-0.51"/><path id="kvg:06328-s2" kvg:type="&#12762;" d="M29.02,12.83c1.2,1.2,1.76,3.54,1.76,5.52c0,14.56-0.01,62.94-0.01,67.9c0,14.25-6.32,3.53-7.77,2"/><path id="kvg:06328-s3" kvg:type="&#12736;" d="M13,64.48c2.25,1.02,4.31,0.22,6.94-1.71c1.55-1.14,11.75-9.04,18.31-14.52"/></g><g id="kvg:06328-g2" kvg:element="&#30691;" kvg:position="right"><g id="kvg:06328-g3" kvg:element="&#21430;" kvg:position="top"><path id="kvg:06328-s4" kvg:type="&#12764;" d="M64.54,13c0.09,1.26-0.08,2.66-0.73,3.77C60.77,22,56.3,27.93,52.14,32.61c-2.38,2.68-1.08,3.55,2.04,2.7c7.86-2.15,21.27-5.63,28.13-7.12"/><path id="kvg:06328-s5" kvg:type="&#12756;" d="M75.26,19.2c4.37,2.85,11.3,11.74,12.39,16.18"/></g><g id="kvg:06328-g4" kvg:element="&#30690;" kvg:position="bottom"><path id="kvg:06328-s6" kvg:type="&#12754;" d="M54.55,42.02c0.08,1.22,0.06,2.35-0.43,3.47c-2.12,4.88-5.7,11.21-10.77,17.45"/><g id="kvg:06328-g5" kvg:element="&#22825;"><path id="kvg:06328-s7" kvg:type="&#12752;" d="M55.3,50.82c1.58,0.43,3.29,0.14,4.17-0.03c4.2-0.81,12.21-2.65,17.92-3.48c1.83-0.26,3.54-0.42,5.39-0.17"/><g id="kvg:06328-g6" kvg:element="&#22823;"><path id="kvg:06328-s8" kvg:type="&#12752;" d="M43.66,69.63c2.2,0.71,4.6,0.37,6.84,0.09c11.63-1.45,23.63-3.22,34.76-3.9c2.53-0.15,4.83-0.32,7.32,0.2"/><path id="kvg:06328-s9" kvg:type="&#12754;" d="M65.62,53.21c0.58,1.2,0.64,2.35,0.61,3.67c-0.54,21.3-10.83,32.32-27.17,38.97"/><path id="kvg:06328-s10" kvg:type="&#12751;" d="M65.8,68.83c7.57,8.16,15.78,16.76,22.16,21.83c2.06,1.63,4.54,3.21,7.91,4.23"/></g></g></g></g></g></g></svg>