<svg xmlns="http://www.w3.org/2000/svg" width="109" height="109" viewBox="0 0 109 109"><g xmlns:kvg="http://kanjivg.tagaini.net" id="kvg:StrokePaths_0633f" style="fill:none;stroke:#000000;stroke-width:3;stroke-linecap:round;stroke-linejoin:round;"><g id="kvg:0633f" kvg:element="&#25407;"><g id="kvg:0633f-g1" kvg:element="&#25164;" kvg:variant="true" kvg:original="&#25163;" kvg:position="left" kvg:radical="general"><path id="kvg:0633f-s1" kvg:type="&#12752;" d="M14.25,36.92c1.95,0.23,3.77,0.45,5.76,0.21c4.33-0.53,9.28-1.28,15.73-2.15c1.2-0.16,2.38-0.23,3.67-0.23"/><path id="kvg:0633f-s2" kvg:type="&#12762;" d="M28.52,13c1.37,1.37,1.51,3.25,1.51,5.52c0,15.23-0.01,55.71-0.01,67.15c0,14.25-6.32,3.53-7.77,2"/><path id="kvg:0633f-s3" kvg:type="&#12736;" d="M12.5,65.18c0.88,0.7,2.18,1,3.56,0.09c6.44-4.26,8.19-5.39,20.69-14.35"/></g><g id="kvg:0633f-g2" kvg:position="right" kvg:phon="&#21315;+&#26085;"><g id="kvg:0633f-g3" kvg:element="&#21315;" kvg:part="1"><g id="kvg:0633f-g4" kvg:element="&#20031;"><path id="kvg:0633f-s4" kvg:type="&#12754;" d="M81.27,11.67c0,0.96-0.39,1.71-1.26,2.22c-4.25,2.5-16.75,7.11-32.04,10.9"/></g></g><g id="kvg:0633f-g5" kvg:element="&#21313;" kvg:part="1"><path id="kvg:0633f-s5" kvg:type="&#12752;" d="M45.13,33.15c2.49,0.9,6.1,0.37,8.64,0.04c9.5-1.21,22.19-3.03,33.85-3.73c2.58-0.15,5.2-0.44,7.74,0.12"/></g><g id="kvg:0633f-g6" kvg:element="&#26085;"><path id="kvg:0633f-s6" kvg:type="&#12753;" d="M46.91,44.87c0.74,0.74,1.25,2.14,1.39,2.87c1.07,5.51,2.28,13.24,3.04,20.53c0.15,1.45,0.29,2.86,0.42,4.19"/><path id="kvg:0633f-s7" kvg:type="&#12757;a" d="M48.62,46c12.63-1.88,29.26-3.96,37.9-4.54C89.75,41.25,91,42.88,90.8,46c-0.29,4.47-1.57,11.58-2.44,17.76c-0.28,1.96-0.56,3.83-0.85,5.48"/><path id="kvg:0633f-s8" kvg:type="&#12752;a" d="M51.16,57.73c10.09-1.48,28.09-3.23,37.29-3.57"/><path id="kvg:0633f-s9" kvg:type="&#12752;a" d="M52.83,70.17c11.42-1.17,21.42-2.3,33.68-2.96"/></g><g id="kvg:0633f-g7" kvg:element="&#21315;" kvg:part="2"><g id="kvg:0633f-g8" kvg:element="&#21313;" kvg:part="2"><path id="kvg:0633f-s10" kvg:type="&#12753;" d="M67.71,22.39c0.88,0.88,1.17,2.23,1.17,4.03c0,0.65,0.09,44.87-0.01,64.58c-0.03,4.84,0.09,6.77,0.07,7.75"/></g></g></g></g></g></svg>