<svg xmlns="http://www.w3.org/2000/svg" width="109" height="109" viewBox="0 0 109 109"><g xmlns:kvg="http://kanjivg.tagaini.net" id="kvg:StrokePaths_06357" style="fill:none;stroke:#000000;stroke-width:3;stroke-linecap:round;stroke-linejoin:round;"><g id="kvg:06357" kvg:element="&#25431;"><g id="kvg:06357-g1" kvg:element="&#25164;" kvg:variant="true" kvg:original="&#25163;" kvg:position="left" kvg:radical="general"><path id="kvg:06357-s1" kvg:type="&#12752;" d="M12.5,36.3c2.01,0.31,1.23,0.69,3.38,0.31c5.3-0.94,14.95-3.12,23.79-4.58"/><path id="kvg:06357-s2" kvg:type="&#12762;" d="M27.77,12c0.48,0.92,1.67,2.49,1.76,5.52c0.4,14.55,0.74,65.94,0.74,70.9c0,14.25-6.82,4.03-8.27,2.5"/><path id="kvg:06357-s3" kvg:type="&#12736;" d="M11,65.18c1.87,0.83,4.05,1.36,5.82,0.28c4.61-2.83,11.3-6.92,20.93-12.79"/></g><g id="kvg:06357-g2" kvg:element="&#27497;" kvg:position="right"><g id="kvg:06357-g3" kvg:element="&#27490;" kvg:position="top"><g id="kvg:06357-g4" kvg:element="&#21340;" kvg:original="&#12488;"><path id="kvg:06357-s4" kvg:type="&#12753;a" d="M68.32,12.5c0.98,0.42,1.58,1.94,1.78,2.81c0.2,0.87,0.35,22.59,0.19,28.05"/><path id="kvg:06357-s5" kvg:type="&#12752;b/&#12756;" d="M70.28,27.23c3.83-0.51,8.15-2.36,14.89-3.02c1.57-0.15,1.96-0.31,2.94-0.05"/></g><path id="kvg:06357-s6" kvg:type="&#12753;a" d="M52.56,22.98c0.98,0.42,1.58,1.94,1.78,2.81c0.2,0.87,0.18,13.21,0.02,18.67"/><path id="kvg:06357-s7" kvg:type="&#12752;" d="M43.3,45.25c0.74,0.21,2.72,0.7,4.69,0.59c10.62-0.58,30.01-3.09,43.23-4.15c1.97-0.16,5.41,0.37,6.53,0.57"/></g><g id="kvg:06357-g5" kvg:element="&#23569;" kvg:position="bottom"><g id="kvg:06357-g6" kvg:element="&#23567;"><path id="kvg:06357-s8" kvg:type="&#12762;" d="M69.36,45.5c0.08,0.24,1.14,1.24,1.14,2.75c0,8.75-0.23,15.72-0.23,18.19c0,8.06-4.53,2.31-6.17,0.31"/><path id="kvg:06357-s9" kvg:type="&#12754;" d="M57.03,53.25c0.04,0.42,0.16,1.12-0.08,1.7c-1.74,4.23-9.11,12.4-15.09,16.3"/></g><g id="kvg:06357-g7" kvg:element="&#20031;"><path id="kvg:06357-s10" kvg:type="&#12754;" d="M 92.177034,52.288305 c 0.13,0.89 0.159068,3.012797 -1.193729,5.65839 -5.47,10.42 -31.379576,33.746102 -52.749576,40.746102"/></g></g></g></g></g></svg>