<svg xmlns="http://www.w3.org/2000/svg" width="109" height="109" viewBox="0 0 109 109"><g xmlns:kvg="http://kanjivg.tagaini.net" id="kvg:StrokePaths_0636b" style="fill:none;stroke:#000000;stroke-width:3;stroke-linecap:round;stroke-linejoin:round;"><g id="kvg:0636b" kvg:element="&#25451;"><g id="kvg:0636b-g1" kvg:element="&#25164;" kvg:variant="true" kvg:original="&#25163;" kvg:position="left" kvg:radical="general"><path id="kvg:0636b-s1" kvg:type="&#12752;" d="M12,35.92c2.08,0.25,1.27,0.55,3.5,0.25c5.5-0.75,12.5-2,21.67-3.17"/><path id="kvg:0636b-s2" kvg:type="&#12762;" d="M25.27,13c0.48,0.92,1.76,2.49,1.76,5.52c0,15.23,0.24,56.46,0.24,67.9c0,14.25-6.32,3.53-7.77,2"/><path id="kvg:0636b-s3" kvg:type="&#12736;" d="M11.5,63.13c0.79,0.94,2.05,1.49,3.8,0.62c1.03-0.51,16.64-8.88,21.01-11.33"/></g><g id="kvg:0636b-g2" kvg:element="&#38272;" kvg:position="right"><g id="kvg:0636b-g3" kvg:position="left"><path id="kvg:0636b-s4" kvg:type="&#12753;" d="M41.39,17.89c0.55,0.43,1.83,1.86,1.83,4.08c0,0.87-0.07,66.99-0.18,72.36"/><path id="kvg:0636b-s5" kvg:type="&#12757;a" d="M43.37,19.87c1.83-0.11,14.48-2.88,16.15-3.01c1.39-0.11,2.11,1,2.18,1.88c0.1,1.35-0.66,26.02-0.66,26.68"/><path id="kvg:0636b-s6" kvg:type="&#12752;a" d="M43.69,31.74c4.5-0.65,12.49-1.83,16.82-2.53"/><path id="kvg:0636b-s7" kvg:type="&#12752;a" d="M43.87,44.57c5.88-0.82,11.81-1.23,17.2-1.81"/></g><g id="kvg:0636b-g4" kvg:position="right"><path id="kvg:0636b-s8" kvg:type="&#12753;" d="M72.53,15.67c0.31,0.59,1.1,1.84,1.13,2.63c0.09,1.95-0.11,25.32,0,26.11"/><path id="kvg:0636b-s9" kvg:type="&#12742;a" d="M73.68,17.23c1.78-0.1,16.83-2.62,18.45-2.74c1.35-0.1,2.13,1.07,2.12,1.66c-0.35,18.04-0.36,58.1-0.35,71.18c0,10.7-3.64,5.51-6.57,1.91"/><path id="kvg:0636b-s10" kvg:type="&#12752;a" d="M74,28.59c2.41,0,16.38-1.85,19.11-1.85"/><path id="kvg:0636b-s11" kvg:type="&#12752;a" d="M74.18,41.83c3.56,0,15.1-1.65,19.71-1.65"/></g></g></g></g></svg>