<svg xmlns="http://www.w3.org/2000/svg" width="109" height="109" viewBox="0 0 109 109"><g xmlns:kvg="http://kanjivg.tagaini.net" id="kvg:StrokePaths_06380" style="fill:none;stroke:#000000;stroke-width:3;stroke-linecap:round;stroke-linejoin:round;"><g id="kvg:06380" kvg:element="&#25472;"><g id="kvg:06380-g1" kvg:element="&#25164;" kvg:variant="true" kvg:original="&#25163;" kvg:position="left" kvg:radical="general"><path id="kvg:06380-s1" kvg:type="&#12752;" d="M11.5,37.42c2.08,0.25,1.27,0.55,3.5,0.25c5.5-0.75,13.5-2,22.67-3.17"/><path id="kvg:06380-s2" kvg:type="&#12762;" d="M25.27,13.5c0.48,0.92,1.76,2.49,1.76,5.52c0,15.23,0.24,57.46,0.24,68.9c0,14.25-6.32,3.53-7.77,2"/><path id="kvg:06380-s3" kvg:type="&#12736;" d="M10,65.06c0.84,1,2.18,1.58,4.04,0.66c1.1-0.54,18.66-10.19,23.31-12.81"/></g><g id="kvg:06380-g2" kvg:element="&#27427;" kvg:position="right"><g id="kvg:06380-g3" kvg:element="&#26020;" kvg:position="left"><path id="kvg:06380-s4" kvg:type="&#12754;" d="M64.89,13.75c0.05,0.32,0.2,0.93-0.09,1.27c-4,4.63-9.11,8.14-17.55,12.12"/><path id="kvg:06380-s5" kvg:type="&#12754;" d="M43.19,27.54c0.56,1.21,1.29,2.04,1.29,4.3c0,10.85,1.24,44.21-9.83,58.59"/><path id="kvg:06380-s6" kvg:type="&#12752;" d="M44.83,44.68c0.26,0.08,1.64,0.15,2.32,0.05c6.35-0.98,12.9-1.73,17.32-2.65c0.69-0.14,1.9-0.08,2.33,0"/><path id="kvg:06380-s7" kvg:type="&#12753;" d="M55.2,46.16c0.6,0.61,0.96,2.72,1.08,3.94c0.12,1.21,0,37.34-0.12,44.91"/></g><g id="kvg:06380-g4" kvg:element="&#27424;" kvg:position="right"><g id="kvg:06380-g5" kvg:position="top"><path id="kvg:06380-s8" kvg:type="&#12754;" d="M78.27,13.75c0.03,0.93,0.06,2.4-0.06,3.74c-0.73,7.88-5.46,28.01-12.11,37.76"/><path id="kvg:06380-s9" kvg:type="&#12758;a" d="M76.57,35.18c0.65,0.26,1.89,0.68,2.88,0.44c1.2-0.28,13.62-4.05,14.77-4.06c3.94-0.04,1.79,6.18-3.1,11.42"/></g><g id="kvg:06380-g6" kvg:position="bottom"><path id="kvg:06380-s10" kvg:type="&#12754;" d="M78.04,44.75c0.03,1.11,0.38,3.03,0.27,4.76C77.62,60.27,73.97,84.73,64,95"/><path id="kvg:06380-s11" kvg:type="&#12751;" d="M77.28,58.5c2.76,6.32,12.43,25.27,17.39,32.02c1.04,1.42,1.84,2.27,2.83,2.73"/></g></g></g></g></g></svg>