<svg xmlns="http://www.w3.org/2000/svg" width="109" height="109" viewBox="0 0 109 109"><g xmlns:kvg="http://kanjivg.tagaini.net" id="kvg:StrokePaths_06389" style="fill:none;stroke:#000000;stroke-width:3;stroke-linecap:round;stroke-linejoin:round;"><g id="kvg:06389" kvg:element="&#25481;"><g id="kvg:06389-g1" kvg:element="&#25164;" kvg:variant="true" kvg:original="&#25163;" kvg:position="left" kvg:radical="general"><path id="kvg:06389-s1" kvg:type="&#12752;" d="M12.75,38.42c2.22,0.25,1.35,0.55,3.73,0.25c5.85-0.75,15.43-2.5,25.19-3.67"/><path id="kvg:06389-s2" kvg:type="&#12762;" d="M27.27,14.5c0.48,0.92,1.76,2.49,1.76,5.52c0,15.23,0.24,56.46,0.24,67.9c0,14.25-6.32,3.53-7.77,2"/><path id="kvg:06389-s3" kvg:type="&#12736;" d="M11.75,67.74c0.9,1.06,2.33,1.68,4.31,0.7c1.17-0.58,19.23-12.51,24.19-15.28"/></g><g id="kvg:06389-g2" kvg:element="&#21331;" kvg:position="right"><g id="kvg:06389-g3" kvg:element="&#21340;" kvg:original="&#12488;" kvg:position="top"><path id="kvg:06389-s4" kvg:type="&#12753;" d="M65.31,12.88c0.76,0.33,2.36,2.46,2.51,3.12c0.15,0.66,0.4,14.53,0.25,18.63"/><path id="kvg:06389-s5" kvg:type="&#12752;" d="M68.25,23.5c2,0,12.67-1.36,18.5-2.27C88.83,20.9,89.75,21.08,91,21"/></g><g id="kvg:06389-g4" kvg:element="&#26089;" kvg:position="bottom"><g id="kvg:06389-g5" kvg:element="&#26085;" kvg:position="top"><path id="kvg:06389-s6" kvg:type="&#12753;" d="M50.16,36.17c0.65,1.17,1.03,1.54,1.24,3.11c0.57,4.28,3.07,19.63,3.1,23.22"/><path id="kvg:06389-s7" kvg:type="&#12757;a" d="M52.73,37.61c3.71-0.19,32.44-3.86,35.79-3.37c1.33,0.19,2.44,1.69,2.09,3.69C89.75,43,88,55,85.43,60.58"/><path id="kvg:06389-s8" kvg:type="&#12752;a" d="M53.48,48.31c6.33-0.43,29.11-2.72,34.78-2.72"/><path id="kvg:06389-s9" kvg:type="&#12752;a" d="M55.14,59.86c9.11-0.74,25.78-2.33,30.41-2.33"/></g><g id="kvg:06389-g6" kvg:element="&#21313;" kvg:position="bottom"><path id="kvg:06389-s10" kvg:type="&#12752;" d="M40.88,75.21c1.19,0.46,3.38,0.58,4.57,0.46c10.3-1.09,39.82-3.46,49.51-3.42c1.99,0.01,3.18,0.22,4.17,0.45"/><path id="kvg:06389-s11" kvg:type="&#12753;" d="M67.73,61.75c0.44,0.54,1.38,4.03,1.47,5.1c0.09,1.08-0.06,25.43-0.15,32.15"/></g></g></g></g></g></svg>