<svg xmlns="http://www.w3.org/2000/svg" width="109" height="109" viewBox="0 0 109 109"><g xmlns:kvg="http://kanjivg.tagaini.net" id="kvg:StrokePaths_063a0" style="fill:none;stroke:#000000;stroke-width:3;stroke-linecap:round;stroke-linejoin:round;"><g id="kvg:063a0" kvg:element="&#25504;"><g id="kvg:063a0-g1" kvg:element="&#25164;" kvg:variant="true" kvg:original="&#25163;" kvg:position="left" kvg:radical="general"><path id="kvg:063a0-s1" kvg:type="&#12752;" d="M13,40.42c2.08,0.25,1.27,0.55,3.5,0.25c5.5-0.75,14-2,23.17-3.17"/><path id="kvg:063a0-s2" kvg:type="&#12762;" d="M27.27,16c0.48,0.92,1.67,2.49,1.76,5.52c0.4,14.55,0.24,60.94,0.24,65.9c0,14.25-6.32,3.53-7.77,2"/><path id="kvg:063a0-s3" kvg:type="&#12736;" d="M12,67.28c1.75,1.47,3.53,2.09,6.29,0.37c1.63-1.02,12.56-8.84,19.46-13.73"/></g><g id="kvg:063a0-g2" kvg:element="&#20140;" kvg:position="right"><g id="kvg:063a0-g3" kvg:element="&#20128;" kvg:position="top"><path id="kvg:063a0-s4" kvg:type="&#12753;a" d="M65.15,13.92c0.99,0.58,2.62,2.86,2.62,4.06c0,4.42-0.12,7.27-0.12,11.57"/><path id="kvg:063a0-s5" kvg:type="&#12752;" d="M42.5,31.5c1.21,0.07,3.97,0.48,5.16,0.39C59.5,31,79.9,27.5,91.26,27.09c2-0.07,3.02-0.04,4.51,0.56"/></g><g id="kvg:063a0-g4" kvg:position="bottom"><g id="kvg:063a0-g5" kvg:element="&#21475;"><path id="kvg:063a0-s6" kvg:type="&#12753;" d="M49.11,42.29c0.54,0.35,1.22,0.61,1.33,1.08c0.82,3.43,2.47,10.62,3.67,17.13"/><path id="kvg:063a0-s7" kvg:type="&#12757;b" d="M50.89,43.9c8.15-1.34,27.47-4.1,33-4.65c2.3-0.23,3.94,1.43,3.02,4.05c-1.03,2.93-2.78,8.03-4.22,12.08"/><path id="kvg:063a0-s8" kvg:type="&#12752;b" d="M54.49,58.73c9.2-0.7,20.97-2.83,31.03-3.28"/></g><g id="kvg:063a0-g6" kvg:element="&#23567;"><path id="kvg:063a0-s9" kvg:type="&#12762;" d="M67.42,60.33c0.08,0.5,1.5,2.61,1.63,5.78c0.21,5.13-0.23,21.73-0.23,26.15c0,9.47-6.47,0.52-7.82-0.79"/><path id="kvg:063a0-s10" kvg:type="&#12754;" d="M54.95,69c0.04,0.45,0.08,1.17-0.08,1.82c-0.96,3.84-6.46,12.27-13.98,17.43"/><path id="kvg:063a0-s11" kvg:type="&#12756;" d="M83.76,70c4.23,3.09,10.08,11.7,11.14,16.5"/></g></g></g></g></g></svg>