<svg xmlns="http://www.w3.org/2000/svg" width="109" height="109" viewBox="0 0 109 109"><g xmlns:kvg="http://kanjivg.tagaini.net" id="kvg:StrokePaths_063aa" style="fill:none;stroke:#000000;stroke-width:3;stroke-linecap:round;stroke-linejoin:round;"><g id="kvg:063aa" kvg:element="&#25514;"><g id="kvg:063aa-g1" kvg:element="&#25164;" kvg:variant="true" kvg:original="&#25163;" kvg:position="left" kvg:radical="general"><path id="kvg:063aa-s1" kvg:type="&#12752;" d="M15.75,37.42c1.83,0.22,3.46,0.5,5.35,0.25c4.58-0.6,12.04-1.56,18.93-2.45c1.2-0.16,2.34-0.34,3.64-0.22"/><path id="kvg:063aa-s2" kvg:type="&#12762;" d="M31.02,15c1.37,1.37,1.76,3.12,1.76,5.27c0,15.23-0.01,52.46-0.01,63.9c0,14.25-5.57,3.53-7.02,2"/><path id="kvg:063aa-s3" kvg:type="&#12736;" d="M15.13,63.37c0.88,0.85,2.65,0.7,3.92-0.18c6.45-4.45,9.32-6.45,20.7-14.28"/></g><g id="kvg:063aa-g2" kvg:element="&#26132;" kvg:position="right" kvg:phon="&#26132;"><g id="kvg:063aa-g3" kvg:position="top"><g id="kvg:063aa-g4" kvg:element="&#24318;" kvg:variant="true"><g id="kvg:063aa-g5" kvg:element="&#21313;" kvg:part="1"><path id="kvg:063aa-s4" kvg:type="&#12752;" d="M48.62,32.06c1.88,0.56,4.76,0.22,6.53,0.05c8.23-0.81,22.18-2.53,29.58-3.15c1.77-0.15,4.59-0.38,6.29,0.15"/></g><g id="kvg:063aa-g6" kvg:element="&#20031;" kvg:variant="true"><path id="kvg:063aa-s5" kvg:type="&#12753;a" d="M57.77,18.38c0.93,0.93,1.49,2.29,1.55,3.33c0.55,9.17,0.93,17.42,1.43,27.85"/></g><g id="kvg:063aa-g7" kvg:element="&#21313;" kvg:part="2"><path id="kvg:063aa-s6" kvg:type="&#12753;a" d="M79.1,14c1.01,1.01,1.15,2.5,1.05,4.08C79.78,24,78.88,38.5,78.19,48.26"/></g></g><path id="kvg:063aa-s7" kvg:type="&#12752;" d="M44.22,51.55c2.04,0.94,5.24,0.63,7.4,0.41c11.54-1.15,26.38-2.74,38-3.24c2.62-0.11,6.12-0.11,8.66,0.6"/></g><g id="kvg:063aa-g8" kvg:element="&#26085;" kvg:position="bottom"><path id="kvg:063aa-s8" kvg:type="&#12753;" d="M54.84,60.64c0.82,0.82,0.97,1.99,0.97,3.31c0,0.84,0,16.65,0,26.06c0,1.94,0,3.59,0,4.75"/><path id="kvg:063aa-s9" kvg:type="&#12757;a" d="M56.21,61.67c1.8-0.1,16.24-1.64,22.67-2.29c3.67-0.37,5.36,0.61,5.36,3.74c0,4.69-0.11,15.75-0.11,24.37c0,3.51-0.01,6.04-0.01,6.25"/><path id="kvg:063aa-s10" kvg:type="&#12752;a" d="M56.85,75.11c7.64-0.56,18.65-1.86,26.32-2.05"/><path id="kvg:063aa-s11" kvg:type="&#12752;a" d="M56.96,91.41c6.08-0.54,17.16-1.41,26.2-1.8"/></g></g></g></g></svg>