<svg xmlns="http://www.w3.org/2000/svg" width="109" height="109" viewBox="0 0 109 109"><g xmlns:kvg="http://kanjivg.tagaini.net" id="kvg:StrokePaths_063bb" style="fill:none;stroke:#000000;stroke-width:3;stroke-linecap:round;stroke-linejoin:round;"><g id="kvg:063bb" kvg:element="&#25531;"><g id="kvg:063bb-g1" kvg:element="&#25164;" kvg:variant="true" kvg:original="&#25163;" kvg:position="left" kvg:radical="general"><path id="kvg:063bb-s1" kvg:type="&#12752;" d="M14.75,37.75c1.97,0.24,3.84,0.44,5.86,0.2c4.55-0.55,10.35-1.56,16.78-2.38c1.23-0.16,2.48-0.23,3.77-0.23"/><path id="kvg:063bb-s2" kvg:type="&#12762;" d="M29.02,13.58c1.2,1.2,1.51,2.92,1.51,4.77c0,14.56-0.01,62.94-0.01,67.9c0,14.25-6.07,3.53-7.52,2"/><path id="kvg:063bb-s3" kvg:type="&#12736;" d="M13.5,66c1.38,0.61,2.55,0.55,4.12-0.5C19.23,64.44,31.3,55.31,38,50"/></g><g id="kvg:063bb-g2" kvg:position="right"><g id="kvg:063bb-g3" kvg:element="&#21448;" kvg:position="top"><path id="kvg:063bb-s4" kvg:type="&#12743;" d="M49.19,19.02c2.15,0.33,4.29,0.33,6.44-0.02c5.63-0.99,17.35-3.25,20.73-3.94c2.75-0.56,3.63,1.4,2.37,3.57C69.5,34.5,59.62,44.38,44.15,52.82"/><path id="kvg:063bb-s5" kvg:type="&#12751;" d="M48.73,26.69c5.04,0.06,19.37,11.78,32.47,18.95c3.58,2.12,6.88,3.95,10.91,4.99"/></g><g id="kvg:063bb-g4" kvg:element="&#34411;" kvg:position="bottom"><g id="kvg:063bb-g5" kvg:element="&#20013;"><g id="kvg:063bb-g6" kvg:element="&#21475;"><path id="kvg:063bb-s6" kvg:type="&#12753;" d="M48.12,60.04c0.67,0.67,0.97,1.67,1.07,2.17c0.58,2.9,1.36,6.17,2.25,10.3c0.32,1.47,0.65,3.06,1,4.77"/><path id="kvg:063bb-s7" kvg:type="&#12757;b" d="M49.58,61.1c9.54-0.97,24.55-2.89,31.79-3.43c3.44-0.26,5.41,0.52,4.21,4.27c-0.95,2.96-1.18,4.73-2.59,10.22"/><path id="kvg:063bb-s8" kvg:type="&#12752;b" d="M52.98,75.06c5.41-0.6,17.25-1.81,26.39-2.6c1.96-0.17,3.79-0.32,5.41-0.44"/></g><g id="kvg:063bb-g7" kvg:element="&#20008;"><path id="kvg:063bb-s9" kvg:type="&#12753;a" d="M65.67,48c1.1,1.1,1.28,2.38,1.28,4.16c0,6.09,0,26.72,0,36.32"/></g></g><path id="kvg:063bb-s10" kvg:type="&#12736;" d="M45.94,91.04c1.51,1.51,2.55,1.75,4,1.47c11.18-2.14,24.31-4.89,35.35-7.38"/><path id="kvg:063bb-s11" kvg:type="&#12756;" d="M80.29,78.93c4.04,2.69,10.42,11.06,11.43,15.24"/></g></g></g></g></svg>