<svg xmlns="http://www.w3.org/2000/svg" width="109" height="109" viewBox="0 0 109 109"><g xmlns:kvg="http://kanjivg.tagaini.net" id="kvg:StrokePaths_063c0" style="fill:none;stroke:#000000;stroke-width:3;stroke-linecap:round;stroke-linejoin:round;"><g id="kvg:063c0" kvg:element="&#25536;"><g id="kvg:063c0-g1" kvg:element="&#25164;" kvg:variant="true" kvg:original="&#25163;" kvg:position="left" kvg:radical="general"><path id="kvg:063c0-s1" kvg:type="&#12752;" d="M10.5,36.92c2.08,0.25,1.27,0.55,3.5,0.25c5.5-0.75,15.5-2.5,24.67-3.67"/><path id="kvg:063c0-s2" kvg:type="&#12762;" d="M26.27,13c0.48,0.92,1.76,2.49,1.76,5.52c0,15.23,0.24,58.46,0.24,69.9c0,14.25-6.32,4.03-7.77,2.5"/><path id="kvg:063c0-s3" kvg:type="&#12736;" d="M11,67.02c1.5,1.23,2.75,0.98,4.5-0.02c1.58-0.9,13.85-7.7,20.75-11.58"/></g><g id="kvg:063c0-g2" kvg:element="&#26604;" kvg:position="right"><g id="kvg:063c0-g3" kvg:element="&#26463;" kvg:part="1"><g id="kvg:063c0-g4" kvg:element="&#26408;" kvg:part="1"><path id="kvg:063c0-s4" kvg:type="&#12752;" d="M44.14,24.04c1.11,0.71,2.98,1.1,4.9,1.03c8.96-0.32,26.23-2.23,34.67-3.51c2.08-0.32,4.04-0.07,5.89,0.55"/></g><g id="kvg:063c0-g5" kvg:element="&#21475;" kvg:part="1"><path id="kvg:063c0-s5" kvg:type="&#12753;" d="M44.72,36.82c0.28,0.41,0.56,0.75,0.68,1.27c0.96,4.08,2.61,13.83,3.27,21.16"/><path id="kvg:063c0-s6" kvg:type="&#12757;" d="M45.76,39.14c8.33-1.64,38.98-3.77,42.24-4.15c2.03-0.24,3.09,1.36,2.77,3.64c-0.92,6.62-2.48,14.37-3.61,18.86"/></g></g><path id="kvg:063c0-s7" kvg:type="&#12756;" d="M53.54,44.08c2.15,1.35,5.56,5.54,6.1,7.63"/><path id="kvg:063c0-s8" kvg:type="&#12754;" d="M80.54,42.14c0.02,0.22,0.04,0.57-0.04,0.88c-0.45,1.86-3.05,5.94-6.61,8.44"/><g id="kvg:063c0-g6" kvg:element="&#26463;"><g id="kvg:063c0-g7" kvg:element="&#21475;" kvg:part="2"><path id="kvg:063c0-s9" kvg:type="&#12752;" d="M48.46,57.93c9.09-0.92,30.34-2.69,38.84-3.14"/></g><g id="kvg:063c0-g8" kvg:element="&#26408;" kvg:part="2"><path id="kvg:063c0-s10" kvg:type="&#12753;" d="M65.65,11.75c0.87,0.5,1.39,2.25,1.56,3.25c0.17,1,0,77.75-0.17,84"/><path id="kvg:063c0-s11" kvg:type="&#12754;" d="M67.04,57.25c-4.94,9.9-17.77,23.9-28.04,29.5"/><path id="kvg:063c0-s12" kvg:type="&#12751;" d="M67.37,56.75c3.85,3.88,20.4,22.72,24.58,26.53c1.42,1.29,2.63,1.85,4.05,2.22"/></g></g></g></g></g></svg>