<svg xmlns="http://www.w3.org/2000/svg" width="109" height="109" viewBox="0 0 109 109"><g xmlns:kvg="http://kanjivg.tagaini.net" id="kvg:StrokePaths_063da" style="fill:none;stroke:#000000;stroke-width:3;stroke-linecap:round;stroke-linejoin:round;"><g id="kvg:063da" kvg:element="&#25562;"><g id="kvg:063da-g1" kvg:element="&#25164;" kvg:variant="true" kvg:original="&#25163;" kvg:position="left" kvg:radical="general"><path id="kvg:063da-s1" kvg:type="&#12752;" d="M13.5,35.92c2.17,0.26,4.15,0.43,6.37,0.06c4.83-0.79,13.03-2.07,19.66-2.99c1.22-0.17,2.34-0.36,3.63-0.23"/><path id="kvg:063da-s2" kvg:type="&#12762;" d="M30.52,13.25c1.05,1.05,1.51,2.88,1.51,5.02c0,15.23-0.01,57.96-0.01,69.4c0,14.25-6.32,3.53-7.77,2"/><path id="kvg:063da-s3" kvg:type="&#12736;" d="M11.5,62.43c1.38,1.32,2.25,1.57,4.25,0.32c5.11-3.19,11.88-8.12,22-15.08"/></g><g id="kvg:063da-g2" kvg:element="&#26140;" kvg:position="right" kvg:phon="&#26140;"><g id="kvg:063da-g3" kvg:element="&#26086;" kvg:position="top"><g id="kvg:063da-g4" kvg:element="&#26085;"><path id="kvg:063da-s4" kvg:type="&#12753;" d="M51.55,13.58c0.81,0.81,1.07,1.67,1.31,2.93c0.72,3.85,1.93,13.86,2.76,19.73c0.34,2.39,0.57,4.06,0.6,4.29"/><path id="kvg:063da-s5" kvg:type="&#12757;a" d="M53.79,15.78c4.77-0.69,18.4-2.6,26.1-3.38c2.8-0.28,4.74,0.14,4.32,3.38c-0.71,5.48-1.98,14.42-2.84,19.62c-0.14,0.87-0.57,3.04-0.57,3.63"/><path id="kvg:063da-s6" kvg:type="&#12752;a" d="M55.36,26.62c8.51-1.24,20.39-2.49,26.58-2.83"/><path id="kvg:063da-s7" kvg:type="&#12752;a" d="M57.29,37.97c4.36-0.59,17.67-1.81,23.04-2.3"/></g><g id="kvg:063da-g5" kvg:element="&#19968;"><path id="kvg:063da-s8" kvg:type="&#12752;" d="M42.91,49.82c2.86,0.79,6.22,0.38,9.11,0.01c11.35-1.45,22.98-2.95,35.23-4.15c2.79-0.27,5.6-0.32,8.37,0.14"/></g></g><g id="kvg:063da-g6" kvg:element="&#21247;" kvg:position="bottom"><g id="kvg:063da-g7" kvg:element="&#21241;"><g id="kvg:063da-g8" kvg:element="&#20031;"><path id="kvg:063da-s9" kvg:type="&#12754;" d="M53.65,53.65c0.04,0.48,0.15,1.26-0.09,1.94C52,60,47.25,66.5,40,71"/></g><path id="kvg:063da-s10" kvg:type="&#12742;" d="M54.82,60.3c2.43,0.7,4.77,0.41,6.68,0.19c7.01-0.81,20.2-2.75,26.01-3.46c4.99-0.61,6.99,0.78,5.73,6c-1.28,5.32-6.2,20.56-12.07,29.21c-2.84,4.19-5.15,3.83-8.62,0.42"/></g><g id="kvg:063da-g9" kvg:element="&#20031;"><path id="kvg:063da-s11" kvg:type="&#12754;" d="M61.68,63.85c0.1,0.91,0.04,1.66-0.4,2.46c-2.91,5.32-8.66,12.19-17.6,17.75"/></g><g id="kvg:063da-g10" kvg:element="&#20031;"><path id="kvg:063da-s12" kvg:type="&#12754;" d="M76.88,62.14c0.08,0.87-0.17,2.04-0.67,3.23C73.25,72.5,65.12,85.5,52.66,93.68"/></g></g></g></g></g></svg>