<svg xmlns="http://www.w3.org/2000/svg" width="109" height="109" viewBox="0 0 109 109"><g xmlns:kvg="http://kanjivg.tagaini.net" id="kvg:StrokePaths_063e3" style="fill:none;stroke:#000000;stroke-width:3;stroke-linecap:round;stroke-linejoin:round;"><g id="kvg:063e3" kvg:element="&#25571;"><g id="kvg:063e3-g1" kvg:element="&#25164;" kvg:variant="true" kvg:original="&#25163;" kvg:position="left" kvg:radical="general"><path id="kvg:063e3-s1" kvg:type="&#12752;" d="M11,38.42c2.16,0.25,1.32,0.55,3.62,0.25c5.7-0.75,15.55-2,25.04-3.17"/><path id="kvg:063e3-s2" kvg:type="&#12762;" d="M26.18,13.5c0.51,0.96,1.83,2.59,1.83,5.76c0,15.89,0.25,58.91,0.25,70.84c0,14.87-6.6,3.68-8.1,2.09"/><path id="kvg:063e3-s3" kvg:type="&#12736;" d="M10.5,67.49c0.89,1.06,2.32,1.68,4.29,0.7c1.16-0.58,19.69-12.01,24.62-14.78"/></g><g id="kvg:063e3-g2" kvg:position="right"><g id="kvg:063e3-g3" kvg:element="&#23665;" kvg:position="top"><path id="kvg:063e3-s4" kvg:type="&#12753;a" d="M64.79,13c1.35,1.35,2.03,2,2.03,3.43c0,6.07-0.08,12.25-0.2,16.78"/><path id="kvg:063e3-s5" kvg:type="&#12740;a" d="M47.67,20.2c0.69,0.41,1.49,2.15,1.38,2.97c-0.46,3.66-1.73,7.37-2.35,10.84c-0.33,1.85,0.79,2.05,2.5,1.73C60,33.75,77.9,32.05,86.58,31.82"/><path id="kvg:063e3-s6" kvg:type="&#12753;" d="M87.28,17.46c0.62,0.36,1.32,2.71,1.22,3.43c-0.61,4.44-1.26,8.6-1.72,14.35"/></g><g id="kvg:063e3-g4" kvg:element="&#32780;" kvg:position="bottom"><g id="kvg:063e3-g5" kvg:position="top"><path id="kvg:063e3-s7" kvg:type="&#12752;" d="M42.29,47.7c1.33,0.49,3.77,0.56,5.09,0.49c10.23-0.51,27.25-3.24,41.75-3.5c2.21-0.04,3.54,0.23,4.65,0.48"/><path id="kvg:063e3-s8" kvg:type="&#12754;" d="M63.47,49.56c0.02,0.29,0.04,0.74-0.04,1.16c-0.49,2.44-3.28,7.8-7.1,11.08"/></g><g id="kvg:063e3-g6" kvg:position="bottom"><g id="kvg:063e3-g7" kvg:element="&#20866;"><path id="kvg:063e3-s9" kvg:type="&#12753;" d="M43.5,63.32c0.49,0.85,1.54,2.2,1.66,3.73c0.16,2.2,1.8,28.23,1.8,30.77"/><path id="kvg:063e3-s10" kvg:type="&#12742;a" d="M44.91,65.25c12.34-1.5,42.23-3.92,43.33-4.13c2.62-0.51,4.26,1.02,4.26,3.05c0,2.88-0.95,23.02-1.65,27.79c-1.1,7.55-4.1,4.05-6.24,1.02"/></g><path id="kvg:063e3-s11" kvg:type="&#12753;" d="M58.76,66.43c0.65,0.62,1.09,1.35,1.15,3.4c0.34,10.67,0.59,21.92,0.8,25.63"/><path id="kvg:063e3-s12" kvg:type="&#12753;" d="M73.14,64.72c0.65,0.62,1.24,1.35,1.15,3.4c-0.54,12.63-0.79,20.13-1.33,27.18"/></g></g></g></g></g></svg>