<svg xmlns="http://www.w3.org/2000/svg" width="109" height="109" viewBox="0 0 109 109"><g xmlns:kvg="http://kanjivg.tagaini.net" id="kvg:StrokePaths_06436" style="fill:none;stroke:#000000;stroke-width:3;stroke-linecap:round;stroke-linejoin:round;"><g id="kvg:06436" kvg:element="&#25654;"><g id="kvg:06436-g1" kvg:element="&#25164;" kvg:variant="true" kvg:original="&#25163;" kvg:position="left" kvg:radical="general"><path id="kvg:06436-s1" kvg:type="&#12752;" d="M11,35.42c2.08,0.25,1.27,0.55,3.5,0.25C20,34.92,30,33.17,39.17,32"/><path id="kvg:06436-s2" kvg:type="&#12762;" d="M25.77,12.5c0.48,0.92,1.76,2.49,1.76,5.52c0,15.23,0.24,60.46,0.24,71.9c0,14.25-6.82,3.53-8.27,2"/><path id="kvg:06436-s3" kvg:type="&#12736;" d="M11.5,65.03c0.83,1.03,2.14,1.63,3.96,0.68c1.07-0.56,18.99-11.35,23.54-14.04"/></g><g id="kvg:06436-g2" kvg:element="&#20489;" kvg:position="right"><g id="kvg:06436-g3" kvg:element="&#20154;" kvg:position="top"><path id="kvg:06436-s4" kvg:type="&#12754;" d="M65.71,10.25c0.07,0.82,0.35,2.2-0.13,3.31c-3.33,7.69-10.33,20.69-23.08,31.69"/><path id="kvg:06436-s5" kvg:type="&#12751;" d="M65.14,15c4.3,5.02,22.83,21.43,27.58,25.11c1.61,1.25,3.68,1.78,5.29,2.14"/></g><g id="kvg:06436-g4" kvg:position="bottom"><path id="kvg:06436-s6" kvg:type="&#12752;" d="M55.11,37.23c0.55,0,2.56,0.42,3.74,0.28c3.99-0.46,10.48-1.04,15.3-1.65c2.08-0.26,2.7-0.44,3.61-0.44"/><path id="kvg:06436-s7" kvg:type="&#12757;" d="M49,46.5c0.95,0.27,3.03,0.35,5,0.3c8.87-0.23,25.5-2.65,26.88-2.79c1.4-0.15,2.91,0.74,2.76,2.5c-0.25,2.78-2.01,11.37-3.08,19.57"/><path id="kvg:06436-s8" kvg:type="&#12752;" d="M52.95,57.84c2.48-0.1,26.03-2.8,28.83-2.91"/><path id="kvg:06436-s9" kvg:type="&#12752;" d="M51.36,68.63c5.11-0.6,25.07-2.13,31.41-2.73"/><path id="kvg:06436-s10" kvg:type="&#12754;" d="M53.12,47c0.53,0.72,0.29,2.28,0.18,3.83c-0.72,10.21-2.8,32.42-15.14,41.92"/><g id="kvg:06436-g5" kvg:element="&#21475;"><path id="kvg:06436-s11" kvg:type="&#12753;" d="M51.71,77.88c0.33,0.35,0.67,0.63,0.81,1.07c1.15,3.43,2.02,13.89,2.8,20.05"/><path id="kvg:06436-s12" kvg:type="&#12757;b" d="M53.27,79.71c7.16-1.21,26.77-3.77,30.64-4.22c1.42-0.17,2.27,0.98,2.06,1.94c-0.84,4.01-2.82,10.35-4.07,15.89"/><path id="kvg:06436-s13" kvg:type="&#12752;b" d="M55.49,95.99c4.55-0.51,23.1-1.39,29.34-2.17"/></g></g></g></g></g></svg>