<svg xmlns="http://www.w3.org/2000/svg" width="109" height="109" viewBox="0 0 109 109"><g xmlns:kvg="http://kanjivg.tagaini.net" id="kvg:StrokePaths_06495" style="fill:none;stroke:#000000;stroke-width:3;stroke-linecap:round;stroke-linejoin:round;"><g id="kvg:06495" kvg:element="&#25749;"><g id="kvg:06495-g1" kvg:element="&#25164;" kvg:variant="true" kvg:original="&#25163;" kvg:position="left" kvg:radical="general"><path id="kvg:06495-s1" kvg:type="&#12752;" d="M10,35.92c2.08,0.25,1.27,0.55,3.5,0.25c5.5-0.75,13.5-1.5,22.67-2.67"/><path id="kvg:06495-s2" kvg:type="&#12762;" d="M24.74,12.5c0.49,0.93,1.78,2.52,1.78,5.59c0,15.42,0.25,57.16,0.25,68.74c0,14.43-6.4,3.58-7.86,2.03"/><path id="kvg:06495-s3" kvg:type="&#12736;" d="M11.5,62.1c0.82,0.97,2.12,1.54,3.92,0.64c1.06-0.53,16.9-9.54,21.41-12.07"/></g><g id="kvg:06495-g2" kvg:element="&#26031;" kvg:position="right"><g id="kvg:06495-g3" kvg:element="&#20854;" kvg:position="left"><g id="kvg:06495-g4" kvg:position="top"><g id="kvg:06495-g5" kvg:element="&#29976;"><g id="kvg:06495-g6" kvg:element="&#24319;" kvg:part="1"><g id="kvg:06495-g7" kvg:element="&#21313;"><path id="kvg:06495-s4" kvg:type="&#12752;" d="M37.12,27.84c1.02,0.16,2.75,0.42,3.23,0.34c4.44-0.68,17.76-2.68,23.21-3.25c0.8-0.08,2.02,0.16,2.42,0.33"/><path id="kvg:06495-s5" kvg:type="&#12753;a" d="M44.62,15.78c0.56,0.48,0.89,2.15,1,3.11c0.11,0.96,0,43.27-0.11,49.24"/></g><path id="kvg:06495-s6" kvg:type="&#12753;a" d="M58.45,14c0.56,0.48,0.89,2.15,1,3.11c0.11,0.96,0,44.14-0.11,50.11"/></g><path id="kvg:06495-s7" kvg:type="&#12752;a" d="M45.83,41.87c2.05-0.24,11.4-1.89,13.32-2.13"/><g id="kvg:06495-g8" kvg:element="&#24319;" kvg:part="2"><path id="kvg:06495-s8" kvg:type="&#12752;a" d="M45.71,55.77c2.31-0.24,10.63-1.65,13.33-2.13"/></g></g><path id="kvg:06495-s9" kvg:type="&#12752;" d="M35.47,69.68c1.03,0.82,2.48,0.53,3.19,0.5c5.84-0.19,18.33-1.44,26.06-2.36c1.16-0.14,1.87,0.24,2.45,0.49"/></g><g id="kvg:06495-g9" kvg:element="&#20843;" kvg:position="bottom"><path id="kvg:06495-s10" kvg:type="&#12754;" d="M45.8,77.71c0.03,0.39,0.07,1.02-0.07,1.59C44.9,82.65,40.15,90,33.64,94.5"/><path id="kvg:06495-s11" kvg:type="&#12756;/&#12751;" d="M55.46,76.25c2.51,1.46,6.48,5.99,7.11,8.25"/></g></g><g id="kvg:06495-g10" kvg:element="&#26020;" kvg:position="right"><path id="kvg:06495-s12" kvg:type="&#12754;" d="M91.99,13.25c0.04,0.34,0.18,1-0.08,1.36c-3.63,4.98-8.26,8.74-15.91,13.02"/><path id="kvg:06495-s13" kvg:type="&#12754;" d="M73.71,28.33c1.19,2.01,1.2,3.92,1.17,6.1c-0.1,6.59-0.18,8.31-0.18,16.16c0,14.36-2.53,32.12-11.2,42.22"/><path id="kvg:06495-s14" kvg:type="&#12752;" d="M74.91,41.8c0.25,0.17,1.21,0.2,1.9,0.1c4.44-0.65,14.77-1.74,18.94-2.27c0.67-0.09,1.83-0.17,2.25,0"/><path id="kvg:06495-s15" kvg:type="&#12753;" d="M86.72,44.48c0.62,0.61,0.99,2.75,1.11,3.97c0.12,1.22,0,41.17-0.12,48.8"/></g></g></g></g></svg>