<svg xmlns="http://www.w3.org/2000/svg" width="109" height="109" viewBox="0 0 109 109"><g xmlns:kvg="http://kanjivg.tagaini.net" id="kvg:StrokePaths_064d8" style="fill:none;stroke:#000000;stroke-width:3;stroke-linecap:round;stroke-linejoin:round;"><g id="kvg:064d8" kvg:element="&#25816;"><g id="kvg:064d8-g1" kvg:element="&#36767;" kvg:position="top"><g id="kvg:064d8-g2" kvg:position="left"><g id="kvg:064d8-g3" kvg:position="tare"><g id="kvg:064d8-g4" kvg:element="&#23608;"><path id="kvg:064d8-s1" kvg:type="&#12757;c" d="M18.88,15.32c1.13,0.27,3.32,0.51,4.52,0.45c6.46-0.3,18.07-2.84,20.66-2.95c1.28-0.05,2.45,0.69,2.18,1.47c-0.67,1.93-1.54,6.37-2.6,10.66"/><path id="kvg:064d8-s2" kvg:type="&#12752;b" d="M21.92,27.49c3.24-0.09,16.07-1.66,24.42-2.04"/><path id="kvg:064d8-s3" kvg:type="&#12754;" d="M22.65,16.09c0,1.46-0.24,4.15-0.26,5.52c-0.17,9.91-3.81,22.5-11.84,28.85"/></g><g id="kvg:064d8-g5" kvg:element="&#21475;"><path id="kvg:064d8-s4" kvg:type="&#12753;" d="M22.09,34.87c0.14,0.41,0.62,1.34,0.67,1.65c0.35,2.28,1.44,7.92,1.94,12.23"/><path id="kvg:064d8-s5" kvg:type="&#12757;b" d="M22.81,35.92c3.96-0.46,18.36-2.52,21.06-2.59c1.12-0.03,1.54,0.96,1.38,1.64c-0.61,2.69-2.12,5.99-2.71,9.43"/><path id="kvg:064d8-s6" kvg:type="&#12752;b" d="M24.91,46.54c3.27-0.19,15.46-1.56,19.38-1.8"/></g></g></g><g id="kvg:064d8-g6" kvg:element="&#36763;" kvg:position="right"><g id="kvg:064d8-g7" kvg:element="&#31435;" kvg:position="top"><g id="kvg:064d8-g8" kvg:element="&#20128;" kvg:position="top"><path id="kvg:064d8-s7" kvg:type="&#12753;a" d="M67.5,9.09c1.26,0.72,1.88,0.72,1.88,2.4c0,1.68,0,3.12,0,5.32"/><path id="kvg:064d8-s8" kvg:type="&#12752;" d="M52.36,17.89c1.05,0.32,2.29,0.37,3.34,0.32c5.95-0.27,18.93-2.51,27.93-2.74c1.75-0.05,2.81,0.15,3.69,0.31"/></g><g id="kvg:064d8-g9" kvg:position="bottom"><path id="kvg:064d8-s9" kvg:type="&#12756;" d="M59.08,20.32c2.67,2.56,3.88,5.17,4.12,6.85"/><path id="kvg:064d8-s10" kvg:type="&#12754;" d="M79.55,18.89c0.44,0.27,0.15,1.28,0.02,1.49c-1.29,2.07-2.93,5.6-3.82,6.78"/><path id="kvg:064d8-s11" kvg:type="&#12752;" d="M50.47,30.1c1.23,0.42,2.66,0.46,3.89,0.42c7.82-0.24,23.14-3.04,32.3-3.29c2.05-0.06,3.27,0.2,4.3,0.41"/></g></g><g id="kvg:064d8-g10" kvg:element="&#21313;" kvg:position="bottom"><path id="kvg:064d8-s12" kvg:type="&#12752;" d="M54.33,39.05c0.84,0.26,2.38,0.32,3.21,0.26c10.65-0.84,16.63-2.07,26.5-2.6c1.39-0.08,2.23,0.12,2.93,0.25"/><path id="kvg:064d8-s13" kvg:type="&#12753;" d="M68.5,31.67c0.31,0.16,0.98,1.16,1.04,1.47c0.36,1.78-0.09,12.69-0.1,13.15"/></g></g></g><g id="kvg:064d8-g11" kvg:element="&#25163;" kvg:position="bottom" kvg:radical="general"><path id="kvg:064d8-s14" kvg:type="&#12754;" d="M77.44,47.5c0.13,0.27,0.27,0.68-0.26,1.06C74.02,50.81,55.85,55.74,31,58.76"/><path id="kvg:064d8-s15" kvg:type="&#12752;" d="M26.88,67.3c1.19,0.34,3.36,0.42,4.55,0.34c14.89-0.95,24.89-2.43,47.78-3.86c1.97-0.12,5.18-0.14,6.17,0.03"/><path id="kvg:064d8-s16" kvg:type="&#12752;" d="M16.4,78.72c1.72,0.49,4.88,0.6,6.6,0.49c13-0.81,37.07-3.96,65.25-3.88c2.87,0.01,4.6,0.23,6.03,0.48"/><path id="kvg:064d8-s17" kvg:type="&#12757;v" d="M54.65,58.22c6.64,8.78,7.6,22.53,4.6,33.75c-2.5,9.36-6.76,6.04-10.06,1.5"/></g></g></g></svg>