<svg xmlns="http://www.w3.org/2000/svg" width="109" height="109" viewBox="0 0 109 109"><g xmlns:kvg="http://kanjivg.tagaini.net" id="kvg:StrokePaths_064e7" style="fill:none;stroke:#000000;stroke-width:3;stroke-linecap:round;stroke-linejoin:round;"><g id="kvg:064e7" kvg:element="&#25831;"><g id="kvg:064e7-g1" kvg:element="&#33287;" kvg:position="top" kvg:phon="&#33287;"><g id="kvg:064e7-g2" kvg:position="top"><path id="kvg:064e7-s1" kvg:type="&#12752;" d="M50.29,18.55c4.86-0.22,7.04-1.52,10.25-1.74c0.91-0.06,1.75,0.08,2.21,0.16"/><path id="kvg:064e7-s2" kvg:type="&#12743;" d="M51.02,9.05c0.79,0.73,0.67,2.73,0.16,3.89c-0.59,1.33-2.42,9.31-3.66,13.74c-0.54,1.94,0.24,2.31,2.6,1.83c1.68-0.34,4.64-0.86,8.87-1.25c1.77-0.16,3.18,0.68,2.87,2.01c-1.58,6.8-2.35,12.33-3.61,20.64"/><path id="kvg:064e7-s3" kvg:type="&#12753;" d="M48.37,34.14c1.09,0.38,1.92,1.67,1.96,2.44c0.17,3.17-0.08,7.77-0.08,13.79"/><g id="kvg:064e7-g3" kvg:element="&#158033;" kvg:variant="true" kvg:original="&#33276;"><path id="kvg:064e7-s4" kvg:type="&#12754;" d="M39.11,10.64c0.03,0.2,0.1,0.57-0.05,0.8c-1.93,2.8-4.78,5.37-9.81,7.63"/><path id="kvg:064e7-s5" kvg:type="&#12753;" d="M25.37,19.35c1.09,0.38,1.82,1.68,1.96,2.44c0.42,2.26,2.17,22.81,2.92,29.77"/><path id="kvg:064e7-s6" kvg:type="&#12752;" d="M28.25,29.57c3.48-0.39,6.94-1.15,9.78-1.57c1.25-0.19,2.78-0.31,3.47-0.31"/><path id="kvg:064e7-s7" kvg:type="&#12752;" d="M29,39.35c4-0.38,6.97-1.01,10.02-1.21c1.07-0.07,2.51-0.11,3.23-0.11"/><path id="kvg:064e7-s8" kvg:type="&#12757;" d="M69.6,15.89c1.4,0.01,2.34,0.41,4.23,0.09c4.93-0.83,10.02-3.12,10.59-3.12c1.61,0,2.45,0.89,2.1,2.06C85,20.11,83,41.6,82,48.75"/><path id="kvg:064e7-s9" kvg:type="&#12752;" d="M70,25.81c0.71,0.12,2.17,0.53,3.25,0.51c3.87-0.08,10.27-1.51,11.25-1.51"/><path id="kvg:064e7-s10" kvg:type="&#12752;" d="M69.5,37.53c0.62,0.1,2.3,0.53,3,0.55c3.27,0.1,8-0.86,11-1.05"/></g><path id="kvg:064e7-s11" kvg:type="&#12752;" d="M12.25,51.75c1.57,0.48,4.44,0.57,6.01,0.48c12.32-0.66,55.18-3.34,75-3.78c2.61-0.06,4.18,0.23,5.49,0.47"/></g><g id="kvg:064e7-g4" kvg:element="&#20843;" kvg:position="bottom"><g id="kvg:064e7-g5" kvg:position="left"><path id="kvg:064e7-s12" kvg:type="&#12754;" d="M40.24,53.19c0.07,0.58,0.31,1.56-0.14,2.32C37,60.75,28.75,68.75,15.31,77.72"/></g><g id="kvg:064e7-g6" kvg:position="right"><path id="kvg:064e7-s13" kvg:type="&#12751;" d="M65.75,51.5c3.51,2.87,20,17.28,23.81,20.11c1.29,0.96,2.4,1.37,3.69,1.64"/></g></g></g><g id="kvg:064e7-g7" kvg:element="&#25163;" kvg:position="bottom" kvg:radical="general"><path id="kvg:064e7-s14" kvg:type="&#12754;" d="M64.5,58c0.07,0.2,0.15,0.52-0.14,0.8c-1.77,1.7-11.94,5.42-25.85,7.71"/><path id="kvg:064e7-s15" kvg:type="&#12752;" d="M34.38,73.36c0.94,0.32,2.66,0.4,3.6,0.32c11.77-0.89,13.18-1.29,31.27-2.63c1.56-0.12,4.1-0.13,4.88,0.03"/><path id="kvg:064e7-s16" kvg:type="&#12752;" d="M24.9,83.79c1.26,0.44,3.57,0.53,4.83,0.44c9.52-0.72,34.27-3.47,51.89-3.9c2.1-0.05,3.36,0.21,4.41,0.42"/><path id="kvg:064e7-s17" kvg:type="&#12757;v" d="M52.38,63.72c5.87,7.84,9.62,20.78,6.45,30.1c-2.78,8.18-6.58,3.93-9.89,0.89"/></g></g></g></svg>