<svg xmlns="http://www.w3.org/2000/svg" width="109" height="109" viewBox="0 0 109 109"><g xmlns:kvg="http://kanjivg.tagaini.net" id="kvg:StrokePaths_064f4" style="fill:none;stroke:#000000;stroke-width:3;stroke-linecap:round;stroke-linejoin:round;"><g id="kvg:064f4" kvg:element="&#25844;"><g id="kvg:064f4-g1" kvg:element="&#25164;" kvg:variant="true" kvg:original="&#25163;" kvg:position="left" kvg:radical="general"><path id="kvg:064f4-s1" kvg:type="&#12752;" d="M12.5,33.92c2.08,0.25,1.27,0.55,3.5,0.25c5.5-0.75,13.5-2,22.67-3.17"/><path id="kvg:064f4-s2" kvg:type="&#12762;" d="M25.81,12c0.49,0.94,1.79,2.54,1.79,5.64c0,15.56,0.25,57.69,0.25,69.37c0,14.56-6.46,3.61-7.93,2.04"/><path id="kvg:064f4-s3" kvg:type="&#12736;" d="M12.5,62.53c0.87,1.03,2.25,1.63,4.17,0.68c1.13-0.56,14.92-9.85,19.71-12.54"/></g><g id="kvg:064f4-g2" kvg:element="&#24291;" kvg:position="right"><g id="kvg:064f4-g3" kvg:element="&#24191;" kvg:position="tare"><path id="kvg:064f4-s4" kvg:type="&#12753;a" d="M63.6,10.63c0.49,0.31,1.51,2.35,1.61,2.98c0.1,0.63,0.05,4.92-0.05,8.85"/><g id="kvg:064f4-g4" kvg:element="&#21378;"><path id="kvg:064f4-s5" kvg:type="&#12752;" d="M41.31,24.09c1.28,0.5,3.62,0.58,4.9,0.5c13.29-0.84,29.42-3.58,42.3-4.24c2.13-0.11,3.4,0.24,4.47,0.49"/><path id="kvg:064f4-s6" kvg:type="&#12754;" d="M44.34,25.07c0.18,1.44,0.35,3.02,0.31,5.27C44.33,45.39,44,67.75,33.56,89.87"/></g></g><g id="kvg:064f4-g5" kvg:element="&#40643;" kvg:variant="true" kvg:original="&#40644;"><path id="kvg:064f4-s7" kvg:type="&#12752;" d="M48.5,37.38c0.94,0.35,2.66,0.42,3.59,0.35c11.46-0.77,24.77-3.77,35.16-4.52c1.56-0.11,2.5,0.17,3.28,0.34"/><path id="kvg:064f4-s8" kvg:type="&#12753;" d="M57.74,29.47c0.37,0.24,1.15,1.76,1.17,2.24c0.11,3.22,1.34,9.29,1.97,16.27"/><path id="kvg:064f4-s9" kvg:type="&#12753;" d="M75.65,27.16c0.37,0.28,0.8,2.06,0.74,2.61c-0.37,3.38-0.68,7.12-1.29,13.42"/><path id="kvg:064f4-s10" kvg:type="&#12752;" d="M61.15,46.26c2.4,0,12.86-1.73,15.55-1.73"/><path id="kvg:064f4-s11" kvg:type="&#12752;" d="M46.45,54.84c1.17,0.44,3.32,0.54,4.49,0.44c10.84-0.89,24.69-3.57,37.88-3.74c1.95-0.03,3.12,0.21,4.1,0.43"/><path id="kvg:064f4-s12" kvg:type="&#12753;" d="M49.88,63.4c0.56,0.36,1.32,1.88,1.37,2.35c0.35,3.62,2.19,12.64,2.83,19.64"/><path id="kvg:064f4-s13" kvg:type="&#12757;" d="M52.02,64.83c10.11-1.61,26.7-4,32.47-4.1c2.39-0.04,3.26,1.35,3.13,2.3c-0.47,3.48-1.87,10.22-3.86,18.61"/><path id="kvg:064f4-s14" kvg:type="&#12753;" d="M66.74,54.6c0.53,0.29,0.98,1.79,0.99,2.15c0.01,6.05,0.11,22.07,0.11,23.68"/><path id="kvg:064f4-s15" kvg:type="&#12752;" d="M53.35,72.79c2.83-0.17,29.96-3.1,32.29-3.1"/><path id="kvg:064f4-s16" kvg:type="&#12752;" d="M54.86,82.02c8.19-1.21,19.34-2.35,28.98-2.79"/><path id="kvg:064f4-s17" kvg:type="&#12754;" d="M60.9,86.34c0.04,0.31,0.1,0.81-0.09,1.26c-1.08,2.66-7.25,7.58-15.71,11.15"/><path id="kvg:064f4-s18" kvg:type="&#12756;" d="M76.29,86.72c4.93,1.86,12.73,7.67,13.97,10.57"/></g></g></g></g></svg>