<svg xmlns="http://www.w3.org/2000/svg" width="109" height="109" viewBox="0 0 109 109"><g xmlns:kvg="http://kanjivg.tagaini.net" id="kvg:StrokePaths_06500" style="fill:none;stroke:#000000;stroke-width:3;stroke-linecap:round;stroke-linejoin:round;"><g id="kvg:06500" kvg:element="&#25856;"><g id="kvg:06500-g1" kvg:element="&#27146;" kvg:position="top"><g id="kvg:06500-g2" kvg:position="top"><g id="kvg:06500-g3" kvg:element="&#26408;"><path id="kvg:06500-s1" kvg:type="&#12752;" d="M58.83,9.03c0.04,0.39,0.09,1.01-0.08,1.58c-1.03,3.32-6.91,10.62-14.97,15.08"/><path id="kvg:06500-s2" kvg:type="&#12753;" d="M45.92,12.85c4.96,1.25,11.56,7.54,13.49,11.9"/><path id="kvg:06500-s3" kvg:type="&#12754;" d="M57.89,30.59c0.04,0.37,0.09,0.95-0.08,1.47c-1.05,3.11-7.06,9.92-15.29,14.1"/><path id="kvg:06500-s4" kvg:type="&#12751;" d="M46,33.85c4.88,2.22,10.7,7.15,13.42,10.58"/></g><g id="kvg:06500-g4" kvg:element="&#29243;"><g id="kvg:06500-g5" kvg:position="top"><g id="kvg:06500-g6" kvg:element="&#20034;"><g id="kvg:06500-g7" kvg:element="&#20031;"><path id="kvg:06500-s5" kvg:type="&#12754;" d="M14.79,22.11c0.35,0.29,2.44,0.41,3.38,0.37c7.59-0.33,12.51-1.51,22.01-2.26c0.95-0.07,1.18-0.28,1.77,0"/></g><path id="kvg:06500-s6" kvg:type="&#12751;" d="M30.21,10.2c0.54,0.32,1.2,1.36,1.2,3.01c0,0.65-0.07,31.5-0.18,35.47"/></g><g id="kvg:06500-g8" kvg:element="&#26408;"><path id="kvg:06500-s7" kvg:type="&#12752;" d="M30.87,23.35c-6.12,8.92-9.53,12.68-19.01,20.49"/><path id="kvg:06500-s8" kvg:type="&#12753;" d="M33.21,27.61c2.35,1.32,5.6,5.86,7.58,8.43"/><path id="kvg:06500-s9" kvg:type="&#12754;" d="M66.24,20.19c0.67,0.25,1.43,0.33,2.21,0.25c3.93-0.41,16.94-1.85,22.88-2.34c0.77-0.06,1.25,0.04,2.01,0.22"/><path id="kvg:06500-s10" kvg:type="&#12751;" d="M77.47,9.44c0.71,0.33,1.27,1.45,1.27,2.12c0,6.84,0,29.97-0.14,34.05"/></g></g><g id="kvg:06500-g9" kvg:element="&#20034;" kvg:position="bottom"><g id="kvg:06500-g10" kvg:element="&#20031;"><path id="kvg:06500-s11" kvg:type="&#12754;" d="M78.51,20.25c-2.4,5.81-8.82,14.69-13.81,17.98"/></g><path id="kvg:06500-s12" kvg:type="&#12751;" d="M79.28,19.57c2.2,2.5,12.52,15.05,14.91,17.51c0.81,0.83,1.5,1.19,2.31,1.43"/></g></g></g><g id="kvg:06500-g11" kvg:element="&#22823;" kvg:position="bottom"><path id="kvg:06500-s13" kvg:type="&#12752;" d="M13.47,54.78c1.15,0.56,4.21,1.13,6.66,0.97c16.49-1.07,51.02-2.81,65.86-3.62c2.55-0.14,4.6,0.37,6.9,0.8"/><path id="kvg:06500-s14" kvg:type="&#12754;" d="M52.05,46.16c0.2,0.84-0.05,2.01-0.58,2.65C42.75,59.25,31.25,68.25,13.35,74"/><path id="kvg:06500-s15" kvg:type="&#12751;" d="M65.5,53.74c6.14,4.24,20.46,15.03,26.59,17.87c2.09,0.96,2.81,1.11,3.76,1.2"/></g></g><g id="kvg:06500-g12" kvg:element="&#25163;" kvg:position="bottom" kvg:radical="general"><path id="kvg:06500-s16" kvg:type="&#12754;" d="M63.01,59.5c0.06,0.16,0.12,0.41-0.12,0.64c-1.43,1.35-9.65,4.31-20.89,6.12"/><path id="kvg:06500-s17" kvg:type="&#12752;" d="M32.38,73.86c0.94,0.32,2.66,0.4,3.6,0.32c11.77-0.89,17.18-1.79,35.27-3.13c1.56-0.12,4.1-0.13,4.88,0.03"/><path id="kvg:06500-s18" kvg:type="&#12752;" d="M19.4,83.85c1.28,0.38,3.64,0.46,4.92,0.38c9.69-0.63,37.46-3.48,58.47-3.41c2.14,0.01,3.43,0.18,4.5,0.37"/><path id="kvg:06500-s19" kvg:type="&#12757;v" d="M52.88,64.97c5.87,7.72,6.12,20.69,4.95,29.68c-1.1,8.45-4.83,4.21-8.89,0.88"/></g></g></g></svg>