<svg xmlns="http://www.w3.org/2000/svg" width="109" height="109" viewBox="0 0 109 109"><g xmlns:kvg="http://kanjivg.tagaini.net" id="kvg:StrokePaths_06575" style="fill:none;stroke:#000000;stroke-width:3;stroke-linecap:round;stroke-linejoin:round;"><g id="kvg:06575" kvg:element="&#25973;"><g id="kvg:06575-g1" kvg:position="left" kvg:phon="&#21831;"><g id="kvg:06575-g2" kvg:element="&#20128;"><path id="kvg:06575-s1" kvg:type="&#12753;a" d="M29.75,13.75c1,0.75,1.5,2,1.5,3.75s0,4.88,0,8"/><path id="kvg:06575-s2" kvg:type="&#12752;" d="M11,28.45c2.38,0.42,4.46,0.37,6.62,0.09c7.76-1.04,20.11-2.9,28.88-3.43c2.1-0.13,4.25-0.23,6.25-0.02"/></g><path id="kvg:06575-s3" kvg:type="&#12756;" d="M19.88,31.5c2.83,3.73,4.12,7.54,4.38,10"/><path id="kvg:06575-s4" kvg:type="&#12754;" d="M41.73,28.5c0.27,0.75,0.18,1.63,0.04,1.94c-1.4,3.18-3.69,8.06-4.78,9.81"/><g id="kvg:06575-g3" kvg:element="&#20866;"><path id="kvg:06575-s5" kvg:type="&#12753;" d="M12,43.73c0.88,0.88,1.42,2.25,1.29,3.63c-0.11,1.1,0.04,26.93,0.11,38.64c0.02,2.98,0.03,5.03,0.03,5.5"/><path id="kvg:06575-s6" kvg:type="&#12742;a" d="M14.54,45.52c5.09-0.61,23.59-2.9,32.75-4.07c2.17-0.28,3.48,0.3,3.48,2.59c0,1.29,0.1,41.09,0.1,44.62c0,7.96-4.62,1.84-6.63-0.08"/></g><g id="kvg:06575-g4" kvg:element="&#21476;"><g id="kvg:06575-g5" kvg:element="&#21313;" kvg:position="top"><path id="kvg:06575-s7" kvg:type="&#12752;" d="M19,55.31c1.4,0.48,2.73,0.5,4.16,0.3c4.43-0.59,12.76-1.88,17.6-2.21c0.9-0.06,2.51-0.28,3.5-0.08"/><path id="kvg:06575-s8" kvg:type="&#12753;a" d="M30.2,46.75c1.02,1.02,1.5,2.25,1.5,3.88c0,6.12,0.17,9.74,0.17,14.3"/></g><g id="kvg:06575-g6" kvg:element="&#21475;" kvg:position="bottom"><path id="kvg:06575-s9" kvg:type="&#12753;" d="M21.69,66.54c0.82,0.82,1.06,1.71,1.36,3.22c0.4,2.03,1.22,4.91,1.71,7.95c0.22,1.39,0.42,2.7,0.56,3.79"/><path id="kvg:06575-s10" kvg:type="&#12757;b" d="M23.21,67.17c5.16-0.8,12.66-1.8,16.62-2.35c1.18-0.16,2.04,0.67,1.73,2.01c-0.57,2.44-1.66,5.7-2.31,8.98"/><path id="kvg:06575-s11" kvg:type="&#12752;b" d="M26.04,78.4c2.76-0.14,7.14-0.77,11.25-1.24c1.09-0.13,2.11-0.22,2.99-0.27"/></g></g></g><g id="kvg:06575-g7" kvg:element="&#25908;" kvg:variant="true" kvg:original="&#25909;" kvg:position="right" kvg:radical="general"><g id="kvg:06575-g8" kvg:position="top"><path id="kvg:06575-s12" kvg:type="&#12754;" d="M68.56,14.89c0.19,0.98,0.2,1.71-0.06,2.87c-1.68,7.4-5.45,22.25-11.25,32.49"/><path id="kvg:06575-s13" kvg:type="&#12752;" d="M65.25,40.01c1.25,0.11,2.11-0.09,2.59-0.13c4.34-0.37,11.79-2.38,17.79-3.61c1.27-0.26,3.37-0.52,4.62-0.3"/></g><g id="kvg:06575-g9" kvg:element="&#20034;" kvg:position="bottom"><g id="kvg:06575-g10" kvg:element="&#20031;"><path id="kvg:06575-s14" kvg:type="&#12754;" d="M78.26,41.93c0.35,1.22,0.54,2.09,0.17,4.31c-3.3,20.2-10.18,36.39-22.18,45.26"/></g><path id="kvg:06575-s15" kvg:type="&#12751;" d="M58.04,55.51c2.28,0.56,20.11,21.2,31.51,30.1c2.21,1.72,4.83,3.9,7.46,4.65"/></g></g></g></g></svg>