<svg xmlns="http://www.w3.org/2000/svg" width="109" height="109" viewBox="0 0 109 109"><g xmlns:kvg="http://kanjivg.tagaini.net" id="kvg:StrokePaths_06589" style="fill:none;stroke:#000000;stroke-width:3;stroke-linecap:round;stroke-linejoin:round;"><g id="kvg:06589" kvg:element="&#25993;" kvg:variant="true" kvg:original="&#40778;" kvg:radical="general"><g id="kvg:06589-g1" kvg:element="&#25991;" kvg:position="top"><g id="kvg:06589-g2" kvg:element="&#20128;" kvg:position="top"><path id="kvg:06589-s1" kvg:type="&#12753;a" d="M52.29,10.5c1.17,1.17,1.64,2.5,1.64,4.37c0,1.63-0.06,4.63-0.06,6"/><path id="kvg:06589-s2" kvg:type="&#12752;" d="M21.16,23.97c3.46,0.4,5.85,0.25,8.97,0.04c11.62-0.81,35.96-2.88,49.36-3.49c2.88-0.13,5.5-0.15,8.83,0.76"/></g><g id="kvg:06589-g3" kvg:element="&#20034;" kvg:position="bottom"><path id="kvg:06589-s3" kvg:type="&#12754;" d="M67.09,24.5c-0.09,1.25-0.56,2.13-1.68,3.23C55.25,37.75,38.25,49.12,15.87,55"/><path id="kvg:06589-s4" kvg:type="&#12751;" d="M35.07,25.83c13.22,5.84,29.67,15.46,45.78,22.25c3.98,1.68,7.95,3.28,12.24,3.93"/></g></g><g id="kvg:06589-g4" kvg:position="bottom"><path id="kvg:06589-s5" kvg:type="&#12754;" d="M33.75,53.25c0.81,0.81,1.2,2.13,1.25,3.5c0.88,22.87-2.38,32.62-11.25,40.75"/><g id="kvg:06589-g5" kvg:element="&#20108;"><g id="kvg:06589-g6" kvg:position="top"><path id="kvg:06589-s6" kvg:type="&#12752;a" d="M36.25,60.25c10.82-0.58,28.25-1.71,37.75-2"/></g><g id="kvg:06589-g7" kvg:position="bottom"><path id="kvg:06589-s7" kvg:type="&#12752;a" d="M35.75,74.49c8.58-0.37,28.08-1.48,38-1.72"/></g></g><path id="kvg:06589-s8" kvg:type="&#12753;" d="M73.75,52.25c1.06,1.06,1.21,2.25,1.21,3.63c0,2.44-0.01,22.62-0.04,34.62c-0.01,4.33-0.03,7.46-0.04,8.09"/></g></g></g></svg>