<svg xmlns="http://www.w3.org/2000/svg" width="109" height="109" viewBox="0 0 109 109"><g xmlns:kvg="http://kanjivg.tagaini.net" id="kvg:StrokePaths_06587" style="fill:none;stroke:#000000;stroke-width:3;stroke-linecap:round;stroke-linejoin:round;"><g id="kvg:06587" kvg:element="&#25991;" kvg:radical="general"><g id="kvg:06587-g1" kvg:element="&#20128;" kvg:position="top"><path id="kvg:06587-s1" kvg:type="&#12753;a" d="M51.62,12.75c1.06,1.06,1.73,2.5,1.73,4.01c0,4.32-0.11,7.61-0.11,12.15"/><path id="kvg:06587-s2" kvg:type="&#12752;" d="M16.88,32.72c2.7,0.66,5.71,0.86,8.6,0.54c15.77-1.76,40.15-5.01,56.42-6.1c3.67-0.25,6.15,0.05,8.88,0.69"/></g><g id="kvg:06587-g2" kvg:element="&#20034;" kvg:position="bottom"><path id="kvg:06587-s3" kvg:type="&#12754;" d="M69.89,32.5c0.36,2.12,0.06,3.82-0.93,6.27C61.62,57,43.75,80.25,18.75,93.75"/><path id="kvg:06587-s4" kvg:type="&#12751;" d="M31,43.75c6,0,27.27,26.79,49.26,42.1c4.13,2.87,7.49,4.77,11.49,6.04"/></g></g></g></svg>