<svg xmlns="http://www.w3.org/2000/svg" width="109" height="109" viewBox="0 0 109 109"><g xmlns:kvg="http://kanjivg.tagaini.net" id="kvg:StrokePaths_065af" style="fill:none;stroke:#000000;stroke-width:3;stroke-linecap:round;stroke-linejoin:round;"><g id="kvg:065af" kvg:element="&#26031;"><g id="kvg:065af-g1" kvg:element="&#20854;" kvg:position="left"><g id="kvg:065af-g2" kvg:position="top"><g id="kvg:065af-g3" kvg:element="&#29976;"><g id="kvg:065af-g4" kvg:element="&#24319;" kvg:part="1"><g id="kvg:065af-g5" kvg:element="&#21313;"><path id="kvg:065af-s1" kvg:type="&#12752;" d="M14.59,32.59c2.66,0.79,5.27,0.79,7.52,0.6c7.96-0.69,17.89-2.06,25.4-2.69c2.3-0.19,4.53-0.43,6.79,0.01"/><path id="kvg:065af-s2" kvg:type="&#12753;a" d="M25.16,17.78c0.96,0.96,1.13,2.22,1.13,3.36c0,0.97,0,43.02-0.15,48.99"/></g><path id="kvg:065af-s3" kvg:type="&#12753;a" d="M44.2,15c0.96,0.96,1.13,2.12,1.13,3.61c0,2.77-0.08,42.17-0.08,49.64"/></g><path id="kvg:065af-s4" kvg:type="&#12752;a" d="M27.34,45.37c2.82-0.24,14.19-1.64,16.84-1.88"/><g id="kvg:065af-g6" kvg:element="&#24319;" kvg:part="2"><path id="kvg:065af-s5" kvg:type="&#12752;a" d="M27.41,57.52c3.18-0.24,12.88-1.4,16.59-1.88"/></g></g><path id="kvg:065af-s6" kvg:type="&#12752;" d="M11.63,71.93c2.59,0.38,5.18,0.34,7.76-0.12c7.57-0.71,19.54-1.83,28.49-2.63c2.62-0.43,5.25-0.47,7.89-0.11"/></g><g id="kvg:065af-g7" kvg:element="&#20843;" kvg:position="bottom"><path id="kvg:065af-s7" kvg:type="&#12754;" d="M27.23,75.21c0.11,1-0.02,1.95-0.4,2.85C25,82.12,20.62,88.25,13.25,94.5"/><path id="kvg:065af-s8" kvg:type="&#12756;/&#12751;" d="M39.4,75.75c3.21,1.9,7.8,8.3,8.6,11.25"/></g></g><g id="kvg:065af-g8" kvg:element="&#26020;" kvg:position="right" kvg:radical="general"><path id="kvg:065af-s9" kvg:type="&#12754;" d="M88.72,20.75c0.07,0.37,0.27,1.1-0.13,1.5C83.05,27.75,78.67,29.9,67,34.62"/><path id="kvg:065af-s10" kvg:type="&#12754;" d="M63.35,33.83c0.91,0.91,1.15,2.14,1.15,4.03c0,15.9,0.51,38.9-10.94,51.71"/><path id="kvg:065af-s11" kvg:type="&#12752;" d="M66.97,48.55c2.53,0.07,4.96-0.44,6.78-0.69C79.88,47,86.15,46.17,91,45.51c2.07-0.37,4.15-0.5,6.25-0.38"/><path id="kvg:065af-s12" kvg:type="&#12753;" d="M81.58,49.73c1.03,1.03,1.34,1.77,1.34,3.48c0,0.79-0.08,19.05-0.12,31.67c-0.02,4.56-0.03,8.38-0.03,10.37"/></g></g></g></svg>