<svg xmlns="http://www.w3.org/2000/svg" width="109" height="109" viewBox="0 0 109 109"><g xmlns:kvg="http://kanjivg.tagaini.net" id="kvg:StrokePaths_065bc" style="fill:none;stroke:#000000;stroke-width:3;stroke-linecap:round;stroke-linejoin:round;"><g id="kvg:065bc" kvg:element="&#26044;"><g id="kvg:065bc-g1" kvg:element="&#26041;" kvg:position="left" kvg:radical="general"><g id="kvg:065bc-g2" kvg:element="&#20128;" kvg:position="top"><path id="kvg:065bc-s1" kvg:type="&#12753;a" d="M34.53,15c1.17,1.17,1.41,2.64,1.41,3.72c0,3.98-0.13,9.03-0.13,14.35"/><path id="kvg:065bc-s2" kvg:type="&#12752;" d="M17.47,34.85c1.69,0.7,4.13,0.63,5.91,0.41c7.25-0.9,16.67-2.56,25.68-4.18c1.26-0.23,2.61-0.56,3.64-0.15"/></g><g id="kvg:065bc-g3" kvg:position="bottom"><path id="kvg:065bc-s3" kvg:type="&#12742;a" d="M33.52,45.23c2.23,0.77,4.67,1.47,8.05,2.25c1.18,0.27,2.07,2.04,1.86,3.51C41.75,62.5,36.75,77.75,30.61,85.8c-3.77,4.94-6.21-0.19-7.32-0.86"/><path id="kvg:065bc-s4" kvg:type="&#12754;" d="M33.71,37.26c0.29,1.13,0.23,2.39-0.11,3.66c-2.39,8.73-8.84,24.33-19.58,34.64"/></g></g><g id="kvg:065bc-g4" kvg:position="right"><path id="kvg:065bc-s5" kvg:type="&#12754;" d="M68.31,15.75c0.05,0.76,0.21,1.99-0.09,3.05C66.25,25.75,60.25,38.75,52,48"/><path id="kvg:065bc-s6" kvg:type="&#12751;" d="M68.25,20.25c4,4.62,14.66,17.05,20.95,23.54c2.08,2.15,4.17,3.92,6.55,5.71"/><g id="kvg:065bc-g5" kvg:element="&#20907;" kvg:variant="true"><g id="kvg:065bc-g6" kvg:element="&#20022;" kvg:position="top"><path id="kvg:065bc-s7" kvg:type="&#12756;" d="M62.27,52.58c5.98,2.92,13.23,8.79,16.54,13.88"/></g><g id="kvg:065bc-g7" kvg:element="&#20022;" kvg:position="bottom"><path id="kvg:065bc-s8" kvg:type="&#12756;" d="M57.27,76.08c9.1,3.24,21.86,12.29,25.54,18.13"/></g></g></g></g></g></svg>