<svg xmlns="http://www.w3.org/2000/svg" width="109" height="109" viewBox="0 0 109 109"><g xmlns:kvg="http://kanjivg.tagaini.net" id="kvg:StrokePaths_065b9" style="fill:none;stroke:#000000;stroke-width:3;stroke-linecap:round;stroke-linejoin:round;"><g id="kvg:065b9" kvg:element="&#26041;" kvg:radical="general"><g id="kvg:065b9-g1" kvg:element="&#20128;" kvg:position="top"><path id="kvg:065b9-s1" kvg:type="&#12753;a" d="M52.86,12c1.07,1.07,1.73,2.5,1.73,4.41c0,4.84-0.15,7.84-0.15,11.65"/><path id="kvg:065b9-s2" kvg:type="&#12752;" d="M15.5,31.61c2.5,0.64,6.38,0.89,10.02,0.55C43.97,30.41,67.12,28,85.87,27.2c3.88-0.16,6.36,0.05,9.25,0.7"/></g><g id="kvg:065b9-g2" kvg:position="bottom"><path id="kvg:065b9-s3" kvg:type="&#12742;a" d="M53.48,47.2c6.64,1.17,13.39,0.92,18.51,0.41c3.41-0.34,5.18,1.75,4.67,4.36c-2.03,10.4-10.53,33.53-16.54,41.1c-4.79,6.04-7.12,1.17-10.09-2.07"/><path id="kvg:065b9-s4" kvg:type="&#12754;" d="M54.51,32.75c0.49,1.5,0.39,3.19-0.19,4.88C50.3,49.29,38.68,72.85,20.62,83.88"/></g></g></g></svg>