<svg xmlns="http://www.w3.org/2000/svg" width="109" height="109" viewBox="0 0 109 109"><g xmlns:kvg="http://kanjivg.tagaini.net" id="kvg:StrokePaths_065b0" style="fill:none;stroke:#000000;stroke-width:3;stroke-linecap:round;stroke-linejoin:round;"><g id="kvg:065b0" kvg:element="&#26032;"><g id="kvg:065b0-g1" kvg:position="left" kvg:phon="&#36763;+&#26408;"><g id="kvg:065b0-g2" kvg:element="&#31435;"><g id="kvg:065b0-g3" kvg:element="&#20128;" kvg:position="top"><path id="kvg:065b0-s1" kvg:type="&#12753;a" d="M33.72,12.76c0.88,0.88,1.53,2.49,1.53,4.35c0,2.63,0.01,1.9,0.02,9.04"/><path id="kvg:065b0-s2" kvg:type="&#12752;" d="M18.32,28.69c1.19,0.11,2.61,0.17,3.79,0.03c7.4-0.84,18.02-2.59,25.62-3.22c1.98-0.16,3.19-0.03,4.18,0.02"/></g><g id="kvg:065b0-g4" kvg:position="bottom"><path id="kvg:065b0-s3" kvg:type="&#12756;" d="M23.62,34.38c3.39,4.82,4.03,8.08,4.34,11.36"/><path id="kvg:065b0-s4" kvg:type="&#12754;" d="M45.59,29.5c0.62,1.09,0.38,2.59-0.08,3.75c-1.65,4.12-4.74,10.59-5.88,12.61"/><path id="kvg:065b0-s5" kvg:type="&#12752;" d="M14.17,50.95c1.78,0.27,3.57,0.27,5.34,0.05c7.96-1.02,21.06-2.74,29.12-3.36c1.96-0.15,3.91-0.03,5.87,0.11"/></g></g><g id="kvg:065b0-g5" kvg:element="&#26408;"><path id="kvg:065b0-s6" kvg:type="&#12752;" d="M16.76,63.42c0.83,0.22,3.05,0.44,5.23,0.18c8.88-1.09,17.01-2.34,26.08-3.01c2.2-0.16,2.76-0.23,4.13,0"/><path id="kvg:065b0-s7" kvg:type="&#12753;" d="M34.38,51c1.12,1.12,1.5,2.75,1.5,4.22c0,1.31-0.15,24.25-0.25,34.78c-0.02,2.8-0.05,4.69-0.06,5"/><path id="kvg:065b0-s8" kvg:type="&#12754;" d="M34.25,62.84c0,1.41-0.35,2.47-0.87,3.37c-4.25,7.45-12.94,17.12-19.63,21.04"/><path id="kvg:065b0-s9" kvg:type="&#12756;/&#12751;" d="M39.25,68.5c4.71,2.98,7.9,5.97,9.49,8.43"/></g></g><g id="kvg:065b0-g6" kvg:element="&#26020;" kvg:position="right" kvg:radical="general"><path id="kvg:065b0-s10" kvg:type="&#12754;" d="M82.74,17.44c-0.12,0.93-0.46,2.3-1.27,3.21C76.25,26.5,70.5,30.62,61.69,35.7"/><path id="kvg:065b0-s11" kvg:type="&#12754;" d="M59.2,35.14c0.83,0.83,1.53,2.28,1.53,3.96c0,29.15-2.36,38.52-8.98,48.4"/><path id="kvg:065b0-s12" kvg:type="&#12752;" d="M62.89,47.36c1.98-0.11,3.36-0.31,4.54-0.48c7.82-1.13,18.82-2.38,26.29-3.3c1.18-0.15,3.25-0.17,3.99,0"/><path id="kvg:065b0-s13" kvg:type="&#12753;" d="M80.32,48.54c0.95,0.95,1.59,2.21,1.59,3.8c0,0.93,0.24,27.72,0.16,40.16c-0.02,2.33-0.04,4.17-0.06,5.25"/></g></g></g></svg>