<svg xmlns="http://www.w3.org/2000/svg" width="109" height="109" viewBox="0 0 109 109"><g xmlns:kvg="http://kanjivg.tagaini.net" id="kvg:StrokePaths_065e6" style="fill:none;stroke:#000000;stroke-width:3;stroke-linecap:round;stroke-linejoin:round;"><g id="kvg:065e6" kvg:element="&#26086;"><g id="kvg:065e6-g1" kvg:element="&#26085;" kvg:position="top" kvg:radical="general"><path id="kvg:065e6-s1" kvg:type="&#12753;" d="M33.75,17.71c1.02,1.02,1.3,2.13,1.3,3.8c0,1.35,0,30.64,0,44.74c0,3.4,0,5.93,0,7"/><path id="kvg:065e6-s2" kvg:type="&#12757;a" d="M36.12,19.42c6.32-0.59,26.15-2.23,32.89-2.77c4.32-0.34,5.48,0.56,5.49,4.98c0.01,8.87,0.11,40.03,0.11,45.58c0,1.89-0.11,4.05-0.11,5.3"/><path id="kvg:065e6-s3" kvg:type="&#12752;a" d="M36.52,43.87c9.36-0.75,31.28-2.34,36.88-2.34"/><path id="kvg:065e6-s4" kvg:type="&#12752;a" d="M36.12,69.96c11.25-0.58,27.88-1.67,37.34-1.67"/></g><g id="kvg:065e6-g2" kvg:element="&#19968;" kvg:position="bottom"><path id="kvg:065e6-s5" kvg:type="&#12752;" d="M14.75,90.75c3.46,1.15,7.36,1.11,10.88,0.84c18.02-1.39,43.01-2.52,58-2.77c3.81-0.06,7.38-0.06,11.12,0.68"/></g></g></g></svg>