<svg xmlns="http://www.w3.org/2000/svg" width="109" height="109" viewBox="0 0 109 109"><g xmlns:kvg="http://kanjivg.tagaini.net" id="kvg:StrokePaths_065e1" style="fill:none;stroke:#000000;stroke-width:3;stroke-linecap:round;stroke-linejoin:round;"><g id="kvg:065e1" kvg:element="&#26081;" kvg:variant="true" kvg:original="&#26080;" kvg:radical="general"><path id="kvg:065e1-s1" kvg:type="&#12752;" d="M23.75,19.2c1.52,0.54,4.31,0.73,5.82,0.54C37.5,18.75,69,15,80.19,14.51c2.53-0.11,4.05,0.26,5.31,0.53"/><path id="kvg:065e1-s2" kvg:type="&#12759;" d="M26.31,28.88c0.76,0.45,1.63,2.35,1.51,3.25c-0.5,4-0.82,7.62-3,14c-1.06,3.1-0.39,4.01,1.5,3.75c5.56-0.76,43.43-4.38,60.67-4.69c2-0.04,3.25-0.19,4.83,0.19"/><g id="kvg:065e1-g1" kvg:element="&#20799;"><g id="kvg:065e1-g2" kvg:element="&#20843;" kvg:variant="true"><g id="kvg:065e1-g3" kvg:element="&#20031;" kvg:position="left"><path id="kvg:065e1-s3" kvg:type="&#12754;" d="M54.89,20.18c0.61,1.07,0.89,3.13,0.77,5.77C54.5,50,47.5,83.5,14,97"/></g><g id="kvg:065e1-g4" kvg:position="right"><path id="kvg:065e1-s4" kvg:type="&#12767;" d="M56.99,53.87c0.74,1.19,1.33,2.59,1.38,4.43c0.2,8.19-0.57,21.14-0.57,26.7c0,13,8.45,11.53,16.78,11.53c8.78,0,14.56-1.18,15.8-2.12c2.61-2,1.9-3.5,2.14-7"/></g></g></g></g></g></svg>