<svg xmlns="http://www.w3.org/2000/svg" width="109" height="109" viewBox="0 0 109 109"><g xmlns:kvg="http://kanjivg.tagaini.net" id="kvg:StrokePaths_065e7" style="fill:none;stroke:#000000;stroke-width:3;stroke-linecap:round;stroke-linejoin:round;"><g id="kvg:065e7" kvg:element="&#26087;"><g id="kvg:065e7-g1" kvg:element="&#20008;" kvg:position="left" kvg:radical="nelson"><path id="kvg:065e7-s1" kvg:type="&#12753;" d="M23.16,23c1.05,1.05,1.7,2.5,1.7,3.82c0,0.77-0.16,42.52-0.2,59.68c-0.01,2.88-0.01,5.07-0.01,6.25"/></g><g id="kvg:065e7-g2" kvg:element="&#26085;" kvg:position="right" kvg:radical="tradit"><path id="kvg:065e7-s2" kvg:type="&#12753;" d="M46,23.3c1.1,1.1,1.51,2.53,1.51,4.56c0,3.28,0,41.59,0,57.76c0,3.59,0,6.09,0,6.88"/><path id="kvg:065e7-s3" kvg:type="&#12757;a" d="M48.55,25.3c3.54-0.25,30.01-3,33.24-3.3c2.69-0.25,4.46,1.25,4.46,4.06c0,2.48-0.05,41.35-0.07,57.31c0,3.83-0.01,6.32-0.01,6.61"/><path id="kvg:065e7-s4" kvg:type="&#12752;a" d="M48.43,54.99c8.32-0.74,31.36-3.04,36.79-3.04"/><path id="kvg:065e7-s5" kvg:type="&#12752;a" d="M48.8,86.71C59.88,86,73.12,85,85.05,84.68"/></g></g></g></svg>