<svg xmlns="http://www.w3.org/2000/svg" width="109" height="109" viewBox="0 0 109 109"><g xmlns:kvg="http://kanjivg.tagaini.net" id="kvg:StrokePaths_065e5" style="fill:none;stroke:#000000;stroke-width:3;stroke-linecap:round;stroke-linejoin:round;"><g id="kvg:065e5" kvg:element="&#26085;" kvg:radical="general"><path id="kvg:065e5-s1" kvg:type="&#12753;" d="M31.5,24.5c1.12,1.12,1.74,2.75,1.74,4.75c0,1.6-0.16,38.11-0.09,53.5c0.02,3.82,0.05,6.35,0.09,6.75"/><path id="kvg:065e5-s2" kvg:type="&#12757;a" d="M33.48,26c0.8-0.05,37.67-3.01,40.77-3.25c3.19-0.25,5,1.75,5,4.25c0,4-0.22,40.84-0.23,56c0,3.48,0,5.72,0,6"/><path id="kvg:065e5-s3" kvg:type="&#12752;a" d="M34.22,55.25c7.78-0.5,35.9-2.5,44.06-2.75"/><path id="kvg:065e5-s4" kvg:type="&#12752;a" d="M34.23,86.5c10.52-0.75,34.15-2.12,43.81-2.25"/></g></g></svg>