<svg xmlns="http://www.w3.org/2000/svg" width="109" height="109" viewBox="0 0 109 109"><g xmlns:kvg="http://kanjivg.tagaini.net" id="kvg:StrokePaths_065f1" style="fill:none;stroke:#000000;stroke-width:3;stroke-linecap:round;stroke-linejoin:round;"><g id="kvg:065f1" kvg:element="&#26097;"><g id="kvg:065f1-g1" kvg:element="&#26085;" kvg:position="top" kvg:radical="general"><path id="kvg:065f1-s1" kvg:type="&#12753;" d="M29.24,14.08c0.51,0.49,0.52,0.83,0.8,1.45c2.31,5.09,3.46,17.94,4.89,27.43"/><path id="kvg:065f1-s2" kvg:type="&#12757;a" d="M30.82,15.87c11.83-1.01,35.11-2.74,43.94-3.59c3.24-0.31,3.91,1.79,3.74,2.9c-0.61,4.06-3.12,19.13-4.6,25.92"/><path id="kvg:065f1-s3" kvg:type="&#12752;a" d="M33.53,28.3c3.85-0.4,37.72-3.3,42.89-2.97"/><path id="kvg:065f1-s4" kvg:type="&#12752;a" d="M35.29,41.11C46.25,40,62.14,39.37,73.9,38.67"/></g><g id="kvg:065f1-g2" kvg:element="&#24178;" kvg:position="bottom"><path id="kvg:065f1-s5" kvg:type="&#12752;" d="M28.88,52.62c0.94,0.43,4.18,0.46,5.12,0.38c6.5-0.5,29.16-2.16,40.25-3c1.56-0.12,4.85,0.37,5.63,0.58"/><g id="kvg:065f1-g3" kvg:element="&#21313;"><path id="kvg:065f1-s6" kvg:type="&#12752;" d="M14.38,70.98c1.65,0.28,4.68,0.4,6.31,0.28c16.86-1.22,50.47-3.68,68.43-3.94c2.74-0.04,4.39,0.13,5.76,0.27"/><path id="kvg:065f1-s7" kvg:type="&#12753;" d="M52.31,53.63c0.54,0.51,1.68,3.81,1.79,4.83c0.11,1.02-0.07,35.17-0.18,41.54"/></g></g></g></g></svg>