<svg xmlns="http://www.w3.org/2000/svg" width="109" height="109" viewBox="0 0 109 109"><g xmlns:kvg="http://kanjivg.tagaini.net" id="kvg:StrokePaths_06606" style="fill:none;stroke:#000000;stroke-width:3;stroke-linecap:round;stroke-linejoin:round;"><g id="kvg:06606" kvg:element="&#26118;"><g id="kvg:06606-g1" kvg:element="&#26085;" kvg:position="top" kvg:radical="general"><path id="kvg:06606-s1" kvg:type="&#12753;" d="M26.77,17.75c0.8,0.81,1.29,1.49,1.45,2.92c0.53,4.71,1.74,14.95,2.76,22.81c0.35,2.71,0.59,4.56,0.59,4.68"/><path id="kvg:06606-s2" kvg:type="&#12757;a" d="M28.97,19.86c12.16-1.36,34.68-3.2,46.16-4.02c4.74-0.34,6.06,1.43,5.39,5.67c-0.54,3.42-1.83,11.28-3.57,18.98c-0.42,1.85-0.85,3.64-1.28,5.27"/><path id="kvg:06606-s3" kvg:type="&#12752;a" d="M30.56,32.32c13.06-1.07,37.69-2.82,47.47-3.17"/><path id="kvg:06606-s4" kvg:type="&#12752;a" d="M32.35,45.22c10.65-0.97,31.53-2.28,43.16-2.69"/></g><g id="kvg:06606-g2" kvg:element="&#27604;" kvg:position="bottom"><g id="kvg:06606-g3" kvg:position="left"><path id="kvg:06606-s5" kvg:type="&#12752;b" d="M28.25,69.75C33,69,42.75,67,46.75,66.5c1.49-0.19,2.75,0,4,0.5"/><path id="kvg:06606-s6" kvg:type="&#12761;" d="M26.25,53.79c0.92,0.92,1.21,2.34,1.21,3.99c0,6.97-0.08,26.72-0.08,32.72c0,1.87,0.77,3.04,2.69,2.11C37.25,89.12,42.5,86,47.8,83.96"/></g><g id="kvg:06606-g4" kvg:element="&#21269;" kvg:position="right"><path id="kvg:06606-s7" kvg:type="&#12754;" d="M84.62,57.28c0,0.97-0.5,1.85-1.52,2.71c-5.54,4.7-10.35,7.38-19.44,11.74"/><path id="kvg:06606-s8" kvg:type="&#12767;" d="M58.89,51.25c0.99,0.99,1.51,2.38,1.51,4.41c0,5.09-0.03,23.61-0.03,27.96c0,9.12,2.25,10.44,16.42,10.44c14.21,0,16.47-1.57,16.47-9.12"/></g></g></g></g></svg>