<svg xmlns="http://www.w3.org/2000/svg" width="109" height="109" viewBox="0 0 109 109"><g xmlns:kvg="http://kanjivg.tagaini.net" id="kvg:StrokePaths_06614" style="fill:none;stroke:#000000;stroke-width:3;stroke-linecap:round;stroke-linejoin:round;"><g id="kvg:06614" kvg:element="&#26132;"><g id="kvg:06614-g1" kvg:position="top"><g id="kvg:06614-g2" kvg:element="&#24318;" kvg:variant="true"><g id="kvg:06614-g3" kvg:element="&#21313;" kvg:part="1"><path id="kvg:06614-s1" kvg:type="&#12752;" d="M29.25,30.91c1.67,0.47,4.73,0.62,6.4,0.47c14.15-1.26,25.92-2.92,38.63-3.37c2.78-0.1,4.45,0.22,5.84,0.46"/></g><g id="kvg:06614-g4" kvg:element="&#20031;" kvg:variant="true"><path id="kvg:06614-s2" kvg:type="&#12753;a" d="M40.62,19c0.81,0.81,1.65,1.98,1.71,3c0.42,7.88,0.67,14.38,1.17,25"/></g><g id="kvg:06614-g5" kvg:element="&#21313;" kvg:part="2"><path id="kvg:06614-s3" kvg:type="&#12753;a" d="M67.62,13.5c0.63,1.38,0.85,2.74,0.71,3.75c-0.7,5.12-2.83,18.25-4.33,28.5"/></g></g><path id="kvg:06614-s4" kvg:type="&#12752;" d="M13.5,49.95c2.25,0.55,6.81,0.78,9.28,0.54C43.38,48.5,65,46,87.05,45.26c4.14-0.14,6.63,0.26,8.7,0.53"/></g><g id="kvg:06614-g6" kvg:element="&#26085;" kvg:position="bottom" kvg:radical="general"><path id="kvg:06614-s5" kvg:type="&#12753;" d="M37.02,60.89c0.86,0.86,1.4,2.5,1.4,3.61c0,2.69,0,21.35,0,29.25c0,2.01,0,3.32,0,3.5"/><path id="kvg:06614-s6" kvg:type="&#12757;a" d="M39.17,62.03c2.28-0.12,23.11-2.17,29.11-2.17c2.98,0,4.32,2.02,4.32,4.14c0,4.67-0.26,18.32-0.31,28.5c0,1.12-0.01,2.2-0.01,3.22"/><path id="kvg:06614-s7" kvg:type="&#12752;a" d="M39.86,77.56c4.64-0.31,27.33-1.98,31.22-1.98"/><path id="kvg:06614-s8" kvg:type="&#12752;a" d="M39.71,94.13c7-0.6,22.39-1.19,31.11-1.7"/></g></g></g></svg>