<svg xmlns="http://www.w3.org/2000/svg" width="109" height="109" viewBox="0 0 109 109"><g xmlns:kvg="http://kanjivg.tagaini.net" id="kvg:StrokePaths_06641" style="fill:none;stroke:#000000;stroke-width:3;stroke-linecap:round;stroke-linejoin:round;"><g id="kvg:06641" kvg:element="&#26177;"><g id="kvg:06641-g1" kvg:element="&#26085;" kvg:position="top" kvg:radical="general"><path id="kvg:06641-s1" kvg:type="&#12753;" d="M29.33,14.76c0.33,0.41,0.84,1.2,1.02,1.71c1.5,4.26,3.41,15.53,4.33,23.48"/><path id="kvg:06641-s2" kvg:type="&#12757;a" d="M31.38,15.83c11.6-1.07,32.98-2.4,41.65-3.3c3.18-0.33,4.48,0.71,4.15,3.51c-0.51,4.31-2.58,14.01-4.03,21.19"/><path id="kvg:06641-s3" kvg:type="&#12752;a" d="M33.54,26.86c3.78-0.42,38.47-3,41.6-3.17"/><path id="kvg:06641-s4" kvg:type="&#12752;a" d="M34.78,37.3c8.35-0.46,26.83-1.87,38.36-2.61"/></g><g id="kvg:06641-g2" kvg:element="&#20806;" kvg:position="bottom"><g id="kvg:06641-g3" kvg:element="&#20799;" kvg:part="1" kvg:original="&#20843;" kvg:position="left"><g id="kvg:06641-g4" kvg:element="&#20031;"><path id="kvg:06641-s5" kvg:type="&#12754;" d="M44.7,44.39c0.78,0.52,1.37,2.6,1.37,3.5c0,5.66,0.09,10.16,0.09,16.39c0,18.67-7.91,28.96-24.14,34.21"/></g><g id="kvg:06641-g5" kvg:element="&#20907;"><g id="kvg:06641-g6" kvg:position="top"><path id="kvg:06641-s6" kvg:type="&#12756;" d="M22.09,50.41c4.58,1.68,11.82,6.89,12.96,9.5"/></g><g id="kvg:06641-g7" kvg:position="bottom"><path id="kvg:06641-s7" kvg:type="&#12736;" d="M16.16,80.09c1.3,0.47,2.6,0.63,3.59,0.09c1.37-0.74,11.21-6.91,16.58-10.5"/></g></g></g><g id="kvg:06641-g8" kvg:position="right"><g id="kvg:06641-g9" kvg:element="&#20799;" kvg:part="2" kvg:original="&#20843;"><path id="kvg:06641-s8" kvg:type="&#12767;" d="M61.1,43.87c0.64,0.8,1.16,1.74,1.19,2.98c0.17,5.5-0.02,35.94-0.02,39.68c0,8.74,2.68,10.08,15.33,10.08s15.88-2.36,15.88-8.63"/></g><path id="kvg:06641-s9" kvg:type="&#12754;" d="M81.89,43.79c0.04,0.37,0.09,0.96-0.08,1.49c-1.03,3.15-6.93,10.06-15,14.3"/><path id="kvg:06641-s10" kvg:type="&#12756;" d="M66.94,67.44c5.81,2.46,15.01,10.1,16.46,13.92"/></g></g></g></g></svg>