<svg xmlns="http://www.w3.org/2000/svg" width="109" height="109" viewBox="0 0 109 109"><g xmlns:kvg="http://kanjivg.tagaini.net" id="kvg:StrokePaths_06669" style="fill:none;stroke:#000000;stroke-width:3;stroke-linecap:round;stroke-linejoin:round;"><g id="kvg:06669" kvg:element="&#26217;"><g id="kvg:06669-g1" kvg:element="&#26085;" kvg:position="left" kvg:radical="general"><path id="kvg:06669-s1" kvg:type="&#12753;" d="M14.27,24.74c0.69,0.69,1.02,1.72,1.02,3.21c0,1.17-0.05,27.59-0.03,39.55c0.01,3.25,0.02,5.43,0.03,5.75"/><path id="kvg:06669-s2" kvg:type="&#12757;a" d="M16.22,26.52c2.01-0.32,10.55-2.23,14.65-3.04c3.31-0.66,3.86,0.28,3.8,3.4c-0.11,6.35,0.04,26.17-0.01,37.37c-0.02,4.63-0.03,7.85-0.03,8.14"/><path id="kvg:06669-s3" kvg:type="&#12752;a" d="M16.23,46.66c3.64-0.41,14.14-2.04,17.54-2.11"/><path id="kvg:06669-s4" kvg:type="&#12752;a" d="M16.39,68.39c4.07-0.38,11.48-1.52,17.12-1.98"/></g><g id="kvg:06669-g2" kvg:element="&#20813;" kvg:position="right" kvg:phon="&#20813;"><g id="kvg:06669-g3" kvg:position="top"><g id="kvg:06669-g4" kvg:element="&#131210;" kvg:variant="true" kvg:original="&#21241;"><path id="kvg:06669-s5" kvg:type="&#12754;" d="M57.89,14.65c0.04,0.5,0.16,1.3-0.08,1.99C56.25,21.12,52,28.38,44.44,35.47"/><path id="kvg:06669-s6" kvg:type="&#12743;a" d="M56.6,21.75c2.05,0,15.79-2.59,17.94-2.83c1.85-0.2,2.8,2.19,2.03,3.21c-3.25,4.27-8.05,9.13-13.19,15.97"/></g><path id="kvg:06669-s7" kvg:type="&#12753;" d="M46.76,40.6c0.76,0.76,1.12,1.65,1.4,3.17c0.79,4.23,1.58,7.61,2.24,12.95c0.16,1.27,0.31,2.61,0.46,4.02"/><path id="kvg:06669-s8" kvg:type="&#12757;a" d="M48.65,41.96c8.56-1.78,26.47-4.7,33.25-5.7c2.41-0.36,4.77,0.6,4.23,3.62c-0.91,5.09-1.5,7.38-3.4,13.87c-0.27,0.94-0.69,1.93-1.1,3.03"/><path id="kvg:06669-s9" kvg:type="&#12753;a" d="M63.88,41c0.87,0.87,1.4,2,1.4,3.25c0,4.75,0,9,0,11"/><path id="kvg:06669-s10" kvg:type="&#12752;a" d="M51.38,58.25c3.8-0.5,25.55-3.25,29.74-3.5"/></g><g id="kvg:06669-g5" kvg:element="&#20799;" kvg:original="&#20843;" kvg:position="bottom"><g id="kvg:06669-g6" kvg:element="&#20031;" kvg:position="left"><path id="kvg:06669-s11" kvg:type="&#12754;" d="M56.64,61.75c0.08,0.79,0.32,2.1-0.16,3.18C53.25,72.25,45.5,84.5,28.67,94.17"/></g><g id="kvg:06669-g7" kvg:position="right"><path id="kvg:06669-s12" kvg:type="&#12767;" d="M69.19,59.37c0.97,0.97,1.26,2.29,1.26,3.91c0,6.84-0.14,14.22-0.14,19.57c0,9.03,1.07,10.44,13.22,10.44c12.6,0,13.36-2.28,13.36-8.31"/></g></g></g></g></g></svg>