<svg xmlns="http://www.w3.org/2000/svg" width="109" height="109" viewBox="0 0 109 109"><g xmlns:kvg="http://kanjivg.tagaini.net" id="kvg:StrokePaths_06664" style="fill:none;stroke:#000000;stroke-width:3;stroke-linecap:round;stroke-linejoin:round;"><g id="kvg:06664" kvg:element="&#26212;"><g id="kvg:06664-g1" kvg:element="&#26085;" kvg:position="left" kvg:radical="general"><path id="kvg:06664-s1" kvg:type="&#12753;" d="M14.77,23.44c0.38,0.78,0.76,1.68,0.76,2.72c0,1.04-0.13,57.29,0,58.34"/><path id="kvg:06664-s2" kvg:type="&#12757;a" d="M16.16,25.57c4.94-1.07,13.25-2.07,17.01-2.83c1.6-0.32,2.55,1.44,2.55,2.22c0,4.04-0.5,50.79-0.5,58.01"/><path id="kvg:06664-s3" kvg:type="&#12752;a" d="M15.56,52.23c6.51-0.73,14.09-1.73,19.75-2.31"/><path id="kvg:06664-s4" kvg:type="&#12752;a" d="M15.92,81.56c5.91-0.56,11.78-1.06,18.9-1.54"/></g><g id="kvg:06664-g2" kvg:element="&#21566;" kvg:position="right"><g id="kvg:06664-g3" kvg:element="&#20116;" kvg:position="top"><g id="kvg:06664-g4" kvg:element="&#20108;" kvg:part="1"><path id="kvg:06664-s5" kvg:type="&#12752;" d="M49.54,17.42c1,0.24,2.83,0.12,3.84,0.14c6.95,0.09,13.87-1.4,33.06-2.16c1.67-0.07,2.68,0.03,3.51,0.14"/></g><path id="kvg:06664-s6" kvg:type="&#12753;a" d="M65.35,19.75c0.34,0.21,1.4,1.95,1.27,2.45c-1.23,4.85-9.6,28.65-10.89,31.71"/><path id="kvg:06664-s7" kvg:type="&#12757;c" d="M48.43,34.71c0.79,0.4,2.88,0.54,3.53,0.46c7.3-0.92,23.3-2.67,29.81-3.4c1.5-0.17,3.21,1.23,3.21,2.93c0,2.91-2.27,11.67-3.48,18.05"/><g id="kvg:06664-g5" kvg:element="&#20108;" kvg:part="2"><path id="kvg:06664-s8" kvg:type="&#12752;" d="M42.83,54.75c1.43,0.3,4.96,0.11,6.4,0.1c10.15-0.05,15.09-1.11,42.57-3.15c2.38-0.18,4.73-0.02,5.92,0.11"/></g></g><g id="kvg:06664-g6" kvg:element="&#21475;" kvg:position="bottom"><path id="kvg:06664-s9" kvg:type="&#12753;" d="M49,67.88c0.3,0.45,0.61,0.82,0.74,1.37c1.04,4.41,2.79,21.57,3.51,29.49"/><path id="kvg:06664-s10" kvg:type="&#12757;b" d="M50.36,69.79C60.75,69,79,67.08,84.84,66.52c2.14-0.21,3.42,1.22,3.11,2.43c-1.27,5-2.25,16.04-4.13,22.96"/><path id="kvg:06664-s11" kvg:type="&#12752;b" d="M53.2,95.74C60.07,95.11,76,94,85.96,93.53"/></g></g></g></g></svg>