<svg xmlns="http://www.w3.org/2000/svg" width="109" height="109" viewBox="0 0 109 109"><g xmlns:kvg="http://kanjivg.tagaini.net" id="kvg:StrokePaths_0668e" style="fill:none;stroke:#000000;stroke-width:3;stroke-linecap:round;stroke-linejoin:round;"><g id="kvg:0668e" kvg:element="&#26254;"><g id="kvg:0668e-g1" kvg:element="&#26085;" kvg:position="left" kvg:radical="tradit"><path id="kvg:0668e-s1" kvg:type="&#12753;" d="M13.27,23.94c0.39,0.78,0.78,1.18,0.78,2.22c0,1.04-0.13,45.79,0,46.84"/><path id="kvg:0668e-s2" kvg:type="&#12757;a" d="M14.69,26.07c2.2-0.13,11.41-1.67,13.42-1.83c1.67-0.13,2.74,1.45,2.61,2.22c-0.26,1.57-0.52,44.23-0.52,45.01"/><path id="kvg:0668e-s3" kvg:type="&#12752;a" d="M15.08,47.23c2.97,0,10.86-1.31,14.22-1.31"/><path id="kvg:0668e-s4" kvg:type="&#12752;a" d="M14.94,70.56C21,70,21.75,69.5,29.29,69.02"/></g><g id="kvg:0668e-g2" kvg:element="&#33521;" kvg:position="right"><g id="kvg:0668e-g3" kvg:element="&#33401;" kvg:variant="true" kvg:original="&#33400;" kvg:position="top"><path id="kvg:0668e-s5" kvg:type="&#12752;" d="M38.36,25.37c1.11,0.46,2.4,0.5,3.52,0.46c9.87-0.33,38.14-3.03,49.92-3.09c1.85-0.01,2.97,0.22,3.89,0.45"/><path id="kvg:0668e-s6" kvg:type="&#12753;a" d="M51.48,13.5c1.26,1.4,1.73,1.82,1.79,2.69C54,26,54.79,30.35,54.95,34"/><path id="kvg:0668e-s7" kvg:type="&#12753;a" d="M78.09,12.75c0.24,1.09,0.54,1.9,0.28,3.25c-1.54,7.89-1.74,9.83-3.41,17.25"/></g><g id="kvg:0668e-g4" kvg:element="&#22830;" kvg:position="bottom"><path id="kvg:0668e-s8" kvg:type="&#12753;a" d="M46.02,47.12c0.96,1,1.09,1.78,1.23,3.01c0.98,8.59,1.65,17.46,1.89,18.86"/><path id="kvg:0668e-s9" kvg:type="&#12757;b" d="M47.84,48.94c3.33-0.38,30-3.33,34.52-3.72C85,45,87,47,86.79,49.19c-0.17,1.74-3.44,15.4-3.83,17.48"/><g id="kvg:0668e-g5" kvg:element="&#22823;"><path id="kvg:0668e-s10" kvg:type="&#12752;" d="M37.55,69.25c0.94,0.44,3.36,0.73,4.39,0.62c14.2-1.49,27.72-1.85,50.56-3.54c1.3-0.09,3-0.08,4.57,0.94"/><path id="kvg:0668e-s11" kvg:type="&#12754;" d="M65.31,34.5c0.67,0.52,1.13,1.88,1.13,3.77c0,39.5-9.61,48.97-30.08,59.98"/><path id="kvg:0668e-s12" kvg:type="&#12751;" d="M63.9,69.17c6.97,7.78,21.29,19.27,28.24,24.48c2.37,1.77,3.19,2.04,4.27,2.2"/></g></g></g></g></g></svg>