<svg xmlns="http://www.w3.org/2000/svg" width="109" height="109" viewBox="0 0 109 109"><g xmlns:kvg="http://kanjivg.tagaini.net" id="kvg:StrokePaths_066b9" style="fill:none;stroke:#000000;stroke-width:3;stroke-linecap:round;stroke-linejoin:round;"><g id="kvg:066b9" kvg:element="&#26297;"><g id="kvg:066b9-g1" kvg:element="&#26085;" kvg:position="left" kvg:radical="general"><path id="kvg:066b9-s1" kvg:type="&#12753;" d="M45.36,13.79c0.39,0.37,0.4,0.62,0.62,1.09c1.77,3.82,2.54,11.96,3.64,19.09"/><path id="kvg:066b9-s2" kvg:type="&#12757;a" d="M46.53,14.99c9.48-0.8,28.03-2.05,35.11-2.72c2.6-0.25,3.61,0.97,3.5,2.78c-0.2,3.22-2.1,11.26-3.29,16.59"/><path id="kvg:066b9-s3" kvg:type="&#12752;a" d="M48.3,23.56c3.09-0.31,32.22-2.5,34.77-2.62"/><path id="kvg:066b9-s4" kvg:type="&#12752;a" d="M49.31,32.05c8.78-0.87,23.51-1.66,32.94-2.21"/></g><g id="kvg:066b9-g2" kvg:element="&#38585;" kvg:position="right"><g id="kvg:066b9-g3" kvg:element="&#20155;" kvg:variant="true" kvg:original="&#20154;"><path id="kvg:066b9-s5" kvg:type="&#12754;" d="M54.26,36.25c0.18,1.13-0.05,2.61-0.61,3.58c-3.6,6.17-8.15,11.4-16.4,18.91"/><path id="kvg:066b9-s6" kvg:type="&#12753;" d="M48.49,48.31c0.62,0.54,1.09,1.72,1.13,2.55c0.37,7.42-0.5,29.52-0.2,33.39"/></g><path id="kvg:066b9-s7" kvg:type="&#12754;" d="M72.78,35.25c0.06,0.59-0.02,1.37-0.21,1.88c-1.26,3.24-2.85,5.73-5.72,9.67"/><path id="kvg:066b9-s8" kvg:type="&#12752;b" d="M49.94,48.97c7.16-0.7,36.41-3.23,39.48-3.62"/><path id="kvg:066b9-s9" kvg:type="&#12753;a" d="M68.41,50.01c0.35,0.27,0.62,0.65,0.62,1.12c0,4.82,0.04,20.05-0.17,27.63"/><path id="kvg:066b9-s10" kvg:type="&#12752;b" d="M50.9,58.11c6.76-0.58,31.87-1.76,34.77-2.08"/><path id="kvg:066b9-s11" kvg:type="&#12752;b" d="M50.08,67.88c7.13-0.49,32.49-1.48,35.55-1.74"/><path id="kvg:066b9-s12" kvg:type="&#12752;b" d="M50.08,79.87c7.16-0.7,36.85-2.03,39.92-2.42"/></g><g id="kvg:066b9-g4" kvg:element="&#36790;" kvg:position="nyo"><path id="kvg:066b9-s13" kvg:type="&#12756;" d="M20.46,15.5c3.9,1.57,10.07,6.45,11.04,8.88"/><path id="kvg:066b9-s14" kvg:type="&#12756;" d="M15.96,33.25c3.99,1.48,10.3,6.08,11.29,8.38"/><path id="kvg:066b9-s15" kvg:type="&#12747;" d="M12.5,58.94c2.25,0.85,3.75,0.43,4.75,0.21c1-0.21,6.5-2.49,8-2.92c1.5-0.43,3.75,1.07,2.75,2.35s-4,7.19-4.75,8.26c-0.75,1.07-0.5,2.99,1,4.48s4.25,3.2,5,4.48C30,77.09,30,78.16,28.5,79.23c-1.5,1.07-10.5,7.04-12,7.47"/><path id="kvg:066b9-s16" kvg:type="&#12751;" d="M13.25,87.57c2.96-0.24,8.88-0.85,13.33-0.37c4.44,0.49,29.69,3.76,34.06,4.39c11.85,1.71,20.98,2.19,29.86,1.34"/></g></g></g></svg>