<svg xmlns="http://www.w3.org/2000/svg" width="109" height="109" viewBox="0 0 109 109"><g xmlns:kvg="http://kanjivg.tagaini.net" id="kvg:StrokePaths_066be" style="fill:none;stroke:#000000;stroke-width:3;stroke-linecap:round;stroke-linejoin:round;"><g id="kvg:066be" kvg:element="&#26302;"><g id="kvg:066be-g1" kvg:element="&#26085;" kvg:position="left" kvg:radical="general"><path id="kvg:066be-s1" kvg:type="&#12753;" d="M12.27,22.47c0.38,0.8,0.76,1.71,0.76,2.77c0,1.06-0.13,51.19,0,52.26"/><path id="kvg:066be-s2" kvg:type="&#12757;a" d="M14.16,24.13c4.94-1.09,7.75-1.12,11.51-1.89c1.6-0.33,2.55,1.46,2.55,2.26c0,4.11-0.5,44.08-0.5,51.44"/><path id="kvg:066be-s3" kvg:type="&#12752;a" d="M13.56,48.2c6.51-0.74,8.59-1.26,14.25-1.85"/><path id="kvg:066be-s4" kvg:type="&#12752;a" d="M13.92,74.51c5.91-0.57,6.28-1.09,13.4-1.58"/></g><g id="kvg:066be-g2" kvg:element="&#25958;" kvg:position="right"><g id="kvg:066be-g3" kvg:element="&#20139;" kvg:position="left"><g id="kvg:066be-g4" kvg:element="&#20128;" kvg:position="top"><path id="kvg:066be-s5" kvg:type="&#12753;a" d="M48.46,10.75c0.74,0.53,1.95,2.56,1.95,3.6c0,3.85-0.23,7.57-0.1,10.83"/><path id="kvg:066be-s6" kvg:type="&#12752;" d="M35.55,26.33c0.61,0.06,1.98,0.32,2.58,0.31c6.38-0.14,17.74-2.04,24.52-2.49c1-0.07,1.51,0.03,2.25,0.39"/></g><g id="kvg:066be-g5" kvg:position="bottom"><g id="kvg:066be-g6" kvg:element="&#21475;"><path id="kvg:066be-s7" kvg:type="&#12753;" d="M38.95,34.69c0.22,0.25,0.44,0.45,0.54,0.76c0.76,2.43,1.93,9.82,2.45,14.19"/><path id="kvg:066be-s8" kvg:type="&#12757;b" d="M40.31,35.52c5.36-1.02,15.61-2.19,18.37-2.53c1.01-0.12,1.62,1.27,1.47,2.01c-0.6,3.06-0.76,5.38-2.04,9.79"/><path id="kvg:066be-s9" kvg:type="&#12752;b" d="M42.16,47.52c3.25-0.39,13.35-1.96,17.47-2.35"/></g><g id="kvg:066be-g7" kvg:element="&#23376;" kvg:variant="true"><path id="kvg:066be-s10" kvg:type="&#12758;" d="M38.16,56.41c0.67,0.21,1.93,0.54,2.94,0.35c1.23-0.22,15.86-2.77,17.03-2.77c1.17,0,1.78,1.13,0.61,2.37c-1.41,1.5-5.49,6.39-11.25,11.31"/><path id="kvg:066be-s11" kvg:type="&#12757;v" d="M47.34,68.3c3.91,3.57,9.25,15.31,4.35,25.78c-2.9,6.19-5.51,1.04-6.91,0.52"/><path id="kvg:066be-s12" kvg:type="&#12736;/&#12752;" d="M35.93,79.88C37,81,39.05,80.58,40.07,80.1c6.01-2.82,15.37-6.84,24.41-10.95"/></g></g></g><g id="kvg:066be-g8" kvg:element="&#25909;" kvg:variant="true" kvg:original="&#25908;" kvg:position="right"><g id="kvg:066be-g9" kvg:position="top"><path id="kvg:066be-s13" kvg:type="&#12754;" d="M77.2,13.19c0.03,0.82,0.18,2.14-0.07,3.28c-1.78,8.27-5.78,22.29-11.94,32.26"/><path id="kvg:066be-s14" kvg:type="&#12752;" d="M74.59,34.65c0.81,0.24,2.33,0,2.76-0.03c4.56-0.38,11.64-2.35,18.6-2.96c0.78-0.07,1.26-0.02,1.46,0.06"/></g><g id="kvg:066be-g10" kvg:element="&#20034;" kvg:position="bottom"><g id="kvg:066be-g11" kvg:element="&#20031;"><path id="kvg:066be-s15" kvg:type="&#12754;" d="M88.73,36.3c0.46,1.46,0.75,2.51,0.23,5.17C84.75,63,75.5,84.5,60.51,96.73"/></g><path id="kvg:066be-s16" kvg:type="&#12751;" d="M68.47,45.88C75,61.25,83,81,93.48,93.39c1.68,1.98,3.04,3.56,4.27,3.77"/></g></g></g></g></g></svg>