<svg xmlns="http://www.w3.org/2000/svg" width="109" height="109" viewBox="0 0 109 109"><g xmlns:kvg="http://kanjivg.tagaini.net" id="kvg:StrokePaths_066f7" style="fill:none;stroke:#000000;stroke-width:3;stroke-linecap:round;stroke-linejoin:round;"><g id="kvg:066f7" kvg:element="&#26359;"><g id="kvg:066f7-g1" kvg:element="&#26085;" kvg:position="top" kvg:radical="general"><path id="kvg:066f7-s1" kvg:type="&#12753;" d="M30.74,13.54c0.36,0.5,0.37,0.84,0.57,1.46c1.65,5.14,2.82,18.12,3.84,27.7"/><path id="kvg:066f7-s2" kvg:type="&#12757;a" d="M31.92,15.71c11.29-1.1,31.08-3.21,41.52-3.93c3.11-0.21,3.73,1.94,3.57,3.14c-0.58,4.4-2.5,18.43-3.92,25.78"/><path id="kvg:066f7-s3" kvg:type="&#12752;a" d="M34.28,27.89c6.47-0.39,37.74-2.63,41.02-2.74"/><path id="kvg:066f7-s4" kvg:type="&#12752;a" d="M35.23,40.25c11.52-0.5,26.77-2,38.34-2.23"/></g><g id="kvg:066f7-g2" kvg:element="&#21250;" kvg:variant="true" kvg:position="bottom"><g id="kvg:066f7-g3" kvg:element="&#21241;"><g id="kvg:066f7-g4" kvg:element="&#20031;"><path id="kvg:066f7-s5" kvg:type="&#12754;" d="M41.13,44.23c0.07,0.67,0.31,1.76-0.13,2.68c-3.32,6.83-10.86,16.85-23.5,25.6"/></g><path id="kvg:066f7-s6" kvg:type="&#12742;" d="M39.37,54.65c1.16,0.5,2.79,0.67,4.65,0.33c1.86-0.33,35.21-3.59,39.85-3.99c2.87-0.25,4.56,1.3,4.39,4.84C87.89,63.42,86,77.5,78.48,95.1c-1.6,3.75-5.48,2.65-8.45-0.83"/></g><g id="kvg:066f7-g5" kvg:element="&#21269;" kvg:variant="true"><g id="kvg:066f7-g6" kvg:element="&#20154;"><path id="kvg:066f7-s7" kvg:type="&#12754;" d="M54.79,60.12c0.33,0.32-0.05,2.02-0.27,2.65C52.25,69,50,74.25,41.9,81.75"/><path id="kvg:066f7-s8" kvg:type="&#12751;" d="M54.79,68.29c4.83,1.78,10.99,6.51,13.33,11"/></g><path id="kvg:066f7-s9" kvg:type="&#12740;" d="M31.37,66.01c0.85,0.46,1.36,2.07,1.53,2.99c0.15,0.83-0.6,7.72-0.6,15.87c0,1.88,0.69,3.07,3.02,2.86c5.43-0.49,23.93-1.74,33.43-2.37c2.07-0.14,3.73,0.38,4.75,0.38"/></g></g></g></g></svg>