<svg xmlns="http://www.w3.org/2000/svg" width="109" height="109" viewBox="0 0 109 109"><g xmlns:kvg="http://kanjivg.tagaini.net" id="kvg:StrokePaths_066f2" style="fill:none;stroke:#000000;stroke-width:3;stroke-linecap:round;stroke-linejoin:round;"><g id="kvg:066f2" kvg:element="&#26354;"><g id="kvg:066f2-g1" kvg:element="&#26085;" kvg:part="1" kvg:original="&#26352;" kvg:tradForm="true"><path id="kvg:066f2-s1" kvg:type="&#12753;" d="M17.27,40.03c1.16,1.16,1.63,2.27,1.8,3.82c0.35,3.16,2.4,28.1,3.46,41.43c0.06,0.73,0.46,5.87,0.54,6.96"/><path id="kvg:066f2-s2" kvg:type="&#12757;a" d="M19.94,42.98c22.12-2.87,47.03-5.31,63.95-6.64c3.6-0.28,7.63,1.09,7.17,5.31c-0.8,7.23-3,26.09-4.99,39.38c-0.12,0.81-1.01,6.35-1.31,7.98"/></g><g id="kvg:066f2-g2" kvg:element="&#24318;"><g id="kvg:066f2-g3" kvg:element="&#21313;" kvg:part="1"><path id="kvg:066f2-s3" kvg:type="&#12753;a" d="M39.87,21c0.94,0.94,1.42,2.5,1.46,4C42,48.62,42.5,73.12,42.75,86.5"/></g><g id="kvg:066f2-g4" kvg:element="&#20031;" kvg:variant="true"><path id="kvg:066f2-s4" kvg:type="&#12753;a" d="M66.87,16.5c1.38,1.38,1.59,2.5,1.46,4.25c-2.33,30.38-2.83,42.88-4.58,64"/></g><g id="kvg:066f2-g5" kvg:element="&#21313;" kvg:part="2"><g id="kvg:066f2-g6" kvg:element="&#20008;" kvg:radical="nelson"><path id="kvg:066f2-s5" kvg:type="&#12752;a" d="M21.96,64.76C40.38,62.5,63.5,60.12,88,58.75"/></g></g></g><g id="kvg:066f2-g7" kvg:element="&#26085;" kvg:part="2" kvg:original="&#26352;" kvg:tradForm="true"><path id="kvg:066f2-s6" kvg:type="&#12752;a" d="M24.02,88.8c8.14-0.76,45.85-3.55,60.23-4.05"/></g></g></g></svg>