<svg xmlns="http://www.w3.org/2000/svg" width="109" height="109" viewBox="0 0 109 109"><g xmlns:kvg="http://kanjivg.tagaini.net" id="kvg:StrokePaths_066f5" style="fill:none;stroke:#000000;stroke-width:3;stroke-linecap:round;stroke-linejoin:round;"><g id="kvg:066f5" kvg:element="&#26357;"><g id="kvg:066f5-g1" kvg:element="&#26355;"><g id="kvg:066f5-g2" kvg:element="&#26085;" kvg:original="&#26352;" kvg:radical="tradit"><path id="kvg:066f5-s1" kvg:type="&#12753;" d="M21.5,32.8c0.39,0.48,0.9,1.31,1.11,1.91c1.74,4.96,3.9,18.49,4.98,27.75"/><path id="kvg:066f5-s2" kvg:type="&#12757;" d="M23.81,33.96c13.51-1.25,43.69-4.46,53.81-4.92c2.36-0.11,3.63,1.45,3.38,3.84c-0.53,5.02-2.03,16.61-5.12,24.98"/><path id="kvg:066f5-s3" kvg:type="&#12752;" d="M26.33,46.29c3.53-0.39,28.72-2.28,40.19-3.31c2.81-0.25,4.83,0.08,5.55,0.04"/><path id="kvg:066f5-s4" kvg:type="&#12752;" d="M27.79,59.11c9.73-0.53,35.16-2.76,48.59-3.62"/></g><path id="kvg:066f5-s5" kvg:type="&#12738;" d="M42.92,12c1.95,1.81,2.28,2.32,2.69,6.22c3.42,32.66,15.87,64.54,39.79,76.72c7.68,3.91,6.59,0.78,5.62-7.26"/><g id="kvg:066f5-g3" kvg:element="&#20031;"><path id="kvg:066f5-s6" kvg:type="&#12754;" d="M74.9,64.62c0.15,0.75,0.58,2.15-0.29,3.02C67,75.25,50.75,87.75,23.31,97.25"/></g></g><g id="kvg:066f5-g4" kvg:element="&#20022;"><path id="kvg:066f5-s7" kvg:type="&#12756;" d="M59.88,10.25c4.54,1.82,11.73,7.5,12.87,10.34"/></g></g></g></svg>