<svg xmlns="http://www.w3.org/2000/svg" width="109" height="109" viewBox="0 0 109 109"><g xmlns:kvg="http://kanjivg.tagaini.net" id="kvg:StrokePaths_0671d" style="fill:none;stroke:#000000;stroke-width:3;stroke-linecap:round;stroke-linejoin:round;"><g id="kvg:0671d" kvg:element="&#26397;"><g id="kvg:0671d-g1" kvg:position="left"><g id="kvg:0671d-g2" kvg:element="&#21313;"><path id="kvg:0671d-s1" kvg:type="&#12752;" d="M16.88,27.13c1.87,0.37,4.34,0.34,5.62,0.12c7.35-1.23,18.38-2.86,24.74-3.37c1.6-0.13,4.33-0.68,5.89-0.07"/><path id="kvg:0671d-s2" kvg:type="&#12753;a" d="M33.9,11.75c1.1,1,1.76,2.5,1.76,3.7c0,0.68,0.2,16.33,0.12,20.55"/></g><g id="kvg:0671d-g3" kvg:element="&#26089;"><g id="kvg:0671d-g4" kvg:element="&#26085;"><path id="kvg:0671d-s3" kvg:type="&#12753;" d="M17.77,38.44c1.23,0.81,2.01,2.14,2.2,3.32c0.72,4.38,3.12,18.94,3.12,19.29c0,0.4,0.13,1.4,0.26,2.2"/><path id="kvg:0671d-s4" kvg:type="&#12757;a" d="M20.76,39.32c8.12-1.32,23.99-3.44,29.06-3.83c2.06-0.16,3.43,1.26,3.15,3.7C52.45,43.78,51,52.5,50,57.5c-0.18,0.89-0.49,2.6-0.49,3.2"/><path id="kvg:0671d-s5" kvg:type="&#12752;a" d="M22.87,50.38c6.5-0.88,23-3.25,27.66-3.65"/><path id="kvg:0671d-s6" kvg:type="&#12752;a" d="M24.51,61c6.86-0.75,16.99-2.25,24.07-2.95"/></g><g id="kvg:0671d-g5" kvg:element="&#21313;"><path id="kvg:0671d-s7" kvg:type="&#12752;" d="M10.13,75.13c2.12,0.75,5.25,0.78,6.99,0.5C31,73.38,42.55,71.25,52.62,70.5c1.8-0.13,4.61-0.19,5.51,0.06"/><path id="kvg:0671d-s8" kvg:type="&#12753;" d="M34.65,62c1.11,1.11,1.51,2.5,1.51,3.95c0,5.55-0.01,16.22-0.08,24.8c-0.02,2.07-0.03,3.68-0.05,4.5"/></g></g></g><g id="kvg:0671d-g6" kvg:element="&#26376;" kvg:variant="true" kvg:original="&#32905;" kvg:position="right" kvg:radical="general" kvg:phon="&#33311;V"><path id="kvg:0671d-s9" kvg:type="&#12754;" d="M65.6,20.73c0.9,0.9,1.68,2.25,1.73,3.28C69,59.5,64.75,81.5,54.75,93"/><path id="kvg:0671d-s10" kvg:type="&#12742;a" d="M67.86,21.83c5.79-1.02,19.48-3.54,20.83-3.83c2.32-0.5,4.58,0.62,4.58,3.29c0,2.46-0.11,49.96-0.11,70.41c0,10.8-6.41,1.8-8.44-0.23"/><path id="kvg:0671d-s11" kvg:type="&#12752;a" d="M69.05,40.67c6.45-0.92,15.95-1.92,22.79-2.73"/><path id="kvg:0671d-s12" kvg:type="&#12752;a" d="M67.66,60.85c6.53-0.76,16.72-1.72,24.27-2.23"/></g></g></g></svg>