<svg xmlns="http://www.w3.org/2000/svg" width="109" height="109" viewBox="0 0 109 109"><g xmlns:kvg="http://kanjivg.tagaini.net" id="kvg:StrokePaths_0671b" style="fill:none;stroke:#000000;stroke-width:3;stroke-linecap:round;stroke-linejoin:round;"><g id="kvg:0671b" kvg:element="&#26395;"><g id="kvg:0671b-g1" kvg:position="top" kvg:phon="&#20129;"><g id="kvg:0671b-g2" kvg:element="&#20129;" kvg:position="left"><g id="kvg:0671b-g3" kvg:element="&#20128;"><path id="kvg:0671b-s1" kvg:type="&#12753;a" d="M33.49,13.86c0.95,0.95,1.43,2.27,1.43,3.7c0,2.62-0.14,7.36-0.01,9.58"/><g id="kvg:0671b-g4" kvg:element="&#21304;" kvg:part="1" kvg:variant="true" kvg:original="&#21274;"><path id="kvg:0671b-s2" kvg:type="&#12752;" d="M11.34,29.65c2.37,0.4,4.37,0.47,5.74,0.36C27,29.25,38.25,28,49.05,27.29c2.32-0.15,3.51,0.03,5.24,0.46"/></g></g><g id="kvg:0671b-g5" kvg:element="&#21304;" kvg:part="2" kvg:variant="true" kvg:original="&#21274;"><path id="kvg:0671b-s3" kvg:type="&#12767;a" d="M21.97,30.5c0.83,0.83,1,2.1,1,3.25c0,3.23,0,6.82,0,9.5c0,8.88,0.65,9.04,12.03,9.04c4.26,0,9.5,0.25,13.66-0.87"/></g></g><g id="kvg:0671b-g6" kvg:element="&#26376;" kvg:position="right" kvg:radical="tradit"><path id="kvg:0671b-s4" kvg:type="&#12754;" d="M65.52,17c0.8,0.8,1.04,2.13,0.9,3.32C64.75,34.88,60.38,50,52.25,56.75"/><path id="kvg:0671b-s5" kvg:type="&#12742;a" d="M67.25,19c3-0.25,18.28-3.11,20.5-3.5c2.88-0.5,4.5,0.75,4.25,3.75c-0.46,5.57-2.34,21.21-6.75,33.75c-3.25,9.25-7,4.5-8,3.25"/><path id="kvg:0671b-s6" kvg:type="&#12752;a" d="M66,30.25c9.25-0.75,15-1.5,24-2.25"/><path id="kvg:0671b-s7" kvg:type="&#12752;a" d="M63,41.75c8-0.75,15.5-1.5,24.75-2"/></g></g><g id="kvg:0671b-g7" kvg:element="&#29579;" kvg:original="&#29577;" kvg:partial="true" kvg:position="bottom" kvg:radical="nelson"><path id="kvg:0671b-s8" kvg:type="&#12752;" d="M29.77,64.31c2.11,0.44,4.93,0.23,6.86,0.05c7.3-0.67,23.53-2.21,32.89-2.77c2.05-0.12,4.13-0.33,6.12,0.33"/><path id="kvg:0671b-s9" kvg:type="&#12753;a" d="M52.62,64.22c1.02,1.02,1.43,2.15,1.43,3.54c0,5.92,0.23,17.87,0.23,24.72"/><path id="kvg:0671b-s10" kvg:type="&#12752;" d="M34.04,79.21c1,0.48,4.29,0.32,5.31,0.21C48.12,78.5,58,77.5,68.22,76.78c1.25-0.09,3.99-0.2,5.85,0.23"/><path id="kvg:0671b-s11" kvg:type="&#12752;" d="M19.25,94.59c3.25,0.66,6.71,0.51,9.77,0.33c14.38-0.82,36.03-2.08,51.86-2.58c3.79-0.12,8.38-0.09,11.63,0.74"/></g></g></g></svg>