<svg xmlns="http://www.w3.org/2000/svg" width="109" height="109" viewBox="0 0 109 109"><g xmlns:kvg="http://kanjivg.tagaini.net" id="kvg:StrokePaths_0672e" style="fill:none;stroke:#000000;stroke-width:3;stroke-linecap:round;stroke-linejoin:round;"><g id="kvg:0672e" kvg:element="&#26414;"><g id="kvg:0672e-g1" kvg:element="&#26408;" kvg:variant="true" kvg:radical="general"><path id="kvg:0672e-s1" kvg:type="&#12752;" d="M17.75,34.95c1.91,0.43,4.08,0.56,6.27,0.43c11.18-0.69,43.61-3.11,60.51-3.93c2.18-0.11,3.54,0.07,5.72,0.37"/><path id="kvg:0672e-s2" kvg:type="&#12753;" d="M52.75,11.62c1.25,0.5,1.75,2.72,1.75,3.75c0,10.5-0.5,76.25-0.75,82.5"/><path id="kvg:0672e-s3" kvg:type="&#12754;" d="M33.75,46.62c0.76,1.34,1.35,2.39,1.35,4.06c0,15.28-0.6,34.94-21.79,44.66"/><path id="kvg:0672e-s4" kvg:type="&#12767;/&#12751;" d="M72.6,42.24c0.67,1.26,1.21,2.75,1.25,4.69c0.18,8.67,0.02,23.1,0.02,29c0,13.44,1.13,14.44,10.88,14.44c10.25,0,10.75-1.5,10.75-13.89"/></g><g id="kvg:0672e-g2" kvg:element="&#20022;"><path id="kvg:0672e-s5" kvg:type="&#12756;" d="M68.77,11.95c4.25,1.79,10.98,7.35,12.04,10.13"/></g></g></g></svg>