<svg xmlns="http://www.w3.org/2000/svg" width="109" height="109" viewBox="0 0 109 109"><g xmlns:kvg="http://kanjivg.tagaini.net" id="kvg:StrokePaths_06736" style="fill:none;stroke:#000000;stroke-width:3;stroke-linecap:round;stroke-linejoin:round;"><g id="kvg:06736" kvg:element="&#26422;"><g id="kvg:06736-g1" kvg:element="&#20035;" kvg:position="top"><g id="kvg:06736-g2" kvg:element="&#20031;"><path id="kvg:06736-s1" kvg:type="&#12754;" d="M47.12,17.51c0.49,0.79,0.71,2.06,0.25,3.32C43.5,31.25,36,45,18.33,55.45"/></g><path id="kvg:06736-s2" kvg:type="&#12748;" d="M27.59,14.77c1.48,0.47,3.59,0.57,5.06,0.47c11.39-0.78,26.22-2.22,37.19-3.26c2.42-0.23,2.61,2.08,1.66,3.33c-2.95,3.88-7.01,9.34-9.96,13.38c-0.58,0.8-0.21,2.19,1.48,1.86c4.85-0.93,16.12-2.71,20.76-3.33c2.52-0.34,3.14,2.37,2.82,3.33C83.75,39,81.5,44.5,77.64,50c-3.5,4.99-7.59,1.55-9.28-0.62"/></g><g id="kvg:06736-g3" kvg:element="&#26408;" kvg:position="bottom" kvg:radical="general"><path id="kvg:06736-s3" kvg:type="&#12752;" d="M16.75,64.82c1.95,0.39,4.18,0.51,6.42,0.39c11.44-0.63,44.66-2.82,61.97-3.57c2.23-0.09,3.63,0.07,5.86,0.34"/><path id="kvg:06736-s4" kvg:type="&#12753;" d="M52.25,47.75c1.25,0.5,2.25,2.22,2.25,3.25c0,10.5,0,43.25-0.25,49.5"/><path id="kvg:06736-s5" kvg:type="&#12754;" d="M53.25,64.25c-6.77,9.94-24.92,25.12-39,30.75"/><path id="kvg:06736-s6" kvg:type="&#12751;" d="M54.5,64.5c5.25,5.75,26.75,21.5,33.18,25.19c1.86,1.07,3.29,1.71,5.07,2.06"/></g></g></g></svg>