<svg xmlns="http://www.w3.org/2000/svg" width="109" height="109" viewBox="0 0 109 109"><g xmlns:kvg="http://kanjivg.tagaini.net" id="kvg:StrokePaths_0673f" style="fill:none;stroke:#000000;stroke-width:3;stroke-linecap:round;stroke-linejoin:round;"><g id="kvg:0673f" kvg:element="&#26431;"><g id="kvg:0673f-g1" kvg:element="&#26408;" kvg:part="1" kvg:radical="general"><path id="kvg:0673f-s1" kvg:type="&#12752;" d="M23.75,27.61c1.7,0.57,3.64,0.75,5.6,0.57C39.5,27.25,64.25,25,79.86,23.9c1.94-0.14,3.64,0.1,4.64,0.5"/></g><g id="kvg:0673f-g2" kvg:element="&#20866;"><path id="kvg:0673f-s2" kvg:type="&#12753;" d="M26.25,40.17c0.55,0.97,1.04,2.53,1.24,4.29C27.75,46.75,30,63.58,30,66.5"/><path id="kvg:0673f-s3" kvg:type="&#12742;a" d="M27.49,42.62c7.76-0.37,50.86-4.62,52.24-4.9c2.94-0.58,3.99-0.06,3.78,2.84c-0.26,3.69-1.78,13.46-3.55,17.57C77,65,76.83,61.83,74.62,59.3"/></g><g id="kvg:0673f-g3" kvg:element="&#26408;" kvg:part="2" kvg:radical="general"><path id="kvg:0673f-s4" kvg:type="&#12753;" d="M52.25,12.25c1.25,0.5,2,2.25,2.25,3.25s0,76.25-0.25,82.5"/><path id="kvg:0673f-s5" kvg:type="&#12754;" d="M54.25,53.75C47.74,65.46,31.5,83.5,16.75,90.5"/><path id="kvg:0673f-s6" kvg:type="&#12751;" d="M55.5,55c4.75,4.49,27.09,27.02,32.25,31.43c1.75,1.5,3.25,2.14,5,2.57"/></g></g></g></svg>