<svg xmlns="http://www.w3.org/2000/svg" width="109" height="109" viewBox="0 0 109 109"><g xmlns:kvg="http://kanjivg.tagaini.net" id="kvg:StrokePaths_06741" style="fill:none;stroke:#000000;stroke-width:3;stroke-linecap:round;stroke-linejoin:round;"><g id="kvg:06741" kvg:element="&#26433;"><g id="kvg:06741-g1" kvg:element="&#26408;" kvg:position="left" kvg:radical="general"><path id="kvg:06741-s1" kvg:type="&#12752;" d="M11.28,38.52c0.36,0.29,2.5,0.49,3.47,0.37c4.13-0.48,20.03-1.43,26.66-2.87c0.96-0.21,2.25-0.29,2.86,0"/><path id="kvg:06741-s2" kvg:type="&#12753;" d="M27.86,15.5c0.91,0.47,1.86,3.49,2.04,4.42c0.18,0.93-0.12,70.75-0.3,76.58"/><path id="kvg:06741-s3" kvg:type="&#12754;" d="M29.94,39.28c-5.82,16.02-9.06,22.79-18.08,36.81"/><path id="kvg:06741-s4" kvg:type="&#12756;/&#12751;" d="M32.97,46.65c2.74,2.03,8.85,6.45,11.16,10.39"/></g><g id="kvg:06741-g2" kvg:element="&#20837;" kvg:position="right"><path id="kvg:06741-s5" kvg:type="&#12754;" d="M65.63,41.5C60.94,59.51,50.75,84,39,95.17"/><path id="kvg:06741-s6" kvg:type="&#12751;" d="M56.36,16.75c1.31,0,3.25,1.94,3.62,3.64C68.5,60,76.25,73.25,90.22,89.89c1.37,1.63,3.63,3.3,4.78,3.86"/></g></g></g></svg>