<svg xmlns="http://www.w3.org/2000/svg" width="109" height="109" viewBox="0 0 109 109"><g xmlns:kvg="http://kanjivg.tagaini.net" id="kvg:StrokePaths_06749" style="fill:none;stroke:#000000;stroke-width:3;stroke-linecap:round;stroke-linejoin:round;"><g id="kvg:06749" kvg:element="&#26441;"><g id="kvg:06749-g1" kvg:element="&#26408;" kvg:position="left" kvg:radical="general"><path id="kvg:06749-s1" kvg:type="&#12752;" d="M14.78,37.72c2.47,0.66,5.37,0.35,6.85,0.14c6.65-0.93,17.33-2.94,23.04-4.03c1.27-0.24,2.96-0.45,4.35-0.21"/><path id="kvg:06749-s2" kvg:type="&#12753;" d="M33.11,13.25c1.26,1.26,1.54,3.5,1.54,5.42c0,0.63-0.01,47.37-0.02,67.7c0,5.36,0,8.88,0,9.25"/><path id="kvg:06749-s3" kvg:type="&#12754;" d="M33.69,37.78c0,1.97-1.32,5.56-1.98,6.94C26.76,55.07,23.5,62,13.61,74.59"/><path id="kvg:06749-s4" kvg:type="&#12756;/&#12751;" d="M37.22,45.15c3.9,2.98,8.4,7.48,11.53,12.6"/></g><g id="kvg:06749-g2" kvg:element="&#24417;" kvg:position="right" kvg:phon="&#24417;"><g id="kvg:06749-g3" kvg:element="&#20031;"><path id="kvg:06749-s5" kvg:type="&#12754;" d="M82.7,13.25c0.08,0.67-0.21,1.58-0.66,2.46c-2.96,5.79-10.92,16.16-27.02,24.45"/></g><g id="kvg:06749-g4" kvg:element="&#20031;"><path id="kvg:06749-s6" kvg:type="&#12754;" d="M86.98,37.61c0.1,0.76-0.1,1.85-0.69,2.78c-4.67,7.48-14.04,20.23-32.71,29.03"/></g><g id="kvg:06749-g5" kvg:element="&#20031;"><path id="kvg:06749-s7" kvg:type="&#12754;" d="M97.53,62c0.12,0.89-0.21,1.95-0.98,3.08C89,76.25,74.75,89.25,55.07,99"/></g></g></g></g></svg>