<svg xmlns="http://www.w3.org/2000/svg" width="109" height="109" viewBox="0 0 109 109"><g xmlns:kvg="http://kanjivg.tagaini.net" id="kvg:StrokePaths_06759" style="fill:none;stroke:#000000;stroke-width:3;stroke-linecap:round;stroke-linejoin:round;"><g id="kvg:06759" kvg:element="&#26457;"><g id="kvg:06759-g1" kvg:element="&#26408;" kvg:position="left" kvg:radical="general"><path id="kvg:06759-s1" kvg:type="&#12752;" d="M12.78,36.22c0.37,0.24,2.55,0.41,3.53,0.31c4.21-0.41,17.78-1.71,24.54-2.91c0.98-0.17,2.3-0.24,2.91,0"/><path id="kvg:06759-s2" kvg:type="&#12753;" d="M28.86,16c0.91,0.47,2.04,2,2.04,4.42c0,0.95-0.12,67.25-0.3,73.08"/><path id="kvg:06759-s3" kvg:type="&#12754;" d="M30.44,37.78C25.75,53.5,20.5,63,12.11,74.59"/><path id="kvg:06759-s4" kvg:type="&#12756;/&#12751;" d="M32.97,46.4c2.73,1.47,7.22,6.25,9.53,9.1"/></g><g id="kvg:06759-g2" kvg:element="&#24331;" kvg:position="right"><path id="kvg:06759-s5" kvg:type="&#12752;" d="M43.5,42.58c1.5,0.42,3.23,0.98,4.69,0.78c11.56-1.6,25.81-3.85,40.72-4.76c1.87-0.11,3.18-0.15,4.42-0.01"/><path id="kvg:06759-s6" kvg:type="&#12738;" d="M59.99,13.5c1.34,1.8,1.56,2.31,1.84,6.18c2.34,32.46,11.38,62.66,27.8,74.77c5.27,3.89,4.52,0.77,3.85-7.21"/><g id="kvg:06759-g3" kvg:element="&#20022;"><path id="kvg:06759-s7" kvg:type="&#12756;" d="M75.24,19.21c3.13,1.68,8.13,5.52,9.59,8.39"/></g></g></g></g></svg>