<svg xmlns="http://www.w3.org/2000/svg" width="109" height="109" viewBox="0 0 109 109"><g xmlns:kvg="http://kanjivg.tagaini.net" id="kvg:StrokePaths_06750" style="fill:none;stroke:#000000;stroke-width:3;stroke-linecap:round;stroke-linejoin:round;"><g id="kvg:06750" kvg:element="&#26448;"><g id="kvg:06750-g1" kvg:element="&#26408;" kvg:position="left" kvg:radical="general"><path id="kvg:06750-s1" kvg:type="&#12752;" d="M13.78,34.47c2.22,0.53,4.65,0.26,6.35,0.05c6.15-0.75,18.88-2.61,25.39-3.65c1.09-0.17,2.56-0.24,3.24,0"/><path id="kvg:06750-s2" kvg:type="&#12753;" d="M34.02,13.5c1.18,1.18,1.86,2.75,1.86,4.92c0,0.82-0.08,52-0.1,72.33c0,3.46-0.01,6.01-0.01,7.25"/><path id="kvg:06750-s3" kvg:type="&#12754;" d="M34.75,34.38c0,1.62-0.72,3.77-1.13,4.87c-4.87,13-9.99,23.25-20.1,33.59"/><path id="kvg:06750-s4" kvg:type="&#12756;/&#12751;" d="M38.5,44.38c3.13,2.12,8.29,9.01,10.93,13.12"/></g><g id="kvg:06750-g2" kvg:element="&#25165;" kvg:position="right" kvg:phon="&#25165;"><g id="kvg:06750-g3" kvg:element="&#25164;" kvg:variant="true" kvg:original="&#25163;"><path id="kvg:06750-s5" kvg:type="&#12752;" d="M52.75,35.75c2.5,0.25,4.25,0.26,6.5,0.01c8.45-0.93,22.25-3.01,32.32-4.26c2.21-0.27,3.54-0.25,4.93,0"/><g id="kvg:06750-g4" kvg:element="&#20101;"><path id="kvg:06750-s6" kvg:type="&#12762;" d="M78.02,12.83c1.01,1.01,1.51,2.54,1.51,4.27c0,14.56-0.01,66.41-0.01,71.37c0,14.53-6.39,5.66-8.71,3.25"/></g><path id="kvg:06750-s7" kvg:type="&#12754;" d="M81.75,42c0,1.5-0.6,2.98-1.5,4c-8,9-19.37,21.56-35.25,31"/></g></g></g></g></svg>