<svg xmlns="http://www.w3.org/2000/svg" width="109" height="109" viewBox="0 0 109 109"><g xmlns:kvg="http://kanjivg.tagaini.net" id="kvg:StrokePaths_06761" style="fill:none;stroke:#000000;stroke-width:3;stroke-linecap:round;stroke-linejoin:round;"><g id="kvg:06761" kvg:element="&#26465;"><g id="kvg:06761-g1" kvg:element="&#22786;" kvg:position="top" kvg:radical="nelson" kvg:phon="&#25912;T/&#22786;"><path id="kvg:06761-s1" kvg:type="&#12754;" d="M45.94,12c0.06,0.57,0.13,1.47-0.12,2.29c-1.45,4.82-9.76,14.9-21.14,21.38"/><path id="kvg:06761-s2" kvg:type="&#12743;" d="M47.09,19.29c0.32,0.03,1.7,0.09,2.6-0.08c4.44-0.83,12.87-2.67,17.16-3.44c2.94-0.52,3.79,1.85,3.03,3.28C63.25,31.5,44.5,49.5,19,57.75"/><path id="kvg:06761-s3" kvg:type="&#12751;" d="M40.25,27C46,28.88,65.62,45.12,82.92,51.03c2.66,0.91,4.55,1.85,7,2.23"/></g><g id="kvg:06761-g2" kvg:element="&#26408;" kvg:position="bottom" kvg:radical="tradit"><path id="kvg:06761-s4" kvg:type="&#12752;" d="M17.75,66.5c3.12,0.62,5.4,0.44,7.88,0.28c11.53-0.77,38.84-2.42,53.99-3.28c2.96-0.17,5.98-0.08,8.88,0.5"/><path id="kvg:06761-s5" kvg:type="&#12753;" d="M53,50.5c0.88,0.88,1.5,2.62,1.5,4c0,4.31,0,23,0,37c0,3.71,0.06,5.87,0,7.25"/><path id="kvg:06761-s6" kvg:type="&#12754;" d="M50.5,65.95c-0.5,2.3-1.79,3.76-3.64,5.9c-7.92,9.16-21.1,19.24-31.86,23.9"/><path id="kvg:06761-s7" kvg:type="&#12751;" d="M57,66c4.16,3.05,20.81,15.83,28.07,21.03c2.25,1.61,4.18,2.59,6.93,3.79"/></g></g></g></svg>