<svg xmlns="http://www.w3.org/2000/svg" width="109" height="109" viewBox="0 0 109 109"><g xmlns:kvg="http://kanjivg.tagaini.net" id="kvg:StrokePaths_0676f" style="fill:none;stroke:#000000;stroke-width:3;stroke-linecap:round;stroke-linejoin:round;"><g id="kvg:0676f" kvg:element="&#26479;"><g id="kvg:0676f-g1" kvg:element="&#26408;" kvg:position="left" kvg:radical="general"><path id="kvg:0676f-s1" kvg:type="&#12752;" d="M12.28,36.22c2.1,0.53,4.3,0.27,5.73,0.11c6.1-0.67,16.88-2.7,23.01-3.87c1.26-0.24,3.11-0.58,4.5-0.34"/><path id="kvg:0676f-s2" kvg:type="&#12753;" d="M29.61,13c1.19,1.19,1.54,2.88,1.54,4.92c0,0.8-0.01,48.28-0.02,69.08c0,3.78,0,6.67,0,8.25"/><path id="kvg:0676f-s3" kvg:type="&#12754;" d="M30.69,36.53c0,1.47-0.62,3.64-1.16,4.86c-5.17,11.73-9.05,17.54-17.67,28.95"/><path id="kvg:0676f-s4" kvg:type="&#12756;/&#12751;" d="M33.97,42.65c3.23,1.59,7.15,5.6,10.78,11.35"/></g><g id="kvg:0676f-g2" kvg:element="&#19981;" kvg:position="right" kvg:phon="&#19981;"><g id="kvg:0676f-g3" kvg:element="&#19968;"><path id="kvg:0676f-s5" kvg:type="&#12752;" d="M47.97,24.71c2.53,0.66,5.49,0.36,7.53,0.1c9.71-1.22,24.15-3.05,34.75-4.02c2.74-0.25,5.48-0.55,8.15,0.22"/></g><g id="kvg:0676f-g4" kvg:element="&#20031;"><path id="kvg:0676f-s6" kvg:type="&#12754;" d="M74.81,26.41c0.08,0.9,0.34,2.38-0.17,3.62C71.75,37,60.12,53.12,44.37,64.67"/></g><g id="kvg:0676f-g5" kvg:element="&#20008;"><path id="kvg:0676f-s7" kvg:type="&#12753;" d="M68,39.25c1.19,1.19,1.64,2.75,1.64,4.62c0,2.84,0.05,28.77,0.08,42.63c0.01,4.65,0.01,8,0.01,8.75"/></g><path id="kvg:0676f-s8" kvg:type="&#12756;" d="M80.14,49.25c6.44,3.92,16.62,16.11,18.24,22.2"/></g></g></g></svg>