<svg xmlns="http://www.w3.org/2000/svg" width="109" height="109" viewBox="0 0 109 109"><g xmlns:kvg="http://kanjivg.tagaini.net" id="kvg:StrokePaths_06772" style="fill:none;stroke:#000000;stroke-width:3;stroke-linecap:round;stroke-linejoin:round;"><g id="kvg:06772" kvg:element="&#26482;"><g id="kvg:06772-g1" kvg:element="&#26085;" kvg:position="top" kvg:radical="nelson"><path id="kvg:06772-s1" kvg:type="&#12753;" d="M28.99,14.56c0.36,0.45,0.96,2.24,1.07,2.83c1.19,6.12,2.68,17.4,3.7,26.08"/><path id="kvg:06772-s2" kvg:type="&#12757;a" d="M30.69,16.68c12.71-1.17,34.98-3.16,44.47-4.14c3.48-0.36,5.33,0.67,5.09,3.19c-0.5,5.26-2.28,16.96-3.87,24.8"/><path id="kvg:06772-s3" kvg:type="&#12752;a" d="M32.56,28.21c4.14-0.46,41.5-3.31,44.92-3.5"/><path id="kvg:06772-s4" kvg:type="&#12752;a" d="M33.42,40.69C44.5,39.5,62.5,38,76.38,37.79"/></g><g id="kvg:06772-g2" kvg:element="&#26408;" kvg:position="bottom" kvg:radical="tradit"><path id="kvg:06772-s5" kvg:type="&#12752;" d="M18.25,59.73c1.98,0.46,4.23,0.61,6.51,0.46c11.6-0.76,45.26-3.41,62.8-4.3c2.26-0.11,3.68,0.08,5.94,0.41"/><path id="kvg:06772-s6" kvg:type="&#12753;" d="M52.84,41.25c1.02,0.5,1.83,2.22,1.83,3.25c0,10.5,0,49.25-0.2,55.5"/><path id="kvg:06772-s7" kvg:type="&#12754;" d="M51.75,58.75C45,72,33,86.25,13.5,93"/><path id="kvg:06772-s8" kvg:type="&#12751;" d="M55.5,58.5c4.78,4,27.27,24.04,32.47,27.97c1.76,1.33,3.27,1.9,5.03,2.28"/></g></g></g></svg>