<svg xmlns="http://www.w3.org/2000/svg" width="109" height="109" viewBox="0 0 109 109"><g xmlns:kvg="http://kanjivg.tagaini.net" id="kvg:StrokePaths_06770" style="fill:none;stroke:#000000;stroke-width:3;stroke-linecap:round;stroke-linejoin:round;"><g id="kvg:06770" kvg:element="&#26480;"><g id="kvg:06770-g1" kvg:element="&#26408;" kvg:position="top"><path id="kvg:06770-s1" kvg:type="&#12752;" d="M20.25,30.61c1.8,0.57,3.85,0.75,5.92,0.57c10.56-0.93,41.2-3.68,57.17-4.78c2.06-0.14,3.35,0.1,5.41,0.5"/><path id="kvg:06770-s2" kvg:type="&#12753;" d="M53.25,11.75C54,12.75,55,14.47,55,15.5c0,10.5,0,47.75-0.25,54"/><path id="kvg:06770-s3" kvg:type="&#12754;" d="M53.75,29.25c-7,11.75-22,27-38.5,33"/><path id="kvg:06770-s4" kvg:type="&#12751;" d="M54.5,29c5.75,6,25,22.25,32.83,26.77c1.93,1.11,3.36,1.86,5.17,2.23"/></g><g id="kvg:06770-g2" kvg:element="&#28780;" kvg:variant="true" kvg:original="&#28779;" kvg:position="bottom" kvg:radical="tradit"><path id="kvg:06770-s5" kvg:type="&#12756;" d="M25.19,80c0,6.16-7.73,15.24-9.75,17"/><path id="kvg:06770-s6" kvg:type="&#12756;" d="M40.96,78.33c2.47,3.46,4.82,12.99,5.44,18.38"/><path id="kvg:06770-s7" kvg:type="&#12756;" d="M61.57,75.83c3.24,3.38,8.37,13.88,9.18,19.13"/><path id="kvg:06770-s8" kvg:type="&#12756;" d="M81.46,75.58C86.24,79,93.8,89.65,95,94.97"/></g></g></g></svg>