<svg xmlns="http://www.w3.org/2000/svg" width="109" height="109" viewBox="0 0 109 109"><g xmlns:kvg="http://kanjivg.tagaini.net" id="kvg:StrokePaths_06771" style="fill:none;stroke:#000000;stroke-width:3;stroke-linecap:round;stroke-linejoin:round;"><g id="kvg:06771" kvg:element="&#26481;"><g id="kvg:06771-g1" kvg:element="&#26408;" kvg:part="1" kvg:radical="tradit"><path id="kvg:06771-s1" kvg:type="&#12752;" d="M30.63,25.23c2.36,0.62,4.86,0.47,7.25,0.22c8.24-0.86,22.7-2.7,32.4-3.57c2.38-0.21,4.51-0.14,6.85,0.22"/></g><g id="kvg:06771-g2" kvg:element="&#26085;"><path id="kvg:06771-s2" kvg:type="&#12753;" d="M26.77,37.86c1.03,1.03,1.78,2.05,2.07,3.44c0.86,4.14,3.61,16.02,4.97,21.91c0.43,1.87,0.72,3.14,0.76,3.36"/><path id="kvg:06771-s3" kvg:type="&#12757;a" d="M29.55,39.31c14.7-2.12,34.45-4.37,48.18-5.5c2.89-0.24,4.02,2.01,3.49,4.2c-1.33,5.48-2.84,12.21-5.27,19.87c-0.52,1.65-1.08,3.3-1.7,4.94"/><path id="kvg:06771-s4" kvg:type="&#12752;a" d="M32.25,51.07c8.12-0.88,37.75-4.12,45.57-4.4"/><path id="kvg:06771-s5" kvg:type="&#12752;a" d="M35.76,63.99c8.99-1.05,28.37-2.68,38.3-3.23"/></g><g id="kvg:06771-g3" kvg:element="&#26408;" kvg:part="2" kvg:radical="tradit"><path id="kvg:06771-s6" kvg:type="&#12753;" d="M51.25,12.32c1.5,1.5,2.25,3.5,2.25,5.25c0,4.5,0.06,55.21-0.14,75.75c-0.04,3.7-0.07,5.29-0.11,6.25"/><g id="kvg:06771-g4" kvg:element="&#20031;" kvg:radical="nelson"><path id="kvg:06771-s7" kvg:type="&#12754;" d="M51.62,63.94c-0.24,1.91-0.81,2.76-1.27,3.45c-6.59,9.83-20.19,21.12-31.6,26.42"/></g><path id="kvg:06771-s8" kvg:type="&#12751;" d="M55,64.44c7.5,7.2,21.77,17.49,29.78,22.16c2.81,1.64,6.1,3.51,9.34,4.09"/></g></g></g></svg>