<svg xmlns="http://www.w3.org/2000/svg" width="109" height="109" viewBox="0 0 109 109"><g xmlns:kvg="http://kanjivg.tagaini.net" id="kvg:StrokePaths_06785" style="fill:none;stroke:#000000;stroke-width:3;stroke-linecap:round;stroke-linejoin:round;"><g id="kvg:06785" kvg:element="&#26501;"><g id="kvg:06785-g1" kvg:element="&#26408;" kvg:position="left" kvg:radical="general"><path id="kvg:06785-s1" kvg:type="&#12752;" d="M12.53,36.3c0.37,0.26,2.53,0.43,3.5,0.33c4.17-0.43,19.16-1.83,25.86-3.11c0.97-0.18,2.27-0.25,2.88,0"/><path id="kvg:06785-s2" kvg:type="&#12753;" d="M29.36,13.5c0.91,0.47,2.04,3,2.04,5.42c0,0.95-0.12,70.75-0.3,76.58"/><path id="kvg:06785-s3" kvg:type="&#12754;" d="M30.94,39.28c-5.9,16.34-9.19,23.25-18.33,37.56"/><path id="kvg:06785-s4" kvg:type="&#12756;/&#12751;" d="M33.97,46.15c2.23,1.71,5.9,7.28,7.78,10.6"/></g><g id="kvg:06785-g2" kvg:element="&#24181;" kvg:partial="true" kvg:position="right"><g id="kvg:06785-g3" kvg:element="&#24178;"><path id="kvg:06785-s5" kvg:type="&#12752;" d="M48.5,21.8c1.05,0.39,2.98,0.44,4.04,0.39c6.34-0.28,26.46-1.94,36.02-2.98c1.75-0.19,2.81,0.19,3.69,0.39"/><g id="kvg:06785-g4" kvg:element="&#21313;"><path id="kvg:06785-s6" kvg:type="&#12752;" d="M45,49.89c1.27,0.44,3.59,0.95,4.87,0.94c6.63-0.03,31.99-2.67,43.43-2.51c2.12,0.03,3.39,0.21,4.45,0.43"/><path id="kvg:06785-s7" kvg:type="&#12754;/&#12753;" d="M59.25,24.75c1.25,2,1.5,2.25,1.5,3.75s0,4.75,0,17.5s-3.5,38.5-17,46.25"/></g></g><g id="kvg:06785-g5" kvg:element="&#24178;" kvg:partial="true"><g id="kvg:06785-g6" kvg:element="&#21313;" kvg:partial="true"><path id="kvg:06785-s8" kvg:type="&#12753;" d="M78,23.5c1,1,1.75,2,1.75,3s0,66.5,0,69.5"/></g></g></g></g></g></svg>