<svg xmlns="http://www.w3.org/2000/svg" width="109" height="109" viewBox="0 0 109 109"><g xmlns:kvg="http://kanjivg.tagaini.net" id="kvg:StrokePaths_0679d" style="fill:none;stroke:#000000;stroke-width:3;stroke-linecap:round;stroke-linejoin:round;"><g id="kvg:0679d" kvg:element="&#26525;"><g id="kvg:0679d-g1" kvg:element="&#26408;" kvg:position="left" kvg:radical="general"><path id="kvg:0679d-s1" kvg:type="&#12752;" d="M13.28,39.54c2.1,0.46,4.14,0.47,5.61,0.29c4.96-0.58,14.97-2.08,20.74-3.03c1.23-0.2,2.74-0.17,4.13,0.01"/><path id="kvg:0679d-s2" kvg:type="&#12753;" d="M31.11,17.75c1.13,1.13,2.04,3.12,2.04,4.43c0,0.74,0.05,42.95,0.05,62.32c0,3.53-0.08,5.5-0.08,8.38"/><path id="kvg:0679d-s3" kvg:type="&#12754;" d="M32.44,39.35c0,1.52-0.49,2.96-0.93,4.01c-5.01,11.77-9.13,19.52-17.15,29.38"/><path id="kvg:0679d-s4" kvg:type="&#12756;/&#12751;" d="M35.88,49.62c2.62,1.63,6.92,6.92,9.12,10.08"/></g><g id="kvg:0679d-g2" kvg:element="&#25903;" kvg:position="right" kvg:phon="&#25903;"><g id="kvg:0679d-g3" kvg:element="&#21313;" kvg:position="top"><path id="kvg:0679d-s5" kvg:type="&#12752;" d="M50.38,34.28c2.25,0.6,4.85,0.37,6.86,0.02c9.76-1.68,22.17-3.04,30.26-4.03c1.99-0.24,3.68-0.43,5.62,0.16"/><path id="kvg:0679d-s6" kvg:type="&#12753;a" d="M68.75,13.88c1,1,1.84,3.12,1.84,4.83c0,1.03-0.21,24.66-0.21,32.42"/></g><g id="kvg:0679d-g4" kvg:element="&#21448;" kvg:position="bottom"><path id="kvg:0679d-s7" kvg:type="&#12743;" d="M54.99,54.04c1.25,0.44,2.86,0.58,5.42,0.19c4.72-0.72,17.77-3.77,21.61-4.99c3.11-0.99,4.44,1.3,2.89,4.3C74.88,72.88,62.12,86,46.06,93.5"/><path id="kvg:0679d-s8" kvg:type="&#12751;" d="M55.1,62.39c3.71,0.71,20.65,17.48,33.8,26.89c1.91,1.37,3.11,2.09,4.86,2.69"/></g></g></g></g></svg>