<svg xmlns="http://www.w3.org/2000/svg" width="109" height="109" viewBox="0 0 109 109"><g xmlns:kvg="http://kanjivg.tagaini.net" id="kvg:StrokePaths_06797" style="fill:none;stroke:#000000;stroke-width:3;stroke-linecap:round;stroke-linejoin:round;"><g id="kvg:06797" kvg:element="&#26519;"><g id="kvg:06797-g1" kvg:element="&#26408;" kvg:variant="true" kvg:position="left" kvg:radical="general"><path id="kvg:06797-s1" kvg:type="&#12752;" d="M11,40.75c0.75,0.25,3.01,0.42,5,0.25c5.88-0.5,15.5-1.38,24-2.5c1.98-0.26,3.25-0.25,4.5,0"/><path id="kvg:06797-s2" kvg:type="&#12753;" d="M30.75,15.75c1.12,1.12,1.75,2.75,1.75,4.75c0,5,0.07,45.73-0.12,65.5c-0.04,4.18-0.08,7.16-0.13,8.25"/><path id="kvg:06797-s3" kvg:type="&#12754;" d="M31.25,40.5c0,1.62-0.55,3.41-1.05,4.59C26.09,54.68,18.62,67,11.25,73.5"/><path id="kvg:06797-s4" kvg:type="&#12756;/&#12751;" d="M35.25,48.75c3.5,2,7.25,6,9.25,9.5"/></g><g id="kvg:06797-g2" kvg:element="&#26408;" kvg:position="right" kvg:radical="general"><path id="kvg:06797-s5" kvg:type="&#12752;" d="M50.62,37.39c0.94,0.34,2.96,0.59,5.44,0.34c8.2-0.84,18.68-2.6,27.97-3.04c2.49-0.12,4.65-0.34,6.21,0"/><path id="kvg:06797-s6" kvg:type="&#12753;" d="M67,13.5c1.25,1.25,1.75,3,1.75,4.5c0,0.85,0.07,47.55-0.12,67.75c-0.04,4.32-0.08,7.4-0.13,8.5"/><path id="kvg:06797-s7" kvg:type="&#12754;" d="M68,38.25c0,1-0.64,2.87-1.39,4.58C61.25,55,55.38,66.38,45.5,77"/><path id="kvg:06797-s8" kvg:type="&#12751;" d="M69.5,37.75c6.62,12.62,15.94,25.68,22.32,32.52c1.78,1.91,4.12,4.6,6.68,5.48"/></g></g></g></svg>