<svg xmlns="http://www.w3.org/2000/svg" width="109" height="109" viewBox="0 0 109 109"><g xmlns:kvg="http://kanjivg.tagaini.net" id="kvg:StrokePaths_06795" style="fill:none;stroke:#000000;stroke-width:3;stroke-linecap:round;stroke-linejoin:round;"><g id="kvg:06795" kvg:element="&#26517;"><g id="kvg:06795-g1" kvg:element="&#26408;" kvg:position="left" kvg:radical="general"><path id="kvg:06795-s1" kvg:type="&#12752;" d="M12.78,40.72c0.35,0.24,2.39,0.41,3.31,0.31c3.94-0.41,17.62-2.71,23.95-3.91c0.92-0.17,1.15-0.24,1.73,0"/><path id="kvg:06795-s2" kvg:type="&#12753;" d="M28.86,15c0.91,0.47,2.04,3,2.04,4.92c0,0.95-0.12,70.75-0.3,76.58"/><path id="kvg:06795-s3" kvg:type="&#12754;" d="M30.44,41.28c-5.9,14.39-9.69,21.97-18.83,34.56"/><path id="kvg:06795-s4" kvg:type="&#12756;/&#12751;" d="M33.97,49.9c2.51,1.75,7.04,7.75,9.16,11.14"/></g><g id="kvg:06795-g2" kvg:position="right"><g id="kvg:06795-g3" kvg:element="&#20886;"><path id="kvg:06795-s5" kvg:type="&#12756;" d="M49.41,30.13c0,3.93-2,14.74-2.91,17.37"/><path id="kvg:06795-s6" kvg:type="&#12758;b" d="M49.74,35.14c11.69-2.49,28-4.48,36.36-5.31c11.22-1.11,3.55,6.73-0.42,9.79"/></g><g id="kvg:06795-g4" kvg:element="&#20799;" kvg:original="&#20843;"><g id="kvg:06795-g5" kvg:element="&#20031;" kvg:position="left"><path id="kvg:06795-s7" kvg:type="&#12754;" d="M68.15,12.5c0.89,1.77,1.12,2.32,1.15,5.06c0.18,22.95-0.91,61.04-28.38,77.11"/></g><g id="kvg:06795-g6" kvg:position="right"><path id="kvg:06795-s8" kvg:type="&#12767;" d="M71.99,50.87c0.74,1.19,1.33,2.59,1.38,4.43c0.2,8.19-0.03,18.14-0.03,23.7c0,13,2.9,14.53,11.67,14.53c10.75,0,11.89-5.78,11.89-12.62"/></g></g></g></g></g></svg>