<svg xmlns="http://www.w3.org/2000/svg" width="109" height="109" viewBox="0 0 109 109"><g xmlns:kvg="http://kanjivg.tagaini.net" id="kvg:StrokePaths_0679c" style="fill:none;stroke:#000000;stroke-width:3;stroke-linecap:round;stroke-linejoin:round;"><g id="kvg:0679c" kvg:element="&#26524;"><g id="kvg:0679c-g1" kvg:element="&#30000;" kvg:part="1"><g id="kvg:0679c-g2" kvg:element="&#26085;"><path id="kvg:0679c-s1" kvg:type="&#12753;" d="M28.27,16.76c1.11,1.11,1.66,2.37,1.78,3.35c0.28,2.35,2.58,16.8,3.9,24.85c0.23,1.42,0.43,2.63,0.59,3.55"/><path id="kvg:0679c-s2" kvg:type="&#12757;a" d="M30.44,18.39c8.07-0.87,34.21-3.65,42.93-4.44c4.09-0.37,6.75,1.64,5.63,6.08c-1.27,5.05-3.81,15.36-5.37,21.47c-0.38,1.49-0.7,2.73-0.93,3.59"/><path id="kvg:0679c-s3" kvg:type="&#12752;a" d="M33.08,32.26c8.67-0.89,35.17-3.64,42.47-3.9"/><path id="kvg:0679c-s4" kvg:type="&#12752;a" d="M35.44,46.22c6.06-0.53,29.31-2.7,36.85-3.15"/></g></g><g id="kvg:0679c-g3" kvg:element="&#26408;" kvg:radical="tradit"><path id="kvg:0679c-s5" kvg:type="&#12752;" d="M17.5,59.75c3.11,1.04,6.31,0.96,9.49,0.59c12.89-1.47,39.78-3.8,55.39-4.64c2.89-0.16,5.79-0.27,8.63,0.3"/><g id="kvg:0679c-g4" kvg:element="&#30000;" kvg:part="2"><g id="kvg:0679c-g5" kvg:element="&#20008;" kvg:radical="nelson"><path id="kvg:0679c-s6" kvg:type="&#12753;" d="M52.75,18.75c1.12,1.12,1.5,2.72,1.5,3.75c0,2.49-0.19,49.36-0.24,67.12C54,92.37,54,94.41,54,95.5"/></g></g><path id="kvg:0679c-s7" kvg:type="&#12754;" d="M50.5,59c0,1-0.6,2.07-1.08,2.75C42.13,72.13,26.63,85.39,13.88,91"/><path id="kvg:0679c-s8" kvg:type="&#12751;" d="M55.88,59.62c4.88,4,22.25,17.62,29.79,23.25c2.33,1.74,4.48,3.16,7.21,4.25"/></g></g></g></svg>