<svg xmlns="http://www.w3.org/2000/svg" width="109" height="109" viewBox="0 0 109 109"><g xmlns:kvg="http://kanjivg.tagaini.net" id="kvg:StrokePaths_067a1" style="fill:none;stroke:#000000;stroke-width:3;stroke-linecap:round;stroke-linejoin:round;"><g id="kvg:067a1" kvg:element="&#26529;"><g id="kvg:067a1-g1" kvg:element="&#26408;" kvg:position="left" kvg:radical="general"><path id="kvg:067a1-s1" kvg:type="&#12752;" d="M11.03,39.22c0.37,0.24,2.54,0.41,3.51,0.31c4.18-0.41,17.11-1.71,23.83-2.91c0.97-0.17,2.28-0.24,2.9,0"/><path id="kvg:067a1-s2" kvg:type="&#12753;" d="M26.86,14.5c0.91,0.47,2.04,2.75,2.04,4.92c0,0.95-0.12,71.75-0.3,77.58"/><path id="kvg:067a1-s3" kvg:type="&#12754;" d="M28.44,42.28C23.25,57,20,63.25,11.11,74.59"/><path id="kvg:067a1-s4" kvg:type="&#12756;/&#12751;" d="M31.97,49.9c2.37,1.59,6.28,6.76,8.28,9.85"/></g><g id="kvg:067a1-g2" kvg:element="&#21319;" kvg:position="right"><g id="kvg:067a1-g3" kvg:element="&#20031;"><path id="kvg:067a1-s5" kvg:type="&#12754;" d="M67.19,15c0.06,0.41,0.26,1.21-0.11,1.64c-5.32,6.11-11.82,11.11-21.2,15.66"/></g><g id="kvg:067a1-g4" kvg:element="&#24318;" kvg:variant="true"><g id="kvg:067a1-g5" kvg:element="&#20031;"><path id="kvg:067a1-s6" kvg:type="&#12754;" d="M45.25,51.8c0.95,0.23,2.69,0.27,3.64,0.23c9.89-0.39,33.22-3.55,45.78-3.75c1.58-0.02,2.54,0.11,3.33,0.23"/></g><g id="kvg:067a1-g6" kvg:element="&#21313;"><path id="kvg:067a1-s7" kvg:type="&#12752;" d="M59.9,27.25c0.59,1.58,1.19,3.24,1.19,5.55c0,31.2-0.58,51.95-17.46,62.7"/><path id="kvg:067a1-s8" kvg:type="&#12753;" d="M80.24,14.25c0.94,0.94,1.46,2.23,1.46,3.25c0,6.75-0.22,73.25-0.22,80.5"/></g></g></g></g></g></svg>