<svg xmlns="http://www.w3.org/2000/svg" width="109" height="109" viewBox="0 0 109 109"><g xmlns:kvg="http://kanjivg.tagaini.net" id="kvg:StrokePaths_067b4" style="fill:none;stroke:#000000;stroke-width:3;stroke-linecap:round;stroke-linejoin:round;"><g id="kvg:067b4" kvg:element="&#26548;"><g id="kvg:067b4-g1" kvg:element="&#26408;" kvg:position="left" kvg:radical="general"><path id="kvg:067b4-s1" kvg:type="&#12752;" d="M13.78,38.22c0.38,0.24,2.62,0.41,3.63,0.31c4.33-0.41,19.9-2.21,26.86-3.41c1.01-0.17,2.36-0.24,3,0"/><path id="kvg:067b4-s2" kvg:type="&#12753;" d="M30.86,14.5c0.91,0.47,2.14,2,2.54,4.42c0.15,0.94-0.12,70.75-0.3,76.58"/><path id="kvg:067b4-s3" kvg:type="&#12754;" d="M32.94,39.78c-2.69,8.47-8.31,21.43-17.08,34.31"/><path id="kvg:067b4-s4" kvg:type="&#12756;/&#12751;" d="M36.97,47.65c2.09,1.55,5.52,6.59,7.28,9.6"/></g><g id="kvg:067b4-g2" kvg:position="right"><g id="kvg:067b4-g3" kvg:element="&#21475;" kvg:position="top"><path id="kvg:067b4-s5" kvg:type="&#12753;" d="M52.75,17.64c0.42,0.39,0.85,0.72,1.04,1.21C55.25,22.75,57,35,58,42"/><path id="kvg:067b4-s6" kvg:type="&#12757;b" d="M55.38,19.28C65.5,18,83,16,87.94,15.49c1.8-0.19,2.89,1.11,2.63,2.21c-1.07,4.55-2.32,13.05-3.91,19.35"/><path id="kvg:067b4-s7" kvg:type="&#12752;b" d="M58.2,39.58C64,39,81,38,88.96,37.11"/></g><g id="kvg:067b4-g4" kvg:element="&#20992;" kvg:position="bottom"><path id="kvg:067b4-s8" kvg:type="&#12742;" d="M51.92,54.7c1.52,0.5,3.43,0.39,4.77,0.27c7.57-0.72,25.95-3.74,31.96-4.25c3.91-0.33,5.65,1,5.43,3.32c-0.57,6.14-6.04,29.31-11.37,36.37c-3.87,5.12-6.12,3.48-9.04,0.16"/><path id="kvg:067b4-s9" kvg:type="&#12754;" d="M68.97,53.85c0.07,0.91,0.29,2.41-0.14,3.66C64.25,70.75,58.25,84.25,45.5,94.75"/></g></g></g></g></svg>