<svg xmlns="http://www.w3.org/2000/svg" width="109" height="109" viewBox="0 0 109 109"><g xmlns:kvg="http://kanjivg.tagaini.net" id="kvg:StrokePaths_067b7" style="fill:none;stroke:#000000;stroke-width:3;stroke-linecap:round;stroke-linejoin:round;"><g id="kvg:067b7" kvg:element="&#26551;"><g id="kvg:067b7-g1" kvg:element="&#26408;" kvg:position="left" kvg:radical="general"><path id="kvg:067b7-s1" kvg:type="&#12752;" d="M11.53,36.28c0.37,0.26,2.55,0.44,3.52,0.33c4.2-0.43,15.31-1.28,22.06-2.57c0.98-0.19,2.29-0.26,2.91,0"/><path id="kvg:067b7-s2" kvg:type="&#12753;" d="M27.36,14.5c0.91,0.47,2.04,2,2.04,4.42c0,0.95-0.12,69.75-0.3,75.58"/><path id="kvg:067b7-s3" kvg:type="&#12754;" d="M28.94,40.28c-5.1,15.04-7.94,21.4-15.83,34.56"/><path id="kvg:067b7-s4" kvg:type="&#12756;/&#12751;" d="M31.47,46.9c2.37,1.59,6.28,6.76,8.28,9.85"/></g><g id="kvg:067b7-g2" kvg:element="&#21152;" kvg:position="right"><g id="kvg:067b7-g3" kvg:element="&#21147;" kvg:position="left"><path id="kvg:067b7-s5" kvg:type="&#12742;" d="M41.47,41.17c1.1,0.69,3.26,0.45,4.01,0.36c6.27-0.78,15.55-2.48,18.79-3.16c2.11-0.45,3.65,0.62,3.53,3.76c-0.31,8.27-5.75,36.84-10.01,46.95c-3.48,8.27-5.74,0.77-6.6-0.21"/><path id="kvg:067b7-s6" kvg:type="&#12754;" d="M54.18,15.68c0.19,0.43,0.76,2.31,0.66,4.46C53.94,40.13,51.75,79,35.65,93.39"/></g><g id="kvg:067b7-g4" kvg:element="&#21475;" kvg:position="right"><path id="kvg:067b7-s7" kvg:type="&#12753;" d="M74.79,34.48c0.71,1.02,1.3,3.27,1.37,4.48c0.52,9.59,1.14,35.03,1.49,52.25"/><path id="kvg:067b7-s8" kvg:type="&#12757;b" d="M75.64,35.99c7.35-1.38,13.8-2.88,17.93-3.08c1.76-0.09,3.14,1.04,3,3.28c-0.3,4.81-3.18,33.2-4.32,51.69"/><path id="kvg:067b7-s9" kvg:type="&#12752;b" d="M78.11,89.28c5.23-0.47,10.39-1.03,16.71-1.18"/></g></g></g></g></svg>