<svg xmlns="http://www.w3.org/2000/svg" width="109" height="109" viewBox="0 0 109 109"><g xmlns:kvg="http://kanjivg.tagaini.net" id="kvg:StrokePaths_067c4" style="fill:none;stroke:#000000;stroke-width:3;stroke-linecap:round;stroke-linejoin:round;"><g id="kvg:067c4" kvg:element="&#26564;"><g id="kvg:067c4-g1" kvg:element="&#26408;" kvg:position="left" kvg:radical="general"><path id="kvg:067c4-s1" kvg:type="&#12752;" d="M13.53,37.47C15,38,18.03,37.9,19.37,37.74c5.21-0.62,14.66-1.89,20.29-2.88c1.26-0.22,3.08-0.78,4.35-0.25"/><path id="kvg:067c4-s2" kvg:type="&#12753;" d="M30.36,15c1.26,1.26,1.54,3,1.54,4.67c0,0.76,0.06,47.45,0.06,68.58c0,5.03-0.05,6.36-0.09,7.5"/><path id="kvg:067c4-s3" kvg:type="&#12754;" d="M31.19,37.28c0,1.97-0.67,3.6-1.33,5.12c-4.8,10.97-7.86,16.1-16.5,27.69"/><path id="kvg:067c4-s4" kvg:type="&#12756;/&#12751;" d="M35.12,46.62c2.11,1.45,5.59,7.06,7.38,9.88"/></g><g id="kvg:067c4-g2" kvg:element="&#19993;" kvg:position="right" kvg:phon="&#19993;"><g id="kvg:067c4-g3" kvg:element="&#19968;"><path id="kvg:067c4-s5" kvg:type="&#12752;" d="M51.9,28.25c2.97,0.38,4.61,0.38,6.87,0.05c6.68-0.97,19.16-2.94,26.98-3.42c2.1-0.13,4.27-0.29,6.31,0.36"/></g><g id="kvg:067c4-g4" kvg:element="&#20869;"><g id="kvg:067c4-g5" kvg:element="&#20866;"><path id="kvg:067c4-s6" kvg:type="&#12753;" d="M49.69,50.61c1.22,1.22,1.31,2.51,1.45,4.73c0.43,6.83,0.79,22.35,1.23,32.65c0.1,2.48,0.19,4.65,0.26,6.33"/><path id="kvg:067c4-s7" kvg:type="&#12742;a" d="M52.12,52.01c7.51-1.12,30.71-4.43,36.9-5.27c3.32-0.45,5.46,0.75,5.55,4.41c0.21,8.92-0.26,31.04-1.55,37.98c-1.35,7.25-3.77,3.61-7.08,0.28"/></g><g id="kvg:067c4-g6" kvg:element="&#20154;"><path id="kvg:067c4-s8" kvg:type="&#12754;" d="M70.07,29.69c0.81,0.81,1.06,1.93,1.03,3.45c-0.34,14.98-1.59,31.48-14.96,43.3"/><path id="kvg:067c4-s9" kvg:type="&#12756;/&#12751;" d="M71.88,58.5c5.25,2.58,13.57,10.59,14.88,14.59"/></g></g></g></g></g></svg>