<svg xmlns="http://www.w3.org/2000/svg" width="109" height="109" viewBox="0 0 109 109"><g xmlns:kvg="http://kanjivg.tagaini.net" id="kvg:StrokePaths_067c1" style="fill:none;stroke:#000000;stroke-width:3;stroke-linecap:round;stroke-linejoin:round;"><g id="kvg:067c1" kvg:element="&#26561;"><g id="kvg:067c1-g1" kvg:element="&#26408;" kvg:position="left" kvg:radical="general"><path id="kvg:067c1-s1" kvg:type="&#12752;" d="M13.03,39.97c2.03,0.33,4.08,0.41,6.13,0.23c4.78-0.6,12.68-1.73,18.1-2.67c1.31-0.38,2.65-0.52,4.01-0.41"/><path id="kvg:067c1-s2" kvg:type="&#12753;" d="M30.61,15.75c1.19,1.19,1.54,2.5,1.54,4.42c0,0.79,0.07,47.66,0.09,66.95c0,3.96,0.01,6.75,0.01,7.75"/><path id="kvg:067c1-s3" kvg:type="&#12754;" d="M31.69,40.78c0,1.59-1.37,5.67-2.13,7.42C24.99,58.78,21.62,64,13.61,74.34"/><path id="kvg:067c1-s4" kvg:type="&#12756;/&#12751;" d="M35.72,50.4c2.68,1.84,6.15,5.58,8.41,9.14"/></g><g id="kvg:067c1-g2" kvg:element="&#23427;" kvg:position="right"><g id="kvg:067c1-g3" kvg:element="&#23424;" kvg:position="top"><path id="kvg:067c1-s5" kvg:type="&#12753;a" d="M66.48,15.24c1.01,1.01,1.57,2.38,1.57,3.47c0,3.59-0.04,7.27-0.04,10.54"/><g id="kvg:067c1-g4" kvg:element="&#20886;"><path id="kvg:067c1-s6" kvg:type="&#12756;" d="M48.13,31.24c0,3.62-1.85,11.09-2.92,13.51"/><path id="kvg:067c1-s7" kvg:type="&#12758;b" d="M48.92,33.11c15.39-2.14,24.53-3.72,39.08-4.27c9.61-0.37,2.5,5.13-0.29,7.8"/></g></g><g id="kvg:067c1-g5" kvg:element="&#21269;" kvg:position="bottom"><path id="kvg:067c1-s8" kvg:type="&#12754;" d="M85.78,45.51c-0.17,1.26-0.81,2.19-1.7,3.07C79.5,53.12,71.88,59.5,62.8,63.62"/><path id="kvg:067c1-s9" kvg:type="&#12767;" d="M57.5,40.88c0.93,0.93,1.08,2.12,1.08,3.42c0,1.43-0.08,34.29-0.08,38.7c0,8.67,2.53,10.26,17.28,10.26c15.47,0,17.52-2.76,17.52-13.54"/></g></g></g></g></svg>