<svg xmlns="http://www.w3.org/2000/svg" width="109" height="109" viewBox="0 0 109 109"><g xmlns:kvg="http://kanjivg.tagaini.net" id="kvg:StrokePaths_067dd" style="fill:none;stroke:#000000;stroke-width:3;stroke-linecap:round;stroke-linejoin:round;"><g id="kvg:067dd" kvg:element="&#26589;"><g id="kvg:067dd-g1" kvg:element="&#26408;" kvg:position="left" kvg:radical="general"><path id="kvg:067dd-s1" kvg:type="&#12752;" d="M15.28,37.72c0.35,0.24,2.39,0.41,3.31,0.31c3.94-0.41,18.12-2.21,24.45-3.41c0.92-0.17,2.15-0.24,2.73,0"/><path id="kvg:067dd-s2" kvg:type="&#12753;" d="M29.86,15c0.91,0.47,2.54,2,2.54,3.92c0,0.95-0.12,70.75-0.3,76.58"/><path id="kvg:067dd-s3" kvg:type="&#12754;" d="M31.94,40.28c-5.1,15.04-8.94,21.4-16.83,34.56"/><path id="kvg:067dd-s4" kvg:type="&#12756;/&#12751;" d="M34.47,45.9c2.37,1.59,8.28,8.76,10.28,11.85"/></g><g id="kvg:067dd-g2" kvg:element="&#26021;" kvg:position="right"><g id="kvg:067dd-g3" kvg:element="&#26020;"><path id="kvg:067dd-s5" kvg:type="&#12754;" d="M84.11,13.5c0.07,0.4,0.31,1.19-0.15,1.62C77.66,21.05,69.6,25.54,56.3,30.64"/><path id="kvg:067dd-s6" kvg:type="&#12754;" d="M53.05,29.79c1.43,1.99,1.44,3.89,1.4,6.06c-0.12,6.54-0.22,8.25-0.22,16.04c0,14.25-3.04,31.87-13.47,41.9"/><path id="kvg:067dd-s7" kvg:type="&#12752;" d="M55.78,45.5c2.01,0,3.36-0.11,4.62-0.25c6.95-0.8,21.99-2.61,29.89-3.01c1.27-0.06,3.47-0.13,4.26,0"/><path id="kvg:067dd-s8" kvg:type="&#12753;" d="M74.06,47.1c0.94,0.57,1.5,2.59,1.69,3.74c0.19,1.15,0,39.73-0.19,46.91"/></g><g id="kvg:067dd-g4" kvg:element="&#20022;"><path id="kvg:067dd-s9" kvg:type="&#12756;" d="M62.66,58.98c9.38,2.51,24.23,10.31,26.58,14.22"/></g></g></g></g></svg>