<svg xmlns="http://www.w3.org/2000/svg" width="109" height="109" viewBox="0 0 109 109"><g xmlns:kvg="http://kanjivg.tagaini.net" id="kvg:StrokePaths_067de" style="fill:none;stroke:#000000;stroke-width:3;stroke-linecap:round;stroke-linejoin:round;"><g id="kvg:067de" kvg:element="&#26590;"><g id="kvg:067de-g1" kvg:element="&#26408;" kvg:position="left" kvg:radical="general"><path id="kvg:067de-s1" kvg:type="&#12752;" d="M12.28,36.72c0.37,0.24,2.55,0.41,3.52,0.31c4.2-0.41,19.3-1.71,26.06-2.91c0.98-0.17,2.29-0.24,2.91,0"/><path id="kvg:067de-s2" kvg:type="&#12753;" d="M29.36,14c0.91,0.47,2.04,2.25,2.04,4.42c0,0.95-0.12,70.25-0.3,76.08"/><path id="kvg:067de-s3" kvg:type="&#12754;" d="M30.94,38.78c-5.9,16.78-9.19,23.87-18.33,38.56"/><path id="kvg:067de-s4" kvg:type="&#12756;/&#12751;" d="M34.47,48.9c2.37,1.59,7.28,6.76,9.28,9.85"/></g><g id="kvg:067de-g2" kvg:element="&#20045;" kvg:position="right"><g id="kvg:067de-g3" kvg:element="&#20031;"><path id="kvg:067de-s5" kvg:type="&#12754;" d="M62.25,13.5c0.05,0.83,0.24,2.16-0.1,3.31C60,24.25,54.25,37.75,45.06,48.5"/></g><path id="kvg:067de-s6" kvg:type="&#12752;" d="M57.36,31.81c0.92,0.24,2.61,0.28,3.54,0.24c12.18-0.5,20.71-3.1,29.67-3.61c1.7-0.1,2.81,0.03,4.14,0.27"/><path id="kvg:067de-s7" kvg:type="&#12753;" d="M65.16,34.46c0.85,0.48,1.36,2.17,1.53,3.13c0.17,0.96,0,52.14-0.17,58.16"/><path id="kvg:067de-s8" kvg:type="&#12752;b" d="M67.57,51.84c6.35-0.65,13.09-1.33,20.27-1.98c1.69-0.15,2.32-0.21,4.13,0.12"/><path id="kvg:067de-s9" kvg:type="&#12752;b" d="M66.99,68.09c4.66-0.36,12.21-1.17,22.87-1.94c0.96-0.07,3.4,0.07,3.88,0.14"/></g></g></g></svg>