<svg xmlns="http://www.w3.org/2000/svg" width="109" height="109" viewBox="0 0 109 109"><g xmlns:kvg="http://kanjivg.tagaini.net" id="kvg:StrokePaths_0681e" style="fill:none;stroke:#000000;stroke-width:3;stroke-linecap:round;stroke-linejoin:round;"><g id="kvg:0681e" kvg:element="&#26654;"><g id="kvg:0681e-g1" kvg:element="&#24181;" kvg:position="top"><g id="kvg:0681e-g2" kvg:element="&#24178;"><path id="kvg:0681e-s1" kvg:type="&#12752;" d="M18.32,18.03c2.18,0.59,4.03,0.39,5.92,0.24c4.84-0.37,12.96-1.03,18.52-1.58c1.5-0.15,3.3-0.46,4.79-0.09"/><g id="kvg:0681e-g3" kvg:element="&#21313;"><path id="kvg:0681e-s2" kvg:type="&#12752;" d="M14.34,36.88c1.63,0.64,4.2,0.76,5.91,0.61c6.74-0.59,19.26-2.23,26.51-2.83c1.7-0.14,3.24-0.2,4.9,0.19"/><path id="kvg:0681e-s3" kvg:type="&#12753;" d="M33.52,21.15c1.04,1.04,1.01,2.47,1.01,3.53c0,0.59-0.01,16.4-0.02,26.31c0,2.55,0,4.71,0,6.12"/></g></g><g id="kvg:0681e-g4" kvg:element="&#24178;"><path id="kvg:0681e-s4" kvg:type="&#12752;" d="M59.32,16.78c1.87,0.78,4.13,0.63,6.06,0.46c4.65-0.42,12.44-1.42,17.88-1.98c1.8-0.19,3.52-0.34,5.3,0.11"/><g id="kvg:0681e-g5" kvg:element="&#21313;"><path id="kvg:0681e-s5" kvg:type="&#12752;" d="M56.84,34.13c1.67,0.65,4.28,0.5,6.04,0.37c6.59-0.51,18.29-1.55,25.38-2.09c1.7-0.13,3.25-0.28,4.91-0.06"/><path id="kvg:0681e-s6" kvg:type="&#12753;" d="M74.02,19.15c0.85,0.85,1.01,1.85,1.01,3.03c0,0.58,0.02,16.42,0.01,25.81c-0.01,2.82-0.01,5.05-0.03,6.13"/></g></g></g><g id="kvg:0681e-g6" kvg:element="&#26408;" kvg:position="bottom" kvg:radical="general"><path id="kvg:0681e-s7" kvg:type="&#12752;" d="M15.75,64.23c3.55,0.82,7.28,0.52,10.88,0.18c13.7-1.28,38.12-2.67,54.5-3.52c3.68-0.19,7.21-0.11,10.87,0.41"/><path id="kvg:0681e-s8" kvg:type="&#12753;" d="M52.75,48c1.19,1.19,1.5,2.5,1.5,4.5c0,8.34,0,27.96,0,39.62c0,3.02,0,5.51,0,7.12"/><path id="kvg:0681e-s9" kvg:type="&#12754;" d="M50.5,63.25c0,1.12-0.74,2.32-1.52,3.62C42.43,77.74,28.47,88.86,13.5,94"/><path id="kvg:0681e-s10" kvg:type="&#12751;" d="M54.75,63.25c6.62,5.88,19.9,16,28.5,22.18c2.92,2.09,6.25,3.95,10.25,5.32"/></g></g></g></svg>