<svg xmlns="http://www.w3.org/2000/svg" width="109" height="109" viewBox="0 0 109 109"><g xmlns:kvg="http://kanjivg.tagaini.net" id="kvg:StrokePaths_06822" style="fill:none;stroke:#000000;stroke-width:3;stroke-linecap:round;stroke-linejoin:round;"><g id="kvg:06822" kvg:element="&#26658;"><g id="kvg:06822-g1" kvg:element="&#26408;" kvg:position="left" kvg:radical="general"><path id="kvg:06822-s1" kvg:type="&#12752;" d="M12.78,39.2c2.03,0.35,4.08,0.56,6.11,0.27c5.53-0.81,13.96-2.15,19.66-3.12c1.57-0.26,3.14-0.36,4.72-0.3"/><path id="kvg:06822-s2" kvg:type="&#12753;" d="M29.61,14c1.07,1.07,1.54,3.25,1.54,5.5c0,0.83-0.02,47.87-0.02,68.87c0,4.7,0,8.09,0,9.38"/><path id="kvg:06822-s3" kvg:type="&#12754;" d="M29.94,38.38c0,1.74-0.98,4.45-1.56,6.04c-4.86,13.21-8.13,19.21-16.52,33.24"/><path id="kvg:06822-s4" kvg:type="&#12756;/&#12751;" d="M34.47,50.89c2.68,1.56,6.4,6.38,8.66,9.4"/></g><g id="kvg:06822-g2" kvg:element="&#30334;" kvg:position="right"><g id="kvg:06822-g3" kvg:position="top"><path id="kvg:06822-s5" kvg:type="&#12752;" d="M44.71,24.39c2.92,0.56,5.84,0.62,8.78,0.17C62.95,23.45,76,21.75,88,21.17c2.89-0.14,5.71-0.15,8.54,0.41"/></g><g id="kvg:06822-g4" kvg:position="bottom"><g id="kvg:06822-g5" kvg:position="top"><path id="kvg:06822-s6" kvg:type="&#12756;" d="M69.61,25.83c0,1.17-0.12,2.1-0.51,3.1c-1.73,4.44-3.6,8.94-7.1,14.69"/></g><g id="kvg:06822-g6" kvg:element="&#26085;" kvg:position="bottom"><path id="kvg:06822-s7" kvg:type="&#12753;" d="M51.51,45.85c1.01,1.01,1.41,1.94,1.47,3.65c0.38,10.85,0.87,26.98,1.2,38.13c0.12,4.02,0.22,7.38,0.28,9.62"/><path id="kvg:06822-s8" kvg:type="&#12757;a" d="M53.34,47.39c3.15-0.2,25.43-2.67,31.53-3.28c3.8-0.38,5.19,0.88,5.19,4.51c0,6.34-0.25,24.82-0.35,38.38c-0.02,3.29-0.04,6.29-0.04,8.75"/><path id="kvg:06822-s9" kvg:type="&#12752;a" d="M54.78,68.23C69,66.79,79.5,66,88.98,65.69"/><path id="kvg:06822-s10" kvg:type="&#12752;a" d="M55.47,94.39c11.28-0.86,22.78-2.1,33.39-2.12"/></g></g></g></g></g></svg>