<svg xmlns="http://www.w3.org/2000/svg" width="109" height="109" viewBox="0 0 109 109"><g xmlns:kvg="http://kanjivg.tagaini.net" id="kvg:StrokePaths_06867" style="fill:none;stroke:#000000;stroke-width:3;stroke-linecap:round;stroke-linejoin:round;"><g id="kvg:06867" kvg:element="&#26727;"><g id="kvg:06867-g1" kvg:element="&#26408;" kvg:position="left" kvg:radical="general"><path id="kvg:06867-s1" kvg:type="&#12752;" d="M9.28,39.22c0.35,0.24,2.39,0.41,3.31,0.31c3.94-0.41,17.62-2.21,23.95-3.41c0.92-0.17,1.15-0.24,1.73,0"/><path id="kvg:06867-s2" kvg:type="&#12753;" d="M24.36,14c0.91,0.47,2.54,2.5,2.54,5.42c0,0.95-0.12,70.75-0.3,76.58"/><path id="kvg:06867-s3" kvg:type="&#12754;" d="M26.44,40.78c-5.65,15.37-8.07,21.06-16.58,35.31"/><path id="kvg:06867-s4" kvg:type="&#12756;/&#12751;" d="M28.22,47.9c3.53,2.35,7.28,5.35,9.41,9.64"/></g><g id="kvg:06867-g2" kvg:element="&#20250;" kvg:position="right"><g id="kvg:06867-g3" kvg:element="&#20154;" kvg:position="top"><path id="kvg:06867-s5" kvg:type="&#12754;" d="M65.01,13.5c0.09,1.03,0.46,1.88-0.18,3.21c-3.76,7.88-10.9,20.57-23.59,31.35"/><path id="kvg:06867-s6" kvg:type="&#12751;" d="M64.72,17.31C71,24.5,86.74,38.88,92.09,43.2c1.5,1.21,3.24,1.92,4.66,2.3"/></g><g id="kvg:06867-g4" kvg:element="&#20113;" kvg:position="bottom"><g id="kvg:06867-g5" kvg:element="&#20108;"><path id="kvg:06867-s7" kvg:type="&#12752;" d="M51.6,48.72c0.55,0.2,2.35,0.27,2.89,0.2c4.59-0.53,15.77-2.84,22.25-2.83c0.91,0,2.25,0.1,2.71,0.2"/><path id="kvg:06867-s8" kvg:type="&#12752;" d="M41.75,66.36c0.91,0.25,2.57,0.27,3.47,0.25C51,66.5,76.25,63,89.72,62.57c1.51-0.05,2.42,0.12,3.17,0.25"/></g><g id="kvg:06867-g6" kvg:element="&#21430;"><path id="kvg:06867-s9" kvg:type="&#12764;" d="M62.33,67.57c0.32,0.88-0.09,2.63-0.76,3.68c-4.92,7.85-6.72,10.47-13.11,17.65c-1.86,2.09-1.32,4.11,1.76,3.7c6.48-0.84,24.04-4.9,34.59-6.86"/><path id="kvg:06867-s10" kvg:type="&#12756;" d="M75.5,74c5.21,3.62,13.45,14.87,14.75,20.5"/></g></g></g></g></g></svg>