<svg xmlns="http://www.w3.org/2000/svg" width="109" height="109" viewBox="0 0 109 109"><g xmlns:kvg="http://kanjivg.tagaini.net" id="kvg:StrokePaths_0687c" style="fill:none;stroke:#000000;stroke-width:3;stroke-linecap:round;stroke-linejoin:round;"><g id="kvg:0687c" kvg:element="&#26748;"><g id="kvg:0687c-g1" kvg:position="top"><g id="kvg:0687c-g2" kvg:element="&#26408;" kvg:variant="true"><path id="kvg:0687c-s1" kvg:type="&#12752;" d="m19.914449,19.259298c2.45,0.208883,5.23,0.293169,8.04,0.208883,13.21,-0.384784,35.46,-1.440192,52.24,-1.568454,2.8,-0.02199,4.54,0.03665,7.34,0.183231"/><path id="kvg:0687c-s2" kvg:type="&#12753;" d="m52.164449,8.5c1.19,0.4360887,2,1.0993833,2,1.832306,0,3.169888,0,20.21033-0.14,27.392967-0.03,1.535473-0.07,2.620197-0.11,3.023305"/><path id="kvg:0687c-s3" kvg:type="&#12754;" d="m51.164449,19.127372c0,0.410437-0.61,0.894165-1.42,1.447522-7.58,5.148778-22.63,11.169734-33.58,13.485768"/><path id="kvg:0687c-s4" kvg:type="&#12756;/&#12751;" d="m54.914449,18.944142c4.62,2.198766,23,9.436373,31.76,12.683219,2.27,0.839196,4.61,1.608764,7.49,2.06684"/></g><path id="kvg:0687c-s5" kvg:type="&#12754;" d="m53.675019,43.98289c0.1,0.577244-0.11,1.521824-0.71,2.319469-3.75,4.980038-15.87,15.674785-36.41,22.344572"/><path id="kvg:0687c-s6" kvg:type="&#12751;" d="m53.925019,46.674944c6.01,2.996418,24.37,12.342515,33.03,16.377972,3.08,1.432614,4.85,1.983619,9.22,2.886218"/></g><g id="kvg:0687c-g3" kvg:element="&#27706;" kvg:variant="true" kvg:original="&#27700;" kvg:position="bottom"><path id="kvg:0687c-s7" kvg:type="&#12762;" d="m51.841784,53.959102c1.468361,0.647747,3.011639,1.788345,3.011639,2.830373,0,10.251298-0.01498,36.020359-0.01498,39.51256,0,5.717065-7.356787,2.40793-13.050432,0.176018"/><path id="kvg:0687c-s8" kvg:type="&#12756;" d="m28.998979,67.272676c4.25525,1.267175,10.982741,5.191332,12.046553,7.16363"/><path id="kvg:0687c-s9" kvg:type="&#12736;" d="m19.477375,94.748691c1.468361,0.471984,2.891773,0.406126,4.479999,-0.461009,1.513311,-0.823228,14.938325,-8.440837,20.062606,-12.19476"/><path id="kvg:0687c-s10" kvg:type="&#12754;" d="m78.819973,63.020476c0.104888,0.705687-0.0899,1.36657-0.674247,1.92664-2.367358,2.25148-5.543812,4.771794-11.642005,7.95299"/><path id="kvg:0687c-s11" kvg:type="&#12756;/&#12751;" d="m62.225729,79.654509c5.843477,1.887786,19.508224,12.241414,23.583675,14.498972,1.378461,0.768738,2.56214,1.089856,3.940601,1.313665"/></g></g></g></svg>