<svg xmlns="http://www.w3.org/2000/svg" width="109" height="109" viewBox="0 0 109 109"><g xmlns:kvg="http://kanjivg.tagaini.net" id="kvg:StrokePaths_06881" style="fill:none;stroke:#000000;stroke-width:3;stroke-linecap:round;stroke-linejoin:round;"><g id="kvg:06881" kvg:element="&#26753;"><g id="kvg:06881-g1" kvg:position="top"><g id="kvg:06881-g2" kvg:element="&#27701;" kvg:variant="true" kvg:original="&#27700;" kvg:position="left"><path id="kvg:06881-s1" kvg:type="&#12756;" d="M27.38,9.75c2.69,1.2,6.94,4.92,7.62,6.78"/><path id="kvg:06881-s2" kvg:type="&#12756;" d="M19.5,23.29c3.09,1.11,7.98,4.56,8.75,6.29"/><path id="kvg:06881-s3" kvg:type="&#12736;" d="M18.5,51.37c1.5,0.75,3.31,0.78,4.25-0.15c2.75-2.7,5.5-5.99,8-9.44"/></g><g id="kvg:06881-g3" kvg:position="right"><g id="kvg:06881-g4" kvg:element="&#20992;"><path id="kvg:06881-s4" kvg:type="&#12742;" d="M47.6,15.93c1.13,0.46,2.55,0.41,3.54,0.25c8.05-1.29,23.12-2.98,27.59-3.46c2.9-0.31,4.19,0.93,4.03,3.09c-0.43,5.72-4.01,24.43-10.07,31.82c-3.53,4.31-4.54,3.24-6.71,0.15"/><path id="kvg:06881-s5" kvg:type="&#12754;" d="M64.5,17.5c0.06,0.73,0.08,1.89-0.12,2.94c-1.97,10.32-5.88,21.3-20.12,29.96"/></g><path id="kvg:06881-s6" kvg:type="&#12754;" d="M49,26.1c-0.83,3.65-3.31,8.4-6,10.92"/><g id="kvg:06881-g5" kvg:element="&#20022;"><path id="kvg:06881-s7" kvg:type="&#12756;" d="M89.5,28.17c1.94,2.03,5.01,8.36,5.5,11.52"/></g></g></g><g id="kvg:06881-g6" kvg:element="&#26408;" kvg:position="bottom" kvg:radical="general"><path id="kvg:06881-s8" kvg:type="&#12752;" d="M16.75,67.58c2,0.6,4.27,0.79,6.57,0.6c11.71-0.97,45.71-4.38,63.43-5.52c2.28-0.15,3.71,0.1,6,0.52"/><path id="kvg:06881-s9" kvg:type="&#12753;" d="M52.25,51.75c1.25,0.5,2.25,2.22,2.25,3.25c0,10.5,0,36.75-0.25,43"/><path id="kvg:06881-s10" kvg:type="&#12754;" d="M51.75,66.25C45.5,76.75,33.5,88.25,15,93.5"/><path id="kvg:06881-s11" kvg:type="&#12751;" d="M54.5,66c4.81,3.3,27.45,19.87,32.68,23.11c1.77,1.1,3.29,1.57,5.07,1.89"/></g></g></g></svg>