<svg xmlns="http://www.w3.org/2000/svg" width="109" height="109" viewBox="0 0 109 109"><g xmlns:kvg="http://kanjivg.tagaini.net" id="kvg:StrokePaths_0689d" style="fill:none;stroke:#000000;stroke-width:3;stroke-linecap:round;stroke-linejoin:round;"><g id="kvg:0689d" kvg:element="&#26781;"><g id="kvg:0689d-g1" kvg:element="&#25912;" kvg:part="1" kvg:position="left"><g id="kvg:0689d-g2" kvg:element="&#20155;" kvg:variant="true" kvg:original="&#20154;" kvg:position="left" kvg:radical="nelson"><path id="kvg:0689d-s1" kvg:type="&#12754;" d="M31.76,14c0.22,1.86-0.06,4.31-0.77,5.9C26.5,30.09,20.3,40.15,10,52.54"/><path id="kvg:0689d-s2" kvg:type="&#12753;" d="M23.53,38c0.47,1,1.25,1.94,1.25,3.23c0,14.27-0.53,43.27-0.53,54.02"/></g><g id="kvg:0689d-g3" kvg:element="&#20008;" kvg:position="right"><path id="kvg:0689d-s3" kvg:type="&#12753;" d="M35.27,35.83c0.98,0.92,1.67,1.99,1.76,5.02C37.42,55.41,37,76.54,37,81.5"/></g></g><g id="kvg:0689d-g4" kvg:position="right"><g id="kvg:0689d-g5" kvg:element="&#25912;" kvg:part="2" kvg:position="top"><g id="kvg:0689d-g6" kvg:element="&#25908;" kvg:variant="true" kvg:original="&#25909;"><g id="kvg:0689d-g7" kvg:position="top"><path id="kvg:0689d-s4" kvg:type="&#12754;" d="M58.35,13.14c0.04,0.56,0.22,1.47-0.07,2.24C56.43,20.29,51.41,31.43,45,38.23"/><path id="kvg:0689d-s5" kvg:type="&#12752;" d="M58.22,23.84c0.03-0.09,1.71,0.26,2.31,0.24c6.28-0.27,18.52-2.74,28.1-3.18c1.08-0.05,1.74-0.01,2.02,0.04"/></g><g id="kvg:0689d-g8" kvg:element="&#20034;" kvg:position="bottom"><g id="kvg:0689d-g9" kvg:element="&#20031;"><path id="kvg:0689d-s6" kvg:type="&#12754;" d="M77.29,25.53c-0.04,0.97,0.11,2.88-0.72,4.06C70.25,38.5,63.5,46.5,44.87,55"/></g><path id="kvg:0689d-s7" kvg:type="&#12751;" d="M52.75,31.88c6.5,1.62,25.06,15.5,36.57,19.47c2.21,0.77,3.62,0.89,5.44,0.97"/></g></g></g><g id="kvg:0689d-g10" kvg:element="&#26408;" kvg:position="bottom" kvg:radical="tradit"><path id="kvg:0689d-s8" kvg:type="&#12752;" d="M46.03,63.83c1.21,0.4,2.59,0.52,3.98,0.4c7.1-0.65,27.72-2.9,38.46-3.66c1.38-0.1,2.25,0.07,3.64,0.35"/><path id="kvg:0689d-s9" kvg:type="&#12753;" d="M66.84,49.25c0.66,1,1.27,2.25,1.27,2.84c0,5.93,0,42.38-0.14,45.91"/><path id="kvg:0689d-s10" kvg:type="&#12754;" d="M67.62,63.58c-3.53,7.49-13,18.94-20.35,23.17"/><path id="kvg:0689d-s11" kvg:type="&#12751;" d="M68.67,64.93C73.75,71.25,87,83.75,92.1,87.09c1.38,0.91,2.36,1.51,3.63,1.81"/></g></g></g></g></svg>