<svg xmlns="http://www.w3.org/2000/svg" width="109" height="109" viewBox="0 0 109 109"><g xmlns:kvg="http://kanjivg.tagaini.net" id="kvg:StrokePaths_068ba" style="fill:none;stroke:#000000;stroke-width:3;stroke-linecap:round;stroke-linejoin:round;"><g id="kvg:068ba" kvg:element="&#26810;"><g id="kvg:068ba-g1" kvg:element="&#26519;" kvg:position="top"><g id="kvg:068ba-g2" kvg:element="&#26408;" kvg:variant="true" kvg:position="left" kvg:radical="general"><path id="kvg:068ba-s1" kvg:type="&#12752;" d="M16.16,25.1c0.7,0.17,2.82,0.65,4.69,0.5c6.56-0.52,15.33-2.38,22.36-2.72c1.87-0.09,3.28-0.52,4.45-0.34"/><path id="kvg:068ba-s2" kvg:type="&#12753;" d="M33.5,12.38c0.74,0.67,1.73,2.16,1.73,2.95c0,8.75,0,31.36-0.25,35.99"/><path id="kvg:068ba-s3" kvg:type="&#12754;" d="M34.74,25.97C31.72,32.7,22.75,44,16.48,47.81"/><path id="kvg:068ba-s4" kvg:type="&#12756;/&#12751;" d="M38.86,30.54c2.92,1.77,6.56,5.05,9.11,7.84"/></g><g id="kvg:068ba-g3" kvg:element="&#26408;" kvg:position="right" kvg:radical="general"><path id="kvg:068ba-s5" kvg:type="&#12752;" d="M56.02,22.85c0.57,0.17,1.33,0.45,2.85,0.52c4.18,0.17,15.73-2.21,26.19-3.07c1.52-0.12,2.84-0.17,3.79,0"/><path id="kvg:068ba-s6" kvg:type="&#12753;" d="M70.06,11c1.17,0.34,2.11,2.51,2.11,3.24c0,5.51,0,31.21-0.23,35.51"/><path id="kvg:068ba-s7" kvg:type="&#12754;" d="M71.99,22.9c-3.4,7.57-13.97,18.11-21.85,21.99"/><path id="kvg:068ba-s8" kvg:type="&#12751;" d="M72.37,24.2c5.08,5.77,13.21,13.17,17.33,15.44c1.17,0.65,1.83,1.1,2.82,1.31"/></g></g><g id="kvg:068ba-g4" kvg:element="&#19979;" kvg:position="bottom"><g id="kvg:068ba-g5" kvg:element="&#19968;"><path id="kvg:068ba-s9" kvg:type="&#12752;" d="M12.25,59.58c1.78,0.45,4.66,0.76,5.73,0.67C31.85,59.13,73.36,56,90.65,56c1.27,0,4.07,0.67,5.35,1.12"/></g><g id="kvg:068ba-g6" kvg:element="&#21340;" kvg:original="&#12488;"><path id="kvg:068ba-s10" kvg:type="&#12752;" d="M53.47,60.75c0.93,1.07,1.06,2.8,1.06,4.8c0,10.53-0.29,21.2-0.29,34.45"/><path id="kvg:068ba-s11" kvg:type="&#12753;" d="M59.08,70.42c9.05,2.21,17.47,7.19,24.92,13.71"/></g></g></g></g></svg>