<svg xmlns="http://www.w3.org/2000/svg" width="109" height="109" viewBox="0 0 109 109"><g xmlns:kvg="http://kanjivg.tagaini.net" id="kvg:StrokePaths_068c9" style="fill:none;stroke:#000000;stroke-width:3;stroke-linecap:round;stroke-linejoin:round;"><g id="kvg:068c9" kvg:element="&#26825;"><g id="kvg:068c9-g1" kvg:element="&#26408;" kvg:position="left" kvg:radical="general"><path id="kvg:068c9-s1" kvg:type="&#12752;" d="M15.28,39.72c0.35,0.24,2.39,0.41,3.31,0.31c3.94-0.41,17.12-2.21,23.45-3.41c0.92-0.17,2.15-0.24,2.73,0"/><path id="kvg:068c9-s2" kvg:type="&#12753;" d="M31.36,14.5c0.91,0.47,2.04,2.5,2.04,4.42c0,4.58-0.12,72.75-0.3,78.58"/><path id="kvg:068c9-s3" kvg:type="&#12754;" d="M32.94,42.28C26.47,55.91,23.5,62.5,12.86,73.59"/><path id="kvg:068c9-s4" kvg:type="&#12756;/&#12751;" d="M36.47,47.9c2.37,1.59,5.66,7.05,7.66,10.14"/></g><g id="kvg:068c9-g2" kvg:element="&#24091;" kvg:position="right"><g id="kvg:068c9-g3" kvg:element="&#30333;" kvg:position="top"><g id="kvg:068c9-g4" kvg:position="top"><path id="kvg:068c9-s5" kvg:type="&#12754;" d="M71.22,10.5c0.31,0.43,0.35,0.95,0.28,1.33c-0.43,2.2-5.14,7.98-8.52,10.94"/></g><g id="kvg:068c9-g5" kvg:element="&#26085;" kvg:position="bottom"><path id="kvg:068c9-s6" kvg:type="&#12753;" d="M53.85,23.56c0.52,1.02,0.82,1.55,1.04,2.9c0.61,3.79,2.12,14.38,3.11,24.15"/><path id="kvg:068c9-s7" kvg:type="&#12757;a" d="M55.2,25.97c2.92-0.17,29.05-3.2,31.71-3.4c2.21-0.17,3.55,0.56,3.47,3.08c-0.07,2.1-1.13,12.7-4.16,23.4"/><path id="kvg:068c9-s8" kvg:type="&#12752;a" d="M57.58,36.52c8-0.6,24.3-2.22,31.51-2.45"/><path id="kvg:068c9-s9" kvg:type="&#12752;a" d="M58.51,48.24c10.51-1.15,19.64-1.36,27.72-1.9"/></g></g><g id="kvg:068c9-g6" kvg:element="&#24062;" kvg:position="bottom"><path id="kvg:068c9-s10" kvg:type="&#12753;" d="M53.62,61.15c0.38,1.35,1.31,3.07,1.33,3.65c0.17,7.28-0.66,15.01-0.52,23.25"/><path id="kvg:068c9-s11" kvg:type="&#12742;a" d="M55.5,64.04c2.75-0.26,32.87-3.76,34.92-3.92c2.41-0.19,3.93,3.24,3.84,4.92c-0.43,8.44-1.6,12.78-3.53,21.62c-1.28,5.85-4.12,1.32-5.28-0.73"/><path id="kvg:068c9-s12" kvg:type="&#12753;" d="M70.42,49.49c0.62,0.37,1.94,2.75,2.06,3.49c0.12,0.74-0.08,41.81-0.21,46.4"/></g></g></g></g></svg>