<svg xmlns="http://www.w3.org/2000/svg" width="109" height="109" viewBox="0 0 109 109"><g xmlns:kvg="http://kanjivg.tagaini.net" id="kvg:StrokePaths_068c6" style="fill:none;stroke:#000000;stroke-width:3;stroke-linecap:round;stroke-linejoin:round;"><g id="kvg:068c6" kvg:element="&#26822;"><g id="kvg:068c6-g1" kvg:element="&#26408;" kvg:position="left" kvg:radical="general"><path id="kvg:068c6-s1" kvg:type="&#12752;" d="M12.28,38.22c0.35,0.24,2.39,0.41,3.31,0.31c3.94-0.41,16.12-1.71,22.45-2.91c0.92-0.17,2.15-0.24,2.73,0"/><path id="kvg:068c6-s2" kvg:type="&#12753;" d="M26.36,15.5c0.91,0.47,2.04,2,2.04,4.42c0,0.95-0.12,67.75-0.3,73.58"/><path id="kvg:068c6-s3" kvg:type="&#12754;" d="M27.94,40.28c-5.1,15.04-7.94,21.4-15.83,34.56"/><path id="kvg:068c6-s4" kvg:type="&#12756;/&#12751;" d="M30.47,47.9c2.37,1.59,6.28,6.76,8.28,9.85"/></g><g id="kvg:068c6-g2" kvg:element="&#20374;" kvg:position="right"><g id="kvg:068c6-g3" kvg:element="&#20154;" kvg:position="top"><path id="kvg:068c6-s5" kvg:type="&#12754;" d="M64.58,10.4c0.07,0.95,0.14,2.45-0.13,3.8c-1.6,8.03-9.66,24.97-22.71,36.92"/><path id="kvg:068c6-s6" kvg:type="&#12751;" d="M65.37,16.38c5.16,5.23,21.69,25.32,26.04,29.66c1.48,1.47,3.38,2.1,4.85,2.52"/></g><g id="kvg:068c6-g4" kvg:position="bottom"><g id="kvg:068c6-g5" kvg:element="&#19968;"><path id="kvg:068c6-s7" kvg:type="&#12752;" d="M53.16,45.85c0.76,0.31,2.16,0.4,2.92,0.31c4.86-0.54,16.21-1.97,21.66-2.27c1.27-0.07,2.04,0.15,2.67,0.3"/></g><g id="kvg:068c6-g6" kvg:element="&#20874;"><g id="kvg:068c6-g7" kvg:element="&#20866;"><path id="kvg:068c6-s8" kvg:type="&#12753;" d="M47.38,56.16c0.47,0.65,1.04,1.67,1.11,2.82c0.38,6.19-0.52,30.61,0.03,36.91"/><path id="kvg:068c6-s9" kvg:type="&#12742;a" d="M48.99,59.54c6.02-0.28,35.31-2.87,36.5-3c2.54-0.28,3.43,2.78,3.45,4.04c0.08,6.74-0.08,17.82-0.19,29.83c-0.07,7.93-2.46,5.24-5.65,2.35"/></g><g id="kvg:068c6-g8" kvg:element="&#24318;" kvg:variant="true"><g id="kvg:068c6-g9" kvg:element="&#21313;" kvg:part="1" kvg:variant="true"><path id="kvg:068c6-s10" kvg:type="&#12752;" d="M49.32,75.27c4.82-0.25,35.98-2.3,39.38-2.39"/></g><g id="kvg:068c6-g10" kvg:element="&#20031;" kvg:variant="true"><path id="kvg:068c6-s11" kvg:type="&#12753;" d="M60.89,60.53c0.7,0.82,1.18,1.76,1.21,4.38c0.17,12.59-0.24,23.27-0.29,27.55"/></g><g id="kvg:068c6-g11" kvg:element="&#21313;" kvg:part="2" kvg:variant="true"><path id="kvg:068c6-s12" kvg:type="&#12753;" d="M73.45,59.87c0.7,0.82,1.18,1.77,1.21,4.39c0.17,12.59-0.24,24.94-0.28,29.22"/></g></g></g></g></g></g></g></svg>