<svg xmlns="http://www.w3.org/2000/svg" width="109" height="109" viewBox="0 0 109 109"><g xmlns:kvg="http://kanjivg.tagaini.net" id="kvg:StrokePaths_068da" style="fill:none;stroke:#000000;stroke-width:3;stroke-linecap:round;stroke-linejoin:round;"><g id="kvg:068da" kvg:element="&#26842;"><g id="kvg:068da-g1" kvg:element="&#26408;" kvg:position="left" kvg:radical="general"><path id="kvg:068da-s1" kvg:type="&#12752;" d="M13.78,38.22c1.85,0.53,4.21,0.47,5.49,0.31c4.8-0.61,13.63-1.88,19.02-2.91c0.92-0.17,2.09-0.24,2.98,0"/><path id="kvg:068da-s2" kvg:type="&#12753;" d="M28.36,17.25c1.19,1.19,1.29,2.75,1.29,4.67c0,0.77,0.02,47.08,0.02,62.57c0,4.33-0.01,7.43-0.04,8.51"/><path id="kvg:068da-s3" kvg:type="&#12754;" d="M29,38.75c0,1.69-0.92,4.76-1.48,6.25c-4.36,11.6-7.8,17.83-15.16,29.34"/><path id="kvg:068da-s4" kvg:type="&#12756;" d="M31.72,44.4C34.1,45.99,38,51.16,40,54.25"/></g><g id="kvg:068da-g2" kvg:element="&#26379;" kvg:position="right" kvg:phon="&#26379;"><g id="kvg:068da-g3" kvg:element="&#26376;"><path id="kvg:068da-s5" kvg:type="&#12754;" d="M45.94,21.44c0.81,0.81,1.07,1.84,1.09,2.79c0.72,29.15,1.22,49.52-8.53,66.27"/><path id="kvg:068da-s6" kvg:type="&#12742;a" d="M47.63,22.05c3.62-0.93,9.82-2.8,11.45-3.06c2.92-0.46,4.42,0.38,4.42,2.98c0,7.9,0,44.69,0,62.02c0,12.08-4.43,4.02-6.25,1.93"/><path id="kvg:068da-s7" kvg:type="&#12752;a" d="M48.88,41.18c2.87-0.51,9.62-1.54,13.5-1.8"/><path id="kvg:068da-s8" kvg:type="&#12752;a" d="M48,61.38c5.24-0.64,8.19-1.32,14.25-1.75"/></g><g id="kvg:068da-g4" kvg:element="&#26376;"><path id="kvg:068da-s9" kvg:type="&#12754;" d="M75.24,18.21c0.71,0.71,1.03,1.63,1.05,2.6c1.21,47.45-2.04,58.7-8.48,70.45"/><path id="kvg:068da-s10" kvg:type="&#12742;a" d="M77.49,20.58c3.34-0.77,9.89-2.09,12.55-2.61c3.06-0.6,4.7,0.29,4.7,3.59c0,8.06-0.03,56.57-0.03,62.87c0,7.82-3.66,3.94-5.42,1.81"/><path id="kvg:068da-s11" kvg:type="&#12752;a" d="M77.85,39.82c2.87-0.39,11.65-1.38,15.53-1.58"/><path id="kvg:068da-s12" kvg:type="&#12752;a" d="M77.22,59.47c5.22-0.53,10.11-1.21,16.15-1.57"/></g></g></g></g></svg>