<svg xmlns="http://www.w3.org/2000/svg" width="109" height="109" viewBox="0 0 109 109"><g xmlns:kvg="http://kanjivg.tagaini.net" id="kvg:StrokePaths_068d8" style="fill:none;stroke:#000000;stroke-width:3;stroke-linecap:round;stroke-linejoin:round;"><g id="kvg:068d8" kvg:element="&#26840;"><g id="kvg:068d8-g1" kvg:element="&#26431;" kvg:variant="true" kvg:position="left"><g id="kvg:068d8-g2" kvg:element="&#26408;" kvg:part="1" kvg:radical="tradit"><path id="kvg:068d8-s1" kvg:type="&#12752;" d="M13.95,29.05c1.05,0.55,2.23,0.72,3.43,0.55c6.23-0.9,16.41-1.56,25.99-2.62c1.19-0.13,2.23,0.09,2.84,0.48"/></g><g id="kvg:068d8-g3" kvg:element="&#20866;"><path id="kvg:068d8-s2" kvg:type="&#12753;" d="M15.15,39.37c0.6,0.88,1.27,2.32,1.42,3.93c0.2,2.1,1.95,17.53,1.95,20.21"/><path id="kvg:068d8-s3" kvg:type="&#12742;a" d="M16.92,43.07c6.06-0.33,26.34-3.13,27.42-3.38c2.3-0.52,3.12-0.06,2.96,2.54c-0.2,3.3-0.89,13.03-2.28,16.71c-2.31,6.14-2.44,3.31-4.17,1.05"/></g><g id="kvg:068d8-g4" kvg:element="&#26408;" kvg:part="2" kvg:radical="tradit"><path id="kvg:068d8-s4" kvg:type="&#12753;" d="M29.07,14.75c0.84,0.5,1.34,2.25,1.51,3.25s0,73.25-0.17,79.5"/><g id="kvg:068d8-g5" kvg:element="&#20031;" kvg:radical="nelson"><path id="kvg:068d8-s5" kvg:type="&#12754;" d="M30.41,57.25C26.91,67.19,17.53,82.38,10.25,88"/></g><path id="kvg:068d8-s6" kvg:type="&#12756;" d="M33.25,65.5c5.19,2.79,9.08,7.22,12,13.5"/></g></g><g id="kvg:068d8-g6" kvg:element="&#26431;" kvg:position="right"><g id="kvg:068d8-g7" kvg:element="&#26408;" kvg:part="1" kvg:radical="tradit"><path id="kvg:068d8-s7" kvg:type="&#12752;" d="M56.36,27.11c1.12,0.57,2.39,0.75,3.68,0.57C66.72,26.75,80,26,90.27,24.9c1.28-0.14,2.39,0.1,3.05,0.5"/></g><g id="kvg:068d8-g8" kvg:element="&#20866;"><path id="kvg:068d8-s8" kvg:type="&#12753;" d="M56.14,38.17c0.43,0.88,1.31,2.29,1.47,3.88c0.21,2.08,1.46,17.31,1.46,19.95"/><path id="kvg:068d8-s9" kvg:type="&#12742;a" d="M57.81,41.62c5.11-0.37,28.46-3.12,29.37-3.4c1.94-0.58,4.12,0.44,3.99,3.34C91,45.25,90.5,52.02,89.34,56.13c-1.95,6.87-4.06,2.7-5.51,0.17"/></g><g id="kvg:068d8-g9" kvg:element="&#26408;" kvg:part="2" kvg:radical="tradit"><path id="kvg:068d8-s10" kvg:type="&#12753;" d="M70.75,13.25c1.25,0.5,2,2.25,2.25,3.25s0,72.75-0.25,79"/><path id="kvg:068d8-s11" kvg:type="&#12754;" d="M72.92,53.25C68.6,63.83,57,80.01,48,86"/><path id="kvg:068d8-s12" kvg:type="&#12751;" d="M73.24,55c3.06,3.8,17.46,22.85,20.79,26.58c1.13,1.27,2.09,1.81,3.22,2.17"/></g></g></g></g></svg>