<svg xmlns="http://www.w3.org/2000/svg" width="109" height="109" viewBox="0 0 109 109"><g xmlns:kvg="http://kanjivg.tagaini.net" id="kvg:StrokePaths_06908" style="fill:none;stroke:#000000;stroke-width:3;stroke-linecap:round;stroke-linejoin:round;"><g id="kvg:06908" kvg:element="&#26888;"><g id="kvg:06908-g1" kvg:element="&#26408;" kvg:position="left" kvg:radical="general"><path id="kvg:06908-s1" kvg:type="&#12752;" d="M12.28,38.72c0.35,0.24,2.39,0.41,3.31,0.31c3.94-0.41,16.62-1.71,22.95-2.91c0.92-0.17,2.15-0.24,2.73,0"/><path id="kvg:06908-s2" kvg:type="&#12753;" d="M26.86,16c0.91,0.47,2.54,2.25,2.54,4.42c0,0.95-0.12,69.25-0.3,75.08"/><path id="kvg:06908-s3" kvg:type="&#12754;" d="M28.94,40.28c-5.1,15.04-7.94,21.4-15.83,34.56"/><path id="kvg:06908-s4" kvg:type="&#12756;/&#12751;" d="M31.47,45.9c2.37,1.59,6.28,6.76,8.28,9.85"/></g><g id="kvg:06908-g2" kvg:position="right"><g id="kvg:06908-g3" kvg:element="&#21241;"><g id="kvg:06908-g4" kvg:element="&#20031;"><path id="kvg:06908-s5" kvg:type="&#12754;" d="M56.03,14.5c0.04,0.69,0.08,1.79-0.07,2.78c-0.87,5.86-5.87,18.72-12.71,26.6"/></g><path id="kvg:06908-s6" kvg:type="&#12742;" d="M55.5,27.75c1.25,0.75,2.95,1.2,5,1c5.25-0.5,25.24-3,30.25-3c3.5,0,5.42,1.75,5.25,5.75c-0.5,11.5-2.75,40.25-9.5,59.75C83.89,98.8,82,95,78.5,90"/></g><g id="kvg:06908-g5" kvg:element="&#31859;" kvg:variant="true"><path id="kvg:06908-s7" kvg:type="&#12756;" d="M49.18,44.17c2.13,1.66,5.34,6.35,5.88,8.94"/><path id="kvg:06908-s8" kvg:type="&#12754;" d="M79.49,41.5c0.02,0.31,0.04,0.8-0.04,1.24c-0.49,2.62-3.28,8.36-7.1,11.88"/><path id="kvg:06908-s9" kvg:type="&#12752;" d="M44.53,59.51c0.53,0.28,2.95,0.48,4.36,0.34c8.61-0.85,21.8-1.97,30.93-2.3c1.42-0.05,2.55-0.28,3.44,0"/><path id="kvg:06908-s10" kvg:type="&#12753;" d="M61.52,36.25c0.89,0.36,1.42,1.61,1.59,2.32s0,53.96-0.18,58.43"/><path id="kvg:06908-s11" kvg:type="&#12754;" d="M61.94,60.11c-3.71,9.28-12.72,22.32-21.06,27.68"/><path id="kvg:06908-s12" kvg:type="&#12756;/&#12751;" d="M66.08,66.68c4.42,2.57,9.67,6.82,12.4,11.54"/></g></g></g></g></svg>