<svg xmlns="http://www.w3.org/2000/svg" width="109" height="109" viewBox="0 0 109 109"><g xmlns:kvg="http://kanjivg.tagaini.net" id="kvg:StrokePaths_06923" style="fill:none;stroke:#000000;stroke-width:3;stroke-linecap:round;stroke-linejoin:round;"><g id="kvg:06923" kvg:element="&#26915;"><g id="kvg:06923-g1" kvg:element="&#26408;" kvg:position="left" kvg:radical="general"><path id="kvg:06923-s1" kvg:type="&#12752;" d="M12.28,38.72c0.35,0.24,2.39,0.41,3.31,0.31c3.94-0.41,17.12-1.21,23.45-2.41c0.92-0.17,2.15-0.24,2.73,0"/><path id="kvg:06923-s2" kvg:type="&#12753;" d="M27.86,14c0.91,0.47,2.04,2.75,2.04,4.42c0,0.95-0.12,72.75-0.3,78.58"/><path id="kvg:06923-s3" kvg:type="&#12754;" d="M29.94,40.28c-5.1,15.04-7.94,23.4-15.83,36.56"/><path id="kvg:06923-s4" kvg:type="&#12756;/&#12751;" d="M32.47,49.15c2.52,1.8,6.66,7.62,8.78,11.1"/></g><g id="kvg:06923-g2" kvg:element="&#20856;" kvg:position="right"><g id="kvg:06923-g3" kvg:element="&#26354;" kvg:variant="true" kvg:position="top"><g id="kvg:06923-g4" kvg:element="&#26085;" kvg:part="1"><path id="kvg:06923-s5" kvg:type="&#12753;" d="M48.48,34.11c0.3,0.96,1.1,1.44,1.1,2.72c0,1.27,2.11,37.65,2.11,38.28"/><path id="kvg:06923-s6" kvg:type="&#12757;" d="M50.07,36.92c2.74-0.52,35.7-3.34,38.11-3.64c1.37-0.17,3,0.85,2.83,3.18c-0.25,3.57-2.1,21.11-2.8,36.12"/></g><g id="kvg:06923-g5" kvg:element="&#24318;"><g id="kvg:06923-g6" kvg:element="&#21313;" kvg:part="1"><path id="kvg:06923-s7" kvg:type="&#12752;" d="M58.8,14.6c1.08,0.48,1.92,2.12,1.96,3.08c0.7,20.64,1.98,47.85,2.74,56.53"/></g><g id="kvg:06923-g7" kvg:element="&#20031;" kvg:variant="true"><path id="kvg:06923-s8" kvg:type="&#12753;" d="M75.63,13.84c0.62,0.45,1.15,1.97,1.12,2.86c-1.16,26.35-0.51,37.49-1.34,55.79"/></g><g id="kvg:06923-g8" kvg:element="&#21313;" kvg:part="2"><path id="kvg:06923-s9" kvg:type="&#12753;" d="M50.53,54.53c2.28,0.06,35.8-2,38.38-1.94"/></g></g><g id="kvg:06923-g9" kvg:element="&#26085;" kvg:part="2"><path id="kvg:06923-s10" kvg:type="&#12752;" d="M38.02,75.73c1.17,0.53,3.32,0.76,4.48,0.6c8.98-1.19,39.37-3.76,53.17-3.68c1.95,0.01,3.12,0.31,4.09,0.58"/></g></g><g id="kvg:06923-g10" kvg:element="&#20843;" kvg:position="bottom"><g id="kvg:06923-g11" kvg:position="left"><path id="kvg:06923-s11" kvg:type="&#12754;" d="M59.63,82.33c0.05,0.39,0.11,1.02-0.1,1.58c-1.23,3.3-8.29,10.48-17.97,14.78"/></g><g id="kvg:06923-g12" kvg:position="right"><path id="kvg:06923-s12" kvg:type="&#12751;" d="M77.88,82.83c5.99,2.78,15.47,11.23,16.97,15.37"/></g></g></g></g></g></svg>