<svg xmlns="http://www.w3.org/2000/svg" width="109" height="109" viewBox="0 0 109 109"><g xmlns:kvg="http://kanjivg.tagaini.net" id="kvg:StrokePaths_06928" style="fill:none;stroke:#000000;stroke-width:3;stroke-linecap:round;stroke-linejoin:round;"><g id="kvg:06928" kvg:element="&#26920;"><g id="kvg:06928-g1" kvg:element="&#26408;" kvg:position="left" kvg:radical="general"><path id="kvg:06928-s1" kvg:type="&#12752;" d="M11.28,35.72c0.35,0.24,2.39,0.41,3.31,0.31c3.94-0.41,15.62-1.21,21.95-2.41c0.92-0.17,2.15-0.24,2.73,0"/><path id="kvg:06928-s2" kvg:type="&#12753;" d="M25.36,13.5c0.91,0.47,2.04,2.25,2.04,4.42c0,0.95-0.12,70.75-0.3,76.58"/><path id="kvg:06928-s3" kvg:type="&#12754;" d="M26.94,38.78C21.52,53.82,19,59.75,10.11,73.34"/><path id="kvg:06928-s4" kvg:type="&#12756;/&#12751;" d="M29.47,45.9c2.37,1.59,7.28,6.76,9.28,9.85"/></g><g id="kvg:06928-g2" kvg:element="&#24220;" kvg:position="right"><g id="kvg:06928-g3" kvg:element="&#24191;" kvg:position="tare"><path id="kvg:06928-s5" kvg:type="&#12753;a" d="M66.1,12.13c0.58,0.39,1.82,2.92,1.94,3.7c0.12,0.78,0.06,3.21-0.06,8.08"/><g id="kvg:06928-g4" kvg:element="&#21378;"><path id="kvg:06928-s6" kvg:type="&#12752;" d="M42.97,25.91c1.17,0.55,3.31,0.64,4.48,0.55c12.17-0.92,27.27-3.58,42.54-3.79c1.95-0.03,3.12,0.26,4.09,0.54"/><path id="kvg:06928-s7" kvg:type="&#12754;" d="M46.72,26.72c0.04,1.53-0.09,3.94-0.07,6.14C46.75,47.75,47.25,77,34.06,91.12"/></g></g><g id="kvg:06928-g5" kvg:element="&#20184;"><g id="kvg:06928-g6" kvg:element="&#20155;" kvg:variant="true" kvg:original="&#20154;" kvg:position="left"><path id="kvg:06928-s8" kvg:type="&#12754;" d="M65.28,32.64c0.15,1.37-0.04,3.17-0.53,4.35c-3.09,7.5-7.3,16.95-14.38,26.08"/><path id="kvg:06928-s9" kvg:type="&#12753;" d="M57.5,58.04c0.5,0.71,0.65,1.9,0.69,3.2c0.32,10.16-0.71,30.7-0.39,36.29"/></g><g id="kvg:06928-g7" kvg:element="&#23544;" kvg:position="right"><path id="kvg:06928-s10" kvg:type="&#12752;" d="M64.63,52.06c1.08,0.63,3.04,0.32,4.14,0.23c6.72-0.54,15.77-2.23,26.07-2.99c1.8-0.13,2.88,0.3,3.78,0.61"/><path id="kvg:06928-s11" kvg:type="&#12762;" d="M84.34,32.32c0.07,0.38,1.43,1.96,1.49,4.35c0.32,11.48-0.2,50.33-0.2,54.24c0,7.32-4.66,0.41-6.4-0.8"/><path id="kvg:06928-s12" kvg:type="&#12756;" d="M68.55,63.3c2.94,2.01,7.59,8.27,8.33,11.4"/></g></g></g></g></g></svg>