<svg xmlns="http://www.w3.org/2000/svg" width="109" height="109" viewBox="0 0 109 109"><g xmlns:kvg="http://kanjivg.tagaini.net" id="kvg:StrokePaths_0692a" style="fill:none;stroke:#000000;stroke-width:3;stroke-linecap:round;stroke-linejoin:round;"><g id="kvg:0692a" kvg:element="&#26922;"><g id="kvg:0692a-g1" kvg:element="&#26408;" kvg:position="left" kvg:radical="general"><path id="kvg:0692a-s1" kvg:type="&#12752;" d="M10.78,38.22c0.35,0.24,2.39,0.41,3.31,0.31c3.94-0.41,16.12-1.71,22.45-2.91c0.92-0.17,2.15-0.24,2.73,0"/><path id="kvg:0692a-s2" kvg:type="&#12753;" d="M25.86,15c0.91,0.47,2.54,2.25,2.54,4.42c0,0.95-0.12,70.25-0.3,76.08"/><path id="kvg:0692a-s3" kvg:type="&#12754;" d="M27.94,39.28C24,51,16.75,63.25,10.61,71.84"/><path id="kvg:0692a-s4" kvg:type="&#12756;/&#12751;" d="M31.72,48.15c2.01,1.31,5.33,5.56,7.03,8.1"/></g><g id="kvg:0692a-g2" kvg:element="&#20006;" kvg:position="right"><g id="kvg:0692a-g3" kvg:position="top"><path id="kvg:0692a-s5" kvg:type="&#12756;" d="M52.33,18.59c2.5,1.77,6.47,7.3,7.1,10.06"/><path id="kvg:0692a-s6" kvg:type="&#12754;" d="M79.35,15.01c0.02,0.38,0.04,0.98-0.04,1.52c-0.52,3.21-2.73,8.82-6.93,14.57"/><g id="kvg:0692a-g4" kvg:element="&#19968;"><path id="kvg:0692a-s7" kvg:type="&#12752;" d="M46.58,35.6c1.09,0.47,3.07,0.52,4.16,0.47c7.91-0.36,29.64-3.55,37.25-3.74c1.81-0.05,2.9,0.22,3.8,0.46"/></g></g><g id="kvg:0692a-g5" kvg:position="bottom"><path id="kvg:0692a-s8" kvg:type="&#12753;" d="M58.91,38.25c0.96,0.5,1.53,2.25,1.72,3.25S60.44,84.25,60.44,91"/><path id="kvg:0692a-s9" kvg:type="&#12753;" d="M73.69,36.75c0.96,0.5,1.53,2.25,1.72,3.25c0.19,1-0.19,45-0.19,50.5"/><path id="kvg:0692a-s10" kvg:type="&#12756;" d="M46.12,55.34c2.22,2.26,5.73,9.29,6.28,12.8"/><path id="kvg:0692a-s11" kvg:type="&#12754;" d="M88.43,49.51c0.04,0.46,0.08,1.18-0.07,1.83c-0.89,3.86-4.7,10.6-11.93,17.51"/><path id="kvg:0692a-s12" kvg:type="&#12752;" d="M39.25,91.7c1.33,0.54,3.77,0.58,5.1,0.54C53.5,92,78.27,90,93.34,89.51c2.22-0.07,3.55,0.26,4.66,0.53"/></g></g></g></g></svg>