<svg xmlns="http://www.w3.org/2000/svg" width="109" height="109" viewBox="0 0 109 109"><g xmlns:kvg="http://kanjivg.tagaini.net" id="kvg:StrokePaths_0697d" style="fill:none;stroke:#000000;stroke-width:3;stroke-linecap:round;stroke-linejoin:round;"><g id="kvg:0697d" kvg:element="&#27005;"><g id="kvg:0697d-g1" kvg:position="top"><g id="kvg:0697d-g2" kvg:position="top"><path id="kvg:0697d-s1" kvg:type="&#12754;" d="M52.99,11c0.01,1-0.13,1.85-0.49,2.5c-0.96,2.28-4.06,5.8-6.91,8.18"/></g><g id="kvg:0697d-g3" kvg:element="&#26085;" kvg:position="bottom"><path id="kvg:0697d-s2" kvg:type="&#12753;" d="M40.25,22.82c1.02,1.2,1.52,2.13,1.59,3.43c0.18,3.66,0.58,14.52,0.93,21.23c0.1,1.93,0.18,3.01,0.21,3.94"/><path id="kvg:0697d-s3" kvg:type="&#12757;a" d="M42.02,23.77c0.46-0.02,19.25-2.12,20.85-2.23c1.68-0.12,2.64,1.22,2.64,2.27c0,1.24-0.89,14.65-1.22,23.45c-0.06,1.57-0.1,2.48-0.14,3.64"/><path id="kvg:0697d-s4" kvg:type="&#12752;a" d="M43.41,36.12c3,0,17.27-1.75,20.66-1.75"/><path id="kvg:0697d-s5" kvg:type="&#12752;a" d="M44.13,49.6c4.43,0,13.11-1.01,18.85-1.01"/></g><g id="kvg:0697d-g4" kvg:element="&#20907;"><path id="kvg:0697d-s6" kvg:type="&#12756;" d="M20.22,20c3.89,1.72,10.05,7.07,11.03,9.75"/><path id="kvg:0697d-s7" kvg:type="&#12736;" d="M16.92,54.38c1.46,0.87,2.81,0.38,3.89-0.5c1.05-0.85,7.42-7.56,11.44-11.88"/></g><path id="kvg:0697d-s8" kvg:type="&#12754;" d="M87.2,17.13c0.02,0.99-0.24,1.86-0.76,2.61c-1.67,2.73-6.03,7.12-9.69,9.26"/><path id="kvg:0697d-s9" kvg:type="&#12756;" d="M77,40.5c5.12,2.03,12,7.25,14.5,11.5"/></g><g id="kvg:0697d-g5" kvg:element="&#26408;" kvg:position="bottom" kvg:radical="general"><path id="kvg:0697d-s10" kvg:type="&#12752;" d="M17.28,67.66c1.48,0.19,5.44,0.92,9.36,0.57c15.23-1.35,38.23-3.6,56.2-4.19c3.93-0.13,6.61-0.04,9.11,0.5"/><path id="kvg:0697d-s11" kvg:type="&#12753;" d="M52.45,54.75c1.05,1,1.63,2.66,1.65,3.74c0.09,4.69,0,25.11-0.12,34.76c-0.03,2.4-0.06,4.12-0.09,4.74"/><path id="kvg:0697d-s12" kvg:type="&#12754;" d="M49.25,66.75c0,1.25-1.14,2.74-1.81,3.63C40.9,79.16,28.88,89.01,18,93.75"/><path id="kvg:0697d-s13" kvg:type="&#12751;" d="M56.76,67.11C62.25,72,82.25,86,88.79,89.82c1.85,1.08,3.38,1.61,5.21,1.93"/></g></g></g></svg>