<svg xmlns="http://www.w3.org/2000/svg" width="109" height="109" viewBox="0 0 109 109"><g xmlns:kvg="http://kanjivg.tagaini.net" id="kvg:StrokePaths_06979" style="fill:none;stroke:#000000;stroke-width:3;stroke-linecap:round;stroke-linejoin:round;"><g id="kvg:06979" kvg:element="&#27001;"><g id="kvg:06979-g1" kvg:element="&#26408;" kvg:position="left" kvg:radical="general"><path id="kvg:06979-s1" kvg:type="&#12752;" d="M11.78,36.22c0.35,0.24,2.39,0.41,3.31,0.31c3.94-0.41,17.12-1.71,23.45-2.91c0.92-0.17,2.15-0.24,2.73,0"/><path id="kvg:06979-s2" kvg:type="&#12753;" d="M26.36,14c0.91,0.47,2.04,2.75,2.04,4.42c0,0.95-0.12,71.75-0.3,77.58"/><path id="kvg:06979-s3" kvg:type="&#12754;" d="M27.94,38.28C23,53.65,20.25,60.14,12.61,73.59"/><path id="kvg:06979-s4" kvg:type="&#12756;/&#12751;" d="M30.47,44.9C32.63,46.57,36.18,52,38,55.25"/></g><g id="kvg:06979-g2" kvg:element="&#30408;" kvg:position="right"><g id="kvg:06979-g3" kvg:position="top"><g id="kvg:06979-g4" kvg:element="&#20035;"><g id="kvg:06979-g5" kvg:element="&#20031;"><path id="kvg:06979-s5" kvg:type="&#12754;" d="M56.31,20.26c0.26,0.81,0.33,2.09,0.13,3.41C55,33.47,51.55,48.71,41.02,59.24"/></g><path id="kvg:06979-s6" kvg:type="&#12748;" d="M46.89,16.41c1.12,0.57,2.73,0.7,3.85,0.57c8.66-0.96,18.99-1.66,27.33-3c2.09-0.34,3.13,1.33,2.41,2.87c-2.25,4.78-3.27,6.65-5.51,11.62c-0.44,0.98-0.16,2.69,1.12,2.3c3.69-1.15,10.93-2.1,14.46-2.87c1.92-0.42,2.06,1.71,1.76,2.87C89.9,40.15,88.84,48.84,84.73,56c-3.01,5.26-5.77,1.91-7.06-0.77"/></g><g id="kvg:06979-g6" kvg:element="&#21448;"><path id="kvg:06979-s7" kvg:type="&#12743;" d="M56.61,37.62c1.02,0.19,1.84,0.44,2.97,0.18c1.12-0.27,11.81-2.31,12.58-2.58c0.78-0.27,1.87,1.15,1.46,2.08C70,45.5,63.75,52.25,56.06,58.42"/><path id="kvg:06979-s8" kvg:type="&#12751;" d="M57.76,44.56c5.79,2.66,9.96,5.86,13.32,11.04"/></g></g><g id="kvg:06979-g7" kvg:element="&#30399;" kvg:position="bottom"><path id="kvg:06979-s9" kvg:type="&#12753;a" d="M45.39,69.13c0.52,0.97,1.19,2.17,1.3,2.99c0.87,6.51,1.73,15.01,2.33,21.68"/><path id="kvg:06979-s10" kvg:type="&#12757;b" d="M46.99,70.67c9.15-1.33,34.12-2.58,37.96-3.11c2.3-0.07,3.63,1.57,3.44,2.64c-0.79,4.4-2.47,15.63-3.27,21.05"/><path id="kvg:06979-s11" kvg:type="&#12753;a" d="M58.87,72.38c0.21,0.62,0.43,1.14,0.53,1.91c0.73,6.04,0.91,12.27,1.43,18.69"/><path id="kvg:06979-s12" kvg:type="&#12753;a" d="M73.25,71.19c0.34,0.62,0.69,1.51,0.64,2.32c-0.32,5.16-0.45,11.77-1.23,18.55"/><path id="kvg:06979-s13" kvg:type="&#12752;" d="M37.17,94.29c1.45,0.62,4.11,0.72,5.56,0.62c15.08-1.03,30.32-3.36,49.78-3c2.42,0.04,3.86,0.29,5.07,0.6"/></g></g></g></g></svg>