<svg xmlns="http://www.w3.org/2000/svg" width="109" height="109" viewBox="0 0 109 109"><g xmlns:kvg="http://kanjivg.tagaini.net" id="kvg:StrokePaths_069b1" style="fill:none;stroke:#000000;stroke-width:3;stroke-linecap:round;stroke-linejoin:round;"><g id="kvg:069b1" kvg:element="&#27057;"><g id="kvg:069b1-g1" kvg:element="&#26408;" kvg:position="left" kvg:radical="general"><path id="kvg:069b1-s1" kvg:type="&#12752;" d="M10.28,36.73c0.36,0.25,2.48,0.42,3.43,0.33c4.08-0.42,15.67-0.21,22.23-1.47c0.95-0.18,2.23-0.25,2.83,0"/><path id="kvg:069b1-s2" kvg:type="&#12753;" d="M24.86,14.5c0.91,0.47,2.04,2.25,2.04,4.42c0,0.95-0.12,72.25-0.3,78.08"/><path id="kvg:069b1-s3" kvg:type="&#12754;" d="M25.94,39.28c-5.1,15.04-7.94,21.4-15.83,34.56"/><path id="kvg:069b1-s4" kvg:type="&#12756;/&#12751;" d="M28.47,44.9c2.37,1.59,8.28,8.76,10.28,11.85"/></g><g id="kvg:069b1-g2" kvg:element="&#34928;" kvg:position="right"><g id="kvg:069b1-g3" kvg:element="&#34915;" kvg:part="1" kvg:position="top"><g id="kvg:069b1-g4" kvg:element="&#20128;"><path id="kvg:069b1-s5" kvg:type="&#12753;a" d="M64.21,11.75c0.64,0.49,1.7,2.39,1.7,3.36c0,3.6-0.2,5.77-0.08,8.81"/><path id="kvg:069b1-s6" kvg:type="&#12752;" d="M39.93,25.2c2.1,0.57,5.01,0.6,6.5,0.48c12-1.01,25.54-2.8,41.84-3.06c2.52-0.04,3.8,0.04,5.68,0.61"/></g></g><g id="kvg:069b1-g5" kvg:position="bottom"><g id="kvg:069b1-g6" kvg:element="&#21475;" kvg:part="1"><path id="kvg:069b1-s7" kvg:type="&#12753;" d="M50.23,33.23c0.25,0.38,0.5,1.19,0.61,1.66c0.85,3.73,1.88,13.13,2.46,19.83"/><path id="kvg:069b1-s8" kvg:type="&#12757;" d="M50.77,34.16c12.98-1.41,25.02-2.05,30.37-2.64c1.96-0.21,3.09,2.17,2.85,3.45c-1.03,5.54-1.22,8.79-3.1,17.86"/></g><path id="kvg:069b1-s9" kvg:type="&#12752;" d="M38.25,43.91c1.47,0.35,4.16,0.41,5.62,0.35c14.18-0.64,29.2-4,47.25-3.99c2.44,0,3.91,0.17,5.13,0.34"/><g id="kvg:069b1-g7" kvg:element="&#21475;" kvg:part="2"><path id="kvg:069b1-s10" kvg:type="&#12752;" d="M53.63,52.6c5.68-0.29,20.14-1.22,27.34-1.52"/></g><g id="kvg:069b1-g8" kvg:element="&#34915;" kvg:part="2"><path id="kvg:069b1-s11" kvg:type="&#12754;" d="M64.53,54.63c0.07,0.69,0.26,1.83-0.13,2.76c-2.54,6-10.82,16.94-23.55,26.41"/><path id="kvg:069b1-s12" kvg:type="&#12761;" d="M55.22,75.17c0.46,0.46,0.97,0.91,0.96,1.71c-0.03,10.09-0.31,15.18-0.31,16.89c0,1.71,1.14,2.68,2.59,1.4c1.45-1.28,11.9-8.1,13.83-9.38"/><path id="kvg:069b1-s13" kvg:type="&#12754;" d="M87.87,56.67c0.03,0.3,0.32,1.42,0.14,1.81c-1.13,2.43-4.67,5.9-10.44,10.74"/><path id="kvg:069b1-s14" kvg:type="&#12751;" d="M67.32,58.33c5.69,7.48,19.82,25.2,23.8,29.38c1.5,1.57,2.79,2.25,4.29,2.7"/></g></g></g></g></g></svg>