<svg xmlns="http://www.w3.org/2000/svg" width="109" height="109" viewBox="0 0 109 109"><g xmlns:kvg="http://kanjivg.tagaini.net" id="kvg:StrokePaths_069bf" style="fill:none;stroke:#000000;stroke-width:3;stroke-linecap:round;stroke-linejoin:round;"><g id="kvg:069bf" kvg:element="&#27071;"><g id="kvg:069bf-g1" kvg:element="&#26408;" kvg:position="left" kvg:radical="general"><path id="kvg:069bf-s1" kvg:type="&#12752;" d="M10.53,38.58c0.35,0.27,2.46,0.46,3.4,0.35c4.05-0.46,15.53-1.36,22.04-2.72c0.94-0.2,2.21-0.27,2.8,0"/><path id="kvg:069bf-s2" kvg:type="&#12753;" d="M25.36,15.5c0.91,0.47,2.04,2.25,2.04,4.42c0,0.95-0.12,70.75-0.3,76.58"/><path id="kvg:069bf-s3" kvg:type="&#12754;" d="M26.94,39.78C21.39,55.26,17.2,62.13,8.61,75.34"/><path id="kvg:069bf-s4" kvg:type="&#12756;/&#12751;" d="M29.97,46.4c2.37,1.59,6.28,5.76,8.28,8.85"/></g><g id="kvg:069bf-g2" kvg:element="&#35912;" kvg:position="right"><g id="kvg:069bf-g3" kvg:element="&#23665;" kvg:position="top"><path id="kvg:069bf-s5" kvg:type="&#12753;a" d="M64.83,11.75c0.42,0.32,1.31,2.39,1.4,3.02c0.08,0.64-0.05,12.52-0.14,16.51"/><path id="kvg:069bf-s6" kvg:type="&#12740;a" d="M47.6,19.19c0.42,0.32,0.9,1.67,0.84,2.31c-0.28,2.85-0.62,4.56-1.75,10.35c-0.28,1.42,0.29,2.87,1.33,2.67c10.83-2.05,42.1-3.81,39.73-3.73"/><path id="kvg:069bf-s7" kvg:type="&#12753;" d="M88.35,17.53c0.42,0.32,0.91,2.38,0.84,3.02c-0.42,3.91-1.2,7.7-1.67,11.94"/></g><g id="kvg:069bf-g4" kvg:element="&#35910;" kvg:position="bottom"><g id="kvg:069bf-g5" kvg:position="top"><path id="kvg:069bf-s8" kvg:type="&#12752;" d="M44.73,46.64c1.09,0.29,3.1,0.37,4.19,0.29C62.25,46,75.5,44,85.04,43.84c1.82-0.03,2.92,0.14,3.83,0.28"/></g><g id="kvg:069bf-g6" kvg:position="bottom"><g id="kvg:069bf-g7" kvg:element="&#21475;"><path id="kvg:069bf-s9" kvg:type="&#12753;" d="M48.93,56.41c0.45,0.3,1.03,0.54,1.12,0.94c0.62,2.91,1.98,9.8,3.37,15.58"/><path id="kvg:069bf-s10" kvg:type="&#12757;b" d="M50.3,57.95c6.91-0.58,27.12-3.43,31.84-3.53c1.95-0.04,3.27,1.26,2.83,2.96c-0.79,3.04-2.06,6.47-3.55,10.8"/><path id="kvg:069bf-s11" kvg:type="&#12752;b" d="M53.79,71.43C61,71,75.25,69.25,83.4,68.78"/></g><path id="kvg:069bf-s12" kvg:type="&#12756;" d="M54.2,80.29c1.69,1.95,4.38,8.02,4.8,11.05"/><path id="kvg:069bf-s13" kvg:type="&#12754;" d="M80.79,76.18c0.02,0.34,0.04,0.88-0.03,1.37c-0.42,2.89-2.84,9.22-6.15,13.09"/><path id="kvg:069bf-s14" kvg:type="&#12752;" d="M40.89,95.07c1.58,0.47,4.48,0.6,6.06,0.47C65.46,94,74.6,92.63,92.09,92.3c2.63-0.05,4.21,0.22,5.53,0.46"/></g></g></g></g></g></svg>