<svg xmlns="http://www.w3.org/2000/svg" width="109" height="109" viewBox="0 0 109 109"><g xmlns:kvg="http://kanjivg.tagaini.net" id="kvg:StrokePaths_06a44" style="fill:none;stroke:#000000;stroke-width:3;stroke-linecap:round;stroke-linejoin:round;"><g id="kvg:06a44" kvg:element="&#27204;"><g id="kvg:06a44-g1" kvg:element="&#26408;" kvg:position="left" kvg:radical="general"><path id="kvg:06a44-s1" kvg:type="&#12752;" d="M9.28,39.72c0.35,0.24,2.39,0.41,3.31,0.31c3.94-0.41,14.12-1.21,20.45-2.41c0.92-0.17,2.15-0.24,2.73,0"/><path id="kvg:06a44-s2" kvg:type="&#12753;" d="M23.86,15.5c0.91,0.47,2.04,2.5,2.04,4.42c0,0.95-0.12,70.75-0.3,76.58"/><path id="kvg:06a44-s3" kvg:type="&#12754;" d="M25.44,40.28c-5.1,15.04-7.94,21.4-15.83,34.56"/><path id="kvg:06a44-s4" kvg:type="&#12756;/&#12751;" d="M28.72,47.9c2.45,1.76,5.46,7.45,7.53,10.85"/></g><g id="kvg:06a44-g2" kvg:element="&#25954;" kvg:position="right"><g id="kvg:06a44-g3" kvg:position="left"><path id="kvg:06a44-s5" kvg:type="&#12752;" d="M38.1,19.54c0.86,0.14,2.43,0.18,3.29,0.14c5.47-0.24,15.1-1.18,20.45-1.7c1.42-0.14,2.29,0.07,3.01,0.13"/><path id="kvg:06a44-s6" kvg:type="&#12753;" d="M50.16,19c0.73,0.32,1.78,1.9,1.77,2.82c-0.05,2.92-0.05,7.88-0.06,10.54"/><g id="kvg:06a44-g4" kvg:element="&#32819;"><path id="kvg:06a44-s7" kvg:type="&#12752;" d="M35.77,32.7c0.78,0.55,2.2,0.59,3,0.55c7.38-0.39,18.29-1.51,26.9-2.4c1.3-0.13,2.08,0.26,2.74,0.53"/><path id="kvg:06a44-s8" kvg:type="&#12753;a" d="M43.56,35.75c0.23,0.6,0.58,0.6,0.58,1.6c0,1-0.12,38.16-0.12,41.77"/><path id="kvg:06a44-s9" kvg:type="&#12752;a" d="M44.45,47.67c2.24,0,11.33-0.91,15.17-0.91"/><path id="kvg:06a44-s10" kvg:type="&#12752;a" d="M44.22,61.29c2.77,0,11.51-1.21,15.55-1.21"/><path id="kvg:06a44-s11" kvg:type="&#12736;" d="M36.45,80.62c0.23,0.72,2.28,1.33,3.05,0.95c8.55-4.32,14.45-7.32,20.45-10.57"/><path id="kvg:06a44-s12" kvg:type="&#12753;" d="M59.39,34.55c0.23,0.8,0.58,0.6,0.58,1.6c0,1,0.12,52.39,0.12,60.61"/></g></g><g id="kvg:06a44-g5" kvg:element="&#25909;" kvg:variant="true" kvg:original="&#25908;" kvg:position="right"><g id="kvg:06a44-g6" kvg:position="top"><path id="kvg:06a44-s13" kvg:type="&#12754;" d="M79.2,16.18c0.04,0.83,0.23,2.19-0.07,3.33c-1.92,7.31-6.24,21.74-12.89,31.86"/><path id="kvg:06a44-s14" kvg:type="&#12752;" d="M77.1,36.44c0.44,0.41,1.24,0.46,1.68,0.41c4.55-0.47,12.47-1.85,16.14-2.22c0.78-0.08,1.26-0.02,1.46,0.08"/></g><g id="kvg:06a44-g7" kvg:element="&#20034;" kvg:position="bottom"><g id="kvg:06a44-g8" kvg:element="&#20031;"><path id="kvg:06a44-s15" kvg:type="&#12754;" d="M86.8,39.02c0.32,1.34,0.61,2.33,0.16,4.73C82.89,65.69,79.75,80,67.07,93.46"/></g><path id="kvg:06a44-s16" kvg:type="&#12751;" d="M69.78,48.43C74.25,59.5,87.2,82.62,94.71,91.64c1.44,1.74,2.36,2.02,3.54,2.21"/></g></g></g></g></g></svg>