<svg xmlns="http://www.w3.org/2000/svg" width="109" height="109" viewBox="0 0 109 109"><g xmlns:kvg="http://kanjivg.tagaini.net" id="kvg:StrokePaths_06aa0" style="fill:none;stroke:#000000;stroke-width:3;stroke-linecap:round;stroke-linejoin:round;"><g id="kvg:06aa0" kvg:element="&#27296;"><g id="kvg:06aa0-g1" kvg:element="&#25964;" kvg:position="top"><g id="kvg:06aa0-g2" kvg:element="&#33503;" kvg:position="left"><g id="kvg:06aa0-g3" kvg:element="&#33401;" kvg:variant="true" kvg:original="&#33400;" kvg:position="top"><path id="kvg:06aa0-s1" kvg:type="&#12752;" d="M15.07,19.95c0.72,0.36,1.56,0.34,2.29,0.36c6.39,0.2,24.14-2.55,31.6-2.81c1.21-0.04,1.93,0.17,2.54,0.35"/><path id="kvg:06aa0-s2" kvg:type="&#12753;a" d="M26.2,12.2c0.9,0.87,1.26,1.12,1.29,1.66c0.26,5.39,1.01,7.39,0.93,11.72"/><path id="kvg:06aa0-s3" kvg:type="&#12753;a" d="M41.83,10.64c0.17,0.63,0.38,1.09,0.2,1.87c-1.08,4.53-1.8,8.28-2.97,12.54"/></g><g id="kvg:06aa0-g4" kvg:element="&#21477;" kvg:position="bottom"><g id="kvg:06aa0-g5" kvg:element="&#21241;"><g id="kvg:06aa0-g6" kvg:element="&#20031;"><path id="kvg:06aa0-s4" kvg:type="&#12754;" d="M22.75,26.5c0.03,0.4,0.06,1.02-0.06,1.59c-0.68,3.35-4.59,11.19-9.94,15.69"/></g><path id="kvg:06aa0-s5" kvg:type="&#12742;" d="M21.69,32.95c0.54,0.32,2.26,0.35,3.17,0.21c3.39-0.49,16.25-1.83,18.36-2.2c2.77-0.49,4.6,0.79,4.28,3.84c-0.75,7.19-2,12.94-5.25,21.94c-1.71,4.73-5.01,2.11-6.3,0.77"/></g><g id="kvg:06aa0-g7" kvg:element="&#21475;"><path id="kvg:06aa0-s6" kvg:type="&#12753;" d="M21.68,40.66c0.19,0.18,0.38,0.33,0.47,0.56c0.66,1.81,1.85,6.77,2.1,12"/><path id="kvg:06aa0-s7" kvg:type="&#12757;b" d="M22.91,42.1c4.88-1.02,9.64-2.03,12.27-2.3c0.96-0.1,1.6,0.47,1.4,1.4c-0.51,2.42-0.99,5.31-1.84,8.64"/><path id="kvg:06aa0-s8" kvg:type="&#12752;b" d="M24.37,51.51c3.09-0.31,7.32-0.83,11.57-1.3"/></g></g></g><g id="kvg:06aa0-g8" kvg:element="&#25908;" kvg:variant="true" kvg:original="&#25909;" kvg:position="right"><g id="kvg:06aa0-g9" kvg:position="top"><path id="kvg:06aa0-s9" kvg:type="&#12754;" d="M64.69,10.64c0.03,0.6,0.18,1.57-0.06,2.39c-1.55,5.26-5.03,15.63-10.39,22.91"/><path id="kvg:06aa0-s10" kvg:type="&#12752;" d="M64.08,24.37c0.53,0.28,1.49,0.32,2.02,0.28c5.47-0.33,13.83-1.41,20.4-2.87c0.91-0.2,2.61-0.01,2.85,0.05"/></g><g id="kvg:06aa0-g10" kvg:element="&#20034;" kvg:position="bottom"><g id="kvg:06aa0-g11" kvg:element="&#20031;"><path id="kvg:06aa0-s11" kvg:type="&#12754;" d="M78.28,28.28c0.31,0.62,0.65,1.12,0.16,2.19C74.25,39.5,70,46.5,59.08,53.5"/></g><path id="kvg:06aa0-s12" kvg:type="&#12751;" d="M59.15,32.96c5.72,2.83,20.74,18.58,29.48,23.58c1.68,0.96,2.75,1.12,4.13,1.22"/></g></g></g><g id="kvg:06aa0-g12" kvg:element="&#26408;" kvg:position="bottom" kvg:radical="general"><path id="kvg:06aa0-s13" kvg:type="&#12752;" d="M18.25,68.82c1.91,0.39,4.08,0.51,6.27,0.39c11.17-0.63,43.61-2.82,60.51-3.57c2.18-0.09,3.54,0.07,5.72,0.34"/><path id="kvg:06aa0-s14" kvg:type="&#12753;" d="M52.25,55.25c1.25,0.5,2.25,2.22,2.25,3.25c0,10.5,0,34.75-0.25,41"/><path id="kvg:06aa0-s15" kvg:type="&#12754;" d="M51.25,67.75c-6.25,8.64-23,21.86-36,26.75"/><path id="kvg:06aa0-s16" kvg:type="&#12751;" d="M55.5,68c5.5,6.5,22.75,19,31.6,23.34c1.83,0.9,3.18,1.59,4.9,1.91"/></g></g></g></svg>