<svg xmlns="http://www.w3.org/2000/svg" width="109" height="109" viewBox="0 0 109 109"><g xmlns:kvg="http://kanjivg.tagaini.net" id="kvg:StrokePaths_06aa3" style="fill:none;stroke:#000000;stroke-width:3;stroke-linecap:round;stroke-linejoin:round;"><g id="kvg:06aa3" kvg:element="&#27299;"><g id="kvg:06aa3-g1" kvg:element="&#26408;" kvg:position="left" kvg:radical="general"><path id="kvg:06aa3-s1" kvg:type="&#12752;" d="M12.03,39.47c0.36,0.24,2.47,0.41,3.42,0.31c4.08-0.41,16.68-1.71,23.24-2.91c0.95-0.17,2.23-0.24,2.82,0"/><path id="kvg:06aa3-s2" kvg:type="&#12753;" d="M28.11,14.75c0.91,0.47,2.04,2.75,2.04,4.42c0,0.95-0.12,72.25-0.3,78.08"/><path id="kvg:06aa3-s3" kvg:type="&#12754;" d="M29.69,40.53c-5.81,16.23-11.33,23.1-20.33,37.31"/><path id="kvg:06aa3-s4" kvg:type="&#12756;/&#12751;" d="M32.22,49.15c2.37,1.59,5.28,5.76,7.28,8.85"/></g><g id="kvg:06aa3-g2" kvg:element="&#21959;" kvg:position="right"><g id="kvg:06aa3-g3" kvg:element="&#24043;" kvg:variant="true" kvg:position="top"><g id="kvg:06aa3-g4" kvg:element="&#24037;" kvg:part="1" kvg:variant="true"><g id="kvg:06aa3-g5" kvg:element="&#22303;" kvg:part="1"><path id="kvg:06aa3-s5" kvg:type="&#12752;" d="M47.12,26.19c0.93,0.41,3.96,0.54,4.9,0.42c4.37-0.56,29.96-2.46,37.3-2.89c1.43-0.08,2.74,0.08,3.92,0.43"/><path id="kvg:06aa3-s6" kvg:type="&#12753;" d="M67.46,13c1.57,2.01,1.57,3.22,1.57,4.83c0,6.17-0.05,28.92-0.05,36.92"/></g></g><g id="kvg:06aa3-g6" kvg:element="&#20174;"><g id="kvg:06aa3-g7" kvg:element="&#20154;" kvg:position="left"><path id="kvg:06aa3-s7" kvg:type="&#12754;" d="M54.64,33.99c0.11,0.41,0.08,1.31-0.07,1.77c-1.48,4.49-3.81,10.33-8.38,14.61"/><path id="kvg:06aa3-s8" kvg:type="&#12751;" d="M55.68,41.41c2.21,1.2,5.04,4.38,6.12,7.4"/></g><g id="kvg:06aa3-g8" kvg:element="&#20154;" kvg:position="right"><path id="kvg:06aa3-s9" kvg:type="&#12754;" d="M85.22,30.74c0.12,0.42,0.09,1.35-0.08,1.83c-1.68,4.62-4.31,10.65-9.47,15.06"/><path id="kvg:06aa3-s10" kvg:type="&#12751;" d="M84.65,39.88c2.82,1.24,6.41,4.54,7.78,7.67"/></g></g><g id="kvg:06aa3-g9" kvg:element="&#24037;" kvg:part="2" kvg:variant="true"><g id="kvg:06aa3-g10" kvg:element="&#22303;"><path id="kvg:06aa3-s11" kvg:type="&#12752;" d="M46.25,56.21c0.67,0.22,3.04,0.45,4.17,0.35c12.14-1.09,30.89-2.71,41.94-3.04c1.81-0.05,3.99,0.37,4.89,0.72"/></g></g></g><g id="kvg:06aa3-g11" kvg:element="&#22238;" kvg:position="bottom"><g id="kvg:06aa3-g12" kvg:element="&#22231;" kvg:part="1"><path id="kvg:06aa3-s12" kvg:type="&#12753;" d="M49.31,65.33c0.56,0.73,0.61,1.51,0.77,2.43c1.17,6.99,2.49,17.28,3.64,29.49"/><path id="kvg:06aa3-s13" kvg:type="&#12757;a" d="M50.42,66.5c10.87-1.29,33.04-3.25,39.85-3.25c1.55,0,3.15,2.22,2.97,3.69c-0.84,6.96-3.5,20.31-6.09,29.1"/></g><g id="kvg:06aa3-g13" kvg:element="&#21475;"><path id="kvg:06aa3-s14" kvg:type="&#12753;" d="M61.19,73.29c0.27,0.21,0.55,0.39,0.66,0.66c0.93,2.13,1.38,7.92,2.17,11.75"/><path id="kvg:06aa3-s15" kvg:type="&#12757;b" d="M62.86,74.18c5.5-1.11,10.72-1.89,13.87-2.17c1.15-0.1,1.84,0.61,1.68,1.21c-0.68,2.49-1.1,5.95-2.11,9.39"/><path id="kvg:06aa3-s16" kvg:type="&#12752;b" d="M64.19,84.19c3.99-0.55,8.18-0.78,13.27-1.27"/></g><g id="kvg:06aa3-g14" kvg:element="&#22231;" kvg:part="2"><path id="kvg:06aa3-s17" kvg:type="&#12752;a" d="M53.86,94.72c8.22-0.29,24.05-1.27,34.19-2.06"/></g></g></g></g></g></svg>