<svg xmlns="http://www.w3.org/2000/svg" width="109" height="109" viewBox="0 0 109 109"><g xmlns:kvg="http://kanjivg.tagaini.net" id="kvg:StrokePaths_06ab3" style="fill:none;stroke:#000000;stroke-width:3;stroke-linecap:round;stroke-linejoin:round;"><g id="kvg:06ab3" kvg:element="&#27315;"><g id="kvg:06ab3-g1" kvg:element="&#26408;" kvg:position="left" kvg:radical="general"><path id="kvg:06ab3-s1" kvg:type="&#12752;" d="M11.28,38.22c0.35,0.24,2.39,0.41,3.31,0.31c3.94-0.41,15.12-0.71,21.45-1.91c0.92-0.17,2.15-0.24,2.73,0"/><path id="kvg:06ab3-s2" kvg:type="&#12753;" d="M26.86,13.5c0.91,0.47,2.04,1.75,2.04,4.42c0,0.95-0.12,74.25-0.3,80.08"/><path id="kvg:06ab3-s3" kvg:type="&#12754;" d="M27.94,40.28c-5.82,14.49-9.06,20.62-18.08,33.31"/><path id="kvg:06ab3-s4" kvg:type="&#12756;/&#12751;" d="M30.97,47.9c2.09,1.71,5.52,7.28,7.28,10.6"/></g><g id="kvg:06ab3-g2" kvg:element="&#36051;" kvg:variant="true" kvg:position="right"><g id="kvg:06ab3-g3" kvg:position="top"><g id="kvg:06ab3-g4" kvg:element="&#23424;"><path id="kvg:06ab3-s5" kvg:type="&#12753;a" d="M67.15,11.05c0.87,0.34,2.11,2.02,2.09,3c-0.06,3.1-0.06,5.13-0.07,7.96"/><g id="kvg:06ab3-g5" kvg:element="&#20886;"><path id="kvg:06ab3-s6" kvg:type="&#12756;" d="M49.24,21.39c0,2.77-2.39,11.31-3.3,13.16"/><path id="kvg:06ab3-s7" kvg:type="&#12758;b" d="M49.56,24.2c6.28-0.79,35.81-2.6,40.9-2.9c7.97-0.47,1.69,5.7-0.3,7.39"/></g></g><path id="kvg:06ab3-s8" kvg:type="&#12752;" d="M54.58,32.31c0.73,0.35,2.05,0.39,2.78,0.35c4.94-0.25,19.8-1.31,23.82-1.65c1.2-0.1,1.93,0.17,2.54,0.35"/><g id="kvg:06ab3-g6" kvg:element="&#23569;" kvg:variant="true"><g id="kvg:06ab3-g7" kvg:element="&#23567;" kvg:partial="true"><path id="kvg:06ab3-s9" kvg:type="&#12762;" d="M67.94,34.61c0.05,0.21,0.67,1.11,0.67,2.46c0,2.93-0.14,6.92-0.14,9.14c0,6.27-3.84,0.67-4.64,0.11"/><path id="kvg:06ab3-s10" kvg:type="&#12754;" d="M55.45,40.54c0.03,0.26,0.11,0.69-0.06,1.06c-1.18,2.64-6.16,7.72-10.21,10.15"/></g><g id="kvg:06ab3-g8" kvg:element="&#20031;"><path id="kvg:06ab3-s11" kvg:type="&#12754;" d="M84.42,38.3c0.11,0.56,0.01,1.97-0.66,2.68c-6.1,6.34-21.37,14.78-40.51,21.05"/></g></g></g><g id="kvg:06ab3-g9" kvg:element="&#35997;" kvg:position="bottom"><g id="kvg:06ab3-g10" kvg:element="&#30446;" kvg:position="top"><path id="kvg:06ab3-s12" kvg:type="&#12753;" d="M55.55,58.04c0.77,0.96,1.17,1.64,1.17,3.2c0,3.56-0.35,14.78-0.35,25.06"/><path id="kvg:06ab3-s13" kvg:type="&#12757;a" d="M57.51,57.31c2.68-0.2,23.62-2.12,26.06-2.35c2.04-0.2,3.12,1.08,3.12,2.55c0,3.58-0.6,25.9-0.6,27.07"/><path id="kvg:06ab3-s14" kvg:type="&#12752;a" d="M56.77,65.33c5.01-0.3,24.96-1.61,29.26-1.61"/><path id="kvg:06ab3-s15" kvg:type="&#12752;a" d="M56.99,73.85c7.57-0.57,21.05-1.23,29.07-1.35"/><path id="kvg:06ab3-s16" kvg:type="&#12752;a" d="M56.64,83.01c7.57-0.43,22.52-1.56,29.42-1.56"/></g><g id="kvg:06ab3-g11" kvg:position="bottom"><path id="kvg:06ab3-s17" kvg:type="&#12754;" d="M63.32,87.84c0.4,0.88-0.21,2.12-1,2.76c-2.39,1.93-9.32,5.9-14.04,7.46"/><path id="kvg:06ab3-s18" kvg:type="&#12756;" d="M79.5,88.11c5.97,2.8,13.03,7.88,14.66,10.33"/></g></g></g></g></g></svg>