<svg xmlns="http://www.w3.org/2000/svg" width="109" height="109" viewBox="0 0 109 109"><g xmlns:kvg="http://kanjivg.tagaini.net" id="kvg:StrokePaths_06b16" style="fill:none;stroke:#000000;stroke-width:3;stroke-linecap:round;stroke-linejoin:round;"><g id="kvg:06b16" kvg:element="&#27414;"><g id="kvg:06b16-g1" kvg:element="&#26408;" kvg:position="left" kvg:radical="general"><path id="kvg:06b16-s1" kvg:type="&#12752;" d="M9.53,36.72c0.37,0.24,2.54,0.41,3.52,0.31c4.19-0.41,16.08-1.21,22.82-2.41c0.98-0.17,2.29-0.24,2.9,0"/><path id="kvg:06b16-s2" kvg:type="&#12753;" d="M26.36,14.5c0.91,0.47,2.04,2.75,2.04,4.42c0,0.95-0.12,72.75-0.3,78.58"/><path id="kvg:06b16-s3" kvg:type="&#12754;" d="M27.94,38.28c-5.42,14.93-8.44,22.24-16.83,35.31"/><path id="kvg:06b16-s4" kvg:type="&#12756;/&#12751;" d="M30.47,49.4c2.37,1.59,8.28,8.76,10.28,11.85"/></g><g id="kvg:06b16-g2" kvg:element="&#35261;" kvg:position="right"><g id="kvg:06b16-g3" kvg:position="top"><g id="kvg:06b16-g4" kvg:element="&#33251;" kvg:position="left"><path id="kvg:06b16-s5" kvg:type="&#12753;" d="M44.38,14c0.36,0.19,0.57,1.75,0.64,2.11c0.07,0.37,0,26.86-0.07,29.15"/><path id="kvg:06b16-s6" kvg:type="&#12752;b" d="M45.1,15.39c2.35-0.25,13.55-1.68,19-1.91c0.83-0.04,1.32-0.08,1.74,0.02"/><path id="kvg:06b16-s7" kvg:type="&#12753;a" d="M54.19,15.18c0.36,0.19,0.57,0.83,0.64,1.19c0.07,0.37,0.05,4.94-0.03,7.23"/><path id="kvg:06b16-s8" kvg:type="&#12757;b" d="M45.24,24.62c5.62-0.63,13.02-1.27,16.92-1.7c1.58-0.17,2.02,0.58,1.8,1.57c-0.4,1.78-0.98,4.79-1.39,6.93"/><path id="kvg:06b16-s9" kvg:type="&#12752;b" d="M45.26,33.29c2.35-0.25,15.91-1.25,18.12-1.4"/><path id="kvg:06b16-s10" kvg:type="&#12753;a" d="M53.96,32.69c0.36,0.18,0.57,0.83,0.64,1.19c0.07,0.37,0.05,6.58-0.03,8.86"/><path id="kvg:06b16-s11" kvg:type="&#12752;b" d="M45.1,43.75c2.35-0.25,12.16-1.1,17.62-1.33c0.83-0.03,1.32-0.08,1.74,0.02"/></g><g id="kvg:06b16-g5" kvg:position="right"><path id="kvg:06b16-s12" kvg:type="&#12754;" d="M74.65,11.46c0.06,0.67-0.02,1.55-0.2,2.13c-1.19,3.67-2.69,6.78-5.41,11.25"/><path id="kvg:06b16-s13" kvg:type="&#12752;" d="M73.4,18.45c0.57,0.04,1.69,0.19,2.71,0.16c4.71-0.17,12.64-1.14,15.76-1.3c0.88-0.05,1.7,0.06,2.14,0.12"/><path id="kvg:06b16-s14" kvg:type="&#12752;" d="M73.18,26.37c0.53,0.05,1.56,0.26,2.5,0.21c4.36-0.23,10.68-1.03,13.57-1.26c0.81-0.06,1.57,0.08,1.98,0.16"/><g id="kvg:06b16-g6" kvg:element="&#32594;" kvg:variant="true" kvg:original="&#32593;"><path id="kvg:06b16-s15" kvg:type="&#12753;" d="M68.4,32.95c0.13,0.2,0.27,0.36,0.32,0.61c0.42,1.91,1.85,6.64,2.09,10.05"/><path id="kvg:06b16-s16" kvg:type="&#12757;a" d="M69.21,34.28c4.29-0.28,23.25-1.97,24.84-2.13c0.58-0.06,1.35,0.71,1.17,1.76c-0.38,2.19-1.27,5.95-2.22,9.05"/><path id="kvg:06b16-s17" kvg:type="&#12753;a" d="M77.78,33.14c0.06,1.26,0.54,7.42,0.6,8.84"/><path id="kvg:06b16-s18" kvg:type="&#12753;a" d="M86.36,32.83c-0.14,2.04-0.73,7.35-0.95,8.6"/><path id="kvg:06b16-s19" kvg:type="&#12752;a" d="M71.26,42.6c1.87-0.18,19.43-0.94,22-1.23"/></g></g></g><g id="kvg:06b16-g7" kvg:element="&#35211;" kvg:position="bottom"><g id="kvg:06b16-g8" kvg:element="&#30446;" kvg:position="top"><path id="kvg:06b16-s20" kvg:type="&#12753;" d="M51.93,49.55c0.25,0.63,0.62,1.6,0.62,2.44s-0.3,25.07-0.22,25.91"/><path id="kvg:06b16-s21" kvg:type="&#12757;a" d="M52.96,50.91c1.42-0.1,29-3.05,30.29-3.17c1.08-0.11,1.84,0.45,1.84,1.96c0,2.35-0.5,25.67-0.5,26.3"/><path id="kvg:06b16-s22" kvg:type="&#12752;a" d="M52.5,59.5c2.03,0,30.09-3.01,32.37-3.01"/><path id="kvg:06b16-s23" kvg:type="&#12752;a" d="M52.62,67.54c2.82,0,28.43-2.86,32.08-2.86"/><path id="kvg:06b16-s24" kvg:type="&#12752;a" d="M52.56,75.48c2.82,0,28-2.26,31.65-2.26"/></g><g id="kvg:06b16-g9" kvg:position="bottom"><path id="kvg:06b16-s25" kvg:type="&#12754;" d="M59.84,79.04c0.06,0.46,0.04,1.17-0.11,1.86c-1.23,5.35-7.23,14.35-20.05,17.77"/><path id="kvg:06b16-s26" kvg:type="&#12767;" d="M71.65,76.9c0.48,0.68,0.86,1.49,0.88,2.54c0.13,4.69,0.03,4.13,0.03,11.01c0,5.8,1.19,6.61,11.9,6.61c9.99,0,12.33-1.31,12.33-10.22"/></g></g></g></g></g></svg>