<svg xmlns="http://www.w3.org/2000/svg" width="109" height="109" viewBox="0 0 109 109"><g xmlns:kvg="http://kanjivg.tagaini.net" id="kvg:StrokePaths_06b27" style="fill:none;stroke:#000000;stroke-width:3;stroke-linecap:round;stroke-linejoin:round;"><g id="kvg:06b27" kvg:element="&#27431;"><g id="kvg:06b27-g1" kvg:element="&#21306;" kvg:position="left" kvg:phon="&#21306;/&#21312;V"><g id="kvg:06b27-g2" kvg:element="&#21274;" kvg:part="1"><path id="kvg:06b27-s1" kvg:type="&#12752;" d="M11.15,25.74c1.69,0.83,3.82,0.49,5.6,0.31c9.53-0.95,17.62-1.92,25.64-2.82c2.06-0.23,4.48-0.48,6.34-0.36"/></g><g id="kvg:06b27-g3" kvg:element="&#20034;"><g id="kvg:06b27-g4" kvg:element="&#20031;"><path id="kvg:06b27-s2" kvg:type="&#12754;" d="M42.2,32.54c0.35,1.07,0.18,2.4-0.33,4.29C38,51.25,31.75,65,20.76,76.17"/></g><path id="kvg:06b27-s3" kvg:type="&#12756;/&#12751;" d="M21.68,44.54C30.5,50.25,40.5,62.25,45.83,72.7"/></g><g id="kvg:06b27-g5" kvg:element="&#21274;" kvg:part="2"><path id="kvg:06b27-s4" kvg:type="&#12759;" d="M12.43,26.76c0.91,0.91,1.25,1.99,1.25,3.49c0,13.25,0,51.1,0,53.75c0,2.75,1.07,4,3.55,3.67c7.65-1.02,24.12-3.21,26.07-3.21c2.12,0,3.92-0.29,5.23,0.13"/></g></g><g id="kvg:06b27-g6" kvg:element="&#27424;" kvg:position="right" kvg:radical="general"><g id="kvg:06b27-g7" kvg:position="top"><path id="kvg:06b27-s5" kvg:type="&#12754;" d="M63.07,15.25c0.18,1,0.23,2.17-0.09,3.34C60.75,26.75,55.25,38.5,47,50"/><path id="kvg:06b27-s6" kvg:type="&#12758;a" d="M57.47,39.49c1.01,0.36,2.91,0.18,4.43-0.14c1.85-0.39,22.12-5.71,25.6-6.54c6.99-1.68,1.49,6.44-4.88,12.94"/></g><g id="kvg:06b27-g8" kvg:position="bottom"><path id="kvg:06b27-s7" kvg:type="&#12754;" d="M67.04,45c0.46,1.25,0.63,3.13,0.37,4.9C65.12,65.25,58.5,86.62,43.5,97.25"/><path id="kvg:06b27-s8" kvg:type="&#12751;" d="M65.5,63c4.63,5.16,14.5,17.25,22.78,25.72c2.41,2.47,4.85,4.28,6.97,5.78"/></g></g></g></g></svg>