<svg xmlns="http://www.w3.org/2000/svg" width="109" height="109" viewBox="0 0 109 109"><g xmlns:kvg="http://kanjivg.tagaini.net" id="kvg:StrokePaths_06b62" style="fill:none;stroke:#000000;stroke-width:3;stroke-linecap:round;stroke-linejoin:round;"><g id="kvg:06b62" kvg:element="&#27490;" kvg:radical="general"><g id="kvg:06b62-g1" kvg:element="&#21340;" kvg:original="&#12488;"><path id="kvg:06b62-s1" kvg:type="&#12753;a" d="M53.43,16.25c1.22,1.22,2.08,3.25,2.08,4.62c0,5.26,0.11,47.51,0.11,65.88"/><path id="kvg:06b62-s2" kvg:type="&#12752;b" d="M55.88,49.75c8.92-0.75,15.63-2,24.4-2.75c2.17-0.19,2.73-0.25,4.09,0"/></g><path id="kvg:06b62-s3" kvg:type="&#12753;a" d="M31.43,47.5c1.1,1.1,1.83,3,1.83,4.36c0,4.51,0.32,25.66,0.12,36.64"/><path id="kvg:06b62-s4" kvg:type="&#12752;" d="M14,90c1.75,0.62,3.87,0.95,6.66,0.75c17.21-1.25,47.96-4,63.81-4.25c2.81-0.04,6.65,0.12,8.78,0.75"/></g></g></svg>