<svg xmlns="http://www.w3.org/2000/svg" width="109" height="109" viewBox="0 0 109 109"><g xmlns:kvg="http://kanjivg.tagaini.net" id="kvg:StrokePaths_06b86" style="fill:none;stroke:#000000;stroke-width:3;stroke-linecap:round;stroke-linejoin:round;"><g id="kvg:06b86" kvg:element="&#27526;"><g id="kvg:06b86-g1" kvg:element="&#27513;" kvg:position="left" kvg:radical="general"><g id="kvg:06b86-g2" kvg:element="&#19968;"><path id="kvg:06b86-s1" kvg:type="&#12752;" d="M16.25,22.73c1.12,0.04,3.13,0.11,4.26,0.02c5.74-0.5,21.81-3.18,28.85-4.01c1.84-0.22,2.96,0.28,3.89,0.56"/></g><g id="kvg:06b86-g3" kvg:element="&#22805;"><path id="kvg:06b86-s2" kvg:type="&#12754;" d="M32.18,25.39c0.19,0.6,0.76,2.44,0.37,3.59c-2.68,7.79-8.13,19.18-17.63,28.68"/><path id="kvg:06b86-s3" kvg:type="&#12743;" d="M30.81,41.44c0.3,0.05,1.55,0,2.4-0.14c2.77-0.43,6.95-2.25,11.69-3c2.79-0.44,3.26,2.17,2.57,4.69C43.67,56.77,28.75,84.75,10.61,95"/><path id="kvg:06b86-s4" kvg:type="&#12756;" d="M24.46,54.73c3.2,1.84,8.26,7.55,9.06,10.41"/></g></g><g id="kvg:06b86-g4" kvg:element="&#21488;" kvg:position="right"><g id="kvg:06b86-g5" kvg:element="&#21430;" kvg:position="top"><path id="kvg:06b86-s5" kvg:type="&#12764;" d="M72.66,16.67c0.84,1.85,0.41,3.65-0.5,5.51c-5.9,12.07-7.4,16.32-13.66,25.23c-2.66,3.78-0.74,5.04,2.51,4.19c9-2.35,16.75-3.6,31.17-7.7"/><path id="kvg:06b86-s6" kvg:type="&#12756;" d="M83.92,33.33c4.35,3.64,11.25,14.97,12.33,20.63"/></g><g id="kvg:06b86-g6" kvg:element="&#21475;" kvg:position="bottom"><path id="kvg:06b86-s7" kvg:type="&#12753;" d="M54.12,65.71c0.42,0.42,0.85,1.76,1.04,2.28c1.46,4.11,1.71,16.46,2.71,23.85"/><path id="kvg:06b86-s8" kvg:type="&#12757;b" d="M56.09,67.93c13.66-1.93,27.03-3.85,34.08-4.67c2.41-0.28,3.83,0.74,3.51,3.11c-0.95,6.97-2.65,12.31-4.27,19.53"/><path id="kvg:06b86-s9" kvg:type="&#12752;b" d="M58.99,89.74C69.75,88.75,77.75,88,90.8,87.2"/></g></g></g></g></svg>