<svg xmlns="http://www.w3.org/2000/svg" width="109" height="109" viewBox="0 0 109 109"><g xmlns:kvg="http://kanjivg.tagaini.net" id="kvg:StrokePaths_06b98" style="fill:none;stroke:#000000;stroke-width:3;stroke-linecap:round;stroke-linejoin:round;"><g id="kvg:06b98" kvg:element="&#27544;"><g id="kvg:06b98-g1" kvg:element="&#27513;" kvg:position="left" kvg:radical="general"><g id="kvg:06b98-g2" kvg:element="&#19968;"><path id="kvg:06b98-s1" kvg:type="&#12752;" d="M14.25,18.07c0.75,0.43,2.88,0.61,3.92,0.52c6.14-0.57,19.52-2.06,26-2.93c1.69-0.23,2.73,0.29,3.58,0.6"/></g><g id="kvg:06b98-g3" kvg:element="&#22805;"><path id="kvg:06b98-s2" kvg:type="&#12754;" d="M28.21,20.89c0.18,0.69,0.72,2.79,0.35,4.12c-2.53,8.93-7.67,22.01-16.64,32.9"/><path id="kvg:06b98-s3" kvg:type="&#12743;" d="M27.64,36.5c0.26,0.05,2.89,0,3.64-0.14c2.47-0.45,6.2-1.78,10.43-2.55c2.49-0.46,2.91,2.23,2.29,4.81C40.61,52.76,25.5,81.25,10.11,90.5"/><path id="kvg:06b98-s4" kvg:type="&#12756;" d="M20.71,51.23c3.11,2.1,8.04,8.64,8.81,11.91"/></g></g><g id="kvg:06b98-g4" kvg:element="&#25108;" kvg:position="right"><g id="kvg:06b98-g5" kvg:element="&#25096;" kvg:position="top"><g id="kvg:06b98-g6" kvg:element="&#24331;" kvg:part="1"><path id="kvg:06b98-s5" kvg:type="&#12752;" d="M49.72,26.95c0.91,0.44,2.59,0.5,3.5,0.44c7.11-0.41,22.47-3.35,30.7-3.96c1.52-0.11,2.43,0.21,3.2,0.43"/><path id="kvg:06b98-s6" kvg:type="&#12738;" d="M61.81,11c1.33,0.88,1.78,2.18,2.21,4.05C67.75,31.25,73.3,47,89.54,52.94c5.21,1.91,5.13-0.32,3.81-6.6"/></g><g id="kvg:06b98-g7" kvg:element="&#20031;"><path id="kvg:06b98-s7" kvg:type="&#12754;" d="M82.93,30.7c-0.18,0.6-0.36,1.23-0.78,1.78c-3.71,4.82-15.39,13.27-31.57,18.47"/></g><g id="kvg:06b98-g8" kvg:element="&#24331;" kvg:part="2"><g id="kvg:06b98-g9" kvg:element="&#20022;"><path id="kvg:06b98-s8" kvg:type="&#12756;" d="M75.17,10.18c3.66,1.35,9.52,4.44,11.24,6.75"/></g></g></g><g id="kvg:06b98-g10" kvg:element="&#25096;" kvg:position="bottom"><g id="kvg:06b98-g11" kvg:element="&#24331;" kvg:part="1"><path id="kvg:06b98-s9" kvg:type="&#12752;" d="M45.27,68.13c0.96,0.44,2.73,0.57,3.69,0.44c8.42-1.12,30.51-4.83,39.18-5.43c1.6-0.11,2.57,0.21,3.37,0.43"/><path id="kvg:06b98-s10" kvg:type="&#12738;" d="M60.76,52.67c1.43,0.94,2.04,1.67,2.34,3.7c2.5,16.98,12.15,34.88,28.2,40.38c7.69,2.63,6.45-2,4.6-8.27"/></g><g id="kvg:06b98-g12" kvg:element="&#20031;"><path id="kvg:06b98-s11" kvg:type="&#12754;" d="M84.65,71.78c0.11,0.57,0.23,1.46-0.22,2.28C81.79,78.86,67,89.93,46.3,96.39"/></g><g id="kvg:06b98-g13" kvg:element="&#24331;" kvg:part="2"><g id="kvg:06b98-g14" kvg:element="&#20022;"><path id="kvg:06b98-s12" kvg:type="&#12756;" d="M71.67,50.87c3.01,1.35,7.83,4.44,9.24,6.75"/></g></g></g></g></g></g></svg>