<svg xmlns="http://www.w3.org/2000/svg" width="109" height="109" viewBox="0 0 109 109"><g xmlns:kvg="http://kanjivg.tagaini.net" id="kvg:StrokePaths_06bd4" style="fill:none;stroke:#000000;stroke-width:3;stroke-linecap:round;stroke-linejoin:round;"><g id="kvg:06bd4" kvg:element="&#27604;" kvg:radical="general"><g id="kvg:06bd4-g1" kvg:position="left"><path id="kvg:06bd4-s1" kvg:type="&#12752;b" d="M29.25,49.75c5.98-0.66,12-3,17.21-4.11c1.53-0.33,2.5-0.32,3.29-0.13"/><path id="kvg:06bd4-s2" kvg:type="&#12761;" d="M24.5,23.5c1,1,1.51,2.45,1.51,4.07c0,4.45-0.34,50.16-0.34,57.09c0,5.82-0.75,5.98,4.33,3.33c6.25-3.25,11.07-5.89,15.67-8"/></g><g id="kvg:06bd4-g2" kvg:element="&#21269;" kvg:position="right"><path id="kvg:06bd4-s3" kvg:type="&#12754;" d="M86.84,37.94c0.03,1.06-0.53,2.19-1.51,2.98C82.75,43,72.38,49.38,63.67,53.67"/><path id="kvg:06bd4-s4" kvg:type="&#12767;" d="M59.25,16.25c1.25,1.25,1.58,3,1.58,4.58c0,11.29-0.11,45.92-0.11,54.98c0,16.44,0.78,17.94,17.03,17.94c15.5,0,17-3,17-13.88"/></g></g></g></svg>