<svg xmlns="http://www.w3.org/2000/svg" width="109" height="109" viewBox="0 0 109 109"><g xmlns:kvg="http://kanjivg.tagaini.net" id="kvg:StrokePaths_06bdf" style="fill:none;stroke:#000000;stroke-width:3;stroke-linecap:round;stroke-linejoin:round;"><g id="kvg:06bdf" kvg:element="&#27615;"><g id="kvg:06bdf-g1" kvg:element="&#23569;" kvg:position="top"><g id="kvg:06bdf-g2" kvg:element="&#23567;"><path id="kvg:06bdf-s1" kvg:type="&#12762;" d="M54.1,11.5c0.08,0.24,1.16,1.27,1.24,2.82c0.4,7.49,0.25,12.98,0.25,15.62c0,9.8-3.59,4.3-6.12,2.13"/><path id="kvg:06bdf-s2" kvg:type="&#12754;" d="M36.71,21.68c0.06,0.44,0.22,1.15-0.12,1.76c-2.42,4.38-12.63,12.82-20.92,16.86"/><path id="kvg:06bdf-s3" kvg:type="&#12756;" d="M77.92,16.67c6.3,2.4,14.75,8.57,16.33,12.31"/></g><g id="kvg:06bdf-g3" kvg:element="&#20031;" kvg:radical="nelson"><path id="kvg:06bdf-s4" kvg:type="&#12754;" d="M71.03,21.53c0.14,0.89,0.57,2.41-0.3,3.59C63,35.5,40,52.25,17.69,59.5"/></g></g><g id="kvg:06bdf-g4" kvg:element="&#27611;" kvg:position="bottom" kvg:radical="tradit"><path id="kvg:06bdf-s5" kvg:type="&#12754;" d="M71.15,45.75c0.11,0.35-0.55,1.49-1.21,1.89c-6.28,3.72-19.61,8.97-36.09,12.8"/><path id="kvg:06bdf-s6" kvg:type="&#12752;" d="M29.2,70.97c1.28,0.45,3.63,0.58,4.9,0.45c13.29-1.42,31.49-5.5,42.49-6.54c2.11-0.2,3.41,0.21,4.48,0.43"/><path id="kvg:06bdf-s7" kvg:type="&#12752;" d="M18.63,84.98c1.5,0.4,5.88,0.67,7.37,0.4c20.01-3.63,44.47-8.43,58.09-9.34c2.5-0.17,5.61,0.19,6.87,0.39"/><path id="kvg:06bdf-s8" kvg:type="&#12767;" d="M53.57,58.64c0.76,0.65,0.86,1.42,0.9,2.42c0.2,4.48-0.25,24.67-0.25,27.42c0,8.26,0.52,9.54,17.52,9.54c17.5,0,18.25-2.78,18.25-10.17"/></g></g></g></svg>