<svg xmlns="http://www.w3.org/2000/svg" width="109" height="109" viewBox="0 0 109 109"><g xmlns:kvg="http://kanjivg.tagaini.net" id="kvg:StrokePaths_06bef" style="fill:none;stroke:#000000;stroke-width:3;stroke-linecap:round;stroke-linejoin:round;"><g id="kvg:06bef" kvg:element="&#27631;"><g id="kvg:06bef-g1" kvg:element="&#27611;" kvg:position="nyo" kvg:radical="general"><path id="kvg:06bef-s1" kvg:type="&#12754;" d="M40.28,15c0.08,0.41,0.32,1.17-0.15,1.63C35.75,21,25.75,27.75,14.25,32.25"/><path id="kvg:06bef-s2" kvg:type="&#12752;" d="M11,47.21c0.89,0.28,2.53,0.36,3.42,0.28c9.26-0.89,20.94-3.44,28.59-4.09c1.47-0.12,2.38,0.13,3.12,0.27"/><path id="kvg:06bef-s3" kvg:type="&#12752;" d="M8.38,65.06c0.94,0.25,3.69,0.38,4.63,0.25c10-1.31,22.93-3.87,31.47-4.45c1.57-0.11,3.52,0.12,4.31,0.25"/><path id="kvg:06bef-s4" kvg:type="&#12767;" d="M27.99,30.37c0.59,1.19,1.06,2.59,1.1,4.43c0.16,8.19-0.58,38.93-0.58,43.95c0,16.5,3.5,17.78,35.74,17.78c34.01,0,33.26-4.53,33.26-13.28"/></g><g id="kvg:06bef-g2" kvg:element="&#28814;"><g id="kvg:06bef-g3" kvg:element="&#28779;" kvg:position="top"><path id="kvg:06bef-s5" kvg:type="&#12756;" d="M55.21,22.67c2.42,2.11,5.95,8.09,6.61,10.2"/><path id="kvg:06bef-s6" kvg:type="&#12754;" d="M85.15,17.31c0.43,0.48,0.39,1.99,0,2.74s-5.17,6.75-7.12,8.5"/><path id="kvg:06bef-s7" kvg:type="&#12754;" d="M70.4,13.25c0.65,0.37,0.78,1.31,0.78,1.93c0,21.82-6.62,29.95-16.92,36.07"/><path id="kvg:06bef-s8" kvg:type="&#12751;" d="M71.18,34.65c7.13,3.07,12.6,8.62,15.57,12.23"/></g><g id="kvg:06bef-g4" kvg:element="&#28779;" kvg:position="bottom"><path id="kvg:06bef-s9" kvg:type="&#12756;" d="M55.43,59.92c2.36,2.37,5.79,9.09,6.43,11.46"/><path id="kvg:06bef-s10" kvg:type="&#12754;" d="M88.65,54.31c0.43,0.48,0.39,1.99,0,2.74s-7.67,7.75-9.62,9.5"/><path id="kvg:06bef-s11" kvg:type="&#12754;" d="M71.9,51.25c0.65,0.37,0.78,1.31,0.78,1.93c-0.13,24.84-10.62,29.45-20.92,35.57"/><path id="kvg:06bef-s12" kvg:type="&#12751;" d="M73.18,72.9c6.44,3.38,11.39,9.5,14.07,13.48"/></g></g></g></g></svg>