<svg xmlns="http://www.w3.org/2000/svg" width="109" height="109" viewBox="0 0 109 109"><g xmlns:kvg="http://kanjivg.tagaini.net" id="kvg:StrokePaths_06c11" style="fill:none;stroke:#000000;stroke-width:3;stroke-linecap:round;stroke-linejoin:round;"><g id="kvg:06c11" kvg:element="&#27665;"><path id="kvg:06c11-s1" kvg:type="&#12757;c" d="M21.89,17.96c1.98,0.92,4.61,1.29,7.49,0.96c12.78-1.48,33.28-3.93,41.51-4.66c4.36-0.39,6.23,1.61,5.37,4.65c-1.32,4.67-2.62,8.33-4.01,11.59"/><g id="kvg:06c11-g1" kvg:element="&#27663;" kvg:variant="true" kvg:radical="tradit"><path id="kvg:06c11-s2" kvg:type="&#12752;b" d="M25.35,36.27c9.44-0.95,33.85-3.79,45.27-4.92c1.98-0.2,4.5-0.61,6.13-0.35"/><path id="kvg:06c11-s3" kvg:type="&#12761;" d="M23,18.75c0.69,0.69,1.25,2.12,1.25,3.25c0,2.25-0.25,62.75-0.25,66.25s0.25,4.5,3.5,2S38.75,80,40.75,78.5"/><g id="kvg:06c11-g2" kvg:element="&#19968;" kvg:radical="nelson"><path id="kvg:06c11-s4" kvg:type="&#12752;" d="M27.73,55.8c1.65-0.21,3.64-0.46,5.88-0.75c13.44-1.7,33.41-4.24,46.41-6.28c1.85-0.29,3.99-0.53,5.77-0.12"/></g><path id="kvg:06c11-s5" kvg:type="&#12738;" d="M52.75,36.25c1.12,1.12,2.13,3.39,2.39,5.15c3.48,23.48,14.11,41.98,32.94,52.02c8.09,4.32,6.17-1.92,5.95-6.36"/></g></g></g></svg>