<svg xmlns="http://www.w3.org/2000/svg" width="109" height="109" viewBox="0 0 109 109"><g xmlns:kvg="http://kanjivg.tagaini.net" id="kvg:StrokePaths_06c3a" style="fill:none;stroke:#000000;stroke-width:3;stroke-linecap:round;stroke-linejoin:round;"><g id="kvg:06c3a" kvg:element="&#27706;" kvg:variant="true" kvg:original="&#27700;" kvg:radical="tradit"><path id="kvg:06c3a-s1" kvg:type="&#12762;" d="M52.02,6.08c1.33,1.33,1.51,2.67,1.51,4.77c0,18.15-0.01,78.66-0.01,83.62c0,10.53-7.21,1.5-8.71,0.25"/><path id="kvg:06c3a-s2" kvg:type="&#12756;" d="M17.25,26.38c5.65,2.58,14.59,10.61,16,14.62"/><path id="kvg:06c3a-s3" kvg:type="&#12736;" d="M10.5,75.35c1.75,1.15,3.5,0.85,5.41-0.6c1.13-0.85,13.44-11.42,18.21-15.51"/><path id="kvg:06c3a-s4" kvg:type="&#12754;" d="M87.75,23c-0.37,1.38-0.76,2.34-1.64,3.32c-3.86,4.3-10.44,9.61-20.8,15.9"/><path id="kvg:06c3a-s5" kvg:type="&#12751;" d="M66.38,56.75C77.5,62,92.12,73.38,95.88,80.38"/></g></g></svg>