<svg xmlns="http://www.w3.org/2000/svg" width="109" height="109" viewBox="0 0 109 109"><g xmlns:kvg="http://kanjivg.tagaini.net" id="kvg:StrokePaths_06c40" style="fill:none;stroke:#000000;stroke-width:3;stroke-linecap:round;stroke-linejoin:round;"><g id="kvg:06c40" kvg:element="&#27712;"><g id="kvg:06c40-g1" kvg:element="&#27701;" kvg:variant="true" kvg:original="&#27700;" kvg:position="left" kvg:radical="general"><path id="kvg:06c40-s1" kvg:type="&#12756;" d="M21.88,13.88c3.84,1.71,9.91,7.05,10.88,9.72"/><path id="kvg:06c40-s2" kvg:type="&#12756;" d="M14.25,42c4.24,1.54,10.94,6.35,12,8.75"/><path id="kvg:06c40-s3" kvg:type="&#12736;" d="M18,88.71c1.75,0.67,3.26,0.11,4.26-1.5c2.92-4.7,6.71-13.45,9.37-19.45"/></g><g id="kvg:06c40-g2" kvg:element="&#19969;" kvg:position="right"><g id="kvg:06c40-g3" kvg:element="&#19968;"><path id="kvg:06c40-s4" kvg:type="&#12752;" d="M39.5,20.42c3.5,0.95,7.05,0.43,10.25,0.11c11.96-1.21,23.74-2.38,37.75-3.08c3.15-0.16,6.16-0.37,9.25,0.36"/></g><g id="kvg:06c40-g4" kvg:element="&#20101;"><path id="kvg:06c40-s5" kvg:type="&#12762;" d="M68.52,21.83c1.14,1.14,1.5,2.54,1.5,5.06c0,14.67,0,55.11,0,60.3c0,11.31-7.46,1.26-8.96,0"/></g></g></g></g></svg>