<svg xmlns="http://www.w3.org/2000/svg" width="109" height="109" viewBox="0 0 109 109"><g xmlns:kvg="http://kanjivg.tagaini.net" id="kvg:StrokePaths_06c4e" style="fill:none;stroke:#000000;stroke-width:3;stroke-linecap:round;stroke-linejoin:round;"><g id="kvg:06c4e" kvg:element="&#27726;"><g id="kvg:06c4e-g1" kvg:element="&#27701;" kvg:variant="true" kvg:original="&#27700;" kvg:position="left" kvg:radical="general"><path id="kvg:06c4e-s1" kvg:type="&#12756;" d="M20.13,18.25c4.45,1.47,11.5,6.05,12.62,8.34"/><path id="kvg:06c4e-s2" kvg:type="&#12756;" d="M16,41.75c4.06,1.37,10.48,5.62,11.5,7.75"/><path id="kvg:06c4e-s3" kvg:type="&#12736;" d="M16.75,88.68c2.25,0.82,4.21-0.1,5.27-1.76c3.09-4.84,5.67-9.25,8.48-15.42"/></g><g id="kvg:06c4e-g2" kvg:element="&#20961;" kvg:position="right"><g id="kvg:06c4e-g3" kvg:element="&#20960;"><g id="kvg:06c4e-g4" kvg:element="&#20031;"><path id="kvg:06c4e-s4" kvg:type="&#12754;" d="M51.87,19.89c0.54,2.02,1.3,3.61,1.3,6.13c0,23.06,0.73,54.26-16.42,69.23"/></g><path id="kvg:06c4e-s5" kvg:type="&#12744;b" d="M52.96,22.32c2.86-0.72,17.56-3.61,19.85-4.33c2.29-0.72,4.77,0.72,4.2,4.35c-0.57,3.62-0.85,52.84-0.91,55.49c-0.19,8.69-1.18,14.55,10.23,14.73s10.45-2.9,10.45-10.39"/></g><g id="kvg:06c4e-g5" kvg:element="&#20022;"><path id="kvg:06c4e-s6" kvg:type="&#12756;" d="M59.45,45.26c5.06,4.09,7.95,8.44,9.52,12.28"/></g></g></g></g></svg>