<svg xmlns="http://www.w3.org/2000/svg" width="109" height="109" viewBox="0 0 109 109"><g xmlns:kvg="http://kanjivg.tagaini.net" id="kvg:StrokePaths_06c50" style="fill:none;stroke:#000000;stroke-width:3;stroke-linecap:round;stroke-linejoin:round;"><g id="kvg:06c50" kvg:element="&#27728;"><g id="kvg:06c50-g1" kvg:element="&#27701;" kvg:variant="true" kvg:original="&#27700;" kvg:position="left" kvg:radical="general"><path id="kvg:06c50-s1" kvg:type="&#12756;" d="M21.38,16.5c4.45,1.69,11.5,6.96,12.62,9.59"/><path id="kvg:06c50-s2" kvg:type="&#12756;" d="M14.88,40.25c4.37,1.37,11.28,5.62,12.38,7.75"/><path id="kvg:06c50-s3" kvg:type="&#12736;" d="M15.62,86.61c2.12,0.77,3.37-0.17,4.48-1.75c3.23-4.6,6.46-10.23,9.39-16.1"/></g><g id="kvg:06c50-g2" kvg:element="&#22805;" kvg:position="right"><path id="kvg:06c50-s4" kvg:type="&#12754;" d="M65.24,18.39c0.26,0.71,0.01,2.13-0.49,3.49C61.5,30.75,53,46.25,39.31,59.47"/><path id="kvg:06c50-s5" kvg:type="&#12743;" d="M65.75,28.5c1.62,0.75,3,0.75,4.78,0.58c4.39-0.43,10.84-1.33,19.31-3.58c4.3-1.14,5.75,1.43,4.41,4.53c-8.5,19.6-27.13,49.6-61.25,64.22"/><path id="kvg:06c50-s6" kvg:type="&#12756;" d="M53.52,48.33c6.23,3.29,13.23,9.42,16.29,14.63"/></g></g></g></svg>