<svg xmlns="http://www.w3.org/2000/svg" width="109" height="109" viewBox="0 0 109 109"><g xmlns:kvg="http://kanjivg.tagaini.net" id="kvg:StrokePaths_06c5f" style="fill:none;stroke:#000000;stroke-width:3;stroke-linecap:round;stroke-linejoin:round;"><g id="kvg:06c5f" kvg:element="&#27743;"><g id="kvg:06c5f-g1" kvg:element="&#27701;" kvg:variant="true" kvg:original="&#27700;" kvg:position="left" kvg:radical="general"><path id="kvg:06c5f-s1" kvg:type="&#12756;" d="M21.76,19.88c4.94,1.71,12.75,7.05,13.99,9.72"/><path id="kvg:06c5f-s2" kvg:type="&#12756;" d="M15.75,41.75c4.59,1.59,11.85,6.53,13,9"/><path id="kvg:06c5f-s3" kvg:type="&#12736;" d="M14.02,88.62c1.39,0.58,2.83,0.38,3.67-0.81C20.71,83.5,27,72.99,29.75,67.5"/></g><g id="kvg:06c5f-g2" kvg:element="&#24037;" kvg:position="right" kvg:phon="&#24037;"><path id="kvg:06c5f-s4" kvg:type="&#12752;" d="M44.26,36.06c2.74,0.56,5.66,0.47,7.69,0.18c6.86-0.97,20.58-3.25,27.54-4c1.9-0.21,4.38-0.12,6.14,0.21"/><path id="kvg:06c5f-s5" kvg:type="&#12753;a" d="M64.1,37.12c1.08,1.08,1.32,2.51,1.32,5.23c0,10.16-0.05,28.59-0.05,37.03"/><path id="kvg:06c5f-s6" kvg:type="&#12752;" d="M34.77,82.59c2.61,1.03,6.42,0.82,9.11,0.46c13.62-1.81,28.24-3.43,42.99-4.45c2.59-0.18,6.16-0.01,8.6,1.1"/></g></g></g></svg>