<svg xmlns="http://www.w3.org/2000/svg" width="109" height="109" viewBox="0 0 109 109"><g xmlns:kvg="http://kanjivg.tagaini.net" id="kvg:StrokePaths_06c6a" style="fill:none;stroke:#000000;stroke-width:3;stroke-linecap:round;stroke-linejoin:round;"><g id="kvg:06c6a" kvg:element="&#27754;"><g id="kvg:06c6a-g1" kvg:element="&#27701;" kvg:variant="true" kvg:original="&#27700;" kvg:position="left" kvg:radical="general"><path id="kvg:06c6a-s1" kvg:type="&#12756;" d="M18.63,17c4.28,1.6,11.05,6.6,12.12,9.09"/><path id="kvg:06c6a-s2" kvg:type="&#12756;" d="M13.5,42c4.24,1.59,10.94,6.53,12,9"/><path id="kvg:06c6a-s3" kvg:type="&#12736;" d="M12.75,89.23c1.71,1.27,3.78,1.32,4.86-0.25C20.75,84.42,28.39,68.83,31.25,63"/></g><g id="kvg:06c6a-g2" kvg:element="&#29579;" kvg:original="&#29577;" kvg:partial="true" kvg:position="right"><path id="kvg:06c6a-s4" kvg:type="&#12752;" d="M39.86,25.24c1.64,0.26,5.27,0.21,6.53,0.05c13.7-1.75,26.23-2.82,40.25-3.57c1.91-0.1,3.65,0.15,5.23,0.76"/><path id="kvg:06c6a-s5" kvg:type="&#12753;a" d="M62.61,25.86c1.74,2.33,1.74,3.73,1.74,5.6c0,13.06-0.02,35.21-0.02,56.14"/><path id="kvg:06c6a-s6" kvg:type="&#12752;" d="M43.64,55.87c0.79,0.52,3.42,0.31,4.23,0.23c8.46-0.91,23.48-2.23,33.41-3.15c0.99-0.09,3.17-0.21,4.65,0.24"/><path id="kvg:06c6a-s7" kvg:type="&#12752;" d="M33.59,89.46c1.66,0.33,4.58,0.55,7.21,0.47c12.46-0.37,33.69-3.18,53.99-3.19c2.08,0,4.57,0.38,5.61,0.73"/></g></g></g></svg>