<svg xmlns="http://www.w3.org/2000/svg" width="109" height="109" viewBox="0 0 109 109"><g xmlns:kvg="http://kanjivg.tagaini.net" id="kvg:StrokePaths_06c7e" style="fill:none;stroke:#000000;stroke-width:3;stroke-linecap:round;stroke-linejoin:round;"><g id="kvg:06c7e" kvg:element="&#27774;"><g id="kvg:06c7e-g1" kvg:element="&#27701;" kvg:variant="true" kvg:original="&#27700;" kvg:position="left" kvg:radical="general"><path id="kvg:06c7e-s1" kvg:type="&#12756;" d="M20.13,16.5c3.92,1.6,10.13,6.6,11.12,9.09"/><path id="kvg:06c7e-s2" kvg:type="&#12756;" d="M13.75,42c3.97,1.68,10.26,6.89,11.25,9.5"/><path id="kvg:06c7e-s3" kvg:type="&#12736;" d="M13.75,88.73c2,0.77,4.28,0.32,5.36-1.25c3.14-4.57,7.79-10.66,10.64-16.49"/></g><g id="kvg:06c7e-g2" kvg:element="&#20998;" kvg:position="right"><g id="kvg:06c7e-g3" kvg:element="&#20843;" kvg:position="top"><path id="kvg:06c7e-s4" kvg:type="&#12754;" d="M55.75,17.02c0.33,0.97-0.07,2.05-0.46,3.25c-3.2,9.89-9.9,20.78-18.94,28.98"/><path id="kvg:06c7e-s5" kvg:type="&#12751;" d="M67.09,12.5c3.49,0.5,18.4,25.21,25.32,30.83c2.68,2.17,3.64,3.34,6.24,4.04"/></g><g id="kvg:06c7e-g4" kvg:element="&#20992;" kvg:position="bottom"><path id="kvg:06c7e-s6" kvg:type="&#12742;" d="M45.23,51.57c1.16,0.51,3.1,0.82,4.12,0.78c8.89-0.34,25.41-1.84,29.98-2.37c2.97-0.34,4.33,1.03,4.13,3.44C82.75,62,78,81.5,72.09,89.91c-4.25,6.04-8.09-0.16-9.43-2.01"/><path id="kvg:06c7e-s7" kvg:type="&#12754;" d="M60.02,54.75c0.07,0.86,0.23,2.26-0.14,3.44C55.79,71.45,51.25,83,36.7,93.25"/></g></g></g></g></svg>