<svg xmlns="http://www.w3.org/2000/svg" width="109" height="109" viewBox="0 0 109 109"><g xmlns:kvg="http://kanjivg.tagaini.net" id="kvg:StrokePaths_06c72" style="fill:none;stroke:#000000;stroke-width:3;stroke-linecap:round;stroke-linejoin:round;"><g id="kvg:06c72" kvg:element="&#27762;"><g id="kvg:06c72-g1" kvg:element="&#27701;" kvg:variant="true" kvg:original="&#27700;" kvg:position="left" kvg:radical="general"><path id="kvg:06c72-s1" kvg:type="&#12756;" d="M20.63,17.25c4.45,1.47,11.5,6.05,12.62,8.34"/><path id="kvg:06c72-s2" kvg:type="&#12756;" d="M14,42.5c4.77,1.41,12.31,5.8,13.5,8"/><path id="kvg:06c72-s3" kvg:type="&#12736;" d="M16.75,87.21c1.5,1.31,3.31,1.36,4.25-0.25c2.75-4.7,5.5-10.45,8-16.45"/></g><g id="kvg:06c72-g2" kvg:element="&#21450;" kvg:variant="true" kvg:position="right"><g id="kvg:06c72-g3" kvg:element="&#20031;"><path id="kvg:06c72-s4" kvg:type="&#12754;" d="M54.27,25.93c1.23,1.18,1.33,3.67,1.06,5.7c-1.97,15.03-8.04,39.05-20.95,54.53"/></g><path id="kvg:06c72-s5" kvg:type="&#12743;" d="M44.75,23c2.5,1,3.67,1.14,6.25,0.75c5-0.75,20.75-4.75,24.75-6S81.69,17.72,81,21c-1,4.75-5,15.5-6.75,21.5"/><g id="kvg:06c72-g4" kvg:element="&#21448;" kvg:variant="true"><path id="kvg:06c72-s6" kvg:type="&#12743;" d="M56.25,45.25C64.75,44.25,80,42,84,41.5c2.73-0.34,3.67,1.23,3,3.5c-5.75,19.5-23.25,40.5-42.25,47.5"/><path id="kvg:06c72-s7" kvg:type="&#12751;" d="M53.75,51.25C61,57.81,83.29,84.32,90.59,89.01c2.34,1.5,3.84,2.7,5.91,3.24"/></g></g></g></g></svg>