<svg xmlns="http://www.w3.org/2000/svg" width="109" height="109" viewBox="0 0 109 109"><g xmlns:kvg="http://kanjivg.tagaini.net" id="kvg:StrokePaths_06c81" style="fill:none;stroke:#000000;stroke-width:3;stroke-linecap:round;stroke-linejoin:round;"><g id="kvg:06c81" kvg:element="&#27777;"><g id="kvg:06c81-g1" kvg:element="&#27701;" kvg:variant="true" kvg:original="&#27700;" kvg:position="left" kvg:radical="general"><path id="kvg:06c81-s1" kvg:type="&#12756;" d="M17.88,18.25c4.01,1.65,10.36,6.78,11.37,9.34"/><path id="kvg:06c81-s2" kvg:type="&#12756;" d="M12.5,42.75c4.24,1.63,10.94,6.71,12,9.25"/><path id="kvg:06c81-s3" kvg:type="&#12736;" d="M11.75,86.23c1.71,1.27,3.78,1.32,4.86-0.25c3.14-4.57,9.29-16.66,12.14-22.49"/></g><g id="kvg:06c81-g2" kvg:element="&#24515;" kvg:position="right"><path id="kvg:06c81-s4" kvg:type="&#12756;" d="M39.06,53.95c0.2,3.52-1.98,16.08-3.56,21.95"/><path id="kvg:06c81-s5" kvg:type="&#12767;b" d="M44.27,32.8c1.73,0.7,2.91,4.02,3.36,5.96C54,66.5,61.2,81.46,84.75,87c12.75,3,14.25,0.75,9-8.75"/><path id="kvg:06c81-s6" kvg:type="&#12756;a" d="M59.84,30.75c3.41,11.5,8.73,14.14,9.72,7.1"/><path id="kvg:06c81-s7" kvg:type="&#12756;" d="M84.65,35.95c4.82,3.13,8.43,5.97,12.35,15.64"/></g></g></g></svg>