<svg xmlns="http://www.w3.org/2000/svg" width="109" height="109" viewBox="0 0 109 109"><g xmlns:kvg="http://kanjivg.tagaini.net" id="kvg:StrokePaths_06c93" style="fill:none;stroke:#000000;stroke-width:3;stroke-linecap:round;stroke-linejoin:round;"><g id="kvg:06c93" kvg:element="&#27795;"><g id="kvg:06c93-g1" kvg:element="&#27700;" kvg:position="top" kvg:radical="general"><path id="kvg:06c93-s1" kvg:type="&#12762;" d="M53.52,12.33c1.01,1.01,1.26,2.67,1.26,4.52c0,15.65-0.01,32.91-0.01,37.87c0,9.78-5.52,2.03-7.02,0.78"/><path id="kvg:06c93-s2" kvg:type="&#12743;" d="M17.5,34.01c1.62,0.49,3.64,0.6,5.32,0.18c1.68-0.43,15.25-3.13,18.05-3.98c2.8-0.85,4.26,1.38,3.45,3.31c-3.74,8.96-15.28,19.83-25.64,24.73"/><path id="kvg:06c93-s3" kvg:type="&#12754;" d="M81.72,22.5c-0.05,1.06-0.43,1.95-1.16,2.65c-4.18,3.97-8.21,7.06-14.81,10.6"/><path id="kvg:06c93-s4" kvg:type="&#12751;" d="M56.75,32.38c8.57,6.48,15.39,12.57,24.44,18.35c3.57,2.39,7.34,4.4,11.31,6.03"/></g><g id="kvg:06c93-g2" kvg:element="&#26085;" kvg:position="bottom"><path id="kvg:06c93-s5" kvg:type="&#12753;" d="M32.99,68.73c0.79,1.07,1.11,2.24,1.25,3.51c0.44,3.97,1.27,12.11,1.92,18.38c0.37,3.61,0.68,6.61,0.82,7.84"/><path id="kvg:06c93-s6" kvg:type="&#12757;a" d="M34.86,70.17c15.39-1.67,26.88-2.78,37.3-3.88c4.39-0.46,4.75,1.22,4.3,4.57c-0.61,4.56-1.75,12.38-2.92,19.28c-0.43,2.56-0.87,5-1.29,7.1"/><path id="kvg:06c93-s7" kvg:type="&#12752;a" d="M36.46,82.86c4.55-0.51,33.48-2.51,37.24-2.72"/><path id="kvg:06c93-s8" kvg:type="&#12752;a" d="M37.95,96.79c11.55-1.17,19.92-1.88,33.8-2.79"/></g></g></g></svg>