<svg xmlns="http://www.w3.org/2000/svg" width="109" height="109" viewBox="0 0 109 109"><g xmlns:kvg="http://kanjivg.tagaini.net" id="kvg:StrokePaths_06c96" style="fill:none;stroke:#000000;stroke-width:3;stroke-linecap:round;stroke-linejoin:round;"><g id="kvg:06c96" kvg:element="&#27798;"><g id="kvg:06c96-g1" kvg:element="&#27701;" kvg:variant="true" kvg:original="&#27700;" kvg:position="left" kvg:radical="general"><path id="kvg:06c96-s1" kvg:type="&#12756;" d="M25.13,18.25c3.31,1.47,8.54,6.05,9.37,8.34"/><path id="kvg:06c96-s2" kvg:type="&#12756;" d="M16,37.5c3.88,1.54,10.03,6.35,11,8.75"/><path id="kvg:06c96-s3" kvg:type="&#12736;" d="M12.87,86.7c1.34,0.49,2.68,0.22,3.48-0.98c3.1-4.64,7.33-10.8,10.15-16.72"/></g><g id="kvg:06c96-g2" kvg:element="&#20013;" kvg:position="right" kvg:phon="&#20013;"><g id="kvg:06c96-g3" kvg:element="&#21475;"><path id="kvg:06c96-s4" kvg:type="&#12753;" d="M43.99,38.73c0.76,0.76,1.37,1.66,1.61,3.02c0.74,4.23,1.59,10.05,2.55,16.95c0.19,1.38,0.39,2.8,0.59,4.26"/><path id="kvg:06c96-s5" kvg:type="&#12757;b" d="M46.06,40.11c12.56-1.73,33.33-3.8,41.82-4.32c3.4-0.21,5.51,0.86,4.33,4.27c-1.84,5.32-2.71,8.07-5.72,15.75"/><path id="kvg:06c96-s6" kvg:type="&#12752;b" d="M49.55,59.37c9.41-0.78,23.38-1.38,35.21-2.05c1.3-0.07,2.58-0.14,3.83-0.2"/></g><g id="kvg:06c96-g4" kvg:element="&#20008;"><path id="kvg:06c96-s7" kvg:type="&#12753;" d="M66.17,14.75c0.85,0.85,1.32,2.38,1.32,4.07c0,3.25,0.04,53.36,0.03,71.05c0,3.69,0,5.97-0.01,6.12"/></g></g></g></g></svg>