<svg xmlns="http://www.w3.org/2000/svg" width="109" height="109" viewBox="0 0 109 109"><g xmlns:kvg="http://kanjivg.tagaini.net" id="kvg:StrokePaths_06cbb" style="fill:none;stroke:#000000;stroke-width:3;stroke-linecap:round;stroke-linejoin:round;"><g id="kvg:06cbb" kvg:element="&#27835;"><g id="kvg:06cbb-g1" kvg:element="&#27701;" kvg:variant="true" kvg:original="&#27700;" kvg:position="left" kvg:radical="general"><path id="kvg:06cbb-s1" kvg:type="&#12756;" d="M26.75,18.75c4.24,1.38,10.94,5.69,12,7.84"/><path id="kvg:06cbb-s2" kvg:type="&#12756;" d="M18.25,43.75c4.68,1.23,12.08,5.08,13.25,7"/><path id="kvg:06cbb-s3" kvg:type="&#12736;" d="M19.38,90.75c1.02,0.15,2.25-0.24,2.87-1.29c3.01-5.1,6.02-11.33,8.75-17.83"/></g><g id="kvg:06cbb-g2" kvg:element="&#21488;" kvg:position="right" kvg:phon="&#21488;"><g id="kvg:06cbb-g3" kvg:element="&#21430;" kvg:position="top"><path id="kvg:06cbb-s4" kvg:type="&#12764;" d="M65.09,18c0.66,1.5,0.21,3.46-0.81,5.13c-6.79,11.12-11.6,18.14-18.08,27.1c-2.56,3.53-2.41,4.05,1.11,3.26c8.94-1.99,26.87-6.81,39.1-9.85"/><path id="kvg:06cbb-s5" kvg:type="&#12756;" d="M79.75,34.62c4.39,3.22,11.35,13.24,12.45,18.25"/></g><g id="kvg:06cbb-g4" kvg:element="&#21475;" kvg:position="bottom"><path id="kvg:06cbb-s6" kvg:type="&#12753;" d="M48.29,65.51c0.72,0.72,1.32,2,1.46,3.1c0.75,5.8,1.86,14.44,2.92,22.14c0.18,1.29,0.35,2.54,0.52,3.76"/><path id="kvg:06cbb-s7" kvg:type="&#12757;b" d="M50.33,67.38c12.17-1.9,22.94-3.24,31.93-4.14c3.38-0.33,5.56,1.28,4.73,4.79c-1.61,6.73-2.3,12.19-3.88,20.63"/><path id="kvg:06cbb-s8" kvg:type="&#12752;b" d="M54.86,92.17c8.6-0.63,15.41-1.48,26.76-2.18c1.25-0.08,2.55-0.15,3.92-0.23"/></g></g></g></g></svg>