<svg xmlns="http://www.w3.org/2000/svg" width="109" height="109" viewBox="0 0 109 109"><g xmlns:kvg="http://kanjivg.tagaini.net" id="kvg:StrokePaths_06cb9" style="fill:none;stroke:#000000;stroke-width:3;stroke-linecap:round;stroke-linejoin:round;"><g id="kvg:06cb9" kvg:element="&#27833;"><g id="kvg:06cb9-g1" kvg:element="&#27701;" kvg:variant="true" kvg:original="&#27700;" kvg:position="left" kvg:radical="general"><path id="kvg:06cb9-s1" kvg:type="&#12756;" d="M22.38,15.75c3.31,1.47,8.54,6.05,9.37,8.34"/><path id="kvg:06cb9-s2" kvg:type="&#12756;" d="M14.75,37c3.62,1.41,9.34,5.8,10.25,8"/><path id="kvg:06cb9-s3" kvg:type="&#12736;" d="M13.25,89c1.52,0.25,2.96-0.26,3.88-1.65c4.34-6.6,8.68-14.67,12.62-23.09"/></g><g id="kvg:06cb9-g2" kvg:element="&#30001;" kvg:position="right" kvg:phon="&#30001;"><g id="kvg:06cb9-g3" kvg:element="&#30000;" kvg:part="1" kvg:partial="true"><path id="kvg:06cb9-s4" kvg:type="&#12753;" d="M41.5,42.08c0.96,0.96,1.8,2.11,1.85,3.15c0.6,12.27,1.17,24.52,1.97,39.14c0.07,1.34,0.15,2.71,0.22,4.09"/><path id="kvg:06cb9-s5" kvg:type="&#12757;a" d="M44.3,44.1c14.86-1.95,33-3.84,43.57-4.76c5.05-0.44,7.43,0.86,6.92,6.16c-0.78,8.1-2.56,24.34-4.42,35.89c-0.32,1.97-0.63,3.8-0.95,5.44"/></g><g id="kvg:06cb9-g4" kvg:element="&#20008;"><path id="kvg:06cb9-s6" kvg:type="&#12753;a" d="M65.56,16.61c1.23,1.23,1.84,2.91,1.84,4.35c0.03,14.16-0.06,58.13-0.06,61.83"/></g><g id="kvg:06cb9-g5" kvg:element="&#30000;" kvg:part="2" kvg:partial="true"><path id="kvg:06cb9-s7" kvg:type="&#12752;a" d="M45.42,63.12c9.08-0.99,35.96-3.24,46.81-3.53"/><path id="kvg:06cb9-s8" kvg:type="&#12752;a" d="M46.49,85.11c11.14-0.59,29.11-2.05,42.55-2.27"/></g></g></g></g></svg>