<svg xmlns="http://www.w3.org/2000/svg" width="109" height="109" viewBox="0 0 109 109"><g xmlns:kvg="http://kanjivg.tagaini.net" id="kvg:StrokePaths_06cb3" style="fill:none;stroke:#000000;stroke-width:3;stroke-linecap:round;stroke-linejoin:round;"><g id="kvg:06cb3" kvg:element="&#27827;"><g id="kvg:06cb3-g1" kvg:element="&#27701;" kvg:variant="true" kvg:original="&#27700;" kvg:position="left" kvg:radical="general"><path id="kvg:06cb3-s1" kvg:type="&#12756;" d="M21.88,17.38c4.04,1.59,9.86,5.99,10.88,8.47"/><path id="kvg:06cb3-s2" kvg:type="&#12756;" d="M16.62,40c4.1,1.19,10.6,4.9,11.62,6.75"/><path id="kvg:06cb3-s3" kvg:type="&#12736;" d="M15.44,85.78c1.31,0.55,2.65,0.3,3.43-0.96c2.97-4.74,5.93-10.53,8.63-16.57"/></g><g id="kvg:06cb3-g2" kvg:element="&#21487;" kvg:position="right" kvg:phon="&#21487;"><g id="kvg:06cb3-g3" kvg:element="&#19969;" kvg:part="1"><g id="kvg:06cb3-g4" kvg:element="&#19968;"><path id="kvg:06cb3-s4" kvg:type="&#12752;" d="M41.22,23.13c2.78,0.62,6.17,0.35,8.78,0.04c9.61-1.15,28.85-3.66,39-4.6c2.6-0.24,4.98-0.43,7.53,0.22"/></g></g><g id="kvg:06cb3-g5" kvg:element="&#21475;"><path id="kvg:06cb3-s5" kvg:type="&#12753;" d="M43.08,43.57c0.8,0.8,1.4,1.87,1.48,2.92c0.8,3.45,1.65,9.58,2.32,14.89c0.23,1.78,0.43,3.46,0.61,4.92"/><path id="kvg:06cb3-s6" kvg:type="&#12757;b" d="M45.4,45.55c6.98-1.34,14.04-2.86,18.23-3.5c2.6-0.4,4.12,1.07,3.78,3.33c-0.6,4.04-1.04,6.74-2.22,13.1"/><path id="kvg:06cb3-s7" kvg:type="&#12752;b" d="M48.39,61.83c3.73-0.44,9.92-1.47,15.49-2.29c1.29-0.19,2.55-0.37,3.74-0.53"/></g><g id="kvg:06cb3-g6" kvg:element="&#19969;" kvg:part="2"><g id="kvg:06cb3-g7" kvg:element="&#20101;"><path id="kvg:06cb3-s8" kvg:type="&#12762;" d="M82.66,22.34c1.19,1.19,1.89,2.79,1.89,4.68c0,13.68,0.05,55.82,0.05,60.48c0,9-8.21,0.91-9.39-0.27"/></g></g></g></g></g></svg>