<svg xmlns="http://www.w3.org/2000/svg" width="109" height="109" viewBox="0 0 109 109"><g xmlns:kvg="http://kanjivg.tagaini.net" id="kvg:StrokePaths_06cbf" style="fill:none;stroke:#000000;stroke-width:3;stroke-linecap:round;stroke-linejoin:round;"><g id="kvg:06cbf" kvg:element="&#27839;"><g id="kvg:06cbf-g1" kvg:element="&#27701;" kvg:variant="true" kvg:original="&#27700;" kvg:position="left" kvg:radical="general"><path id="kvg:06cbf-s1" kvg:type="&#12756;" d="M21.13,17.75c3.48,1.38,8.99,5.69,9.87,7.84"/><path id="kvg:06cbf-s2" kvg:type="&#12756;" d="M15.75,41.25c3.71,1.23,9.57,5.08,10.5,7"/><path id="kvg:06cbf-s3" kvg:type="&#12736;" d="M15.5,88.01c1.5,0.4,3.27-0.45,4.04-1.91c2.91-5.53,5.81-12.29,8.46-19.34"/></g><g id="kvg:06cbf-g2" kvg:element="&#13667;" kvg:position="right" kvg:phon="&#13667;"><g id="kvg:06cbf-g3" kvg:element="&#20843;"><g id="kvg:06cbf-g4" kvg:position="left"><path id="kvg:06cbf-s4" kvg:type="&#12754;" d="M54.14,22.15c0.25,0.87,0.24,2.15-0.1,3.18c-2.29,7.04-6.92,17.92-14.76,25.92"/></g><g id="kvg:06cbf-g5" kvg:position="right"><path id="kvg:06cbf-s5" kvg:type="&#12751;" d="M66.5,16.25C71.2,16.69,80.3,35.06,86.96,43.2c2.22,2.72,4.29,4.67,6.51,6.6"/></g></g><g id="kvg:06cbf-g6" kvg:element="&#21475;"><path id="kvg:06cbf-s6" kvg:type="&#12753;" d="M45.75,60.85c0.76,0.76,1.1,1.77,1.26,2.7c1.12,6.82,1.92,13.75,2.78,22.19c0.19,1.9,0.38,3.67,0.56,5.21"/><path id="kvg:06cbf-s7" kvg:type="&#12757;b" d="M47.8,62.46c11.95-1.58,25.08-2.58,33.7-3.2c3.53-0.25,5,1.49,4.35,4.12c-1.68,6.75-2.85,13.13-4.54,21.4"/><path id="kvg:06cbf-s8" kvg:type="&#12752;b" d="M51.24,88.13c6.83-0.32,16.38-1.13,26.77-1.77c1.62-0.1,3.44-0.25,4.93-0.36"/></g></g></g></g></svg>