<svg xmlns="http://www.w3.org/2000/svg" width="109" height="109" viewBox="0 0 109 109"><g xmlns:kvg="http://kanjivg.tagaini.net" id="kvg:StrokePaths_06ccc" style="fill:none;stroke:#000000;stroke-width:3;stroke-linecap:round;stroke-linejoin:round;"><g id="kvg:06ccc" kvg:element="&#27852;"><g id="kvg:06ccc-g1" kvg:element="&#27701;" kvg:variant="true" kvg:original="&#27700;" kvg:position="left" kvg:radical="general"><path id="kvg:06ccc-s1" kvg:type="&#12756;" d="M22,16.88c4.5,1.45,11.62,5.96,12.75,8.22"/><path id="kvg:06ccc-s2" kvg:type="&#12756;" d="M16.25,37.25c4.5,1.41,11.62,5.8,12.75,8"/><path id="kvg:06ccc-s3" kvg:type="&#12736;" d="M13.88,86.52c1.67,0.8,2.95,0.19,3.95-1.12c3.37-4.37,6.73-9.7,9.8-15.27"/></g><g id="kvg:06ccc-g2" kvg:element="&#24517;" kvg:position="right" kvg:phon="&#24517;"><g id="kvg:06ccc-g3" kvg:element="&#24515;" kvg:part="1" kvg:variant="true"><path id="kvg:06ccc-s4" kvg:type="&#12756;" d="M54.36,24.5c2.89,6.5,6.64,9.75,7.58,3.97"/><g id="kvg:06ccc-g4" kvg:element="&#20031;"><path id="kvg:06ccc-s5" kvg:type="&#12754;" d="M77.65,22.93C78,24,78.3,24.76,77.91,27.19c-2.79,17.31-14.66,55.06-41.7,68.53"/></g><g id="kvg:06ccc-g5" kvg:element="&#24515;" kvg:part="2" kvg:variant="true"><path id="kvg:06ccc-s6" kvg:type="&#12767;b" d="M51.37,38.97C56.25,69.5,62.62,84.12,83.5,90.25c10.25,3.01,11.25,0.75,4.46-8.63"/><path id="kvg:06ccc-s7" kvg:type="&#12756;" d="M45.76,57.32c0.33,2.47-3.33,13.36-5.99,17.48"/><path id="kvg:06ccc-s8" kvg:type="&#12756;" d="M85.56,48.92c3.49,3.06,7.63,9.33,8.94,15.3"/></g></g></g></g></g></svg>