<svg xmlns="http://www.w3.org/2000/svg" width="109" height="109" viewBox="0 0 109 109"><g xmlns:kvg="http://kanjivg.tagaini.net" id="kvg:StrokePaths_06cc4" style="fill:none;stroke:#000000;stroke-width:3;stroke-linecap:round;stroke-linejoin:round;"><g id="kvg:06cc4" kvg:element="&#27844;"><g id="kvg:06cc4-g1" kvg:element="&#27701;" kvg:variant="true" kvg:original="&#27700;" kvg:position="left" kvg:radical="general"><path id="kvg:06cc4-s1" kvg:type="&#12756;" d="M17.13,15.5c4.45,1.78,11.5,7.32,12.62,10.09"/><path id="kvg:06cc4-s2" kvg:type="&#12756;" d="M12.75,41.75c4.5,1.9,11.62,7.8,12.75,10.75"/><path id="kvg:06cc4-s3" kvg:type="&#12736;" d="M15.25,90.73c1.71,1.27,3.97,1.44,4.86-0.25C23.5,84,27.39,75.33,30.25,69.5"/></g><g id="kvg:06cc4-g2" kvg:element="&#19990;" kvg:position="right"><g id="kvg:06cc4-g3" kvg:element="&#24319;"><g id="kvg:06cc4-g4" kvg:element="&#21313;"><g id="kvg:06cc4-g5" kvg:element="&#19968;"><path id="kvg:06cc4-s4" kvg:type="&#12752;" d="M31.25,42.2c1.68,0.54,4.75,0.61,6.43,0.54c12.9-0.49,35.26-3.49,56.45-3.73c2.79-0.03,4.19,0.2,5.87,0.53"/></g><path id="kvg:06cc4-s5" kvg:type="&#12753;" d="M61.87,15.75c1.09,0.5,1.74,2.25,1.96,3.25c0.22,1,0.5,46.25,0.28,52.5"/></g><path id="kvg:06cc4-s6" kvg:type="&#12753;" d="M80.37,15.25c1.09,0.5,1.74,2.25,1.96,3.25c0.22,1,0.17,37.5-0.72,49.5"/><path id="kvg:06cc4-s7" kvg:type="&#12752;" d="M64.25,69.5c4,0,17.25-1,19.5-1"/></g><path id="kvg:06cc4-s8" kvg:type="&#12759;" d="M45.62,20.25c1.09,0.5,1.74,2.25,1.96,3.25c0.22,1-0.33,47.25-1.08,61.75c-0.23,4.36,1.07,4.43,3.75,4.25c11-0.75,30.25-3.25,40.75-3.75c3.26-0.16,6,1,7.25,1.25"/></g></g></g></svg>