<svg xmlns="http://www.w3.org/2000/svg" width="109" height="109" viewBox="0 0 109 109"><g xmlns:kvg="http://kanjivg.tagaini.net" id="kvg:StrokePaths_06cd7" style="fill:none;stroke:#000000;stroke-width:3;stroke-linecap:round;stroke-linejoin:round;"><g id="kvg:06cd7" kvg:element="&#27863;"><g id="kvg:06cd7-g1" kvg:element="&#27701;" kvg:variant="true" kvg:original="&#27700;" kvg:position="left" kvg:radical="general"><path id="kvg:06cd7-s1" kvg:type="&#12756;" d="M17.63,17.5c4.45,1.78,11.5,7.32,12.62,10.09"/><path id="kvg:06cd7-s2" kvg:type="&#12756;" d="M14,40.75c4.59,1.9,11.85,7.8,13,10.75"/><path id="kvg:06cd7-s3" kvg:type="&#12736;" d="M13.25,86.64c2.02,1.4,4.45,1.46,5.72-0.27c3.7-5.04,7.41-11.19,10.78-17.62"/></g><g id="kvg:06cd7-g2" kvg:position="right"><g id="kvg:06cd7-g3" kvg:element="&#22235;"><g id="kvg:06cd7-g4" kvg:element="&#22231;" kvg:part="1"><path id="kvg:06cd7-s4" kvg:type="&#12753;" d="M39,21.36c0.48,1.3,1.39,3.64,1.48,5.35c0.66,12.39,0.95,42.08,1.88,65.54"/><path id="kvg:06cd7-s5" kvg:type="&#12757;a" d="M40.26,23.92c12.49-1.17,40.72-3.28,49.14-3.68c3.48-0.16,4.69,3.68,4.33,7.49c-1.23,13.4-3.56,40.54-5.35,62.27"/></g><g id="kvg:06cd7-g5" kvg:element="&#20799;" kvg:original="&#20843;"><g id="kvg:06cd7-g6" kvg:element="&#20031;"><path id="kvg:06cd7-s6" kvg:type="&#12754;" d="M56.17,23.65c0.33,0.85,0.91,1.87,0.9,3.53C57,41.5,57.25,57.75,47.43,69.19"/></g><path id="kvg:06cd7-s7" kvg:type="&#12767;" d="M70.66,24.71c0.58,1.46,1.03,3.19,1.07,5.45c0.12,7.95-0.06,20.59-0.06,31.56c0,4.03,1.09,5.27,7.34,5.27c4.25,0,4.5-0.24,6.38-1.81"/></g></g><g id="kvg:06cd7-g7" kvg:element="&#22231;" kvg:part="2"><path id="kvg:06cd7-s8" kvg:type="&#12752;a" d="M42.27,88.93c9.12,0,33.64-1.51,46.23-1.89"/></g></g></g></g></svg>