<svg xmlns="http://www.w3.org/2000/svg" width="109" height="109" viewBox="0 0 109 109"><g xmlns:kvg="http://kanjivg.tagaini.net" id="kvg:StrokePaths_06cd3" style="fill:none;stroke:#000000;stroke-width:3;stroke-linecap:round;stroke-linejoin:round;"><g id="kvg:06cd3" kvg:element="&#27859;"><g id="kvg:06cd3-g1" kvg:element="&#27701;" kvg:variant="true" kvg:original="&#27700;" kvg:position="left" kvg:radical="general"><path id="kvg:06cd3-s1" kvg:type="&#12756;" d="M17.38,16c3.84,1.43,9.91,5.87,10.87,8.09"/><path id="kvg:06cd3-s2" kvg:type="&#12756;" d="M14,43.25c3.88,1.54,10.03,6.35,11,8.75"/><path id="kvg:06cd3-s3" kvg:type="&#12736;" d="M12.25,88.23c1.71,1.27,3.78,1.32,4.86-0.25c3.14-4.57,6.29-10.16,9.14-15.99"/></g><g id="kvg:06cd3-g2" kvg:element="&#24344;" kvg:position="right"><g id="kvg:06cd3-g3" kvg:element="&#24339;" kvg:position="left"><path id="kvg:06cd3-s4" kvg:type="&#12757;c" d="M35.88,19.09c1.37,0.41,2.87,0.58,3.84,0.54c3.53-0.13,11.9-1.88,14.86-2.29c1.99-0.27,2.95,1.34,2.19,3.39c-0.56,1.51-1.74,6.84-2.52,10.71c-0.27,1.35-0.5,2.53-0.63,3.3"/><path id="kvg:06cd3-s5" kvg:type="&#12752;" d="M42,36.5c1.75,0,9.5-1,10.75-1s2.5-0.5,3.5-0.5"/><path id="kvg:06cd3-s6" kvg:type="&#12745;" d="M40.34,36.18c0.39,0.96,0.33,1.56,0.08,3.08c-0.29,1.74-5.02,14.27-5.28,15.18c-0.72,2.56-0.51,3.92,1.98,3.06c4.38-1.5,11.09-3.25,14.13-3.69c2.16-0.31,3.48,0.93,2.87,3.94c-2.37,11.75-4.87,24.5-10.09,32C40.4,94.97,38,91,36.34,88.08"/></g><g id="kvg:06cd3-g4" kvg:element="&#21430;" kvg:position="right"><path id="kvg:06cd3-s7" kvg:type="&#12764;" d="M76.82,19.75c0.52,1.19,0.97,2.78,0.52,4.29C71.5,43.75,64,64.25,57.29,80.12c-1.89,4.47-2.27,5.24,1.05,4.29c6.98-2,20.92-6.16,31.73-8.77"/><path id="kvg:06cd3-s8" kvg:type="&#12756;" d="M80.85,60.74c5.25,5.11,13.56,21.03,14.87,28.98"/></g></g></g></g></svg>