<svg xmlns="http://www.w3.org/2000/svg" width="109" height="109" viewBox="0 0 109 109"><g xmlns:kvg="http://kanjivg.tagaini.net" id="kvg:StrokePaths_06cd9" style="fill:none;stroke:#000000;stroke-width:3;stroke-linecap:round;stroke-linejoin:round;"><g id="kvg:06cd9" kvg:element="&#27865;"><g id="kvg:06cd9-g1" kvg:element="&#27701;" kvg:variant="true" kvg:original="&#27700;" kvg:position="left" kvg:radical="general"><path id="kvg:06cd9-s1" kvg:type="&#12756;" d="M17.63,16.75c4.45,1.47,11.5,6.05,12.62,8.34"/><path id="kvg:06cd9-s2" kvg:type="&#12756;" d="M14,43.25c4.24,1.63,10.94,6.71,12,9.25"/><path id="kvg:06cd9-s3" kvg:type="&#12736;" d="M14.25,89.23c1.71,1.27,3.78,1.32,4.86-0.25c3.14-4.57,6.29-10.16,9.14-15.99"/></g><g id="kvg:06cd9-g2" kvg:element="&#24179;" kvg:variant="true" kvg:position="right"><g id="kvg:06cd9-g3" kvg:element="&#24178;" kvg:part="1"><path id="kvg:06cd9-s4" kvg:type="&#12752;" d="M42.26,19.49c0.86,0.2,3.82,0.22,4.69,0.19c5.95-0.24,27.3-2.58,37.45-2.98c1.43-0.06,4.44,0.18,5.15,0.28"/></g><path id="kvg:06cd9-s5" kvg:type="&#12754;" d="M49.84,29.73c0.03,0.42,0.07,1.08-0.06,1.69C49,34.97,44.59,42.77,38.55,47.54"/><path id="kvg:06cd9-s6" kvg:type="&#12756;" d="M76.98,28.42c6.42,3.49,13.51,10.82,15.11,16.25"/><g id="kvg:06cd9-g4" kvg:element="&#24178;" kvg:part="2"><g id="kvg:06cd9-g5" kvg:element="&#21313;"><path id="kvg:06cd9-s7" kvg:type="&#12752;" d="M36.5,58.52c1.37,0.48,3.88,0.55,5.25,0.48c14.28-0.74,35.74-3.25,50.94-3.99c2.28-0.11,3.65,0.23,4.8,0.47"/><path id="kvg:06cd9-s8" kvg:type="&#12753;" d="M63.85,19.32c0.41,0.47,1.26,3.49,1.34,4.42c0.08,0.93-0.05,68.07-0.13,73.89"/></g></g></g></g></g></svg>