<svg xmlns="http://www.w3.org/2000/svg" width="109" height="109" viewBox="0 0 109 109"><g xmlns:kvg="http://kanjivg.tagaini.net" id="kvg:StrokePaths_06cd5" style="fill:none;stroke:#000000;stroke-width:3;stroke-linecap:round;stroke-linejoin:round;"><g id="kvg:06cd5" kvg:element="&#27861;"><g id="kvg:06cd5-g1" kvg:element="&#27701;" kvg:variant="true" kvg:original="&#27700;" kvg:position="left" kvg:radical="general"><path id="kvg:06cd5-s1" kvg:type="&#12756;" d="M21.62,18.38c4.28,1.45,10,5.12,12.12,8.22"/><path id="kvg:06cd5-s2" kvg:type="&#12756;" d="M16.12,41.5c4.28,1.28,9.5,4.25,12.12,7.25"/><path id="kvg:06cd5-s3" kvg:type="&#12736;" d="M14.62,92.12c1.1,0.26,2.42-0.08,3.07-1.16c2.92-4.77,6.64-12.13,9.3-18.22"/></g><g id="kvg:06cd5-g2" kvg:element="&#21435;" kvg:position="right"><g id="kvg:06cd5-g3" kvg:element="&#22303;" kvg:position="top"><path id="kvg:06cd5-s4" kvg:type="&#12752;" d="M45.25,33.73c1.39,0.38,3.95,0.72,5.34,0.63c9.28-0.6,24.28-1.98,33.87-2.81c2.31-0.2,4-0.07,5.16,0.12"/><path id="kvg:06cd5-s5" kvg:type="&#12753;a" d="M64.17,15.25c0.91,0.91,1.52,2.12,1.52,3.85c0,8.86,0.14,30.73,0.14,33.74"/><path id="kvg:06cd5-s6" kvg:type="&#12752;" d="M38.13,55.92c1.82,0.54,5.18,0.49,7,0.29c14.38-1.58,34.32-3.71,46.12-3.9c3.04-0.05,4.87,0.25,6.39,0.52"/></g><g id="kvg:06cd5-g4" kvg:element="&#21430;" kvg:position="bottom"><path id="kvg:06cd5-s7" kvg:type="&#12764;" d="M63.1,58.57c0.4,1.21,0.05,2.88-0.35,3.63c-5.5,10.3-9.5,15.3-17,25.79c-2.16,3.03-1.84,4.42,2.6,3.31c12.15-3.05,19.65-4.49,36.9-8.12"/><path id="kvg:06cd5-s8" kvg:type="&#12756;" d="M79.02,73.32c4.43,3.6,11.44,14.8,12.54,20.4"/></g></g></g></g></svg>