<svg xmlns="http://www.w3.org/2000/svg" width="109" height="109" viewBox="0 0 109 109"><g xmlns:kvg="http://kanjivg.tagaini.net" id="kvg:StrokePaths_06ce1" style="fill:none;stroke:#000000;stroke-width:3;stroke-linecap:round;stroke-linejoin:round;"><g id="kvg:06ce1" kvg:element="&#27873;"><g id="kvg:06ce1-g1" kvg:element="&#27701;" kvg:variant="true" kvg:original="&#27700;" kvg:position="left" kvg:radical="general"><path id="kvg:06ce1-s1" kvg:type="&#12756;" d="M21.62,15.38c4.37,1.49,11.28,6.14,12.38,8.47"/><path id="kvg:06ce1-s2" kvg:type="&#12756;" d="M15.75,38.5c4.24,1.63,10.94,6.71,12,9.25"/><path id="kvg:06ce1-s3" kvg:type="&#12736;" d="M14.5,94.48c1.62,0.52,3.11-0.12,4.11-1.75c3.14-5.11,5.79-9.91,8.64-15.74"/></g><g id="kvg:06ce1-g2" kvg:element="&#21253;" kvg:position="right" kvg:phon="&#21253;"><g id="kvg:06ce1-g3" kvg:element="&#21241;"><g id="kvg:06ce1-g4" kvg:element="&#20031;"><path id="kvg:06ce1-s4" kvg:type="&#12754;" d="M57.89,12.75c0.07,1.13,0.09,2.1-0.3,3.18c-2.71,7.44-8.44,19.09-16.11,28.52"/></g><path id="kvg:06ce1-s5" kvg:type="&#12742;" d="M54.73,29.23c2.52,0.77,5.24,0.45,7.39,0.13c6.38-0.96,19.9-3.43,25.37-4.21c4-0.57,5.96,0.93,5.72,5.1c-0.52,8.81-2.57,22.56-6.13,35.08c-1.59,5.62-3.33,6.76-7.58,2.24"/></g><g id="kvg:06ce1-g5" kvg:element="&#24049;"><path id="kvg:06ce1-s6" kvg:type="&#12757;c" d="M49.48,46.27c2.3,0.89,3.7,0.77,6.15,0.37c5.13-0.84,14.49-2.31,15.58-2.42c1.62-0.16,2.92,1.05,2.32,3.52c-0.52,2.14-2.02,9.01-3.6,15.5"/><path id="kvg:06ce1-s7" kvg:type="&#12752;" d="M48.08,65.14c0.94,0.24,2.3,0.91,3.92,0.87c5.5-0.13,11.14-0.96,16-1.54c2.06-0.25,3-0.35,4.38-0.05"/><path id="kvg:06ce1-s8" kvg:type="&#12767;" d="M48.99,66.53c0.93,0.93,1.1,1.93,1.09,3.65C50.05,75.69,50,81.7,50,85.5c0,10.45,1.25,11.19,22.82,11.19c20.93,0,22.21-1.81,22.21-13.09"/></g></g></g></g></svg>