<svg xmlns="http://www.w3.org/2000/svg" width="109" height="109" viewBox="0 0 109 109"><g xmlns:kvg="http://kanjivg.tagaini.net" id="kvg:StrokePaths_06cf0" style="fill:none;stroke:#000000;stroke-width:3;stroke-linecap:round;stroke-linejoin:round;"><g id="kvg:06cf0" kvg:element="&#27888;"><g id="kvg:06cf0-g1" kvg:position="top"><g id="kvg:06cf0-g2" kvg:element="&#19977;"><g id="kvg:06cf0-g3" kvg:element="&#19968;" kvg:position="top"><path id="kvg:06cf0-s1" kvg:type="&#12752;" d="M29.81,24.7c2.44,0.55,4.97,0.14,7.19-0.07c12.13-1.13,23.29-2.15,33.86-2.8c2.38-0.15,4.74-0.35,7.1,0.15"/></g><g id="kvg:06cf0-g4" kvg:position="bottom"><g id="kvg:06cf0-g5" kvg:element="&#19968;"><path id="kvg:06cf0-s2" kvg:type="&#12752;" d="M30.75,37.31c2.75,0.56,5.32,0.26,7.64,0.05c8.71-0.77,21.72-2.38,30.86-2.85c2.13-0.11,4.31-0.26,6.41,0.23"/></g><g id="kvg:06cf0-g6" kvg:element="&#22823;" kvg:part="1" kvg:phon="&#22823;1"><g id="kvg:06cf0-g7" kvg:element="&#19968;"><path id="kvg:06cf0-s3" kvg:type="&#12752;" d="M16.38,52.55c3.5,0.45,6.39,0.55,9.38,0.17c15.98-2.01,44.51-4.31,59.11-5.21c2.97-0.18,6.1-0.11,9.01,0.5"/></g></g></g></g><g id="kvg:06cf0-g8" kvg:element="&#22823;" kvg:part="2" kvg:phon="&#22823;2"><g id="kvg:06cf0-g9" kvg:element="&#20154;"><path id="kvg:06cf0-s4" kvg:type="&#12754;" d="M55,11.75c0.1,1.6-0.03,2.84-0.46,5.14C52.04,30.51,42.75,58,16,76.75"/><path id="kvg:06cf0-s5" kvg:type="&#12751;" d="M56.25,40.67c2.65,0.6,20.45,18.92,29.77,27.06c2.73,2.39,4.98,4.26,8.73,6.09"/></g></g></g><g id="kvg:06cf0-g10" kvg:element="&#27706;" kvg:variant="true" kvg:original="&#27700;" kvg:position="bottom" kvg:radical="general"><path id="kvg:06cf0-s6" kvg:type="&#12762;" d="M52.99,57.58c0.78,0.78,1.31,1.92,1.31,3.9c0,15.29,0.03,28.6,0.03,32.78c0,8.88-6.07,1.26-7.34,0.21"/><path id="kvg:06cf0-s7" kvg:type="&#12756;" d="M37.58,66.11c2.35,1.51,6.08,6.23,6.66,8.58"/><path id="kvg:06cf0-s8" kvg:type="&#12736;" d="M28.8,92c1.37,1.3,2.49,0.83,3.88-0.26c2.57-2,5.32-4,10.48-8.4"/><path id="kvg:06cf0-s9" kvg:type="&#12754;" d="M69.68,63.82c0.07,0.71-0.05,1.38-0.45,1.98c-1.73,2.58-3.11,4.45-7.49,8.45"/><path id="kvg:06cf0-s10" kvg:type="&#12756;/&#12751;" d="M63.78,81.32C68.5,83.5,75.5,88.5,79.02,93.63"/></g></g></g></svg>