<svg xmlns="http://www.w3.org/2000/svg" width="109" height="109" viewBox="0 0 109 109"><g xmlns:kvg="http://kanjivg.tagaini.net" id="kvg:StrokePaths_06cf3" style="fill:none;stroke:#000000;stroke-width:3;stroke-linecap:round;stroke-linejoin:round;"><g id="kvg:06cf3" kvg:element="&#27891;"><g id="kvg:06cf3-g1" kvg:element="&#27701;" kvg:variant="true" kvg:original="&#27700;" kvg:position="left" kvg:radical="general"><path id="kvg:06cf3-s1" kvg:type="&#12756;" d="M19.88,21.75c3.75,1.16,9.68,4.78,10.62,6.59"/><path id="kvg:06cf3-s2" kvg:type="&#12756;" d="M15.75,44.5c4.06,1.15,10.48,4.72,11.5,6.5"/><path id="kvg:06cf3-s3" kvg:type="&#12736;" d="M16,91.21c2,0.42,3.31-0.14,4.25-1.75c2.75-4.7,5-9.95,7.5-15.95"/></g><g id="kvg:06cf3-g2" kvg:element="&#27704;" kvg:position="right" kvg:phon="&#27704;"><g id="kvg:06cf3-g3" kvg:element="&#20022;"><path id="kvg:06cf3-s4" kvg:type="&#12756;" d="M54.25,13.5c4.83,2.47,8.69,5.86,10.14,9.25"/></g><g id="kvg:06cf3-g4" kvg:element="&#27700;" kvg:variant="true"><path id="kvg:06cf3-s5" kvg:type="&#12742;" d="M44.69,35.25c1.19,0.41,2.78,0.62,4.63,0.31c3.43-0.56,7.89-2.14,12.15-2.64c1.75-0.21,3.78,1.08,3.78,4.33c0,15.75-0.48,47.72-0.49,52.27c-0.01,7.98-6.01,1.98-8.47-0.08"/><path id="kvg:06cf3-s6" kvg:type="&#12743;" d="M34.25,57.21c1.27,0.23,2.7,0.21,4.03-0.05c4.6-0.91,9.14-2.1,11.25-3c2.12-0.91,3.94,0.73,3.18,2.72c-4.1,10.72-10.92,21.44-19.19,27.75"/><path id="kvg:06cf3-s7" kvg:type="&#12754;" d="M84.73,39.85c0.02,1.03-0.33,2.13-0.96,2.86c-3.64,4.2-10.51,9.32-16.16,11.43"/><path id="kvg:06cf3-s8" kvg:type="&#12751;" d="M66.75,54.62c5.68,7.75,14.79,17.92,21.77,23.62c2.11,1.72,3.59,3.26,6.61,4.13"/></g></g></g></g></svg>