<svg xmlns="http://www.w3.org/2000/svg" width="109" height="109" viewBox="0 0 109 109"><g xmlns:kvg="http://kanjivg.tagaini.net" id="kvg:StrokePaths_06d38" style="fill:none;stroke:#000000;stroke-width:3;stroke-linecap:round;stroke-linejoin:round;"><g id="kvg:06d38" kvg:element="&#27960;"><g id="kvg:06d38-g1" kvg:element="&#27701;" kvg:variant="true" kvg:original="&#27700;" kvg:position="left" kvg:radical="general"><path id="kvg:06d38-s1" kvg:type="&#12756;" d="M19.63,19.25c4.19,1.38,10.82,5.69,11.87,7.84"/><path id="kvg:06d38-s2" kvg:type="&#12756;" d="M13.5,44.75c4.32,1.5,11.17,6.17,12.25,8.5"/><path id="kvg:06d38-s3" kvg:type="&#12736;" d="M15,90.98c1.88,0.77,3.03,0.32,4.11-1.25c3.14-4.57,7.04-12.16,9.89-17.99"/></g><g id="kvg:06d38-g2" kvg:element="&#20809;" kvg:position="right"><g id="kvg:06d38-g3" kvg:element="&#11916;" kvg:variant="true" kvg:original="&#23567;" kvg:position="top"><path id="kvg:06d38-s4" kvg:type="&#12753;" d="M62.66,13.25c1.23,1.23,1.59,3,1.59,4.87c0,4.75,0,25.62,0,30"/><path id="kvg:06d38-s5" kvg:type="&#12756;" d="M41.94,27.83c3.71,2.58,9.58,10.62,10.51,14.63"/><path id="kvg:06d38-s6" kvg:type="&#12754;" d="M85.43,22c0.1,1.15-0.05,2.25-0.45,3.33c-2.35,4.92-4.85,9.75-9.23,15.64"/></g><g id="kvg:06d38-g4" kvg:element="&#20800;" kvg:position="bottom"><g id="kvg:06d38-g5" kvg:element="&#19968;"><path id="kvg:06d38-s7" kvg:type="&#12752;" d="M36.38,50.92c3.02,0.87,6.7,0.75,9.76,0.31c12.12-1.73,27.39-3.1,38.87-3.72c3.4-0.18,6.64-0.2,10,0.38"/></g><g id="kvg:06d38-g6" kvg:element="&#20799;" kvg:original="&#20843;"><g id="kvg:06d38-g7" kvg:element="&#20031;"><path id="kvg:06d38-s8" kvg:type="&#12754;" d="M56.35,54c0.4,1,0.39,2.34,0.15,3.62C54.47,68.5,47.71,85.5,38.01,92.25"/></g><path id="kvg:06d38-s9" kvg:type="&#12767;" d="M69.4,53.32c1.09,1.09,1.22,2.25,1.22,4.43c0,5.27,0.05,18.79,0.05,26.5c0,7.5,1.45,9.03,12.53,9.03c10.42,0,11.43-1.78,11.43-8.12"/></g></g></g></g></g></svg>