<svg xmlns="http://www.w3.org/2000/svg" width="109" height="109" viewBox="0 0 109 109"><g xmlns:kvg="http://kanjivg.tagaini.net" id="kvg:StrokePaths_06d36" style="fill:none;stroke:#000000;stroke-width:3;stroke-linecap:round;stroke-linejoin:round;"><g id="kvg:06d36" kvg:element="&#27958;"><g id="kvg:06d36-g1" kvg:element="&#27701;" kvg:variant="true" kvg:original="&#27700;" kvg:position="left" kvg:radical="general"><path id="kvg:06d36-s1" kvg:type="&#12756;" d="M18.38,13.5c4.37,2.13,11.27,8.77,12.37,12.09"/><path id="kvg:06d36-s2" kvg:type="&#12756;" d="M13.5,42c4.06,2.12,10.48,8.71,11.5,12"/><path id="kvg:06d36-s3" kvg:type="&#12736;" d="M14.25,87.73c1.71,1.27,3.78,1.32,4.86-0.25c3.14-4.57,9.29-16.66,12.14-22.49"/></g><g id="kvg:06d36-g2" kvg:element="&#21256;" kvg:position="right"><g id="kvg:06d36-g3" kvg:element="&#21241;" kvg:position="kamae"><g id="kvg:06d36-g4" kvg:element="&#20031;"><path id="kvg:06d36-s4" kvg:type="&#12754;" d="M52.83,12.75c0.05,0.79,0.27,2.09-0.1,3.16c-2.61,7.49-6.49,18.35-17.94,30.22"/></g><path id="kvg:06d36-s5" kvg:type="&#12742;" d="M49.85,28.53c1.18,0.72,2.78,0.68,4.71,0.48c4.94-0.51,29.56-3.59,34.28-3.83c4.71-0.24,5.2,2.37,4.95,7.49C93.5,38.5,91.25,74,84.09,93.84c-1.76,4.87-4.76,1.81-7.54-1.21"/></g><g id="kvg:06d36-g5" kvg:element="&#20982;"><g id="kvg:06d36-g6" kvg:element="&#20034;"><g id="kvg:06d36-g7" kvg:element="&#20031;"><path id="kvg:06d36-s6" kvg:type="&#12754;" d="M68.81,36.43c0.29,0.94,0.61,1.67,0.15,3.32C65.5,52,58.75,66,50.52,74.62"/></g><path id="kvg:06d36-s7" kvg:type="&#12756;/&#12751;" d="M53.33,49.25c6.3,5.04,12.98,13.77,16.58,23.69"/></g><g id="kvg:06d36-g8" kvg:element="&#20981;" kvg:position="kamae"><path id="kvg:06d36-s8" kvg:type="&#12740;a" d="M45.18,49.4c0.38,0.24,0.93,2.67,0.86,3.15c-0.93,6.14-2.28,19.7-3.27,27.76c-0.17,1.42,0.49,3.44,2.6,2.8c9.33-2.82,28.2-4.25,32.21-4.49"/><path id="kvg:06d36-s9" kvg:type="&#12753;" d="M78.29,45.34c0.43,0.24,1.35,1.83,1.43,2.32c0.09,0.49-0.6,21.05-2.22,34.73"/></g></g></g></g></g></svg>