<svg xmlns="http://www.w3.org/2000/svg" width="109" height="109" viewBox="0 0 109 109"><g xmlns:kvg="http://kanjivg.tagaini.net" id="kvg:StrokePaths_06d3d" style="fill:none;stroke:#000000;stroke-width:3;stroke-linecap:round;stroke-linejoin:round;"><g id="kvg:06d3d" kvg:element="&#27965;"><g id="kvg:06d3d-g1" kvg:element="&#27701;" kvg:variant="true" kvg:original="&#27700;" kvg:position="left" kvg:radical="general"><path id="kvg:06d3d-s1" kvg:type="&#12756;" d="M18.38,16.25c4.37,2,11.27,8.23,12.37,11.34"/><path id="kvg:06d3d-s2" kvg:type="&#12756;" d="M13.25,43.25C18.1,45.06,25.79,50.69,27,53.5"/><path id="kvg:06d3d-s3" kvg:type="&#12736;" d="M13.75,88.23c1.9,1.27,4.18,1.32,5.38-0.25c3.48-4.57,6.96-10.16,10.12-15.99"/></g><g id="kvg:06d3d-g2" kvg:element="&#21512;" kvg:position="right"><g id="kvg:06d3d-g3" kvg:position="top"><g id="kvg:06d3d-g4" kvg:element="&#20154;"><path id="kvg:06d3d-s4" kvg:type="&#12754;" d="M61.92,12c0.06,1.05-0.21,2.79-0.62,4.2C58.42,26,49.12,41.22,36.82,53.43"/><path id="kvg:06d3d-s5" kvg:type="&#12751;" d="M61.08,17.08c4.62,6.27,24.56,26.73,29.66,31.32c1.73,1.56,3.96,2.22,5.69,2.67"/></g><g id="kvg:06d3d-g5" kvg:element="&#19968;"><path id="kvg:06d3d-s6" kvg:type="&#12752;" d="M47.05,52.28c0.69,0.34,3.93,0.38,4.63,0.34c7.23-0.39,17.82-2.12,25.01-2.69c1.16-0.09,2.83,0.16,3.42,0.33"/></g></g><g id="kvg:06d3d-g6" kvg:element="&#21475;" kvg:position="bottom"><path id="kvg:06d3d-s7" kvg:type="&#12753;" d="M44.59,67.33c0.47,0.59,1.53,2.01,1.65,2.79c1.56,10.15,1.74,18.95,2.8,27.41"/><path id="kvg:06d3d-s8" kvg:type="&#12757;b" d="M45.81,68.96c13.32-1.66,27.54-2.1,34.19-2.9c2.43-0.29,3.89,1.74,3.54,3.46c-1.44,7.13-2.79,12.24-4.76,23.19"/><path id="kvg:06d3d-s9" kvg:type="&#12752;b" d="M49.25,94.81c7.5-0.56,22.32-1.11,31.72-1.75"/></g></g></g></g></svg>