<svg xmlns="http://www.w3.org/2000/svg" width="109" height="109" viewBox="0 0 109 109"><g xmlns:kvg="http://kanjivg.tagaini.net" id="kvg:StrokePaths_06d41" style="fill:none;stroke:#000000;stroke-width:3;stroke-linecap:round;stroke-linejoin:round;"><g id="kvg:06d41" kvg:element="&#27969;"><g id="kvg:06d41-g1" kvg:element="&#27701;" kvg:variant="true" kvg:original="&#27700;" kvg:position="left" kvg:radical="general"><path id="kvg:06d41-s1" kvg:type="&#12756;" d="M18.38,18.25c3.31,1.38,8.54,5.69,9.37,7.84"/><path id="kvg:06d41-s2" kvg:type="&#12756;" d="M12.12,39.25c3.57,1.59,9.23,6.53,10.12,9"/><path id="kvg:06d41-s3" kvg:type="&#12736;" d="M12.75,88.84c1.36,0.65,2.76,0.38,3.58-1.01c3.02-5.17,6.05-11.49,8.8-18.08"/></g><g id="kvg:06d41-g2" kvg:element="&#13356;" kvg:position="right"><g id="kvg:06d41-g3" kvg:position="top"><g id="kvg:06d41-g4" kvg:element="&#20128;"><path id="kvg:06d41-s4" kvg:type="&#12753;a" d="M58.75,12.75c0.88,0.88,1.3,2.38,1.3,3.37c0,3.06-0.1,4.38-0.1,7.05"/><path id="kvg:06d41-s5" kvg:type="&#12752;" d="M35.94,26.03c2.58,0.19,4.72,0.33,7.32,0.03c9.27-1.06,28.65-3.45,38.74-4.04c2.16-0.13,4.49-0.42,6.56,0.36"/></g><g id="kvg:06d41-g5" kvg:element="&#21430;"><path id="kvg:06d41-s6" kvg:type="&#12764;" d="M55.69,28.5c0.31,0.88,0.28,2.06-0.3,2.9c-2.76,3.98-5.88,8.35-10.63,14.1c-2.83,3.43-1.76,3.9,1.75,3c10.25-2.62,20.25-4.75,31.75-7.25"/><path id="kvg:06d41-s7" kvg:type="&#12756;" d="M70.16,32.1c4.52,2.76,11.67,11.33,12.8,15.62"/></g></g><g id="kvg:06d41-g6" kvg:element="&#24029;" kvg:variant="true" kvg:original="&#24027;" kvg:position="bottom"><path id="kvg:06d41-s8" kvg:type="&#12754;" d="M44.76,56.89c0.8,0.8,0.99,1.95,0.92,3.19c-0.93,16.29-3.56,25.54-13.87,32.89"/><path id="kvg:06d41-s9" kvg:type="&#12753;" d="M57.77,53.87c0.93,0.93,1.51,2.26,1.51,4.02c0,10.8,0,20.84-0.01,27.5c0,2.32,0,4.23,0,5.62"/><path id="kvg:06d41-s10" kvg:type="&#12767;" d="M72.85,50.62c1.02,1.02,1.62,2.63,1.62,4.18c0,8.19-0.03,18.14-0.03,23.7c0,10,0.81,11.53,9.67,11.53C94.62,90.03,96,88.75,96,81.4"/></g></g></g></g></svg>