<svg xmlns="http://www.w3.org/2000/svg" width="109" height="109" viewBox="0 0 109 109"><g xmlns:kvg="http://kanjivg.tagaini.net" id="kvg:StrokePaths_06d5a" style="fill:none;stroke:#000000;stroke-width:3;stroke-linecap:round;stroke-linejoin:round;"><g id="kvg:06d5a" kvg:element="&#27994;"><g id="kvg:06d5a-g1" kvg:element="&#27701;" kvg:variant="true" kvg:original="&#27700;" kvg:position="left" kvg:radical="general"><path id="kvg:06d5a-s1" kvg:type="&#12756;" d="M20.13,14.5c4.45,1.6,11.5,6.6,12.62,9.09"/><path id="kvg:06d5a-s2" kvg:type="&#12756;" d="M14.75,40.5C19.07,42,25.92,46.67,27,49"/><path id="kvg:06d5a-s3" kvg:type="&#12736;" d="M14.25,86.73c1.71,1.27,3.78,1.32,4.86-0.25c3.14-4.57,10.29-17.16,13.14-22.99"/></g><g id="kvg:06d5a-g2" kvg:position="right"><g id="kvg:06d5a-g3" kvg:element="&#20801;" kvg:position="top"><g id="kvg:06d5a-g4" kvg:element="&#21430;" kvg:position="top"><path id="kvg:06d5a-s4" kvg:type="&#12764;" d="M62.41,10.25c0.44,0.42,0.41,2.03,0.15,2.58c-3.24,6.83-9.05,11.42-15.74,18.07c-1.73,1.72-1.88,3.55,0.88,3.02c8.56-1.66,26.19-6.53,35.6-8.41"/><path id="kvg:06d5a-s5" kvg:type="&#12756;" d="M76.77,20.01c4.07,2.27,10.51,9.34,11.53,12.87"/></g><g id="kvg:06d5a-g5" kvg:element="&#20799;" kvg:position="bottom"><g id="kvg:06d5a-g6" kvg:element="&#20843;" kvg:variant="true"><g id="kvg:06d5a-g7" kvg:element="&#20031;" kvg:position="left"><path id="kvg:06d5a-s6" kvg:type="&#12754;" d="M55.31,35.86c0.03,0.43,0.16,1.15-0.07,1.73C53.67,41.5,49.13,49,42.95,54.17"/></g><g id="kvg:06d5a-g8" kvg:position="right"><path id="kvg:06d5a-s7" kvg:type="&#12767;" d="M69.98,32.3c0.38,0.5,0.68,1.1,0.71,1.87c0.1,3.46-0.27,6.82-0.27,9.18c0,5.5,4.57,4.87,9.07,4.87c4.75,0,7.7-0.67,8.54-2.04"/></g></g></g></g><g id="kvg:06d5a-g9" kvg:element="&#22786;" kvg:position="bottom"><path id="kvg:06d5a-s8" kvg:type="&#12754;" d="M56.59,52.25c0.05,0.6-0.18,2.14-0.52,2.94c-2.34,5.64-6.82,14.75-15.54,22.66"/><path id="kvg:06d5a-s9" kvg:type="&#12743;" d="M57.75,59.56c0.5,0.44,3.33,1,4.05,0.91c2.37-0.29,12.71-1.86,16.09-2.75c2.32-0.61,3.12,0.75,2.39,2.35C73.75,74.25,61.25,88,40.17,96"/><path id="kvg:06d5a-s10" kvg:type="&#12751;" d="M51.31,66.93c4.57,0.86,30.44,22.8,37.86,27.15c2.21,1.29,4,1.92,6.16,2.31"/></g></g></g></g></svg>