<svg xmlns="http://www.w3.org/2000/svg" width="109" height="109" viewBox="0 0 109 109"><g xmlns:kvg="http://kanjivg.tagaini.net" id="kvg:StrokePaths_06d5c" style="fill:none;stroke:#000000;stroke-width:3;stroke-linecap:round;stroke-linejoin:round;"><g id="kvg:06d5c" kvg:element="&#27996;"><g id="kvg:06d5c-g1" kvg:element="&#27701;" kvg:variant="true" kvg:original="&#27700;" kvg:position="left" kvg:radical="general"><path id="kvg:06d5c-s1" kvg:type="&#12756;" d="M22.62,16.38c3.75,1.58,9.69,6.5,10.62,8.97"/><path id="kvg:06d5c-s2" kvg:type="&#12756;" d="M16.25,38c3.79,1.5,9.8,6.17,10.75,8.5"/><path id="kvg:06d5c-s3" kvg:type="&#12736;" d="M14.75,87.46c1.62,0.79,2.85,0.34,3.82-1.1c3.41-5.03,6.83-11.18,9.93-17.6"/></g><g id="kvg:06d5c-g2" kvg:element="&#20853;" kvg:position="right" kvg:phon="&#36051;V"><g id="kvg:06d5c-g3" kvg:element="&#19992;" kvg:position="top"><g id="kvg:06d5c-g4" kvg:element="&#26020;"><path id="kvg:06d5c-s4" kvg:type="&#12754;" d="M66.88,15.75c0.07,0.89-0.11,1.72-0.55,2.48C62,25.62,58.46,30.91,49.84,38.95"/><path id="kvg:06d5c-s5" kvg:type="&#12753;a" d="M45.92,38.25c1.23,0.87,1.85,2.2,2.04,3.84c0.71,6.06,2.09,17.28,2.72,23.9"/><path id="kvg:06d5c-s6" kvg:type="&#12752;" d="M49.38,41.13c1.36-0.19,2.9-0.4,4.59-0.62c8.05-1.04,18.96-2.3,26.82-3.47c1.42-0.21,3.91-0.18,4.8,0"/><path id="kvg:06d5c-s7" kvg:type="&#12753;a" d="M75.17,40.81c0.4,1.18,0.36,2.44,0.11,3.8c-0.74,3.95-1.81,8.71-3.93,18.63"/></g><g id="kvg:06d5c-g5" kvg:element="&#19968;"><path id="kvg:06d5c-s8" kvg:type="&#12752;" d="M36.81,67.71c2.26,0.61,5.13,0.73,7.45,0.46C54.12,67,78,64.88,88.89,64.43c2.41-0.1,4.98,0.19,6.8,0.88"/></g></g><g id="kvg:06d5c-g6" kvg:element="&#20843;" kvg:position="bottom"><g id="kvg:06d5c-g7" kvg:position="left"><path id="kvg:06d5c-s9" kvg:type="&#12754;" d="M54.18,75.84c0.12,1.04-0.18,1.7-0.77,2.56c-3.66,5.35-9.04,11.1-19.38,17.15"/></g><g id="kvg:06d5c-g8" kvg:position="right"><path id="kvg:06d5c-s10" kvg:type="&#12756;/&#12751;" d="M70.44,74.43c6.34,3.51,16.37,14.42,17.96,19.88"/></g></g></g></g></g></svg>