<svg xmlns="http://www.w3.org/2000/svg" width="109" height="109" viewBox="0 0 109 109"><g xmlns:kvg="http://kanjivg.tagaini.net" id="kvg:StrokePaths_06d64" style="fill:none;stroke:#000000;stroke-width:3;stroke-linecap:round;stroke-linejoin:round;"><g id="kvg:06d64" kvg:element="&#28004;"><g id="kvg:06d64-g1" kvg:element="&#27701;" kvg:variant="true" kvg:original="&#27700;" kvg:position="left" kvg:radical="general"><path id="kvg:06d64-s1" kvg:type="&#12756;" d="M17.38,16.25c4.72,1.65,12.19,6.78,13.37,9.34"/><path id="kvg:06d64-s2" kvg:type="&#12756;" d="M14,41.75c4.24,1.63,10.94,6.71,12,9.25"/><path id="kvg:06d64-s3" kvg:type="&#12736;" d="M13.25,88.73c1.71,1.27,3.78,1.32,4.86-0.25c3.14-4.57,8.29-13.66,11.14-19.49"/></g><g id="kvg:06d64-g2" kvg:element="&#23439;" kvg:position="right"><g id="kvg:06d64-g3" kvg:element="&#23424;" kvg:position="top"><path id="kvg:06d64-s4" kvg:type="&#12753;a" d="M64.71,11.5c0.86,0.38,2.1,2.25,2.08,3.35c-0.06,3.46-0.06,7.35-0.07,10.5"/><g id="kvg:06d64-g4" kvg:element="&#20886;"><path id="kvg:06d64-s5" kvg:type="&#12756;" d="M43.95,24.87c0,3.31-2.51,12.42-3.66,14.63"/><path id="kvg:06d64-s6" kvg:type="&#12758;b" d="M43.74,27.85c6.29-0.88,41.1-3.55,46.21-3.88c7.98-0.52,1.69,6.4-0.3,8.29"/></g></g><g id="kvg:06d64-g5" kvg:position="bottom"><path id="kvg:06d64-s7" kvg:type="&#12752;" d="M37.63,53.77c1.52,0.34,4.31,0.5,5.83,0.34c13.3-1.37,33.55-2.87,48.41-3.6c2.53-0.13,4.05,0.16,5.32,0.34"/><path id="kvg:06d64-s8" kvg:type="&#12754;" d="M61.72,34.75c0.08,1.43,0.18,4.1-0.17,5.75c-3.8,18-8.55,39.75-30.05,55.04"/><g id="kvg:06d64-g6" kvg:element="&#21430;"><path id="kvg:06d64-s9" kvg:type="&#12764;" d="M69.36,63.63c0.4,0.64,0.25,2.29-0.07,3.06c-3.76,8.82-9.25,17.57-14.92,26.44c-1.59,2.49-1.23,2.83,1.3,2.31c5.32-1.08,23.08-4.18,31.98-6.27"/><path id="kvg:06d64-s10" kvg:type="&#12756;" d="M78.58,76.1c4.6,3.9,11.87,16.05,13.02,22.12"/></g></g></g></g></g></svg>