<svg xmlns="http://www.w3.org/2000/svg" width="109" height="109" viewBox="0 0 109 109"><g xmlns:kvg="http://kanjivg.tagaini.net" id="kvg:StrokePaths_06d69" style="fill:none;stroke:#000000;stroke-width:3;stroke-linecap:round;stroke-linejoin:round;"><g id="kvg:06d69" kvg:element="&#28009;"><g id="kvg:06d69-g1" kvg:element="&#27701;" kvg:variant="true" kvg:original="&#27700;" kvg:position="left" kvg:radical="general"><path id="kvg:06d69-s1" kvg:type="&#12756;" d="M22.38,16.75c4.37,1.6,10.77,6.85,11.87,9.34"/><path id="kvg:06d69-s2" kvg:type="&#12756;" d="M16,40.25c4.5,1.5,11.62,6.17,12.75,8.5"/><path id="kvg:06d69-s3" kvg:type="&#12736;" d="M16,87.48c2.12,0.89,3.28,0.07,4.36-1.5c3.14-4.57,5.54-9.91,8.39-15.74"/></g><g id="kvg:06d69-g2" kvg:element="&#21578;" kvg:position="right"><g id="kvg:06d69-g3" kvg:element="&#29275;" kvg:position="top"><path id="kvg:06d69-s4" kvg:type="&#12754;" d="M51.77,22.04c0.03,0.55,0.07,1.43-0.06,2.22c-0.77,4.69-5.2,14.97-11.26,21.26"/><path id="kvg:06d69-s5" kvg:type="&#12752;" d="M50.67,36.22c1.83,0.28,3.82,0.06,5.35-0.12c7.48-0.85,15.73-2.1,24.24-3.9c1.94-0.41,4.37-0.45,6.37-0.07"/><path id="kvg:06d69-s6" kvg:type="&#12753;a" d="M64.66,14.38c1.29,1.29,1.5,2.49,1.5,4.15c0,0.83,0.05,28.59,0.05,34.38"/><path id="kvg:06d69-s7" kvg:type="&#12752;" d="M38.78,55.62c2.76,1.14,6.64,0.47,9.48,0.11C58.75,54.41,73.99,53,87.5,52.35c3.01-0.14,6.01-0.19,8.97,0.54"/></g><g id="kvg:06d69-g4" kvg:element="&#21475;" kvg:position="bottom"><path id="kvg:06d69-s8" kvg:type="&#12753;" d="M46.54,68.24c0.67,0.67,1.08,1.88,1.29,3.24c0.73,4.82,1.66,12.12,2.42,18.14c0.23,1.82,0.45,3.54,0.64,5.09"/><path id="kvg:06d69-s9" kvg:type="&#12757;b" d="M48.25,69.55c10.95-1.21,24.23-2.59,32.86-3.28c3.29-0.26,4.96,1.1,4.29,4.49c-1.01,5.15-1.65,8.75-3.67,17.19"/><path id="kvg:06d69-s10" kvg:type="&#12752;b" d="M51.68,91.34c7.55-0.47,19.88-1.27,27.83-1.83c1.84-0.13,3.45-0.25,4.71-0.35"/></g></g></g></g></svg>