<svg xmlns="http://www.w3.org/2000/svg" width="109" height="109" viewBox="0 0 109 109"><g xmlns:kvg="http://kanjivg.tagaini.net" id="kvg:StrokePaths_06d78" style="fill:none;stroke:#000000;stroke-width:3;stroke-linecap:round;stroke-linejoin:round;"><g id="kvg:06d78" kvg:element="&#28024;"><g id="kvg:06d78-g1" kvg:element="&#27701;" kvg:variant="true" kvg:original="&#27700;" kvg:position="left" kvg:radical="general"><path id="kvg:06d78-s1" kvg:type="&#12756;" d="M22.63,16.5c3.66,1.6,9.45,6.6,10.37,9.09"/><path id="kvg:06d78-s2" kvg:type="&#12756;" d="M14.75,40.75c3.62,1.54,9.34,6.35,10.25,8.75"/><path id="kvg:06d78-s3" kvg:type="&#12736;" d="M14.85,87.42c1.34,0.68,2.75,0.48,3.55-0.83c2.87-4.67,5.74-10.38,8.35-16.34"/></g><g id="kvg:06d78-g2" kvg:position="right" kvg:phon="&#12369;&#12356;&#12364;&#12375;&#12425;+&#20886;+&#21448;"><g id="kvg:06d78-g3" kvg:element="&#11925;" kvg:variant="true" kvg:original="&#24401;" kvg:position="top"><path id="kvg:06d78-s4" kvg:type="&#12757;" d="M47.13,16.55c2.11,0.85,4.2,0.59,6.37,0.41c7.3-0.59,25.45-2.42,26.64-2.6c1.46-0.22,3.11,0.64,2.93,2.21c-0.6,5.35-2.08,12.65-2.65,17.21c-0.22,1.77-0.42,3.24-0.57,4.23"/><path id="kvg:06d78-s5" kvg:type="&#12752;c" d="M46.36,27.29c2.77,0.58,4.9,0.19,7.02,0.01c9.48-0.82,15-1.55,27.34-2.27"/><path id="kvg:06d78-s6" kvg:type="&#12752;c" d="M46.22,37.7c1.96,0.91,4.47,0.46,6.53,0.27c9.44-0.88,15.82-1.74,26.83-2.75"/></g><g id="kvg:06d78-g4" kvg:position="bottom"><g id="kvg:06d78-g5" kvg:element="&#20886;"><path id="kvg:06d78-s7" kvg:type="&#12756;" d="M42.25,48c-0.07,3.2-1.63,11.57-2.19,13.47"/><path id="kvg:06d78-s8" kvg:type="&#12758;b" d="M43.3,49.76c10.58-1.01,26.45-3.26,42.74-4.35c12.27-0.82,2.06,7.19,0.91,8.25"/></g><g id="kvg:06d78-g6" kvg:element="&#21448;"><path id="kvg:06d78-s9" kvg:type="&#12743;" d="M50.18,61.04c2.14,0.39,3.94,0.28,6.09-0.1c4.65-0.81,14.76-2.61,17.87-3.34c3.61-0.85,5.11,0.77,3.11,3.82C68.03,75.5,54.5,87.12,40.2,93.25"/><path id="kvg:06d78-s10" kvg:type="&#12751;" d="M47.78,66.27c6.47,0.23,21.1,14.48,35.6,23.94c3.11,2.03,5.37,2.54,8.91,3.97"/></g></g></g></g></g></svg>