<svg xmlns="http://www.w3.org/2000/svg" width="109" height="109" viewBox="0 0 109 109"><g xmlns:kvg="http://kanjivg.tagaini.net" id="kvg:StrokePaths_06d8e" style="fill:none;stroke:#000000;stroke-width:3;stroke-linecap:round;stroke-linejoin:round;"><g id="kvg:06d8e" kvg:element="&#28046;"><g id="kvg:06d8e-g1" kvg:element="&#27701;" kvg:variant="true" kvg:original="&#27700;" kvg:position="left" kvg:radical="general"><path id="kvg:06d8e-s1" kvg:type="&#12756;" d="M18.63,17.5c4.1,1.6,10.59,6.6,11.62,9.09"/><path id="kvg:06d8e-s2" kvg:type="&#12756;" d="M12.75,40.25c4.15,1.81,10.71,7.44,11.75,10.25"/><path id="kvg:06d8e-s3" kvg:type="&#12736;" d="M12.75,87.18c2.25,0.82,4.14,0.4,5.18-1.26c3.03-4.84,7.56-14.75,10.32-20.92"/></g><g id="kvg:06d8e-g2" kvg:element="&#24310;" kvg:position="right"><g id="kvg:06d8e-g3" kvg:element="&#27491;" kvg:variant="true"><g id="kvg:06d8e-g4" kvg:element="&#20031;"><path id="kvg:06d8e-s4" kvg:type="&#12754;" d="M82.99,13c0.07,0.34,0.26,0.97-0.14,1.35c-5,4.75-12.39,9.11-25.42,12.93"/></g><g id="kvg:06d8e-g5" kvg:element="&#27490;" kvg:variant="true"><g id="kvg:06d8e-g6" kvg:element="&#21340;" kvg:original="&#12488;"><path id="kvg:06d8e-s5" kvg:type="&#12753;" d="M73.75,24.8c0.68,0.34,1.09,1.54,1.23,2.23c0.14,0.69,0,38.37-0.14,42.65"/><path id="kvg:06d8e-s6" kvg:type="&#12752;" d="M75.33,43.56c4.47-0.51,8.24-1.21,12.95-1.56c1.09-0.08,1.37-0.17,2.05,0"/></g><path id="kvg:06d8e-s7" kvg:type="&#12740;" d="M60.44,44.61c0.68,0.34,1.09,1.54,1.23,2.23c0.14,0.69,0.22,17.9,0.3,19.21c0.07,1.3,1.14,3.16,3.88,3.46c6.91,0.75,13.16,1,23.83,0.1c1.37-0.12,2.77-0.16,3.55,0.01"/></g></g><g id="kvg:06d8e-g7" kvg:element="&#24308;" kvg:position="nyo"><path id="kvg:06d8e-s8" kvg:type="&#12743;" d="M34.22,34.15c1.03,0.35,2.79,0.4,4.33,0.11c2.71-0.51,6.45-1.25,9.48-2.07c3.03-0.81,3.1,0.92,2.16,2.1c-1.73,2.18-7.3,15.65-10.33,20.54"/><path id="kvg:06d8e-s9" kvg:type="&#12743;a" d="M39.76,55.38c2.83-0.83,7.99-2.36,9.93-2.56c1.93-0.21,3.93-0.09,3.12,3.53C50,69,41.28,84.54,28.93,92.43"/><path id="kvg:06d8e-s10" kvg:type="&#12751;" d="M34,64.86c10.75-0.61,26.25,16.39,50.49,27.09c3.09,1.36,7.06,2.22,9.51,2.55"/></g></g></g></g></svg>