<svg xmlns="http://www.w3.org/2000/svg" width="109" height="109" viewBox="0 0 109 109"><g xmlns:kvg="http://kanjivg.tagaini.net" id="kvg:StrokePaths_06d9b" style="fill:none;stroke:#000000;stroke-width:3;stroke-linecap:round;stroke-linejoin:round;"><g id="kvg:06d9b" kvg:element="&#28059;"><g id="kvg:06d9b-g1" kvg:element="&#27701;" kvg:variant="true" kvg:original="&#27700;" kvg:position="left" kvg:radical="general"><path id="kvg:06d9b-s1" kvg:type="&#12756;" d="M22.13,17.25c4.45,1.47,11.5,6.05,12.62,8.34"/><path id="kvg:06d9b-s2" kvg:type="&#12756;" d="M14.75,43.25c3.79,1.54,9.8,6.35,10.75,8.75"/><path id="kvg:06d9b-s3" kvg:type="&#12736;" d="M17.25,89.21c1.5,1.31,3.31,1.36,4.25-0.25c2.75-4.7,5.5-10.45,8-16.45"/></g><g id="kvg:06d9b-g2" kvg:element="&#23551;" kvg:position="right"><g id="kvg:06d9b-g3" kvg:element="&#19977;"><g id="kvg:06d9b-g4" kvg:element="&#19968;" kvg:position="top"><path id="kvg:06d9b-s4" kvg:type="&#12752;" d="M45.56,24.4c0.89,0.37,2.53,0.45,3.42,0.37c6.21-0.52,25.4-4.26,33.88-4.26c1.49,0,2.38,0.18,3.12,0.36"/></g><g id="kvg:06d9b-g5" kvg:position="bottom"><g id="kvg:06d9b-g6" kvg:element="&#19968;"><path id="kvg:06d9b-s5" kvg:type="&#12752;" d="M47.59,35.39c0.82,0.38,2.33,0.45,3.15,0.38c6.04-0.52,22.32-3.52,28.19-3.88c1.37-0.08,2.19,0.18,2.88,0.37"/></g><g id="kvg:06d9b-g7" kvg:element="&#19968;"><path id="kvg:06d9b-s6" kvg:type="&#12752;" d="M42.4,47.76c1.05,0.43,2.97,0.57,4.02,0.43c8.46-1.19,29.49-3.44,41.8-4.12c1.74-0.1,2.79,0.2,3.67,0.42"/></g></g></g><g id="kvg:06d9b-g8" kvg:element="&#20031;"><path id="kvg:06d9b-s7" kvg:type="&#12754;" d="M64.14,11c0.61,1.5,0.84,2.91,0.72,5.06c-1.61,27.44-4.61,56.69-24.9,73.48"/></g><g id="kvg:06d9b-g9" kvg:element="&#23544;"><path id="kvg:06d9b-s8" kvg:type="&#12752;" d="M42.63,64.81c1.34,0.67,3.79,0.84,5.15,0.67c14.87-1.86,26.52-3.43,42.91-4.45c2.23-0.14,3.58,0.32,4.7,0.65"/><path id="kvg:06d9b-s9" kvg:type="&#12762;" d="M77.45,51.83c0.07,0.45,1.1,2.33,1.1,5.17c0,19.11,0.21,29.19,0.21,33.84c0,11.27-6.14,2.14-8.06,0.7"/><path id="kvg:06d9b-s10" kvg:type="&#12756;" d="M58.06,71.62c2.8,1.59,7.24,6.53,7.94,9"/></g></g></g></g></svg>