<svg xmlns="http://www.w3.org/2000/svg" width="109" height="109" viewBox="0 0 109 109"><g xmlns:kvg="http://kanjivg.tagaini.net" id="kvg:StrokePaths_06d95" style="fill:none;stroke:#000000;stroke-width:3;stroke-linecap:round;stroke-linejoin:round;"><g id="kvg:06d95" kvg:element="&#28053;"><g id="kvg:06d95-g1" kvg:element="&#27701;" kvg:variant="true" kvg:original="&#27700;" kvg:position="left" kvg:radical="general"><path id="kvg:06d95-s1" kvg:type="&#12756;" d="M17.13,14.25c4.81,1.91,12.41,7.87,13.62,10.84"/><path id="kvg:06d95-s2" kvg:type="&#12756;" d="M13,40c4.59,1.76,11.85,7.26,13,10"/><path id="kvg:06d95-s3" kvg:type="&#12736;" d="M12.75,85.23c1.71,1.27,3.78,0.32,4.86-1.25c3.14-4.57,8.79-14.66,11.64-20.49"/></g><g id="kvg:06d95-g2" kvg:element="&#24351;" kvg:position="right"><g id="kvg:06d95-g3" kvg:position="top"><path id="kvg:06d95-s4" kvg:type="&#12756;" d="M44.91,12.5c3.77,2.11,9.74,8.68,10.68,11.97"/><path id="kvg:06d95-s5" kvg:type="&#12754;" d="M78.59,9.5c0.09,1.27-0.14,2.71-0.73,3.93c-1.66,3.45-4.14,7.29-9.01,12.32"/></g><g id="kvg:06d95-g4" kvg:position="bottom"><g id="kvg:06d95-g5" kvg:element="&#24340;"><g id="kvg:06d95-g6" kvg:element="&#24339;"><path id="kvg:06d95-s6" kvg:type="&#12757;c" d="M40.68,28.54c1.17,1.07,3.25,1.28,4.75,1.19c7.82-0.48,36.13-3.17,39.11-3.76c2.98-0.59,4.22,2.15,3.69,4.05c-0.83,2.99-3.64,10.16-3.98,12.48"/><path id="kvg:06d95-s7" kvg:type="&#12752;" d="M45.75,46c7.25-0.5,33.98-3.5,36.09-3.5c2.11,0,4.22,0,5.91,0"/><path id="kvg:06d95-s8" kvg:type="&#12745;" d="M44.48,45.42c0.89,0.79,0.63,2.9,0.18,4.21c-0.9,2.62-1.39,5.48-2.64,9.84C41,63,42.06,64.02,43.96,63.86C48,63.5,86.53,59.83,91.3,59.23c4.77-0.6,3.6,3.99,3.26,5.42c-0.65,2.74-4.41,11.77-7.24,16.29c-4.57,7.31-6.3-0.95-7.66-2.48"/></g><g id="kvg:06d95-g7" kvg:element="&#20008;"><path id="kvg:06d95-s9" kvg:type="&#12753;" d="M63.19,31.91c0.78,0.74,1.54,2.9,1.81,3.91c-0.74-2.79,0.16,55.05-0.27,65.18"/></g></g><g id="kvg:06d95-g8" kvg:element="&#20031;"><path id="kvg:06d95-s10" kvg:type="&#12754;" d="M63.17,62c0.09,0.67,0.34,0.82-0.2,1.71C59.5,69.5,49,84.25,29.75,92.25"/></g></g></g></g></g></svg>