<svg xmlns="http://www.w3.org/2000/svg" width="109" height="109" viewBox="0 0 109 109"><g xmlns:kvg="http://kanjivg.tagaini.net" id="kvg:StrokePaths_06dcb" style="fill:none;stroke:#000000;stroke-width:3;stroke-linecap:round;stroke-linejoin:round;"><g id="kvg:06dcb" kvg:element="&#28107;"><g id="kvg:06dcb-g1" kvg:element="&#27701;" kvg:variant="true" kvg:original="&#27700;" kvg:position="left" kvg:radical="general"><path id="kvg:06dcb-s1" kvg:type="&#12756;" d="M16.13,16.25c3.57,1.47,9.22,6.05,10.12,8.34"/><path id="kvg:06dcb-s2" kvg:type="&#12756;" d="M9.5,39.75c3.35,1.37,8.66,5.62,9.5,7.75"/><path id="kvg:06dcb-s3" kvg:type="&#12736;" d="M8.75,88.21c1.5,1.31,3.31,1.36,4.25-0.25C15.75,83.25,21,73,23.5,67"/></g><g id="kvg:06dcb-g2" kvg:element="&#26519;" kvg:position="right"><g id="kvg:06dcb-g3" kvg:element="&#26408;" kvg:variant="true" kvg:position="left"><path id="kvg:06dcb-s4" kvg:type="&#12752;" d="M28.25,41.19c0.58,0.28,2.33,0.66,3.88,0.5c6.62-0.69,13.35-1.31,19.17-1.88c1.55-0.15,2.72-0.28,3.69,0"/><path id="kvg:06dcb-s5" kvg:type="&#12753;" d="M42,16.5c1.25,0.5,2,2.25,2.25,3.25s0,68.25-0.25,74.5"/><path id="kvg:06dcb-s6" kvg:type="&#12754;" d="M44.25,43C41.4,53.33,32.92,70.65,27,76.5"/><path id="kvg:06dcb-s7" kvg:type="&#12756;/&#12751;" d="M45.75,50.75c3.31,2.11,6.86,6.32,8.75,10"/></g><g id="kvg:06dcb-g4" kvg:element="&#26408;" kvg:position="right"><path id="kvg:06dcb-s8" kvg:type="&#12752;" d="M60.75,38.74c0.52,0.23,1.63,0.36,3.01,0.23c4.85-0.46,17.84-2.05,27.31-3.19c1.37-0.16,2.57-0.23,3.43,0"/><path id="kvg:06dcb-s9" kvg:type="&#12753;" d="M73.25,12.5c1.25,0.5,2,2.25,2.25,3.25s0,73.75-0.25,80"/><path id="kvg:06dcb-s10" kvg:type="&#12754;" d="M74.75,38.5C71.72,51.67,62.28,70,55.25,76.75"/><path id="kvg:06dcb-s11" kvg:type="&#12751;" d="M75.75,37.75c5.92,13.68,15.4,31.23,20.21,36.63c1.37,1.54,2.14,2.6,3.29,3.12"/></g></g></g></g></svg>