<svg xmlns="http://www.w3.org/2000/svg" width="109" height="109" viewBox="0 0 109 109"><g xmlns:kvg="http://kanjivg.tagaini.net" id="kvg:StrokePaths_06dcc" style="fill:none;stroke:#000000;stroke-width:3;stroke-linecap:round;stroke-linejoin:round;"><g id="kvg:06dcc" kvg:element="&#28108;"><g id="kvg:06dcc-g1" kvg:element="&#27701;" kvg:variant="true" kvg:original="&#27700;" kvg:position="left" kvg:radical="general"><path id="kvg:06dcc-s1" kvg:type="&#12756;" d="M17.13,15.75c4.63,1.74,11.96,7.14,13.12,9.84"/><path id="kvg:06dcc-s2" kvg:type="&#12756;" d="M14,42.5c4.41,1.59,11.4,6.53,12.5,9"/><path id="kvg:06dcc-s3" kvg:type="&#12736;" d="M15.75,89.71c1.5,1.31,3.31,1.36,4.25-0.25C22.75,84.75,28.5,73,31,67"/></g><g id="kvg:06dcc-g2" kvg:element="&#23578;" kvg:variant="true" kvg:position="right"><g id="kvg:06dcc-g3" kvg:element="&#11916;" kvg:variant="true" kvg:original="&#23567;" kvg:position="top"><path id="kvg:06dcc-s4" kvg:type="&#12753;" d="M63.04,12.62c0.21,0.4,2.33,2.07,2.33,4.59c0,11.46-0.18,21.86-0.18,25.99"/><path id="kvg:06dcc-s5" kvg:type="&#12754;" d="M53.12,22.02c0.05,0.42,0.1,1.07-0.09,1.67c-1.09,3.52-7.37,11.26-15.95,15.99"/><path id="kvg:06dcc-s6" kvg:type="&#12756;" d="M77.3,20.6c6.08,2.68,15.72,11.03,17.24,15.2"/></g><g id="kvg:06dcc-g4" kvg:position="bottom"><g id="kvg:06dcc-g5" kvg:element="&#20866;"><path id="kvg:06dcc-s7" kvg:type="&#12753;" d="M42.55,43.35c0.97,0.77,1.7,2.58,1.78,4.01c0.35,6.26-0.62,39.29-0.43,48.53"/><path id="kvg:06dcc-s8" kvg:type="&#12742;a" d="M44.17,45.84c16.83-1.48,29.28-3.09,42.09-4.24c2.76-0.25,4.83,1.74,4.77,4.04c-0.21,8.22-0.16,28.5-0.16,42.11c0,9.75-5.19,5.41-8.28,0.79"/></g><g id="kvg:06dcc-g6" kvg:element="&#21475;"><path id="kvg:06dcc-s9" kvg:type="&#12753;" d="M56.31,57.33c0.24,0.22,0.51,0.39,0.58,0.68c0.68,2.52,2.11,18.05,2.79,21.76"/><path id="kvg:06dcc-s10" kvg:type="&#12757;b" d="M57.79,58.81c4.38-0.54,11.36-2.28,15.43-2.54c1.77-0.11,3.05,1.12,2.82,2.71c-0.79,5.27-1.34,7.47-2.97,16.78"/><path id="kvg:06dcc-s11" kvg:type="&#12752;b" d="M60.18,77.46c5.67-0.73,10.28-0.89,14.78-1.39"/></g></g></g></g></g></svg>