<svg xmlns="http://www.w3.org/2000/svg" width="109" height="109" viewBox="0 0 109 109"><g xmlns:kvg="http://kanjivg.tagaini.net" id="kvg:StrokePaths_06dc0" style="fill:none;stroke:#000000;stroke-width:3;stroke-linecap:round;stroke-linejoin:round;"><g id="kvg:06dc0" kvg:element="&#28096;"><g id="kvg:06dc0-g1" kvg:element="&#27701;" kvg:variant="true" kvg:original="&#27700;" kvg:position="left" kvg:radical="general"><path id="kvg:06dc0-s1" kvg:type="&#12756;" d="M18.13,15.25c3.92,1.65,10.13,6.78,11.12,9.34"/><path id="kvg:06dc0-s2" kvg:type="&#12756;" d="M11.5,37.25C15.91,38.62,22.9,42.87,24,45"/><path id="kvg:06dc0-s3" kvg:type="&#12736;" d="M10.25,89.25c1.75,1.25,3.85,1.3,4.94-0.24c3.2-4.5,6.4-10.01,9.31-15.76"/></g><g id="kvg:06dc0-g2" kvg:element="&#23450;" kvg:position="right"><g id="kvg:06dc0-g3" kvg:element="&#23424;" kvg:position="top"><path id="kvg:06dc0-s4" kvg:type="&#12753;a" d="M60.66,13.42c0.71,0.8,1.93,2.8,1.91,3.9c-0.07,3.46-0.07,7.98-0.07,11.13"/><g id="kvg:06dc0-g4" kvg:element="&#20886;"><path id="kvg:06dc0-s5" kvg:type="&#12756;" d="M40.41,29.41c0,3.09-1.73,11.58-2.51,13.64"/><path id="kvg:06dc0-s6" kvg:type="&#12758;b" d="M41.12,31.56c11.95-1.7,32.11-4.54,43.36-4.95c10.33-0.38,3.27,5,0.05,7.22"/></g></g><g id="kvg:06dc0-g5" kvg:element="&#30091;" kvg:variant="true" kvg:position="bottom"><path id="kvg:06dc0-s7" kvg:type="&#12752;" d="M48.32,43.96c2.07,0.42,4.07,0.83,6.17,0.5c4.97-0.78,16.77-2.2,21.5-2.9c2.81-0.42,2.33-0.38,4.61-0.38"/><g id="kvg:06dc0-g6" kvg:element="&#21340;" kvg:original="&#12488;"><path id="kvg:06dc0-s8" kvg:type="&#12753;" d="M61.41,44.95c0.81,0.42,1.3,1.9,1.46,2.75c0.16,0.85,0.37,30.08,0.21,35.37"/><path id="kvg:06dc0-s9" kvg:type="&#12752;" d="M63.78,61.39c6.19-0.71,8.65-1.43,17.99-2.85c1.5-0.23,1.89-0.24,2.84,0"/></g><g id="kvg:06dc0-g7" kvg:element="&#20154;"><path id="kvg:06dc0-s10" kvg:type="&#12754;" d="M47.54,61.96c0.04,0.72,0.09,1.86-0.09,2.9c-1.05,6.12-7.15,18.35-15.39,26.56"/><path id="kvg:06dc0-s11" kvg:type="&#12751;" d="M44.19,73.8C53,79.5,74.5,90.25,85.8,92.92c2.37,0.56,5.19,0.82,7.44,1.08"/></g></g></g></g></g></svg>