<svg xmlns="http://www.w3.org/2000/svg" width="109" height="109" viewBox="0 0 109 109"><g xmlns:kvg="http://kanjivg.tagaini.net" id="kvg:StrokePaths_06dd1" style="fill:none;stroke:#000000;stroke-width:3;stroke-linecap:round;stroke-linejoin:round;"><g id="kvg:06dd1" kvg:element="&#28113;"><g id="kvg:06dd1-g1" kvg:element="&#27701;" kvg:variant="true" kvg:original="&#27700;" kvg:position="left" kvg:radical="general"><path id="kvg:06dd1-s1" kvg:type="&#12756;" d="M15.12,18.12c3.57,1.27,9.23,5.24,10.12,7.22"/><path id="kvg:06dd1-s2" kvg:type="&#12756;" d="M9.75,43.62c3.88,1.34,10.03,5.53,11,7.62"/><path id="kvg:06dd1-s3" kvg:type="&#12736;" d="M11.09,89.77c1.29,0.73,2.64,0.52,3.41-0.9c2.75-5.04,5.5-11.19,8-17.62"/></g><g id="kvg:06dd1-g2" kvg:element="&#21460;" kvg:position="right" kvg:phon="&#21460;"><g id="kvg:06dd1-g3" kvg:position="left"><g id="kvg:06dd1-g4" kvg:element="&#19978;" kvg:position="top"><g id="kvg:06dd1-g5" kvg:element="&#21340;" kvg:original="&#12488;"><path id="kvg:06dd1-s4" kvg:type="&#12753;a" d="M42.93,16.88c1.03,1.03,1.32,2.24,1.32,3.79c0,4.57-0.12,20.23-0.12,26.07"/><path id="kvg:06dd1-s5" kvg:type="&#12752;b/&#12756;" d="M45.59,32.04c1.65,0,5.15-1.19,9.96-1.78c1.73-0.21,2.48-0.19,3.52-0.15"/></g><g id="kvg:06dd1-g6" kvg:element="&#19968;"><path id="kvg:06dd1-s6" kvg:type="&#12752;" d="M28.43,48.81c1.19,0.44,3.09,0.61,4.8,0.33c8.52-1.39,16.27-2.89,24.24-3.57c1-0.08,3.03-0.32,4.1,0.06"/></g></g><g id="kvg:06dd1-g7" kvg:element="&#23567;" kvg:position="bottom"><path id="kvg:06dd1-s7" kvg:type="&#12762;" d="M44.64,50.12c0.94,0.94,1.26,2.13,1.26,3.92c0,12.71,0.04,29.3,0.04,33.28c0,9.02-5.78,1.2-6.98,0.2"/><path id="kvg:06dd1-s8" kvg:type="&#12754;" d="M36.3,61.7c0.04,0.57,0.17,1.5-0.07,2.3C34.5,69.62,30,78.5,23.62,86"/><path id="kvg:06dd1-s9" kvg:type="&#12756;" d="M53.68,61.06c2.37,2.53,6.11,10.4,6.7,14.33"/></g></g><g id="kvg:06dd1-g8" kvg:element="&#21448;" kvg:position="right"><path id="kvg:06dd1-s10" kvg:type="&#12743;" d="M65.38,29.91c2.24,0.59,4.21,0.47,6.49,0.04c4.62-0.88,12.24-2.81,13.8-3.21C88.5,26,90,27.5,89.12,30.95C81.96,58.94,70.5,81.75,53.65,91.5"/><path id="kvg:06dd1-s11" kvg:type="&#12751;" d="M65.3,36.3c2.82,8.57,13.09,29.04,21.83,43.07c1.98,3.18,4.62,7.01,7.97,9.63"/></g></g></g></g></svg>