<svg xmlns="http://www.w3.org/2000/svg" width="109" height="109" viewBox="0 0 109 109"><g xmlns:kvg="http://kanjivg.tagaini.net" id="kvg:StrokePaths_06dfa" style="fill:none;stroke:#000000;stroke-width:3;stroke-linecap:round;stroke-linejoin:round;"><g id="kvg:06dfa" kvg:element="&#28154;"><g id="kvg:06dfa-g1" kvg:element="&#27701;" kvg:variant="true" kvg:original="&#27700;" kvg:position="left" kvg:radical="tradit"><path id="kvg:06dfa-s1" kvg:type="&#12756;" d="M20.63,16c4.45,1.78,11.5,7.32,12.62,10.09"/><path id="kvg:06dfa-s2" kvg:type="&#12756;" d="M15.5,42.25c4.24,1.81,10.94,7.44,12,10.25"/><path id="kvg:06dfa-s3" kvg:type="&#12736;" d="M15.75,89.73c1.71,1.27,3.78,1.32,4.86-0.25c3.14-4.57,8.79-13.66,11.64-19.49"/></g><g id="kvg:06dfa-g2" kvg:element="&#25108;" kvg:position="right"><g id="kvg:06dfa-g3" kvg:element="&#25096;" kvg:position="top"><g id="kvg:06dfa-g4" kvg:element="&#24331;" kvg:part="1"><path id="kvg:06dfa-s4" kvg:type="&#12752;" d="M42.22,26.45c0.91,0.44,2.59,0.5,3.5,0.44c7.11-0.41,23.97-3.85,32.2-4.46c1.52-0.11,2.43,0.21,3.2,0.43"/><path id="kvg:06dfa-s5" kvg:type="&#12738;" d="M53.81,10c1.33,0.88,1.83,2.17,2.21,4.05C59.25,29.75,67.75,44,84.54,48.94c5.32,1.57,5.13-0.82,3.81-7.1"/></g><g id="kvg:06dfa-g5" kvg:element="&#20031;"><path id="kvg:06dfa-s6" kvg:type="&#12754;" d="M79.43,28.7c-0.22,0.71-0.42,1.45-0.93,2.11c-4.42,5.7-16.17,13.9-34.67,20.64"/></g><g id="kvg:06dfa-g6" kvg:element="&#24331;" kvg:part="2"><g id="kvg:06dfa-g7" kvg:element="&#20022;"><path id="kvg:06dfa-s7" kvg:type="&#12756;" d="M71.92,8.18c3.26,1.55,8.46,5.1,9.99,7.75"/></g></g></g><g id="kvg:06dfa-g8" kvg:element="&#25096;" kvg:position="bottom"><g id="kvg:06dfa-g9" kvg:element="&#24331;" kvg:part="1"><path id="kvg:06dfa-s8" kvg:type="&#12752;" d="M41.77,67.13c0.96,0.44,2.73,0.57,3.69,0.44c8.42-1.12,33.01-4.33,41.68-4.93c1.6-0.11,2.57,0.21,3.37,0.43"/><path id="kvg:06dfa-s9" kvg:type="&#12738;" d="M59.26,50.67c1.43,0.94,2.04,1.67,2.34,3.69c2.5,16.98,10.72,34.55,28.2,40.88c5.61,2.03,4.82-3.1,4.1-7.27"/></g><g id="kvg:06dfa-g10" kvg:element="&#20031;"><path id="kvg:06dfa-s10" kvg:type="&#12754;" d="M82.64,70.28c0.11,0.58,0.23,1.49-0.22,2.32c-2.69,4.9-17.77,16.2-38.87,22.78"/></g><g id="kvg:06dfa-g11" kvg:element="&#24331;" kvg:part="2"><g id="kvg:06dfa-g12" kvg:element="&#20022;"><path id="kvg:06dfa-s11" kvg:type="&#12756;" d="M69.42,49.37c3.26,1.55,8.46,5.1,9.99,7.75"/></g></g></g></g></g></g></svg>