<svg xmlns="http://www.w3.org/2000/svg" width="109" height="109" viewBox="0 0 109 109"><g xmlns:kvg="http://kanjivg.tagaini.net" id="kvg:StrokePaths_06e0b" style="fill:none;stroke:#000000;stroke-width:3;stroke-linecap:round;stroke-linejoin:round;"><g id="kvg:06e0b" kvg:element="&#28171;"><g id="kvg:06e0b-g1" kvg:element="&#27701;" kvg:variant="true" kvg:original="&#27700;" kvg:position="left" kvg:radical="general"><path id="kvg:06e0b-s1" kvg:type="&#12756;" d="M20.62,15.38c3.66,1.45,9.46,5.96,10.38,8.22"/><path id="kvg:06e0b-s2" kvg:type="&#12756;" d="M11.75,39.75c4.32,1.27,11.17,5.78,12.25,7.75"/><path id="kvg:06e0b-s3" kvg:type="&#12736;" d="M14.5,91.74c1.31,0.74,2.71,0.56,3.5-0.79c2.75-4.7,5.5-10.45,8-16.45"/></g><g id="kvg:06e0b-g2" kvg:position="right" kvg:phon="&#27490;+&#20907;+4+1"><g id="kvg:06e0b-g3" kvg:element="&#27490;" kvg:position="top"><g id="kvg:06e0b-g4" kvg:element="&#21340;" kvg:original="&#12488;"><path id="kvg:06e0b-s4" kvg:type="&#12753;a" d="M65.87,14c0.88,0.88,1.14,2.25,1.14,3.55c0,0.73,0.1,23.7,0.1,28.97"/><path id="kvg:06e0b-s5" kvg:type="&#12752;b" d="M68.4,32.25c4.63-0.49,11.29-1.42,16.1-1.98c1.17-0.14,2.42-0.16,3.59,0.11"/></g><path id="kvg:06e0b-s6" kvg:type="&#12753;a" d="M48.27,31.41c0.91,0.91,1.14,2.34,1.14,3.55c0,4.29-0.04,7.38-0.04,13.54"/><path id="kvg:06e0b-s7" kvg:type="&#12752;" d="M37.71,49.68c3.42,0.69,6.04,0.69,8.91,0.33c12.14-1.51,32.78-4.05,43.76-4.43c2.66-0.09,5.33,0.04,7.92,0.69"/></g><g id="kvg:06e0b-g5" kvg:position="bottom"><g id="kvg:06e0b-g6" kvg:element="&#20907;"><g id="kvg:06e0b-g7" kvg:position="top"><path id="kvg:06e0b-s8" kvg:type="&#12756;" d="M43.31,58.77c4.93,2.11,12.75,8.68,13.98,11.96"/></g><g id="kvg:06e0b-g8" kvg:position="bottom"><path id="kvg:06e0b-s9" kvg:type="&#12736;" d="M42.54,93.29c1.1,0.84,2.07,0.87,3.21,0.02c0.76-0.56,10.38-8.8,13.61-11.5"/></g></g><path id="kvg:06e0b-s10" kvg:type="&#12754;" d="M84.56,57.28c0.11,0.96-0.15,1.82-0.69,2.55c-2.15,2.9-5.32,6.21-12.53,11.79"/><path id="kvg:06e0b-s11" kvg:type="&#12756;" d="M72.75,80.12C78,82.38,87.88,90.38,91.04,95.67"/></g></g></g></g></svg>