<svg xmlns="http://www.w3.org/2000/svg" width="109" height="109" viewBox="0 0 109 109"><g xmlns:kvg="http://kanjivg.tagaini.net" id="kvg:StrokePaths_06e1a" style="fill:none;stroke:#000000;stroke-width:3;stroke-linecap:round;stroke-linejoin:round;"><g id="kvg:06e1a" kvg:element="&#28186;"><g id="kvg:06e1a-g1" kvg:element="&#27701;" kvg:variant="true" kvg:original="&#27700;" kvg:position="left" kvg:radical="general"><path id="kvg:06e1a-s1" kvg:type="&#12756;" d="M20.13,16.25c3.92,1.52,10.13,6.23,11.12,8.59"/><path id="kvg:06e1a-s2" kvg:type="&#12756;" d="M13.5,41.75c3.27,1.37,8.43,5.62,9.25,7.75"/><path id="kvg:06e1a-s3" kvg:type="&#12736;" d="M15.88,89.25c1.88,0.37,2.68-0.56,3.57-2.24c2.6-4.9,5.2-10.89,7.56-17.14"/></g><g id="kvg:06e1a-g2" kvg:element="&#32773;" kvg:position="right"><g id="kvg:06e1a-g3" kvg:element="&#32770;" kvg:original="&#32769;" kvg:partial="true"><g id="kvg:06e1a-g4" kvg:element="&#22303;"><path id="kvg:06e1a-s4" kvg:type="&#12752;" d="M41.41,28.55c1.51,0.73,4.82,0.65,6.47,0.49c7.19-0.67,16.62-1.54,23.64-2.24c1.43-0.14,3.16-0.46,4.61-0.04"/><path id="kvg:06e1a-s5" kvg:type="&#12753;a" d="M57.75,13.12c0.94,0.94,1.27,1.88,1.27,3.3c0,8.72,0.01,24.06,0.01,27.03"/><path id="kvg:06e1a-s6" kvg:type="&#12752;" d="M32.75,45.37c3.06,0.93,6.26,0.8,9.38,0.47c13.74-1.47,32.74-2.47,45.61-2.88c2.9-0.09,6.09-0.12,8.88,0.73"/></g><path id="kvg:06e1a-s7" kvg:type="&#12754;" d="M85.19,19.61c0.14,1.22-0.27,2.91-1.29,4.39C72.38,40.88,57.5,58.25,31.94,73.13"/></g><g id="kvg:06e1a-g5" kvg:element="&#26085;"><path id="kvg:06e1a-s8" kvg:type="&#12753;" d="M52.66,62.89c0.79,0.79,1.03,1.73,1.03,2.83c0,0.86,0,17.06,0,26.28c0,2.49,0,4.46,0,5.5"/><path id="kvg:06e1a-s9" kvg:type="&#12757;a" d="M54.33,64.03c1.97-0.12,20.28-1.91,25.41-2.38c2.98-0.28,3.69,1.05,3.69,3.73c0,4.66-0.03,17.88-0.04,25.88c-0.01,3.6-0.01,6.15-0.01,6.38"/><path id="kvg:06e1a-s10" kvg:type="&#12752;a" d="M54.72,78.6c7.03-0.72,19.41-1.35,27.63-1.69"/><path id="kvg:06e1a-s11" kvg:type="&#12752;a" d="M54.83,94.96c7.04-0.33,19.81-0.7,27.17-1.11"/></g></g></g></g></svg>