<svg xmlns="http://www.w3.org/2000/svg" width="109" height="109" viewBox="0 0 109 109"><g xmlns:kvg="http://kanjivg.tagaini.net" id="kvg:StrokePaths_06e5b" style="fill:none;stroke:#000000;stroke-width:3;stroke-linecap:round;stroke-linejoin:round;"><g id="kvg:06e5b" kvg:element="&#28251;"><g id="kvg:06e5b-g1" kvg:element="&#27701;" kvg:variant="true" kvg:original="&#27700;" kvg:position="left" kvg:radical="general"><path id="kvg:06e5b-s1" kvg:type="&#12756;" d="M18.13,19c4.28,1.87,11.05,7.68,12.12,10.59"/><path id="kvg:06e5b-s2" kvg:type="&#12756;" d="M12.75,44.75c4.5,1.37,11.62,5.62,12.75,7.75"/><path id="kvg:06e5b-s3" kvg:type="&#12736;" d="M15.25,93.71c2.25,0.54,3.31-0.14,4.25-1.75c2.75-4.7,5.5-10.45,8-16.45"/></g><g id="kvg:06e5b-g2" kvg:element="&#29978;" kvg:position="right"><g id="kvg:06e5b-g3" kvg:element="&#29976;" kvg:position="top"><g id="kvg:06e5b-g4" kvg:element="&#24319;" kvg:part="1"><g id="kvg:06e5b-g5" kvg:element="&#21313;"><path id="kvg:06e5b-s4" kvg:type="&#12752;" d="M41.7,27.28c1.03,0.35,2.91,0.47,3.94,0.4c7.55-0.46,30.29-2.95,43.38-3.44c1.71-0.06,2.74,0.21,3.59,0.39"/><path id="kvg:06e5b-s5" kvg:type="&#12753;" d="M52.8,13.89c0.83,0.5,1.34,2.17,1.51,3.13c0.17,0.96,0.28,45.78,0.16,50.68"/></g><path id="kvg:06e5b-s6" kvg:type="&#12753;" d="M76.83,12.77c0.86,0.51,1.38,2.24,1.55,3.23c0.17,0.98,0.36,44.6,0.24,49.5"/></g><path id="kvg:06e5b-s7" kvg:type="&#12752;" d="M55.95,39.32c2.68-0.32,19.67-1.85,21.56-1.8"/><g id="kvg:06e5b-g6" kvg:element="&#24319;" kvg:part="2"><path id="kvg:06e5b-s8" kvg:type="&#12752;" d="M54.98,52.38c5.02,0,19.62-0.91,23.4-1.01"/></g></g><g id="kvg:06e5b-g7" kvg:element="&#21305;" kvg:position="bottom"><g id="kvg:06e5b-g8" kvg:element="&#21274;" kvg:part="1"><path id="kvg:06e5b-s9" kvg:type="&#12752;" d="M38.5,67.68c1.2,0.31,3.41,0.39,4.61,0.37c12.5-0.29,36.52-2.76,48.74-3.07c2-0.05,3.21,0.19,4.21,0.35"/></g><g id="kvg:06e5b-g9" kvg:element="&#20799;"><g id="kvg:06e5b-g10" kvg:element="&#20843;" kvg:variant="true"><g id="kvg:06e5b-g11" kvg:element="&#20031;" kvg:position="left"><path id="kvg:06e5b-s10" kvg:type="&#12754;" d="M59.73,70.14c0.33,0.29,0.72,1.03,0.64,1.61c-0.63,4.65-2.99,11.29-8.53,16.46"/></g><g id="kvg:06e5b-g12" kvg:position="right"><path id="kvg:06e5b-s11" kvg:type="&#12767;" d="M71.65,67.93c0.67,0.85,1.25,1.86,1.25,3.16c0.01,1.87-0.15,3.49-0.14,6.79c-0.09,4.29,0.74,5.46,7.83,5.58c5,0.11,9.27-0.73,10.11-1.5"/></g></g></g><g id="kvg:06e5b-g13" kvg:element="&#21274;" kvg:part="2"><path id="kvg:06e5b-s12" kvg:type="&#12759;" d="M45.62,68.61c0.71,0.85,1.57,2.74,1.57,5.74c0,2.83-0.07,3.71-0.07,11.72c0,8.01,1.19,9.55,23.88,9.55c13.94,0,19.55-1.39,22.23-2.36"/></g></g></g></g></g></svg>