<svg xmlns="http://www.w3.org/2000/svg" width="109" height="109" viewBox="0 0 109 109"><g xmlns:kvg="http://kanjivg.tagaini.net" id="kvg:StrokePaths_06e72" style="fill:none;stroke:#000000;stroke-width:3;stroke-linecap:round;stroke-linejoin:round;"><g id="kvg:06e72" kvg:element="&#28274;"><g id="kvg:06e72-g1" kvg:element="&#27701;" kvg:variant="true" kvg:original="&#27700;" kvg:position="left" kvg:radical="general"><path id="kvg:06e72-s1" kvg:type="&#12756;" d="M17.63,16.5c4.81,1.78,12.41,7.32,13.62,10.09"/><path id="kvg:06e72-s2" kvg:type="&#12756;" d="M14.25,42.5C18.4,44.35,24.96,50.12,26,53"/><path id="kvg:06e72-s3" kvg:type="&#12736;" d="M14.75,88.21c1.5,1.31,3.31,1.36,4.25-0.25C21.75,83.25,26.5,72,29,66"/></g><g id="kvg:06e72-g2" kvg:element="&#29232;" kvg:position="right"><g id="kvg:06e72-g3" kvg:element="&#11940;" kvg:variant="true" kvg:original="&#29226;" kvg:position="top"><path id="kvg:06e72-s4" kvg:type="&#12754;" d="M81.93,10.89c0.1,0.23,0.21,0.58-0.2,0.91c-2.42,1.91-16.27,6.1-35.23,8.67"/><path id="kvg:06e72-s5" kvg:type="&#12754;" d="M47,26.15c0.03,0.42,0.07,1.09-0.07,1.69c-0.79,3.57-5.32,11.39-11.52,16.18"/><path id="kvg:06e72-s6" kvg:type="&#12756;" d="M60.26,25.83c2.83,1.86,7.3,7.65,8.01,10.54"/><path id="kvg:06e72-s7" kvg:type="&#12756;" d="M76.28,21c6.05,2.96,15.63,12.18,17.15,16.79"/></g><g id="kvg:06e72-g4" kvg:position="bottom"><path id="kvg:06e72-s8" kvg:type="&#12752;" d="M44.3,44.1c0.86,0.36,2.42,0.41,3.28,0.36c8.17-0.46,27.17-2.21,33.36-2.73c1.42-0.12,2.28,0.17,3,0.35"/><g id="kvg:06e72-g5" kvg:element="&#21451;"><path id="kvg:06e72-s9" kvg:type="&#12752;" d="M37.03,58.88c1.38,0.51,3.92,0.59,5.3,0.51c14.4-0.86,29.76-3.33,48.95-3.53c2.31-0.02,3.69,0.24,4.84,0.5"/><path id="kvg:06e72-s10" kvg:type="&#12754;" d="M59.4,46.71c0.26,0.81,0.48,1.68,0.3,3.16C58.42,60.32,48.54,81.94,31,92.11"/><g id="kvg:06e72-g6" kvg:element="&#21448;"><path id="kvg:06e72-s11" kvg:type="&#12743;" d="M57.87,66.68c0.31,0.03,2.46,0.45,3.35,0.4c5.78-0.33,14.91-1.67,19.09-2.67c2.87-0.69,3.5,1.89,2.49,3.63C77,78,57.72,93.73,39.83,99"/><path id="kvg:06e72-s12" kvg:type="&#12751;" d="M53.22,72.08c3.88,0.7,24.65,18.05,32.68,21.55c5.38,2.34,8.4,3.42,10.38,3.76"/></g></g></g></g></g></g></svg>