<svg xmlns="http://www.w3.org/2000/svg" width="109" height="109" viewBox="0 0 109 109"><g xmlns:kvg="http://kanjivg.tagaini.net" id="kvg:StrokePaths_06e9f" style="fill:none;stroke:#000000;stroke-width:3;stroke-linecap:round;stroke-linejoin:round;"><g id="kvg:06e9f" kvg:element="&#28319;"><g id="kvg:06e9f-g1" kvg:element="&#27701;" kvg:variant="true" kvg:original="&#27700;" kvg:position="left" kvg:radical="general"><path id="kvg:06e9f-s1" kvg:type="&#12756;" d="M16.38,14.5c4.01,2.05,10.36,8.41,11.37,11.59"/><path id="kvg:06e9f-s2" kvg:type="&#12756;" d="M12.25,42.75C16.93,44.56,24.33,50.19,25.5,53"/><path id="kvg:06e9f-s3" kvg:type="&#12736;" d="M14.75,88.73c1.71,1.27,3.97,1.44,4.86-0.25C23,82,25.89,74.83,28.75,69"/></g><g id="kvg:06e9f-g2" kvg:element="&#20901;" kvg:position="right"><g id="kvg:06e9f-g3" kvg:element="&#20886;" kvg:position="top"><path id="kvg:06e9f-s4" kvg:type="&#12756;" d="M42.67,17.32c0,4.34-3.49,16.28-5.08,19.18"/><path id="kvg:06e9f-s5" kvg:type="&#12758;b" d="M42.56,21.13c7.2-0.87,41.43-2.92,47.27-3.3c9.99-0.65,2.88,7.91,0.6,9.77"/></g><g id="kvg:06e9f-g4" kvg:position="bottom"><g id="kvg:06e9f-g5" kvg:element="&#26085;"><path id="kvg:06e9f-s6" kvg:type="&#12753;" d="M49.21,31.35c0.14,0.27,0.49,1.29,0.73,2.32c1.02,4.44,2.48,16.61,3.11,24.88"/><path id="kvg:06e9f-s7" kvg:type="&#12757;a" d="M50.64,32.47c7.91-1.12,23.7-1.74,29.64-2.43c2.47-0.29,4.28,1.87,4.17,3.09c-0.41,4.47-1.81,15.66-3.91,24.17"/><path id="kvg:06e9f-s8" kvg:type="&#12752;a" d="M51.61,44.43c2.58-0.43,29.33-1.58,31.46-1.75"/><path id="kvg:06e9f-s9" kvg:type="&#12752;a" d="M53.59,55.88c5.7-0.48,18.94-0.43,26.81-1.21"/></g><g id="kvg:06e9f-g6" kvg:element="&#20845;"><g id="kvg:06e9f-g7" kvg:element="&#20128;" kvg:position="top"><path id="kvg:06e9f-s10" kvg:type="&#12753;a" d="M63.88,58.25c0.64,0.54,1.69,2.63,1.69,3.7c0,4.25-0.02,3.68-0.08,6.73"/><path id="kvg:06e9f-s11" kvg:type="&#12752;" d="M37.04,69.67c1.44,0.14,4.73,0.83,6.14,0.74c16.08-1,27.71-1.85,45.86-2.68c2.38-0.11,3.6,0.06,5.37,0.95"/></g><g id="kvg:06e9f-g8" kvg:element="&#20843;" kvg:position="bottom"><path id="kvg:06e9f-s12" kvg:type="&#12754;" d="M54.76,75.49c0.45,0.91,0.23,3.31-0.53,4.4c-4.15,5.91-9.76,10.72-18.36,15.86"/><path id="kvg:06e9f-s13" kvg:type="&#12751;" d="M74.55,74.86c5.96,5.92,10.88,12.76,13.86,19.95"/></g></g></g></g></g></g></svg>