<svg xmlns="http://www.w3.org/2000/svg" width="109" height="109" viewBox="0 0 109 109"><g xmlns:kvg="http://kanjivg.tagaini.net" id="kvg:StrokePaths_06e9c" style="fill:none;stroke:#000000;stroke-width:3;stroke-linecap:round;stroke-linejoin:round;"><g id="kvg:06e9c" kvg:element="&#28316;"><g id="kvg:06e9c-g1" kvg:element="&#27701;" kvg:variant="true" kvg:original="&#27700;" kvg:position="left" kvg:radical="general"><path id="kvg:06e9c-s1" kvg:type="&#12756;" d="M17.63,14.5c3.57,1.43,9.22,5.87,10.12,8.09"/><path id="kvg:06e9c-s2" kvg:type="&#12756;" d="M11.75,38c3.79,1.32,9.8,5.44,10.75,7.5"/><path id="kvg:06e9c-s3" kvg:type="&#12736;" d="M10.5,90.5c1.78,1.25,3.91,1.3,5.03-0.24c3.25-4.5,6.51-10.01,9.47-15.76"/></g><g id="kvg:06e9c-g2" kvg:element="&#30041;" kvg:position="right"><g id="kvg:06e9c-g3" kvg:element="&#21359;" kvg:variant="true" kvg:position="top"><g id="kvg:06e9c-g4" kvg:position="left"><path id="kvg:06e9c-s4" kvg:type="&#12754;" d="M55.59,13.44c0.04,0.3,0.16,0.86-0.08,1.2c-2.95,4.22-7.3,8.1-14.98,11.5"/><path id="kvg:06e9c-s5" kvg:type="&#12761;" d="M37.37,26.6c0.55,0.4,0.88,1.79,0.99,2.59c0.11,0.8-0.77,19.47-0.89,21.45c-0.11,1.79,0.29,3.37,2.41,1.75c3.81-2.92,11.91-9.47,15.92-12.15"/><path id="kvg:06e9c-s6" kvg:type="&#12756;" d="M52.63,33.62c3.66,3.37,5.99,8.37,7.39,13.28"/></g><g id="kvg:06e9c-g5" kvg:element="&#21353;" kvg:original="&#20992;" kvg:position="right"><path id="kvg:06e9c-s7" kvg:type="&#12742;" d="M67.38,21.74c0.96,0.41,2.66,0.36,3.5,0.22c6.83-1.14,18.41-3.34,22.19-3.76c2.46-0.27,3.08,2.36,2.94,4.27c-0.36,5.04-4.5,22.59-7.86,28.38c-2.43,4.21-3.85,2.86-5.69,0.13"/><g id="kvg:06e9c-g6" kvg:element="&#20031;"><path id="kvg:06e9c-s8" kvg:type="&#12754;" d="M79.19,24c0.04,0.67,0.14,1.75-0.09,2.67C76.54,36.77,74.25,44,63.58,53.88"/></g></g></g><g id="kvg:06e9c-g7" kvg:element="&#30000;" kvg:position="bottom"><path id="kvg:06e9c-s9" kvg:type="&#12753;" d="M40.86,64.82c0.31,0.58,0.82,1.46,0.98,2.17c1.38,5.86,2.77,20.47,3.58,31.25"/><path id="kvg:06e9c-s10" kvg:type="&#12757;a" d="M42.44,66.68c12.42-1.45,32.75-3.38,40.91-3.96c3-0.21,4.53,0.93,4.36,3.96c-0.32,5.78-2.26,18.36-4.05,28.6"/><path id="kvg:06e9c-s11" kvg:type="&#12753;a" d="M63.06,64.67c0.6,0.54,1.1,1.62,1.09,3.04c-0.02,7.25,0.2,23.53,0.2,25.91"/><path id="kvg:06e9c-s12" kvg:type="&#12752;a" d="M43.92,79.31c3.56-0.28,39.61-2.85,42.55-2.85"/><path id="kvg:06e9c-s13" kvg:type="&#12752;a" d="M45.99,95.34c9.4-0.76,26.89-2.22,37.75-2.37"/></g></g></g></g></svg>