<svg xmlns="http://www.w3.org/2000/svg" width="109" height="109" viewBox="0 0 109 109"><g xmlns:kvg="http://kanjivg.tagaini.net" id="kvg:StrokePaths_06ede" style="fill:none;stroke:#000000;stroke-width:3;stroke-linecap:round;stroke-linejoin:round;"><g id="kvg:06ede" kvg:element="&#28382;"><g id="kvg:06ede-g1" kvg:element="&#27701;" kvg:variant="true" kvg:original="&#27700;" kvg:position="left" kvg:radical="general"><path id="kvg:06ede-s1" kvg:type="&#12756;" d="M19.76,17.5c3.53,1.31,9.11,5.38,9.99,7.42"/><path id="kvg:06ede-s2" kvg:type="&#12756;" d="M13.25,36.88c4.06,1.48,10.48,6.1,11.5,8.41"/><path id="kvg:06ede-s3" kvg:type="&#12736;" d="M12.5,82.81c1.5,1.16,2.81,0.71,3.75-0.72c2.75-4.18,5.5-10.54,8-15.88"/></g><g id="kvg:06ede-g2" kvg:element="&#24111;" kvg:position="right" kvg:phon="&#24118;"><g id="kvg:06ede-g3" kvg:element="&#19991;" kvg:position="top"><g id="kvg:06ede-g4" kvg:element="&#21317;"><g id="kvg:06ede-g5" kvg:element="&#24318;"><g id="kvg:06ede-g6" kvg:element="&#24319;" kvg:part="1" kvg:variant="true"><g id="kvg:06ede-g7" kvg:element="&#21313;" kvg:part="1"><path id="kvg:06ede-s4" kvg:type="&#12752;" d="M36.75,28.56c2.62,0.69,5.27,0.47,7.62,0.19c12.38-1.49,31-3.12,44.27-3.44c2.4-0.06,4.86-0.3,7.11,0.14"/></g></g><g id="kvg:06ede-g8" kvg:element="&#24029;" kvg:part="1" kvg:variant="true" kvg:original="&#24027;"><g id="kvg:06ede-g9" kvg:element="&#20031;" kvg:variant="true"><g id="kvg:06ede-g10" kvg:element="&#24319;" kvg:part="2" kvg:variant="true"><path id="kvg:06ede-s5" kvg:type="&#12753;" d="M44.78,15.75c0.92,0.92,1.54,2.24,1.66,3.25c0.43,3.65,1.41,10.7,2.46,17.73c0.32,2.13,0.64,4.32,0.96,6.52"/></g></g></g><g id="kvg:06ede-g11" kvg:element="&#24029;" kvg:part="2" kvg:variant="true" kvg:original="&#24027;"><g id="kvg:06ede-g12" kvg:element="&#21313;" kvg:part="2"><g id="kvg:06ede-g13" kvg:element="&#24319;" kvg:part="3" kvg:variant="true"><path id="kvg:06ede-s6" kvg:type="&#12753;a" d="M62.55,14c0.97,0.97,1.66,2.48,1.66,3.5c0,4.38-0.09,12.5-0.09,20.12"/></g></g></g></g><g id="kvg:06ede-g14" kvg:element="&#24029;" kvg:part="3" kvg:variant="true" kvg:original="&#24027;"><path id="kvg:06ede-s7" kvg:type="&#12753;a" d="M81.21,13.5c1.02,1.02,1.02,2.49,0.91,3.5C81.5,23,81,29.75,80.16,37"/></g></g><g id="kvg:06ede-g15" kvg:element="&#24319;" kvg:part="4" kvg:variant="true"><path id="kvg:06ede-s8" kvg:type="&#12752;b" d="M50.67,40.25c4.06-0.59,16.48-1.79,25.33-2.46c2.42-0.18,4.49-0.32,5.94-0.4"/></g></g><g id="kvg:06ede-g16" kvg:position="bottom"><g id="kvg:06ede-g17" kvg:element="&#20886;"><path id="kvg:06ede-s9" kvg:type="&#12756;" d="M38.12,50.88c-0.12,3.32-2.91,14.26-3.9,16.24"/><path id="kvg:06ede-s10" kvg:type="&#12758;b" d="M38.86,51.92c2.85-0.38,38.64-4.79,52.8-4.79c10.59,0,1.02,6.53-0.23,7.66"/></g><g id="kvg:06ede-g18" kvg:element="&#24062;"><path id="kvg:06ede-s11" kvg:type="&#12753;" d="M45.25,62.64c0.75,0.75,1.04,1.86,1.04,3.03c0,0.54,0.08,8.49,0.08,15.58c0,2.04,0,3.92,0,5.41"/><path id="kvg:06ede-s12" kvg:type="&#12742;a" d="M46.75,64.04c3.27-0.24,32.1-3.48,34.54-3.63c2.87-0.18,3.51,2.55,3.39,4.13c-0.43,5.58-1.55,12.08-2.71,17.26c-1.41,6.35-4.59,1.06-5.69-0.16"/><path id="kvg:06ede-s13" kvg:type="&#12753;" d="M63.1,51.88c0.82,0.82,0.98,1.99,0.98,3.28c0,0.54,0.09,21.54,0,34.71c-0.03,4-0.06,6.99-0.08,8"/></g></g></g></g></g></svg>