<svg xmlns="http://www.w3.org/2000/svg" width="109" height="109" viewBox="0 0 109 109"><g xmlns:kvg="http://kanjivg.tagaini.net" id="kvg:StrokePaths_06efe" style="fill:none;stroke:#000000;stroke-width:3;stroke-linecap:round;stroke-linejoin:round;"><g id="kvg:06efe" kvg:element="&#28414;"><g id="kvg:06efe-g1" kvg:element="&#27701;" kvg:variant="true" kvg:original="&#27700;" kvg:position="left" kvg:radical="general"><path id="kvg:06efe-s1" kvg:type="&#12756;" d="M18.63,16c4.45,1.78,11.5,7.32,12.62,10.09"/><path id="kvg:06efe-s2" kvg:type="&#12756;" d="M15,42.5c4.77,1.85,12.31,7.62,13.5,10.5"/><path id="kvg:06efe-s3" kvg:type="&#12736;" d="M17.75,90.23c1.71,1.27,3.78,1.32,4.86-0.25c3.14-4.57,6.29-10.16,9.14-15.99"/></g><g id="kvg:06efe-g2" kvg:element="&#34974;" kvg:position="right"><g id="kvg:06efe-g3" kvg:element="&#21696;" kvg:part="1" kvg:position="top"><g id="kvg:06efe-g4" kvg:element="&#35023;"><g id="kvg:06efe-g5" kvg:element="&#34915;" kvg:part="1"><g id="kvg:06efe-g6" kvg:element="&#20128;"><path id="kvg:06efe-s4" kvg:type="&#12753;a" d="M63.14,11.35c0.83,0.57,2.21,2.79,2.21,3.93c0,4.21-0.26,4.42-0.11,7.98"/><path id="kvg:06efe-s5" kvg:type="&#12752;" d="M40.11,24.74c1.29,0.12,4.22,0.8,5.47,0.63c10.1-1.33,29.57-2.64,43.29-2.98c2.12-0.05,3.2,0.05,4.78,0.81"/></g></g></g></g><g id="kvg:06efe-g7" kvg:position="bottom"><g id="kvg:06efe-g8" kvg:element="&#20843;"><g id="kvg:06efe-g9" kvg:position="left"><path id="kvg:06efe-s6" kvg:type="&#12754;" d="M54.69,29.39c0.04,0.32,0.09,0.83-0.08,1.28c-1,2.71-6.74,8.65-14.6,12.29"/></g><g id="kvg:06efe-g10" kvg:position="right"><path id="kvg:06efe-s7" kvg:type="&#12751;" d="M74.44,28.33c6.26,2.19,16.17,8.98,17.74,12.38"/></g></g><g id="kvg:06efe-g11" kvg:element="&#21696;" kvg:part="2"><g id="kvg:06efe-g12" kvg:element="&#21475;"><path id="kvg:06efe-s8" kvg:type="&#12753;" d="M49.74,42.47c0.32,0.29,0.66,0.54,0.8,0.91c1.13,2.91,2.06,10.37,2.83,15.59"/><path id="kvg:06efe-s9" kvg:type="&#12757;b" d="M51.76,43.46c7.95-1.22,22.95-2.79,27.05-3.2c1.5-0.15,2.9,2.02,2.68,2.9c-0.89,3.66-1.57,5.54-3.05,11.67"/><path id="kvg:06efe-s10" kvg:type="&#12752;b" d="M54.1,57.11c4.81-0.46,20.1-1.35,26.21-1.82"/></g></g><g id="kvg:06efe-g13" kvg:element="&#34915;" kvg:part="2"><path id="kvg:06efe-s11" kvg:type="&#12754;" d="M62.53,58.41c0.08,0.56-0.08,2.08-0.65,2.75C57.75,66,50,75,35.56,82.17"/><path id="kvg:06efe-s12" kvg:type="&#12761;" d="M53.12,74.75c0.38,0.46,0.79,0.9,0.78,1.7c-0.02,10.04-0.75,15.88-0.75,17.58c0,1.7,1.93,2.17,3.1,0.89c1.18-1.27,13.26-10.07,14.83-11.34"/><path id="kvg:06efe-s13" kvg:type="&#12754;" d="M85.2,62.39c0.03,0.27,0.3,1.3,0.13,1.65c-1.05,2.22-4.34,5.4-9.69,9.82"/><path id="kvg:06efe-s14" kvg:type="&#12751;" d="M64.99,63.08c5.64,6.2,19.94,21.21,23.95,24.61c1.51,1.28,2.8,1.83,4.31,2.2"/></g></g></g></g></g></svg>