<svg xmlns="http://www.w3.org/2000/svg" width="109" height="109" viewBox="0 0 109 109"><g xmlns:kvg="http://kanjivg.tagaini.net" id="kvg:StrokePaths_06f02" style="fill:none;stroke:#000000;stroke-width:3;stroke-linecap:round;stroke-linejoin:round;"><g id="kvg:06f02" kvg:element="&#28418;"><g id="kvg:06f02-g1" kvg:element="&#27701;" kvg:variant="true" kvg:original="&#27700;" kvg:position="left" kvg:radical="general"><path id="kvg:06f02-s1" kvg:type="&#12756;" d="M18.63,14.75c3.84,1.3,9.91,5.33,10.87,7.34"/><path id="kvg:06f02-s2" kvg:type="&#12756;" d="M16.12,36.5c3.66,1.19,9.46,4.9,10.38,6.75"/><path id="kvg:06f02-s3" kvg:type="&#12736;" d="M14.12,85.01c1.5,0.72,2.84,0.04,3.74-1.27C21,79.17,25.39,71.33,28.25,65.5"/></g><g id="kvg:06f02-g2" kvg:element="&#31080;" kvg:position="right" kvg:phon="&#31080;"><g id="kvg:06f02-g3" kvg:element="&#35198;" kvg:position="top"><g id="kvg:06f02-g4" kvg:element="&#35199;" kvg:variant="true"><path id="kvg:06f02-s4" kvg:type="&#12752;" d="M41.76,17.82c1.78,0.74,4.55,0.44,6.38,0.22c7.25-0.87,22.61-2.93,30.24-3.53c2.18-0.17,4.53-0.32,6.67,0.22"/><path id="kvg:06f02-s5" kvg:type="&#12753;" d="M39.1,30.65c0.81,0.81,1.15,1.73,1.47,2.7c0.78,2.38,1.33,5.4,1.99,9.14c0.28,1.59,0.54,3.13,0.75,4.47"/><path id="kvg:06f02-s6" kvg:type="&#12757;a" d="M41.21,31.87C48.39,30.84,73,28,86.03,27.24c3.59-0.21,5.47,1.26,4.74,4.67c-0.55,2.55-1.22,5-2.23,8.18c-0.44,1.38-0.91,2.75-1.41,4.05"/><path id="kvg:06f02-s7" kvg:type="&#12753;a" d="M55.09,20.28c0.82,0.81,1.12,2.1,1.12,3.41c0,2.71,0.29,10.31,0.5,19.51"/><path id="kvg:06f02-s8" kvg:type="&#12753;a" d="M70.7,17.9c0.82,0.82,0.96,1.73,0.93,2.97C71.5,26.75,71,33,70.67,42.43"/><path id="kvg:06f02-s9" kvg:type="&#12752;a" d="M44.65,45.34c9.23-0.97,33.71-2.94,42.21-3.24"/></g></g><g id="kvg:06f02-g5" kvg:element="&#31034;" kvg:position="bottom"><g id="kvg:06f02-g6" kvg:position="top"><path id="kvg:06f02-s10" kvg:type="&#12752;" d="M45.09,55.75c2.06,0.83,4.66,0.36,6.78,0.15c6.4-0.63,17.08-1.87,23.74-2.31c2.3-0.15,4.6-0.3,6.86,0.25"/><path id="kvg:06f02-s11" kvg:type="&#12752;" d="M37.25,68.11c2.59,0.93,5.97,0.6,8.64,0.26c11.48-1.48,27.42-2.97,39.75-3.6c2.85-0.14,5.57-0.29,8.38,0.32"/></g><g id="kvg:06f02-g7" kvg:position="bottom"><path id="kvg:06f02-s12" kvg:type="&#12753;" d="M63.27,68.97c0.88,0.88,1.24,2.03,1.24,3.95C64.51,80,64.5,86.11,64.5,91c0,6.75-4.5,1.75-6.34-0.46"/><path id="kvg:06f02-s13" kvg:type="&#12754;" d="M49.8,78.32c0.13,0.84-0.19,1.71-0.82,2.26C44.75,84.25,40.75,87,33.5,91.12"/><path id="kvg:06f02-s14" kvg:type="&#12756;" d="M78.4,76.92c4.8,2.3,10.85,7.83,13.35,12.26"/></g></g></g></g></g></svg>