<svg xmlns="http://www.w3.org/2000/svg" width="109" height="109" viewBox="0 0 109 109"><g xmlns:kvg="http://kanjivg.tagaini.net" id="kvg:StrokePaths_06f2c" style="fill:none;stroke:#000000;stroke-width:3;stroke-linecap:round;stroke-linejoin:round;"><g id="kvg:06f2c" kvg:element="&#28460;"><g id="kvg:06f2c-g1" kvg:element="&#27701;" kvg:variant="true" kvg:original="&#27700;" kvg:position="left"><path id="kvg:06f2c-s1" kvg:type="&#12756;" d="M20.75,15.5c3.79,1.74,9.8,7.14,10.75,9.84"/><path id="kvg:06f2c-s2" kvg:type="&#12756;" d="M13.5,41.75c4.15,1.28,10.71,5.26,11.75,7.25"/><path id="kvg:06f2c-s3" kvg:type="&#12736;" d="M17.2,90.6c1.25,0.62,2.55,0.14,3.3-1.14C23.25,84.75,26,79,28.5,73"/></g><g id="kvg:06f2c-g2" kvg:element="&#36012;" kvg:position="right" kvg:phon="&#36012;"><g id="kvg:06f2c-g3" kvg:position="top"><path id="kvg:06f2c-s4" kvg:type="&#12752;" d="M43.04,21.82c2.71,0.31,4.76,0.28,6.7,0.12c8.39-0.68,25.8-2.42,33.76-3.12c1.87-0.16,4.12-0.2,6.15,0.23"/><path id="kvg:06f2c-s5" kvg:type="&#12753;a" d="M64.16,11.31c1.08,1.08,1.39,2.19,1.39,3.8c0,6.61,0.05,17.57,0.11,25"/><path id="kvg:06f2c-s6" kvg:type="&#12752;" d="M45.99,31.94c1.76,0.71,4.31,0.37,6.14,0.11c8.37-1.18,22.99-2.56,29.76-3.13c1.9-0.16,3.49-0.09,5.38,0.11"/><path id="kvg:06f2c-s7" kvg:type="&#12752;" d="M35.8,42.76c3.08,0.89,6.45,0.45,9.56,0.16c11.17-1.04,29.76-2.8,42.77-3.41c3.24-0.15,6.79-0.32,9.95,0.51"/></g><g id="kvg:06f2c-g4" kvg:element="&#35997;" kvg:position="bottom"><g id="kvg:06f2c-g5" kvg:element="&#30446;" kvg:position="top"><path id="kvg:06f2c-s8" kvg:type="&#12753;" d="M48.49,49.64c0.87,0.87,1.13,1.86,1.13,3.35c0,0.77-0.1,17.18-0.08,26.5c0.01,2.91,0.08,4.25,0.08,5.63"/><path id="kvg:06f2c-s9" kvg:type="&#12757;a" d="M50.56,50.94c3.19-0.18,27.46-2,30.36-2.2c2.68-0.19,4.12,1.24,4.12,3.77c0.01,5.98,0.04,18.6,0.07,25.57c0.01,2.47-0.11,5.11-0.11,5.3"/><path id="kvg:06f2c-s10" kvg:type="&#12752;a" d="M51,61.29c7-0.42,27.74-1.78,32.85-1.87"/><path id="kvg:06f2c-s11" kvg:type="&#12752;a" d="M50.76,71.77c6.33-0.1,25.37-1.64,33.56-1.78"/><path id="kvg:06f2c-s12" kvg:type="&#12752;a" d="M50.84,82.69c6.87-0.5,21.66-1.56,33.21-2.07"/></g><g id="kvg:06f2c-g6" kvg:position="bottom"><path id="kvg:06f2c-s13" kvg:type="&#12754;" d="M59.41,85.8c0.09,1.57-0.39,2.24-1.42,3.05c-3.1,2.43-11.51,7.31-17.72,10.12"/><path id="kvg:06f2c-s14" kvg:type="&#12756;" d="M74.75,86.88c7.45,3.36,16.26,9.32,18.3,12.14"/></g></g></g></g></g></svg>