<svg xmlns="http://www.w3.org/2000/svg" width="109" height="109" viewBox="0 0 109 109"><g xmlns:kvg="http://kanjivg.tagaini.net" id="kvg:StrokePaths_06f22" style="fill:none;stroke:#000000;stroke-width:3;stroke-linecap:round;stroke-linejoin:round;"><g id="kvg:06f22" kvg:element="&#28450;"><g id="kvg:06f22-g1" kvg:element="&#27701;" kvg:variant="true" kvg:original="&#27700;" kvg:position="left" kvg:radical="general"><path id="kvg:06f22-s1" kvg:type="&#12756;" d="M20,19.5c3.62,1.47,8.62,5.38,10.25,8.34"/><path id="kvg:06f22-s2" kvg:type="&#12756;" d="M15.25,44.12c4.24,1.43,10.94,5.9,12,8.12"/><path id="kvg:06f22-s3" kvg:type="&#12736;" d="M15.41,89.2c1.46,0.43,2.88-0.03,3.59-1.24c2.75-4.7,5.5-10.45,8-16.45"/></g><g id="kvg:06f22-g2" kvg:position="right" kvg:phon="&#158761;"><g id="kvg:06f22-g3" kvg:element="&#33401;" kvg:variant="true" kvg:original="&#33400;" kvg:position="top"><path id="kvg:06f22-s4" kvg:type="&#12752;" d="M36.07,23.3c2,0.54,5.08,0.53,7.07,0.27C55,21.98,71.25,20.32,83.19,19.6c3.32-0.2,5.57,0.23,7.24,0.5"/><path id="kvg:06f22-s5" kvg:type="&#12753;a" d="M49.35,13.24c1.28,0.76,1.96,1.77,2.17,2.86c1.24,6.52,1.74,10.35,2.13,12.65"/><path id="kvg:06f22-s6" kvg:type="&#12753;a" d="M71.38,9.75c0.62,1.12,1,2.52,0.63,4.18c-1.13,5.19-1.38,6.69-2.62,12.91"/></g><g id="kvg:06f22-g4" kvg:position="bottom"><g id="kvg:06f22-g5" kvg:element="&#21475;"><path id="kvg:06f22-s7" kvg:type="&#12753;" d="M42,33.71c0.77,0.77,1.54,1.65,1.73,2.54c0.82,3.88,1.52,7.8,2.23,11.75c0.18,1.01,0.36,2.02,0.54,3.02"/><path id="kvg:06f22-s8" kvg:type="&#12757;b" d="M44.63,35.3c9.5-1.3,26.87-3.37,33.86-4.12c2.88-0.31,4.83-0.11,3.87,3.11c-0.97,3.28-1.83,6.85-3.21,11.14"/><path id="kvg:06f22-s9" kvg:type="&#12752;b" d="M47.7,49.58c5.06-0.4,19.5-1.97,29.31-3.03c1.43-0.15,2.77-0.3,3.96-0.43"/></g><g id="kvg:06f22-g6" kvg:element="&#22827;"><path id="kvg:06f22-s10" kvg:type="&#12752;" d="M43.84,59.47c1.39,0.45,3.94,0.58,5.33,0.45c6.04-0.55,21.02-2.17,27.94-2.69c2.31-0.17,3.71,0.21,4.87,0.44"/><g id="kvg:06f22-g7" kvg:element="&#22823;"><path id="kvg:06f22-s11" kvg:type="&#12752;" d="M37.34,72.25c1.62,0.37,4.58,0.45,6.2,0.37c8.01-0.38,27.71-2.99,41.25-3.49c2.69-0.1,4.31,0.18,5.66,0.36"/><path id="kvg:06f22-s12" kvg:type="&#12754;" d="M61.6,34.8c0.48,0.95,0.91,2.34,0.91,4.18c0,44.02-7.39,48.27-27.77,57.52"/><path id="kvg:06f22-s13" kvg:type="&#12751;" d="M61,72c8,5.75,18.25,15.12,25.74,19.39c2.42,1.38,4.26,2.24,5.89,2.74"/></g></g></g></g></g></g></svg>