<svg xmlns="http://www.w3.org/2000/svg" width="109" height="109" viewBox="0 0 109 109"><g xmlns:kvg="http://kanjivg.tagaini.net" id="kvg:StrokePaths_06f3e" style="fill:none;stroke:#000000;stroke-width:3;stroke-linecap:round;stroke-linejoin:round;"><g id="kvg:06f3e" kvg:element="&#28478;"><g id="kvg:06f3e-g1" kvg:element="&#27701;" kvg:variant="true" kvg:original="&#27700;" kvg:position="left" kvg:radical="general"><path id="kvg:06f3e-s1" kvg:type="&#12756;" d="M17.63,14.75c4.1,1.82,10.59,7.5,11.62,10.34"/><path id="kvg:06f3e-s2" kvg:type="&#12756;" d="M14.25,42.5c4.5,1.94,11.62,7.98,12.75,11"/><path id="kvg:06f3e-s3" kvg:type="&#12736;" d="M12.75,91.73c1.71,1.27,3.78,1.32,4.86-0.25c3.14-4.57,8.29-15.66,11.14-21.49"/></g><g id="kvg:06f3e-g2" kvg:position="right"><g id="kvg:06f3e-g3" kvg:element="&#32650;" kvg:variant="true" kvg:position="top"><path id="kvg:06f3e-s4" kvg:type="&#12756;" d="M45.77,10.82c3.64,1.81,9.41,7.44,10.32,10.25"/><path id="kvg:06f3e-s5" kvg:type="&#12754;" d="M76.29,9.14c0.02,0.28,0.04,0.71-0.04,1.11c-0.49,2.35-3.3,7.5-7.16,10.65"/><path id="kvg:06f3e-s6" kvg:type="&#12752;" d="M39.15,25.17c1.16,0.36,3.29,0.42,4.43,0.36c11.18-0.53,30.53-2.26,41.29-2.76c1.92-0.09,3.08,0.17,4.05,0.36"/><path id="kvg:06f3e-s7" kvg:type="&#12753;a" d="M61.61,25.15c0.84,0.42,1.51,1.88,1.51,2.74c0,4.91-0.17,6.71-0.17,15.99"/><path id="kvg:06f3e-s8" kvg:type="&#12752;" d="M42.18,34.97c1.43,0.32,4.04,0.44,5.47,0.32C57,34.5,70.5,33.75,80.85,33.1c2.37-0.15,3.81,0.15,5,0.31"/><path id="kvg:06f3e-s9" kvg:type="&#12752;" d="M34.13,45.39c1.69,0.46,4.8,0.59,6.49,0.46c10.3-0.8,28.63-2.84,49.58-3.03c2.82-0.03,4.51,0.22,5.92,0.45"/></g><g id="kvg:06f3e-g4" kvg:element="&#27704;" kvg:position="bottom"><g id="kvg:06f3e-g5" kvg:element="&#20022;" kvg:position="top"><path id="kvg:06f3e-s10" kvg:type="&#12752;/&#12756;" d="M43.75,54c1.25,0.25,2.45,0.48,4.28,0.34c5.8-0.44,15.41-1.56,20.71-1.86c1.49-0.08,2.67-0.1,3.4-0.02"/></g><g id="kvg:06f3e-g6" kvg:element="&#27700;" kvg:variant="true" kvg:position="bottom"><path id="kvg:06f3e-s11" kvg:type="&#12742;" d="M49.19,62.29c0.02,0.08,1.28,0.73,3.13,0.53c3.43-0.37,7.33-1.5,10.68-1.5c1.77,0,2.94,0.66,2.75,2.77c-0.8,8.98-0.49,30.13-0.49,33.1c0,6.55-6.29-0.28-7.47-1.03"/><path id="kvg:06f3e-s12" kvg:type="&#12743;" d="M35.5,73.79c1.27,0.15,2.76,0.59,4.03,0.3c1.27-0.3,9.89-2.36,12-2.95c2.12-0.59,3.41,1.46,2.68,2.77c-4.96,8.84-11.96,17.34-22.94,22.28"/><path id="kvg:06f3e-s13" kvg:type="&#12754;" d="M84.25,60.47c0.06,0.29,0.11,0.8-0.13,1.18c-2.28,3.62-7.39,8.43-11.51,10.32"/><path id="kvg:06f3e-s14" kvg:type="&#12751;" d="M66.91,72.02c6.84,4.23,17.42,15.33,24.69,19.08c1.53,0.79,2.99,1.19,4.4,1.46"/></g></g></g></g></g></svg>