<svg xmlns="http://www.w3.org/2000/svg" width="109" height="109" viewBox="0 0 109 109"><g xmlns:kvg="http://kanjivg.tagaini.net" id="kvg:StrokePaths_06f31" style="fill:none;stroke:#000000;stroke-width:3;stroke-linecap:round;stroke-linejoin:round;"><g id="kvg:06f31" kvg:element="&#28465;"><g id="kvg:06f31-g1" kvg:element="&#27701;" kvg:variant="true" kvg:original="&#27700;" kvg:position="left" kvg:radical="general"><path id="kvg:06f31-s1" kvg:type="&#12756;" d="M15.38,19c3.31,1.47,8.54,6.05,9.37,8.34"/><path id="kvg:06f31-s2" kvg:type="&#12756;" d="M11.75,43c4.24,1.63,10.94,6.71,12,9.25"/><path id="kvg:06f31-s3" kvg:type="&#12736;" d="M11.5,88.98c1.88,0.52,3.03,0.07,4.11-1.5c3.14-4.57,6.29-10.41,9.14-16.24"/></g><g id="kvg:06f31-g2" kvg:position="right"><g id="kvg:06f31-g3" kvg:element="&#26463;" kvg:position="left"><g id="kvg:06f31-g4" kvg:element="&#26408;" kvg:part="1"><path id="kvg:06f31-s4" kvg:type="&#12752;" d="M32.22,26.04c1.78,0.59,4.26,0.45,5.56,0.29c5.32-0.65,15.35-1.92,20.73-2.47c1.27-0.13,3.27-0.64,4.5-0.13"/></g><g id="kvg:06f31-g5" kvg:element="&#21475;"><path id="kvg:06f31-s5" kvg:type="&#12753;" d="M33.1,37.22c0.84,0.84,1.19,2.18,1.37,3.26c0.58,3.35,1.36,8.9,1.96,13.5c0.19,1.46,0.34,2.84,0.44,4.04"/><path id="kvg:06f31-s6" kvg:type="&#12757;b" d="M35.11,38.77c6.49-1.04,16.93-2.5,21.76-3.17c2.73-0.38,4.99,0.2,4.26,3.73c-1.05,5.11-1.8,9.1-2.63,13.01"/><path id="kvg:06f31-s7" kvg:type="&#12752;b" d="M37.72,55.57c6.42-0.67,12.17-1.65,18.05-2.07c1.24-0.09,2.69-0.16,3.84-0.19"/></g><g id="kvg:06f31-g6" kvg:element="&#26408;" kvg:part="2"><path id="kvg:06f31-s8" kvg:type="&#12753;" d="M46.49,12c1.07,1.07,1.28,2.38,1.28,4c0,0.7,0.05,51.24,0.06,72.25c0,5.38,0,8.82,0,9"/><path id="kvg:06f31-s9" kvg:type="&#12754;" d="M47,56.05c0,0.95-0.58,2.56-1.17,3.74C40.75,70,35.12,78.12,27,85.75"/><path id="kvg:06f31-s10" kvg:type="&#12756;/&#12751;" d="M51.25,64.62c3.29,2.16,8.47,8.14,10.05,11.36"/></g></g><g id="kvg:06f31-g7" kvg:element="&#27424;" kvg:position="right"><g id="kvg:06f31-g8" kvg:position="top"><path id="kvg:06f31-s11" kvg:type="&#12754;" d="M77.62,13.5c0.25,1.25-0.01,2.34-0.32,3.59C75,26.25,70.62,39.5,64.53,50.94"/><path id="kvg:06f31-s12" kvg:type="&#12758;a" d="M74.59,36.2c1.66,0.3,3.28,0.04,4.78-0.32c5.37-1.26,9.76-2.19,12.91-2.89c5.59-1.24,1.22,6.51-2.57,11.36"/></g><g id="kvg:06f31-g9" kvg:position="bottom"><path id="kvg:06f31-s13" kvg:type="&#12754;" d="M75.75,45.15c0.75,0.85,1.04,2.11,0.89,3.88C75.71,60.09,72.25,85,57,96.75"/><path id="kvg:06f31-s14" kvg:type="&#12751;" d="M75.54,63.31c3.76,7.12,10.95,18.46,15.83,26.07c1.76,2.75,3.01,4.25,5.14,6.1"/></g></g></g></g></g></svg>