<svg xmlns="http://www.w3.org/2000/svg" width="109" height="109" viewBox="0 0 109 109"><g xmlns:kvg="http://kanjivg.tagaini.net" id="kvg:StrokePaths_06f5f" style="fill:none;stroke:#000000;stroke-width:3;stroke-linecap:round;stroke-linejoin:round;"><g id="kvg:06f5f" kvg:element="&#28511;"><g id="kvg:06f5f-g1" kvg:element="&#27701;" kvg:variant="true" kvg:original="&#27700;" kvg:position="left" kvg:radical="general"><path id="kvg:06f5f-s1" kvg:type="&#12756;" d="M20.62,16.62c3.93,1.63,10.14,6.69,11.12,9.22"/><path id="kvg:06f5f-s2" kvg:type="&#12756;" d="M15,40.25c3.79,1.54,9.8,6.35,10.75,8.75"/><path id="kvg:06f5f-s3" kvg:type="&#12736;" d="M14.41,89.45c1.18,0.49,2.38,0.22,3.09-0.99C20.25,83.75,23,78,25.5,72"/></g><g id="kvg:06f5f-g2" kvg:element="&#33284;" kvg:position="right" kvg:phon="&#33284;"><g id="kvg:06f5f-g3" kvg:element="&#33276;"><path id="kvg:06f5f-s4" kvg:type="&#12754;" d="M58.78,11.71c0.13,0.79-0.22,1.69-0.77,2.19c-2.78,2.56-4.99,4.19-11.72,8.26"/><path id="kvg:06f5f-s5" kvg:type="&#12753;" d="M42.58,21.82c0.87,0.87,1.42,1.97,1.61,3.21c0.69,4.48,1.49,13.4,2.38,20.72c0.21,1.76,0.39,3.32,0.51,4.51"/><path id="kvg:06f5f-s6" kvg:type="&#12757;" d="M68.91,19.12c0.79,0.14,1.44,0.36,2.53,0.17c3.66-0.66,11.38-1.75,14.42-2.15c2.21-0.29,3.61,0.1,3.13,2.54c-1.25,6.33-3.77,15.84-5.89,23.02c-0.62,2.09-1.2,3.99-1.71,5.54"/><path id="kvg:06f5f-s7" kvg:type="&#12752;" d="M46.49,34.38 c 0.79,0.14,1.42,0.42,2.53,0.42c1.11,0,12.48-1.36,13.75-1.49"/><path id="kvg:06f5f-s8" kvg:type="&#12752;c" d="M68.72,32.2c0.79,0.14,1.42,0.42,2.53,0.42c1.11,0,12.48-1.36,13.75-1.49"/><path id="kvg:06f5f-s9" kvg:type="&#12752;a" d="M47.98,47.9c14.77-1.27,24.27-2.27,33.03-2.69"/></g><g id="kvg:06f5f-g4" kvg:element="&#21241;"><g id="kvg:06f5f-g5" kvg:element="&#20031;"><path id="kvg:06f5f-s10" kvg:type="&#12754;" d="M52.53,51.75c0.12,1.11-0.25,2.36-0.89,3.32c-3.39,5.06-9.77,12.06-19.39,18.18"/></g><path id="kvg:06f5f-s11" kvg:type="&#12742;" d="M50.23,62.16c2.52,0.47,4.78,0.41,7.01,0.16c7.28-0.81,26.23-2.47,31.76-2.81c4.65-0.29,6.07,1.17,4.99,5.64c-2.2,9.13-5.54,17.68-10.28,26.97c-2.26,4.42-4.56,4.18-8.15,1"/></g><g id="kvg:06f5f-g6" kvg:element="&#28780;" kvg:variant="true" kvg:original="&#28779;"><path id="kvg:06f5f-s12" kvg:type="&#12756;" d="M35.85,77.38c0,3.15-0.35,9.5-1.29,12.12"/><path id="kvg:06f5f-s13" kvg:type="&#12756;" d="M48,73.5c2.73,2.11,5.31,7.93,6,11.22"/><path id="kvg:06f5f-s14" kvg:type="&#12756;" d="M60.38,70.62c2.28,1.83,5.88,7.5,6.45,10.34"/><path id="kvg:06f5f-s15" kvg:type="&#12756;" d="M72,68.25c2.58,1.58,6.66,6.51,7.31,8.97"/></g></g></g></g></svg>