<svg xmlns="http://www.w3.org/2000/svg" width="109" height="109" viewBox="0 0 109 109"><g xmlns:kvg="http://kanjivg.tagaini.net" id="kvg:StrokePaths_06f70" style="fill:none;stroke:#000000;stroke-width:3;stroke-linecap:round;stroke-linejoin:round;"><g id="kvg:06f70" kvg:element="&#28528;"><g id="kvg:06f70-g1" kvg:element="&#27701;" kvg:variant="true" kvg:original="&#27700;" kvg:position="left" kvg:radical="general"><path id="kvg:06f70-s1" kvg:type="&#12756;" d="M21.38,17.25c4.01,1.65,10.36,6.78,11.37,9.34"/><path id="kvg:06f70-s2" kvg:type="&#12756;" d="M15.25,44.25C19.04,45.79,25.05,50.6,26,53"/><path id="kvg:06f70-s3" kvg:type="&#12736;" d="M17.75,88.71c1.5,1.31,3.31,1.36,4.25-0.25C24.75,83.75,27.5,78,30,72"/></g><g id="kvg:06f70-g2" kvg:element="&#36020;" kvg:position="right"><g id="kvg:06f70-g3" kvg:position="top"><g id="kvg:06f70-g4" kvg:element="&#20013;"><g id="kvg:06f70-g5" kvg:element="&#21475;"><path id="kvg:06f70-s4" kvg:type="&#12753;" d="M44.34,21.17c0.34,0.19,1.01,0.62,1.11,1.08c0.77,3.34,1.19,7.07,2.27,13.39"/><path id="kvg:06f70-s5" kvg:type="&#12757;b" d="M45.74,22.74c10.26-1.49,30.37-3.63,36.6-3.89c2.43-0.1,3.24,0.9,2.97,3.46c-0.26,2.45-0.76,3.48-2.37,8.94"/><path id="kvg:06f70-s6" kvg:type="&#12752;b" d="M47.69,33.93c6.93-0.67,27.68-2.17,37.37-2.8"/></g><g id="kvg:06f70-g6" kvg:element="&#20008;"><path id="kvg:06f70-s7" kvg:type="&#12753;a" d="M63.55,10c0.96,0.51,1.73,2.26,1.73,3.31c0,9.69,0,22.08-0.19,28.44"/></g></g><path id="kvg:06f70-s8" kvg:type="&#12752;" d="M36.5,43.2c1.17,0.54,3.31,0.62,4.48,0.54c11.27-0.74,36.3-3.24,50.68-3.73c1.95-0.07,3.12,0.26,4.09,0.53"/></g><g id="kvg:06f70-g7" kvg:element="&#35997;" kvg:position="bottom"><g id="kvg:06f70-g8" kvg:element="&#30446;" kvg:position="top"><path id="kvg:06f70-s9" kvg:type="&#12753;" d="M47.76,51.05c0.57,0.84,0.97,3.13,0.97,4.25s0.05,31.31,0.05,31.87"/><path id="kvg:06f70-s10" kvg:type="&#12757;a" d="M49.25,52.56c7.75-0.81,28.3-3.66,31.24-3.83c2.45-0.14,3.85,0.64,3.32,3.49c-0.61,3.21-0.71,31.89-0.71,32.73"/><path id="kvg:06f70-s11" kvg:type="&#12752;a" d="M49.06,62.76c5.88-0.81,28.39-2.94,33.57-2.94"/><path id="kvg:06f70-s12" kvg:type="&#12752;a" d="M49.33,73c8.17-0.75,24.62-2.29,32.93-2.29"/><path id="kvg:06f70-s13" kvg:type="&#12752;a" d="M49.5,84.2c6.42,0,25.28-2.29,33.59-2.29"/></g><g id="kvg:06f70-g9" kvg:position="bottom"><path id="kvg:06f70-s14" kvg:type="&#12754;" d="M57.63,87.02c0.5,1.04-0.01,2.33-1,3.09c-2.98,2.3-11.16,6.93-17.12,9.64"/><path id="kvg:06f70-s15" kvg:type="&#12756;" d="M71.67,87.21c7.4,3.06,16.14,8.61,18.16,11.29"/></g></g></g></g></g></svg>