<svg xmlns="http://www.w3.org/2000/svg" width="109" height="109" viewBox="0 0 109 109"><g xmlns:kvg="http://kanjivg.tagaini.net" id="kvg:StrokePaths_06fa4" style="fill:none;stroke:#000000;stroke-width:3;stroke-linecap:round;stroke-linejoin:round;"><g id="kvg:06fa4" kvg:element="&#28580;"><g id="kvg:06fa4-g1" kvg:element="&#27701;" kvg:variant="true" kvg:original="&#27700;" kvg:position="left" kvg:radical="general"><path id="kvg:06fa4-s1" kvg:type="&#12756;" d="M17.88,14.5c4.72,1.6,12.19,6.6,13.37,9.09"/><path id="kvg:06fa4-s2" kvg:type="&#12756;" d="M15.25,43c4.5,1.5,11.62,6.17,12.75,8.5"/><path id="kvg:06fa4-s3" kvg:type="&#12736;" d="M14.25,90.73c1.71,1.27,3.78,1.32,4.86-0.25c3.14-4.57,7.79-14.16,10.64-19.99"/></g><g id="kvg:06fa4-g2" kvg:position="right"><g id="kvg:06fa4-g3" kvg:element="&#32594;" kvg:variant="true" kvg:original="&#32593;" kvg:position="top"><path id="kvg:06fa4-s4" kvg:type="&#12753;" d="M38.5,13.12c0.26,0.3,1.64,2.03,1.76,2.41c0.9,2.97,2.54,9.68,3.16,15.02"/><path id="kvg:06fa4-s5" kvg:type="&#12757;a" d="M40.12,15.13c10.08-1.16,42.83-3.29,45.89-3.65c1.99-0.23,3.63,1.5,3.33,3.17c-0.62,3.48-1.59,7.59-2.82,12.95"/><path id="kvg:06fa4-s6" kvg:type="&#12753;a" d="M55.76,14.46c0.18,1.98,0.9,10.64,1.08,12.87"/><path id="kvg:06fa4-s7" kvg:type="&#12753;a" d="M72.26,12.73c-0.17,3.22-0.4,9.02-0.4,13.12"/><path id="kvg:06fa4-s8" kvg:type="&#12752;a" d="M43.69,28.43c6.24-0.36,32.33-2.59,43.25-2.87"/></g><g id="kvg:06fa4-g4" kvg:element="&#24184;" kvg:position="bottom"><g id="kvg:06fa4-g5" kvg:position="top"><g id="kvg:06fa4-g6" kvg:element="&#22303;"><path id="kvg:06fa4-s9" kvg:type="&#12752;" d="M45.32,38.98c1.22,0.41,3.46,0.51,4.68,0.41c10.76-0.89,22.76-2.14,33.14-3.3c2.02-0.22,3.25,0.2,4.27,0.4"/><path id="kvg:06fa4-s10" kvg:type="&#12753;a" d="M65.31,30.2c0.07,0.25,0.98,1.29,0.98,2.86c0,10.23-0.11,14.18-0.11,16.75"/><path id="kvg:06fa4-s11" kvg:type="&#12752;" d="M36.63,51.83c1.25,0.65,3.53,0.71,4.78,0.65C51,52,78,49.25,92.01,47.98c2.07-0.19,3.32,0.31,4.36,0.63"/></g><path id="kvg:06fa4-s12" kvg:type="&#12756;" d="M50.91,53.82c2.27,1.71,5.87,7.03,6.44,9.69"/><path id="kvg:06fa4-s13" kvg:type="&#12754;" d="M77.21,51.97c0.02,0.25,0.04,0.66-0.03,1.03c-0.43,2.17-2.92,6.91-6.34,9.82"/></g><g id="kvg:06fa4-g7" kvg:element="&#24178;" kvg:position="bottom"><path id="kvg:06fa4-s14" kvg:type="&#12752;" d="M40.71,66.85c0.97,0.38,4.3,0.41,5.28,0.34c6.7-0.45,29.53-2.34,40.96-3.09c1.61-0.1,4.99,0.33,5.8,0.52"/><g id="kvg:06fa4-g8" kvg:element="&#21313;"><path id="kvg:06fa4-s15" kvg:type="&#12752;" d="M43.74,80.38c1.53,0.51,4.36,0.64,5.89,0.51c10.54-0.94,26.38-2.13,34.44-2.95c2.55-0.26,4.09,0.24,5.37,0.49"/><path id="kvg:06fa4-s16" kvg:type="&#12753;" d="M66.02,68.68c0.3,0.43,0.93,2.38,0.99,3.24c0.06,0.86-0.04,22.96-0.1,28.33"/></g></g></g></g></g></g></svg>