<svg xmlns="http://www.w3.org/2000/svg" width="109" height="109" viewBox="0 0 109 109"><g xmlns:kvg="http://kanjivg.tagaini.net" id="kvg:StrokePaths_06fc6" style="fill:none;stroke:#000000;stroke-width:3;stroke-linecap:round;stroke-linejoin:round;"><g id="kvg:06fc6" kvg:element="&#28614;"><g id="kvg:06fc6-g1" kvg:element="&#27701;" kvg:variant="true" kvg:original="&#27700;" kvg:position="left" kvg:radical="general"><path id="kvg:06fc6-s1" kvg:type="&#12756;" d="M17.88,17c4.72,1.69,12.19,6.96,13.37,9.59"/><path id="kvg:06fc6-s2" kvg:type="&#12756;" d="M15,43.25c4.77,1.63,12.31,6.71,13.5,9.25"/><path id="kvg:06fc6-s3" kvg:type="&#12736;" d="M17.25,90.23c1.71,1.27,3.78,1.32,4.86-0.25c3.14-4.57,7.79-13.16,10.64-18.99"/></g><g id="kvg:06fc6-g2" kvg:element="&#36033;" kvg:position="right"><g id="kvg:06fc6-g3" kvg:element="&#21321;" kvg:position="top"><g id="kvg:06fc6-g4" kvg:element="&#21313;" kvg:position="top"><path id="kvg:06fc6-s4" kvg:type="&#12752;" d="M46.25,20.01c0.77,0.22,2.82,0.83,4.86,0.66c8.35-0.66,23.39-2.42,35.06-3.6c2.04-0.21,2.56-0.22,3.83,0"/><path id="kvg:06fc6-s5" kvg:type="&#12753;" d="M65.19,9.25c0.75,0.35,1.33,1.54,1.36,2.25c0.21,6.25,1,14.43,0.85,18.75"/></g><g id="kvg:06fc6-g5" kvg:element="&#24318;" kvg:position="bottom"><g id="kvg:06fc6-g6" kvg:element="&#21313;" kvg:part="1"><path id="kvg:06fc6-s6" kvg:type="&#12752;" d="M40.16,37.45c1.43,0.3,3.1,0.36,4.53,0.3c13.16-0.55,31.3-2.5,46.13-3.81c2.38-0.21,3.82,0.14,5.01,0.29"/></g><g id="kvg:06fc6-g7" kvg:element="&#20031;" kvg:variant="true"><path id="kvg:06fc6-s7" kvg:type="&#12753;/&#12754;" d="M54.48,27.43c0.95,1.02,1.33,1.32,1.35,1.95c0.17,6.37,0.76,11.37,1.03,13.49"/></g><g id="kvg:06fc6-g8" kvg:element="&#21313;" kvg:part="2"><path id="kvg:06fc6-s8" kvg:type="&#12753;" d="M80.28,25.63c0.23,0.83,0.41,1.43,0.27,2.48c-0.55,4.14-1.05,8.39-1.78,12.7"/></g></g></g><g id="kvg:06fc6-g9" kvg:element="&#35997;" kvg:position="bottom"><g id="kvg:06fc6-g10" kvg:element="&#30446;" kvg:position="top"><path id="kvg:06fc6-s9" kvg:type="&#12753;" d="M48.55,47.72c0.41,0.79,1,1.37,1,2.42c0,1.05,0.19,28.02-0.3,32.42"/><path id="kvg:06fc6-s10" kvg:type="&#12757;a" d="M50.23,49.53c2.31-0.13,31.89-3.22,34-3.37c1.75-0.13,3.19,1.09,3.19,3.16c0,2.33-0.52,30.16-0.52,30.92"/><path id="kvg:06fc6-s11" kvg:type="&#12752;a" d="M49.6,59.81c6-0.93,32.47-2.86,37.25-3.03"/><path id="kvg:06fc6-s12" kvg:type="&#12752;a" d="M49.79,69.47c6.51-0.56,28.94-2.33,37.09-2.77"/><path id="kvg:06fc6-s13" kvg:type="&#12752;a" d="M49.49,80.01c8.19-1.22,29.66-2.19,37.38-2.99"/></g><g id="kvg:06fc6-g11" kvg:position="bottom"><path id="kvg:06fc6-s14" kvg:type="&#12754;" d="M56.21,84.97c0.29,1.03,0,2.42-1,3.23c-3.02,2.45-9.33,7.48-15.37,10.38"/><path id="kvg:06fc6-s15" kvg:type="&#12756;" d="M76.09,83.67c6.75,3.73,14.73,10.49,16.58,13.75"/></g></g></g></g></g></svg>