<svg xmlns="http://www.w3.org/2000/svg" width="109" height="109" viewBox="0 0 109 109"><g xmlns:kvg="http://kanjivg.tagaini.net" id="kvg:StrokePaths_06fc3" style="fill:none;stroke:#000000;stroke-width:3;stroke-linecap:round;stroke-linejoin:round;"><g id="kvg:06fc3" kvg:element="&#28611;"><g id="kvg:06fc3-g1" kvg:element="&#27701;" kvg:variant="true" kvg:original="&#27700;" kvg:position="left" kvg:radical="general"><path id="kvg:06fc3-s1" kvg:type="&#12756;" d="M20.12,18.12c3.75,1.49,9.69,6.14,10.62,8.47"/><path id="kvg:06fc3-s2" kvg:type="&#12756;" d="M16.25,38.38c3.44,1.43,8.89,5.9,9.75,8.12"/><path id="kvg:06fc3-s3" kvg:type="&#12736;" d="M15.5,86.69c1.84,0.74,3.06,0.07,3.88-1.51c4.48-8.65,6.5-13.31,10.37-21.43"/></g><g id="kvg:06fc3-g2" kvg:element="&#36786;" kvg:position="right" kvg:phon="&#36786;"><g id="kvg:06fc3-g3" kvg:element="&#26354;" kvg:position="top"><g id="kvg:06fc3-g4" kvg:element="&#26085;" kvg:part="1"><path id="kvg:06fc3-s4" kvg:type="&#12753;" d="M42.42,21.55c0.77,0.77,1.22,2,1.51,3.06c0.72,2.67,2.04,8.91,2.89,13.13c0.46,2.27,0.79,3.94,0.82,4.17"/><path id="kvg:06fc3-s5" kvg:type="&#12757;a" d="M44.24,22.75c5.89-0.88,34.14-4,38.44-4.24c2.4-0.13,3.03,1.64,2.77,3.39c-0.41,2.79-2.08,7.68-3.8,13.15c-0.41,1.29-0.81,2.35-1.21,3.68"/></g><g id="kvg:06fc3-g5" kvg:element="&#24318;" kvg:part="1" kvg:variant="true"><g id="kvg:06fc3-g6" kvg:element="&#20031;"><g id="kvg:06fc3-g7" kvg:element="&#21313;" kvg:part="1"><path id="kvg:06fc3-s6" kvg:type="&#12753;a" d="M54.41,11.89c0.91,0.91,1.36,2.05,1.43,2.98c0.41,5.63,0.91,15.88,1.59,24.01"/></g></g><path id="kvg:06fc3-s7" kvg:type="&#12753;a" d="M69.48,11.23c0.83,0.83,1.02,1.89,0.84,3.23c-1.19,8.85-2.03,18.28-2.65,23.47"/><g id="kvg:06fc3-g8" kvg:element="&#26085;" kvg:part="2"><g id="kvg:06fc3-g9" kvg:element="&#21313;" kvg:part="2"><path id="kvg:06fc3-s8" kvg:type="&#12752;a" d="M46.41,30.88c3.71-0.51,31.96-3.26,36.46-3.35"/></g></g><path id="kvg:06fc3-s9" kvg:type="&#12752;a" d="M48.31,40.69C54,40,74.11,38.01,79.76,37.72"/></g></g><g id="kvg:06fc3-g10" kvg:element="&#36784;" kvg:position="bottom"><g id="kvg:06fc3-g11" kvg:element="&#21378;"><path id="kvg:06fc3-s10" kvg:type="&#12752;" d="M43.4,49.29c2,0.71,4.29,0.67,6.35,0.5c8.35-0.71,22.15-2.01,29.13-2.66c2.42-0.23,4.69-0.34,7.11-0.11"/><path id="kvg:06fc3-s11" kvg:type="&#12754;" d="M45.01,50.39c0.8,0.8,0.74,1.79,0.67,3.12C44.75,72,39.12,84.88,28.56,92.13"/></g><path id="kvg:06fc3-s12" kvg:type="&#12752;" d="M53.76,58c1.39,0.56,3.65,0.43,5.12,0.24c4.42-0.59,11.11-1.8,15.37-2.39c1.5-0.21,3.21-0.58,4.71-0.21"/><path id="kvg:06fc3-s13" kvg:type="&#12752;" d="M46.79,68.22c2.09,0.41,4,0.39,5.6,0.21c7.12-0.82,23.4-2.8,30-3.37c2.05-0.18,4.5-0.44,6.35-0.1"/><path id="kvg:06fc3-s14" kvg:type="&#12761;" d="M53.66,71.07c1.01,1.01,1.05,2.05,1.05,3.28c0,8.94-0.01,16.27-0.01,19.15c0,1.46,1.08,2.62,2.66,1.48c1.58-1.13,8.51-6.24,11.38-8.21"/><path id="kvg:06fc3-s15" kvg:type="&#12754;" d="M83.58,70.74c0.06,0.61-0.11,1.17-0.51,1.66c-1.56,1.61-3.1,3.28-5.83,5.54"/><path id="kvg:06fc3-s16" kvg:type="&#12751;" d="M63.41,71.44C68.24,72.85,79.88,84.25,86,89.28c1.85,1.52,4.13,2.72,6.44,3.9"/></g></g></g></g></svg>