<svg xmlns="http://www.w3.org/2000/svg" width="109" height="109" viewBox="0 0 109 109"><g xmlns:kvg="http://kanjivg.tagaini.net" id="kvg:StrokePaths_06fc1" style="fill:none;stroke:#000000;stroke-width:3;stroke-linecap:round;stroke-linejoin:round;"><g id="kvg:06fc1" kvg:element="&#28609;"><g id="kvg:06fc1-g1" kvg:element="&#27701;" kvg:variant="true" kvg:original="&#27700;" kvg:position="left" kvg:radical="general"><path id="kvg:06fc1-s1" kvg:type="&#12756;" d="M19.12,17c3.66,1.29,9.46,5.33,10.38,7.34"/><path id="kvg:06fc1-s2" kvg:type="&#12756;" d="M15,41.75c3.79,1.15,9.8,4.72,10.75,6.5"/><path id="kvg:06fc1-s3" kvg:type="&#12736;" d="M13.61,85.06c1.41,0.65,2.89,0.47,3.74-0.73c2.97-4.24,5.95-9.42,8.65-14.83"/></g><g id="kvg:06fc1-g2" kvg:element="&#34560;" kvg:position="right" kvg:phon="&#34560;"><g id="kvg:06fc1-g3" kvg:element="&#32594;" kvg:variant="true" kvg:original="&#32593;" kvg:position="top"><path id="kvg:06fc1-s4" kvg:type="&#12753;" d="M41.38,16.3c0.66,0.66,1.39,1.45,1.5,2.33c0.79,2.73,1.84,6.98,3.03,11.64c0.32,1.26,0.73,2.51,0.85,3.67"/><path id="kvg:06fc1-s5" kvg:type="&#12757;a" d="M43.96,17.2c7.79-1.08,31.54-3.58,43.31-4.26c2.95-0.17,4.74,0.61,4.02,4.06c-0.54,2.58-1.55,5.9-2.6,9.3c-0.47,1.5-0.94,2.52-1.39,3.99"/><path id="kvg:06fc1-s6" kvg:type="&#12753;a" d="M57.56,16.43c0.69,0.69,1.04,1.55,1.13,2.81c0.31,4.51,0.43,6.26,0.42,10.26"/><path id="kvg:06fc1-s7" kvg:type="&#12753;a" d="M73.93,14.85c0.44,0.9,0.56,1.85,0.35,3.23c-0.61,4.08-1.71,9-1.96,10.58"/><path id="kvg:06fc1-s8" kvg:type="&#12752;a" d="M47.82,32.21c6.43-0.71,31.18-2.96,39.13-3.38"/></g><g id="kvg:06fc1-g4" kvg:position="bottom"><g id="kvg:06fc1-g5" kvg:element="&#21241;"><g id="kvg:06fc1-g6" kvg:element="&#20031;"><path id="kvg:06fc1-s9" kvg:type="&#12754;" d="M52.48,35.44c0.13,1,0.05,1.98-0.5,2.8c-2.85,4.26-9.1,11.01-15.92,15.81"/></g><path id="kvg:06fc1-s10" kvg:type="&#12742;" d="M49.42,45.97c2.33,0.53,4.79,0.06,6.94-0.28c8.68-1.36,27.45-4.27,33.5-4.81c4.48-0.4,5.95,2.1,5.47,6.61c-1.26,11.86-3.83,34.01-10.68,46.6c-3.57,6.56-5.28,6.03-8.94,0.18"/></g><g id="kvg:06fc1-g7" kvg:element="&#34411;"><g id="kvg:06fc1-g8" kvg:element="&#20013;"><g id="kvg:06fc1-g9" kvg:element="&#21475;"><path id="kvg:06fc1-s11" kvg:type="&#12753;" d="M42.14,58.51c0.8,0.8,1.34,2.07,1.57,3.12c0.52,2.42,1.11,5.56,1.85,9.35c0.21,1.09,0.43,2.24,0.63,3.44"/><path id="kvg:06fc1-s12" kvg:type="&#12757;b" d="M44.08,59.47c9.17-1.14,22.27-2.8,28.69-3.54c2.55-0.29,4.75,0.56,3.96,3.4c-0.71,2.58-1.02,4.48-2.41,9.22"/><path id="kvg:06fc1-s13" kvg:type="&#12752;b" d="M47.24,72.15c6.39-0.77,15.61-1.96,24.28-2.79c1.87-0.18,3.17-0.33,4.8-0.43"/></g><g id="kvg:06fc1-g10" kvg:element="&#20008;"><path id="kvg:06fc1-s14" kvg:type="&#12753;a" d="M58.2,47.9c1.14,1.14,1.38,2.48,1.38,4.09c0,4.39-0.01,23.64-0.01,30.3"/></g></g><path id="kvg:06fc1-s15" kvg:type="&#12736;" d="M40.55,87.64c0.79,0.7,2.04,0.9,2.81,0.65c4.27-1.41,24.91-7.7,29.82-9.1"/><path id="kvg:06fc1-s16" kvg:type="&#12756;" d="M70.84,74.54c2.83,2.33,7.3,9.58,8.01,13.21"/></g></g></g></g></g></svg>