<svg xmlns="http://www.w3.org/2000/svg" width="109" height="109" viewBox="0 0 109 109"><g xmlns:kvg="http://kanjivg.tagaini.net" id="kvg:StrokePaths_06fd8" style="fill:none;stroke:#000000;stroke-width:3;stroke-linecap:round;stroke-linejoin:round;"><g id="kvg:06fd8" kvg:element="&#28632;"><g id="kvg:06fd8-g1" kvg:element="&#27701;" kvg:variant="true" kvg:original="&#27700;" kvg:position="left" kvg:radical="general"><path id="kvg:06fd8-s1" kvg:type="&#12756;" d="M15.38,16.5c4.19,1.6,10.82,6.6,11.87,9.09"/><path id="kvg:06fd8-s2" kvg:type="&#12756;" d="M13.5,40.75C17.91,42.38,24.9,47.46,26,50"/><path id="kvg:06fd8-s3" kvg:type="&#12736;" d="M13.75,88.73c1.71,1.27,3.97,1.44,4.86-0.25C21.75,82.5,24.75,75,27.25,67.5"/></g><g id="kvg:06fd8-g2" kvg:element="&#23527;" kvg:variant="true" kvg:position="right"><g id="kvg:06fd8-g3" kvg:element="&#23424;" kvg:position="top"><path id="kvg:06fd8-s4" kvg:type="&#12753;a" d="M60.64,7.5c1.01,0.37,2.46,2.21,2.43,3.29C63,14.2,63,15.99,63,19.09"/><g id="kvg:06fd8-g4" kvg:element="&#20886;"><path id="kvg:06fd8-s5" kvg:type="&#12756;" d="M39.85,21.33c0,3.2-3.21,13.04-4.27,15.17"/><path id="kvg:06fd8-s6" kvg:type="&#12758;b" d="M39.76,22.55c12.49-2.3,44.32-4.95,50.25-5.28c9.27-0.51,1.96,6.26-0.35,8.1"/></g></g><g id="kvg:06fd8-g5" kvg:position="bottom"><g id="kvg:06fd8-g6" kvg:element="&#24515;"><path id="kvg:06fd8-s7" kvg:type="&#12756;" d="M45.51,33.25c0.31,1.48-3.07,8.04-5.53,10.51"/><path id="kvg:06fd8-s8" kvg:type="&#12767;b" d="M52.32,28.46c6.53,9.29,11.7,12.68,24.18,12.23c5.11-0.18,5.34-2.43,1.77-5.65"/><path id="kvg:06fd8-s9" kvg:type="&#12756;a" d="M63.29,27.25c1.36,3.74,3.33,7.48,4.79,1.75"/><path id="kvg:06fd8-s10" kvg:type="&#12756;" d="M77.85,26.73c4.85,1.97,8.49,3.77,12.43,9.88"/></g><g id="kvg:06fd8-g7" kvg:element="&#32594;" kvg:variant="true" kvg:original="&#32593;"><g id="kvg:06fd8-g8" kvg:element="&#30399;"><path id="kvg:06fd8-s11" kvg:type="&#12753;a" d="M43.64,48.28c0.31,0.29,0.62,0.52,0.75,0.88c1.05,2.83,1.48,9,2.2,14.09"/><path id="kvg:06fd8-s12" kvg:type="&#12757;b" d="M45,50.19c6.93-0.81,39.19-3.29,42.12-3.64c1.07-0.13,2.53,0.9,2.24,2.4c-0.6,3.13-1.46,6.45-3.06,10.92"/><path id="kvg:06fd8-s13" kvg:type="&#12753;a" d="M59.14,50.09c0.61,0.66,1.05,1.69,1.09,2.66c0.14,3.1-0.11,7.68-0.07,9.19"/><path id="kvg:06fd8-s14" kvg:type="&#12753;a" d="M72.82,49.76c0.43,1.24,0.4,1.38,0.32,2.25c-0.38,3.99-0.37,7.77-0.63,9.13"/><path id="kvg:06fd8-s15" kvg:type="&#12752;" d="M33.74,63.84c2.05,0.41,3.54,0.29,5.19,0.21C51.29,63.4,79.75,61,93.92,60.79c2.37-0.04,3.9-0.04,5.19,0.68"/></g></g><g id="kvg:06fd8-g9" kvg:element="&#19969;"><g id="kvg:06fd8-g10" kvg:element="&#19968;"><path id="kvg:06fd8-s16" kvg:type="&#12752;" d="M40.49,72.56c1.44,0.49,4.08,1.19,5.52,1.11c14.99-0.81,23.98-2.11,41.7-2.74c2.4-0.09,3.84,0.23,5.04,0.48"/></g><g id="kvg:06fd8-g11" kvg:element="&#20101;"><path id="kvg:06fd8-s17" kvg:type="&#12762;" d="M67.1,75.4c0.07,0.33,1.01,1.74,1.01,3.87c0,7.48,0.24,11.98,0.24,15.67c0,10.31-5.93,0.86-7.14-0.02"/></g></g></g></g></g></g></svg>