<svg xmlns="http://www.w3.org/2000/svg" width="109" height="109" viewBox="0 0 109 109"><g xmlns:kvg="http://kanjivg.tagaini.net" id="kvg:StrokePaths_0700b" style="fill:none;stroke:#000000;stroke-width:3;stroke-linecap:round;stroke-linejoin:round;"><g id="kvg:0700b" kvg:element="&#28683;"><g id="kvg:0700b-g1" kvg:element="&#27701;" kvg:variant="true" kvg:original="&#27700;" kvg:position="left" kvg:radical="general"><path id="kvg:0700b-s1" kvg:type="&#12756;" d="M14.38,17c4.19,1.87,10.82,7.18,11.87,10.09"/><path id="kvg:0700b-s2" kvg:type="&#12756;" d="M12.25,42.5c4.5,1.5,11.62,6.67,12.75,9"/><path id="kvg:0700b-s3" kvg:type="&#12736;" d="M12.75,90.71c2.5,0.54,3.78,0.71,4.86-1.32c3.14-5.9,6.29-12.12,9.14-19.64"/></g><g id="kvg:0700b-g2" kvg:element="&#23529;" kvg:position="right"><g id="kvg:0700b-g3" kvg:element="&#23424;" kvg:position="top"><path id="kvg:0700b-s4" kvg:type="&#12753;a" d="M60.47,10c1,0.33,2.43,1.93,2.41,2.87c-0.07,2.96-0.07,6.51-0.08,9.21"/><g id="kvg:0700b-g4" kvg:element="&#20886;"><path id="kvg:0700b-s5" kvg:type="&#12756;" d="M37.6,22.56c0,3.15-3.03,11.83-4.4,13.94"/><path id="kvg:0700b-s6" kvg:type="&#12758;b" d="M37.84,24.15c7.23-0.75,45.81-3.44,51.68-3.73c9.17-0.45,0.94,6.95-1.34,8.56"/></g></g><g id="kvg:0700b-g5" kvg:element="&#30058;" kvg:position="bottom"><g id="kvg:0700b-g6" kvg:element="&#37318;" kvg:position="top"><g id="kvg:0700b-g7" kvg:element="&#20031;"><path id="kvg:0700b-s7" kvg:type="&#12754;" d="M76.51,25.5c0.09,0.25,0.12,0.62-0.18,1.02c-2.48,3.34-15.9,6.48-31.84,9.18"/></g><g id="kvg:0700b-g8" kvg:element="&#31859;"><path id="kvg:0700b-s8" kvg:type="&#12756;" d="M43.76,39.04c2.97,1.35,7.46,5.15,8.2,7.24"/><path id="kvg:0700b-s9" kvg:type="&#12754;" d="M82.53,34.53c0.02,0.24,0.12,0.65-0.04,0.98c-1.27,2.64-3.32,5.73-7.52,9.35"/><path id="kvg:0700b-s10" kvg:type="&#12752;" d="M35.27,49.08c1.04,0.21,3.84,0.77,6.62,0.63c8.86-0.46,36.13-3.66,48.33-3.24c2.78,0.1,3.53,0.03,5.23,0.5"/><path id="kvg:0700b-s11" kvg:type="&#12753;" d="M62.35,34.88c0.88,0.28,1.59,1.68,1.59,2.28c0,3.57,0,26.87-0.18,30.43"/><path id="kvg:0700b-s12" kvg:type="&#12754;" d="M62,48.06c-5.28,8.25-17.87,18.9-29.75,23.66"/><path id="kvg:0700b-s13" kvg:type="&#12751;" d="M63.88,49.23c4.14,2.35,24,14.53,28.49,16.84c1.52,0.78,2.83,1.12,4.36,1.34"/></g></g><g id="kvg:0700b-g9" kvg:element="&#30000;" kvg:position="bottom"><path id="kvg:0700b-s14" kvg:type="&#12753;" d="M42.4,71.45c0.3,0.45,0.81,1.25,0.97,1.8c1.34,4.56,3.52,16.3,4.31,24.69"/><path id="kvg:0700b-s15" kvg:type="&#12757;a" d="M44.32,73.42c13.34-1.29,29.29-3.19,37.25-3.64c2.92-0.17,4.41,1.66,4.25,2.88C85.17,77.7,84,87.75,81.99,96.83"/><path id="kvg:0700b-s16" kvg:type="&#12753;a" d="M62.97,72.92c0.63,0.86,0.86,1.21,0.85,2.41c-0.02,5.66,0.19,17.46,0.19,19.3"/><path id="kvg:0700b-s17" kvg:type="&#12752;a" d="M46.22,83.92c3.47-0.22,35.11-2.24,37.98-2.24"/><path id="kvg:0700b-s18" kvg:type="&#12752;a" d="M48.24,95.49c9.21-0.3,23.63-2.12,34.22-2.24"/></g></g></g></g></g></svg>