<svg xmlns="http://www.w3.org/2000/svg" width="109" height="109" viewBox="0 0 109 109"><g xmlns:kvg="http://kanjivg.tagaini.net" id="kvg:StrokePaths_07009" style="fill:none;stroke:#000000;stroke-width:3;stroke-linecap:round;stroke-linejoin:round;"><g id="kvg:07009" kvg:element="&#28681;"><g id="kvg:07009-g1" kvg:element="&#27701;" kvg:variant="true" kvg:original="&#27700;" kvg:position="left" kvg:radical="general"><path id="kvg:07009-s1" kvg:type="&#12756;" d="M15.63,16c4.45,1.78,11.5,7.32,12.62,10.09"/><path id="kvg:07009-s2" kvg:type="&#12756;" d="M13.25,40.5C17.75,42,24.87,46.67,26,49"/><path id="kvg:07009-s3" kvg:type="&#12736;" d="M14.25,86.65c1.53,1.38,3.37,1.44,4.34-0.27c2.81-4.97,5.61-11.05,8.16-17.38"/></g><g id="kvg:07009-g2" kvg:element="&#23531;" kvg:position="right"><g id="kvg:07009-g3" kvg:element="&#23424;" kvg:position="top"><path id="kvg:07009-s4" kvg:type="&#12753;a" d="M61.01,10.31c0.74,0.27,1.79,1.59,1.78,2.37c-0.05,2.44-0.05,4.81-0.06,7.04"/><g id="kvg:07009-g4" kvg:element="&#20886;"><path id="kvg:07009-s5" kvg:type="&#12756;" d="M39.46,20.83c0,3.42-3.83,12.83-5.57,15.11"/><path id="kvg:07009-s6" kvg:type="&#12758;b" d="M39.23,23.38c13.27-2.13,44.28-5.45,50.6-5.8c9.86-0.54,1.05,8.28-1.41,10.21"/></g></g><g id="kvg:07009-g5" kvg:position="bottom"><g id="kvg:07009-g6" kvg:element="&#33276;"><path id="kvg:07009-s7" kvg:type="&#12754;" d="M58.32,28.96c0.04,0.22,0.17,0.64-0.08,0.88c-3.34,3.12-7.23,5.9-14.83,8.38"/><path id="kvg:07009-s8" kvg:type="&#12753;" d="M41.12,37.1c0.82,0.44,1.15,1.42,1.35,2.32c0.74,3.29,3.07,16.14,3.82,20.58"/><path id="kvg:07009-s9" kvg:type="&#12757;" d="M67.01,32.74c0.82,0.1,1.48,0.3,2.63,0.3c1.15,0,12.33-1.21,13.65-1.31c1.32-0.1,2.41,0.5,2.3,1.11c-0.99,5.86-3.29,24.15-3.46,24.55"/><path id="kvg:07009-s10" kvg:type="&#12752;" d="M44.15,46.91c3.46-0.51,13-2.56,13.83-2.56s1.98,0,2.63,0"/><path id="kvg:07009-s11" kvg:type="&#12752;" d="M66.84,43.84c0.82,0.1,1.98,0.8,3.13,0.8c1.15,0,12.5-1.81,13.82-1.91"/><path id="kvg:07009-s12" kvg:type="&#12752;" d="M45.96,57.28c2.14,0,33.06-2.31,35.53-2.41"/></g><g id="kvg:07009-g7" kvg:element="&#21241;"><g id="kvg:07009-g8" kvg:element="&#20031;"><path id="kvg:07009-s13" kvg:type="&#12754;" d="M51.11,60.5c0.05,0.42,0.11,1.07-0.1,1.67c-1.25,3.52-8.43,11.24-18.25,15.96"/></g><path id="kvg:07009-s14" kvg:type="&#12742;" d="M50.77,68.5c1.04,0.4,2.5,0.99,4.18,0.77c4.05-0.52,29.9-3.55,34.08-3.69c4.18-0.13,5.03,1.35,4.39,4.17C92,76,87.5,88.5,83.29,95.87c-1.78,3.12-4.54,3.13-6.53-1.21"/></g><g id="kvg:07009-g9" kvg:element="&#28780;" kvg:variant="true" kvg:original="&#28779;"><path id="kvg:07009-s15" kvg:type="&#12756;" d="M40.66,78.5c0,5.25-4.6,13-5.8,14.5"/><path id="kvg:07009-s16" kvg:type="&#12756;" d="M49.13,75.83c1.47,2.33,2.86,8.75,3.22,12.38"/><path id="kvg:07009-s17" kvg:type="&#12756;" d="M58.84,75.08c1.96,2.1,5.06,8.62,5.55,11.88"/><path id="kvg:07009-s18" kvg:type="&#12756;" d="M70.33,73.33c2.38,1.96,6.15,8.08,6.75,11.13"/></g></g></g></g></g></svg>