<svg xmlns="http://www.w3.org/2000/svg" width="109" height="109" viewBox="0 0 109 109"><g xmlns:kvg="http://kanjivg.tagaini.net" id="kvg:StrokePaths_0704c" style="fill:none;stroke:#000000;stroke-width:3;stroke-linecap:round;stroke-linejoin:round;"><g id="kvg:0704c" kvg:element="&#28748;"><g id="kvg:0704c-g1" kvg:element="&#27701;" kvg:variant="true" kvg:original="&#27700;" kvg:position="left" kvg:radical="general"><path id="kvg:0704c-s1" kvg:type="&#12756;" d="M19.13,16.75c4.28,1.47,11.05,6.05,12.12,8.34"/><path id="kvg:0704c-s2" kvg:type="&#12756;" d="M15.75,42.25c4.15,1.28,10.71,5.26,11.75,7.25"/><path id="kvg:0704c-s3" kvg:type="&#12736;" d="M16.25,88.23c1.71,1.27,3.78,1.32,4.86-0.25c3.14-4.57,9.29-15.16,12.14-20.99"/></g><g id="kvg:0704c-g2" kvg:position="right"><g id="kvg:0704c-g3" kvg:element="&#33401;" kvg:variant="true" kvg:original="&#33400;" kvg:position="top"><path id="kvg:0704c-s4" kvg:type="&#12752;" d="M39.76,22.2c1.29,0.46,2.78,0.55,4.07,0.46c11.83-0.83,34.28-4.16,47.91-4.23c2.15-0.01,3.43,0.22,4.5,0.44"/><path id="kvg:0704c-s5" kvg:type="&#12753;a" d="M55.04,12.32c1.02,0.9,1.34,1.18,1.45,1.73c1.02,5.21,1.38,11.07,1.67,12.96"/><path id="kvg:0704c-s6" kvg:type="&#12753;a" d="M77.66,10.28c0.18,0.76,0.41,1.33,0.21,2.26c-1.18,5.5-1.71,8.75-2.99,13.92"/></g><g id="kvg:0704c-g4" kvg:position="bottom"><g id="kvg:0704c-g5" kvg:element="&#21475;"><path id="kvg:0704c-s7" kvg:type="&#12753;" d="M44.07,33.04c0.29,0.24,0.58,0.43,0.7,0.73c0.99,2.34,2.18,7.78,2.86,11.97"/><path id="kvg:0704c-s8" kvg:type="&#12757;b" d="M45.35,34.62c6.9-1.12,13.48-2.07,16.83-2.37c1.23-0.11,1.96,0.66,1.79,1.32c-0.72,2.73-1.57,6.03-2.65,9.8"/><path id="kvg:0704c-s9" kvg:type="&#12752;b" d="M47.77,44.69c3.94-0.35,9.51-0.95,14.92-1.48"/></g><g id="kvg:0704c-g6" kvg:element="&#21475;"><path id="kvg:0704c-s10" kvg:type="&#12753;" d="M69.6,30.5c0.29,0.26,0.58,0.47,0.71,0.79c1,2.54,2.19,8.49,2.87,13.05"/><path id="kvg:0704c-s11" kvg:type="&#12757;b" d="M71.39,32.38c6.36-1.4,14.11-2.4,17.76-2.75c1.33-0.13,2.13,0.77,1.94,1.52c-0.79,3.14-1.71,5.27-2.88,9.62"/><path id="kvg:0704c-s12" kvg:type="&#12752;b" d="M73.47,42.86c4.28-0.4,10.18-1.09,16.06-1.7"/></g><g id="kvg:0704c-g7" kvg:element="&#38585;"><g id="kvg:0704c-g8" kvg:element="&#20155;" kvg:variant="true" kvg:original="&#20154;"><path id="kvg:0704c-s13" kvg:type="&#12754;" d="M53.26,49.83c0.15,1.04-0.04,2.41-0.52,3.3c-3.07,5.7-6.95,10.52-13.98,17.46"/><path id="kvg:0704c-s14" kvg:type="&#12753;" d="M49.22,59c0.63,0.59,1.11,1.89,1.16,2.8c0.37,8.16-0.51,32.45-0.2,36.7"/></g><path id="kvg:0704c-s15" kvg:type="&#12754;" d="M73.31,47.74c0.05,0.46-0.02,1.07-0.2,1.47c-1.13,2.53-2.57,4.49-5.17,7.57"/><path id="kvg:0704c-s16" kvg:type="&#12752;b" d="M51.69,59.17c7.31-0.77,37.64-3.01,40.78-3.43"/><path id="kvg:0704c-s17" kvg:type="&#12753;a" d="M71.04,60.11c0.35,0.3,0.64,0.71,0.64,1.23c0,5.3,0.04,22.75-0.17,31.09"/><path id="kvg:0704c-s18" kvg:type="&#12752;b" d="M50.67,70.74c6.9-0.64,36.34-3.01,39.3-3.36"/><path id="kvg:0704c-s19" kvg:type="&#12752;b" d="M50.44,81.5c7.28-0.54,37.39-2.65,40.51-2.95"/><path id="kvg:0704c-s20" kvg:type="&#12752;b" d="M50.33,94.21c7.31-0.77,44.52-2.79,47.65-3.21"/></g></g></g></g></g></svg>