<svg xmlns="http://www.w3.org/2000/svg" width="109" height="109" viewBox="0 0 109 109"><g xmlns:kvg="http://kanjivg.tagaini.net" id="kvg:StrokePaths_0706f" style="fill:none;stroke:#000000;stroke-width:3;stroke-linecap:round;stroke-linejoin:round;"><g id="kvg:0706f" kvg:element="&#28783;"><g id="kvg:0706f-g1" kvg:element="&#28779;" kvg:position="left" kvg:radical="general"><path id="kvg:0706f-s1" kvg:type="&#12756;" d="M11.62,39.25c1.6,3.23,3.94,12.39,4.38,15.62"/><path id="kvg:0706f-s2" kvg:type="&#12754;" d="M46.13,28.75c0.17,1.05-0.08,1.99-0.82,3.02c-0.74,1.03-8.87,9.08-12.56,11.48"/><path id="kvg:0706f-s3" kvg:type="&#12754;" d="M28.75,16.25c0.76,0.75,1.02,2,1.03,3.25C30,67.12,27,77,11,93"/><path id="kvg:0706f-s4" kvg:type="&#12756;/&#12751;" d="M30.62,63.75c5.2,2.73,11.76,11.38,13.12,15.25"/></g><g id="kvg:0706f-g2" kvg:element="&#19969;" kvg:position="right" kvg:phon="&#19969;"><g id="kvg:0706f-g3" kvg:element="&#19968;"><path id="kvg:0706f-s5" kvg:type="&#12752;" d="M52.5,26.42c1.82,0.56,5.15,0.53,6.96,0.31c9.17-1.11,23.42-3.11,31.56-3.48c3.02-0.13,4.84,0.27,6.35,0.55"/></g><g id="kvg:0706f-g4" kvg:element="&#20101;"><path id="kvg:0706f-s6" kvg:type="&#12762;" d="M78.02,27.58c1.14,1.14,1.75,2.79,1.75,5.06c0,15.86,0,51.23,0,56.8c0,8.97-6.05,2.58-9.71-0.5"/></g></g></g></g></svg>