<svg xmlns="http://www.w3.org/2000/svg" width="109" height="109" viewBox="0 0 109 109"><g xmlns:kvg="http://kanjivg.tagaini.net" id="kvg:StrokePaths_0707c" style="fill:none;stroke:#000000;stroke-width:3;stroke-linecap:round;stroke-linejoin:round;"><g id="kvg:0707c" kvg:element="&#28796;"><g id="kvg:0707c-g1" kvg:element="&#28779;" kvg:position="left" kvg:radical="general"><path id="kvg:0707c-s1" kvg:type="&#12756;" d="M14.24,38.25c1.59,3.47,3.91,13.28,4.34,16.75"/><path id="kvg:0707c-s2" kvg:type="&#12754;" d="M42.04,32c0.21,1.25,0.08,2.34-0.59,3.24c-0.67,0.9-6.6,6.92-9.98,9.01"/><path id="kvg:0707c-s3" kvg:type="&#12754;" d="M28.25,16c0.76,0.75,1.02,2.25,1.03,3.5C29.5,71,25.75,79,13,91.75"/><path id="kvg:0707c-s4" kvg:type="&#12756;/&#12751;" d="M30.5,65c4.45,2.87,10.08,11.94,11.25,16"/></g><g id="kvg:0707c-g2" kvg:element="&#21242;" kvg:position="right"><g id="kvg:0707c-g3" kvg:element="&#21241;"><g id="kvg:0707c-g4" kvg:element="&#20031;"><path id="kvg:0707c-s5" kvg:type="&#12754;" d="M65.02,15c0.05,0.77,0.1,1.98-0.09,3.09c-1.14,6.51-7.7,20.79-16.67,29.54"/></g><path id="kvg:0707c-s6" kvg:type="&#12742;" d="M58,37.37c0.85,0.67,3.48,0.68,4.89,0.45c6.61-1.07,21.58-4.6,24.97-4.82s5.16,1.75,4.9,6.5c-0.5,9.26-5.75,38.26-17.08,51.49c-2.84,3.32-6.18,0.52-8.92-2.12"/></g><g id="kvg:0707c-g5" kvg:element="&#20022;" kvg:variant="true"><path id="kvg:0707c-s7" kvg:type="&#12752;/&#12756;" d="M53.02,59.9c1.22,0.35,2.23,0.55,3.45,0.5c3.64-0.15,8.49-1,10.98-1c1.87,0,2.25,0.1,3.87,0.5"/></g></g></g></g></svg>