<svg xmlns="http://www.w3.org/2000/svg" width="109" height="109" viewBox="0 0 109 109"><g xmlns:kvg="http://kanjivg.tagaini.net" id="kvg:StrokePaths_07092" style="fill:none;stroke:#000000;stroke-width:3;stroke-linecap:round;stroke-linejoin:round;"><g id="kvg:07092" kvg:element="&#28818;"><g id="kvg:07092-g1" kvg:element="&#28779;" kvg:position="left" kvg:radical="general"><path id="kvg:07092-s1" kvg:type="&#12756;" d="M11.74,37.75c2.88,3.72,7.06,14.28,7.84,18"/><path id="kvg:07092-s2" kvg:type="&#12754;" d="M41.11,30.25c0.68,0.83,0.99,1.92,0.37,3.2c-0.61,1.28-6.93,11.31-10.01,14.3"/><path id="kvg:07092-s3" kvg:type="&#12754;" d="M26.75,14.25c0.76,0.79,1.52,1.83,1.53,3.14C28.5,71.38,24.5,82.12,12,95.75"/><path id="kvg:07092-s4" kvg:type="&#12756;/&#12751;" d="M29.75,67c4.75,3.09,10.75,12.87,12,17.25"/></g><g id="kvg:07092-g2" kvg:element="&#23569;" kvg:position="right"><g id="kvg:07092-g3" kvg:element="&#23567;"><path id="kvg:07092-s5" kvg:type="&#12762;" d="M67.6,11.75c0.07,0.36,1.57,1.87,1.64,4.15c0.35,10.95-0.22,38.9-0.22,42.63c0,9.52-6.2,0.57-7.49-0.37"/><path id="kvg:07092-s6" kvg:type="&#12754;" d="M56.95,30.19c0.04,0.49,0.14,1.29-0.07,1.96c-1.52,4.88-6.98,13.75-12.2,18.25"/><path id="kvg:07092-s7" kvg:type="&#12756;" d="M82.43,27.98C88.05,31.61,95.59,40.94,97,46.59"/></g><g id="kvg:07092-g4" kvg:element="&#20031;"><path id="kvg:07092-s8" kvg:type="&#12754;" d="M86.78,47.22c0.13,1.17,0.51,3.1-0.28,4.68C79.5,66,61,86,37.72,96.25"/></g></g></g></g></svg>