<svg xmlns="http://www.w3.org/2000/svg" width="109" height="109" viewBox="0 0 109 109"><g xmlns:kvg="http://kanjivg.tagaini.net" id="kvg:StrokePaths_070ac" style="fill:none;stroke:#000000;stroke-width:3;stroke-linecap:round;stroke-linejoin:round;"><g id="kvg:070ac" kvg:element="&#28844;"><g id="kvg:070ac-g1" kvg:element="&#28779;" kvg:position="left" kvg:radical="general"><path id="kvg:070ac-s1" kvg:type="&#12756;" d="M13.99,36.75c2.05,3.93,5.03,15.07,5.59,19"/><path id="kvg:070ac-s2" kvg:type="&#12754;" d="M42.03,31.25c0.76,0.77,0.61,2.28-0.08,3.47c-0.69,1.19-7.27,10-10.72,12.78"/><path id="kvg:070ac-s3" kvg:type="&#12754;" d="M27.75,15.75c0.76,0.75,1.52,1.75,1.53,3c0.22,51.5-3.78,60-15.78,74.75"/><path id="kvg:070ac-s4" kvg:type="&#12756;/&#12751;" d="M29.5,66.5c4.26,2.73,9.63,11.38,10.75,15.25"/></g><g id="kvg:070ac-g2" kvg:element="&#24040;" kvg:position="right"><g id="kvg:070ac-g3" kvg:element="&#21274;" kvg:part="1" kvg:variant="true"><path id="kvg:070ac-s5" kvg:type="&#12753;" d="M51.04,20.76c0.97,0.43,1.56,1.94,1.75,2.8c0.2,0.86,0,61.81-0.2,67.19"/></g><g id="kvg:070ac-g4" kvg:element="&#20108;" kvg:part="1"><path id="kvg:070ac-s6" kvg:type="&#12752;" d="M52.51,21.88c7.75-0.49,27.72-2.28,36.83-3.19c2.7-0.27,4.37-0.16,5.73,0.02"/></g><path id="kvg:070ac-s7" kvg:type="&#12757;" d="M53.39,45.16c15.39-1.52,22.46-2.41,33.16-3.24c2.62-0.2,4.05,1.39,3.49,3.98C89.16,50,88,58,87.26,63.49"/><path id="kvg:070ac-s8" kvg:type="&#12752;" d="M52.98,66.27c6.43-0.64,30.93-2.22,36.98-2.61"/><g id="kvg:070ac-g5" kvg:element="&#20108;" kvg:part="2"><g id="kvg:070ac-g6" kvg:element="&#21274;" kvg:part="2" kvg:variant="true"><path id="kvg:070ac-s9" kvg:type="&#12752;" d="M 52.868333,89.525625 c 1.74,0.34 2.86,0.57 5.23,0.35 6.6975,-1.032917 21.130833,-3.641875 29.874792,-2.966458 3.259997,-0.1 5.229997,0.29 6.859997,0.53"/></g></g></g></g></g></svg>