<svg xmlns="http://www.w3.org/2000/svg" width="109" height="109" viewBox="0 0 109 109"><g xmlns:kvg="http://kanjivg.tagaini.net" id="kvg:StrokePaths_070ae" style="fill:none;stroke:#000000;stroke-width:3;stroke-linecap:round;stroke-linejoin:round;"><g id="kvg:070ae" kvg:element="&#28846;"><g id="kvg:070ae-g1" kvg:element="&#28779;" kvg:position="left" kvg:radical="general"><path id="kvg:070ae-s1" kvg:type="&#12756;" d="M12.24,37.25c2.69,3.72,6.61,14.28,7.34,18"/><path id="kvg:070ae-s2" kvg:type="&#12754;" d="M41.58,30.25c0.71,0.87,0.54,2.53-0.11,3.88c-0.64,1.35-7.27,11.46-10.49,14.62"/><path id="kvg:070ae-s3" kvg:type="&#12754;" d="M26.75,14.25c0.76,0.78,1.52,1.83,1.53,3.14C28.5,71.2,24.5,81.92,12,95.5"/><path id="kvg:070ae-s4" kvg:type="&#12756;/&#12751;" d="M29.25,67c4.95,3,11.2,12.5,12.5,16.75"/></g><g id="kvg:070ae-g2" kvg:element="&#21253;" kvg:position="right"><g id="kvg:070ae-g3" kvg:element="&#21241;"><g id="kvg:070ae-g4" kvg:element="&#20031;"><path id="kvg:070ae-s5" kvg:type="&#12754;" d="M59.12,12.5c0.04,0.78,0.23,2.07-0.09,3.12c-2.1,6.88-7.82,19.81-15.67,29.86"/></g><path id="kvg:070ae-s6" kvg:type="&#12742;" d="M57.49,27.68c0.98,0.61,2.35,0.82,3.92,0.41s22.59-3.28,26.49-3.64c1.85-0.17,3.87,1.12,3.87,3.41c-0.02,8.64-3.02,27.14-7.6,40.21c-1.44,4.11-4.96,3.03-7.27,0.48"/></g><g id="kvg:070ae-g5" kvg:element="&#24051;"><g id="kvg:070ae-g6" kvg:element="&#24049;" kvg:variant="true"><path id="kvg:070ae-s7" kvg:type="&#12757;" d="M51.03,43.85c1.28,0.81,2.37,0.81,4.25,0.54c3.81-0.54,16.14-2.3,17.3-2.41c1.54-0.13,3.17,1.05,2.2,2.97c-1.03,2.05-1.53,6.3-2.62,12.53"/><path id="kvg:070ae-s8" kvg:type="&#12752;" d="M54.74,60.85c4.12-0.45,14.07-1.79,19.93-2.18"/><path id="kvg:070ae-s9" kvg:type="&#12767;" d="M53.52,46.02c0.48,0.98,0.52,1.39,0.51,3.09C54,54.54,54.17,74.86,54.17,79.6c0,12.4,3.08,14.58,21.57,14.58c19.26,0,21.4-1.94,21.4-13.39"/></g></g></g></g></g></svg>