<svg xmlns="http://www.w3.org/2000/svg" width="109" height="109" viewBox="0 0 109 109"><g xmlns:kvg="http://kanjivg.tagaini.net" id="kvg:StrokePaths_070b9" style="fill:none;stroke:#000000;stroke-width:3;stroke-linecap:round;stroke-linejoin:round;"><g id="kvg:070b9" kvg:element="&#28857;"><g id="kvg:070b9-g1" kvg:element="&#21344;" kvg:position="top" kvg:phon="&#21344;"><g id="kvg:070b9-g2" kvg:element="&#21340;" kvg:original="&#12488;" kvg:radical="nelson"><path id="kvg:070b9-s1" kvg:type="&#12753;a" d="M52.7,10.88c1.21,1.21,1.9,2.87,1.9,4.21c0,0.69-0.07,26.53-0.19,30.76"/><path id="kvg:070b9-s2" kvg:type="&#12752;b/&#12756;" d="M56.3,29.5c5.96-1,12.48-2.25,17.01-3.08c0.97-0.18,2.76,0,3.55,0.19"/></g><g id="kvg:070b9-g3" kvg:element="&#21475;"><path id="kvg:070b9-s3" kvg:type="&#12753;" d="M32.11,48.83c0.82,0.7,1.31,1.58,1.48,2.64c1.2,3.95,2.99,11.69,3.98,17.77c0.19,1.18,0.37,2.33,0.51,3.41"/><path id="kvg:070b9-s4" kvg:type="&#12757;b" d="M34.51,50.65c14.24-2.65,35.75-5.73,40.93-6.1c2.56-0.18,3.84,2.43,3.54,3.86c-0.68,3.25-2.51,10.97-3.63,15.49"/><path id="kvg:070b9-s5" kvg:type="&#12752;b" d="M38.5,69.44c5.17-0.54,23.33-2.7,33.76-3.87c2.12-0.24,3.92-0.43,5.25-0.54"/></g></g><g id="kvg:070b9-g4" kvg:element="&#28780;" kvg:variant="true" kvg:original="&#28779;" kvg:position="bottom" kvg:radical="tradit"><path id="kvg:070b9-s6" kvg:type="&#12756;" d="M23.25,83c0,5.79-6.74,14.34-8.5,16"/><path id="kvg:070b9-s7" kvg:type="&#12756;" d="M40.02,82.08c2.61,2.95,4.58,10.07,5.23,14.67"/><path id="kvg:070b9-s8" kvg:type="&#12756;" d="M61.5,80.5c2.4,2.73,5.71,10.72,6.31,14.97"/><path id="kvg:070b9-s9" kvg:type="&#12756;" d="M82.25,79c3.81,2.82,9.85,12.08,10.81,16.47"/></g></g></g></svg>