<svg xmlns="http://www.w3.org/2000/svg" width="109" height="109" viewBox="0 0 109 109"><g xmlns:kvg="http://kanjivg.tagaini.net" id="kvg:StrokePaths_070df" style="fill:none;stroke:#000000;stroke-width:3;stroke-linecap:round;stroke-linejoin:round;"><g id="kvg:070df" kvg:element="&#28895;"><g id="kvg:070df-g1" kvg:element="&#28779;" kvg:position="left" kvg:radical="general"><path id="kvg:070df-s1" kvg:type="&#12756;" d="M12.74,36.5c2.33,3.88,5.71,14.87,6.34,18.75"/><path id="kvg:070df-s2" kvg:type="&#12754;" d="M41,29.75c0.78,0.79,0.64,2.34-0.06,3.56c-0.7,1.23-7.44,10.33-10.96,13.19"/><path id="kvg:070df-s3" kvg:type="&#12754;" d="M26.75,18.25c0.76,0.75,1.03,2.25,1.03,3.5C27.78,67.5,24,77,10,91.5"/><path id="kvg:070df-s4" kvg:type="&#12756;/&#12751;" d="M28.25,65.5C33,68.5,39,78,40.25,82.25"/></g><g id="kvg:070df-g2" kvg:element="&#22240;" kvg:position="right"><g id="kvg:070df-g3" kvg:element="&#22231;" kvg:part="1"><path id="kvg:070df-s5" kvg:type="&#12753;" d="M48.25,20.26c0.5,1.33,1.22,2.32,1.23,4.09c0.09,13.23,0.09,43.4-0.21,68.66"/><path id="kvg:070df-s6" kvg:type="&#12757;a" d="M49.55,21.42C61.25,20.5,82.44,19,90.43,19c1.82,0,3.85,1.81,3.82,4.6c-0.17,14.6-0.66,47.96-0.33,68.58"/></g><g id="kvg:070df-g4" kvg:element="&#22823;"><path id="kvg:070df-s7" kvg:type="&#12752;" d="M56.1,42.99c1.03,0.35,3.18,0.63,3.87,0.6c7.29-0.34,15.97-0.92,24.87-1.96c0.85-0.1,2.38-0.07,3.34-0.07"/><path id="kvg:070df-s8" kvg:type="&#12754;" d="M70.57,26.63c0.25,0.7,0.38,1.51,0.37,3.02c-0.12,26.15-4.87,39.94-14.73,47.97"/><path id="kvg:070df-s9" kvg:type="&#12751;" d="M70,43.75c2.5,6.25,11.25,22.5,15.37,27.27c1.01,1.17,1.55,1.86,2.38,2.23"/></g><g id="kvg:070df-g5" kvg:element="&#22231;" kvg:part="2"><path id="kvg:070df-s10" kvg:type="&#12752;a" d="M49.4,90.23c8.65,0,32.57-1.45,44.52-1.83"/></g></g></g></g></svg>