<svg xmlns="http://www.w3.org/2000/svg" width="109" height="109" viewBox="0 0 109 109"><g xmlns:kvg="http://kanjivg.tagaini.net" id="kvg:StrokePaths_070d9" style="fill:none;stroke:#000000;stroke-width:3;stroke-linecap:round;stroke-linejoin:round;"><g id="kvg:070d9" kvg:element="&#28889;"><g id="kvg:070d9-g1" kvg:element="&#28779;" kvg:position="left" kvg:radical="general"><path id="kvg:070d9-s1" kvg:type="&#12756;" d="M9.99,36.75c2.78,4.14,6.83,15.86,7.59,20"/><path id="kvg:070d9-s2" kvg:type="&#12754;" d="M40.03,31.25c0.76,0.77,0.11,2.78-0.58,3.97c-0.69,1.19-6.77,8.5-10.22,11.28"/><path id="kvg:070d9-s3" kvg:type="&#12754;" d="M25.25,14.75c0.76,0.75,1.02,2.25,1.03,3.5C26.5,69.75,23.5,82.5,11,95.5"/><path id="kvg:070d9-s4" kvg:type="&#12756;/&#12751;" d="M27.25,70c4.55,3.36,10.3,13.99,11.5,18.75"/></g><g id="kvg:070d9-g2" kvg:element="&#21508;" kvg:position="right"><g id="kvg:070d9-g3" kvg:element="&#22786;" kvg:position="top"><path id="kvg:070d9-s5" kvg:type="&#12754;" d="M60.77,12.25c0.06,0.78,0.3,2.06-0.12,3.12C57.42,23.51,50,37.5,40.07,45.82"/><path id="kvg:070d9-s6" kvg:type="&#12743;" d="M60.76,23.41c0.33,0.04,1.76,0,2.71-0.11c3.14-0.35,11.96-1.59,16.44-2.68c3.08-0.75,4.23,0.99,3.16,2.89C75.5,37,60,58.5,38.94,67.53"/><path id="kvg:070d9-s7" kvg:type="&#12751;" d="M54.15,29.08c5.15,5.87,28.47,28.15,35.41,33.51c2.07,1.6,3.74,2.37,5.76,2.85"/></g><g id="kvg:070d9-g4" kvg:element="&#21475;" kvg:position="bottom"><path id="kvg:070d9-s8" kvg:type="&#12753;" d="M49.83,71.01c0.36,0.44,0.73,0.8,0.89,1.35c1.25,4.34,2.75,16.81,3.61,24.6"/><path id="kvg:070d9-s9" kvg:type="&#12757;b" d="M51.08,72.22C60,71.5,74,70.25,81.88,69.38c2.09-0.23,3.33,1.66,3.03,3.31c-1.23,6.82-3.02,11.38-4.85,20.8"/><path id="kvg:070d9-s10" kvg:type="&#12752;b" d="M54.01,94.63C62,94,73.5,93.5,82.87,93.38"/></g></g></g></g></svg>