<svg xmlns="http://www.w3.org/2000/svg" width="109" height="109" viewBox="0 0 109 109"><g xmlns:kvg="http://kanjivg.tagaini.net" id="kvg:StrokePaths_070dd" style="fill:none;stroke:#000000;stroke-width:3;stroke-linecap:round;stroke-linejoin:round;"><g id="kvg:070dd" kvg:element="&#28893;"><g id="kvg:070dd-g1" kvg:position="top"><g id="kvg:070dd-g2" kvg:element="&#19998;" kvg:position="top"><g id="kvg:070dd-g3" kvg:element="&#20102;"><path id="kvg:070dd-s1" kvg:type="&#12743;" d="M30.21,15.15c1.12,0.53,2.39,1.58,4.18,1.46c3.15-0.2,29.29-2.12,31.35-2.12c2.06,0,3.69,1.91,1.44,3.43C61.5,21.75,58,25,51.33,29.09"/><g id="kvg:070dd-g4" kvg:element="&#20101;"><path id="kvg:070dd-s2" kvg:type="&#12762;" d="M49.43,30.11c7.87,4.81,11.12,19.93,4.53,31.27c-3.18,5.47-4.1,0.76-6.27-0.91"/></g></g><g id="kvg:070dd-g5" kvg:element="&#27700;" kvg:partial="true"><path id="kvg:070dd-s3" kvg:type="&#12743;" d="M17.65,36.22c1.91,0.22,2.63,0.39,4.54-0.06c1.91-0.44,13.81-2.66,18.27-3.33c2.26-0.34,3.22,1.67,2.26,3.67c-2.22,4.67-13.98,19-26.85,24.67"/><path id="kvg:070dd-s4" kvg:type="&#12754;" d="M86,25.73c0.09,0.38,0.16,1.03-0.18,1.52c-3.19,4.67-10.3,10.86-16.06,13.29"/><path id="kvg:070dd-s5" kvg:type="&#12751;" d="M57.9,30.8c2.35,0.95,23.39,22.64,31.7,27.83c1.75,1.09,3.42,1.64,5.02,2.01"/></g></g><g id="kvg:070dd-g6" kvg:element="&#19968;" kvg:position="bottom"><path id="kvg:070dd-s6" kvg:type="&#12752;" d="M22.61,69.25c1.45,0.47,4.11,0.56,5.55,0.47c17.77-1.1,37.44-1.93,52.41-1.92c2.42,0,3.86,0.22,5.07,0.46"/></g></g><g id="kvg:070dd-g7" kvg:element="&#28780;" kvg:variant="true" kvg:original="&#28779;" kvg:position="bottom" kvg:radical="general"><path id="kvg:070dd-s7" kvg:type="&#12756;" d="M24,81c0,5.43-7.53,13.45-9.5,15"/><path id="kvg:070dd-s8" kvg:type="&#12756;" d="M38.77,77.33c3.49,3.46,6.81,12.99,7.69,18.38"/><path id="kvg:070dd-s9" kvg:type="&#12756;" d="M60.87,78.08c3.15,2.89,8.15,11.89,8.93,16.38"/><path id="kvg:070dd-s10" kvg:type="&#12756;" d="M81.77,78.33c4.34,3.11,11.21,12.79,12.29,17.63"/></g></g></g></svg>