<svg xmlns="http://www.w3.org/2000/svg" width="109" height="109" viewBox="0 0 109 109"><g xmlns:kvg="http://kanjivg.tagaini.net" id="kvg:StrokePaths_0716e" style="fill:none;stroke:#000000;stroke-width:3;stroke-linecap:round;stroke-linejoin:round;"><g id="kvg:0716e" kvg:element="&#29038;"><g id="kvg:0716e-g1" kvg:element="&#32773;" kvg:position="top" kvg:phon="&#32773;"><g id="kvg:0716e-g2" kvg:element="&#32770;" kvg:original="&#32769;" kvg:partial="true"><g id="kvg:0716e-g3" kvg:element="&#22303;"><path id="kvg:0716e-s1" kvg:type="&#12752;" d="M33.97,21.87c2.28,0.38,4.58,0.19,6.53,0.03c7.44-0.61,17.67-1.76,24.75-2.15c1.73-0.09,3.48-0.24,5.18,0.19"/><path id="kvg:0716e-s2" kvg:type="&#12753;a" d="M52.95,9.62c0.72,0.72,1.15,2.26,1.15,3.66c0,8.34-0.1,18.76-0.1,21.6"/><path id="kvg:0716e-s3" kvg:type="&#12752;" d="M15.57,38.6c3.12,0.83,6.48,0.88,9.67,0.46c13.76-1.81,38.63-4.19,56.38-5.45c3.74-0.27,7.51-0.19,11.18,0.78"/></g><path id="kvg:0716e-s4" kvg:type="&#12754;" d="M80.49,13.67c0.17,1.09-0.05,2.66-1.08,4.12C65.38,37.62,49,47.88,17.97,61.23"/></g><g id="kvg:0716e-g4" kvg:element="&#26085;"><path id="kvg:0716e-s5" kvg:type="&#12753;" d="M41.41,51.13c0.43,0.64,0.86,1.46,0.86,2.31c0,0.51,0.01,11.56,0.01,19.94c0,1.85,0,3.53,0,4.89"/><path id="kvg:0716e-s6" kvg:type="&#12757;a" d="M42.98,50.99c5.49-0.64,21.11-2.26,26.9-2.79c3.16-0.29,4.84,0.41,4.83,3.8c-0.01,4.01-0.05,12.94-0.07,18.88c-0.01,2.72-0.02,4.8-0.02,5.5"/><path id="kvg:0716e-s7" kvg:type="&#12752;a" d="M43.66,62.75c5.59-0.62,24.34-2.12,30.24-2.28"/><path id="kvg:0716e-s8" kvg:type="&#12752;a" d="M43.51,75.36c6.67-0.46,21.82-1.93,30.13-2.32"/></g></g><g id="kvg:0716e-g5" kvg:element="&#28780;" kvg:variant="true" kvg:original="&#28779;" kvg:position="bottom" kvg:radical="general"><path id="kvg:0716e-s9" kvg:type="&#12756;" d="M23.12,83.62c0,5.39-5.25,13.34-6.62,14.88"/><path id="kvg:0716e-s10" kvg:type="&#12756;" d="M39.77,82.58c2.47,2.71,4.82,10.17,5.44,14.38"/><path id="kvg:0716e-s11" kvg:type="&#12756;" d="M60.87,82.08c3.33,2.36,8.6,9.71,9.43,13.38"/><path id="kvg:0716e-s12" kvg:type="&#12756;" d="M82,82.88c4.43,2.62,11.45,10.77,12.56,14.84"/></g></g></g></svg>