<svg xmlns="http://www.w3.org/2000/svg" width="109" height="109" viewBox="0 0 109 109"><g xmlns:kvg="http://kanjivg.tagaini.net" id="kvg:StrokePaths_07164" style="fill:none;stroke:#000000;stroke-width:3;stroke-linecap:round;stroke-linejoin:round;"><g id="kvg:07164" kvg:element="&#29028;"><g id="kvg:07164-g1" kvg:element="&#28779;" kvg:position="left" kvg:radical="general"><path id="kvg:07164-s1" kvg:type="&#12756;" d="M13.49,38c1.13,3.47,2.78,13.28,3.09,16.75"/><path id="kvg:07164-s2" kvg:type="&#12754;" d="M38.16,31.25c0.63,0.7,0.92,1.62,0.35,2.7c-0.57,1.08-6.43,9.53-9.28,12.05"/><path id="kvg:07164-s3" kvg:type="&#12754;" d="M25.44,15.25c0.67,0.71,1.34,1.67,1.34,2.86c0.19,49.02-3.32,58.77-14.28,71.14"/><path id="kvg:07164-s4" kvg:type="&#12756;/&#12751;" d="M26.75,65c4.35,2.46,9.85,10.26,11,13.75"/></g><g id="kvg:07164-g2" kvg:element="&#26576;" kvg:position="right"><g id="kvg:07164-g3" kvg:element="&#29976;" kvg:position="top"><g id="kvg:07164-g4" kvg:element="&#24319;" kvg:part="1"><g id="kvg:07164-g5" kvg:element="&#21313;"><path id="kvg:07164-s5" kvg:type="&#12752;" d="M42.76,29.32c1.01,0.36,2.87,0.46,3.88,0.36c9.37-0.93,30.34-3.24,42.29-4.25c1.68-0.14,3.54,0.17,4.38,0.35"/><path id="kvg:07164-s6" kvg:type="&#12753;" d="M54.41,17.09c0.72,0.33,1.25,1.49,1.3,2.17c0.29,3.98,1.04,25.48,1.36,33.03"/></g><path id="kvg:07164-s7" kvg:type="&#12753;" d="M78.39,14.26c0.73,0.33,1.16,1.5,1.31,2.17c0.14,0.67-0.5,29.41-0.65,33.59"/></g><path id="kvg:07164-s8" kvg:type="&#12752;" d="M56.66,39.27c2.83-0.33,19.81-2.01,21.81-2.01"/><g id="kvg:07164-g6" kvg:element="&#24319;" kvg:part="2"><path id="kvg:07164-s9" kvg:type="&#12752;" d="M57.16,50.65c4.33-0.17,17.15-1.94,21.15-2.1"/></g></g><g id="kvg:07164-g7" kvg:element="&#26408;" kvg:position="bottom"><path id="kvg:07164-s10" kvg:type="&#12752;" d="M43.26,65.94c1.61,0.58,3.45,0.76,5.3,0.58c9.44-0.94,26.35-2.73,40.62-3.84c1.84-0.14,2.99,0.1,4.84,0.51"/><path id="kvg:07164-s11" kvg:type="&#12753;" d="M66.68,54.4c0.89,1.14,1.27,2.72,1.27,3.77c0,10.63-0.23,25.48-0.23,38.28"/><path id="kvg:07164-s12" kvg:type="&#12754;" d="M66.93,65.61C60,76,51.75,84,37.84,91.32"/><path id="kvg:07164-s13" kvg:type="&#12751;" d="M68.06,66.72c3.42,2.69,19.52,16.18,23.24,18.82c1.26,0.9,2.34,1.28,3.6,1.54"/></g></g></g></g></svg>