<svg xmlns="http://www.w3.org/2000/svg" width="109" height="109" viewBox="0 0 109 109"><g xmlns:kvg="http://kanjivg.tagaini.net" id="kvg:StrokePaths_07166" style="fill:none;stroke:#000000;stroke-width:3;stroke-linecap:round;stroke-linejoin:round;"><g id="kvg:07166" kvg:element="&#29030;"><g id="kvg:07166-g1" kvg:position="top"><g id="kvg:07166-g2" kvg:element="&#26085;" kvg:position="left"><path id="kvg:07166-s1" kvg:type="&#12753;" d="M20.27,19.08c0.73,0.92,1.01,2.1,1.01,3.46s-0.08,42.82,0,44.19"/><path id="kvg:07166-s2" kvg:type="&#12757;a" d="M21.7,20.87c1.44,0.02,15.5-1.49,16.81-1.52c1.09-0.02,2.21,0.9,2.21,2.62c0,2.03-0.34,43.66-0.34,44.68"/><path id="kvg:07166-s3" kvg:type="&#12752;a" d="M21.45,41.36c5.55-0.11,16.64-1.56,18.84-1.27"/><path id="kvg:07166-s4" kvg:type="&#12752;a" d="M21.87,63.98c3.97-0.2,12.98-0.95,17.93-0.92"/></g><g id="kvg:07166-g3" kvg:element="&#21477;" kvg:position="right"><g id="kvg:07166-g4" kvg:element="&#21241;"><g id="kvg:07166-g5" kvg:element="&#20031;"><path id="kvg:07166-s5" kvg:type="&#12754;" d="M59.96,12.35c0.04,0.59,0.18,1.54-0.07,2.37c-1.64,5.54-6.39,15.04-12.18,22.63"/></g><path id="kvg:07166-s6" kvg:type="&#12742;" d="M56.42,23.87c0.77,0.5,3.31,0.41,4.58,0.34c7.5-0.46,19.75-2.21,25.8-2.83c2.32-0.24,3.95,2.62,3.74,4.02c-1.38,9.29-4.04,27.6-8.98,38.84c-2.31,5.26-4.42,2.48-6.97-0.84"/></g><g id="kvg:07166-g6" kvg:element="&#21475;"><path id="kvg:07166-s7" kvg:type="&#12753;" d="M51.29,38.65c0.26,0.23,0.53,0.42,0.64,0.71c0.9,2.29,2.6,14.76,3.21,18.87"/><path id="kvg:07166-s8" kvg:type="&#12757;b" d="M52.29,40.3c6.71-1.05,13.78-2.07,17.39-2.41c1.32-0.13,2.7,1.09,2.42,2.27c-0.7,3.06-2.48,9.99-3.52,14.93"/><path id="kvg:07166-s9" kvg:type="&#12752;b" d="M54.98,56.33c4.25-0.39,9.76-0.92,15.59-1.52"/></g></g></g><g id="kvg:07166-g7" kvg:element="&#28780;" kvg:variant="true" kvg:original="&#28779;" kvg:position="bottom" kvg:radical="general"><path id="kvg:07166-s10" kvg:type="&#12756;" d="M22.19,79.75c0,5.7-6.54,14.12-8.25,15.75"/><path id="kvg:07166-s11" kvg:type="&#12756;" d="M38.71,77.58c3.27,3.23,6.37,12.11,7.19,17.13"/><path id="kvg:07166-s12" kvg:type="&#12756;" d="M61.82,77.58c2.98,2.89,7.69,11.89,8.43,16.38"/><path id="kvg:07166-s13" kvg:type="&#12756;" d="M82.96,76.83c4.43,3.11,11.44,12.79,12.54,17.63"/></g></g></g></svg>