<svg xmlns="http://www.w3.org/2000/svg" width="109" height="109" viewBox="0 0 109 109"><g xmlns:kvg="http://kanjivg.tagaini.net" id="kvg:StrokePaths_0716c" style="fill:none;stroke:#000000;stroke-width:3;stroke-linecap:round;stroke-linejoin:round;"><g id="kvg:0716c" kvg:element="&#29036;"><g id="kvg:0716c-g1" kvg:element="&#28779;" kvg:position="left" kvg:radical="general"><path id="kvg:0716c-s1" kvg:type="&#12756;" d="M13.24,35.25c2.33,3.52,5.71,13.48,6.34,17"/><path id="kvg:0716c-s2" kvg:type="&#12754;" d="M42.29,30.25c0.46,1.86,0.09,2.42-0.58,3.69C41.03,35.2,34.6,44.55,31.23,47.5"/><path id="kvg:0716c-s3" kvg:type="&#12754;" d="M27.31,13.25c0.72,0.79,0.96,2.37,0.97,3.69C28.49,71.26,26.25,80.5,13,95.25"/><path id="kvg:0716c-s4" kvg:type="&#12756;/&#12751;" d="M30,69c3.86,3.18,8.73,13.25,9.75,17.75"/></g><g id="kvg:0716c-g2" kvg:element="&#26140;" kvg:position="right"><g id="kvg:0716c-g3" kvg:element="&#26086;" kvg:position="top"><g id="kvg:0716c-g4" kvg:element="&#26085;"><path id="kvg:0716c-s5" kvg:type="&#12753;" d="M52.88,14.76c0.26,0.64,0.93,1.47,1.01,2.3c0.63,5.86,2.55,24.12,2.64,24.96"/><path id="kvg:0716c-s6" kvg:type="&#12757;a" d="M54.02,15.78c4.95-0.83,19.61-2.04,25.95-2.61c1.1-0.1,2.76,1.77,2.72,2.41c-0.48,7.9-2.48,24.28-2.48,24.92"/><path id="kvg:0716c-s7" kvg:type="&#12752;a" d="M55.51,27.9c4.99-0.4,24-2.27,26.22-2.27"/><path id="kvg:0716c-s8" kvg:type="&#12752;a" d="M56.83,40.08c3.99-0.62,17.98-1.94,22.95-2.47"/></g><g id="kvg:0716c-g5" kvg:element="&#19968;"><path id="kvg:0716c-s9" kvg:type="&#12752;" d="M42.85,49.6c1.71,0.48,4.86,0.64,6.57,0.48c13.49-1.29,29.33-2.58,42.72-3.55c2.85-0.21,4.57,0.23,6,0.47"/></g></g><g id="kvg:0716c-g6" kvg:element="&#21247;" kvg:position="bottom"><g id="kvg:0716c-g7" kvg:element="&#21241;"><g id="kvg:0716c-g8" kvg:element="&#20031;"><path id="kvg:0716c-s10" kvg:type="&#12754;" d="M56.19,49.65c0.04,0.58,0.08,1.48-0.07,2.31c-0.88,4.87-7.71,15.67-13.37,19.54"/></g><path id="kvg:0716c-s11" kvg:type="&#12742;" d="M55.62,61.8c0.82,0.46,1.97,0.62,3.29,0.31c1.31-0.31,25.93-2.94,29.22-3.09c3.29-0.15,4.28,1.02,3.95,4.29C91.5,69,87.75,87,78.42,97.28c-2.3,2.54-3.4-0.44-5.34-2.37"/></g><g id="kvg:0716c-g9" kvg:element="&#20031;"><path id="kvg:0716c-s12" kvg:type="&#12754;" d="M62.88,64.6c0.04,0.39,0.11,1.02-0.08,1.57c-1.88,5.42-7.03,12.95-14.44,17.4"/></g><g id="kvg:0716c-g10" kvg:element="&#20031;"><path id="kvg:0716c-s13" kvg:type="&#12754;" d="M76.38,63.39c0.09,0.83,0.19,2.13-0.18,3.31c-2.18,6.99-11.57,19.67-23.5,27.23"/></g></g></g></g></g></svg>