<svg xmlns="http://www.w3.org/2000/svg" width="109" height="109" viewBox="0 0 109 109"><g xmlns:kvg="http://kanjivg.tagaini.net" id="kvg:StrokePaths_071d2" style="fill:none;stroke:#000000;stroke-width:3;stroke-linecap:round;stroke-linejoin:round;"><g id="kvg:071d2" kvg:element="&#29138;"><g id="kvg:071d2-g1" kvg:element="&#28779;" kvg:position="left" kvg:radical="tradit"><path id="kvg:071d2-s1" kvg:type="&#12756;" d="M12.74,32c1.23,3.57,3.01,13.68,3.34,17.25"/><path id="kvg:071d2-s2" kvg:type="&#12754;" d="M40.03,26.75c0.47,1.25,0.61,2.28-0.08,3.47c-0.69,1.19-7.27,10-10.72,12.78"/><path id="kvg:071d2-s3" kvg:type="&#12754;" d="M24.46,11.25c0.66,0.81,1.31,2.4,1.32,3.75c0.19,55.81-1.53,67.25-14.03,80.5"/><path id="kvg:071d2-s4" kvg:type="&#12756;/&#12751;" d="M27,72c4.26,2.82,9.63,11.75,10.75,15.75"/></g><g id="kvg:071d2-g2" kvg:element="&#22575;" kvg:position="right"><g id="kvg:071d2-g3" kvg:position="top"><g id="kvg:071d2-g4" kvg:element="&#22303;" kvg:position="top"><path id="kvg:071d2-s5" kvg:type="&#12752;" d="M48.43,21.34c1.08,0.51,3.06,0.57,4.15,0.51c6.17-0.35,17.67-1.6,26.84-2.19c1.8-0.12,2.89,0.24,3.79,0.5"/><path id="kvg:071d2-s6" kvg:type="&#12753;a" d="M64.96,10.62c0.09,0.26,1.4,1.35,1.4,2.99c0,1.85-0.22,10.91-0.22,18.6"/><path id="kvg:071d2-s7" kvg:type="&#12752;" d="M45.6,33.34c1.19,0.59,3.38,0.68,4.57,0.59c10.38-0.72,21.89-2.21,35.09-2.99c1.99-0.12,3.18,0.28,4.17,0.58"/></g><g id="kvg:071d2-g5" kvg:position="bottom"><g id="kvg:071d2-g6" kvg:element="&#22303;" kvg:position="left"><path id="kvg:071d2-s8" kvg:type="&#12752;" d="M41.19,46.64c0.58,0.38,1.72,0.4,2.31,0.36c3.84-0.25,14.61-0.89,18.72-1.5c0.96-0.14,2.02-0.18,2.5,0.01"/><path id="kvg:071d2-s9" kvg:type="&#12753;" d="M51.63,39.5c0.84,0.5,1.51,2.23,1.51,3.25c0,7.25,0.02,10.75,0.02,14.5"/><path id="kvg:071d2-s10" kvg:type="&#12736;/&#12752;" d="M40.34,60.19c0.59,0.56,1.78,1.36,3.55,0.62c4.93-2.06,13.81-5.25,18.75-7.31"/></g><g id="kvg:071d2-g7" kvg:element="&#22303;" kvg:position="right"><path id="kvg:071d2-s11" kvg:type="&#12752;" d="M69.36,45.58c0.67,0.34,1.9,0.35,2.58,0.34c6.24-0.11,14.15-1.69,20-2.32c1.11-0.12,1.79,0.16,2.35,0.33"/><path id="kvg:071d2-s12" kvg:type="&#12753;a" d="M80.21,36.62c0.07,0.23,1.09,1.22,1.09,2.71c0,1.67-0.22,10.42-0.22,17.38"/><path id="kvg:071d2-s13" kvg:type="&#12752;" d="M67.77,57.73c0.74,0.3,2.98,0.37,3.72,0.3c6.61-0.54,17.03-1.54,23.66-1.95c1.23-0.08,1.98,0.15,2.59,0.3"/></g></g></g><g id="kvg:071d2-g8" kvg:element="&#20800;" kvg:position="bottom"><g id="kvg:071d2-g9" kvg:element="&#19968;"><path id="kvg:071d2-s14" kvg:type="&#12752;" d="M42.27,70.25c1.4,0.47,3.95,0.52,5.35,0.47c9.72-0.35,29.53-3.17,42.79-3.17c2.32,0,3.72,0.23,4.88,0.46"/></g><g id="kvg:071d2-g10" kvg:element="&#20799;" kvg:original="&#20843;"><g id="kvg:071d2-g11" kvg:element="&#20031;"><path id="kvg:071d2-s15" kvg:type="&#12754;" d="M57.3,74.5c0.06,0.58,0.1,1.5-0.11,2.33c-1.47,5.76-7.89,18.13-19.77,22.33"/></g><path id="kvg:071d2-s16" kvg:type="&#12767;" d="M69.09,72.91c0.58,1.01,1.08,2.21,1.08,3.77c0,2.09-0.02,6.23-0.02,10.98c0,8.31,2.68,8.83,13.07,8.83c10.39,0,12.06-1.94,12.06-8.63"/></g></g></g></g></g></svg>