<svg xmlns="http://www.w3.org/2000/svg" width="109" height="109" viewBox="0 0 109 109"><g xmlns:kvg="http://kanjivg.tagaini.net" id="kvg:StrokePaths_071d4" style="fill:none;stroke:#000000;stroke-width:3;stroke-linecap:round;stroke-linejoin:round;"><g id="kvg:071d4" kvg:element="&#29140;"><g id="kvg:071d4-g1" kvg:element="&#28779;" kvg:position="left" kvg:radical="general"><path id="kvg:071d4-s1" kvg:type="&#12756;" d="M12.49,36.25c2.23,3.21,5.48,12.29,6.09,15.5"/><path id="kvg:071d4-s2" kvg:type="&#12754;" d="M40.53,29.25c0.76,0.77,1.11,1.78,0.42,2.97c-0.69,1.19-7.77,10.5-11.22,13.28"/><path id="kvg:071d4-s3" kvg:type="&#12754;" d="M26.25,15.25c0.76,0.75,1.02,2.25,1.03,3.5C27.5,70.25,24.25,79.5,12,94"/><path id="kvg:071d4-s4" kvg:type="&#12756;/&#12751;" d="M28.25,70.5C33,73.32,39,82.25,40.25,86.25"/></g><g id="kvg:071d4-g2" kvg:element="&#30058;" kvg:position="right"><g id="kvg:071d4-g3" kvg:element="&#37318;" kvg:position="top"><g id="kvg:071d4-g4" kvg:element="&#20031;"><path id="kvg:071d4-s5" kvg:type="&#12754;" d="M82.6,10.75c0.1,0.24,0.14,0.57-0.19,0.95c-2.68,3.11-17.18,6.04-34.41,8.55"/></g><g id="kvg:071d4-g5" kvg:element="&#31859;"><path id="kvg:071d4-s6" kvg:type="&#12756;" d="M48.8,26.86c2.53,1.97,6.35,7.52,6.99,10.58"/><path id="kvg:071d4-s7" kvg:type="&#12754;" d="M84.51,24.97c0.02,0.26,0.11,0.7-0.04,1.06c-1.23,2.85-3.2,6.2-7.26,10.12"/><path id="kvg:071d4-s8" kvg:type="&#12752;" d="M42.49,41.6c0.65,0.15,2.39,0.4,4.12,0.45c4.77,0.15,36.97-3.39,44.56-3.09c1.73,0.07,3.17,0.35,4.25,0.5"/><path id="kvg:071d4-s9" kvg:type="&#12753;" d="M65.64,23.73c1.15,0.32,2.07,1.89,2.07,2.57c0,4.01,0,33.03-0.23,37.03"/><path id="kvg:071d4-s10" kvg:type="&#12754;" d="M67.03,41c-4.92,7.98-16.66,18.26-27.73,22.86"/><path id="kvg:071d4-s11" kvg:type="&#12751;" d="M68.86,41.31c4.39,4.94,20.33,17.31,23.26,19.43c1.25,0.9,2.31,1.29,3.56,1.55"/></g></g><g id="kvg:071d4-g6" kvg:element="&#30000;" kvg:position="bottom"><path id="kvg:071d4-s12" kvg:type="&#12753;" d="M48.81,67.35c0.32,0.54,1.4,1.89,1.5,2.58c1.44,10.32,2.37,19.55,3.06,27.82"/><path id="kvg:071d4-s13" kvg:type="&#12757;a" d="M50.4,69.67c12.61-1.39,27.14-2.42,34.66-2.9c2.76-0.18,4.17,1.24,4.02,2.55c-0.62,5.41-1.96,18.13-4.07,26.45"/><path id="kvg:071d4-s14" kvg:type="&#12753;a" d="M67.53,71.14c0.6,0.92,0.81,1.3,0.81,2.58c-0.02,6.08,0.18,17.24,0.18,19.21"/><path id="kvg:071d4-s15" kvg:type="&#12752;a" d="M52.2,81.45c3.28-0.24,32.69-2.41,35.4-2.41"/><path id="kvg:071d4-s16" kvg:type="&#12752;a" d="M53.64,94.4c8.71-0.32,21.34-1.74,31.35-1.87"/></g></g></g></g></svg>