<svg xmlns="http://www.w3.org/2000/svg" width="109" height="109" viewBox="0 0 109 109"><g xmlns:kvg="http://kanjivg.tagaini.net" id="kvg:StrokePaths_0720d" style="fill:none;stroke:#000000;stroke-width:3;stroke-linecap:round;stroke-linejoin:round;"><g id="kvg:0720d" kvg:element="&#29197;"><g id="kvg:0720d-g1" kvg:element="&#28779;" kvg:position="left" kvg:radical="general"><path id="kvg:0720d-s1" kvg:type="&#12756;" d="M10.49,35.5c2.23,3.88,5.48,14.87,6.09,18.75"/><path id="kvg:0720d-s2" kvg:type="&#12754;" d="M36.2,29.25c0.6,0.83,0.87,1.92,0.33,3.2c-0.54,1.28-6.1,11.31-8.8,14.3"/><path id="kvg:0720d-s3" kvg:type="&#12754;" d="M23.8,14.75c0.73,0.79,0.98,2.37,0.98,3.69c0.21,54.32-2.03,63.81-15.03,78.31"/><path id="kvg:0720d-s4" kvg:type="&#12756;/&#12751;" d="M25.25,71.25c4.35,2.96,9.85,12.31,11,16.5"/></g><g id="kvg:0720d-g2" kvg:element="&#27138;" kvg:position="right"><g id="kvg:0720d-g3" kvg:position="top"><g id="kvg:0720d-g4" kvg:element="&#30333;"><g id="kvg:0720d-g5" kvg:position="top"><path id="kvg:0720d-s5" kvg:type="&#12754;" d="M69.11,9.75c0.2,0.4,0.23,0.89,0.18,1.23c-0.28,2.05-2.68,6.95-4.87,9.71"/></g><g id="kvg:0720d-g6" kvg:element="&#26085;" kvg:position="bottom"><path id="kvg:0720d-s6" kvg:type="&#12753;" d="M59.66,21.82c0.84,0.93,1.42,2.37,1.42,3.43s-0.08,23.71,0.03,28.91"/><path id="kvg:0720d-s7" kvg:type="&#12757;a" d="M60.36,23.1c1.51-0.13,11.07-2.35,12.44-2.51c1.15-0.13,1.89,0.89,1.8,1.67c-0.18,1.59-0.45,22.7-0.59,31.14"/><path id="kvg:0720d-s8" kvg:type="&#12752;a" d="M61.79,37.19c2.05,0,9.63-1.48,11.95-1.48"/><path id="kvg:0720d-s9" kvg:type="&#12752;a" d="M61.56,52.53c3.02,0,7.73-1.11,11.65-1.11"/></g></g><g id="kvg:0720d-g7" kvg:element="&#24186;"><path id="kvg:0720d-s10" kvg:type="&#12764;" d="M49.7,14.87c0.19,1,0.36,1.85-0.09,2.85c-1.97,4.35-5.26,10.72-7.14,13.06c-0.39,0.48-0.37,2.32,0,2.51c1.97,1.01,4.79,1.71,7.88,2.61"/><path id="kvg:0720d-s11" kvg:type="&#12764;" d="M54.58,26.78c0.19,0.48,0.25,2.04,0,2.54C50.9,36.75,46.05,44,40.77,52.15c-0.65,1-0.38,2.09,0.38,1.77c3.14-1.33,9.44-3.63,13.48-4.9"/><path id="kvg:0720d-s12" kvg:type="&#12756;" d="M51.29,45.69c1.75,1.7,4.52,6.98,4.96,9.62"/></g><g id="kvg:0720d-g8" kvg:element="&#24186;"><path id="kvg:0720d-s13" kvg:type="&#12764;" d="M88.36,13.37c0.19,1.05,0.36,1.94-0.09,2.98c-1.97,4.56-4.76,10.22-6.64,12.68c-0.39,0.5,0.08,2.05,0.5,2.13C84,31.5,87,32.5,90.11,33.4"/><path id="kvg:0720d-s14" kvg:type="&#12764;" d="M96.46,22.03c0.22,0.51,0.3,2.19,0,2.71c-4.21,7.51-10.24,15.93-16,24.81c-0.72,1.12,0.75,1.7,1.64,1.36c3.75-1.42,6.19-3.21,11.02-4.57"/><path id="kvg:0720d-s15" kvg:type="&#12756;" d="M90.11,42.69c2.23,1.79,5.77,7.34,6.33,10.12"/></g></g><g id="kvg:0720d-g9" kvg:element="&#26408;" kvg:position="bottom"><path id="kvg:0720d-s16" kvg:type="&#12752;" d="M37.78,66.57c1.02,0.29,3.74,1.22,6.44,0.88c12.13-1.52,29.02-1.87,47.65-3.34c2.7-0.21,4.38,0.14,6.08,0.5"/><path id="kvg:0720d-s17" kvg:type="&#12753;" d="M66.74,56c0.69,0.28,1.11,1.24,1.25,1.79c0.14,0.55,0,38.77-0.14,42.21"/><path id="kvg:0720d-s18" kvg:type="&#12754;" d="M65.31,66.25C60.54,76.34,51.5,86.5,36.89,94"/><path id="kvg:0720d-s19" kvg:type="&#12751;" d="M68.81,67.11c5.03,6.64,16.48,18.64,23.74,23.59c1.43,0.98,2.47,1.71,3.8,2.05"/></g></g></g></g></svg>