<svg xmlns="http://www.w3.org/2000/svg" width="109" height="109" viewBox="0 0 109 109"><g xmlns:kvg="http://kanjivg.tagaini.net" id="kvg:StrokePaths_07232" style="fill:none;stroke:#000000;stroke-width:3;stroke-linecap:round;stroke-linejoin:round;"><g id="kvg:07232" kvg:element="&#29234;"><g id="kvg:07232-g1" kvg:element="&#11940;" kvg:variant="true" kvg:original="&#29226;" kvg:position="top" kvg:radical="general"><path id="kvg:07232-s1" kvg:type="&#12754;" d="M71.91,11.43c0.09,0.17,0.19,0.45-0.19,0.69c-2.24,1.46-16.11,4.67-33.72,6.63"/><path id="kvg:07232-s2" kvg:type="&#12754;" d="M34.21,16.43c0.04,0.66,0.08,1.71-0.08,2.66c-0.95,5.6-6.41,17.9-13.88,25.42"/><path id="kvg:07232-s3" kvg:type="&#12756;" d="M48.21,25.12c2.57,1.83,6.65,7.53,7.29,10.38"/><path id="kvg:07232-s4" kvg:type="&#12756;" d="M68.71,22.62c4.43,2.36,11.44,9.71,12.54,13.38"/></g><g id="kvg:07232-g2" kvg:position="bottom"><g id="kvg:07232-g3" kvg:element="&#21241;" kvg:part="1"><g id="kvg:07232-g4" kvg:element="&#20031;"><path id="kvg:07232-s5" kvg:type="&#12754;" d="M30.99,41.25c0.57,1.43,1.39,2.55,1.39,4.33c0,16.28-1.63,35.42-16.57,48.14"/></g></g><path id="kvg:07232-s6" kvg:type="&#12757;" d="M32.36,43.67c12.14-1.42,29.42-2.53,37.37-3.62c2.92-0.4,4.72,1.09,4.27,2.45c-1,3-2.5,7.5-3.24,10.25"/><path id="kvg:07232-s7" kvg:type="&#12757;" d="M32.36,55.42C44.5,54,67.78,53.89,75.73,52.8c2.92-0.4,4.72,1.09,4.27,2.45c-1,3-3,8-3.24,10.25"/><g id="kvg:07232-g5" kvg:element="&#21241;" kvg:part="2"><path id="kvg:07232-s8" kvg:type="&#12742;" d="M31,68.75c3.75,0,48.74-3.5,53.75-3.5c3,0,5.25,0.75,4.75,4.75c-0.66,5.26-3.5,16-7,23.75C80.27,98.68,77,97.5,74,94.5"/></g><g id="kvg:07232-g6" kvg:element="&#28780;" kvg:variant="true" kvg:original="&#28779;"><path id="kvg:07232-s9" kvg:type="&#12756;" d="M30.52,83.5C32.75,86.5,35,91,35,95.75"/><path id="kvg:07232-s10" kvg:type="&#12756;" d="M42.52,79.83c3.2,2.29,6.25,8.58,7.05,12.13"/><path id="kvg:07232-s11" kvg:type="&#12756;" d="M55.26,77.08c2.27,1.7,5.86,6.99,6.43,9.63"/><path id="kvg:07232-s12" kvg:type="&#12756;" d="M68.9,73.08c2.26,1.79,5.84,7.35,6.41,10.13"/></g></g></g></g></svg>