<svg xmlns="http://www.w3.org/2000/svg" width="109" height="109" viewBox="0 0 109 109"><g xmlns:kvg="http://kanjivg.tagaini.net" id="kvg:StrokePaths_07240" style="fill:none;stroke:#000000;stroke-width:3;stroke-linecap:round;stroke-linejoin:round;"><g id="kvg:07240" kvg:element="&#29248;"><g id="kvg:07240-g1" kvg:element="&#29247;" kvg:position="left" kvg:radical="tradit"><path id="kvg:07240-s1" kvg:type="&#12740;" d="M32.6,10.22c1.2,1.37,1.98,3.71,1.98,5.33c0,15.46-0.04,77.81-0.04,83.08"/><path id="kvg:07240-s2" kvg:type="&#12752;" d="M14.25,17.42c1.37,0.64,1.89,1.38,2.01,3.48c0.18,3.15-0.74,16.01-1.16,19.31c-0.14,1.05,0.24,2.62,2.28,2.46c7.19-0.58,12.13-1.43,16.68-2.08"/><path id="kvg:07240-s3" kvg:type="&#12754;" d="M8.8,57.68c1.33,0.14,1.61,0.57,3.17,0.47c6.66-0.42,17.69-1.92,22.34-2.15"/><path id="kvg:07240-s4" kvg:type="&#12753;" d="M20.74,57.89c0.03,0.87-0.05,2.22-0.05,3.47c0,10.64,0.57,25.89-9.17,33.23"/></g><g id="kvg:07240-g2" kvg:element="&#26408;" kvg:position="right"><path id="kvg:07240-s5" kvg:type="&#12752;" d="M42,35.2c1.57,0.49,3.36,0.65,5.17,0.49c9.21-0.8,29.94-3.6,43.87-4.54c1.79-0.12,2.92,0.08,4.72,0.43"/><path id="kvg:07240-s6" kvg:type="&#12753;" d="M65.5,11.25c1.25,1.25,2.25,3.22,2.25,4.25c0,10.5,0,77.25-0.25,83.5"/><path id="kvg:07240-s7" kvg:type="&#12754;" d="M67,34.25C62.62,48.39,50.87,70,41.75,78"/><path id="kvg:07240-s8" kvg:type="&#12751;" d="M67.75,35.5C72.5,46.75,87.5,71.25,92.86,77.57c1.57,1.85,2.53,2.86,3.89,3.43"/></g></g></g></svg>