<svg xmlns="http://www.w3.org/2000/svg" width="109" height="109" viewBox="0 0 109 109"><g xmlns:kvg="http://kanjivg.tagaini.net" id="kvg:StrokePaths_0725d" style="fill:none;stroke:#000000;stroke-width:3;stroke-linecap:round;stroke-linejoin:round;"><g id="kvg:0725d" kvg:element="&#29277;"><g id="kvg:0725d-g1" kvg:element="&#29275;" kvg:variant="true" kvg:position="left" kvg:radical="general"><path id="kvg:0725d-s1" kvg:type="&#12754;" d="M23.77,27.14c0.03,0.61,0.07,1.57-0.07,2.44c-0.85,5.15-5.72,16.46-12.39,23.38"/><path id="kvg:0725d-s2" kvg:type="&#12752;" d="M22.75,40.75c6.75-0.75,21-4,22.25-4s2.5,0,3.75,0.25"/><path id="kvg:0725d-s3" kvg:type="&#12753;" d="M34.87,12.75c1.09,0.5,1.74,2.25,1.96,3.25c0.22,1,0,74.75-0.22,81"/><path id="kvg:0725d-s4" kvg:type="&#12736;" d="M14.5,70.45c1.99,1.31,3.64,1.87,5.63,0.75C21.3,70.54,41.04,59.18,46,56"/></g><g id="kvg:0725d-g2" kvg:element="&#21269;" kvg:position="right"><path id="kvg:0725d-s5" kvg:type="&#12754;" d="M91.93,31.96c0.21,0.37,0.35,1.44-0.2,2.01C88.16,37.63,75.9,47.74,64.36,51.5"/><path id="kvg:0725d-s6" kvg:type="&#12767;" d="M59.5,15.25c1.2,1.28,1.28,2.14,1.68,3.85c0.4,1.71,0.13,54.97,0.13,66.62s9.76,9.79,18.07,9.79C95.72,95.51,96,92.26,96,84.09"/></g></g></g></svg>