<svg xmlns="http://www.w3.org/2000/svg" width="109" height="109" viewBox="0 0 109 109"><g xmlns:kvg="http://kanjivg.tagaini.net" id="kvg:StrokePaths_07274" style="fill:none;stroke:#000000;stroke-width:3;stroke-linecap:round;stroke-linejoin:round;"><g id="kvg:07274" kvg:element="&#29300;"><g id="kvg:07274-g1" kvg:element="&#29275;" kvg:variant="true" kvg:position="left" kvg:radical="general"><path id="kvg:07274-s1" kvg:type="&#12754;" d="M20.28,23.14c0.03,0.66,0.05,1.71-0.05,2.66c-0.61,5.6-4.12,17.89-8.92,25.42"/><path id="kvg:07274-s2" kvg:type="&#12752;" d="M19.75,39.25c1.03,0.07,2.15,0.17,3.28,0.02c7.47-1.02,13.41-2.42,14.47-2.52c1.4-0.13,2.5,0,3.75,0.25"/><path id="kvg:07274-s3" kvg:type="&#12753;" d="M28.87,12.25c1.09,0.5,1.74,2.25,1.96,3.25c0.22,1,0,76.75-0.22,83"/><path id="kvg:07274-s4" kvg:type="&#12736;" d="M11.5,67.1c1.86,1.17,3.41,1.16,5.27,0.17c1.1-0.59,19.58-10.19,24.23-13.02"/></g><g id="kvg:07274-g2" kvg:position="right"><g id="kvg:07274-g3" kvg:element="&#27663;" kvg:position="top"><path id="kvg:07274-s5" kvg:type="&#12754;" d="M80.23,13.36c0.08,0.4-0.22,1.61-0.67,2.12c-3.31,3.77-11.09,9.6-26.96,15.32"/><path id="kvg:07274-s6" kvg:type="&#12761;" d="M46.66,28.45c1.09,1.05,2.07,2.07,2.07,4.04c0,1.97-0.17,41.44-0.17,44.51c0,3.07,0.17,3.94,2.4,1.75c2.23-2.19,13.06-9.67,14.43-10.98"/><path id="kvg:07274-s7" kvg:type="&#12752;" d="M49.03,48.59c0.7,0.14,1.98-0.14,2.67-0.19c15.15-1.16,23.54-2.79,35.61-4.23c1.14-0.14,4.02-0.26,4.6-0.19"/><path id="kvg:07274-s8" kvg:type="&#12738;" d="M67.15,27.57C67.75,28,68.93,30.17,69,31c1.5,20.5,5.75,46.75,21.91,62.1c5.48,5.21,4.11-4.07,4.11-6.7"/></g><g id="kvg:07274-g4" kvg:element="&#19968;" kvg:position="bottom"><path id="kvg:07274-s9" kvg:type="&#12752;" d="M43.25,92.39c0.94,0.38,2.66,0.49,3.6,0.38c5.98-0.66,23.15-3.02,29.61-2.88c1.56,0.03,2.5,0.18,3.29,0.37"/></g></g></g></g></svg>