<svg xmlns="http://www.w3.org/2000/svg" width="109" height="109" viewBox="0 0 109 109"><g xmlns:kvg="http://kanjivg.tagaini.net" id="kvg:StrokePaths_07279" style="fill:none;stroke:#000000;stroke-width:3;stroke-linecap:round;stroke-linejoin:round;"><g id="kvg:07279" kvg:element="&#29305;"><g id="kvg:07279-g1" kvg:element="&#29275;" kvg:variant="true" kvg:position="left" kvg:radical="general"><path id="kvg:07279-s1" kvg:type="&#12754;" d="M22.03,26.39c0.22,0.73,0.4,1.84,0.2,2.69c-1.35,5.79-4.6,15.04-9.42,23.38"/><path id="kvg:07279-s2" kvg:type="&#12752;" d="M21.25,41.5c1.25,0.12,2.07,0.06,3.28-0.12c7.6-1.13,12.97-2.13,17.22-2.88c1.23-0.22,3.25-0.38,4.5,0"/><path id="kvg:07279-s3" kvg:type="&#12753;" d="M31.87,15c0.94,0.94,1.46,2.62,1.46,4c0,0.87,0.02,51.18,0.03,70.87c0,3.48,0,6,0,7.13"/><path id="kvg:07279-s4" kvg:type="&#12736;" d="M13.08,71.24c1.17,0.46,2.29,0.46,3.55-0.29c1.12-0.67,20.1-12.21,24.87-15.44"/></g><g id="kvg:07279-g2" kvg:element="&#23546;" kvg:position="right" kvg:phon="&#23546;"><g id="kvg:07279-g3" kvg:element="&#22303;" kvg:position="top"><path id="kvg:07279-s5" kvg:type="&#12752;" d="M52.38,27.53c1.37,0.31,3.9,0.21,5.25,0.06c5.54-0.6,19.12-2.59,26.33-3.06c2.27-0.15,3.65,0.15,4.79,0.3"/><path id="kvg:07279-s6" kvg:type="&#12753;a" d="M67.92,11.62c0.86,0.85,1.27,1.98,1.27,3.5c0,9.89-0.11,23.64-0.11,26.85"/><path id="kvg:07279-s7" kvg:type="&#12752;" d="M46.13,45.1c1.77,0.44,5.05,0.44,6.8,0.19c11.58-1.66,28.37-3.54,39.25-4.24c2.95-0.19,4.73-0.04,6.21,0.18"/></g><g id="kvg:07279-g4" kvg:element="&#23544;" kvg:position="bottom"><path id="kvg:07279-s8" kvg:type="&#12752;" d="M49.38,60.99c1.56,0.46,4.43,0.66,5.97,0.46c13.15-1.7,25.78-3.2,35.58-4.14c2.58-0.25,4.4-0.03,5.7,0.19"/><path id="kvg:07279-s9" kvg:type="&#12762;" d="M80.07,45.33c0.99,0.99,1.65,2.29,1.65,3.81c0,12.6,0.1,39.35,0.1,44.02c0,9.08-5.96,1.47-7.96,0.21"/><path id="kvg:07279-s10" kvg:type="&#12756;" d="M60.75,70.25c2.03,1.46,5.24,5.99,5.75,8.25"/></g></g></g></g></svg>