<svg xmlns="http://www.w3.org/2000/svg" width="109" height="109" viewBox="0 0 109 109"><g xmlns:kvg="http://kanjivg.tagaini.net" id="kvg:StrokePaths_07272" style="fill:none;stroke:#000000;stroke-width:3;stroke-linecap:round;stroke-linejoin:round;"><g id="kvg:07272" kvg:element="&#29298;"><g id="kvg:07272-g1" kvg:element="&#29275;" kvg:variant="true" kvg:position="left" kvg:radical="general"><path id="kvg:07272-s1" kvg:type="&#12754;" d="M22.02,27.89c0.03,0.6,0.22,1.58-0.06,2.4c-2.21,6.33-5.09,13.21-11.15,20.18"/><path id="kvg:07272-s2" kvg:type="&#12752;" d="M22.75,38.5c1.25,0,2.52,0.02,3.78-0.19c7.72-1.31,12.22-2.23,15.97-3.06c1.22-0.27,2.75-0.5,4-0.25"/><path id="kvg:07272-s3" kvg:type="&#12753;" d="M33.62,12c1.25,1.25,1.46,2.5,1.46,4c0,0.67,0.04,51.85,0.04,73.75c0,5.79,0,9.53-0.01,9.75"/><path id="kvg:07272-s4" kvg:type="&#12736;" d="M12.97,71.1c1.53,0.9,2.66,0.46,4.19-0.82c1.02-0.85,18.75-15.95,23.09-20.03"/></g><g id="kvg:07272-g2" kvg:element="&#29983;" kvg:position="right" kvg:phon="&#29983;"><path id="kvg:07272-s5" kvg:type="&#12754;" d="M57.64,23.09c0.23,0.91,0.2,1.79-0.06,2.75c-2.34,8.78-4.09,15.78-10,25.31"/><path id="kvg:07272-s6" kvg:type="&#12752;" d="M57.8,38.75c1.94,0.21,3.67,0.1,5.59-0.12c5.54-0.65,17.06-2.22,23.64-3.05c2.11-0.26,4.39-0.34,6.52-0.1"/><path id="kvg:07272-s7" kvg:type="&#12753;a" d="M70.24,11.63c1.63,1.63,1.9,3.24,1.9,5.49c0,6-0.01,65.48-0.01,72.75"/><path id="kvg:07272-s8" kvg:type="&#12752;" d="M52.8,63.83c2.08,0.54,4.32,0.51,5.95,0.22c8.12-1.42,20.23-2.34,27.28-3c2.21-0.21,4.16-0.11,6.35,0.07"/><path id="kvg:07272-s9" kvg:type="&#12752;" d="M44.5,91.74c2.41,0.74,4.79,0.86,7.26,0.64c11.12-1,30.65-1.94,39.74-2.45c3.12-0.17,6.12,0.2,9.11,1.1"/></g></g></g></svg>