<svg xmlns="http://www.w3.org/2000/svg" width="109" height="109" viewBox="0 0 109 109"><g xmlns:kvg="http://kanjivg.tagaini.net" id="kvg:StrokePaths_0727e" style="fill:none;stroke:#000000;stroke-width:3;stroke-linecap:round;stroke-linejoin:round;"><g id="kvg:0727e" kvg:element="&#29310;"><g id="kvg:0727e-g1" kvg:element="&#29275;" kvg:variant="true" kvg:position="left" kvg:radical="general"><path id="kvg:0727e-s1" kvg:type="&#12754;" d="M21.28,23.14c0.03,0.69,0.06,1.78-0.05,2.77c-0.65,5.85-4.35,18.69-9.42,26.55"/><path id="kvg:0727e-s2" kvg:type="&#12752;" d="M20.75,38.75c0.87-0.05,1.81,0.37,2.78,0.24c5.47-0.74,14.86-2.74,15.97-2.74c1.25,0,2.5,0,3.75,0.25"/><path id="kvg:0727e-s3" kvg:type="&#12753;" d="M30.37,11.75c1.09,0.5,1.74,2.25,1.96,3.25c0.22,1,0,76.75-0.22,83"/><path id="kvg:0727e-s4" kvg:type="&#12736;" d="M13,66.9c1.73,1.12,3.18,1.1,4.91,0.14c1.02-0.57,19.25-11.81,23.59-14.54"/></g><g id="kvg:0727e-g2" kvg:element="&#21566;" kvg:position="right"><g id="kvg:0727e-g3" kvg:element="&#20116;" kvg:position="top"><g id="kvg:0727e-g4" kvg:element="&#20108;" kvg:part="1"><path id="kvg:0727e-s5" kvg:type="&#12752;" d="M49.54,19.23c1.03,0.35,2.92,0.31,3.96,0.2c8.62-0.84,21.28-2.76,34.58-3.18c1.73-0.05,2.76,0.05,3.62,0.21"/></g><path id="kvg:0727e-s6" kvg:type="&#12753;a" d="M65.66,21.25c0.43,0.38,1.12,1.75,0.96,2.68c-1.52,8.93-5.29,25.09-6.88,30.74"/><path id="kvg:0727e-s7" kvg:type="&#12757;c" d="M50.93,35.21c0.79,0.4,3.38,0.54,4.03,0.46c9.3-1.17,20.3-2.17,26.81-2.9c1.5-0.17,3.21,1.23,3.21,2.93c0,2.91-1.77,11.17-2.98,17.55"/><g id="kvg:0727e-g5" kvg:element="&#20108;" kvg:part="2"><path id="kvg:0727e-s8" kvg:type="&#12752;" d="M45.33,55.91c1.21,0.22,4.23,0.19,5.43,0.07C60.75,55,79,53.25,93.69,52.83c2.02-0.06,4.02-0.02,5.03,0.08"/></g></g><g id="kvg:0727e-g6" kvg:element="&#21475;" kvg:position="bottom"><path id="kvg:0727e-s9" kvg:type="&#12753;" d="M50.08,66.13c0.49,0.62,0.99,1.14,1.21,1.92c1.7,6.15,3.73,16.15,4.89,27.2"/><path id="kvg:0727e-s10" kvg:type="&#12757;b" d="M51.86,68.79C62.75,67,79,65.58,84.84,65.02c2.14-0.21,3.33,1.2,3.11,2.43c-1.21,6.8-2.46,13.55-3.63,22.96"/><path id="kvg:0727e-s11" kvg:type="&#12752;b" d="M56.2,92.74C63.07,92.11,77,91,86.96,90.53"/></g></g></g></g></svg>