<svg xmlns="http://www.w3.org/2000/svg" width="109" height="109" viewBox="0 0 109 109"><g xmlns:kvg="http://kanjivg.tagaini.net" id="kvg:StrokePaths_072b2" style="fill:none;stroke:#000000;stroke-width:3;stroke-linecap:round;stroke-linejoin:round;"><g id="kvg:072b2" kvg:element="&#29362;"><g id="kvg:072b2-g1" kvg:element="&#11944;" kvg:variant="true" kvg:original="&#29356;" kvg:position="left" kvg:radical="tradit"><path id="kvg:072b2-s1" kvg:type="&#12754;" d="M39.29,17c0.07,0.53,0.31,1.56-0.14,2.13c-5.77,7.32-11.64,12.5-25.66,20.41"/><path id="kvg:072b2-s2" kvg:type="&#12757;va" d="M20.5,17.5C46.25,38.25,40,103,24,89"/><path id="kvg:072b2-s3" kvg:type="&#12754;" d="M32.33,42c0.05,0.67,0.22,1.96-0.1,2.68c-4.05,9.19-8.16,15.68-17.99,25.62"/></g><g id="kvg:072b2-g2" kvg:element="&#25165;" kvg:position="right"><g id="kvg:072b2-g3" kvg:element="&#25164;" kvg:variant="true" kvg:original="&#25163;"><path id="kvg:072b2-s4" kvg:type="&#12752;" d="M46.75,38.5c1.2,0,3.24,0.4,5.59,0.25C64.4,38,77.42,36.5,93.59,35.25c2.34-0.18,3.91,0,5.41,0.5"/><g id="kvg:072b2-g4" kvg:element="&#20101;"><path id="kvg:072b2-s5" kvg:type="&#12762;" d="M77.77,12.83c1.23,0.92,2.17,2.49,2.26,5.52c0.4,14.55-0.26,67.66-0.26,72.62c0,8.78-7.21,0.5-8.71-0.75"/></g><path id="kvg:072b2-s6" kvg:type="&#12754;" d="M79.29,36.5c-0.54,1.5-0.8,1.29-1.19,2.85c-2.29,9.17-15.46,29.28-33.48,41.59"/></g></g></g></g></svg>