<svg xmlns="http://www.w3.org/2000/svg" width="109" height="109" viewBox="0 0 109 109"><g xmlns:kvg="http://kanjivg.tagaini.net" id="kvg:StrokePaths_072c4" style="fill:none;stroke:#000000;stroke-width:3;stroke-linecap:round;stroke-linejoin:round;"><g id="kvg:072c4" kvg:element="&#29380;"><g id="kvg:072c4-g1" kvg:element="&#11944;" kvg:variant="true" kvg:original="&#29356;" kvg:position="left" kvg:radical="general"><path id="kvg:072c4-s1" kvg:type="&#12754;" d="M39.29,15c0.07,0.59-0.17,2.22-0.65,2.85C32.53,25.91,26.83,31.12,12,39.84"/><path id="kvg:072c4-s2" kvg:type="&#12757;va" d="M16,16.18c31,23.32,21,90.57,6.5,74.22"/><path id="kvg:072c4-s3" kvg:type="&#12754;" d="M30.33,43.07c0.05,0.68,0.22,2.01-0.1,2.75c-4.1,9.43-8.27,16.09-18.23,26.29"/></g><g id="kvg:072c4-g2" kvg:element="&#28779;" kvg:position="right"><path id="kvg:072c4-s4" kvg:type="&#12756;" d="M43.05,37.53C47,42,51.5,52,51.99,57.16"/><path id="kvg:072c4-s5" kvg:type="&#12754;" d="M87.87,30.76c0.38,1.74,0.01,3.9-1,5.48c-1.01,1.58-11.11,13.5-16.16,17.19"/><path id="kvg:072c4-s6" kvg:type="&#12754;" d="M64.69,13.25c0.98,0.81,1.18,2.96,1.18,4.31C65.67,71.17,55.48,83.3,40,96.5"/><path id="kvg:072c4-s7" kvg:type="&#12751;" d="M64.88,51.78c10.04,17.21,22.22,34.7,28.84,41.87c2.08,2.26,2.56,2.01,4.27,2.58"/></g></g></g></svg>