<svg xmlns="http://www.w3.org/2000/svg" width="109" height="109" viewBox="0 0 109 109"><g xmlns:kvg="http://kanjivg.tagaini.net" id="kvg:StrokePaths_072c6" style="fill:none;stroke:#000000;stroke-width:3;stroke-linecap:round;stroke-linejoin:round;"><g id="kvg:072c6" kvg:element="&#29382;"><g id="kvg:072c6-g1" kvg:element="&#11944;" kvg:variant="true" kvg:original="&#29356;" kvg:position="left" kvg:radical="general"><path id="kvg:072c6-s1" kvg:type="&#12754;" d="M39.29,15c0.07,0.59,0.32,1.73-0.14,2.37c-5.94,8.13-11.97,13.88-26.4,22.67"/><path id="kvg:072c6-s2" kvg:type="&#12757;va" d="M15.64,18.5c29.6,21.12,21.77,84.45,8.65,71.93"/><path id="kvg:072c6-s3" kvg:type="&#12754;" d="M29.83,44c0.05,0.63,0.23,1.83-0.1,2.51c-4.27,8.62-8.61,14.71-18.98,24.03"/></g><g id="kvg:072c6-g2" kvg:element="&#20013;" kvg:position="right"><g id="kvg:072c6-g3" kvg:element="&#21475;"><path id="kvg:072c6-s4" kvg:type="&#12753;" d="M46.06,37.88c0.48,0.26,1.42,1.36,1.57,2.04c1.09,4.89,2.37,17.58,3.45,26.83"/><path id="kvg:072c6-s5" kvg:type="&#12757;b" d="M47.45,39.53c15.05-1.78,36.68-4.42,45.38-4.8c3.39-0.15,4.07,2.43,3.65,3.92c-1.44,5.1-2.23,12.1-4.42,22.02"/><path id="kvg:072c6-s6" kvg:type="&#12752;b" d="M51.22,64.21c9.75-1.32,29.28-2.46,42.62-3.12"/></g><g id="kvg:072c6-g4" kvg:element="&#20008;"><path id="kvg:072c6-s7" kvg:type="&#12753;" d="M69.76,11.25c1.1,0.45,1.76,2.02,1.98,2.91c0.22,0.9,0,78.74-0.22,84.34"/></g></g></g></g></svg>