<svg xmlns="http://www.w3.org/2000/svg" width="109" height="109" viewBox="0 0 109 109"><g xmlns:kvg="http://kanjivg.tagaini.net" id="kvg:StrokePaths_072ce" style="fill:none;stroke:#000000;stroke-width:3;stroke-linecap:round;stroke-linejoin:round;"><g id="kvg:072ce" kvg:element="&#29390;"><g id="kvg:072ce-g1" kvg:element="&#11944;" kvg:variant="true" kvg:original="&#29356;" kvg:position="left" kvg:radical="general"><path id="kvg:072ce-s1" kvg:type="&#12754;" d="M37.8,16c0.07,0.58,0.31,1.7-0.14,2.32C32,26.29,26.25,31.93,12.5,40.54"/><path id="kvg:072ce-s2" kvg:type="&#12757;va" d="M15.08,18.5c31.42,22,21.57,84.02,7.1,71.42"/><path id="kvg:072ce-s3" kvg:type="&#12754;" d="M30.32,44.5c0.05,0.63,0.25,1.83-0.11,2.51C25.67,55.63,21.05,61.72,10,71.04"/></g><g id="kvg:072ce-g2" kvg:element="&#30002;" kvg:position="right"><g id="kvg:072ce-g3" kvg:element="&#30000;" kvg:partial="true"><path id="kvg:072ce-s4" kvg:type="&#12753;" d="M48.01,21.25c0.32,0.67,1.35,2.14,1.5,2.96c1.52,8.41,3.49,23.11,4.17,35.58"/><path id="kvg:072ce-s5" kvg:type="&#12757;" d="M50.05,22.74c12.66-1.38,32.23-3.25,40.94-3.8c3.2-0.2,5.1,1.25,4.94,4.06c-0.37,6.68-3.36,29.96-4.68,34.05"/><path id="kvg:072ce-s6" kvg:type="&#12752;" d="M51.92,39.7c3.8-0.28,39.13-3.2,42.26-3.15"/><path id="kvg:072ce-s7" kvg:type="&#12752;" d="M54.34,56.64c11.02-1.37,25.56-2.61,37.6-3.1"/></g><g id="kvg:072ce-g4" kvg:element="&#20008;"><path id="kvg:072ce-s8" kvg:type="&#12753;" d="M70.11,22.94c0.89,0.56,1.44,2.03,1.44,3.81c-0.03,8.98,0.3,70.04,0.3,72.97"/></g></g></g></g></svg>