<svg xmlns="http://www.w3.org/2000/svg" width="109" height="109" viewBox="0 0 109 109"><g xmlns:kvg="http://kanjivg.tagaini.net" id="kvg:StrokePaths_072c2" style="fill:none;stroke:#000000;stroke-width:3;stroke-linecap:round;stroke-linejoin:round;"><g id="kvg:072c2" kvg:element="&#29378;"><g id="kvg:072c2-g1" kvg:element="&#11944;" kvg:variant="true" kvg:original="&#29356;" kvg:position="left" kvg:radical="general"><path id="kvg:072c2-s1" kvg:type="&#12754;" d="M38.8,18.25c0.14,1.17-0.69,2.17-1.32,3.04C31.89,28.93,26.36,34.56,12.75,43"/><path id="kvg:072c2-s2" kvg:type="&#12757;va" d="M19,20c23.5,19.75,18.75,79,8,67"/><path id="kvg:072c2-s3" kvg:type="&#12754;" d="M30.83,44.25c0.09,1.1,0.16,2.04-0.35,3.05c-4.25,8.52-8.67,14.67-18.98,23.99"/></g><g id="kvg:072c2-g2" kvg:element="&#29579;" kvg:original="&#29577;" kvg:partial="true" kvg:position="right" kvg:phon="&#29579;"><path id="kvg:072c2-s4" kvg:type="&#12752;" d="M48.4,26.88c2.23,0.49,5.09,0.11,6.98-0.15c6.25-0.85,19.07-2.82,27.01-3.55c2.03-0.19,4.2-0.51,6.16,0.25"/><path id="kvg:072c2-s5" kvg:type="&#12753;a" d="M66.4,28.5c1.43,1.43,1.67,2.83,1.67,4.75c0,13.41-0.02,28.75-0.02,50.25"/><path id="kvg:072c2-s6" kvg:type="&#12752;" d="M49.96,54.53c2.29,0.59,4.9,0.34,6.32,0.18c6.96-0.8,17.14-1.92,24.86-2.71c2.05-0.21,4.33-0.64,6.34,0.01"/><path id="kvg:072c2-s7" kvg:type="&#12752;" d="M42,85.52c2.55,0.7,5.27,0.89,7.87,0.65c11.5-1.05,22.5-2.17,37.75-2.51c2.53-0.05,5.5,0.33,7.88,1.01"/></g></g></g></svg>