<svg xmlns="http://www.w3.org/2000/svg" width="109" height="109" viewBox="0 0 109 109"><g xmlns:kvg="http://kanjivg.tagaini.net" id="kvg:StrokePaths_072e2" style="fill:none;stroke:#000000;stroke-width:3;stroke-linecap:round;stroke-linejoin:round;"><g id="kvg:072e2" kvg:element="&#29410;"><g id="kvg:072e2-g1" kvg:element="&#11944;" kvg:variant="true" kvg:original="&#29356;" kvg:position="left" kvg:radical="general"><path id="kvg:072e2-s1" kvg:type="&#12754;" d="M35.06,14.25c0.06,0.68,0.29,1.99-0.13,2.72C29.66,26.32,24.3,32.93,11.5,43.04"/><path id="kvg:072e2-s2" kvg:type="&#12757;va" d="M15.5,18.25c28.25,23.5,18.75,86.75,4.75,72"/><path id="kvg:072e2-s3" kvg:type="&#12754;" d="M27.85,45c0.04,0.63,0.18,1.85-0.08,2.53c-3.32,8.7-6.7,14.85-14.77,24.26"/></g><g id="kvg:072e2-g2" kvg:element="&#21508;" kvg:position="right"><g id="kvg:072e2-g3" kvg:element="&#22786;" kvg:position="top"><path id="kvg:072e2-s4" kvg:type="&#12754;" d="M60.8,14.75c0.04,0.68,0.23,1.8-0.09,2.73c-2.5,7.11-8.06,17.72-15.88,26.6"/><path id="kvg:072e2-s5" kvg:type="&#12743;" d="M60.76,25.41c0.33,0.04,1.76,0,2.71-0.11c3.14-0.35,10.46-1.59,14.94-2.68c3.08-0.75,3.95,0.85,3.16,2.89c-4.31,11.13-21.81,35.68-41.15,43.02"/><path id="kvg:072e2-s6" kvg:type="&#12751;" d="M55.15,33.58c5.02,4.78,27.78,22.93,34.55,27.29c2.02,1.3,3.65,1.93,5.62,2.32"/></g><g id="kvg:072e2-g4" kvg:element="&#21475;" kvg:position="bottom"><path id="kvg:072e2-s7" kvg:type="&#12753;" d="M50.33,70.01c0.36,0.44,0.73,0.8,0.89,1.35c1.25,4.34,3.25,17.31,4.11,25.1"/><path id="kvg:072e2-s8" kvg:type="&#12757;b" d="M51.58,71.64c6.67-0.64,25.43-2.72,31.4-3.52c2.18-0.29,3.49,1.74,3.18,3.46c-1.29,7.14-2.71,9.64-4.63,19.51"/><path id="kvg:072e2-s9" kvg:type="&#12752;b" d="M55.51,93.63c7.24-0.88,22.03-1.26,28.86-2.25"/></g></g></g></g></svg>