<svg xmlns="http://www.w3.org/2000/svg" width="109" height="109" viewBox="0 0 109 109"><g xmlns:kvg="http://kanjivg.tagaini.net" id="kvg:StrokePaths_073bb" style="fill:none;stroke:#000000;stroke-width:3;stroke-linecap:round;stroke-linejoin:round;"><g id="kvg:073bb" kvg:element="&#29627;"><g id="kvg:073bb-g1" kvg:element="&#29579;" kvg:original="&#29577;" kvg:partial="true" kvg:position="left" kvg:radical="general"><path id="kvg:073bb-s1" kvg:type="&#12752;" d="M11.5,24.5c0.65,0.28,4.16,0.34,4.82,0.26c3.05-0.37,15.44-1.57,22.76-1.98c1-0.06,2.85-0.2,3.68,0.03"/><path id="kvg:073bb-s2" kvg:type="&#12753;a" d="M25.57,26.02c0.87,0.88,1.48,2.78,1.48,3.48c0,5.95,0.02,44.12-0.15,48.07"/><path id="kvg:073bb-s3" kvg:type="&#12752;" d="M12,51.74c0.55,0.17,4.45,0.19,5.01,0.15c3.25-0.22,15.24-1.52,19.73-1.76c0.69-0.04,3.22-0.07,4.25,0.08"/><path id="kvg:073bb-s4" kvg:type="&#12752;" d="M11.25,83.75c1.24,0.52,2.25,1,4.5,0C21.17,81.34,32,75.5,40,70.75"/></g><g id="kvg:073bb-g2" kvg:element="&#30382;" kvg:position="right"><path id="kvg:073bb-s5" kvg:type="&#12754;" d="M49.75,26.46c0.62,1.23,1.54,4.57,1.53,7.13c-0.12,28.81-5.53,50.97-16.41,60.67"/><path id="kvg:073bb-s6" kvg:type="&#12758;b" d="M51.13,28.37c13.62-2.37,31.88-4.5,37.01-4.88c9.03-0.66-0.85,9.94-2.13,10.92"/><path id="kvg:073bb-s7" kvg:type="&#12753;a" d="M67.47,11.75c1.5,0.56,2.39,2.53,2.69,3.65c0.3,1.12-0.11,21.38-0.11,32.89"/><path id="kvg:073bb-s8" kvg:type="&#12743;" d="M53.25,50.5c1.54,0.37,2.9,0.57,5.96-0.07C66,49,76.94,47.22,83.48,46.36c2.18-0.29,3.82,2.14,2.88,4.06C76.63,70.15,64.25,89.5,42.62,98.07"/><path id="kvg:073bb-s9" kvg:type="&#12751;" d="M56.79,54.02C60.25,61,76,82.5,88.85,93.46c1.94,1.65,3.21,2.9,4.93,3.48"/></g></g></g></svg>