<svg xmlns="http://www.w3.org/2000/svg" width="109" height="109" viewBox="0 0 109 109"><g xmlns:kvg="http://kanjivg.tagaini.net" id="kvg:StrokePaths_073c8" style="fill:none;stroke:#000000;stroke-width:3;stroke-linecap:round;stroke-linejoin:round;"><g id="kvg:073c8" kvg:element="&#29640;"><g id="kvg:073c8-g1" kvg:element="&#29579;" kvg:original="&#29577;" kvg:partial="true" kvg:position="left" kvg:radical="general"><path id="kvg:073c8-s1" kvg:type="&#12752;" d="M10.75,25.75c0.56,0.37,3.6,0.45,4.16,0.34c2.63-0.5,13.34-1.59,19.66-2.14c0.86-0.07,2.46-0.26,3.18,0.04"/><path id="kvg:073c8-s2" kvg:type="&#12753;a" d="M23.07,27.02c0.87,0.88,1.48,2.78,1.48,3.48c0,5.95,0.52,40.12,0.35,44.07"/><path id="kvg:073c8-s3" kvg:type="&#12752;" d="M11,49.71c0.47,0.19,3.8,0.22,4.28,0.18c2.77-0.25,13-1.73,16.84-2c0.59-0.04,2.74-0.08,3.63,0.09"/><path id="kvg:073c8-s4" kvg:type="&#12752;" d="M10.25,80.25c1.5,1,3.22,1.19,4.5,0.5c6-3.25,11.75-5.75,19.75-10.5"/></g><g id="kvg:073c8-g2" kvg:element="&#21152;" kvg:position="right"><g id="kvg:073c8-g3" kvg:element="&#21147;" kvg:position="left"><path id="kvg:073c8-s5" kvg:type="&#12742;" d="M36.11,36.26c1.14,0.74,3.9,1.52,4.67,1.39c6.97-1.15,17.8-2.78,21.17-3.52c2.19-0.48,3.8,0.67,3.68,4.05C65.3,47.08,60.5,78,55.23,89.77c-3.93,8.78-6.96,1.33-7.84,0.28"/><path id="kvg:073c8-s6" kvg:type="&#12754;" d="M52.64,13.68c0.25,0.42,0.97,2.26,0.85,4.36c-1.16,19.54-6.99,54.21-24.59,71.6"/></g><g id="kvg:073c8-g4" kvg:element="&#21475;" kvg:position="right"><path id="kvg:073c8-s7" kvg:type="&#12753;" d="M71.81,32.48c0.69,1.27,1.53,1.77,1.64,2.98c0.91,9.59,1.49,36.53,2.11,53.75"/><path id="kvg:073c8-s8" kvg:type="&#12757;b" d="M73.19,34.49c7.84-1.38,15.27-2.38,19.67-2.58c1.88-0.09,3.36,1.04,3.21,3.28c-0.32,4.81-1.79,30.2-3.01,48.69"/><path id="kvg:073c8-s9" kvg:type="&#12752;b" d="M75.83,86.28c5.58-0.47,12.14-1.62,19.44-2.18"/></g></g></g></g></svg>