<svg xmlns="http://www.w3.org/2000/svg" width="109" height="109" viewBox="0 0 109 109"><g xmlns:kvg="http://kanjivg.tagaini.net" id="kvg:StrokePaths_073cd" style="fill:none;stroke:#000000;stroke-width:3;stroke-linecap:round;stroke-linejoin:round;"><g id="kvg:073cd" kvg:element="&#29645;"><g id="kvg:073cd-g1" kvg:element="&#29579;" kvg:original="&#29577;" kvg:partial="true" kvg:position="left" kvg:radical="general"><path id="kvg:073cd-s1" kvg:type="&#12752;" d="M11,28.42c1.5,0.45,3.77,0.39,5.13,0.28c4.36-0.34,14.28-1.67,20.25-2.24c1.22-0.12,2.99-0.34,4.12-0.04"/><path id="kvg:073cd-s2" kvg:type="&#12753;a" d="M25.32,30.44c1,1,1.23,2.06,1.23,3.48c0,5.95-0.05,36.21-0.05,41.45"/><path id="kvg:073cd-s3" kvg:type="&#12752;" d="M12.25,52.42c1.38,0.58,3.2,0.53,4.26,0.37c4.49-0.67,13.74-2.62,18.23-3.19c0.69-0.09,1.75-0.35,3-0.06"/><path id="kvg:073cd-s4" kvg:type="&#12736;/&#12752;" d="M12.25,81.02c1.12,1.1,1.86,1.21,3.5,0.4c8-3.92,12.62-6.17,21-10.25"/></g><g id="kvg:073cd-g2" kvg:position="right" kvg:phon="&#20154;+&#24417;"><g id="kvg:073cd-g3" kvg:element="&#20154;"><path id="kvg:073cd-s5" kvg:type="&#12754;" d="M61.03,14.25c0.05,0.73,0.05,1.96-0.36,2.96C57.4,25.08,52,34.88,41.05,45.5"/><path id="kvg:073cd-s6" kvg:type="&#12751;" d="M61.59,17.92c3.63,3.96,17.64,15.41,24.93,21.09c2.57,2,5.05,3.67,7.97,5.09"/></g><g id="kvg:073cd-g4" kvg:element="&#24417;"><g id="kvg:073cd-g5" kvg:element="&#20031;"><path id="kvg:073cd-s7" kvg:type="&#12754;" d="M67.89,38.9c0.06,0.45-0.21,1.77-0.62,2.3C64,45.5,57.12,51.62,47.72,57.03"/></g><g id="kvg:073cd-g6" kvg:element="&#20031;"><path id="kvg:073cd-s8" kvg:type="&#12754;" d="M73.59,55.99c0.08,0.51-0.16,1.43-0.65,2.04c-4.47,5.5-10.81,11.1-26.01,18.78"/></g><g id="kvg:073cd-g7" kvg:element="&#20031;"><path id="kvg:073cd-s9" kvg:type="&#12754;" d="M82.68,70.96c0.12,0.62-0.04,1.72-0.73,2.46C76.23,79.62,63.38,91,41.47,96.97"/></g></g></g></g></g></svg>