<svg xmlns="http://www.w3.org/2000/svg" width="109" height="109" viewBox="0 0 109 109"><g xmlns:kvg="http://kanjivg.tagaini.net" id="kvg:StrokePaths_073de" style="fill:none;stroke:#000000;stroke-width:3;stroke-linecap:round;stroke-linejoin:round;"><g id="kvg:073de" kvg:element="&#29662;"><g id="kvg:073de-g1" kvg:element="&#29579;" kvg:original="&#29577;" kvg:partial="true" kvg:position="left" kvg:radical="general"><path id="kvg:073de-s1" kvg:type="&#12752;" d="M12.6,22.25c0.67,0.37,4.31,0.45,4.99,0.34c3.16-0.5,14.98-1.59,22.56-2.14c1.03-0.07,2.95-0.26,3.8,0.04"/><path id="kvg:073de-s2" kvg:type="&#12753;a" d="M26.05,24.52c0.93,0.88,1.58,2.78,1.58,3.48c0,5.95,0.05,48.62-0.13,52.57"/><path id="kvg:073de-s3" kvg:type="&#12752;" d="M12.02,49c0.59,0.4,4.75,0.46,5.36,0.37c3.47-0.53,14.28-2.12,19.08-2.69c0.74-0.09,3.44-0.16,4.54,0.19"/><path id="kvg:073de-s4" kvg:type="&#12752;" d="M10.75,86.25c1.25,1,3.86,0.93,4.74,0.5C21.1,84,29.11,80,37.66,75.25"/></g><g id="kvg:073de-g2" kvg:element="&#21508;" kvg:position="right"><g id="kvg:073de-g3" kvg:element="&#22786;" kvg:position="top"><path id="kvg:073de-s5" kvg:type="&#12754;" d="M62.29,12.75c0.05,0.7,0.24,1.86-0.09,2.82c-2.57,7.35-8.31,18.33-16.38,27.5"/><path id="kvg:073de-s6" kvg:type="&#12743;" d="M63.76,20.91c0.33,0.04,1.76,0,2.71-0.11c3.14-0.35,9.96-1.59,14.44-2.68c3.08-0.75,3.95,0.85,3.16,2.89C79.78,32.14,63,58.25,40.94,66.53"/><path id="kvg:073de-s7" kvg:type="&#12751;" d="M57.65,30.08c4.74,5.62,26.22,26.99,32.61,32.13c1.91,1.53,3.45,2.28,5.3,2.73"/></g><g id="kvg:073de-g4" kvg:element="&#21475;" kvg:position="bottom"><path id="kvg:073de-s8" kvg:type="&#12753;" d="M50.33,69.15c0.41,0.48,0.83,0.88,1.01,1.49c1.42,4.77,2.56,18.49,3.53,27.07"/><path id="kvg:073de-s9" kvg:type="&#12757;b" d="M52.88,71.31c11.52-1.61,26.17-2.57,30.98-3.19c1.75-0.23,2.81,1.36,2.55,2.71c-1.04,5.58-2.39,13.89-3.93,21.61"/><path id="kvg:073de-s10" kvg:type="&#12752;b" d="M55.06,95.09c8.44-0.34,21.93-1.18,29.24-1.42"/></g></g></g></g></svg>