<svg xmlns="http://www.w3.org/2000/svg" width="109" height="109" viewBox="0 0 109 109"><g xmlns:kvg="http://kanjivg.tagaini.net" id="kvg:StrokePaths_07405" style="fill:none;stroke:#000000;stroke-width:3;stroke-linecap:round;stroke-linejoin:round;"><g id="kvg:07405" kvg:element="&#29701;"><g id="kvg:07405-g1" kvg:element="&#29579;" kvg:original="&#29577;" kvg:partial="true" kvg:position="left" kvg:radical="general"><path id="kvg:07405-s1" kvg:type="&#12752;" d="M11.6,25.25c0.67,0.37,4.31,0.45,4.99,0.34c3.16-0.5,15.98-2.09,23.56-2.64c1.03-0.07,2.95-0.26,3.8,0.04"/><path id="kvg:07405-s2" kvg:type="&#12753;a" d="M27.55,27.52c0.93,0.88,1.58,2.78,1.58,3.48c0,5.95,0.05,43.62-0.13,47.57"/><path id="kvg:07405-s3" kvg:type="&#12752;" d="M12.52,52c0.59,0.4,4.75,0.46,5.36,0.37c3.47-0.53,15.28-2.12,20.08-2.69c0.74-0.09,3.44-0.16,4.54,0.19"/><path id="kvg:07405-s4" kvg:type="&#12752;" d="M11.75,85.25c1.25,1,3.36,1.43,4.24,1c5.61-2.75,19.12-10.25,27.67-15"/></g><g id="kvg:07405-g2" kvg:element="&#33391;" kvg:position="right"><path id="kvg:07405-s5" kvg:type="&#12753;a" d="M65.05,10.75c1.19,0.64,1.91,1.6,2.15,2.87c0.24,1.28,0.24,9.19,0.24,12.38"/><g id="kvg:07405-g3" kvg:element="&#33390;"><path id="kvg:07405-s6" kvg:type="&#12757;" d="M52.38,27.31c2.35-0.12,30.2-3.51,32.34-3.66c1.78-0.12,2.81,1.36,2.79,2.1c-0.12,5.26-2.25,22-3.09,27.39"/><path id="kvg:07405-s7" kvg:type="&#12752;a" d="M53.03,40.52c5.9-0.59,27.55-2.9,33.22-3.37"/><path id="kvg:07405-s8" kvg:type="&#12752;a" d="M53.64,53.09c8.08-0.95,22.19-1.31,30.97-2.21"/><path id="kvg:07405-s9" kvg:type="&#12761;" d="M50.01,23.96c1.33,0.58,2.13,2.6,2.4,3.75c0.27,1.15,0.56,60.17,0.27,63.04c-0.27,2.6-0.82,7.42,2.03,4.6C58.5,91.6,61.5,89,68.3,83.57"/><path id="kvg:07405-s10" kvg:type="&#12754;" d="M86.57,59.19c0.28,1.17,0.46,1.63-0.49,2.56c-1.83,1.82-7.35,6.03-9.86,7.66"/><path id="kvg:07405-s11" kvg:type="&#12751;" d="M59.62,57.98c5.52,4.23,20.09,23.96,28.49,31.15c4.48,3.84,6.75,4.85,9.21,5.58"/></g></g></g></g></svg>