<svg xmlns="http://www.w3.org/2000/svg" width="109" height="109" viewBox="0 0 109 109"><g xmlns:kvg="http://kanjivg.tagaini.net" id="kvg:StrokePaths_07470" style="fill:none;stroke:#000000;stroke-width:3;stroke-linecap:round;stroke-linejoin:round;"><g id="kvg:07470" kvg:element="&#29808;"><g id="kvg:07470-g1" kvg:element="&#29579;" kvg:original="&#29577;" kvg:partial="true" kvg:position="left" kvg:radical="general"><path id="kvg:07470-s1" kvg:type="&#12752;" d="M11.6,24.75c0.67,0.37,4.3,0.39,4.99,0.34c4.66-0.34,12.91-1.59,17.56-2.14c1.03-0.12,2.95-0.26,3.8,0.04"/><path id="kvg:07470-s2" kvg:type="&#12753;a" d="M24.05,27.52c0.93,0.88,1.58,2.78,1.58,3.48c0,5.95,0.05,44.62-0.13,48.57"/><path id="kvg:07470-s3" kvg:type="&#12752;" d="M12.02,51.35c0.5,0.34,4.04,0.39,4.55,0.31c2.95-0.45,12.98-1.8,17.07-2.29c0.63-0.07,2.92-0.14,3.86,0.16"/><path id="kvg:07470-s4" kvg:type="&#12752;" d="M12.25,86.25c1.25,1,2.94,1.06,3.74,0.5C22.75,82,27.75,78,36.16,72.25"/></g><g id="kvg:07470-g2" kvg:element="&#39740;" kvg:position="right"><g id="kvg:07470-g3" kvg:element="&#20031;"><path id="kvg:07470-s5" kvg:type="&#12754;" d="M62.98,13c0.02,0.33,0.07,0.95-0.04,1.32c-1.32,4.65-3.28,8.92-6.72,12.68"/></g><g id="kvg:07470-g4" kvg:element="&#30000;"><path id="kvg:07470-s6" kvg:type="&#12753;" d="M44.25,27.12c0.7,1.23,1.31,2.06,1.38,2.8c0.73,7.95,1.86,17.13,2.6,28.15"/><path id="kvg:07470-s7" kvg:type="&#12757;a" d="M45.67,28.45c10.6-0.56,29.59-1.99,37.51-2.53c2.91-0.2,4.1,1.58,3.79,3.87c-0.73,5.38-2.71,15.71-5.28,25.34"/><path id="kvg:07470-s8" kvg:type="&#12753;a" d="M 64.183333,27.429917 c 0.91,0.91 0.97,1.99 0.96,3.33 -0.06,7.41 0.05,21.597277 0.05,23.797277"/><path id="kvg:07470-s9" kvg:type="&#12752;a" d="M47.06,41.57c3.45-0.27,31.19-2.07,37.96-1.87"/><path id="kvg:07470-s10" kvg:type="&#12752;a" d="M48.54,55.14c5.96,0,23.71-1.38,33.24-1.38"/></g><g id="kvg:07470-g5" kvg:element="&#20799;" kvg:variant="true" kvg:original="&#20843;"><g id="kvg:07470-g6" kvg:element="&#20031;" kvg:position="left"><path id="kvg:07470-s11" kvg:type="&#12754;" d="M60.5,59.75 c 0.26,0.8 0.76,2.38 0.38,3.67 -2.93,9.83 -5.897775,25.83 -17.647775,34.58"/></g><g id="kvg:07470-g7" kvg:position="right"><path id="kvg:07470-s12" kvg:type="&#12767;" d="M70.36,56.87c0.66,1.19,1.18,2.59,1.22,4.43c0.18,8.19,0.03,13.51-0.29,24.61s6.38,11.3,12.65,11.3c10.27,0,13.52,0.55,13.52-8.94"/></g></g><g id="kvg:07470-g8" kvg:element="&#21430;"><path id="kvg:07470-s13" kvg:type="&#12764;" d="M84.74,60.72c0.22,0.42,0.14,2.33-0.07,2.84c-1.92,4.68-3.87,9.46-6.92,14.23c-0.97,1.51,0.06,2.98,1.45,2.51c5.3-1.8,7.8-2.55,12.43-4.44"/><path id="kvg:07470-s14" kvg:type="&#12756;" d="M88.77,69.43c1.65,1.92,5.27,9.54,5.68,12.54"/></g></g></g></g></svg>