<svg xmlns="http://www.w3.org/2000/svg" width="109" height="109" viewBox="0 0 109 109"><g xmlns:kvg="http://kanjivg.tagaini.net" id="kvg:StrokePaths_074e3" style="fill:none;stroke:#000000;stroke-width:3;stroke-linecap:round;stroke-linejoin:round;"><g id="kvg:074e3" kvg:element="&#29923;"><g id="kvg:074e3-g1" kvg:element="&#36763;" kvg:variant="true"><g id="kvg:074e3-g2" kvg:element="&#31435;" kvg:position="top"><g id="kvg:074e3-g3" kvg:element="&#20128;" kvg:position="top"><path id="kvg:074e3-s1" kvg:type="&#12753;a" d="M23.62,13.75c1.01,1.31,1.51,1.31,1.51,4.35c0,3.05,0,3.65,0,7.65"/><path id="kvg:074e3-s2" kvg:type="&#12752;" d="M9.35,27.2c0.83,0.33,1.8,0.38,2.62,0.33c4.67-0.28,17.74-2.53,24.81-2.77c1.38-0.05,2.21,0.16,2.9,0.32"/></g><g id="kvg:074e3-g4" kvg:position="bottom"><path id="kvg:074e3-s3" kvg:type="&#12756;" d="M15.2,32.5c2.88,4.57,4.19,9.24,4.45,12.25"/><path id="kvg:074e3-s4" kvg:type="&#12754;" d="M33.26,28.25c0.54,0.54,0.61,1.82,0.54,2.27c-0.43,3.08-4.09,11.87-5.17,14.23"/><path id="kvg:074e3-s5" kvg:type="&#12736;" d="M9,48.8c1.04,0.39,2.26,0.53,3.29,0.39C17.5,48.5,28.75,47,34.87,46.7c1.73-0.09,2.77,0.19,3.63,0.38"/></g></g><g id="kvg:074e3-g5" kvg:element="&#21313;" kvg:position="bottom"><path id="kvg:074e3-s6" kvg:type="&#12752;" d="M10.18,69.73c0.66,0.9,1.88,1.13,2.54,0.9C21.13,67.69,31.5,63,37.9,60.27"/><path id="kvg:074e3-s7" kvg:type="&#12753;" d="M23.88,51.63c0.65,0.58,1.45,2.12,1.47,3.28c0.18,9.01,0.53,26.42-13.1,41.34"/></g></g><g id="kvg:074e3-g6" kvg:element="&#29916;" kvg:radical="tradit"><g id="kvg:074e3-g7" kvg:element="&#20031;"><path id="kvg:074e3-s8" kvg:type="&#12754;" d="M64.35,16c0.05,0.32-0.07,1.33-0.35,1.68c-3.51,4.45-8.44,8.11-17.59,11.7"/></g><path id="kvg:074e3-s9" kvg:type="&#12754;" d="M43.33,30.28c0.4,0.71,1.02,1.96,1.13,3.99c1.09,21.13-0.72,45.87-13.9,55.94"/><g id="kvg:074e3-g8" kvg:element="&#21430;" kvg:variant="true" kvg:original="&#21430;" kvg:radical="nelson"><path id="kvg:074e3-s10" kvg:type="&#12753;" d="M52.39,29.76c0.73,0.62,1.31,2.75,1.31,4.01c0,6.44-0.14,40.09-0.14,50.55"/><path id="kvg:074e3-s11" kvg:type="&#12752;" d="M42.43,87.93c0.53,0.54,2.56,1.08,3.67,0.5c5.86-3.1,9.29-5.39,15.56-8.83"/><path id="kvg:074e3-s12" kvg:type="&#12756;" d="M59.34,71.43c1.63,3.15,4.22,12.96,4.62,17.87"/></g><path id="kvg:074e3-s13" kvg:type="&#12751;" d="M59.06,28.17c0.18,0,0.76,0.6,0.96,1.8c2.2,13.17,5.88,41.13,13.51,57.54c1.16,2.49,2.39,4.04,3.22,4.85"/></g><g id="kvg:074e3-g9" kvg:element="&#36763;"><g id="kvg:074e3-g10" kvg:element="&#31435;" kvg:position="top"><g id="kvg:074e3-g11" kvg:element="&#20128;" kvg:position="top"><path id="kvg:074e3-s14" kvg:type="&#12753;a" d="M81.56,12.75c1.41,1.31,2.12,1.31,2.12,4.35c0,3.05,0,4.15,0,8.15"/><path id="kvg:074e3-s15" kvg:type="&#12752;" d="M68.83,26.2c0.69,0.33,1.5,0.38,2.19,0.33c3.91-0.28,19.27-2.03,25.18-2.27c1.15-0.05,1.85,0.16,2.42,0.32"/></g><g id="kvg:074e3-g12" kvg:position="bottom"><path id="kvg:074e3-s16" kvg:type="&#12756;" d="M74.65,31.5c2.71,4.66,3.94,9.43,4.18,12.5"/><path id="kvg:074e3-s17" kvg:type="&#12754;" d="M92.66,28.25c0.53,0.5,0.59,1.68,0.53,2.1c-0.43,2.85-4.01,10.97-5.07,13.15"/><path id="kvg:074e3-s18" kvg:type="&#12752;" d="M68.75,47.8c0.87,0.39,1.88,0.47,2.75,0.39c7.25-0.69,18.75-2.69,26.72-2.5c1.45,0.04,2.31,0.19,3.04,0.38"/></g></g><g id="kvg:074e3-g13" kvg:element="&#21313;" kvg:position="bottom"><path id="kvg:074e3-s19" kvg:type="&#12752;" d="M71.38,63.95c0.89,0.47,2.53,0.53,3.43,0.47c6.13-0.42,14.99-1.92,21.48-2.4c1.49-0.11,2.39,0.22,3.13,0.46"/><path id="kvg:074e3-s20" kvg:type="&#12753;" d="M83.14,48.63c0.66,0.52,1.68,2.62,1.68,4.96c0,6.05-0.19,42.74-0.22,44.29"/></g></g></g></g></svg>