<svg xmlns="http://www.w3.org/2000/svg" width="109" height="109" viewBox="0 0 109 109"><g xmlns:kvg="http://kanjivg.tagaini.net" id="kvg:StrokePaths_07518" style="fill:none;stroke:#000000;stroke-width:3;stroke-linecap:round;stroke-linejoin:round;"><g id="kvg:07518" kvg:element="&#29976;" kvg:radical="general"><g id="kvg:07518-g1" kvg:element="&#24319;" kvg:part="1"><g id="kvg:07518-g2" kvg:element="&#21313;"><path id="kvg:07518-s1" kvg:type="&#12752;" d="M13.75,39.2c3,1.07,7.02,0.69,10.14,0.38c13.36-1.31,40.11-3.96,59.61-4.9c3.67-0.18,7.99-0.18,10.99,0.61"/><path id="kvg:07518-s2" kvg:type="&#12753;" d="M35.17,20c1.06,1.06,1.21,2.38,1.21,4c0,5.13,0.04,42.56,0.02,64.62c0,2.83-0.01,5.41-0.01,7.62"/></g><path id="kvg:07518-s3" kvg:type="&#12753;" d="M70.87,14c1.07,1.06,1.46,2.5,1.46,4c0,0.68,0.02,48.38,0.03,68.38c0,4.98,0,8.23,0,8.62"/></g><path id="kvg:07518-s4" kvg:type="&#12752;a" d="M37.5,61.75c4.25-0.5,30.75-3,33.75-3"/><g id="kvg:07518-g3" kvg:element="&#24319;" kvg:part="2"><path id="kvg:07518-s5" kvg:type="&#12752;a" d="M37.25,89.75c6.5-0.25,28-1.75,34-2"/></g></g></g></svg>