<svg xmlns="http://www.w3.org/2000/svg" width="109" height="109" viewBox="0 0 109 109"><g xmlns:kvg="http://kanjivg.tagaini.net" id="kvg:StrokePaths_07526" style="fill:none;stroke:#000000;stroke-width:3;stroke-linecap:round;stroke-linejoin:round;"><g id="kvg:07526" kvg:element="&#29990;"><g id="kvg:07526-g1" kvg:element="&#26356;" kvg:position="nyo"><g id="kvg:07526-g2" kvg:element="&#19968;" kvg:radical="nelson"><path id="kvg:07526-s1" kvg:type="&#12752;" d="M8.51,21.27c1.22,0.36,3.43,0.47,4.66,0.36c9.83-0.88,25.58-2.88,34.94-3.74c2.02-0.19,3.24,0.17,4.25,0.35"/></g><g id="kvg:07526-g3" kvg:element="&#26085;"><path id="kvg:07526-s2" kvg:type="&#12753;" d="M12.45,34.21c0.42,0.66,1.25,1.97,1.34,2.84C14,39,17.53,58.96,17.64,59.65"/><path id="kvg:07526-s3" kvg:type="&#12757;a" d="M14.49,35.27c2.36-0.11,31.86-3.59,34.01-3.72c1.79-0.11,2.83,1.44,2.31,4.72c-0.81,5.17-1.67,9.61-4.08,21.05"/><path id="kvg:07526-s4" kvg:type="&#12752;a" d="M16.86,46.74c5.95-1.12,27.32-3.31,30.94-3.31"/><path id="kvg:07526-s5" kvg:type="&#12752;a" d="M18.98,57.18c9.21-1.34,18.13-1.55,27.95-2.59"/></g><g id="kvg:07526-g4" kvg:element="&#20034;"><g id="kvg:07526-g5" kvg:element="&#20031;"><path id="kvg:07526-s6" kvg:type="&#12754;" d="M30.71,22.8c0.53,1.42,0.97,2.6,0.97,4.66c0,32.68,0.82,58.04-21.43,69.58"/></g><path id="kvg:07526-s7" kvg:type="&#12751;" d="M16.43,67.36C29.85,69.02,37.5,83,79.15,94.81c3.81,1.08,7.39,1.95,11.1,2.34"/></g></g><g id="kvg:07526-g6" kvg:element="&#29983;" kvg:radical="tradit"><path id="kvg:07526-s8" kvg:type="&#12754;" d="M63.27,26.29c0.03,0.7,0.05,1.82-0.05,2.83c-0.58,5.96-3.88,19.03-8.4,27.03"/><path id="kvg:07526-s9" kvg:type="&#12752;" d="M64.4,39.3c0.82,0.38,2.32,0.45,3.14,0.38c5.91-0.54,18.62-1.91,23.72-2.49c1.36-0.15,1.92-0.09,2.65-0.02"/><path id="kvg:07526-s10" kvg:type="&#12753;a" d="M74.99,13.38c0.63,0.44,1.98,3.29,2.1,4.17s-0.08,53.57-0.21,59.05"/><path id="kvg:07526-s11" kvg:type="&#12752;" d="M61.42,57.17c0.81,0.24,2.28,0.28,3.09,0.24c5.82-0.34,21.15-1.92,26.17-2.28c1.34-0.1,1.9-0.05,2.6-0.01"/><path id="kvg:07526-s12" kvg:type="&#12752;" d="M54.73,78.06c1.13,0.25,3.2,0.86,4.33,0.75c10.7-1.06,29.61-2.95,36.64-3.34c1.87-0.1,3.46,0.21,5.19,0.82"/></g></g></g></svg>