<svg xmlns="http://www.w3.org/2000/svg" width="109" height="109" viewBox="0 0 109 109"><g xmlns:kvg="http://kanjivg.tagaini.net" id="kvg:StrokePaths_07538" style="fill:none;stroke:#000000;stroke-width:3;stroke-linecap:round;stroke-linejoin:round;"><g id="kvg:07538" kvg:element="&#30008;"><g id="kvg:07538-g1" kvg:element="&#21241;"><g id="kvg:07538-g2" kvg:element="&#20031;"><path id="kvg:07538-s1" kvg:type="&#12754;" d="M39.99,10.5c0.07,0.91,0.24,2.37-0.14,3.66C37.5,22,27.75,37,14.75,49.13"/></g><path id="kvg:07538-s2" kvg:type="&#12742;" d="M36.5,27.75c1.25,0.75,3,1,5,0.5s41.25-3.75,46.25-4S93.31,24.71,93,30c-0.5,8.5-4.75,42-14.5,64.25c-2.17,4.95-5.25,2.5-9-2.25"/></g><g id="kvg:07538-g3" kvg:element="&#30000;" kvg:radical="general"><path id="kvg:07538-s3" kvg:type="&#12753;" d="M23.5,47.41c0.3,0.65,0.31,1.09,0.47,1.89c1.34,6.6,3.04,24.56,3.83,36.7"/><path id="kvg:07538-s4" kvg:type="&#12757;a" d="M24.92,48.41c10.64-0.67,29.37-3.28,37.31-3.93c2.92-0.24,4.4,1.67,4.24,3.44c-0.58,6.48-2.59,24.12-3.19,34.26"/><path id="kvg:07538-s5" kvg:type="&#12753;a" d="M44.9,47.22c-0.02,0.51-0.03,1.39-0.04,2.55c-0.04,7.65,0.19,27.27,0.19,30.05"/><path id="kvg:07538-s6" kvg:type="&#12752;a" d="M26.82,64.82c3.47-0.32,34.41-3.24,37.27-3.24"/><path id="kvg:07538-s7" kvg:type="&#12752;a" d="M28.36,82.79C38,81.5,53,80,63.38,79.14"/></g></g></g></svg>