<svg xmlns="http://www.w3.org/2000/svg" width="109" height="109" viewBox="0 0 109 109"><g xmlns:kvg="http://kanjivg.tagaini.net" id="kvg:StrokePaths_07530" style="fill:none;stroke:#000000;stroke-width:3;stroke-linecap:round;stroke-linejoin:round;"><g id="kvg:07530" kvg:element="&#30000;" kvg:radical="general"><path id="kvg:07530-s1" kvg:type="&#12753;" d="M18.25,27.48c1.2,1.2,2.11,2.68,2.28,3.95C22,42.25,23.52,62.11,24.81,80c0.17,2.4,0.34,3.75,0.49,6"/><path id="kvg:07530-s2" kvg:type="&#12757;a" d="M20.85,29.29c8.52-0.54,50.04-3.17,61.58-4.05c4.84-0.37,7.32,2.01,7.04,5.63c-0.69,8.8-2.83,30.69-3.99,46.64c-0.18,2.44-0.34,4.75-0.47,6.86"/><path id="kvg:07530-s3" kvg:type="&#12753;a" d="M53.25,29c0.88,0.88,1.19,2.12,1.19,3.5c0,9.52,0.31,46.37,0.31,47.25"/><path id="kvg:07530-s4" kvg:type="&#12752;a" d="M24,55.5c5.75-0.5,55.12-3.25,62.5-3.5"/><path id="kvg:07530-s5" kvg:type="&#12752;a" d="M25.98,83.07c14.77-0.82,39.39-2.07,58.18-2.83"/></g></g></svg>