<svg xmlns="http://www.w3.org/2000/svg" width="109" height="109" viewBox="0 0 109 109"><g xmlns:kvg="http://kanjivg.tagaini.net" id="kvg:StrokePaths_0754a" style="fill:none;stroke:#000000;stroke-width:3;stroke-linecap:round;stroke-linejoin:round;"><g id="kvg:0754a" kvg:element="&#30026;"><g id="kvg:0754a-g1" kvg:element="&#30000;" kvg:position="left" kvg:radical="tradit"><path id="kvg:0754a-s1" kvg:type="&#12753;" d="M12.74,27.38c0.21,0.82,1.21,1.91,1.33,2.92c0.94,8.31,1.32,31.64,1.9,46.91"/><path id="kvg:0754a-s2" kvg:type="&#12757;a" d="M14.22,29.2c7.26-0.65,18.71-2.27,24.13-2.94c1.99-0.25,3.01,2.18,2.91,4.4c-0.38,8.12-0.8,31.26-1.71,44.78"/><path id="kvg:0754a-s3" kvg:type="&#12753;a" d="M26.8,29.5c0.45,0.56,1.03,2.32,1.04,2.99c0.21,11.25,0.09,32.08,0.09,38.72"/><path id="kvg:0754a-s4" kvg:type="&#12752;a" d="M15.57,50.49c2.37-0.34,23.15-2.21,25.1-2.15"/><path id="kvg:0754a-s5" kvg:type="&#12752;a" d="M16.34,73.45c5.23,0.14,15.98-1.34,23.2-1.37"/></g><g id="kvg:0754a-g2" kvg:element="&#20117;" kvg:position="right"><g id="kvg:0754a-g3" kvg:element="&#20108;" kvg:part="1"><path id="kvg:0754a-s6" kvg:type="&#12752;" d="M50,36.9c1.02,0.37,2.9,0.53,3.9,0.37C61.75,36,81,35,91.43,34.51c1.7-0.08,2.72,0.18,3.57,0.36"/></g><g id="kvg:0754a-g4" kvg:element="&#24318;"><g id="kvg:0754a-g5" kvg:element="&#20108;" kvg:part="2"><g id="kvg:0754a-g6" kvg:element="&#21313;" kvg:part="1"><path id="kvg:0754a-s7" kvg:type="&#12752;" d="M46.75,63.7c1.52,0.54,4.3,0.62,5.82,0.54c9.43-0.49,29.18-2.74,41.11-2.73c2.53,0,4.05,0.26,5.31,0.53"/></g></g><g id="kvg:0754a-g7" kvg:element="&#20031;"><path id="kvg:0754a-s8" kvg:type="&#12754;" d="M59.73,14.25c0.76,1.02,1.27,2.05,1.52,3.07c0.25,1.02,0.25,32.28,0.25,34.58c0,22.8-7.85,38.17-19.5,45.34"/></g><g id="kvg:0754a-g8" kvg:element="&#21313;" kvg:part="2"><path id="kvg:0754a-s9" kvg:type="&#12753;" d="M78.87,11.25c1.09,0.5,1.74,2.25,1.96,3.25c0.22,1,0,77.25-0.22,83.5"/></g></g></g></g></g></svg>