<svg xmlns="http://www.w3.org/2000/svg" width="109" height="109" viewBox="0 0 109 109"><g xmlns:kvg="http://kanjivg.tagaini.net" id="kvg:StrokePaths_0756d" style="fill:none;stroke:#000000;stroke-width:3;stroke-linecap:round;stroke-linejoin:round;"><g id="kvg:0756d" kvg:element="&#30061;"><g id="kvg:0756d-g1" kvg:element="&#30000;" kvg:position="left" kvg:radical="general"><path id="kvg:0756d-s1" kvg:type="&#12753;" d="M13.24,26.6c0.21,0.8,1.21,1.86,1.33,2.85c0.94,8.1,0.82,30.37,1.4,45.26"/><path id="kvg:0756d-s2" kvg:type="&#12757;a" d="M14.72,28.38c7.26-0.63,19.21-1.71,24.63-2.37c1.99-0.24,3.01,2.12,2.91,4.29c-0.37,7.92-1.3,29.51-2.21,42.69"/><path id="kvg:0756d-s3" kvg:type="&#12753;a" d="M27.3,27.66c0.45,0.55,1.03,2.26,1.04,2.92c0.21,10.97,0.09,33.3,0.09,39.78"/><path id="kvg:0756d-s4" kvg:type="&#12752;a" d="M15.57,49.13c2.37-0.33,23.15-1.65,25.1-1.6"/><path id="kvg:0756d-s5" kvg:type="&#12752;a" d="M16.34,71.04c5.23,0.13,16.48-1.31,23.7-1.34"/></g><g id="kvg:0756d-g2" kvg:element="&#20313;" kvg:position="right"><g id="kvg:0756d-g3" kvg:element="&#20154;" kvg:position="top"><path id="kvg:0756d-s6" kvg:type="&#12754;" d="M68.31,10.5c0.08,0.81,0.29,2.16-0.16,3.27c-2.84,6.93-8.9,20.48-21.94,31.3"/><path id="kvg:0756d-s7" kvg:type="&#12751;" d="M67.54,14.99c3.87,5.03,21.93,22.14,25.75,25.89c1.29,1.27,2.96,1.82,4.25,2.18"/></g><g id="kvg:0756d-g4" kvg:position="bottom"><path id="kvg:0756d-s8" kvg:type="&#12752;" d="M54.5,44.18c1.01,0.26,2.86,0.3,3.88,0.26c9.78-0.43,13.72-1.72,21.93-2.06c1.51-0.06,2.43,0.12,3.19,0.25"/><path id="kvg:0756d-s9" kvg:type="&#12752;" d="M46.49,60.91c1.44,0.56,4.09,0.74,5.54,0.62c14.83-1.15,23.38-3.06,37.46-3.36c2.73-0.06,4.38,0.2,5.75,0.39"/><g id="kvg:0756d-g5" kvg:element="&#23567;"><path id="kvg:0756d-s10" kvg:type="&#12762;" d="M69.04,47.3c0.08,0.46,1.21,2.39,1.21,5.3c0,18.93-0.25,33.26-0.25,38.02c0,10.8-5.96,1.92-7.4,0.72"/><path id="kvg:0756d-s11" kvg:type="&#12754;" d="M57.22,72.25c0.04,0.45,0.18,1.23-0.08,1.82c-1.96,4.35-7,10.83-15,17.44"/><path id="kvg:0756d-s12" kvg:type="&#12756;" d="M81.62,72.99c4.62,2.82,11.94,11.58,13.09,15.96"/></g></g></g></g></g></svg>