<svg xmlns="http://www.w3.org/2000/svg" width="109" height="109" viewBox="0 0 109 109"><g xmlns:kvg="http://kanjivg.tagaini.net" id="kvg:StrokePaths_07565" style="fill:none;stroke:#000000;stroke-width:3;stroke-linecap:round;stroke-linejoin:round;"><g id="kvg:07565" kvg:element="&#30053;"><g id="kvg:07565-g1" kvg:element="&#30000;" kvg:position="left" kvg:radical="general"><path id="kvg:07565-s1" kvg:type="&#12753;" d="M12.37,33.18c0.66,0.66,0.97,2.03,1.09,2.98c0.86,6.97,1.24,24.04,1.72,37.84c0.06,1.64,0.11,3.23,0.17,4.76"/><path id="kvg:07565-s2" kvg:type="&#12757;a" d="M14.39,35.1c9.74-1.85,17.22-2.86,22.92-3.62c2.09-0.28,4.16,1.98,4.05,4.06c-0.38,6.99-0.32,23.26-0.8,35.2c-0.05,1.13-0.09,2.22-0.12,3.25"/><path id="kvg:07565-s3" kvg:type="&#12753;a" d="M26.73,34.13c0.63,0.63,0.97,1.74,0.97,2.86c0,9.1,0.14,32.39,0.14,35.66"/><path id="kvg:07565-s4" kvg:type="&#12752;a" d="M15.75,53.34c2.49-0.38,22.33-2.64,24.39-2.64"/><path id="kvg:07565-s5" kvg:type="&#12752;a" d="M16.25,75.73c8.5-1.23,14.25-2.23,23.24-2.95"/></g><g id="kvg:07565-g2" kvg:element="&#21508;" kvg:position="right" kvg:phon="&#21508;"><g id="kvg:07565-g3" kvg:element="&#22786;" kvg:position="top"><path id="kvg:07565-s6" kvg:type="&#12754;" d="M60.81,14c0,0.88-0.01,1.89-0.33,2.88C58.5,23,53.88,35.38,46.87,44.42"/><path id="kvg:07565-s7" kvg:type="&#12743;" d="M61.48,23.93c0.33,0.04,1.73,0,2.67-0.12c3.09-0.37,9.78-2.45,14.19-3.59c3.03-0.78,3.89,1.39,3.12,3.52C77.22,35.38,63.25,58,45.75,66.25"/><path id="kvg:07565-s8" kvg:type="&#12751;" d="M56.66,32.47c5.09,4.28,22.16,18.95,31.12,25.61c1.32,0.98,4.97,3.29,8.01,4.74"/></g><g id="kvg:07565-g4" kvg:element="&#21475;" kvg:position="bottom"><path id="kvg:07565-s9" kvg:type="&#12753;" d="M51.36,70.35c1.02,1.02,1.5,2.03,1.68,3.3c0.84,5.98,1.09,11.36,1.84,17.59c0.19,1.59,0.27,3.18,0.4,4.72"/><path id="kvg:07565-s10" kvg:type="&#12757;b" d="M53.69,72.32c8.94-1.41,22.8-3.27,29.07-4.16c2.87-0.41,4.49,1.59,4.05,3.86c-0.97,5.02-2.12,11.85-3.52,18.2"/><path id="kvg:07565-s11" kvg:type="&#12752;b" d="M56.22,93.61c5.04-0.57,17.75-1.51,26.05-2.41c1.1-0.12,2.48-0.1,3.54-0.1"/></g></g></g></g></svg>