<svg xmlns="http://www.w3.org/2000/svg" width="109" height="109" viewBox="0 0 109 109"><g xmlns:kvg="http://kanjivg.tagaini.net" id="kvg:StrokePaths_0758f" style="fill:none;stroke:#000000;stroke-width:3;stroke-linecap:round;stroke-linejoin:round;"><g id="kvg:0758f" kvg:element="&#30095;"><g id="kvg:0758f-g1" kvg:element="&#30091;" kvg:variant="true" kvg:position="left" kvg:radical="general"><path id="kvg:0758f-s1" kvg:type="&#12758;" d="M10.58,28.4c0.92,0.6,3.52,0.93,6.01,0.44c7.79-1.52,13.12-2.68,19.27-3.91c2.95-0.59,4.46,0.52,2.4,3.2c-1.93,2.5-5.31,6.5-8.51,10.62"/><g id="kvg:0758f-g2" kvg:element="&#21340;" kvg:original="&#12488;"><path id="kvg:0758f-s2" kvg:type="&#12753;" d="M25.5,39.33c0.83,0.83,1.25,2.17,1.25,3.66c0,6.51,0,28.01,0,37.09"/><path id="kvg:0758f-s3" kvg:type="&#12752;" d="M27.26,55.06c6.37-0.67,1-0.34,10.61-1.68c1.54-0.22,1.95-0.22,2.92,0"/></g><g id="kvg:0758f-g3" kvg:element="&#20154;"><path id="kvg:0758f-s4" kvg:type="&#12753;/&#12754;" d="M13.27,58.58c1.01,1.01,1.17,2.67,1.26,4.27c0.48,9.02,0.73,18.27,0.98,24.4"/><path id="kvg:0758f-s5" kvg:type="&#12736;/&#12751;" d="M9.75,88.75c1.12,1.12,2.43,1.39,4,0.5c7-4,15.25-9.5,23.25-14.25"/></g></g><g id="kvg:0758f-g4" kvg:element="&#13356;" kvg:position="right"><g id="kvg:0758f-g5" kvg:position="top"><g id="kvg:0758f-g6" kvg:element="&#20128;"><path id="kvg:0758f-s6" kvg:type="&#12753;a" d="M64.75,14.5c1.06,1.06,1.55,2.38,1.55,3.62c0,3.06-0.05,7.6-0.05,10.51"/><path id="kvg:0758f-s7" kvg:type="&#12752;" d="M45.44,31.53c2.95,0.56,5.84,0.15,8.83-0.19c8.35-0.93,21.76-2.77,30.6-3.46c2.5-0.2,5.5-0.26,7.94,0.24"/></g><g id="kvg:0758f-g7" kvg:element="&#21430;"><path id="kvg:0758f-s8" kvg:type="&#12764;" d="M64.19,33.5c0,1.12-0.44,2.12-1.05,2.92c-4.42,5.74-5.46,6.86-10.88,12.64c-2.75,2.93-1.73,3.41,1.75,2.51c10.88-2.82,14.12-3.74,26.38-6.94"/><path id="kvg:0758f-s9" kvg:type="&#12756;" d="M75.66,37.35c4.34,2.58,10.71,10.11,11.8,14.12"/></g></g><g id="kvg:0758f-g8" kvg:element="&#24029;" kvg:variant="true" kvg:original="&#24027;" kvg:position="bottom"><path id="kvg:0758f-s10" kvg:type="&#12754;" d="M52.27,60.14c0.67,0.67,0.92,1.65,0.91,2.87C53,78.84,49.07,89.86,39.31,95.22"/><path id="kvg:0758f-s11" kvg:type="&#12753;" d="M64.61,58.37c0.82,0.82,0.83,2.13,0.83,3.77c0,2.99,0.03,23.59,0.03,27.87"/><path id="kvg:0758f-s12" kvg:type="&#12767;" d="M78.1,55.87c0.95,0.95,1.2,2.63,1.2,4c0,8.79,0.04,17.57,0.04,23.54c0,10.59,1.42,11.62,9.34,11.62c7.95,0,9.08-1.03,9.08-9.04"/></g></g></g></g></svg>