<svg xmlns="http://www.w3.org/2000/svg" width="109" height="109" viewBox="0 0 109 109"><g xmlns:kvg="http://kanjivg.tagaini.net" id="kvg:StrokePaths_0759d" style="fill:none;stroke:#000000;stroke-width:3;stroke-linecap:round;stroke-linejoin:round;"><g id="kvg:0759d" kvg:element="&#30109;"><g id="kvg:0759d-g1" kvg:element="&#30098;" kvg:position="tare" kvg:radical="general"><path id="kvg:0759d-s1" kvg:type="&#12753;a" d="M55.31,12.13c0.76,0.38,2.36,2.88,2.51,3.65c0.15,0.77,0.08,4.15-0.07,8.96"/><path id="kvg:0759d-s2" kvg:type="&#12752;" d="M25.63,26.33c1.6,0.44,4.54,0.51,6.14,0.44c16.67-0.73,40.67-3.66,55.5-4.24c2.67-0.1,4.27,0.21,5.61,0.43"/><path id="kvg:0759d-s3" kvg:type="&#12754;" d="M31.99,27.5c0,1.1,0,2.18-0.01,3.25c-0.12,32.98-2.25,50.65-17.93,62.97"/><path id="kvg:0759d-s4" kvg:type="&#12756;" d="M13.75,38.5c3.79,1.81,9.8,7.44,10.75,10.25"/><path id="kvg:0759d-s5" kvg:type="&#12736;" d="M11.17,67.54c1.53,0.67,2.01,0.47,3.35-0.34c5.45-3.28,8.6-5.37,12.72-8.2"/></g><g id="kvg:0759d-g2" kvg:element="&#23665;"><path id="kvg:0759d-s6" kvg:type="&#12753;a" d="M60.74,36c0.76,0.47,2.51,2.75,2.51,4.49c0,0.96-0.1,43.76-0.25,49.68"/><path id="kvg:0759d-s7" kvg:type="&#12740;a" d="M41.68,61.71c0.83,0.52,1.78,2.72,1.66,3.76c-0.55,4.63-1.55,13.25-3.19,24.51c-0.34,2.35,0.71,3.83,2.74,3.25c6.57-1.91,35.07-4.22,45.47-4.51"/><path id="kvg:0759d-s8" kvg:type="&#12753;" d="M87.24,57.13c0.76,0.48,1.51,3.53,1.51,4.49C88.75,69,88.5,82,88.5,95.96"/></g></g></g></svg>