<svg xmlns="http://www.w3.org/2000/svg" width="109" height="109" viewBox="0 0 109 109"><g xmlns:kvg="http://kanjivg.tagaini.net" id="kvg:StrokePaths_07592" style="fill:none;stroke:#000000;stroke-width:3;stroke-linecap:round;stroke-linejoin:round;"><g id="kvg:07592" kvg:element="&#30098;" kvg:radical="tradit"><path id="kvg:07592-s1" kvg:type="&#12753;a" d="M60.06,6.88c1.34,1.34,1.51,2.74,1.51,4.4c0,0.79-0.07,7.96-0.07,10.71"/><path id="kvg:07592-s2" kvg:type="&#12752;" d="M31.38,23.08c1.62,1.05,4.46,1.37,6.04,1.45c2.09,0.1,3.53,0.06,4.73,0c14.48-0.65,29.23-2.03,43.99-3.26c3.45-0.29,6.82-0.38,10.25,0.21"/><path id="kvg:07592-s3" kvg:type="&#12754;" d="M33.99,24.75c0.75,0.75,0.69,2.18,0.66,3.25c-1.16,32.15-9.16,48.05-20.84,64.47"/><path id="kvg:07592-s4" kvg:type="&#12756;" d="M10.75,29.25c3.88,2.2,10.03,9.07,11,12.5"/><path id="kvg:07592-s5" kvg:type="&#12736;" d="M7.17,60.63c1.9,0.72,2.49,0.51,4.16-0.36c6.76-3.55,10.67-5.82,15.79-8.89"/></g></g></svg>