<svg xmlns="http://www.w3.org/2000/svg" width="109" height="109" viewBox="0 0 109 109"><g xmlns:kvg="http://kanjivg.tagaini.net" id="kvg:StrokePaths_0759a" style="fill:none;stroke:#000000;stroke-width:3;stroke-linecap:round;stroke-linejoin:round;"><g id="kvg:0759a" kvg:element="&#30106;"><g id="kvg:0759a-g1" kvg:element="&#30098;" kvg:position="tare" kvg:radical="general"><path id="kvg:0759a-s1" kvg:type="&#12753;a" d="M55.81,12.13c0.76,0.38,1.86,2.88,2.01,3.65c0.15,0.77,0.08,3.65-0.07,8.46"/><path id="kvg:0759a-s2" kvg:type="&#12752;" d="M25.63,25.49c1.89,0.67,5.36,0.78,7.26,0.67c19.7-1.13,35.59-2.64,53.12-3.52c3.15-0.16,5.05,0.32,6.62,0.66"/><path id="kvg:0759a-s3" kvg:type="&#12754;" d="M30.49,26.5c0,0.93,0,1.85-0.01,2.76c-0.18,35.05-3.83,51.63-17.18,66.46"/><path id="kvg:0759a-s4" kvg:type="&#12756;" d="M12.5,36.75c3.35,1.94,8.66,7.98,9.5,11"/><path id="kvg:0759a-s5" kvg:type="&#12736;" d="M10.67,67.04c1.53,0.67,2.01,0.47,3.35-0.34c5.45-3.28,7.1-4.37,11.22-7.2"/></g><g id="kvg:0759a-g2" kvg:element="&#20037;"><g id="kvg:0759a-g3" kvg:element="&#131210;" kvg:variant="true" kvg:original="&#21241;"><g id="kvg:0759a-g4" kvg:element="&#20031;"><path id="kvg:0759a-s6" kvg:type="&#12754;" d="M57.05,32c0.06,0.77,0.12,1.98-0.12,3.08c-1.38,6.48-8.42,21.13-19.23,29.84"/></g><path id="kvg:0759a-s7" kvg:type="&#12743;" d="M56.46,41.9c1.28,0.29,3.06,0.77,4.51,0.58c2.92-0.39,12.83-2.55,14.37-2.71c1.87-0.19,2.5,1.03,2.05,2.23c-6.15,16.5-25.4,44.5-51.65,54"/></g><path id="kvg:0759a-s8" kvg:type="&#12751;" d="M63.04,66.77C68,73.25,83.25,88.75,89.89,92.79c1.71,1.04,2.84,1.85,4.36,2.21"/></g></g></g></svg>