<svg xmlns="http://www.w3.org/2000/svg" width="109" height="109" viewBox="0 0 109 109"><g xmlns:kvg="http://kanjivg.tagaini.net" id="kvg:StrokePaths_07591" style="fill:none;stroke:#000000;stroke-width:3;stroke-linecap:round;stroke-linejoin:round;"><g id="kvg:07591" kvg:element="&#30097;"><g id="kvg:07591-g1" kvg:position="left" kvg:phon="&#30691;V"><g id="kvg:07591-g2" kvg:element="&#21269;" kvg:radical="nelson"><path id="kvg:07591-s1" kvg:type="&#12754;" d="M41.25,16.58c0,1.05-0.63,1.8-1.41,2.43c-2.76,2.23-6.93,4.97-13.84,8.39"/><path id="kvg:07591-s2" kvg:type="&#12767;" d="M23.06,13.5c0.66,0.66,1.08,1.75,1.08,2.93c0,0.54-0.11,14.42-0.11,16.07c0,5,1.72,6.07,9.83,6.07c8.39,0,10.25-1.08,10.25-5.15"/></g><g id="kvg:07591-g3" kvg:element="&#30690;" kvg:variant="true"><path id="kvg:07591-s3" kvg:type="&#12754;" d="M26.39,44.57c0,0.81-0.31,1.76-0.59,2.61c-1.79,3.57-4.67,8.69-10.47,14.37"/><g id="kvg:07591-g4" kvg:element="&#22825;" kvg:variant="true"><path id="kvg:07591-s4" kvg:type="&#12752;" d="M24.4,53.58c0.85,0.17,1.84-0.01,3.13-0.16c2.46-0.29,6.85-1.47,10.3-2.1c1.22-0.22,2.5-0.29,3.12-0.17"/><g id="kvg:07591-g5" kvg:element="&#22823;" kvg:variant="true"><path id="kvg:07591-s5" kvg:type="&#12752;" d="M13.11,69.86c2.01,0.39,3.79,0.18,5.54-0.1c8.23-1.32,16.58-3.4,23.22-4.21c1.82-0.22,3.57-0.41,5.39-0.05"/><path id="kvg:07591-s6" kvg:type="&#12754;" d="M31.01,56.45c0.49,1.05,0.57,2.15,0.39,3.28C28.5,77.25,23.5,86.75,14.75,94.68"/><path id="kvg:07591-s7" kvg:type="&#12756;/&#12751;" d="M32,71.62c4.62,3.25,6.97,6.48,8.99,10.25"/></g></g></g></g><g id="kvg:07591-g6" kvg:position="right"><g id="kvg:07591-g7" kvg:element="&#12510;"><path id="kvg:07591-s8" kvg:type="&#12743;" d="M53.5,19.99c1.25,0.64,3,0.52,4.08,0.32c5.17-0.94,20.79-4.69,23.39-5.37c2.22-0.58,3.55,1.62,2.37,3.02c-2.47,2.91-9.97,11.16-13.76,14.86"/><path id="kvg:07591-s9" kvg:type="&#12756;" d="M61.75,30.12c2.04,1.02,7.76,5.37,8.72,8.03"/></g><g id="kvg:07591-g8" kvg:element="&#30091;" kvg:radical="tradit"><path id="kvg:07591-s10" kvg:type="&#12758;a" d="M51.94,45.32c1.67,0.33,3.3,0.29,4.98,0c9.58-1.69,17.45-3.69,28.43-6.3c6.58-1.56,0.9,4.73-1.17,6.77"/><g id="kvg:07591-g9" kvg:element="&#21340;" kvg:original="&#12488;"><path id="kvg:07591-s11" kvg:type="&#12753;a" d="M67.68,45.91c0.77,0.77,1.29,1.84,1.29,2.9c0,3.69-0.06,24.69-0.06,29.76"/><path id="kvg:07591-s12" kvg:type="&#12752;b" d="M70.09,60.4c5.16-0.77,8.66-1.52,12.55-2.26c1.2-0.23,2.74-0.25,3.95,0.03"/></g><g id="kvg:07591-g10" kvg:element="&#20154;"><path id="kvg:07591-s13" kvg:type="&#12754;" d="M56.12,58.86c0.25,0.77,0.33,2.06,0.17,3.07C55.31,67.88,50.75,83,40.95,89.57"/><path id="kvg:07591-s14" kvg:type="&#12751;" d="M55.07,69.97C60.62,73.5,76.5,85,85.26,90.87c2.43,1.63,5.18,2.91,7.85,4.11"/></g></g></g></g></g></svg>