<svg xmlns="http://www.w3.org/2000/svg" width="109" height="109" viewBox="0 0 109 109"><g xmlns:kvg="http://kanjivg.tagaini.net" id="kvg:StrokePaths_075ab" style="fill:none;stroke:#000000;stroke-width:3;stroke-linecap:round;stroke-linejoin:round;"><g id="kvg:075ab" kvg:element="&#30123;"><g id="kvg:075ab-g1" kvg:element="&#30098;" kvg:position="tare" kvg:radical="general"><path id="kvg:075ab-s1" kvg:type="&#12753;a" d="M57.55,13.13c1.03,1.03,1.21,2.37,1.21,3.65c0,0.78-0.01,5.21-0.01,7.21"/><path id="kvg:075ab-s2" kvg:type="&#12752;" d="M27.74,26.98c2.51,0.77,5.17,0.69,7.64,0.38c16.61-2.1,34-3.8,46.62-4.65c2.7-0.18,5.22-0.22,7.88,0.37"/><path id="kvg:075ab-s3" kvg:type="&#12754;" d="M30.26,27.75c0.87,0.87,1.17,2.25,1.16,3.88c-0.04,19.99,0.46,43.87-15.76,61.09"/><path id="kvg:075ab-s4" kvg:type="&#12756;" d="M15.88,37.25c2.5,1.59,6.47,6.53,7.1,9"/><path id="kvg:075ab-s5" kvg:type="&#12736;" d="M11.92,64.72c1.2,0.9,2.96,0.76,4.34-0.14c4.73-3.08,5.61-3.95,11.1-7.83"/></g><g id="kvg:075ab-g2" kvg:element="&#27571;" kvg:phon="&#27571;/&#24441;T"><g id="kvg:075ab-g3" kvg:element="&#20960;" kvg:position="top"><g id="kvg:075ab-g4" kvg:element="&#20031;"><path id="kvg:075ab-s6" kvg:type="&#12754;" d="M49.67,33.48c0.61,0.61,0.98,1.51,0.96,2.36c-0.19,8.79-1.13,16.41-8.6,22.6"/></g><path id="kvg:075ab-s7" kvg:type="&#12744;b" d="M51.35,36.12c3.78-0.49,14.28-2.59,15.98-3c1.55-0.37,2.67,1.01,2.5,2.75c-0.32,3.26-0.5,5.89-0.5,8.99c0,6.4,0.8,7.99,8.24,7.99c8.94,0,9.94-2.09,10.24-8.99"/></g><g id="kvg:075ab-g5" kvg:element="&#21448;" kvg:position="bottom"><path id="kvg:075ab-s8" kvg:type="&#12743;" d="M45.6,64.27c1.5,0.3,2.69,0.49,5.68,0.05c3-0.44,18.39-3.3,20.48-3.62c2.87-0.44,2.78,2.25,1.81,3.76C63.75,79.62,52,87.88,33.87,96.17"/><path id="kvg:075ab-s9" kvg:type="&#12751;" d="M45.04,70.85c3.87,0.54,20.31,13.29,34.66,20.76c3.36,1.75,6.43,3.14,10.23,4.27"/></g></g></g></g></svg>