<svg xmlns="http://www.w3.org/2000/svg" width="109" height="109" viewBox="0 0 109 109"><g xmlns:kvg="http://kanjivg.tagaini.net" id="kvg:StrokePaths_075a3" style="fill:none;stroke:#000000;stroke-width:3;stroke-linecap:round;stroke-linejoin:round;"><g id="kvg:075a3" kvg:element="&#30115;"><g id="kvg:075a3-g1" kvg:element="&#30098;" kvg:position="tare" kvg:radical="general"><path id="kvg:075a3-s1" kvg:type="&#12753;a" d="M54.41,11.13c0.7,0.36,2.18,2.66,2.32,3.37c0.14,0.71,0.07,4.8-0.07,9.24"/><path id="kvg:075a3-s2" kvg:type="&#12752;" d="M24.13,25.23c1.52,0.54,4.3,0.63,5.82,0.54c15.8-0.91,42.05-2.52,56.11-3.23c2.53-0.13,4.05,0.26,5.31,0.53"/><path id="kvg:075a3-s3" kvg:type="&#12754;" d="M29.99,26.5c0,1.88-0.01,3.72-0.02,5.5c-0.22,33-2.69,48.56-15.92,63.47"/><path id="kvg:075a3-s4" kvg:type="&#12756;" d="M12.5,38c3.53,2.25,9.12,9.25,10,12.75"/><path id="kvg:075a3-s5" kvg:type="&#12736;" d="M9.67,68.48c1.46,0.76,1.91,0.54,3.2-0.38c5.2-3.74,8.2-6.12,12.13-9.35"/></g><g id="kvg:075a3-g2" kvg:element="&#23588;"><g id="kvg:075a3-g3" kvg:element="&#23586;"><path id="kvg:075a3-s6" kvg:type="&#12752;" d="M37.24,47.31c1.27,0.47,3.61,0.6,4.88,0.47c9.06-0.94,31.19-2.82,44.86-2.8c2.12,0,3.39,0.22,4.45,0.46"/><g id="kvg:075a3-g4" kvg:element="&#20799;" kvg:original="&#20843;"><g id="kvg:075a3-g5" kvg:element="&#20031;"><path id="kvg:075a3-s7" kvg:type="&#12754;" d="M60.3,31c0.09,1.67,0.2,1.57,0.2,3.87c0,15.64-4.8,49.31-30.83,61.3"/></g><path id="kvg:075a3-s8" kvg:type="&#12767;" d="M61.73,55c0.65,1.29,1.16,2.81,1.2,4.81c0.17,8.89-0.46,17.53-0.46,23.57c0,10.37,2.27,12.52,15.43,12.52c15.6,0,16.49-1.65,16.49-9.91"/></g></g><g id="kvg:075a3-g6" kvg:element="&#20022;"><path id="kvg:075a3-s9" kvg:type="&#12756;" d="M71.18,29.88c3.51,1.6,9.07,6.59,9.95,9.08"/></g></g></g></g></svg>