<svg xmlns="http://www.w3.org/2000/svg" width="109" height="109" viewBox="0 0 109 109"><g xmlns:kvg="http://kanjivg.tagaini.net" id="kvg:StrokePaths_075bc" style="fill:none;stroke:#000000;stroke-width:3;stroke-linecap:round;stroke-linejoin:round;"><g id="kvg:075bc" kvg:element="&#30140;"><g id="kvg:075bc-g1" kvg:element="&#30098;" kvg:position="tare" kvg:radical="general"><path id="kvg:075bc-s1" kvg:type="&#12753;a" d="M53.91,11.13c0.7,0.36,2.18,2.66,2.32,3.37c0.14,0.71,0.07,4.3-0.07,8.74"/><path id="kvg:075bc-s2" kvg:type="&#12752;" d="M25.38,24.73c1.82,0.54,5.15,0.63,6.96,0.54c18.9-0.91,33.36-2.52,50.18-3.23c3.02-0.13,4.84,0.26,6.36,0.53"/><path id="kvg:075bc-s3" kvg:type="&#12754;" d="M29.99,26.5c-0.04,1.28-0.08,2.53-0.13,3.76c-1.04,29.14-3.35,45.78-14.81,64.46"/><path id="kvg:075bc-s4" kvg:type="&#12756;" d="M14.75,39.5c2.38,1.19,6.15,4.9,6.75,6.75"/><path id="kvg:075bc-s5" kvg:type="&#12736;" d="M10.67,67.13c1.29,0.52,2.7,0.87,3.83,0.24c4.6-2.55,6.26-4.17,9.75-6.37"/></g><g id="kvg:075bc-g2" kvg:element="&#20908;"><g id="kvg:075bc-g3" kvg:element="&#22786;" kvg:position="top"><path id="kvg:075bc-s6" kvg:type="&#12754;" d="M53.98,31.5c0.05,0.65,0.11,1.69-0.1,2.63c-1.22,5.54-8.19,17.7-17.74,25.14"/><path id="kvg:075bc-s7" kvg:type="&#12743;" d="M56.41,37.79c0.66-0.07,3.16-0.18,4.34-0.32c3.86-0.46,9.75-1.74,12.83-2.41c2.76-0.6,3.51,1.17,2.84,2.83C72,49,52.5,70,33.75,76.53"/><path id="kvg:075bc-s8" kvg:type="&#12751;" d="M50.09,44.68c5.36,4.9,29.68,23.53,36.91,28c2.16,1.34,3.9,1.99,6,2.38"/></g><g id="kvg:075bc-g4" kvg:element="&#20907;" kvg:original="&#27703;" kvg:position="bottom"><g id="kvg:075bc-g5" kvg:position="top"><path id="kvg:075bc-s9" kvg:type="&#12756;" d="M56.69,72.32c4.48,1.45,11.58,5.95,12.7,8.2"/></g><g id="kvg:075bc-g6" kvg:position="bottom"><path id="kvg:075bc-s10" kvg:type="&#12736;" d="M  45.029791,95.672291 C 60.08625,91.203333 69.695624,86.572084 84.161041,81.082292"/></g></g></g></g></g></svg>