<svg xmlns="http://www.w3.org/2000/svg" width="109" height="109" viewBox="0 0 109 109"><g xmlns:kvg="http://kanjivg.tagaini.net" id="kvg:StrokePaths_075b8" style="fill:none;stroke:#000000;stroke-width:3;stroke-linecap:round;stroke-linejoin:round;"><g id="kvg:075b8" kvg:element="&#30136;"><g id="kvg:075b8-g1" kvg:element="&#30098;" kvg:position="tare" kvg:radical="general"><path id="kvg:075b8-s1" kvg:type="&#12753;a" d="M55.41,11.13c0.7,0.36,2.18,2.66,2.32,3.37c0.14,0.71,0.07,4.3-0.07,8.74"/><path id="kvg:075b8-s2" kvg:type="&#12752;" d="M25.13,24.73c1.52,0.54,4.3,0.63,5.82,0.54c15.8-0.91,42.05-2.02,56.11-2.73c2.53-0.13,4.05,0.26,5.31,0.53"/><path id="kvg:075b8-s3" kvg:type="&#12754;" d="M30.74,25.25c0,1.27-0.01,2.52-0.02,3.75c-0.28,31.57-4.31,48.5-17.17,66.47"/><path id="kvg:075b8-s4" kvg:type="&#12756;" d="M12,35.75c3.71,2.12,9.57,8.71,10.5,12"/><path id="kvg:075b8-s5" kvg:type="&#12736;" d="M11.17,67.02c1.36,0.7,1.79,0.5,2.99-0.36c4.86-3.46,7.66-5.67,11.34-8.66"/></g><g id="kvg:075b8-g2" kvg:element="&#26086;"><g id="kvg:075b8-g3" kvg:element="&#26085;" kvg:position="top"><path id="kvg:075b8-s6" kvg:type="&#12753;" d="M46.19,39.51c0.42,0.93,0.79,1.9,0.85,3.15c0.21,4.09,1.86,36.24,2,37.49"/><path id="kvg:075b8-s7" kvg:type="&#12757;a" d="M48.24,41.42c2.39-0.16,23.6-2.99,25.78-3.18c1.82-0.16,2.99,1.72,2.84,2.65c-0.28,1.87-1.56,36.7-1.56,37.63"/><path id="kvg:075b8-s8" kvg:type="&#12752;a" d="M49.33,58.48c3.24,0,21.67-1.56,25.33-1.56"/><path id="kvg:075b8-s9" kvg:type="&#12752;a" d="M48.91,77.35c7.4-0.71,18.93-1.26,25.89-1.58"/></g><g id="kvg:075b8-g4" kvg:element="&#19968;" kvg:position="bottom"><path id="kvg:075b8-s10" kvg:type="&#12752;" d="M29.3,91.71c1.76,0.7,5,0.74,6.76,0.7c15.58-0.35,34.74-2.29,52.96-2.27c2.94,0,4.7,0.33,6.17,0.69"/></g></g></g></g></svg>