<svg xmlns="http://www.w3.org/2000/svg" width="109" height="109" viewBox="0 0 109 109"><g xmlns:kvg="http://kanjivg.tagaini.net" id="kvg:StrokePaths_075c2" style="fill:none;stroke:#000000;stroke-width:3;stroke-linecap:round;stroke-linejoin:round;"><g id="kvg:075c2" kvg:element="&#30146;"><g id="kvg:075c2-g1" kvg:element="&#30098;" kvg:position="tare" kvg:radical="general"><path id="kvg:075c2-s1" kvg:type="&#12753;a" d="M54.91,11.13c0.7,0.36,2.18,2.66,2.32,3.37c0.14,0.71,0.07,4.3-0.07,8.74"/><path id="kvg:075c2-s2" kvg:type="&#12752;" d="M24.63,24.73c1.52,0.54,4.3,0.63,5.82,0.54c15.8-0.91,42.55-2.52,56.61-3.23c2.53-0.13,4.05,0.26,5.31,0.53"/><path id="kvg:075c2-s3" kvg:type="&#12754;" d="M29.99,26c0,36.42-2.99,53.5-15.19,68.22"/><path id="kvg:075c2-s4" kvg:type="&#12756;" d="M13.5,37c3.35,2.25,8.66,9.25,9.5,12.75"/><path id="kvg:075c2-s5" kvg:type="&#12736;" d="M9.67,66.07c1.44,0.61,1.88,0.43,3.15-0.31c5.11-3,8.06-4.92,11.93-7.51"/></g><g id="kvg:075c2-g2" kvg:element="&#21152;"><g id="kvg:075c2-g3" kvg:element="&#21147;" kvg:position="left"><path id="kvg:075c2-s6" kvg:type="&#12742;" d="M35.16,47.53c1.22,0.61,2.74,0.95,3.81,0.83c5.28-0.61,12.64-1.41,17.44-2.03c3.13-0.4,4.08,0.42,3.82,4.65c-0.76,12.27-2.74,24.28-6.91,36.15c-3.65,10.38-6.08,2.28-7.34,1.39"/><path id="kvg:075c2-s7" kvg:type="&#12754;" d="M49.63,32.93c0.22,0.33,0.26,1.78,0.15,3.43c-1.01,15.37-7.09,42.54-21.45,55.92"/></g><g id="kvg:075c2-g4" kvg:element="&#21475;" kvg:position="right"><path id="kvg:075c2-s8" kvg:type="&#12753;" d="M66.74,42.35c0.39,0.87,1.29,2.6,1.46,3.69c1.36,8.64,1.91,33.21,1.91,46.47"/><path id="kvg:075c2-s9" kvg:type="&#12757;b" d="M67.99,43.92c8.77-1.26,13.26-2.17,18.39-2.64c1.61-0.15,3.12,0.97,3.05,3.27C89.28,49.5,88,77,87.61,88.11"/><path id="kvg:075c2-s10" kvg:type="&#12752;b" d="M70.42,90.61c5.14-0.51,12.67-1.86,19.38-2.49"/></g></g></g></g></svg>