<svg xmlns="http://www.w3.org/2000/svg" width="109" height="109" viewBox="0 0 109 109"><g xmlns:kvg="http://kanjivg.tagaini.net" id="kvg:StrokePaths_075de" style="fill:none;stroke:#000000;stroke-width:3;stroke-linecap:round;stroke-linejoin:round;"><g id="kvg:075de" kvg:element="&#30174;"><g id="kvg:075de-g1" kvg:element="&#30098;" kvg:position="tare" kvg:radical="general"><path id="kvg:075de-s1" kvg:type="&#12753;a" d="M55.91,12.13c0.7,0.36,2.18,2.66,2.32,3.37c0.14,0.71,0.07,3.3-0.07,7.74"/><path id="kvg:075de-s2" kvg:type="&#12752;" d="M27.63,25.23c1.52,0.54,4.3,0.63,5.82,0.54c15.8-0.91,37.05-2.52,51.11-3.23c2.53-0.13,4.05,0.26,5.31,0.53"/><path id="kvg:075de-s3" kvg:type="&#12754;" d="M30.49,26c0,1.28,0,2.53,0,3.75c-0.07,32.97-1.27,46.13-15.68,63.22"/><path id="kvg:075de-s4" kvg:type="&#12756;" d="M15.25,37.25c3.09,1.32,7.98,5.44,8.75,7.5"/><path id="kvg:075de-s5" kvg:type="&#12736;" d="M12.17,64.86c1.34,0.55,1.76,0.39,2.94-0.28c4.77-2.73,7.53-4.47,11.14-6.83"/></g><g id="kvg:075de-g2" kvg:element="&#21542;"><g id="kvg:075de-g3" kvg:element="&#19981;" kvg:position="top"><g id="kvg:075de-g4" kvg:element="&#19968;"><path id="kvg:075de-s6" kvg:type="&#12752;" d="M39.53,39.49c1.24,0.4,3.51,0.49,4.75,0.4c9.47-0.64,24.56-2.51,38.18-3.25c2.06-0.11,3.3,0.19,4.34,0.4"/></g><g id="kvg:075de-g5" kvg:element="&#20031;"><path id="kvg:075de-s7" kvg:type="&#12754;" d="M64.22,37.83c0.08,0.65,0.16,1.69-0.16,2.63c-1.87,5.54-12.6,17.71-27.29,25.16"/></g><g id="kvg:075de-g6" kvg:element="&#20008;"><path id="kvg:075de-s8" kvg:type="&#12753;" d="M61.2,49.58c0.73,0.31,1.17,1.38,1.32,2c0.14,0.61,0,13.03-0.15,16.86"/></g><path id="kvg:075de-s9" kvg:type="&#12756;" d="M70.62,49.88c6.35,2.1,14.16,7.18,17.98,11.9"/></g><g id="kvg:075de-g7" kvg:element="&#21475;" kvg:position="bottom"><path id="kvg:075de-s10" kvg:type="&#12753;" d="M44.66,74.27c0.38,0.32,0.76,0.59,0.93,0.99c1.31,3.19,2.38,14.47,3.27,20.2"/><path id="kvg:075de-s11" kvg:type="&#12757;b" d="M45.89,75.71c9.62-0.82,28.3-2.41,33.06-2.86c1.74-0.16,2.79,1.66,2.54,2.63c-1.03,4.01-1.75,8.57-3.68,15.75"/><path id="kvg:075de-s12" kvg:type="&#12752;b" d="M49.23,93.36c7.08-0.43,21.29-1.28,30.45-1.62"/></g></g></g></g></svg>