<svg xmlns="http://www.w3.org/2000/svg" width="109" height="109" viewBox="0 0 109 109"><g xmlns:kvg="http://kanjivg.tagaini.net" id="kvg:StrokePaths_075d8" style="fill:none;stroke:#000000;stroke-width:3;stroke-linecap:round;stroke-linejoin:round;"><g id="kvg:075d8" kvg:element="&#30168;"><g id="kvg:075d8-g1" kvg:element="&#30098;" kvg:position="tare" kvg:radical="general"><path id="kvg:075d8-s1" kvg:type="&#12753;a" d="M55.81,13.63c1.03,1.03,1.51,2.37,1.51,3.9c0,0.79,0.08,2.65-0.07,7.46"/><path id="kvg:075d8-s2" kvg:type="&#12752;" d="M25.88,27.48c2.38,0.85,5.17,0.7,7.62,0.43c16.37-1.78,34.81-3.13,48.38-3.98c2.65-0.17,5.14-0.17,7.75,0.39"/><path id="kvg:075d8-s3" kvg:type="&#12754;" d="M29.74,28.75c1.07,1.07,1.27,2.51,1.24,3.49C30.25,57,27.88,76.25,15.31,94.47"/><path id="kvg:075d8-s4" kvg:type="&#12756;" d="M13.12,39.62C15.9,41.5,20.3,47.33,21,50.25"/><path id="kvg:075d8-s5" kvg:type="&#12736;" d="M10.3,67.57c0.95,0.43,2.02,0.59,3.38-0.42C19.17,63.09,22.34,60.5,26.5,57"/></g><g id="kvg:075d8-g2" kvg:element="&#35910;" kvg:phon="&#35910;"><g id="kvg:075d8-g3" kvg:position="top"><path id="kvg:075d8-s6" kvg:type="&#12752;" d="M40.52,40.87c2.6,0.21,4.71-0.08,7.36-0.39c8.6-0.99,17.99-1.99,28.61-2.94c2-0.18,4.13-0.27,6.09,0.2"/></g><g id="kvg:075d8-g4" kvg:position="bottom"><g id="kvg:075d8-g5" kvg:element="&#21475;"><path id="kvg:075d8-s7" kvg:type="&#12753;" d="M42.96,51.83c0.86,0.85,1.34,1.58,1.66,3.29c0.61,3.2,1.39,7.5,2.38,12.39c0.23,1.14,0.46,2.27,0.68,3.36"/><path id="kvg:075d8-s8" kvg:type="&#12757;b" d="M44.86,52.66c7-0.64,24.08-2.41,30.51-2.73c3.1-0.16,4.87,0.63,4.01,3.95c-0.82,3.19-2.01,7-3.51,11.67"/><path id="kvg:075d8-s9" kvg:type="&#12752;b" d="M48.33,69.14C55,68.5,65.11,67.6,73.5,66.99c1.84-0.13,3.51-0.22,4.89-0.24"/></g><path id="kvg:075d8-s10" kvg:type="&#12756;" d="M47.17,76.47c2.17,1.94,5.6,8,6.14,11.02"/><path id="kvg:075d8-s11" kvg:type="&#12754;" d="M76.48,71.53c0.02,0.44,0.22,1.19-0.05,1.77c-2.1,4.43-4.05,8.58-7.44,14.15"/><path id="kvg:075d8-s12" kvg:type="&#12752;" d="M30.07,92.03c3.81,0.72,6.94,0.48,10.05,0.19c13.89-1.29,33.26-2.48,47-2.96c3.5-0.12,6.9,0.09,10.31,0.82"/></g></g></g></g></svg>