<svg xmlns="http://www.w3.org/2000/svg" width="109" height="109" viewBox="0 0 109 109"><g xmlns:kvg="http://kanjivg.tagaini.net" id="kvg:StrokePaths_075d2" style="fill:none;stroke:#000000;stroke-width:3;stroke-linecap:round;stroke-linejoin:round;"><g id="kvg:075d2" kvg:element="&#30162;"><g id="kvg:075d2-g1" kvg:element="&#30098;" kvg:position="tare" kvg:radical="general"><path id="kvg:075d2-s1" kvg:type="&#12753;a" d="M55.41,9.63c0.7,0.36,2.18,2.66,2.32,3.37c0.14,0.71,0.07,3.8-0.07,8.24"/><path id="kvg:075d2-s2" kvg:type="&#12752;" d="M27.63,22.73c1.83,0.54,5.18,0.63,7,0.54c19.01-0.91,31.94-2.52,48.85-3.23c3.04-0.13,4.87,0.26,6.39,0.53"/><path id="kvg:075d2-s3" kvg:type="&#12754;" d="M30.99,23.5c-0.02,1.27-0.04,2.52-0.07,3.75c-0.68,30.89-4.08,48.36-14.37,63.72"/><path id="kvg:075d2-s4" kvg:type="&#12756;" d="M14.5,37.75c2.82,1.68,7.29,6.89,8,9.5"/><path id="kvg:075d2-s5" kvg:type="&#12736;" d="M11.92,66.25c1.32,0.74,1.73,0.53,2.89-0.37c4.69-3.65,7.4-5.97,10.94-9.12"/></g><g id="kvg:075d2-g2" kvg:element="&#32650;"><path id="kvg:075d2-s6" kvg:type="&#12756;" d="M47.15,28.86c2.55,1.5,6.58,6.15,7.22,8.48"/><path id="kvg:075d2-s7" kvg:type="&#12754;" d="M74.98,26.39c0.02,0.29,0.04,0.75-0.04,1.16c-0.48,2.45-3.24,7.81-7.02,11.1"/><path id="kvg:075d2-s8" kvg:type="&#12752;" d="M40.86,43.34c1.18,0.41,3.31,0.46,4.51,0.41c10.88-0.5,25.81-2.78,36.41-2.63c1.96,0.03,3.14,0.19,4.12,0.4"/><path id="kvg:075d2-s9" kvg:type="&#12752;" d="M43.11,57.88c0.78,0.35,2.2,0.35,3,0.35c10.13-0.02,24.89-1.73,34.7-2.1c1.3-0.05,2.3,0.38,3.43,0.38"/><path id="kvg:075d2-s10" kvg:type="&#12752;" d="M34.42,73.81c1.44,0.78,4.06,0.85,5.51,0.78C51.5,74,71.1,72,86.92,70.94c2.39-0.16,3.23,0.48,5.41,0.84"/><path id="kvg:075d2-s11" kvg:type="&#12753;" d="M61.64,45.62c0.76,0.46,1.21,2.06,1.36,2.98c0.15,0.92,0,45.16-0.15,50.9"/></g></g></g></svg>