<svg xmlns="http://www.w3.org/2000/svg" width="109" height="109" viewBox="0 0 109 109"><g xmlns:kvg="http://kanjivg.tagaini.net" id="kvg:StrokePaths_075e9" style="fill:none;stroke:#000000;stroke-width:3;stroke-linecap:round;stroke-linejoin:round;"><g id="kvg:075e9" kvg:element="&#30185;"><g id="kvg:075e9-g1" kvg:element="&#30098;" kvg:position="tare" kvg:radical="general"><path id="kvg:075e9-s1" kvg:type="&#12753;a" d="M55.56,11.38c1.28,1.28,1.76,2.99,1.76,4.4c0,2.21-0.07,4.09-0.07,6.96"/><path id="kvg:075e9-s2" kvg:type="&#12752;" d="M26.13,24.73c3.83,0.66,7.67,0.72,11.51,0.18c12.97-0.87,28.68-2.27,40.73-3.04c3.68-0.51,7.35-0.45,11,0.2"/><path id="kvg:075e9-s3" kvg:type="&#12754;" d="M30.74,26.5c0.82,0.82,1,2.35,0.96,3.37c-1.08,33.38-5.08,49.63-16.9,64.85"/><path id="kvg:075e9-s4" kvg:type="&#12756;" d="M14.25,38.5c2.74,1.63,7.07,6.71,7.75,9.25"/><path id="kvg:075e9-s5" kvg:type="&#12736;" d="M11.67,64.83c1.46,0.59,1.95,0.48,3.2-0.3C20.5,61,22.57,59.51,26.5,57"/></g><g id="kvg:075e9-g2" kvg:element="&#21471;" kvg:partial="true"><g id="kvg:075e9-g3" kvg:element="&#30003;" kvg:position="top"><g id="kvg:075e9-g4" kvg:element="&#30000;" kvg:original="&#33276;" kvg:partial="true"><path id="kvg:075e9-s6" kvg:type="&#12753;" d="M39.51,38.26c0.62,0.62,0.95,1.47,1.17,2.26c0.89,4.97,1.59,9.26,2.42,14.21c0.29,1.76,0.6,3.6,0.94,5.58"/><path id="kvg:075e9-s7" kvg:type="&#12757;" d="M41.27,39.27c12.28-1.44,28.26-3.33,37.12-4.09c2.97-0.25,6.33,0.87,5.74,4.22c-0.54,3.06-1.77,7.82-2.92,12.19c-0.51,1.95-1.01,3.83-1.43,5.44"/><path id="kvg:075e9-s8" kvg:type="&#12752;" d="M43.16,48.24c11.22-1.24,26.22-2.37,38.64-3.52"/><path id="kvg:075e9-s9" kvg:type="&#12752;" d="M44.84,57.82c11.78-1.32,20.41-1.95,34.39-2.74"/></g><g id="kvg:075e9-g5" kvg:element="&#20008;"><path id="kvg:075e9-s10" kvg:type="&#12753;" d="M60,28.5c1,1,1.34,2.12,1.34,2.97c0,0.87-0.09,25.51-0.09,34.53"/></g></g><g id="kvg:075e9-g6" kvg:element="&#21448;" kvg:position="bottom"><path id="kvg:075e9-s11" kvg:type="&#12743;" d="M41.58,69.19c2.44,0.36,4.59,0.22,7.04-0.11c5.88-0.78,19.27-3.03,24.05-3.83c3.58-0.6,5.29,1.14,2.92,4.29c-9.66,12.76-22.13,21.64-39.86,27.22"/><path id="kvg:075e9-s12" kvg:type="&#12751;" d="M45.89,73.67c5.29-0.15,15.99,10.83,30.87,18.41c3.86,2.26,7.95,3.98,12.26,5.14"/></g></g></g></g></svg>