<svg xmlns="http://www.w3.org/2000/svg" width="109" height="109" viewBox="0 0 109 109"><g xmlns:kvg="http://kanjivg.tagaini.net" id="kvg:StrokePaths_075f4" style="fill:none;stroke:#000000;stroke-width:3;stroke-linecap:round;stroke-linejoin:round;"><g id="kvg:075f4" kvg:element="&#30196;"><g id="kvg:075f4-g1" kvg:element="&#30098;" kvg:position="tare" kvg:radical="general"><path id="kvg:075f4-s1" kvg:type="&#12753;a" d="M56.56,12.88c0.97,0.97,1.26,2.12,1.26,3.65c0,0.79-0.07,4.84-0.07,7.71"/><path id="kvg:075f4-s2" kvg:type="&#12752;" d="M25.13,27.48c1.52,0.54,4.31,0.68,5.82,0.54C48,26.5,71.5,24,85.56,23.29c2.53-0.13,4.05,0.26,5.31,0.53"/><path id="kvg:075f4-s3" kvg:type="&#12754;" d="M28.74,28.75c0.88,0.88,1.25,2.12,1.25,3.51c0,33.31-1.49,47.24-14.93,61.96"/><path id="kvg:075f4-s4" kvg:type="&#12756;" d="M13.75,41.5c2.65,1.54,6.84,6.35,7.5,8.75"/><path id="kvg:075f4-s5" kvg:type="&#12736;" d="M11.17,67.5c1.41,0.74,2.35,0.78,3.59-0.13c5.03-3.65,7.43-5.72,11.23-8.87"/></g><g id="kvg:075f4-g2" kvg:element="&#30693;" kvg:phon="&#30693;"><g id="kvg:075f4-g3" kvg:element="&#30690;" kvg:variant="true" kvg:position="left"><path id="kvg:075f4-s6" kvg:type="&#12754;" d="M45.28,32.96c0.03,0.55,0.07,1.42-0.06,2.21c-0.79,4.66-3.74,13.68-9.55,21.36"/><g id="kvg:075f4-g4" kvg:element="&#22825;" kvg:variant="true"><path id="kvg:075f4-s7" kvg:type="&#12752;" d="M43.86,46.67c1.48,0,1.8,0.12,2.53,0c3.66-0.59,7.4-0.27,12.67-1.9c1.19-0.37,2.39-0.19,3-0.03"/><g id="kvg:075f4-g5" kvg:element="&#22823;" kvg:variant="true"><path id="kvg:075f4-s8" kvg:type="&#12752;" d="M34,65.56c1.57,0.73,4.21,0.6,5.86,0.43c7.65-0.79,13.46-2.56,21.18-3.39c0.73-0.08,2.59-0.41,4.22,0.01"/><path id="kvg:075f4-s9" kvg:type="&#12754;" d="M49.82,49.15c0.89,0.89,1.24,2.14,1.23,3.48c-0.16,23.19-8.42,34.13-20.25,42.05"/><path id="kvg:075f4-s10" kvg:type="&#12756;/&#12751;" d="M51.83,72.57c5.6,3.38,10.62,9.16,11.59,12.8"/></g></g></g><g id="kvg:075f4-g6" kvg:element="&#21475;" kvg:position="right"><path id="kvg:075f4-s11" kvg:type="&#12753;" d="M68.02,48.16c0.91,0.91,1.33,2.07,1.53,3.22c0.92,5.21,2.2,15.83,3.03,24.62c0.19,2.04,0.36,4,0.5,5.79"/><path id="kvg:075f4-s12" kvg:type="&#12757;b" d="M70.24,49.83c7.1-1.2,13.66-2.22,18.74-3.06c2.49-0.41,4.08,0.66,3.69,3.51c-0.86,6.22-1.86,16.35-3.13,24.93"/><path id="kvg:075f4-s13" kvg:type="&#12752;b" d="M73.98,78.44c4.77-0.69,8.31-1.01,13.3-1.66c1.29-0.17,2.6-0.1,3.93-0.32"/></g></g></g></g></svg>