<svg xmlns="http://www.w3.org/2000/svg" width="109" height="109" viewBox="0 0 109 109"><g xmlns:kvg="http://kanjivg.tagaini.net" id="kvg:StrokePaths_075fe" style="fill:none;stroke:#000000;stroke-width:3;stroke-linecap:round;stroke-linejoin:round;"><g id="kvg:075fe" kvg:element="&#30206;"><g id="kvg:075fe-g1" kvg:element="&#30098;" kvg:position="tare" kvg:radical="general"><path id="kvg:075fe-s1" kvg:type="&#12753;a" d="M54.41,11.13c0.7,0.34,2.18,2.55,2.32,3.23c0.14,0.68,0.07,3.64-0.07,7.89"/><path id="kvg:075fe-s2" kvg:type="&#12752;" d="M24.13,23.73c1.52,0.54,4.3,0.63,5.82,0.54c15.8-0.91,42.05-3.52,56.11-4.23c2.53-0.13,4.05,0.26,5.31,0.53"/><path id="kvg:075fe-s3" kvg:type="&#12754;" d="M29.49,24.5c0,0.84,0,1.68,0,2.5c-0.14,35.2-3.32,51.12-17.43,66.72"/><path id="kvg:075fe-s4" kvg:type="&#12756;" d="M11.25,35c3.62,2.16,9.34,8.89,10.25,12.25"/><path id="kvg:075fe-s5" kvg:type="&#12736;" d="M9.17,63.07c1.44,0.61,1.88,0.43,3.15-0.31c5.11-3,9.06-5.42,12.93-8.01"/></g><g id="kvg:075fe-g2" kvg:element="&#38463;"><g id="kvg:075fe-g3" kvg:element="&#11990;" kvg:variant="true" kvg:original="&#38428;" kvg:position="left"><path id="kvg:075fe-s6" kvg:type="&#12743;" d="M34.75,36.25c1.5,0.5,3.25,0.22,4.5,0.06c4.5-0.56,7.55-1.02,10.1-1.93c2.38-0.85,4.36,0.85,3.31,2.84c-1.06,1.99-6.86,12.71-8.71,15.54"/><path id="kvg:075fe-s7" kvg:type="&#12757;va" d="M44.08,53.18c8.97,7.33,9.19,29.32,1.12,25.5"/><path id="kvg:075fe-s8" kvg:type="&#12753;" d="M37.12,36.8C37,38,37.5,38.71,37.67,39.57c0.17,0.85,0,52.61-0.17,57.93"/></g><g id="kvg:075fe-g4" kvg:element="&#21487;" kvg:position="right"><g id="kvg:075fe-g5" kvg:element="&#19969;" kvg:part="1"><g id="kvg:075fe-g6" kvg:element="&#19968;"><path id="kvg:075fe-s9" kvg:type="&#12752;" d="M59.85,36.04c1.07,0.21,3.04,0.28,4.11,0.21c6.65-0.48,19.87-1.82,28.29-2.38c1.77-0.12,2.86,0.1,3.75,0.2"/></g></g><g id="kvg:075fe-g7" kvg:element="&#21475;"><path id="kvg:075fe-s10" kvg:type="&#12753;" d="M57.53,51.82c0.33,0.31,0.68,0.58,0.82,0.97c1.16,3.12,2.55,13.72,3.34,19.32"/><path id="kvg:075fe-s11" kvg:type="&#12757;b" d="M59.21,53.51c5.79-1.01,11.6-2,15.51-2.41c1.43-0.15,2.29,0.89,2.09,1.77c-0.85,3.64-1.84,9.32-3.1,14.36"/><path id="kvg:075fe-s12" kvg:type="&#12752;b" d="M61.85,69.15c4.6-0.46,7.38-0.76,13.69-1.47"/></g><g id="kvg:075fe-g8" kvg:element="&#19969;" kvg:part="2"><g id="kvg:075fe-g9" kvg:element="&#20101;"><path id="kvg:075fe-s13" kvg:type="&#12762;" d="M84.84,36.35c0.07,0.41,1.33,2.12,1.39,4.7c0.32,12.39-0.2,45.4-0.2,49.62c0,12.33-7.03,1.2-8.22,0.14"/></g></g></g></g></g></g></svg>