<svg xmlns="http://www.w3.org/2000/svg" width="109" height="109" viewBox="0 0 109 109"><g xmlns:kvg="http://kanjivg.tagaini.net" id="kvg:StrokePaths_0760b" style="fill:none;stroke:#000000;stroke-width:3;stroke-linecap:round;stroke-linejoin:round;"><g id="kvg:0760b" kvg:element="&#30219;"><g id="kvg:0760b-g1" kvg:element="&#30098;" kvg:position="tare" kvg:radical="general"><path id="kvg:0760b-s1" kvg:type="&#12753;a" d="M55.41,11.13c0.7,0.36,2.32,1.87,2.32,3.37c0,0.72,0.07,4.3-0.07,8.74"/><path id="kvg:0760b-s2" kvg:type="&#12752;" d="M25.63,25.23c1.84,0.54,5.22,0.63,7.07,0.54c19.18-0.91,38.41-2.52,55.48-3.23c3.07-0.13,4.92,0.26,6.45,0.53"/><path id="kvg:0760b-s3" kvg:type="&#12754;" d="M29.99,26.5c0,1.02,0,2.02-0.01,3c-0.17,34.99-3.45,48.19-14.18,66.22"/><path id="kvg:0760b-s4" kvg:type="&#12756;" d="M12.5,37.5c3.35,1.9,8.66,7.8,9.5,10.75"/><path id="kvg:0760b-s5" kvg:type="&#12736;" d="M10.17,65.07c1.44,0.61,1.88,0.43,3.15-0.31c5.11-3,8.06-4.92,11.93-7.51"/></g><g id="kvg:0760b-g2" kvg:element="&#39080;"><g id="kvg:0760b-g3" kvg:element="&#20960;"><g id="kvg:0760b-g4" kvg:element="&#20031;"><path id="kvg:0760b-s6" kvg:type="&#12754;" d="M40.69,36.11c0.46,1.66,1.12,2.96,1.12,5.03C41.81,60.03,42.5,82,28,97"/></g><path id="kvg:0760b-s7" kvg:type="&#12744;a" d="M41.51,37.98c10.99-0.73,35.24-3.73,38.46-3.73c3.22,0,4.85,0.89,4.43,4.36c-2.65,22.14-0.9,39.14,6.76,52.49c4.41,7.68,6.08,8.15,6.33-4.25"/></g><path id="kvg:0760b-s8" kvg:type="&#12754;" d="M71.61,40.36c0.07,0.21,0.14,0.54-0.13,0.84c-1.58,1.78-10.66,5.68-23.08,8.06"/><g id="kvg:0760b-g5" kvg:element="&#34411;"><g id="kvg:0760b-g6" kvg:element="&#20013;"><g id="kvg:0760b-g7" kvg:element="&#21475;"><path id="kvg:0760b-s9" kvg:type="&#12753;" d="M48.03,58.31c0.43,0.33,0.97,0.58,1.05,1.01c0.58,3.13,1.18,7.25,1.99,13.18"/><path id="kvg:0760b-s10" kvg:type="&#12757;b" d="M49.4,59.01c6.51-0.63,20.29-2.49,25-2.72c1.83-0.09,2.68,0.89,2.46,1.83c-0.78,3.21-0.92,5.88-2.19,11.22"/><path id="kvg:0760b-s11" kvg:type="&#12752;b" d="M51.31,71.24c5.24-0.63,16.86-1.44,24.19-2.02"/></g><g id="kvg:0760b-g8" kvg:element="&#20008;"><path id="kvg:0760b-s12" kvg:type="&#12753;a" d="M60.89,49.64c0.52,0.24,0.84,1.07,0.94,1.55s0,33.27-0.1,36.26"/></g></g><path id="kvg:0760b-s13" kvg:type="&#12736;" d="M45.08,91.77c0.67,0.66,1.18,1.79,2.74,1.31c11.67-3.58,17.67-5.83,27.3-8.7"/><path id="kvg:0760b-s14" kvg:type="&#12756;" d="M69.38,77.12c4.12,3.13,9.34,11.33,10.38,15.19"/></g></g></g></g></svg>