<svg xmlns="http://www.w3.org/2000/svg" width="109" height="109" viewBox="0 0 109 109"><g xmlns:kvg="http://kanjivg.tagaini.net" id="kvg:StrokePaths_07647" style="fill:none;stroke:#000000;stroke-width:3;stroke-linecap:round;stroke-linejoin:round;"><g id="kvg:07647" kvg:element="&#30279;"><g id="kvg:07647-g1" kvg:element="&#30098;" kvg:position="tare" kvg:radical="general"><path id="kvg:07647-s1" kvg:type="&#12753;a" d="M54.91,10.63c0.7,0.36,2.18,2.66,2.32,3.37c0.14,0.71,0.07,5.3-0.07,9.74"/><path id="kvg:07647-s2" kvg:type="&#12752;" d="M26.13,25.23c1.72,0.54,4.87,0.63,6.58,0.54c17.87-0.91,36.75-2.52,52.66-3.23c2.86-0.13,4.58,0.26,6.01,0.53"/><path id="kvg:07647-s3" kvg:type="&#12754;" d="M30.49,26.5c0,1.19,0,2.35,0,3.5c-0.09,33.35-1.66,49.24-13.93,63.47"/><path id="kvg:07647-s4" kvg:type="&#12756;" d="M14,39.75c3.35,1.68,8.66,6.89,9.5,9.5"/><path id="kvg:07647-s5" kvg:type="&#12736;" d="M11.17,69.05c1.39,0.65,1.82,0.46,3.04-0.33c4.94-3.19,7.8-5.22,11.54-7.97"/></g><g id="kvg:07647-g2" kvg:element="&#38291;" kvg:variant="true"><g id="kvg:07647-g3" kvg:element="&#38272;" kvg:position="kamae"><g id="kvg:07647-g4" kvg:position="left"><path id="kvg:07647-s6" kvg:type="&#12753;" d="M39.89,35.4c0.6,0.33,1.06,1.77,1.18,2.42c0.12,0.66-0.08,52.32-0.2,56.45"/><path id="kvg:07647-s7" kvg:type="&#12757;a" d="M41.23,36.49c2.01-0.07,12.28-1.45,14.1-1.54c1.52-0.07,2.31,0.67,2.39,1.25c0.11,0.9-0.27,17.82-0.27,18.27"/><path id="kvg:07647-s8" kvg:type="&#12752;a" d="M41.59,45.25c4.93-0.43,11.09-1.05,15.84-1.51"/><path id="kvg:07647-s9" kvg:type="&#12752;a" d="M41.23,53.99c6.68-0.84,9.26-0.98,15.16-1.37"/></g><g id="kvg:07647-g5" kvg:position="right"><path id="kvg:07647-s10" kvg:type="&#12753;" d="M67.68,34.02c0.34,0.39,0.69,1.23,0.69,1.75c0,0.52-0.12,17.04,0,17.56"/><path id="kvg:07647-s11" kvg:type="&#12742;a" d="M68.44,35.08c1.94-0.06,14.73-2.26,16.5-2.34c1.48-0.06,2.33,1.21,2.31,1.61c-0.38,12-0.39,45.93-0.39,54.64c0,9.77-4.93,1.96-6.06,1.16"/><path id="kvg:07647-s12" kvg:type="&#12752;a" d="M68.78,43.02c2.63,0,14.25-1.23,17.22-1.23"/><path id="kvg:07647-s13" kvg:type="&#12752;a" d="M68.94,51.91c3.89,0,12.3-1.1,17.33-1.1"/></g></g><g id="kvg:07647-g6" kvg:element="&#26085;" kvg:variant="true"><g id="kvg:07647-g7" kvg:element="&#26376;"><path id="kvg:07647-s14" kvg:type="&#12754;" d="M54.8,60.17c0.36,0.43,0.6,0.86,0.72,1.27c0.12,0.42,0.11,11.76-0.28,15.27c-0.55,4.99-1.1,10.02-6.24,15.76"/><path id="kvg:07647-s15" kvg:type="&#12742;a" d="M56,61.35c1.9-0.04,11.45-1.64,12.87-1.73c2.54-0.16,3.17,1.91,3.17,2.87c0,2.27-0.48,11.76-0.48,24.63c0,8.85-3.56,4.38-5.11,2.22"/><path id="kvg:07647-s16" kvg:type="&#12752;a" d="M56,70.6c4.17-0.24,11.35-1.39,15.01-1.41"/><path id="kvg:07647-s17" kvg:type="&#12752;a" d="M55.95,79.01c3.44-0.05,10.08-0.87,14.75-1.16"/></g></g></g></g></g></svg>