<svg xmlns="http://www.w3.org/2000/svg" width="109" height="109" viewBox="0 0 109 109"><g xmlns:kvg="http://kanjivg.tagaini.net" id="kvg:StrokePaths_0766a" style="fill:none;stroke:#000000;stroke-width:3;stroke-linecap:round;stroke-linejoin:round;"><g id="kvg:0766a" kvg:element="&#30314;"><g id="kvg:0766a-g1" kvg:element="&#30098;" kvg:position="tare" kvg:radical="general"><path id="kvg:0766a-s1" kvg:type="&#12753;a" d="M54.91,8.63c0.7,0.36,2.18,2.66,2.32,3.37c0.14,0.71,0.07,4.8-0.07,9.24"/><path id="kvg:0766a-s2" kvg:type="&#12752;" d="M26.13,22.73c1.52,0.54,4.3,0.63,5.82,0.54c15.8-0.91,41.05-3.02,55.11-3.73c2.53-0.13,4.05,0.26,5.31,0.53"/><path id="kvg:0766a-s3" kvg:type="&#12754;" d="M30.99,23.5c0,1.1,0,2.19-0.01,3.25c-0.21,35.33-4.08,49.22-16.68,67.47"/><path id="kvg:0766a-s4" kvg:type="&#12756;" d="M12.75,35.5c3.62,1.98,9.34,8.16,10.25,11.25"/><path id="kvg:0766a-s5" kvg:type="&#12736;" d="M11.17,67c1.41,0.74,1.85,0.53,3.09-0.37c5.03-3.65,7.93-5.97,11.73-9.12"/></g><g id="kvg:0766a-g2" kvg:element="&#31309;"><g id="kvg:0766a-g3" kvg:element="&#31166;" kvg:position="left"><g id="kvg:0766a-g4" kvg:element="&#20031;" kvg:position="top"><path id="kvg:0766a-s6" kvg:type="&#12754;" d="M54.35,29.81c0.05,0.28,0.1,0.73-0.1,1.14c-1.17,2.4-7.91,6.71-17.13,9.93"/></g><g id="kvg:0766a-g5" kvg:element="&#26408;" kvg:position="bottom"><path id="kvg:0766a-s7" kvg:type="&#12752;" d="M35.12,52.88c0.29,0.16,1.07,0.42,1.84,0.48c2.13,0.16,11.94-0.9,17.27-1.7c0.77-0.12,0.97-0.16,1.45,0"/><path id="kvg:0766a-s8" kvg:type="&#12753;" d="M46.25,39.57c0.29,0.32,0.85,1.44,0.91,2.08c0.06,0.64,0,52.41-0.06,56.4"/><path id="kvg:0766a-s9" kvg:type="&#12754;" d="M46.93,54.36c-3.63,8.77-9.69,19.58-17.92,26.76"/><path id="kvg:0766a-s10" kvg:type="&#12751;" d="M49.07,58.91c3.48,2.57,6.43,7.7,8.31,11"/></g></g><g id="kvg:0766a-g6" kvg:element="&#36012;" kvg:position="right"><g id="kvg:0766a-g7" kvg:position="top"><path id="kvg:0766a-s11" kvg:type="&#12752;" d="M62.23,33.13c0.81,0.36,2.29,0.43,3.11,0.36c5.85-0.51,18.4-1.6,23.44-2.15c1.34-0.15,1.9-0.08,2.62-0.02"/><path id="kvg:0766a-s12" kvg:type="&#12753;a" d="M74.69,26.13c0.45,0.17,1.5,1.62,1.5,1.96c0,4.31,0.22,16.3,0.25,20.8"/><path id="kvg:0766a-s13" kvg:type="&#12752;" d="M63.05,41.52c0.74,0.24,2.08,0.29,2.82,0.24c5.3-0.34,17.19-1.66,21.76-2.02c1.22-0.1,2.12-0.05,2.77-0.01"/><path id="kvg:0766a-s14" kvg:type="&#12752;" d="M60.26,50.22c1.16,0.24,3.3,0.36,4.46,0.24c10.8-1.09,19.73-2.49,29.07-2.69c1.93-0.04,3.39-0.2,4.78,0.39"/></g><g id="kvg:0766a-g8" kvg:element="&#35997;" kvg:position="bottom"><g id="kvg:0766a-g9" kvg:element="&#30446;" kvg:position="top"><path id="kvg:0766a-s15" kvg:type="&#12753;" d="M65.3,57.35c0.41,0.57,1.01,1,1.01,1.76c0,0.76-0.14,24.3,0,25.07"/><path id="kvg:0766a-s16" kvg:type="&#12757;a" d="M66.99,57.97c2.32-0.09,19.56-2.09,21.68-2.2c1.76-0.09,2.99,0.2,3,2.01c0.01,2.43-0.82,25.29-0.82,25.86"/><path id="kvg:0766a-s17" kvg:type="&#12752;a" d="M66.95,65.26c3.31,0,19.22-1.55,22.94-1.55"/><path id="kvg:0766a-s18" kvg:type="&#12752;a" d="M67.14,73.67c7.36-0.42,18.02-2.14,23.98-2.14"/><path id="kvg:0766a-s19" kvg:type="&#12752;a" d="M67.23,81.78c4.61,0,17.52-2.15,23.48-2.15"/></g><g id="kvg:0766a-g10" kvg:position="bottom"><path id="kvg:0766a-s20" kvg:type="&#12754;" d="M71.74,86.29c0.42,1.02,0.34,1.8-0.5,2.54c-2.55,2.25-8.91,7.27-14,9.92"/><path id="kvg:0766a-s21" kvg:type="&#12756;" d="M82.48,86.8c5.62,3.13,12.26,8.8,13.79,11.53"/></g></g></g></g></g></g></svg>