<svg xmlns="http://www.w3.org/2000/svg" width="109" height="109" viewBox="0 0 109 109"><g xmlns:kvg="http://kanjivg.tagaini.net" id="kvg:StrokePaths_0767e" style="fill:none;stroke:#000000;stroke-width:3;stroke-linecap:round;stroke-linejoin:round;"><g id="kvg:0767e" kvg:element="&#30334;"><g id="kvg:0767e-g1" kvg:element="&#19968;" kvg:position="top" kvg:radical="nelson"><path id="kvg:0767e-s1" kvg:type="&#12752;" d="M16.13,20.23c2.22,0.54,6.29,0.75,8.51,0.54c21.49-2.02,41.86-4.39,59.22-4.98c3.7-0.12,5.92,0.26,7.77,0.53"/></g><g id="kvg:0767e-g2" kvg:element="&#30333;" kvg:position="bottom" kvg:radical="tradit"><g id="kvg:0767e-g3" kvg:position="top"><path id="kvg:0767e-s2" kvg:type="&#12754;" d="M52.31,21.75c0.19,1.38,0.19,2.5-0.38,3.93c-1.65,4.19-4.81,9.19-8.66,14.68"/></g><g id="kvg:0767e-g4" kvg:element="&#26085;" kvg:position="bottom"><path id="kvg:0767e-s3" kvg:type="&#12753;" d="M30.75,42.82c0.96,0.96,1.64,2.45,1.72,4.19c0.41,8.74,0.96,32.92,1.18,43.74c0.05,2.48,0.08,4.12,0.1,4.5"/><path id="kvg:0767e-s4" kvg:type="&#12757;a" d="M33.55,44.8c10.35-1.37,35.73-4.38,38.78-4.59c3.15-0.22,4.92,1.17,4.92,4.24c0,4.48-0.68,32-0.92,44.06c-0.06,3.02-0.1,5.05-0.11,5.48"/><path id="kvg:0767e-s5" kvg:type="&#12752;a" d="M34.14,66.95c10.24-1.08,32.11-3.2,41.44-3.57"/><path id="kvg:0767e-s6" kvg:type="&#12752;a" d="M34.97,92.87c8.78-0.87,30.53-2.12,40.06-2.39"/></g></g></g></g></svg>