<svg xmlns="http://www.w3.org/2000/svg" width="109" height="109" viewBox="0 0 109 109"><g xmlns:kvg="http://kanjivg.tagaini.net" id="kvg:StrokePaths_0768b" style="fill:none;stroke:#000000;stroke-width:3;stroke-linecap:round;stroke-linejoin:round;"><g id="kvg:0768b" kvg:element="&#30347;"><g id="kvg:0768b-g1" kvg:position="top" kvg:radical="tradit"><g id="kvg:0768b-g2" kvg:position="top"><path id="kvg:0768b-s1" kvg:type="&#12756;" d="M48.02,10.07c0.32,0.39,0.15,1.24-0.05,1.53c-1.59,2.45-3.95,6.45-7.44,9.13"/></g><g id="kvg:0768b-g3" kvg:element="&#26085;" kvg:position="bottom"><path id="kvg:0768b-s2" kvg:type="&#12753;" d="M28.31,20.79c0.73,0.63,1.46,1.41,1.46,2.24c0,0.84,2.72,18.22,3.78,23.79"/><path id="kvg:0768b-s3" kvg:type="&#12757;a" d="M30.21,21.8c5.29-0.5,41.88-3.36,45.63-3.54c2.38-0.11,3.35,0.69,3.34,2.01c-0.01,2.26-3.63,17.12-4.41,24.04"/><path id="kvg:0768b-s4" kvg:type="&#12752;a" d="M32.16,32.57c8.63-0.32,38.72-2.43,45.02-2.43"/><path id="kvg:0768b-s5" kvg:type="&#12752;a" d="M33.49,44.28c10.33-0.34,30.42-2.07,41.43-2.22"/></g></g><g id="kvg:0768b-g4" kvg:element="&#22834;" kvg:position="bottom"><g id="kvg:0768b-g5" kvg:element="&#22823;" kvg:position="top"><path id="kvg:0768b-s6" kvg:type="&#12752;" d="M11.38,58.06c1.5,0.43,5.49,0.93,8.66,0.74c21.49-1.27,49.7-3.82,68.99-4.43c3.32-0.11,5.98-0.05,8.98,0.28"/><path id="kvg:0768b-s7" kvg:type="&#12754;" d="M53.06,45.32c0.44,1.5,0.47,2.84-0.07,3.92C44.5,66.32,33.75,74.57,13,86.32"/><path id="kvg:0768b-s8" kvg:type="&#12751;" d="M57,56.57c7.38,6.33,24.61,22.47,31.98,26.71c2.51,1.44,3.38,1.66,4.52,1.79"/></g><g id="kvg:0768b-g6" kvg:element="&#21313;" kvg:position="bottom"><path id="kvg:0768b-s9" kvg:type="&#12752;" d="M35.3,82.83c0.7,0.25,1.97,0.31,2.67,0.25c8.84-0.81,26.7-2.76,32.8-2.85c1.16-0.02,1.85,0.12,2.43,0.24"/><path id="kvg:0768b-s10" kvg:type="&#12753;" d="M53.13,64.7c0.35,0.28,1.08,2.07,1.15,2.62c0.07,0.55-0.04,33.42-0.11,36.88"/></g></g></g></g></svg>