<svg xmlns="http://www.w3.org/2000/svg" width="109" height="109" viewBox="0 0 109 109"><g xmlns:kvg="http://kanjivg.tagaini.net" id="kvg:StrokePaths_07684" style="fill:none;stroke:#000000;stroke-width:3;stroke-linecap:round;stroke-linejoin:round;"><g id="kvg:07684" kvg:element="&#30340;"><g id="kvg:07684-g1" kvg:position="left" kvg:radical="general"><g id="kvg:07684-g2" kvg:position="top"><path id="kvg:07684-s1" kvg:type="&#12754;" d="M29.46,15.75c0.35,0.64,0.41,1.67,0.32,2.22c-0.49,3.27-4.77,11.11-8.65,15.51"/></g><g id="kvg:07684-g3" kvg:element="&#26085;" kvg:position="bottom"><path id="kvg:07684-s2" kvg:type="&#12753;" d="M14.25,35.72c0.89,0.89,1.19,2.18,1.19,3.68c0,2.11,0.91,25.66,1.17,36.84c0.05,1.93,0.07,3.49,0.07,4.51"/><path id="kvg:07684-s3" kvg:type="&#12757;a" d="M15.72,37.36c3.41-0.52,16.99-3.12,22.54-3.97c3.29-0.5,5.26-0.07,5.25,3.61c-0.02,5.82-0.09,24.19-0.11,36.61c0,2.01-0.01,3.87-0.01,5.49"/><path id="kvg:07684-s4" kvg:type="&#12752;a" d="M17.18,56.11c6.07-0.74,18.94-2.74,25.12-3.01"/><path id="kvg:07684-s5" kvg:type="&#12752;a" d="M17.71,77.44c7.54-0.69,16.16-2.07,24.53-2.39"/></g></g><g id="kvg:07684-g4" kvg:element="&#21242;" kvg:position="right" kvg:phon="&#21242;"><g id="kvg:07684-g5" kvg:element="&#21241;"><g id="kvg:07684-g6" kvg:element="&#20031;"><path id="kvg:07684-s6" kvg:type="&#12754;" d="M64.89,14.37c0.04,0.8,0.17,2.08-0.09,3.21c-1.55,6.8-6.05,19.3-14.54,29.21"/></g><path id="kvg:07684-s7" kvg:type="&#12742;" d="M62.32,33.03c1.18,0.47,2.77,0.42,4.2,0.19c4.61-0.73,16.98-2.6,22-3.5c3.41-0.61,5.99,0.75,5.47,5.41c-1.24,11.11-6.11,42.49-14.1,57c-2.72,4.94-5.76,1.98-8.53-0.61"/></g><g id="kvg:07684-g7" kvg:element="&#20022;"><path id="kvg:07684-s8" kvg:type="&#12756;" d="M60.38,53.93c3.35,2.26,8.65,9.31,9.49,12.84"/></g></g></g></g></svg>