<svg xmlns="http://www.w3.org/2000/svg" width="109" height="109" viewBox="0 0 109 109"><g xmlns:kvg="http://kanjivg.tagaini.net" id="kvg:StrokePaths_07683" style="fill:none;stroke:#000000;stroke-width:3;stroke-linecap:round;stroke-linejoin:round;"><g id="kvg:07683" kvg:element="&#30339;"><g id="kvg:07683-g1" kvg:position="top" kvg:radical="tradit"><g id="kvg:07683-g2" kvg:position="top"><path id="kvg:07683-s1" kvg:type="&#12756;" d="M50.72,9.5c0.54,0.57,0.24,2.3,0,2.77c-1.78,3.48-6.84,9-12.82,12.96"/></g><g id="kvg:07683-g3" kvg:element="&#26085;" kvg:position="bottom"><path id="kvg:07683-s2" kvg:type="&#12753;" d="M25.5,25.66c0.84,0.77,1.55,2.17,1.69,3.19c0.56,3.89,3.06,24.31,3.4,29.39"/><path id="kvg:07683-s3" kvg:type="&#12757;a" d="M27.7,27.49c4.77-0.13,45.33-3.5,49.67-3.72c2.76-0.14,4.21,0.88,3.88,2.48c-0.74,3.51-3.99,22.01-5.87,30.21"/><path id="kvg:07683-s4" kvg:type="&#12752;a" d="M29.14,41.76c10-0.39,41.57-2.92,48.87-2.92"/><path id="kvg:07683-s5" kvg:type="&#12752;a" d="M31.1,55.77c11.97-0.42,32.18-2.41,44.95-2.6"/></g></g><g id="kvg:07683-g4" kvg:element="&#20799;" kvg:position="bottom"><g id="kvg:07683-g5" kvg:element="&#20843;" kvg:variant="true"><g id="kvg:07683-g6" kvg:element="&#20031;" kvg:position="left"><path id="kvg:07683-s6" kvg:type="&#12754;" d="M42.5,59.5c0.07,0.9,0.15,2.34-0.14,3.63c-1.68,7.66-10.5,25.94-24.44,34.78"/></g><g id="kvg:07683-g7" kvg:position="right"><path id="kvg:07683-s7" kvg:type="&#12767;" d="M56.99,57.87c0.71,1.22,1.27,2.66,1.31,4.54c0.19,8.4,0,18.07,0,23.78c0,13.34,8.49,11.83,16.84,11.83c8.81,0,14.62-1.72,15.86-2.69c2.62-2.05,1.91-3.08,2.14-6.67"/></g></g></g></g></g></svg>