<svg xmlns="http://www.w3.org/2000/svg" width="109" height="109" viewBox="0 0 109 109"><g xmlns:kvg="http://kanjivg.tagaini.net" id="kvg:StrokePaths_07696" style="fill:none;stroke:#000000;stroke-width:3;stroke-linecap:round;stroke-linejoin:round;"><g id="kvg:07696" kvg:element="&#30358;"><g id="kvg:07696-g1" kvg:position="left" kvg:radical="general"><g id="kvg:07696-g2" kvg:position="top"><path id="kvg:07696-s1" kvg:type="&#12756;" d="M30.52,15c0.3,0.67,0.34,1.49,0.27,2.07c-0.42,3.44-4.01,11.66-7.28,16.28"/></g><g id="kvg:07696-g3" kvg:element="&#26085;" kvg:position="bottom"><path id="kvg:07696-s2" kvg:type="&#12753;" d="M15.5,33.97c0.47,1.12,0.94,1.68,0.94,3.18c0,1.5,1.31,34.98,1.5,42.35"/><path id="kvg:07696-s3" kvg:type="&#12757;a" d="M16.72,35.61c2.64-0.19,15.24-2.54,17.65-2.76c2.01-0.19,3.3,1.25,3.14,2.36c-0.31,2.25-0.87,31.44-1.11,43.4"/><path id="kvg:07696-s4" kvg:type="&#12752;a" d="M17.68,55.36c3.58,0,14.08-1.51,18.12-1.51"/><path id="kvg:07696-s5" kvg:type="&#12752;a" d="M18.21,76.94c7.54-0.69,9.54-0.94,18.28-1.14"/></g></g><g id="kvg:07696-g4" kvg:element="&#23436;" kvg:position="right"><g id="kvg:07696-g5" kvg:element="&#23424;" kvg:position="top"><path id="kvg:07696-s6" kvg:type="&#12753;a" d="M66.28,13.42c0.8,0.39,1.94,1.38,1.92,2.5c-0.06,3.51-0.06,9.73-0.06,12.93"/><g id="kvg:07696-g6" kvg:element="&#20886;"><path id="kvg:07696-s7" kvg:type="&#12756;" d="M48.51,27.89c0,3.13-2.86,11.75-4.17,13.84"/><path id="kvg:07696-s8" kvg:type="&#12758;b" d="M48.47,29.89c0.92,0.08,38.37-1.8,43.05-1.91c8.98-0.22-0.1,8.07-1.27,8.85"/></g></g><g id="kvg:07696-g7" kvg:element="&#20803;" kvg:position="bottom"><g id="kvg:07696-g8" kvg:element="&#20108;"><path id="kvg:07696-s9" kvg:type="&#12752;" d="M54.23,42.57c0.74,0.34,2.08,0.34,2.83,0.34c6.8,0,13.94-1.15,22.93-1.61c1.23-0.06,1.97,0.16,2.58,0.33"/><path id="kvg:07696-s10" kvg:type="&#12752;" d="M43.58,57.12c1.25,0.54,3.54,0.62,4.8,0.54c8.65-0.57,31.54-2.67,43.7-2.66c2.08,0,3.34,0.26,4.38,0.52"/></g><g id="kvg:07696-g9" kvg:element="&#20799;" kvg:original="&#20843;"><g id="kvg:07696-g10" kvg:element="&#20031;"><path id="kvg:07696-s11" kvg:type="&#12754;" d="M59.25,60c0.5,0.75,0.89,2.07,0.89,3.26C60.14,72.5,57.75,88,40.42,95"/></g><path id="kvg:07696-s12" kvg:type="&#12767;" d="M73.69,58.37c0.56,1.09,1.01,2.38,1.04,4.06c0.15,7.52-0.4,15.82-0.4,20.93c0,9.38,2.42,10.08,11.44,10.08c8.98,0,10.37-2.45,10.37-8.88"/></g></g></g></g></g></svg>