<svg xmlns="http://www.w3.org/2000/svg" width="109" height="109" viewBox="0 0 109 109"><g xmlns:kvg="http://kanjivg.tagaini.net" id="kvg:StrokePaths_076ae" style="fill:none;stroke:#000000;stroke-width:3;stroke-linecap:round;stroke-linejoin:round;"><g id="kvg:076ae" kvg:element="&#30382;" kvg:radical="general"><path id="kvg:076ae-s1" kvg:type="&#12754;" d="M22.41,32.87c1.3,1.3,1.71,2.72,1.7,5.07C24,64.5,22,80.88,11.87,92.63"/><path id="kvg:076ae-s2" kvg:type="&#12758;b" d="M25.14,35.26C45.12,32,66.62,29.62,75.7,29.09c12.11-0.72,5.93,5.29,0.8,10.28"/><path id="kvg:076ae-s3" kvg:type="&#12753;a" d="M51.87,13.75c1.06,1.06,1.46,2.5,1.46,3.75c0,1.02-0.08,23-0.08,33.25"/><path id="kvg:076ae-s4" kvg:type="&#12743;" d="M36,53.94c2.02,0.49,4.11,0.19,6.13-0.17c5.68-1,21.7-4.05,23.58-4.54c3.29-0.86,4.96,0.72,3.12,4.31C59.12,72.5,43.38,85.99,25,95.17"/><path id="kvg:076ae-s5" kvg:type="&#12751;" d="M36.23,62.9c4.67,0.76,26.56,20.08,43.46,29.57c3.08,1.73,6.32,3.56,9.84,4.21"/></g></g></svg>