<svg xmlns="http://www.w3.org/2000/svg" width="109" height="109" viewBox="0 0 109 109"><g xmlns:kvg="http://kanjivg.tagaini.net" id="kvg:StrokePaths_076ee" style="fill:none;stroke:#000000;stroke-width:3;stroke-linecap:round;stroke-linejoin:round;"><g id="kvg:076ee" kvg:element="&#30446;" kvg:radical="general"><path id="kvg:076ee-s1" kvg:type="&#12753;" d="M29.75,19.05c1.35,1.35,1.86,3.21,1.86,5.47c0,1.77,0.19,42.37,0.06,60.23c-0.04,4.91-0.06,8.11-0.06,8.36"/><path id="kvg:076ee-s2" kvg:type="&#12757;a" d="M32.54,21.39c10.92-1.23,38.33-4.11,41.42-4.38c3.25-0.28,5.54,1.25,5.54,4.18c0,8.95-0.26,39.93-0.26,64.82c0,3,0.01,3.75,0.01,6"/><path id="kvg:076ee-s3" kvg:type="&#12752;a" d="M33.05,43.64c12.45-1.51,34.83-3.51,45.18-4.09"/><path id="kvg:076ee-s4" kvg:type="&#12752;a" d="M32.9,65.95C44.25,65,66,62.88,77.72,62.56"/><path id="kvg:076ee-s5" kvg:type="&#12752;a" d="M33,90.5c9.75-0.5,33.25-2.5,44.79-2.53"/></g></g></svg>