<svg xmlns="http://www.w3.org/2000/svg" width="109" height="109" viewBox="0 0 109 109"><g xmlns:kvg="http://kanjivg.tagaini.net" id="kvg:StrokePaths_07701" style="fill:none;stroke:#000000;stroke-width:3;stroke-linecap:round;stroke-linejoin:round;"><g id="kvg:07701" kvg:element="&#30465;"><g id="kvg:07701-g1" kvg:element="&#23569;" kvg:position="top"><g id="kvg:07701-g2" kvg:element="&#23567;"><path id="kvg:07701-s1" kvg:type="&#12762;" d="M55.6,11.75c0.83,0.83,1.49,2.02,1.49,3.57c0,9.3,0,16.93,0,20.62c0,7.56-4.09,4.05-6.62,1.88"/><path id="kvg:07701-s2" kvg:type="&#12754;" d="M35.88,24.75c0.05,0.37-0.06,1.22-0.34,1.74C33.5,30.21,24.9,37.38,17.92,40.8"/><path id="kvg:07701-s3" kvg:type="&#12756;" d="M76.67,20.92c6.59,2.16,14.2,7.08,17.08,11.06"/></g><g id="kvg:07701-g3" kvg:element="&#20031;" kvg:radical="nelson"><path id="kvg:07701-s4" kvg:type="&#12754;" d="M69.75,25.75c0.14,0.93-0.08,2.41-0.79,3.73c-5.86,10.88-28.4,28.46-51.27,35.77"/></g></g><g id="kvg:07701-g4" kvg:element="&#30446;" kvg:position="bottom" kvg:radical="tradit"><path id="kvg:07701-s5" kvg:type="&#12753;" d="M41.25,51.39c1.12,1.12,1.53,2.79,1.53,4.17c0,2.7,0.06,25.39,0.08,36.07c0,2.45,0.01,4.26,0.01,5.07"/><path id="kvg:07701-s6" kvg:type="&#12757;a" d="M43.82,53.31c5.04-0.5,24.97-3.16,31.56-3.89c3.76-0.42,5.38,1.08,5.38,4.21c0,5.32-0.04,23.04-0.04,36.75c0,1.72,0,3.37,0,4.93"/><path id="kvg:07701-s7" kvg:type="&#12752;a" d="M44.01,65.33c11.86-0.83,28.61-2.21,35.55-2.43"/><path id="kvg:07701-s8" kvg:type="&#12752;a" d="M44.05,78.66c9.35-0.58,24.83-1.66,35.34-1.81"/><path id="kvg:07701-s9" kvg:type="&#12752;a" d="M44.16,93.04C53,92.75,70.55,91.5,79.62,91.5"/></g></g></g></svg>