<svg xmlns="http://www.w3.org/2000/svg" width="109" height="109" viewBox="0 0 109 109"><g xmlns:kvg="http://kanjivg.tagaini.net" id="kvg:StrokePaths_07725" style="fill:none;stroke:#000000;stroke-width:3;stroke-linecap:round;stroke-linejoin:round;"><g id="kvg:07725" kvg:element="&#30501;"><g id="kvg:07725-g1" kvg:element="&#27492;" kvg:position="top"><g id="kvg:07725-g2" kvg:element="&#27490;" kvg:position="left"><g id="kvg:07725-g3" kvg:element="&#21340;" kvg:original="&#12488;"><path id="kvg:07725-s1" kvg:type="&#12753;" d="M34.82,12.66c1.01,0.46,1.62,2.07,1.82,2.99c0.2,0.92,0.43,16.52,0.43,26.4"/><path id="kvg:07725-s2" kvg:type="&#12752;" d="M37.15,25.34c4.5-0.38,10.82-1.14,15.24-1.52c1.1-0.09,1.38-0.13,2.06,0"/></g><path id="kvg:07725-s3" kvg:type="&#12753;" d="M19.95,24.72c1.01,0.5,1.82,2.23,1.82,3.26c0,5.52,0.26,11.84,0.26,19.11"/><path id="kvg:07725-s4" kvg:type="&#12752;" d="M15.35,49.02c0.4,0.72,2.3,1.47,3.32,1.04c9.58-4.06,22.8-9.32,31.87-13.45"/></g><g id="kvg:07725-g4" kvg:element="&#21269;" kvg:position="right"><path id="kvg:07725-s5" kvg:type="&#12754;" d="M86.56,15.54c0.17,0.21,0.28,0.83-0.16,1.16c-2.87,2.12-12.7,7.98-21.96,10.15"/><path id="kvg:07725-s6" kvg:type="&#12767;" d="M60.46,11.75c1,0.84,1.07,1.4,1.4,2.52c0.33,1.12,0.11,14.92,0.11,22.53c0,6.46,2.86,7.9,15.07,7.9S90.9,42,90.9,35.73"/></g></g><g id="kvg:07725-g5" kvg:element="&#30446;" kvg:position="bottom" kvg:radical="general"><path id="kvg:07725-s7" kvg:type="&#12753;" d="M35.5,52.76c0.45,1.01,1.11,1.77,1.11,3.11c0,1.35-0.3,41.56-0.3,42.24"/><path id="kvg:07725-s8" kvg:type="&#12757;a" d="M36.47,55.07c2.55-0.17,32.41-2.12,34.74-2.33c1.94-0.17,3.47,0.94,3.3,2.19c-0.21,1.59-0.45,36.4-0.45,42.51"/><path id="kvg:07725-s9" kvg:type="&#12752;a" d="M37.32,67.82c5.04-0.23,32.33-1.64,36.43-1.64"/><path id="kvg:07725-s10" kvg:type="&#12752;a" d="M37.53,81.42c6.77-0.57,29.35-1.52,35.92-1.52"/><path id="kvg:07725-s11" kvg:type="&#12752;a" d="M36.84,95.05c5.81-0.3,30.38-1.51,36.94-1.51"/></g></g></g></svg>