<svg xmlns="http://www.w3.org/2000/svg" width="109" height="109" viewBox="0 0 109 109"><g xmlns:kvg="http://kanjivg.tagaini.net" id="kvg:StrokePaths_07724" style="fill:none;stroke:#000000;stroke-width:3;stroke-linecap:round;stroke-linejoin:round;"><g id="kvg:07724" kvg:element="&#30500;"><g id="kvg:07724-g1" kvg:element="&#30446;" kvg:position="left" kvg:radical="general"><path id="kvg:07724-s1" kvg:type="&#12753;" d="M13.88,21.35c0.33,1.43,0.8,2.53,0.8,4.39c0,1.86-0.11,58.37,0,60.24"/><path id="kvg:07724-s2" kvg:type="&#12757;a" d="M15.23,22.58c1.84-0.02,15.83-1.89,17.51-1.98c1.4-0.07,2.39,1.07,2.39,2.8c0,6.36-0.65,45.69-0.65,60.21"/><path id="kvg:07724-s3" kvg:type="&#12752;a" d="M15.2,41.71c5.1-0.49,13.3-1.46,19.02-1.83"/><path id="kvg:07724-s4" kvg:type="&#12752;a" d="M15.35,59.44c4.89-0.22,13.65-1.19,18.52-1.61"/><path id="kvg:07724-s5" kvg:type="&#12752;a" d="M15.62,81.57c5.02-0.27,11.93-1.45,18.28-1.42"/></g><g id="kvg:07724-g2" kvg:element="&#23612;" kvg:position="right"><g id="kvg:07724-g3" kvg:element="&#23608;" kvg:position="tare"><path id="kvg:07724-s6" kvg:type="&#12757;c" d="M46.28,18.56c1.34,0.7,2.95,0.83,4.38,0.69c7.7-0.79,34.64-2.82,37.73-3.1c1.53-0.14,2.66,0.83,2.2,2.85c-0.96,4.25-2,7.42-3.17,14.94"/><path id="kvg:07724-s7" kvg:type="&#12752;b" d="M51.65,36.93c3.86-0.23,30.35-2.18,38.94-2.76"/><path id="kvg:07724-s8" kvg:type="&#12754;" d="M50.9,19.68c0,3.95,0.39,5.58,0.34,9.28C50.96,49.2,49.75,78,35.5,91.75"/></g><g id="kvg:07724-g4" kvg:element="&#21269;"><path id="kvg:07724-s9" kvg:type="&#12754;" d="M90.19,49.23c0.19,0.36-0.19,1.89-0.68,2.44c-3.17,3.55-13.53,12.83-23.76,16.46"/><path id="kvg:07724-s10" kvg:type="&#12767;" d="M61.9,44.61c0.68,1.15,0.73,1.92,0.96,3.45c0.23,1.53-0.13,31.36-0.13,36.17c0,12.35,9.16,10.42,16.95,10.42c12.47,0,15.57-0.43,15.57-11.81"/></g></g></g></g></svg>