<svg xmlns="http://www.w3.org/2000/svg" width="109" height="109" viewBox="0 0 109 109"><g xmlns:kvg="http://kanjivg.tagaini.net" id="kvg:StrokePaths_07768" style="fill:none;stroke:#000000;stroke-width:3;stroke-linecap:round;stroke-linejoin:round;"><g id="kvg:07768" kvg:element="&#30568;"><g id="kvg:07768-g1" kvg:element="&#30446;" kvg:position="left" kvg:radical="general"><path id="kvg:07768-s1" kvg:type="&#12753;" d="M11.51,21.34c0.3,1.42,0.73,2.5,0.73,4.34c0,1.84-0.1,57.2,0,59.05"/><path id="kvg:07768-s2" kvg:type="&#12757;a" d="M12.74,22.57c1.69-0.02,14.04-1.88,15.58-1.96c1.28-0.07,2.19,1.55,2.19,3.26c0,6.29-0.59,44.66-0.59,59.01"/><path id="kvg:07768-s3" kvg:type="&#12752;a" d="M12.71,41.46c4.67-0.48,12.71-1.56,16.5-1.32"/><path id="kvg:07768-s4" kvg:type="&#12752;a" d="M12.85,59.47C17.32,59.25,25,58,29.81,57.87"/><path id="kvg:07768-s5" kvg:type="&#12752;a" d="M12.19,80.86c4.59-0.26,11.84-1.44,17.65-1.41"/></g><g id="kvg:07768-g2" kvg:element="&#20818;" kvg:position="right"><g id="kvg:07768-g3" kvg:element="&#33276;" kvg:position="top"><path id="kvg:07768-s6" kvg:type="&#12754;" d="M57.19,13.21c0.04,0.23-0.51,1.72-0.73,1.96c-2.89,3.21-5.14,6.83-12.12,11.01"/><path id="kvg:07768-s7" kvg:type="&#12753;" d="M40.43,25.3c0.84,0.68,1.18,2.21,1.39,3.61c0.76,5.11,2.59,19.18,3.35,26.1"/><path id="kvg:07768-s8" kvg:type="&#12757;" d="M69.92,19.99c0.88,0.15,1.59,0.43,2.82,0.43c1.24,0,13.84-1.74,15.25-1.88c1.41-0.14,3.11,0.94,2.92,2.59c-1.08,9.11-4.53,31.19-4.71,31.77"/><path id="kvg:07768-s9" kvg:type="&#12752;" d="M43.63,37.84c3.98-0.62,11.49-2.6,12.44-2.6c0.95,0,2.28,0,3.04,0"/><path id="kvg:07768-s10" kvg:type="&#12752;" d="M69.88,34.49c0.88,0.14,1.59,0.43,2.82,0.43c1.23,0,15.22-1.16,16.63-1.3"/><path id="kvg:07768-s11" kvg:type="&#12752;" d="M45.84,52.54c4.41-0.29,37.51-3.38,40.16-3.53"/></g><g id="kvg:07768-g4" kvg:element="&#20799;" kvg:position="bottom"><g id="kvg:07768-g5" kvg:element="&#20843;" kvg:variant="true"><g id="kvg:07768-g6" kvg:element="&#20031;" kvg:position="left"><path id="kvg:07768-s12" kvg:type="&#12754;" d="M58,55.75c0.25,1.25,0.6,2.47,0.36,3.85c-1.8,10.08-7.58,27.88-24.69,36.82"/></g><g id="kvg:07768-g7" kvg:position="right"><path id="kvg:07768-s13" kvg:type="&#12767;" d="M69.47,53.62c0.61,1.15,1.1,2.52,1.14,4.3c0.17,7.96,0.13,22-0.02,27.41c-0.28,9.72,1.49,11.2,13.7,11.2c12.83,0,13.1-2.21,13.1-8.86"/></g></g></g></g></g></g></svg>