<svg xmlns="http://www.w3.org/2000/svg" width="109" height="109" viewBox="0 0 109 109"><g xmlns:kvg="http://kanjivg.tagaini.net" id="kvg:StrokePaths_077cd" style="fill:none;stroke:#000000;stroke-width:3;stroke-linecap:round;stroke-linejoin:round;"><g id="kvg:077cd" kvg:element="&#30669;"><g id="kvg:077cd-g1" kvg:element="&#30655;" kvg:position="top"><g id="kvg:077cd-g2" kvg:position="top"><g id="kvg:077cd-g3" kvg:element="&#30446;" kvg:position="left" kvg:radical="tradit"><path id="kvg:077cd-s1" kvg:type="&#12753;" d="M24.49,11.05c0.34,0.48,0.85,1.34,0.85,1.98c0,0.64,1.27,19.07,1.27,19.39"/><path id="kvg:077cd-s2" kvg:type="&#12757;a" d="M25.23,11.68c1.95-0.08,18.47-1.25,20.25-1.35c1.48-0.08,2.64,0.45,2.52,1.04c-0.16,0.75-0.34,17.33-0.34,20.24"/><path id="kvg:077cd-s3" kvg:type="&#12752;a" d="M26.38,18.44c3.84-0.11,17.92-1.02,21.04-1.02"/><path id="kvg:077cd-s4" kvg:type="&#12752;a" d="M27.04,24.57c5.16-0.27,15.14-0.96,20.15-0.96"/><path id="kvg:077cd-s5" kvg:type="&#12752;a" d="M27.01,30.49c4.43-0.14,15.42-0.72,20.43-0.72"/></g><g id="kvg:077cd-g4" kvg:element="&#30446;" kvg:position="right" kvg:radical="tradit"><path id="kvg:077cd-s6" kvg:type="&#12753;" d="M58.85,10.2c0.33,0.48,0.32,1.34,0.32,1.98c0,0.64,1.78,19.07,1.78,19.39"/><path id="kvg:077cd-s7" kvg:type="&#12757;a" d="M59.56,11.33C61.45,11.25,78,9.58,79.72,9.48c1.43-0.08,2.56,0.45,2.44,1.04c-0.15,0.76-0.33,17.33-0.33,20.24"/><path id="kvg:077cd-s8" kvg:type="&#12752;a" d="M60.69,17.75c3.72-0.11,17.88-1.52,20.91-1.52"/><path id="kvg:077cd-s9" kvg:type="&#12752;a" d="M60.85,23.72c5-0.27,15.67-1.46,20.53-1.46"/><path id="kvg:077cd-s10" kvg:type="&#12752;a" d="M61.34,30.15c4.3-0.14,15.43-1.22,20.29-1.22"/></g></g><g id="kvg:077cd-g5" kvg:element="&#38587;" kvg:part="1" kvg:position="bottom"><g id="kvg:077cd-g6" kvg:element="&#38585;"><g id="kvg:077cd-g7" kvg:element="&#20155;" kvg:variant="true" kvg:original="&#20154;"><path id="kvg:077cd-s11" kvg:type="&#12754;" d="M36.75,32.01c0.21,1.09-0.06,2.51-0.75,3.44c-4.39,5.93-9.96,10.95-20.02,18.17"/><path id="kvg:077cd-s12" kvg:type="&#12753;" d="M29.99,42.08c0.51,0.92,0.51,1.33,0.57,1.98c0.51,5.75-0.27,20.94-0.27,25.44"/></g><path id="kvg:077cd-s13" kvg:type="&#12754;" d="M55.26,31.61c0.04,0.41-0.01,0.94-0.15,1.29c-0.88,2.22-2,3.93-4.02,6.63"/><path id="kvg:077cd-s14" kvg:type="&#12752;b" d="M30.82,42.01c9.92-0.54,46.15-2.27,50.4-2.57"/><path id="kvg:077cd-s15" kvg:type="&#12753;a" d="M53.34,42.96c0.48,0.21,0.86,0.5,0.86,0.87c0,3.73,0.05,16.09-0.24,21.97"/><path id="kvg:077cd-s16" kvg:type="&#12752;b" d="M31.64,50.28c9.36-0.45,42.2-2.41,46.22-2.65"/><path id="kvg:077cd-s17" kvg:type="&#12752;b" d="M30.51,58.21c9.87-0.38,43.51-2.15,47.75-2.35"/><path id="kvg:077cd-s18" kvg:type="&#12752;b" d="M30.51,67.54c9.92-0.54,49.75-2.42,54.01-2.72"/></g></g></g><g id="kvg:077cd-g8" kvg:element="&#38587;" kvg:part="2" kvg:position="bottom"><g id="kvg:077cd-g9" kvg:element="&#21448;" kvg:radical="nelson"><path id="kvg:077cd-s19" kvg:type="&#12743;" d="M29,75.79c2,0.19,2.25,0.48,6.25,0.19c4-0.29,30.75-3.26,33.5-3.55S72,74.48,71,75.53c-11.75,12.38-32.5,21.3-55,25.97"/><path id="kvg:077cd-s20" kvg:type="&#12751;" d="M35.75,79.04c4.65,0.48,27.36,13.34,43.55,18.6c2.52,0.82,4.36,1.37,6.7,1.64"/></g></g></g></g></svg>