<svg xmlns="http://www.w3.org/2000/svg" width="109" height="109" viewBox="0 0 109 109"><g xmlns:kvg="http://kanjivg.tagaini.net" id="kvg:StrokePaths_077db" style="fill:none;stroke:#000000;stroke-width:3;stroke-linecap:round;stroke-linejoin:round;"><g id="kvg:077db" kvg:element="&#30683;" kvg:radical="general"><g id="kvg:077db-g1" kvg:element="&#20104;"><g id="kvg:077db-g2" kvg:element="&#12510;" kvg:position="top"><path id="kvg:077db-s1" kvg:type="&#12743;" d="M29.48,15.91c2.63,0.87,5.12,0.72,7.78,0.36c7.63-1.02,28.14-4.06,31.25-4.52c3.58-0.53,4.56,2.25,2.42,4c-3.67,3-13.85,13.82-16.11,15.96"/><path id="kvg:077db-s2" kvg:type="&#12756;" d="M43.38,27c2.98,1.31,10.69,6.33,12.09,9.75"/></g><g id="kvg:077db-g3" kvg:element="&#20102;" kvg:position="bottom"><path id="kvg:077db-s3" kvg:type="&#12743;a" d="M16.92,44.83c3.76,1.25,6.95,0.69,10.73-0.08c17.73-3.63,37.85-7.38,56.68-7.42c8.44-0.02-0.08,8.17-3.33,10.25"/><g id="kvg:077db-g4" kvg:element="&#20101;"><path id="kvg:077db-s4" kvg:type="&#12757;v" d="M55.19,42.98c6.06,2.88,8.84,29.04,2.7,50.21c-2.64,9.09-7.89,2.3-10.14,0.46"/></g></g></g><g id="kvg:077db-g5" kvg:element="&#20031;"><path id="kvg:077db-s5" kvg:type="&#12754;" d="M53.39,41.43c0.11,0.92-0.06,1.96-0.73,3.21C47.62,54,35.75,70,12.89,80.15"/></g></g></g></svg>