<svg xmlns="http://www.w3.org/2000/svg" width="109" height="109" viewBox="0 0 109 109"><g xmlns:kvg="http://kanjivg.tagaini.net" id="kvg:StrokePaths_077e2" style="fill:none;stroke:#000000;stroke-width:3;stroke-linecap:round;stroke-linejoin:round;"><g id="kvg:077e2" kvg:element="&#30690;" kvg:radical="general"><path id="kvg:077e2-s1" kvg:type="&#12754;" d="M39.55,11.75c0.11,1.35,0.01,2.63-0.39,3.92c-2.04,6.63-10.37,20.42-18.66,25.7"/><g id="kvg:077e2-g1" kvg:element="&#22825;"><path id="kvg:077e2-s2" kvg:type="&#12752;" d="M34.92,31.39c1.83,0.11,3.39-0.16,4.66-0.31c6.04-0.71,20.92-3.33,29.16-5.29c2.08-0.49,3.63-0.54,5.26-0.29"/><g id="kvg:077e2-g2" kvg:element="&#22823;"><path id="kvg:077e2-s3" kvg:type="&#12752;" d="M18.95,54.02c2.2,0.48,5.05,0.73,7.46,0.46c20.43-2.24,38.35-4.61,54.2-5.3c1.83-0.08,5.47,0.07,7.68,0.7"/><path id="kvg:077e2-s4" kvg:type="&#12754;" d="M52.32,32.29c0.43,0.96,0.9,1.86,0.85,3.72c-0.92,32.5-14.54,48.87-36.42,59.12"/><path id="kvg:077e2-s5" kvg:type="&#12751;" d="M53.25,53c9.5,12.25,21.9,27.44,30.96,35.6c2.33,2.09,5.17,4.4,8.67,5.78"/></g></g></g></g></svg>