<svg xmlns="http://www.w3.org/2000/svg" width="109" height="109" viewBox="0 0 109 109"><g xmlns:kvg="http://kanjivg.tagaini.net" id="kvg:StrokePaths_077e3" style="fill:none;stroke:#000000;stroke-width:3;stroke-linecap:round;stroke-linejoin:round;"><g id="kvg:077e3" kvg:element="&#30691;"><g id="kvg:077e3-g1" kvg:element="&#21430;" kvg:position="top"><path id="kvg:077e3-s1" kvg:type="&#12764;" d="M50.42,8.75c0.08,0.75-0.02,2.13-0.38,2.77c-4.52,7.96-12.95,14.73-21.38,20.31c-2.67,1.77-2.67,3.66,1.23,3.27c8.2-0.83,33.8-5.65,46.12-6.53"/><path id="kvg:077e3-s2" kvg:type="&#12756;" d="M64.87,18.47c5.6,3.09,14.47,12.7,15.87,17.5"/></g><g id="kvg:077e3-g2" kvg:element="&#30690;" kvg:position="bottom" kvg:radical="general"><path id="kvg:077e3-s3" kvg:type="&#12754;" d="M36.32,39.48c0.04,0.6,0.09,1.56-0.09,2.42C35.14,47,28.3,59.57,21.5,64.23"/><g id="kvg:077e3-g3" kvg:element="&#22825;"><path id="kvg:077e3-s4" kvg:type="&#12752;" d="M35.92,50.41c1.97,0.05,5.01,0.07,6.37-0.03c5.59-0.43,21.74-2.07,30.35-2.81c2.27-0.19,3.71-0.26,4.86-0.15"/><g id="kvg:077e3-g4" kvg:element="&#22823;"><path id="kvg:077e3-s5" kvg:type="&#12752;" d="M13.95,70.29c1.84,0.43,5.72,0.53,6.9,0.42c20.17-1.8,54.01-4.52,68.34-4.81c1.52-0.03,3.69,0.12,7.09,0.63"/><path id="kvg:077e3-s6" kvg:type="&#12754;" d="M53.34,52.51c0.42,0.77,0.84,1.48,0.82,2.97c-0.27,25.76-13.55,38.95-35.42,46.86"/><path id="kvg:077e3-s7" kvg:type="&#12751;" d="M54.25,67.73c7.15,11.35,24.36,25.92,32.04,31.09c2.61,1.76,3.52,2.02,4.71,2.19"/></g></g></g></g></g></svg>