<svg xmlns="http://www.w3.org/2000/svg" width="109" height="109" viewBox="0 0 109 109"><g xmlns:kvg="http://kanjivg.tagaini.net" id="kvg:StrokePaths_077fc" style="fill:none;stroke:#000000;stroke-width:3;stroke-linecap:round;stroke-linejoin:round;"><g id="kvg:077fc" kvg:element="&#30716;"><g id="kvg:077fc-g1" kvg:element="&#30707;" kvg:position="left" kvg:radical="general"><path id="kvg:077fc-s1" kvg:type="&#12752;" d="M12.32,26.49c0.69,0.14,1.96,0.17,2.64,0.14c8.64-0.47,14.7-1.47,26.25-2.29c1.15-0.08,1.84,0.06,2.42,0.13"/><path id="kvg:077fc-s2" kvg:type="&#12754;" d="M26.2,28.26c0.05,1.04,0.11,2.68-0.1,4.15c-1.31,8.77-8.82,27.98-19.09,39.77"/><g id="kvg:077fc-g2" kvg:element="&#21475;"><path id="kvg:077fc-s3" kvg:type="&#12753;" d="M21.41,54.69c0.29,0.48,0.59,0.88,0.71,1.49c1.01,4.78,1.73,18.97,2.42,27.57"/><path id="kvg:077fc-s4" kvg:type="&#12757;b" d="M22.73,55.92c8.02-1.42,15.04-2.48,18.52-3.22c1.27-0.27,2.03,1.6,1.85,3.18c-0.75,6.57-2.7,14.51-3.82,23.58"/><path id="kvg:077fc-s5" kvg:type="&#12752;b" d="M24.54,80.76c5.16-0.84,9.87-0.56,16.64-1.63"/></g></g><g id="kvg:077fc-g3" kvg:element="&#24037;" kvg:position="right"><path id="kvg:077fc-s6" kvg:type="&#12752;" d="M50.5,25.47c0.95,0.52,4.03,0.53,5,0.53c6.25,0,26.5-2.25,34-2.79c1.46-0.11,2.79,0.1,4,0.54"/><path id="kvg:077fc-s7" kvg:type="&#12753;a" d="M68.87,27.25c1.63,2.25,1.27,4.71,1.27,7.06c0,16.47-0.07,22.86-0.07,51.1"/><path id="kvg:077fc-s8" kvg:type="&#12752;" d="M41.25,87.66c0.96,0.45,4.37,0.92,5.99,0.72c17.44-2.19,30.19-3.25,46.07-3.93c2.6-0.11,5.73,0.75,7.03,1.46"/></g></g></g></svg>