<svg xmlns="http://www.w3.org/2000/svg" width="109" height="109" viewBox="0 0 109 109"><g xmlns:kvg="http://kanjivg.tagaini.net" id="kvg:StrokePaths_07820" style="fill:none;stroke:#000000;stroke-width:3;stroke-linecap:round;stroke-linejoin:round;"><g id="kvg:07820" kvg:element="&#30752;"><g id="kvg:07820-g1" kvg:element="&#30707;" kvg:position="left" kvg:radical="general"><path id="kvg:07820-s1" kvg:type="&#12752;" d="M13.05,24.83c0.67,0.17,1.9,0.22,2.55,0.17c8.35-0.58,15.7-1.32,26.86-2.33c1.11-0.1,1.78,0.08,2.33,0.16"/><path id="kvg:07820-s2" kvg:type="&#12754;" d="M24.29,27.12c0.04,1.01,0.09,2.61-0.08,4.04C23.23,39.7,17.54,58.4,9.76,69.87"/><g id="kvg:07820-g2" kvg:element="&#21475;"><path id="kvg:07820-s3" kvg:type="&#12753;" d="M19.5,53.7c0.2,0.52,0.4,0.96,0.48,1.61c0.68,5.18,2.01,19.96,2.48,29.27"/><path id="kvg:07820-s4" kvg:type="&#12757;b" d="M20.23,55.92c8.52-1.42,15.95-2.47,19.53-3.21c1.31-0.27,2.09,1.6,1.9,3.18c-0.77,6.56-2.28,14.49-3.43,23.55"/><path id="kvg:07820-s5" kvg:type="&#12752;b" d="M22.76,81.12c5.44-0.77,10.88-0.96,18.02-1.93"/></g></g><g id="kvg:07820-g3" kvg:element="&#19988;" kvg:position="right"><g id="kvg:07820-g4" kvg:element="&#26376;"><path id="kvg:07820-s6" kvg:type="&#12753;a" d="M53.4,14.62c0.7,1.08,1.17,2.14,1.41,3.19c0.23,1.05,0.52,71.8,0.43,74.13"/><path id="kvg:07820-s7" kvg:type="&#12757;b" d="M55.72,17.14c2.9-0.11,22.16-2.9,24.29-3.23c2.11-0.33,3.88,1.43,3.88,3.58c0,1.52-0.23,50.72-0.37,71.38"/><path id="kvg:07820-s8" kvg:type="&#12752;a" d="M55.82,42.24c10.13-1.02,18.19-1.47,27.09-1.79"/><path id="kvg:07820-s9" kvg:type="&#12752;a" d="M56.42,65c7.91-0.37,16.71-1.79,25.86-1.84"/></g><g id="kvg:07820-g5" kvg:element="&#19968;"><path id="kvg:07820-s10" kvg:type="&#12752;" d="M38.04,94.06c1.49,0.44,4.22,0.51,5.71,0.44c15.51-0.73,22.62-3.84,51.16-3.96c2.48-0.01,3.97,0.21,5.22,0.43"/></g></g></g></g></svg>