<svg xmlns="http://www.w3.org/2000/svg" width="109" height="109" viewBox="0 0 109 109"><g xmlns:kvg="http://kanjivg.tagaini.net" id="kvg:StrokePaths_07827" style="fill:none;stroke:#000000;stroke-width:3;stroke-linecap:round;stroke-linejoin:round;"><g id="kvg:07827" kvg:element="&#30759;"><g id="kvg:07827-g1" kvg:element="&#30707;" kvg:position="left" kvg:radical="general"><path id="kvg:07827-s1" kvg:type="&#12752;" d="M13.95,28.01c2.06,0.26,4.13,0.32,6.2,0.07c6.98-0.83,12.38-1.79,20.98-2.83c1.78-0.39,3.57-0.43,5.36-0.12"/><path id="kvg:07827-s2" kvg:type="&#12754;" d="M27.43,30.3c0.32,1.08,0.18,1.67-0.1,2.98C25,44.25,20.25,56,10.14,69.53"/><g id="kvg:07827-g2" kvg:element="&#21475;"><path id="kvg:07827-s3" kvg:type="&#12753;" d="M20.63,56.07c0.63,0.84,0.94,1.77,0.95,2.79c0.75,5.89,1.67,13.86,2.39,21.25c0.27,2.76,0.52,5.43,0.72,7.89"/><path id="kvg:07827-s4" kvg:type="&#12757;b" d="M22.16,56.71c8.59-1.33,13.99-2.07,17.97-2.7c2.64-0.42,3.41,1.84,3.14,4.11c-0.73,6.08-1.87,15.47-2.99,22.71"/><path id="kvg:07827-s5" kvg:type="&#12752;b" d="M25.59,83.88c5.73-0.58,8.38-1.09,12.68-1.62c1.26-0.16,2.66-0.31,4.33-0.48"/></g></g><g id="kvg:07827-g3" kvg:element="&#21344;" kvg:position="right"><g id="kvg:07827-g4" kvg:element="&#21340;" kvg:variant="true" kvg:original="&#12488;" kvg:position="top"><path id="kvg:07827-s6" kvg:type="&#12753;a" d="M69.06,14.13c1.09,1.09,1.51,3.37,1.51,5c0,0.91,0,30.87,0,44"/><path id="kvg:07827-s7" kvg:type="&#12752;b" d="M71.75,38.38c7.3-1.16,13.71-2.42,17.22-3.03c1.98-0.43,3.99-0.49,6.03-0.17"/></g><g id="kvg:07827-g5" kvg:element="&#21475;" kvg:position="bottom"><path id="kvg:07827-s8" kvg:type="&#12753;" d="M52.41,64.82c0.83,0.92,1.15,1.69,1.3,2.82c1.12,8.23,1.95,13.78,2.78,19.88c0.32,2.32,0.63,4.73,0.96,7.39"/><path id="kvg:07827-s9" kvg:type="&#12757;b" d="M54.21,65.92c10.68-1.35,29.01-3.02,35.29-3.81c2.33-0.3,4.11,1.64,3.69,4.11c-1.11,6.46-2.74,15.36-4.27,23.55"/><path id="kvg:07827-s10" kvg:type="&#12752;b" d="M57.86,92.95c6.01-0.36,17.51-1.31,27.03-1.86c2.58-0.15,5.01-0.26,7.15-0.33"/></g></g></g></g></svg>