<svg xmlns="http://www.w3.org/2000/svg" width="109" height="109" viewBox="0 0 109 109"><g xmlns:kvg="http://kanjivg.tagaini.net" id="kvg:StrokePaths_0788e" style="fill:none;stroke:#000000;stroke-width:3;stroke-linecap:round;stroke-linejoin:round;"><g id="kvg:0788e" kvg:element="&#30862;"><g id="kvg:0788e-g1" kvg:element="&#30707;" kvg:position="left" kvg:radical="tradit"><path id="kvg:0788e-s1" kvg:type="&#12752;" d="M14.06,24.51c0.66,0.09,1.85,0.06,2.49-0.02c8.09-0.95,12.23-1.28,23.02-2.74c1.08-0.15,1.73-0.05,2.28-0.01"/><path id="kvg:0788e-s2" kvg:type="&#12754;" d="M24.46,26.6c0.04,0.92,0.09,2.38-0.08,3.69c-0.97,7.79-6.53,24.87-14.13,35.34"/><g id="kvg:0788e-g2" kvg:element="&#21475;"><path id="kvg:0788e-s3" kvg:type="&#12753;" d="M20,50.59c0.28,0.55,0.56,1,0.68,1.69c0.96,5.43,1.57,17.72,1.78,27.64"/><path id="kvg:0788e-s4" kvg:type="&#12757;b" d="M20.73,51.86c7.27-1.61,14.61-1.94,17.87-2.68c1.19-0.27,1.9,1.59,1.73,3.15c-0.7,6.5-2.53,16.36-3.58,25.35"/><path id="kvg:0788e-s5" kvg:type="&#12752;b" d="M24.09,77.96C29,77.5,31.5,77.5,39.61,77.42"/></g></g><g id="kvg:0788e-g3" kvg:element="&#21330;" kvg:position="right"><g id="kvg:0788e-g4" kvg:position="top"><g id="kvg:0788e-g5" kvg:element="&#20128;"><path id="kvg:0788e-s6" kvg:type="&#12753;a" d="M66.83,11c0.49,0.47,2.11,1.76,2.11,2.69c0,3.41-0.16,8.19-0.06,11.07"/><path id="kvg:0788e-s7" kvg:type="&#12752;" d="M48.46,26.51c0.84,0.05,2.75,0.33,3.57,0.26c6.59-0.55,29.99-2.83,38.36-2.97c1.38-0.02,2.09,0.02,3.12,0.34"/></g><g id="kvg:0788e-g6" kvg:element="&#20174;"><g id="kvg:0788e-g7" kvg:element="&#20154;" kvg:position="left"><path id="kvg:0788e-s8" kvg:type="&#12754;" d="M59.61,33.16c0,0.59,0.04,1.05-0.1,1.77c-0.67,3.68-7.05,15.93-12.5,21.37"/><path id="kvg:0788e-s9" kvg:type="&#12751;" d="M58.97,42.88c2.98,1.45,6.78,5.3,8.23,8.96"/></g><g id="kvg:0788e-g8" kvg:element="&#20154;" kvg:position="right"><path id="kvg:0788e-s10" kvg:type="&#12754;" d="M83.52,30.49c0,0.59,0.04,1.04-0.09,1.75C82.78,35.87,76.68,48,71.46,53.38"/><path id="kvg:0788e-s11" kvg:type="&#12751;" d="M80.11,40.46c5.36,2.42,12.18,8.86,14.79,14.96"/></g></g></g><g id="kvg:0788e-g9" kvg:element="&#21313;" kvg:position="bottom"><path id="kvg:0788e-s12" kvg:type="&#12752;" d="M44.97,70.1c1,0.51,2.86,0.69,3.87,0.58c12.89-1.31,37.23-3.74,46.1-3.73c1.68,0,2.68,0.29,3.53,0.57"/><path id="kvg:0788e-s13" kvg:type="&#12753;" d="M67.8,59.33c1.77,0.59,2.71,2.21,2.83,4.56s-0.58,25.86-0.58,34.44"/></g></g></g></g></svg>