<svg xmlns="http://www.w3.org/2000/svg" width="109" height="109" viewBox="0 0 109 109"><g xmlns:kvg="http://kanjivg.tagaini.net" id="kvg:StrokePaths_0788d" style="fill:none;stroke:#000000;stroke-width:3;stroke-linecap:round;stroke-linejoin:round;"><g id="kvg:0788d" kvg:element="&#30861;"><g id="kvg:0788d-g1" kvg:element="&#30707;" kvg:position="left" kvg:radical="general"><path id="kvg:0788d-s1" kvg:type="&#12752;" d="M15.38,31.26c1.76,0.27,3.51,0.48,5.26,0.15c5.12-0.55,9.5-1.37,15.73-2.47c2.2-0.39,4.58-0.92,6.76-0.6"/><path id="kvg:0788d-s2" kvg:type="&#12754;" d="M26.96,33.68c0.04,0.91,0.21,2.37-0.08,3.65C24.25,48.75,20.25,60.38,12,72.25"/><g id="kvg:0788d-g2" kvg:element="&#21475;"><path id="kvg:0788d-s3" kvg:type="&#12753;" d="M22.25,55.92c0.79,0.79,1,1.58,1.18,2.67c0.78,4.63,1.21,9.74,1.84,15.92c0.2,1.96,0.42,4.04,0.69,6.24"/><path id="kvg:0788d-s4" kvg:type="&#12757;b" d="M24.23,55.67c5.82-0.83,10.39-1.8,14.41-2.47c2.79-0.46,4.54,0.44,4,3.42C41.5,63,41,67.5,39.5,75.02"/><path id="kvg:0788d-s5" kvg:type="&#12752;b" d="M26.84,77.83c4.86-0.63,6.76-0.93,10.43-1.39c1.16-0.15,2.5-0.31,4.18-0.51"/></g></g><g id="kvg:0788d-g3" kvg:position="right"><g id="kvg:0788d-g4" kvg:element="&#26086;" kvg:position="top"><g id="kvg:0788d-g5" kvg:element="&#26085;" kvg:position="top"><path id="kvg:0788d-s6" kvg:type="&#12753;" d="M52.67,14.41c0.77,0.77,1.28,1.75,1.45,2.6c0.43,2.22,1.63,12.14,2.48,19.49c0.39,3.37,0.71,6.2,0.84,7.49"/><path id="kvg:0788d-s7" kvg:type="&#12757;a" d="M55.15,16.52c4.03-0.45,19.32-2.34,24.86-2.88c3.67-0.36,5.01,0.44,4.74,3.75c-0.3,3.83-1.06,11.68-1.71,17.87c-0.28,2.64-0.53,4.97-0.72,6.56"/><path id="kvg:0788d-s8" kvg:type="&#12752;a" d="M56.81,28.67c6.8-0.67,21.98-1.84,26.05-1.84"/><path id="kvg:0788d-s9" kvg:type="&#12752;a" d="M58.22,41.55C65.73,41,74,40,81.42,39.68"/></g><g id="kvg:0788d-g6" kvg:element="&#19968;" kvg:position="bottom"><path id="kvg:0788d-s10" kvg:type="&#12752;" d="M50.25,52.83c2.88,0.54,6.09,0.26,8.99-0.06c9.01-1.02,14.91-1.39,24.12-2.01c2.96-0.2,5.92-0.24,8.89,0.15"/></g></g><g id="kvg:0788d-g7" kvg:element="&#23544;" kvg:position="bottom"><path id="kvg:0788d-s11" kvg:type="&#12752;" d="M47.25,69.17c3.28,0.53,6.48,0.12,9.76-0.21c12.12-1.22,22.37-2.14,32.73-2.73c3.11-0.41,6.2-0.21,9.27,0.58"/><path id="kvg:0788d-s12" kvg:type="&#12762;" d="M81.64,55.83c1.39,1.39,1.51,3.42,1.51,5.02c0,14.56-0.01,26.52-0.01,31.62c0,8.28-6.52,1.78-8.71,0.25"/><path id="kvg:0788d-s13" kvg:type="&#12756;" d="M57.58,76.62c2.65,1.59,6.84,6.53,7.5,9"/></g></g></g></g></svg>