<svg xmlns="http://www.w3.org/2000/svg" width="109" height="109" viewBox="0 0 109 109"><g xmlns:kvg="http://kanjivg.tagaini.net" id="kvg:StrokePaths_078a3" style="fill:none;stroke:#000000;stroke-width:3;stroke-linecap:round;stroke-linejoin:round;"><g id="kvg:078a3" kvg:element="&#30883;"><g id="kvg:078a3-g1" kvg:element="&#30707;" kvg:position="left" kvg:radical="general"><path id="kvg:078a3-s1" kvg:type="&#12752;" d="M13.71,25.35c0.66,0.38,1.92,0.57,2.6,0.53c8.69-0.47,15.41-1.42,27.04-2.51c1.16-0.11,1.82,0.29,2.38,0.5"/><path id="kvg:078a3-s2" kvg:type="&#12754;" d="M28.39,26.93c-0.02,0.92-0.08,2.38-0.38,3.68C26.2,38.28,20,54.5,7.58,64.48"/><g id="kvg:078a3-g2" kvg:element="&#21475;"><path id="kvg:078a3-s3" kvg:type="&#12753;" d="M19.71,52.29c0.39,0.53,0.79,0.98,0.92,1.62c1.09,5.06,1.81,18.83,2.14,27.79"/><path id="kvg:078a3-s4" kvg:type="&#12757;b" d="M21.38,53.76c6.98-1.63,13.97-2.87,17.31-3.35c1.22-0.17,1.79,1.73,1.5,3.27c-1.2,6.41-0.94,13.96-2.69,22.82"/><path id="kvg:078a3-s5" kvg:type="&#12752;b" d="M22.69,79.25c5.37-0.89,10.26-1.21,17.3-2.29"/></g></g><g id="kvg:078a3-g3" kvg:element="&#26359;" kvg:position="right"><g id="kvg:078a3-g4" kvg:element="&#26085;" kvg:position="top"><path id="kvg:078a3-s6" kvg:type="&#12753;" d="M52.27,14.75c0.28,0.51,0.3,0.88,0.47,1.54c1.38,5.4,2.59,19.57,3.62,29.67"/><path id="kvg:078a3-s7" kvg:type="&#12757;a" d="M53.23,16.62c8.27-1.35,22.64-2.44,30.29-3.37c2.27-0.27,2.79,1.93,2.71,3.18c-0.31,4.56-2.65,20.1-3.49,27.72"/><path id="kvg:078a3-s8" kvg:type="&#12752;a" d="M54.83,30.33c4.87-0.54,27.37-2.51,29.83-2.7"/><path id="kvg:078a3-s9" kvg:type="&#12752;a" d="M56.35,43.36c8.2-0.74,17.69-1.59,25.93-2.04"/></g><g id="kvg:078a3-g5" kvg:position="bottom"><g id="kvg:078a3-g6" kvg:element="&#21241;"><g id="kvg:078a3-g7" kvg:element="&#20031;"><path id="kvg:078a3-s10" kvg:type="&#12754;" d="M61.98,47.16c0.07,0.53,0.3,1.38-0.06,2.11c-2.79,5.44-9.22,13.48-20.16,20.64"/></g><path id="kvg:078a3-s11" kvg:type="&#12742;" d="M59.67,57.08c0.88,0.48,2.09,0.62,3.47,0.24C67.5,57,88.27,54.57,91.7,54.08c2.13-0.3,3.66,1.22,3.38,4.75c-0.95,12.2-3.59,24.5-8.82,36.01c-2.02,4.45-3.9,4.25-6.29-0.67"/></g><g id="kvg:078a3-g8" kvg:element="&#20154;"><path id="kvg:078a3-s12" kvg:type="&#12754;" d="M70.23,61.96c0.33,0.26,0,1.73-0.2,2.27c-2.01,5.38-4.02,9.92-11.54,16.53"/><path id="kvg:078a3-s13" kvg:type="&#12751;" d="M68.85,69.5c3.94,1.52,9.02,5.7,11.02,9.75"/></g><path id="kvg:078a3-s14" kvg:type="&#12740;" d="M51.68,67.16c0.67,0.43,1.1,2,1.24,2.89c0.14,0.81-0.26,7.05-0.06,15.01c0.05,1.84,0.61,2.98,2.39,2.73c6.74-1.3,16.94-1.64,24.21-2.44c1.58-0.18,2.87,0.3,3.66,0.28"/></g></g></g></g></svg>