<svg xmlns="http://www.w3.org/2000/svg" width="109" height="109" viewBox="0 0 109 109"><g xmlns:kvg="http://kanjivg.tagaini.net" id="kvg:StrokePaths_078bc" style="fill:none;stroke:#000000;stroke-width:3;stroke-linecap:round;stroke-linejoin:round;"><g id="kvg:078bc" kvg:element="&#30908;"><g id="kvg:078bc-g1" kvg:element="&#30707;" kvg:position="left" kvg:radical="general"><path id="kvg:078bc-s1" kvg:type="&#12752;" d="M15.88,28.51c0.57,0.18,1.63,0.23,2.2,0.18c7.18-0.62,12.21-1.94,21.8-3.02c0.95-0.11,1.53,0.08,2.01,0.17"/><path id="kvg:078bc-s2" kvg:type="&#12754;" d="M26.5,29.25c0.05,1.03,0.11,2.66-0.1,4.14C25.15,42.12,18.01,61.27,8.25,73"/><g id="kvg:078bc-g2" kvg:element="&#21475;"><path id="kvg:078bc-s3" kvg:type="&#12753;" d="M21.58,56.25c0.3,0.38,0.61,0.7,0.73,1.17c0.95,3.69,1.89,13.8,2.39,20.38"/><path id="kvg:078bc-s4" kvg:type="&#12757;b" d="M23.73,57.39c7.04-1.76,14.16-2.81,17.54-3.4c1.24-0.22,1.98,1.29,1.8,2.57c-0.73,5.3-2.63,11.7-3.72,19.03"/><path id="kvg:078bc-s5" kvg:type="&#12752;b" d="M25.59,77.78c4.84-0.47,8.79-0.89,15.16-1.49"/></g></g><g id="kvg:078bc-g3" kvg:element="&#39340;" kvg:position="right"><path id="kvg:078bc-s6" kvg:type="&#12753;" d="M53.65,17.06c0.25,0.39,0.52,2.46,0.52,3.11c-0.02,6.53-0.1,32.54-0.29,42.81"/><path id="kvg:078bc-s7" kvg:type="&#12752;b" d="M55.73,17.94c8.13-0.45,27.13-1.78,30.62-2.06c1.22-0.1,3.28-0.19,3.9-0.06"/><path id="kvg:078bc-s8" kvg:type="&#12753;a" d="M71.33,18.41c0.19,0.39,0.34,0.92,0.34,1.56c-0.02,6.52-0.06,28.61-0.21,38.88"/><path id="kvg:078bc-s9" kvg:type="&#12752;b" d="M55.85,33.87c7.25-0.63,23.77-2.12,26.88-2.43c1.08-0.11,2.93-0.26,3.48-0.23"/><path id="kvg:078bc-s10" kvg:type="&#12752;b" d="M55.47,47.14c7.08-0.61,24.07-2.11,27.11-2.43c1.06-0.11,2.86-0.25,3.4-0.19"/><path id="kvg:078bc-s11" kvg:type="&#12742;a" d="M54.37,61.67c9.66-1.58,30.09-3.88,35.45-4.36c3.48-0.31,4.98,0.78,4.61,4.32c-1.3,12.45-4.11,21.62-6.29,26.56c-3.78,8.58-5.41,5.37-8.92,0.38"/><g id="kvg:078bc-g4" kvg:element="&#28780;" kvg:variant="true" kvg:original="&#28779;"><path id="kvg:078bc-s12" kvg:type="&#12756;" d="M49.26,73.5c-0.16,5.79-1.91,12.51-3.01,16"/><path id="kvg:078bc-s13" kvg:type="&#12756;" d="M56.5,71.5c3.27,2.38,6.34,8.76,7.13,12.35"/><path id="kvg:078bc-s14" kvg:type="&#12756;" d="M66.25,68c2.93,1.62,7.54,6.56,8.25,9"/><path id="kvg:078bc-s15" kvg:type="&#12756;" d="M77.75,65.25c2.4,1.68,6.17,6.76,6.75,9.25"/></g></g></g></g></svg>