<svg xmlns="http://www.w3.org/2000/svg" width="109" height="109" viewBox="0 0 109 109"><g xmlns:kvg="http://kanjivg.tagaini.net" id="kvg:StrokePaths_078be" style="fill:none;stroke:#000000;stroke-width:3;stroke-linecap:round;stroke-linejoin:round;"><g id="kvg:078be" kvg:element="&#30910;"><g id="kvg:078be-g1" kvg:element="&#30707;" kvg:position="left" kvg:radical="general"><path id="kvg:078be-s1" kvg:type="&#12752;" d="M10.88,20.68c0.7,0.13,1.99,0.14,2.68,0.13c5.94-0.06,14.91-1.46,26.62-2.27c1.16-0.08,1.87,0.06,2.45,0.13"/><path id="kvg:078be-s2" kvg:type="&#12754;" d="M24.95,22.68c0.05,0.9,0.1,2.33-0.1,3.63c-1.21,7.65-8.13,24.42-17.6,34.7"/><g id="kvg:078be-g2" kvg:element="&#21475;"><path id="kvg:078be-s3" kvg:type="&#12753;" d="M18.17,49.07c0.04,0.52,0.06,0.96,0.11,1.61c0.33,5.17,1.25,19.45,1.84,28.75"/><path id="kvg:078be-s4" kvg:type="&#12757;b" d="M18.23,50.37c7.02-1.37,14.45-2.81,17.55-3.62c1.13-0.3,1.81,1.75,1.65,3.49c-0.67,7.2-2.41,15.9-3.4,25.85"/><path id="kvg:078be-s5" kvg:type="&#12752;b" d="M20.25,77.5c5.03-0.56,9.14-1.05,15.75-1.75"/></g></g><g id="kvg:078be-g3" kvg:element="&#23637;" kvg:position="right"><g id="kvg:078be-g4" kvg:element="&#23608;" kvg:position="tare"><path id="kvg:078be-s6" kvg:type="&#12757;c" d="M50.27,14.76c1.2,0.78,3.16,0.46,4.48,0.39c7.16-0.41,30.37-2.87,33.24-3c1.42-0.06,2.24,1.93,1.83,3.99c-0.73,3.65-1.37,5.52-2.81,11.01"/><path id="kvg:078be-s7" kvg:type="&#12752;b" d="M53.47,29.84c4.22-0.18,28.88-2.11,35.66-2.44"/><path id="kvg:078be-s8" kvg:type="&#12754;" d="M53.25,17c0,35.66-4.04,52.23-22.5,76"/></g><g id="kvg:078be-g5" kvg:element="&#24318;"><g id="kvg:078be-g6" kvg:element="&#21313;" kvg:part="1"><path id="kvg:078be-s9" kvg:type="&#12752;" d="M58.45,46.25c0.64,0.18,1.81,0.23,2.45,0.18c4.07-0.32,25.41-2.35,29.36-2.13c1.06,0.06,1.71,0.09,2.24,0.18"/></g><g id="kvg:078be-g7" kvg:element="&#20031;"><path id="kvg:078be-s10" kvg:type="&#12754;" d="M63.71,35.75c0.79,1.25,1.69,3.04,1.73,4.38c0.03,0.89,0,15.58-0.03,21.12"/></g><g id="kvg:078be-g8" kvg:element="&#21313;" kvg:part="2"><path id="kvg:078be-s11" kvg:type="&#12753;" d="M80.55,34.25c0.14,0.47,0.26,2.12,0.24,3.08c-0.04,2.84-1.17,15.3-1.29,22.17"/></g></g><path id="kvg:078be-s12" kvg:type="&#12752;" d="M51.75,61.79c0.84,0.4,2.38,0.45,3.23,0.4c7.02-0.44,33.5-4.12,38.71-3.66c1.4,0.12,2.25,0.19,2.95,0.39"/><path id="kvg:078be-s13" kvg:type="&#12757;" d="M59.28,63.75c0.37,0.59,0.77,1.16,0.77,2.18C60.03,78.84,59.8,92.62,59.8,94.8c0,2.18,0.91,3.42,2.07,1.79C63.02,94.95,74.46,87.14,76,85.5"/><path id="kvg:078be-s14" kvg:type="&#12754;" d="M89.06,64.5c0.04,0.33,0.37,1.58,0.16,2.02C87.9,69.23,83.75,73.1,77,78.5"/><path id="kvg:078be-s15" kvg:type="&#12751;" d="M62,64.75c3.76-0.54,24.27,23.29,28.24,26.76c1.49,1.31,2.77,1.87,4.26,2.24"/></g></g></g></svg>