<svg xmlns="http://www.w3.org/2000/svg" width="109" height="109" viewBox="0 0 109 109"><g xmlns:kvg="http://kanjivg.tagaini.net" id="kvg:StrokePaths_078c5" style="fill:none;stroke:#000000;stroke-width:3;stroke-linecap:round;stroke-linejoin:round;"><g id="kvg:078c5" kvg:element="&#30917;"><g id="kvg:078c5-g1" kvg:element="&#30707;" kvg:position="left" kvg:radical="general"><path id="kvg:078c5-s1" kvg:type="&#12752;" d="M14.13,20.81c0.74,0.08,2.1,0.11,2.83,0.08c9.27-0.29,12.7-1.42,25.08-1.93c1.23-0.05,1.97,0.04,2.59,0.08"/><path id="kvg:078c5-s2" kvg:type="&#12754;" d="M26.75,22.25c0.05,0.99,0.1,2.55-0.1,3.97C25.52,34.6,18.96,52.99,10,64.25"/><g id="kvg:078c5-g2" kvg:element="&#21475;"><path id="kvg:078c5-s3" kvg:type="&#12753;" d="M21,51.79c0.28,0.43,0.56,0.78,0.68,1.31c0.96,4.21,2.12,15.83,2.78,23.4"/><path id="kvg:078c5-s4" kvg:type="&#12757;b" d="M22.75,53c4.62-1.28,10.14-1.23,15.63-2.32c1.11-0.22,1.79,1.23,1.64,2.47c-0.62,5.12-1.35,10.01-2.27,17.09"/><path id="kvg:078c5-s5" kvg:type="&#12752;b" d="M25.57,74.07c4.27-0.6,7.76-1.09,13.37-1.88"/></g></g><g id="kvg:078c5-g3" kvg:element="&#26049;" kvg:position="right"><g id="kvg:078c5-g4" kvg:position="top"><g id="kvg:078c5-g5" kvg:element="&#31435;" kvg:partial="true"><g id="kvg:078c5-g6" kvg:element="&#20128;" kvg:position="top"><path id="kvg:078c5-s6" kvg:type="&#12753;a" d="M69.45,11.75c0.46,0.5,1.15,1.62,1.15,2.89c0,2.02,0,1.24,0,6.73"/><path id="kvg:078c5-s7" kvg:type="&#12752;" d="M51.87,24.31c0.87,0.12,1.88,0.1,2.73,0.04c4.85-0.37,27.15-2.78,34.49-3.24c1.43-0.09,2.3-0.03,3.02,0.02"/></g><g id="kvg:078c5-g7" kvg:position="bottom"><path id="kvg:078c5-s8" kvg:type="&#12756;" d="M58.25,26.5c2.89,4.19,4.74,9.24,5,12"/><path id="kvg:078c5-s9" kvg:type="&#12754;" d="M83.33,24.34c0.2,1.29,0.37,2.34,0.21,2.69c-1.54,3.48-4.18,10.09-5.29,12.22"/></g></g><g id="kvg:078c5-g8" kvg:element="&#20886;"><path id="kvg:078c5-s10" kvg:type="&#12756;" d="M51.25,38.25c-0.11,3.38-2.79,12.23-3.75,14.25"/><path id="kvg:078c5-s11" kvg:type="&#12758;b" d="M52.25,42.3c6.14-0.72,27.95-3.7,39.91-4c7.31-0.19,2.31,4.3-0.42,7.1"/></g></g><g id="kvg:078c5-g9" kvg:element="&#26041;" kvg:position="bottom"><g id="kvg:078c5-g10" kvg:element="&#20128;" kvg:position="top"><path id="kvg:078c5-s12" kvg:type="&#12753;a" d="M69.31,47.62c0.68,0.48,1.81,2.33,1.81,3.29c0,3.51-0.21,4.13-0.09,7.1"/><path id="kvg:078c5-s13" kvg:type="&#12752;" d="M47.6,59.54c0.89,0.06,2.91,0.39,3.77,0.32c6.96-0.59,32.63-2.5,42.09-2.89c1.46-0.06,2.21,0.04,3.29,0.4"/></g><g id="kvg:078c5-g11" kvg:position="bottom"><path id="kvg:078c5-s14" kvg:type="&#12742;a" d="M68.5,68c4.1,1.3,12.3,2.7,16.61,3.3c1.94,0.27,2.86,1.08,2.38,2.6c-1.6,5.07-8.83,17.27-14.79,22.26c-3.56,2.97-5.19-1.16-6.19-2.64"/><path id="kvg:078c5-s15" kvg:type="&#12754;" d="M69.2,62.2c0.41,0.95,0.33,2.02-0.16,3.09C65.68,72.66,56,85,41.84,93.53"/></g></g></g></g></g></svg>