<svg xmlns="http://www.w3.org/2000/svg" width="109" height="109" viewBox="0 0 109 109"><g xmlns:kvg="http://kanjivg.tagaini.net" id="kvg:StrokePaths_0792b" style="fill:none;stroke:#000000;stroke-width:3;stroke-linecap:round;stroke-linejoin:round;"><g id="kvg:0792b" kvg:element="&#31019;"><g id="kvg:0792b-g1" kvg:element="&#30707;" kvg:position="left" kvg:radical="general"><path id="kvg:0792b-s1" kvg:type="&#12752;" d="M10.13,30.99c0.56,0.18,1.58,0.22,2.13,0.18c6.97-0.61,11.85-1.91,21.17-2.98c0.92-0.11,1.48,0.08,1.95,0.17"/><path id="kvg:0792b-s2" kvg:type="&#12754;" d="M21.5,31.5c0.04,0.84,0.09,2.16-0.09,3.36C20.32,41.94,14.06,57.48,5.5,67"/><g id="kvg:0792b-g2" kvg:element="&#21475;"><path id="kvg:0792b-s3" kvg:type="&#12753;" d="M16.73,54.8c0.31,0.39,0.62,0.72,0.76,1.21c1.07,3.87,1.34,17.04,2.07,23.99"/><path id="kvg:0792b-s4" kvg:type="&#12757;b" d="M16.73,56.3c6.77-1.84,13.61-2.44,16.87-3.06c1.19-0.23,1.9,1.35,1.73,2.69c-0.7,5.54-2.53,11.74-3.58,19.41"/><path id="kvg:0792b-s5" kvg:type="&#12752;b" d="M20.34,78.09c4.19-0.84,8.1-1.09,13.6-2.14"/></g></g><g id="kvg:0792b-g3" kvg:element="&#27138;" kvg:position="right"><g id="kvg:0792b-g4" kvg:position="top"><g id="kvg:0792b-g5" kvg:element="&#30333;"><g id="kvg:0792b-g6" kvg:position="top"><path id="kvg:0792b-s6" kvg:type="&#12754;" d="M70.48,12.75c0.2,0.34,0.23,0.76,0.18,1.06c-0.28,1.77-2.7,6-4.91,8.38"/></g><g id="kvg:0792b-g7" kvg:element="&#26085;" kvg:position="bottom"><path id="kvg:0792b-s7" kvg:type="&#12753;" d="M60.82,21.75c0.21,0.82,0.5,2.37,0.5,3.42c0,1.05,1.31,23.64,1.37,28.83"/><path id="kvg:0792b-s8" kvg:type="&#12757;a" d="M62.55,24.21c1.28-0.13,10.83-1.72,12-1.87c0.97-0.13,1.6,0.85,1.52,1.59c-0.15,1.51-0.15,21.18-0.27,29.24"/><path id="kvg:0792b-s9" kvg:type="&#12752;a" d="M61.59,38.46c1.89,0,11.64-1.25,13.78-1.25"/><path id="kvg:0792b-s10" kvg:type="&#12752;a" d="M63.49,52.69c3.24,0,8.29-1.19,12.49-1.19"/></g></g><g id="kvg:0792b-g8" kvg:element="&#24186;"><path id="kvg:0792b-s11" kvg:type="&#12764;" d="M51.77,15.5c0.3,0.99,0.57,1.83-0.15,2.81c-3.14,4.3-7.37,12.08-10.35,14.4c-0.61,0.47-0.59,2.29,0,2.48c3.14,0.99,5.6,2.07,9.73,3.56"/><path id="kvg:0792b-s12" kvg:type="&#12764;" d="M56.01,27c0.2,0.48,0.26,2.04,0,2.54c-3.84,7.44-8.89,15.2-14.39,23.35c-0.68,1-0.39,2.09,0.39,1.77c3.28-1.33,8.84-3.13,13.05-4.4"/><path id="kvg:0792b-s13" kvg:type="&#12756;" d="M53.21,45.19c1.43,2.05,3.69,8.43,4.05,11.62"/></g><g id="kvg:0792b-g9" kvg:element="&#24186;"><path id="kvg:0792b-s14" kvg:type="&#12764;" d="M91.69,13.87c0.2,1.05,0.38,1.94-0.1,2.98c-2.12,4.56-6.14,11.72-8.16,14.18c-0.41,0.5-0.4,2.43,0,2.63c2.12,1.05,6.18,2.81,7.99,4.74"/><path id="kvg:0792b-s15" kvg:type="&#12764;" d="M97.99,26.28c0.2,0.45,0.31,1.96,0,2.4c-4.23,6.08-10.14,14.69-15.31,22.54c-0.65,0.99-0.4,2,0.4,1.7c3.37-1.25,8.88-2.9,13.21-4.1"/><path id="kvg:0792b-s16" kvg:type="&#12756;" d="M93.25,43.25c2.03,2.12,5.24,8.71,5.75,12"/></g></g><g id="kvg:0792b-g10" kvg:element="&#26408;" kvg:position="bottom"><path id="kvg:0792b-s17" kvg:type="&#12752;" d="M43.5,70.28c0.88,0.12,3.23,0.48,5.55,0.34c10.46-0.59,28.75-2.56,44.82-3.13c2.33-0.08,2.92-0.12,4.38,0"/><path id="kvg:0792b-s18" kvg:type="&#12753;" d="M68.14,59.5c0.51,0.26,0.82,1.17,0.92,1.69c0.1,0.52,0,36.56-0.1,39.81"/><path id="kvg:0792b-s19" kvg:type="&#12754;" d="M68,70c-4.83,9.09-15.36,20.46-28.75,25"/><path id="kvg:0792b-s20" kvg:type="&#12751;" d="M69.5,69.5c5.3,5.96,17.35,16.72,25,21.16c1.51,0.88,2.6,1.53,4,1.84"/></g></g></g></g></svg>