<svg xmlns="http://www.w3.org/2000/svg" width="109" height="109" viewBox="0 0 109 109"><g xmlns:kvg="http://kanjivg.tagaini.net" id="kvg:StrokePaths_0792c" style="fill:none;stroke:#000000;stroke-width:3;stroke-linecap:round;stroke-linejoin:round;"><g id="kvg:0792c" kvg:element="&#31020;"><g id="kvg:0792c-g1" kvg:element="&#27146;" kvg:position="top"><g id="kvg:0792c-g2" kvg:position="top"><g id="kvg:0792c-g3" kvg:element="&#26408;"><path id="kvg:0792c-s1" kvg:type="&#12752;" d="M15.29,23.24c0.37,0.37,2.53,0.54,3.51,0.49c7.87-0.43,12.97-1.98,22.82-2.97c0.99-0.1,1.22-0.37,1.83,0"/><path id="kvg:0792c-s2" kvg:type="&#12753;" d="M30.06,11.25c0.67,0.3,1.5,1.31,1.5,2.89c0,0.62-0.09,30.24-0.22,34.04"/><path id="kvg:0792c-s3" kvg:type="&#12754;" d="M30.75,25.5c-6.73,8.63-7.97,9.78-18.39,17.33"/><path id="kvg:0792c-s4" kvg:type="&#12751;" d="M32.71,27.11c2.66,1.25,6.34,5.52,8.58,7.93"/></g><g id="kvg:0792c-g4" kvg:element="&#29243;"><g id="kvg:0792c-g5" kvg:position="top"><g id="kvg:0792c-g6" kvg:element="&#20034;"><g id="kvg:0792c-g7" kvg:element="&#20031;"><path id="kvg:0792c-s5" kvg:type="&#12754;" d="M59.5,10.75c0.05,0.39,0.09,1-0.09,1.56C58.36,15.6,53.3,22.33,45,26.75"/></g><path id="kvg:0792c-s6" kvg:type="&#12751;" d="M47,13.5c4.97,1.1,11.57,6.66,13.5,10.5"/></g><g id="kvg:0792c-g8" kvg:element="&#26408;"><path id="kvg:0792c-s7" kvg:type="&#12752;" d="M58.99,29c0.05,0.39,0.11,1.01-0.1,1.58c-1.23,3.33-7.26,10.62-16.88,15.09"/><path id="kvg:0792c-s8" kvg:type="&#12753;" d="M47.25,32.75c4.63,2.2,10.16,7.09,12.75,10.5"/><path id="kvg:0792c-s9" kvg:type="&#12754;" d="M65.24,20.9c0.68,0.21,1.46,0.27,2.25,0.21c4-0.34,17.25-1.52,23.3-1.92c0.78-0.05,1.27,0.04,2.05,0.18"/><path id="kvg:0792c-s10" kvg:type="&#12751;" d="M76.63,10.5c0.53,0.31,0.95,1.38,0.95,2.03c0,6.55,0,28.68-0.11,32.58"/></g></g><g id="kvg:0792c-g9" kvg:element="&#20034;" kvg:position="bottom"><g id="kvg:0792c-g10" kvg:element="&#20031;"><path id="kvg:0792c-s11" kvg:type="&#12754;" d="M78.01,19.75c-2.48,6.21-9.14,15.71-14.31,19.23"/></g><path id="kvg:0792c-s12" kvg:type="&#12751;" d="M77.25,20.5c2.42,2.67,13.81,16.09,16.45,18.72c0.89,0.89,1.66,1.27,2.55,1.53"/></g></g></g><g id="kvg:0792c-g11" kvg:element="&#22823;" kvg:position="bottom"><path id="kvg:0792c-s13" kvg:type="&#12752;" d="M12.97,54.28c1.15,0.56,4.21,1.13,6.66,0.97c16.49-1.07,51.02-2.81,65.86-3.62c2.55-0.14,4.6,0.37,6.9,0.8"/><path id="kvg:0792c-s14" kvg:type="&#12754;" d="M53.24,45.25c0.22,0.92-0.06,2.21-0.64,2.9c-9.61,11.44-22.28,21.3-42,27.6"/><path id="kvg:0792c-s15" kvg:type="&#12751;" d="M65,53.24c5.81,4.56,19.38,14.67,25.19,17.72c1.98,1.04,2.66,1.19,3.56,1.29"/></g></g><g id="kvg:0792c-g12" kvg:element="&#30707;" kvg:position="bottom" kvg:radical="general"><path id="kvg:0792c-s16" kvg:type="&#12752;" d="M36.39,67.89c0.94,0.3,3.05,0.39,3.98,0.3c11.81-1.07,13.73-2.16,27.9-2.34c1.57-0.02,2.51,0.14,3.3,0.3"/><path id="kvg:0792c-s17" kvg:type="&#12754;" d="M44.75,70c0.08,0.54,0.17,1.38-0.16,2.15c-1.96,4.54-13.2,14.5-28.59,20.6"/><g id="kvg:0792c-g13" kvg:element="&#21475;"><path id="kvg:0792c-s18" kvg:type="&#12753;" d="M37.6,80.11c0.52,0.35,1.19,1.75,1.28,2.2c0.71,3.32,1.5,9.66,2.5,15.94"/><path id="kvg:0792c-s19" kvg:type="&#12757;b" d="M39.61,81.36c7.95-0.67,26.47-2.88,31.89-2.99c2.24-0.04,2.63,1.71,2.37,2.71c-0.82,3.1-1.82,7.22-3,12.99"/><path id="kvg:0792c-s20" kvg:type="&#12752;b" d="M41.86,96.18c6.35-0.34,24.05-1.96,32.16-2.06"/></g></g></g></g></svg>