<svg xmlns="http://www.w3.org/2000/svg" width="109" height="109" viewBox="0 0 109 109"><g xmlns:kvg="http://kanjivg.tagaini.net" id="kvg:StrokePaths_0793c" style="fill:none;stroke:#000000;stroke-width:3;stroke-linecap:round;stroke-linejoin:round;"><g id="kvg:0793c" kvg:element="&#31036;"><g id="kvg:0793c-g1" kvg:element="&#31035;" kvg:variant="true" kvg:original="&#31034;" kvg:position="left" kvg:radical="general"><path id="kvg:0793c-s1" kvg:type="&#12756;" d="M29.08,14.12c3.93,2.24,8.13,6.21,11.5,10.12"/><path id="kvg:0793c-s2" kvg:type="&#12743;" d="M15.36,39.25c1.04,0.45,3.14,0.91,4.93,0.7c5.75-0.69,20.57-4.37,22.55-4.95c2.59-0.75,4.09,1.26,2.51,3.5C39.91,46.25,26.38,64.38,14.5,74"/><path id="kvg:0793c-s3" kvg:type="&#12753;" d="M35,54.86c0.88,0.88,1.52,2.27,1.52,4.14c0,8.67-0.01,23.85-0.02,31.75c0,2.35,0,4.05,0,4.75"/><path id="kvg:0793c-s4" kvg:type="&#12756;" d="M39.2,56.5c3.71,2.41,7.69,6.03,10.88,10.25"/></g><g id="kvg:0793c-g2" kvg:element="&#20057;" kvg:variant="true" kvg:position="right" kvg:phon="&#20057;"><path id="kvg:0793c-s5" kvg:type="&#12767;" d="M67.24,17.37c1.01,1.01,1.49,2.88,1.49,4.43c0,8.19-0.13,49.14-0.13,54.7c0,9.88,2.15,12.03,12.96,12.03C93,88.53,94.89,87,94.89,78.9"/></g></g></g></svg>