<svg xmlns="http://www.w3.org/2000/svg" width="109" height="109" viewBox="0 0 109 109"><g xmlns:kvg="http://kanjivg.tagaini.net" id="kvg:StrokePaths_0793b" style="fill:none;stroke:#000000;stroke-width:3;stroke-linecap:round;stroke-linejoin:round;"><g id="kvg:0793b" kvg:element="&#31035;" kvg:variant="true" kvg:original="&#31034;" kvg:radical="tradit"><path id="kvg:0793b-s1" kvg:type="&#12756;" d="M45,7.5c5.8,2.21,12.03,5.51,17,9.38"/><path id="kvg:0793b-s2" kvg:type="&#12743;" d="M29,33.22c3.12,1.53,5.62,1.58,8.81,0.98c7.72-1.47,24.61-5.65,27.91-6.52c3.86-1.01,5.65,1.54,3.41,4.61C59.75,45.12,42.5,63,24.91,74.62"/><path id="kvg:0793b-s3" kvg:type="&#12753;" d="M53.42,53.37c0.92,0.92,1.02,2.27,1.02,4.14c0,7.13-0.04,24.19-0.06,34.37c-0.01,3.38-0.01,6-0.01,7.25"/><path id="kvg:0793b-s4" kvg:type="&#12756;" d="M57.5,53.75C73,61.62,80.62,68,84.88,75.62"/></g></g></svg>