<svg xmlns="http://www.w3.org/2000/svg" width="109" height="109" viewBox="0 0 109 109"><g xmlns:kvg="http://kanjivg.tagaini.net" id="kvg:StrokePaths_07949" style="fill:none;stroke:#000000;stroke-width:3;stroke-linecap:round;stroke-linejoin:round;"><g id="kvg:07949" kvg:element="&#31049;"><g id="kvg:07949-g1" kvg:element="&#31035;" kvg:variant="true" kvg:original="&#31034;" kvg:position="left" kvg:radical="general"><path id="kvg:07949-s1" kvg:type="&#12756;" d="M25.33,14c4.1,1.71,8.49,4.26,12,7.25"/><path id="kvg:07949-s2" kvg:type="&#12743;" d="M12.58,36.75c2.17,0.96,4.68,0.83,6.95,0.42c4.87-0.88,15.61-3.52,17.8-4.17c2.5-0.75,4.52,1.26,3,3.5c-5.25,7.75-17.75,22.75-26.5,30.5"/><path id="kvg:07949-s3" kvg:type="&#12753;" d="M29.25,53.11c1.01,1.01,1.27,2.26,1.27,3.64c0,4.58,0.03,22.78,0.04,32.75c0.01,3.84,0.01,6.5,0.01,6.75"/><path id="kvg:07949-s4" kvg:type="&#12756;" d="M34.5,53.5c3.36,2.23,6.95,5.58,9.83,9.5"/></g><g id="kvg:07949-g2" kvg:element="&#27490;" kvg:position="right" kvg:phon="&#27490;"><g id="kvg:07949-g3" kvg:element="&#21340;" kvg:original="&#12488;"><path id="kvg:07949-s5" kvg:type="&#12753;a" d="M71.62,19.5c1,1,1.46,2.62,1.46,4c0,1.02,0.03,53.62,0.03,60.5"/><path id="kvg:07949-s6" kvg:type="&#12752;b" d="M74.38,51.25c3.87-0.62,9.12-1.38,14.22-1.75c1.68-0.12,2.1-0.25,3.15,0"/></g><path id="kvg:07949-s7" kvg:type="&#12753;a" d="M52.87,51.25c0.81,0.81,1.46,2.38,1.46,4.25c0,5,0.03,23.25,0.03,31.5"/><path id="kvg:07949-s8" kvg:type="&#12752;" d="M43.25,87.48c2.7,0.82,5.72,0.59,8.49,0.24c11.38-1.47,25.88-3.34,36.76-3.67c2.55-0.08,5.37,0.08,8.25,0.96"/></g></g></g></svg>