<svg xmlns="http://www.w3.org/2000/svg" width="109" height="109" viewBox="0 0 109 109"><g xmlns:kvg="http://kanjivg.tagaini.net" id="kvg:StrokePaths_07956" style="fill:none;stroke:#000000;stroke-width:3;stroke-linecap:round;stroke-linejoin:round;"><g id="kvg:07956" kvg:element="&#31062;"><g id="kvg:07956-g1" kvg:element="&#31035;" kvg:variant="true" kvg:original="&#31034;" kvg:position="left" kvg:radical="general"><path id="kvg:07956-s1" kvg:type="&#12756;" d="M25.83,15.5c3.24,2,6.72,5,9.5,8.5"/><path id="kvg:07956-s2" kvg:type="&#12743;" d="M12.08,37.82c1.05,0.48,3.12,0.93,4.92,0.75c3.13-0.32,18.08-5.01,20.68-5.81c2.6-0.8,4.46,1.33,2.88,3.73c-5.45,8.29-16.81,23.26-26.95,33.26"/><path id="kvg:07956-s3" kvg:type="&#12753;" d="M29,54.36c0.88,0.88,1.77,2.51,1.77,3.89c0,10.25-0.02,20-0.02,30.75c0,3.01,0.08,5.47,0.08,6.25"/><path id="kvg:07956-s4" kvg:type="&#12756;" d="M33.58,51c3.76,2.65,7.78,6.62,11,11.25"/></g><g id="kvg:07956-g2" kvg:element="&#19988;" kvg:position="right" kvg:phon="&#19988;"><g id="kvg:07956-g3" kvg:element="&#26376;"><path id="kvg:07956-s5" kvg:type="&#12753;a" d="M54.69,25.48c0.98,0.98,1.38,2.4,1.38,3.64c0,0.97,0.09,52.38,0.09,59.25"/><path id="kvg:07956-s6" kvg:type="&#12757;b" d="M57.18,26.81c3.44-0.31,19.82-2.56,23.63-2.98c2.98-0.33,4.25,0.67,4.25,3.7c0,4.72-0.03,53.1-0.03,57.49"/><path id="kvg:07956-s7" kvg:type="&#12752;a" d="M57.26,46.78c7.63-0.94,20.1-2.55,26.8-2.84"/><path id="kvg:07956-s8" kvg:type="&#12752;a" d="M57.46,66.01c6.67-0.64,20.79-1.89,26.38-2.21"/></g><g id="kvg:07956-g4" kvg:element="&#19968;"><path id="kvg:07956-s9" kvg:type="&#12752;" d="M43.08,89.84c2.05,0.53,5.16,0.36,7.56,0.2c11.28-0.77,30.06-2.41,41.36-2.69c2.53-0.06,5.11-0.18,7.6,0.36"/></g></g></g></g></svg>