<svg xmlns="http://www.w3.org/2000/svg" width="109" height="109" viewBox="0 0 109 109"><g xmlns:kvg="http://kanjivg.tagaini.net" id="kvg:StrokePaths_07984" style="fill:none;stroke:#000000;stroke-width:3;stroke-linecap:round;stroke-linejoin:round;"><g id="kvg:07984" kvg:element="&#31108;"><g id="kvg:07984-g1" kvg:element="&#31035;" kvg:variant="true" kvg:original="&#31034;" kvg:position="left" kvg:radical="general"><path id="kvg:07984-s1" kvg:type="&#12756;" d="M22.83,14.25c3.24,2.35,6.72,5.88,9.5,10"/><path id="kvg:07984-s2" kvg:type="&#12743;" d="M12.33,36.36c2.34,1.1,4.94,0.84,7.41,0.43c4.98-0.83,13.18-2.59,15.33-3.27c2.67-0.85,4.35,1.14,2.74,3.68c-5.6,8.77-15.83,23.52-25.17,32.3"/><path id="kvg:07984-s3" kvg:type="&#12753;" d="M27,55.11c1.01,1.01,1.27,2.27,1.27,4.14c0,4.35,0.03,20.01,0.05,29.62c0.01,3.37,0.01,5.99,0.01,7.12"/><path id="kvg:07984-s4" kvg:type="&#12756;" d="M30.5,54.5c3.27,2.41,6.77,6.03,9.58,10.25"/></g><g id="kvg:07984-g2" kvg:position="right"><g id="kvg:07984-g3" kvg:element="&#11925;" kvg:variant="true" kvg:original="&#24401;"><path id="kvg:07984-s5" kvg:type="&#12757;" d="M48.87,17.33c2.46,0.9,5.32,0.59,7.9,0.33c8.86-0.9,16.07-1.67,20.33-1.9c3.07-0.17,4.63,1.28,4.23,3.9c-1.18,7.79-1.89,11.44-2.84,21.56"/><path id="kvg:07984-s6" kvg:type="&#12752;c" d="M50.12,30.13c2.05,0.91,4.92,1.07,7.15,0.85c8.86-0.86,15.36-1.74,21.25-2.25"/><path id="kvg:07984-s7" kvg:type="&#12752;c" d="M43.19,45.11c2.56,0.76,5.64,0.67,8.33,0.29c9.98-1.41,22.94-2.33,34.94-3.18c1.89-0.13,5.92,0,7.34,0.26"/></g><g id="kvg:07984-g4" kvg:element="&#27706;" kvg:variant="true" kvg:original="&#27700;"><path id="kvg:07984-s8" kvg:type="&#12762;" d="M66.22,46.73c0.84,0.84,1.05,1.9,1.05,4.23c0,6.04-0.02,35.65-0.02,40.8c0,11.2-5.93,2.08-7.49,0.78"/><path id="kvg:07984-s9" kvg:type="&#12756;" d="M46.44,56.8c3.2,1.87,8.28,7.69,9.08,10.6"/><path id="kvg:07984-s10" kvg:type="&#12736;" d="M43.07,85.7c1.3,0.8,2.74,0.71,4.37-0.77c0.96-0.87,5.81-5.06,11.78-10.52"/><path id="kvg:07984-s11" kvg:type="&#12754;" d="M86.48,51.55c0.09,0.91-0.11,1.75-0.62,2.51c-1.99,3.06-5.01,5.82-9.72,9.78"/><path id="kvg:07984-s12" kvg:type="&#12751;" d="M72.43,70.05c2,0.65,10.19,9.7,16.19,15.83c1.91,1.96,3.26,3.12,5.01,3.87"/></g></g></g></g></svg>