<svg xmlns="http://www.w3.org/2000/svg" width="109" height="109" viewBox="0 0 109 109"><g xmlns:kvg="http://kanjivg.tagaini.net" id="kvg:StrokePaths_079be" style="fill:none;stroke:#000000;stroke-width:3;stroke-linecap:round;stroke-linejoin:round;"><g id="kvg:079be" kvg:element="&#31166;" kvg:radical="general"><g id="kvg:079be-g1" kvg:element="&#20031;" kvg:position="top"><path id="kvg:079be-s1" kvg:type="&#12754;" d="M75,11.5c-0.23,1.22-1.43,2.39-2.48,2.92C63.62,19,52,23.62,28,29.25"/></g><g id="kvg:079be-g2" kvg:element="&#26408;" kvg:position="bottom"><path id="kvg:079be-s2" kvg:type="&#12752;" d="M16.5,45c3.79,1.15,7.81,0.61,11.65,0.22c17.1-1.72,36.6-3.1,52.23-3.8c3.91-0.18,7.76-0.15,11.62,0.45"/><path id="kvg:079be-s3" kvg:type="&#12753;" d="M53.72,25.75c0.95,0.96,1.1,2.29,1.1,3.22c0,3.65-0.11,39.81-0.16,58.91c-0.01,5.28-0.02,9.25-0.02,10.88"/><path id="kvg:079be-s4" kvg:type="&#12754;" d="M52.5,44.18c0,1.19-1.99,4.17-3,5.57C41.25,61.15,27.06,74.7,15.25,82.5"/><path id="kvg:079be-s5" kvg:type="&#12751;" d="M56,45.46c3.79,3.67,14.84,17,24.44,26.36C84.26,75.55,91.49,82.12,97,83.5"/></g></g></g></svg>