<svg xmlns="http://www.w3.org/2000/svg" width="109" height="109" viewBox="0 0 109 109"><g xmlns:kvg="http://kanjivg.tagaini.net" id="kvg:StrokePaths_079c1" style="fill:none;stroke:#000000;stroke-width:3;stroke-linecap:round;stroke-linejoin:round;"><g id="kvg:079c1" kvg:element="&#31169;"><g id="kvg:079c1-g1" kvg:element="&#31166;" kvg:position="left" kvg:radical="general"><g id="kvg:079c1-g2" kvg:element="&#20031;" kvg:position="top"><path id="kvg:079c1-s1" kvg:type="&#12754;" d="M45.24,13.5c0.01,1-0.5,2.25-1.43,2.99C39.75,19.75,31.75,23.88,18.75,29"/></g><g id="kvg:079c1-g3" kvg:element="&#26408;" kvg:position="bottom"><path id="kvg:079c1-s2" kvg:type="&#12752;" d="M11.62,44.6c2.63,0.78,5.51,0.5,7.28,0.17c9.98-1.89,22.62-3.29,30.72-4.06c1.29-0.12,3.13-0.21,4.36,0.12"/><path id="kvg:079c1-s3" kvg:type="&#12753;" d="M36.08,26.66c0.95,0.95,1.41,2.84,1.41,4.69c0,3.83,0,40.18-0.04,55.4c-0.01,3.25-0.02,5.59-0.03,6.5"/><path id="kvg:079c1-s4" kvg:type="&#12754;" d="M35.93,43.47c0,1.03-0.71,2.97-1.36,4.2C29.27,57.83,21.15,69.5,10.5,77.5"/><path id="kvg:079c1-s5" kvg:type="&#12756;/&#12751;" d="M41,49.75c4.4,2.51,8.13,7.52,10.5,10.75"/></g></g><g id="kvg:079c1-g4" kvg:element="&#21430;" kvg:position="right" kvg:phon="&#21430;"><path id="kvg:079c1-s6" kvg:type="&#12764;" d="M73.3,31.9c0.32,1.22,0.34,2.31-0.06,3.51C68.25,50.5,59.75,65.25,52.08,78.31c-2.12,3.61-1.6,5.03,1.88,3.89C66,78.25,76.62,74.12,88.28,69.98"/><path id="kvg:079c1-s7" kvg:type="&#12756;" d="M82.81,60.54c4.45,4.37,11.49,17.97,12.61,24.77"/></g></g></g></svg>