<svg xmlns="http://www.w3.org/2000/svg" width="109" height="109" viewBox="0 0 109 109"><g xmlns:kvg="http://kanjivg.tagaini.net" id="kvg:StrokePaths_079d5" style="fill:none;stroke:#000000;stroke-width:3;stroke-linecap:round;stroke-linejoin:round;"><g id="kvg:079d5" kvg:element="&#31189;"><g id="kvg:079d5-g1" kvg:element="&#31166;" kvg:position="left" kvg:radical="tradit"><g id="kvg:079d5-g2" kvg:element="&#20031;" kvg:position="top"><path id="kvg:079d5-s1" kvg:type="&#12754;" d="M38.75,16.5c0.06,0.29,0.14,0.76-0.13,1.18C37.04,20.18,27.94,25.65,15.5,29"/></g><g id="kvg:079d5-g3" kvg:element="&#26408;" kvg:position="bottom"><path id="kvg:079d5-s2" kvg:type="&#12752;" d="M13.12,44.61c0.47,0.22,1.73,0.85,2.96,0.66C24.25,44,31.75,43.5,41.67,42.9c1.25-0.08,1.55-0.22,2.33,0"/><path id="kvg:079d5-s3" kvg:type="&#12753;" d="M30.24,25.41c0.46,0.43,0.74,1.95,0.83,2.82c0.09,0.87,0,61.59-0.09,67.02"/><path id="kvg:079d5-s4" kvg:type="&#12754;" d="M30.93,45.47C26.79,56.54,19.88,70.2,10.5,79.25"/><path id="kvg:079d5-s5" kvg:type="&#12751;" d="M33.25,53.25c3.56,2.62,6.58,7.88,8.5,11.25"/></g></g><g id="kvg:079d5-g4" kvg:element="&#27604;" kvg:position="right"><g id="kvg:079d5-g5" kvg:position="left"><path id="kvg:079d5-s6" kvg:type="&#12752;b" d="M52.75,49.62c4.45-0.31,8.26-1.4,12.14-1.91c1.14-0.15,3.02-0.15,3.61-0.06"/><path id="kvg:079d5-s7" kvg:type="&#12761;" d="M50.91,17.81c0.72,1.34,1.34,2.74,1.29,4.55c-0.12,4.9-1.08,57.22-1.25,64.51c-0.11,4.46,0.58,5.39,2.49,3.78C58.79,86.14,64.72,81.75,68,79.5"/></g><g id="kvg:079d5-g6" kvg:element="&#21269;" kvg:position="right"><path id="kvg:079d5-s8" kvg:type="&#12754;" d="M95.56,33.44c0.23,0.78,0.29,2.57-0.8,3.46c-6.26,5.11-11,8.84-17.98,13.1"/><path id="kvg:079d5-s9" kvg:type="&#12767;" d="M73.79,16.5c0.74,1.23,1.38,3.2,1.38,4.76c0,4.1-0.81,49.02-0.81,53.84c0,15.39,0.13,17.39,10.56,17.39c11.3,0,11.02-4.71,11.02-13.15"/></g></g></g></g></svg>