<svg xmlns="http://www.w3.org/2000/svg" width="109" height="109" viewBox="0 0 109 109"><g xmlns:kvg="http://kanjivg.tagaini.net" id="kvg:StrokePaths_079e6" style="fill:none;stroke:#000000;stroke-width:3;stroke-linecap:round;stroke-linejoin:round;"><g id="kvg:079e6" kvg:element="&#31206;"><g id="kvg:079e6-g1" kvg:position="top"><g id="kvg:079e6-g2" kvg:element="&#19977;"><g id="kvg:079e6-g3" kvg:element="&#19968;" kvg:position="top"><path id="kvg:079e6-s1" kvg:type="&#12752;" d="M29.23,22.37c2.32,0.74,5.18,0.47,7.54,0.21c10.73-1.2,24.29-1.91,35.86-2.48c2.38-0.12,4.7-0.25,7.05,0.2"/></g><g id="kvg:079e6-g4" kvg:position="bottom"><g id="kvg:079e6-g5" kvg:element="&#19968;"><path id="kvg:079e6-s2" kvg:type="&#12752;" d="M30.2,34.49c3.18,0.76,6.21,0.39,8.94,0.21c9.4-0.64,19.79-1.81,30.12-2.53c2.54-0.18,4.95-0.4,7.44,0.24"/></g><g id="kvg:079e6-g6" kvg:element="&#22823;" kvg:part="1"><g id="kvg:079e6-g7" kvg:element="&#19968;"><path id="kvg:079e6-s3" kvg:type="&#12752;" d="M14.53,48.46c3.27,1.2,7.26,0.58,10.62,0.33c16.07-1.2,39.35-3.53,58.61-3.95c3.62-0.08,7.28-0.23,10.84,0.55"/></g></g></g></g><g id="kvg:079e6-g8" kvg:element="&#22823;" kvg:part="2"><g id="kvg:079e6-g9" kvg:element="&#20154;"><path id="kvg:079e6-s4" kvg:type="&#12754;" d="M54.91,10c0.49,1.4,0.5,2.64,0.02,4.84C50.62,34.62,38,59.25,14.26,75.39"/><path id="kvg:079e6-s5" kvg:type="&#12751;" d="M58.23,39.16c4.53,5.04,19.51,18.83,27.6,26.03c2.18,1.94,4.8,3.81,9.16,5.86"/></g></g></g><g id="kvg:079e6-g10" kvg:element="&#31166;" kvg:position="bottom" kvg:radical="general"><g id="kvg:079e6-g11" kvg:element="&#20031;" kvg:position="top"><path id="kvg:079e6-s6" kvg:type="&#12754;" d="M62.89,52.92c-0.39,1.21-1.5,2.1-2.39,2.58c-5.12,2.75-12.44,5.89-24.27,8.49"/></g><g id="kvg:079e6-g12" kvg:element="&#26408;" kvg:position="bottom"><path id="kvg:079e6-s7" kvg:type="&#12752;" d="M29.15,71.61c2.38,0.71,4.82,0.46,7.26,0.26c7.73-0.62,22.57-1.89,32.73-2.43c2.5-0.13,4.93-0.23,7.4,0.22"/><path id="kvg:079e6-s8" kvg:type="&#12753;" d="M52.56,62c0.84,0.84,0.84,2,0.84,3.04c0,0.39-0.02,19.36-0.02,29.33c0,2.62,0,4.62,0,5.5"/><path id="kvg:079e6-s9" kvg:type="&#12754;" d="M50.47,71.48c0,0.9-0.59,2-1.72,3.38c-6.3,7.7-14.34,14.6-24.62,19.92"/><path id="kvg:079e6-s10" kvg:type="&#12751;" d="M56.5,76.92c7.13,2.33,19.79,11.57,23.84,17"/></g></g></g></g></svg>