<svg xmlns="http://www.w3.org/2000/svg" width="109" height="109" viewBox="0 0 109 109"><g xmlns:kvg="http://kanjivg.tagaini.net" id="kvg:StrokePaths_07a0d" style="fill:none;stroke:#000000;stroke-width:3;stroke-linecap:round;stroke-linejoin:round;"><g id="kvg:07a0d" kvg:element="&#31245;"><g id="kvg:07a0d-g1" kvg:element="&#31166;" kvg:position="left" kvg:radical="general"><g id="kvg:07a0d-g2" kvg:element="&#20031;" kvg:position="top"><path id="kvg:07a0d-s1" kvg:type="&#12754;" d="M40.17,17.41c0.07,0.27,0.15,0.7-0.14,1.1C38.31,20.82,28.47,25.89,15,29"/></g><g id="kvg:07a0d-g3" kvg:element="&#26408;" kvg:position="bottom"><path id="kvg:07a0d-s2" kvg:type="&#12752;" d="M9.23,45.27c0.52,0.14,1.93,0.38,3.32,0.43c3.85,0.14,20.7-2.15,30.32-2.86c1.4-0.1,1.75-0.14,2.62,0"/><path id="kvg:07a0d-s3" kvg:type="&#12753;" d="M32.83,25.91c0.37,0.45,0.58,2.02,0.66,2.92c0.07,0.9,0,63.8-0.07,69.42"/><path id="kvg:07a0d-s4" kvg:type="&#12754;" d="M33.43,45.72c-4.6,11.4-12.27,25.46-22.68,34.78"/><path id="kvg:07a0d-s5" kvg:type="&#12756;/&#12751;" d="M35,50c5.14,2.74,9.48,8.22,12.25,11.75"/></g></g><g id="kvg:07a0d-g4" kvg:element="&#32918;" kvg:variant="true" kvg:position="right"><g id="kvg:07a0d-g5" kvg:element="&#11916;" kvg:variant="true" kvg:original="&#23567;" kvg:position="top"><path id="kvg:07a0d-s6" kvg:type="&#12753;" d="M71.49,12.5c0.12,0.38,1.67,1.95,1.67,4.34c0,8.16,0.09,20.01,0.09,23.91"/><path id="kvg:07a0d-s7" kvg:type="&#12754;" d="M62.25,21.75c0.04,0.45,0.08,1.17-0.08,1.83c-0.94,3.86-5.51,9.92-10.67,14.17"/><path id="kvg:07a0d-s8" kvg:type="&#12756;" d="M83.25,19.25c5.27,2.62,11.93,8.93,13.25,13"/></g><g id="kvg:07a0d-g6" kvg:element="&#26376;" kvg:position="bottom"><path id="kvg:07a0d-s9" kvg:type="&#12754;" d="M55.73,40.98c0.87,0.96,1.44,1.92,1.73,2.88c0.29,0.96,0.41,52.29,0.29,54.45"/><path id="kvg:07a0d-s10" kvg:type="&#12742;a" d="M57.99,42.48c2.64-0.24,26.38-2.28,28.34-2.54c3.52-0.48,4.39,3.01,4.39,4.52c0,10.26-0.66,27.64-0.66,46.9c0,11.54-5.93,2.65-7.91,0.98"/><path id="kvg:07a0d-s11" kvg:type="&#12752;a" d="M57.99,58.62c9.04-1.18,23.82-1.78,31.76-2.37"/><path id="kvg:07a0d-s12" kvg:type="&#12752;a" d="M58.83,73.25C65.47,72.44,82.32,71.54,90,71"/></g></g></g></g></svg>