<svg xmlns="http://www.w3.org/2000/svg" width="109" height="109" viewBox="0 0 109 109"><g xmlns:kvg="http://kanjivg.tagaini.net" id="kvg:StrokePaths_07a20" style="fill:none;stroke:#000000;stroke-width:3;stroke-linecap:round;stroke-linejoin:round;"><g id="kvg:07a20" kvg:element="&#31264;"><g id="kvg:07a20-g1" kvg:element="&#31166;" kvg:position="left" kvg:radical="general"><g id="kvg:07a20-g2" kvg:element="&#20031;" kvg:position="top"><path id="kvg:07a20-s1" kvg:type="&#12754;" d="M37.75,15.25c0.07,0.34,0.16,0.87-0.15,1.35c-1.8,2.84-12.17,9.08-26.35,12.9"/></g><g id="kvg:07a20-g3" kvg:element="&#26408;" kvg:position="bottom"><path id="kvg:07a20-s2" kvg:type="&#12752;" d="M9.87,43.47c0.51,0.12,1.88,0.38,3.25,0.36c6.88-0.08,17.63-1.82,27.04-2.43c1.36-0.09,1.71-0.12,2.57,0"/><path id="kvg:07a20-s3" kvg:type="&#12753;" d="M28.7,26.5c0.5,0.46,0.8,2.05,0.9,2.96c0.1,0.91,0,63.09-0.1,68.79"/><path id="kvg:07a20-s4" kvg:type="&#12754;" d="M29.5,44.75C25.5,55.97,18.81,69.82,9.75,79"/><path id="kvg:07a20-s5" kvg:type="&#12756;/&#12751;" d="M31.75,51.75c4.3,2.74,7.94,8.22,10.25,11.75"/></g></g><g id="kvg:07a20-g4" kvg:element="&#21608;" kvg:variant="true" kvg:position="right"><g id="kvg:07a20-g5" kvg:element="&#20866;" kvg:variant="true"><path id="kvg:07a20-s6" kvg:type="&#12754;/&#12753;" d="M48.3,17.32c0.65,1.25,1.5,3.19,1.5,5.45c0,3.49,0.01,6.73,0.01,23.17c0,18.39-0.48,42.12-12.32,50.31"/><path id="kvg:07a20-s7" kvg:type="&#12742;a" d="M49.66,19.71C55.69,18.77,89.38,16,90.59,16c2.24,0,3.5,2.25,3.5,4.48c0,2.36-0.34,62.27-0.34,67.69c0,8.48-1.65,8.58-6.72,2.84"/></g><g id="kvg:07a20-g6" kvg:element="&#21513;" kvg:variant="true"><g id="kvg:07a20-g7" kvg:element="&#22763;" kvg:variant="true"><path id="kvg:07a20-s8" kvg:type="&#12752;" d="M56.81,33.72c0.96,0.37,2.71,0.26,3.67,0.22c5.18-0.19,16.43-1.77,20.26-1.94c1.6-0.07,2.56,0.06,3.35,0.23"/><path id="kvg:07a20-s9" kvg:type="&#12752;" d="M55.31,47.4c1,0.19,2.83,0.19,3.83,0.1c5.46-0.5,18.62-1.75,25.14-1.9c1.66-0.04,2.66,0.02,3.49,0.1"/><path id="kvg:07a20-s10" kvg:type="&#12753;" d="M68.8,22.64c0.62,0.33,0.99,1.61,1.11,2.34c0.12,0.74,0.01,25.14-0.11,29.8"/></g><g id="kvg:07a20-g8" kvg:element="&#21475;"><path id="kvg:07a20-s11" kvg:type="&#12753;" d="M57.94,60.5c0.26,0.33,0.51,0.6,0.63,1.02c0.88,3.27,1.93,14.12,2.53,19.99"/><path id="kvg:07a20-s12" kvg:type="&#12757;b" d="M59.55,61.94c7.2-0.69,17.83-2.34,20.65-2.52c1.03-0.06,1.57,1.88,1.39,2.86c-0.76,4.07-1.33,9.54-2.86,15.36"/><path id="kvg:07a20-s13" kvg:type="&#12752;b" d="M61.14,79.29c4.91-0.58,16.23-1.57,19.86-1.67"/></g></g></g></g></g></svg>