<svg xmlns="http://www.w3.org/2000/svg" width="109" height="109" viewBox="0 0 109 109"><g xmlns:kvg="http://kanjivg.tagaini.net" id="kvg:StrokePaths_07a2e" style="fill:none;stroke:#000000;stroke-width:3;stroke-linecap:round;stroke-linejoin:round;"><g id="kvg:07a2e" kvg:element="&#31278;"><g id="kvg:07a2e-g1" kvg:element="&#31166;" kvg:position="left" kvg:radical="general"><g id="kvg:07a2e-g2" kvg:element="&#20031;" kvg:position="top"><path id="kvg:07a2e-s1" kvg:type="&#12754;" d="M38.5,14.88c0.18,0.82-0.34,1.79-0.91,2.32C34.58,19.95,27.13,23.54,15,27.75"/></g><g id="kvg:07a2e-g3" kvg:element="&#26408;" kvg:position="bottom"><path id="kvg:07a2e-s2" kvg:type="&#12752;" d="M10.99,41.6c1.84,0.4,4.17,0.37,6.04,0.2c6.32-0.58,18.3-2.14,23.98-2.97c1.03-0.15,2.32-0.21,2.97,0"/><path id="kvg:07a2e-s3" kvg:type="&#12753;" d="M30.08,24.16c1.01,1.01,1.41,2.47,1.41,3.94c0,0.67,0,41.86-0.04,60.15c-0.01,4.26-0.02,7.27-0.03,8.25"/><path id="kvg:07a2e-s4" kvg:type="&#12754;" d="M30.18,41.47c0,1.41-0.42,2.71-0.79,3.58C25.05,55.32,17.72,67.09,10,75.5"/><path id="kvg:07a2e-s5" kvg:type="&#12756;/&#12751;" d="M34,46.5c3.98,2.62,7.35,7.88,9.5,11.25"/></g></g><g id="kvg:07a2e-g4" kvg:element="&#37325;" kvg:position="right" kvg:phon="&#37325;"><g id="kvg:07a2e-g5" kvg:element="&#21315;" kvg:part="1"><g id="kvg:07a2e-g6" kvg:element="&#20031;"><path id="kvg:07a2e-s6" kvg:type="&#12754;" d="M80.12,13.62c-0.06,1.07-0.54,1.81-1.29,2.31c-3.48,2.33-11.91,6.51-26.81,9.59"/></g><g id="kvg:07a2e-g7" kvg:element="&#21313;" kvg:part="1"><path id="kvg:07a2e-s7" kvg:type="&#12752;" d="M46.42,33.74c2.58,0.51,4.98,0.37,7.44,0.09c9.02-1.01,25.15-2.69,34.41-3.52c2.42-0.22,4.59-0.31,6.98,0.17"/></g></g><g id="kvg:07a2e-g8" kvg:element="&#37324;"><path id="kvg:07a2e-s8" kvg:type="&#12753;" d="M49.85,43.81c0.85,0.85,1.52,2.06,1.7,3.25c0.56,3.87,1.5,10.58,2.47,18.29c0.16,1.31,0.33,2.64,0.49,4"/><path id="kvg:07a2e-s9" kvg:type="&#12757;a" d="M52.43,45.45c11.42-1.5,25.46-3.16,33.2-3.89c3.65-0.34,5.25,0.45,4.77,4.08c-0.51,3.93-1.4,10.01-2.5,15.73c-0.28,1.46-0.57,2.89-0.88,4.26"/><path id="kvg:07a2e-s10" kvg:type="&#12752;a" d="M53.64,55.96C62,54.75,80.62,53,88.19,52.89"/><path id="kvg:07a2e-s11" kvg:type="&#12752;a" d="M55.41,66.9c10.63-1.4,20.94-2.19,30.88-2.61"/><g id="kvg:07a2e-g9" kvg:element="&#21315;" kvg:part="2"><g id="kvg:07a2e-g10" kvg:element="&#21313;" kvg:part="2"><path id="kvg:07a2e-s12" kvg:type="&#12753;a" d="M68.9,23.36c0.74,0.74,1.18,2.01,1.18,3.34c0,1.03-0.19,55.79-0.19,64.76"/></g></g><path id="kvg:07a2e-s13" kvg:type="&#12752;" d="M51.27,78.88c2.23,0.49,3.94,0.48,5.75,0.25c7.93-1.01,18.91-1.96,26.35-2.6c1.8-0.16,3.42-0.4,5.17,0.16"/><path id="kvg:07a2e-s14" kvg:type="&#12752;" d="M43.48,93.62c3.64,0.76,6.16,0.52,9.03,0.3c11.87-0.89,23.55-2.15,36.36-2.52c2.98-0.09,5.88-0.25,8.78,0.49"/></g></g></g></g></svg>