<svg xmlns="http://www.w3.org/2000/svg" width="109" height="109" viewBox="0 0 109 109"><g xmlns:kvg="http://kanjivg.tagaini.net" id="kvg:StrokePaths_07a3e" style="fill:none;stroke:#000000;stroke-width:3;stroke-linecap:round;stroke-linejoin:round;"><g id="kvg:07a3e" kvg:element="&#31294;"><g id="kvg:07a3e-g1" kvg:element="&#39640;" kvg:position="top"><g id="kvg:07a3e-g2" kvg:position="top"><g id="kvg:07a3e-g3" kvg:element="&#20128;"><path id="kvg:07a3e-s1" kvg:type="&#12753;a" d="M52.62,7.75c0.89,0.43,2.35,2.07,2.35,2.92c0,3.12-0.28,4.21-0.12,6.85"/><path id="kvg:07a3e-s2" kvg:type="&#12752;" d="M23.07,19.28c1.2,0.07,3.93,0.48,5.09,0.38c9.4-0.8,41.93-4.1,54.69-4.31c1.97-0.03,2.98,0.03,4.45,0.49"/></g><g id="kvg:07a3e-g4" kvg:element="&#21475;"><path id="kvg:07a3e-s3" kvg:type="&#12753;" d="M37.98,26.25c0.48,0.19,0.98,0.35,1.19,0.58c1.67,1.88,1.9,7.05,3.04,10.42"/><path id="kvg:07a3e-s4" kvg:type="&#12757;b" d="M40.23,26.58c9.96-1,21.19-2.11,26.89-2.36c2.08-0.09,2.34,1.15,2.04,1.69c-1.24,2.24-0.78,3.75-2.62,6.86"/><path id="kvg:07a3e-s5" kvg:type="&#12752;b" d="M43,35.7c5.66-0.31,16.98-1.51,24.75-1.99"/></g></g><g id="kvg:07a3e-g5" kvg:position="bottom"><g id="kvg:07a3e-g6" kvg:element="&#20866;"><path id="kvg:07a3e-s6" kvg:type="&#12753;" d="M24.06,42.51c0.71,0.77,1.71,1.69,1.94,3.08c0.53,3.23,2.76,14,3.5,18.92"/><path id="kvg:07a3e-s7" kvg:type="&#12742;a" d="M25.65,44.14c9.34-0.29,55.18-4.56,56.9-4.74c4.25-0.43,5.31,2.07,4.4,5.96c-1.25,5.34-1.7,9.15-3.7,14.38c-1.62,4.25-4,2.02-6-0.73"/></g><g id="kvg:07a3e-g7" kvg:element="&#21475;"><path id="kvg:07a3e-s8" kvg:type="&#12753;" d="M41.52,48.5c0.32,0.17,0.64,0.31,0.78,0.52c1.1,1.67,2.42,6.27,3.18,9.27"/><path id="kvg:07a3e-s9" kvg:type="&#12757;b" d="M44.06,49.06c7.17-0.91,15.01-1.82,19.1-2.15c1.66-0.13,2.77,0.72,2.61,1.56c-0.4,2.1-1.43,3.44-2.75,6.26"/><path id="kvg:07a3e-s10" kvg:type="&#12752;b" d="M46.41,56.67c4.83-0.27,11.48-1.25,18.11-1.67"/></g></g></g><g id="kvg:07a3e-g8" kvg:element="&#31166;" kvg:position="bottom" kvg:radical="tradit"><g id="kvg:07a3e-g9" kvg:element="&#20031;" kvg:position="top"><path id="kvg:07a3e-s11" kvg:type="&#12754;" d="M69.75,60.75c0.11,0.21,0.23,0.55-0.22,0.85c-2.71,1.8-18.25,5.74-39.52,8.15"/></g><g id="kvg:07a3e-g10" kvg:element="&#26408;" kvg:position="bottom"><path id="kvg:07a3e-s12" kvg:type="&#12752;" d="M18.1,77.34c0.75,0.24,3.75,0.87,5.74,0.71c8.99-0.71,47.68-3.59,62.91-4.24c1.99-0.09,4.49,0.28,5.74,0.52"/><path id="kvg:07a3e-s13" kvg:type="&#12753;" d="M53.52,68.25c0.8,0.56,1.28,2.5,1.44,3.61c0.16,1.11,0,21.96-0.16,28.89"/><path id="kvg:07a3e-s14" kvg:type="&#12754;" d="M52.15,78.09C45.23,85.11,33.19,95.37,18,99.5"/><path id="kvg:07a3e-s15" kvg:type="&#12751;" d="M55.54,77.96c4.6,2.72,25.62,15.57,30.62,18.24c1.69,0.91,3.14,1.29,4.84,1.55"/></g></g></g></g></svg>