<svg xmlns="http://www.w3.org/2000/svg" width="109" height="109" viewBox="0 0 109 109"><g xmlns:kvg="http://kanjivg.tagaini.net" id="kvg:StrokePaths_07a46" style="fill:none;stroke:#000000;stroke-width:3;stroke-linecap:round;stroke-linejoin:round;"><g id="kvg:07a46" kvg:element="&#31302;"><g id="kvg:07a46-g1" kvg:element="&#31166;" kvg:position="left" kvg:radical="general"><g id="kvg:07a46-g2" kvg:element="&#20031;" kvg:position="top"><path id="kvg:07a46-s1" kvg:type="&#12754;" d="M39.25,15.25c0.07,0.34-0.22,1.48-0.64,1.85c-3.61,3.15-9.86,7.65-23.36,12.4"/></g><g id="kvg:07a46-g3" kvg:element="&#26408;" kvg:position="bottom"><path id="kvg:07a46-s2" kvg:type="&#12752;" d="M10.37,44.29c0.36,0.24,1.31,0.62,2.26,0.7c2.62,0.23,24.03-3.51,30.57-4.69c0.95-0.17,1.19-0.23,1.78,0"/><path id="kvg:07a46-s3" kvg:type="&#12753;" d="M31.8,25.41c0.4,0.45,0.64,2.04,0.72,2.95c0.08,0.91,0,64.24-0.08,69.9"/><path id="kvg:07a46-s4" kvg:type="&#12754;" d="M32.43,44.47C27.99,55.62,20.57,69.38,10.5,78.5"/><path id="kvg:07a46-s5" kvg:type="&#12756;/&#12751;" d="M34.75,48.5c3.67,2.98,6.77,8.92,8.75,12.75"/></g></g><g id="kvg:07a46-g4" kvg:position="right"><g id="kvg:07a46-g5" kvg:position="top"><path id="kvg:07a46-s6" kvg:type="&#12756;" d="M67.84,10.77c0.23,0.34,0.29,0.78,0.25,1.1c-0.22,1.88-2.65,6.51-4.93,9.18"/></g><g id="kvg:07a46-g6" kvg:element="&#26085;" kvg:position="bottom"><path id="kvg:07a46-s7" kvg:type="&#12753;" d="M50.31,22.9c0.56,0.42,1.14,1.52,1.29,2.11c1.15,4.49,2.85,14.15,3.05,15.6"/><path id="kvg:07a46-s8" kvg:type="&#12757;a" d="M52.39,23.79c3.01-0.24,30.19-3.31,32.94-3.55c2.29-0.2,3.5,1.69,3.2,3.28c-0.86,4.56-1.03,8.48-3.12,14.54"/><path id="kvg:07a46-s9" kvg:type="&#12752;a" d="M53.35,31.38c4.08-0.22,29.41-2.7,34.03-2.95"/><path id="kvg:07a46-s10" kvg:type="&#12752;a" d="M55.49,38.86c9.48-0.57,21.06-1.8,30.58-2.18"/></g><g id="kvg:07a46-g7" kvg:element="&#23567;"><path id="kvg:07a46-s11" kvg:type="&#12762;" d="M69.13,40.78c0.05,0.18,1.48,0.94,1.52,2.09c0.23,5.52-0.15,13.21-0.15,15.08"/><path id="kvg:07a46-s12" kvg:type="&#12754;" d="M59.41,47.18c0.02,0.29,0.13,0.8-0.05,1.15c-1.22,2.37-3.74,6.94-9.02,11.02"/><path id="kvg:07a46-s13" kvg:type="&#12756;" d="M82.99,44.31c4.11,1.78,10.62,7.31,11.65,10.07"/></g><g id="kvg:07a46-g8" kvg:element="&#24417;"><g id="kvg:07a46-g9" kvg:element="&#20031;"><path id="kvg:07a46-s14" kvg:type="&#12754;" d="M84.25,54.75c0.1,0.47-0.05,1.87-0.7,2.39c-5.06,4.11-13.81,11.11-33.58,16.91"/></g><g id="kvg:07a46-g10" kvg:element="&#20031;"><path id="kvg:07a46-s15" kvg:type="&#12754;" d="M87.46,66.61c0.12,0.49-0.08,1.83-0.73,2.45C82.25,73.32,68.75,82,52.19,87.21"/></g><g id="kvg:07a46-g11" kvg:element="&#20031;"><path id="kvg:07a46-s16" kvg:type="&#12754;" d="M91.78,79c0.12,0.5,0.25,1.29-0.23,2.02c-2.89,4.24-19.5,13.54-42.23,19.24"/></g></g></g></g></g></svg>