<svg xmlns="http://www.w3.org/2000/svg" width="109" height="109" viewBox="0 0 109 109"><g xmlns:kvg="http://kanjivg.tagaini.net" id="kvg:StrokePaths_07a74" style="fill:none;stroke:#000000;stroke-width:3;stroke-linecap:round;stroke-linejoin:round;"><g id="kvg:07a74" kvg:element="&#31348;" kvg:radical="general"><g id="kvg:07a74-g1" kvg:element="&#23424;" kvg:position="top"><path id="kvg:07a74-s1" kvg:type="&#12753;a" d="M50.97,15.25c1.08,1.08,1.62,2.75,1.62,4.39c0,3.36-0.09,5.86-0.09,8.92"/><g id="kvg:07a74-g2" kvg:element="&#20886;"><path id="kvg:07a74-s2" kvg:type="&#12756;" d="M20.75,29.62c0,4.61-2.92,17.3-4.25,20.38"/><path id="kvg:07a74-s3" kvg:type="&#12758;b" d="M21,33.75C40.38,31,67.62,27.25,83.75,27c12.75-0.2,3.25,7,0.5,9.25"/></g></g><g id="kvg:07a74-g3" kvg:element="&#20843;" kvg:position="bottom"><path id="kvg:07a74-s4" kvg:type="&#12754;" d="M39.72,56.24c0.28,1.26,0,2.66-0.68,3.84C34,68.75,23,83,16,89.47"/><path id="kvg:07a74-s5" kvg:type="&#12751;" d="M52,44.5c9.25,1.25,12.25,20,30.87,40.12c3.2,3.46,4.88,5.12,8.13,7.12"/></g></g></g></svg>