<svg xmlns="http://www.w3.org/2000/svg" width="109" height="109" viewBox="0 0 109 109"><g xmlns:kvg="http://kanjivg.tagaini.net" id="kvg:StrokePaths_07a84" style="fill:none;stroke:#000000;stroke-width:3;stroke-linecap:round;stroke-linejoin:round;"><g id="kvg:07a84" kvg:element="&#31364;"><g id="kvg:07a84-g1" kvg:element="&#31348;" kvg:variant="true" kvg:position="top" kvg:radical="general"><g id="kvg:07a84-g2" kvg:element="&#23424;" kvg:position="top"><path id="kvg:07a84-s1" kvg:type="&#12753;a" d="M52.51,10.25c1.06,1.06,1.33,2.5,1.33,3.7c0,3.05-0.09,5.24-0.09,8.02"/><g id="kvg:07a84-g3" kvg:element="&#20886;"><path id="kvg:07a84-s2" kvg:type="&#12756;" d="M19.93,25.26c0,4.3-3.05,16.12-4.44,18.99"/><path id="kvg:07a84-s3" kvg:type="&#12758;b" d="M20.82,26.9c21.06-2.53,39.06-4.78,65.03-5.84c12.8-0.52,2.71,6.86-0.48,8.88"/></g></g><g id="kvg:07a84-g4" kvg:element="&#20843;" kvg:variant="true" kvg:position="bottom"><path id="kvg:07a84-s4" kvg:type="&#12754;" d="M41.77,30.5c0.13,1.06-0.33,2.04-0.89,2.94c-3,4.06-7.1,8.05-15.46,14.48"/><path id="kvg:07a84-s5" kvg:type="&#12767;/&#12751;" d="M60.74,25.37c0.7,0.7,0.76,1.5,0.76,2.52c0,2.82-0.12,4.45-0.12,6.36c0,3.62,2.38,5.31,13,5.31c6.81,0,11.3-0.83,12.26-1.15"/></g></g><g id="kvg:07a84-g5" kvg:element="&#20045;" kvg:position="bottom"><g id="kvg:07a84-g6" kvg:element="&#20031;"><path id="kvg:07a84-s6" kvg:type="&#12754;" d="M46.6,40.25c0.08,0.74-0.1,2.02-0.65,2.98c-4.7,8.15-14.08,20.02-27.11,28.49"/></g><path id="kvg:07a84-s7" kvg:type="&#12752;" d="M42.82,53.39c2.56,0.45,5.12,0.22,7.69-0.19c10.59-0.94,24-2.85,33.25-3.97c2.96-0.46,5.93-0.66,8.92-0.61"/><path id="kvg:07a84-s8" kvg:type="&#12753;" d="M52.69,56.36c0.92,0.92,1.04,2.02,1.04,3.22c0,0.7-0.06,19.59-0.08,31.68c-0.01,4.02-0.02,7.28-0.02,8.88"/><path id="kvg:07a84-s9" kvg:type="&#12752;b" d="M56.51,65.71c7.74-0.96,13.12-1.71,23.18-2.88c1.76-0.21,3.5-0.24,5.24,0.02"/><path id="kvg:07a84-s10" kvg:type="&#12752;b" d="M55.82,78.68C62.62,77.87,71.25,77,80.88,76c2.08-0.22,4.11-0.48,6.16-0.19"/></g></g></g></svg>