<svg xmlns="http://www.w3.org/2000/svg" width="109" height="109" viewBox="0 0 109 109"><g xmlns:kvg="http://kanjivg.tagaini.net" id="kvg:StrokePaths_07a95" style="fill:none;stroke:#000000;stroke-width:3;stroke-linecap:round;stroke-linejoin:round;"><g id="kvg:07a95" kvg:element="&#31381;"><g id="kvg:07a95-g1" kvg:element="&#31348;" kvg:variant="true" kvg:position="top" kvg:radical="general"><g id="kvg:07a95-g2" kvg:element="&#23424;" kvg:position="top"><path id="kvg:07a95-s1" kvg:type="&#12753;a" d="M52.48,10.75c0.99,0.34,2.4,1.98,2.38,2.95c-0.07,3.05-0.07,6.74-0.08,9.52"/><g id="kvg:07a95-g3" kvg:element="&#20886;"><path id="kvg:07a95-s2" kvg:type="&#12756;" d="M18.75,23.75c0,3.96-3.01,14.86-4.38,17.5"/><path id="kvg:07a95-s3" kvg:type="&#12758;b" d="M19.37,27.05c12.8-1.81,58.5-5.04,67.84-4.94c12.09,0.13,2.56,6.33-0.45,8.05"/></g></g><g id="kvg:07a95-g4" kvg:element="&#20843;" kvg:variant="true" kvg:position="bottom"><path id="kvg:07a95-s4" kvg:type="&#12754;" d="M40.76,29c0.06,0.4,0.22,1.07-0.11,1.6c-3.05,4.92-9.46,10.59-19.42,15.32"/><path id="kvg:07a95-s5" kvg:type="&#12767;/&#12751;" d="M61.59,24.87c0.43,0.53,0.8,1.15,0.8,1.96c0,2.15-0.31,5.92-0.31,8.38c0,5.75,6.28,5.1,11.4,5.1c5.4,0,10.04-0.74,10.79-1.16"/></g></g><g id="kvg:07a95-g5" kvg:element="&#20806;" kvg:position="bottom"><g id="kvg:07a95-g6" kvg:element="&#20799;" kvg:part="1" kvg:position="left"><g id="kvg:07a95-g7" kvg:element="&#20031;"><path id="kvg:07a95-s6" kvg:type="&#12754;" d="M42.6,44c0.72,0.55,2.12,3.05,2.15,4c0.22,6.75-0.25,8.39-0.25,15c0,19.78-10.23,31.83-23.5,37.75"/></g><g id="kvg:07a95-g8" kvg:element="&#20907;"><g id="kvg:07a95-g9" kvg:position="top"><path id="kvg:07a95-s7" kvg:type="&#12756;" d="M21.5,52.25C26.26,54.23,33.8,60.41,35,63.5"/></g><g id="kvg:07a95-g10" kvg:position="bottom"><path id="kvg:07a95-s8" kvg:type="&#12736;" d="M16.5,79.25c1,1.25,3.31,0.96,4.48,0.38c1.61-0.81,12.7-6.99,19.02-10.88"/></g></g></g><g id="kvg:07a95-g11" kvg:position="right"><g id="kvg:07a95-g12" kvg:element="&#20799;" kvg:part="2"><path id="kvg:07a95-s9" kvg:type="&#12767;" d="M58.82,44.12c0.85,0.83,1.52,1.82,1.57,3.1c0.23,5.73-0.03,38.79-0.03,42.69c0,9.11,7.55,8,17.58,7.93c12.56-0.09,16.12-2.59,16.12-8.89"/></g><path id="kvg:07a95-s10" kvg:type="&#12754;" d="M81.5,49.25c0.04,0.31,0.08,0.81-0.08,1.25c-0.96,2.64-6.43,8.45-13.92,12"/><path id="kvg:07a95-s11" kvg:type="&#12756;" d="M67,69.25c5.12,2.43,13.22,9.98,14.5,13.75"/></g></g></g></g></svg>