<svg xmlns="http://www.w3.org/2000/svg" width="109" height="109" viewBox="0 0 109 109"><g xmlns:kvg="http://kanjivg.tagaini.net" id="kvg:StrokePaths_07a96" style="fill:none;stroke:#000000;stroke-width:3;stroke-linecap:round;stroke-linejoin:round;"><g id="kvg:07a96" kvg:element="&#31382;"><g id="kvg:07a96-g1" kvg:element="&#31348;" kvg:variant="true" kvg:position="top" kvg:radical="general"><g id="kvg:07a96-g2" kvg:element="&#23424;" kvg:position="top"><path id="kvg:07a96-s1" kvg:type="&#12753;a" d="M51.98,10.25c0.99,0.34,2.4,1.98,2.38,2.95c-0.07,3.05-0.07,4.24-0.08,7.02"/><g id="kvg:07a96-g3" kvg:element="&#20886;"><path id="kvg:07a96-s2" kvg:type="&#12756;" d="M19.18,20.51c0,3.68-3.33,13.79-4.84,16.24"/><path id="kvg:07a96-s3" kvg:type="&#12758;b" d="M18.87,23.24c12.8-1.99,61.5-3.99,70.84-3.88c12.09,0.14,2.56,6.41-0.45,8.3"/></g></g><g id="kvg:07a96-g4" kvg:element="&#20843;" kvg:variant="true" kvg:position="bottom"><path id="kvg:07a96-s4" kvg:type="&#12754;" d="M43.68,25.5c0.06,0.43,0.25,1.15-0.13,1.73c-3.51,5.31-10.87,11.42-22.31,16.52"/><path id="kvg:07a96-s5" kvg:type="&#12767;/&#12751;" d="M62.59,22.87c0.41,0.51,0.77,1.11,0.77,1.89c0,2.08-0.29,5.73-0.29,8.11c0,5.56,6,4.93,10.9,4.93c5.17,0,9.59-0.72,10.32-1.12"/></g></g><g id="kvg:07a96-g5" kvg:element="&#21578;" kvg:position="bottom"><g id="kvg:07a96-g6" kvg:element="&#29275;" kvg:position="top"><path id="kvg:07a96-s6" kvg:type="&#12754;" d="M39.26,41.25c0.04,0.47,0.09,1.22-0.08,1.89c-1.02,3.99-5.92,11.11-14.42,18.11"/><path id="kvg:07a96-s7" kvg:type="&#12752;" d="M37.63,51.85c0.88,0.26,3.75,0.32,4.63,0.26c10.76-0.73,24.63-2.21,34.52-2.44c1.46-0.03,2.34,0.13,3.07,0.26"/><path id="kvg:07a96-s8" kvg:type="&#12753;a" d="M16.12,67.65c1.54,0.11,4.36,0.03,5.9-0.06c15.99-0.87,41.38-2.47,65.47-3.66c2.56-0.13,4.1-0.08,5.39-0.04"/><path id="kvg:07a96-s9" kvg:type="&#12752;" d="M52.79,36.38c0.98,0.3,2.25,2.74,2.25,3.38c0,6.49-0.12,27.65-0.32,31.44"/></g><g id="kvg:07a96-g7" kvg:element="&#21475;" kvg:position="bottom"><path id="kvg:07a96-s10" kvg:type="&#12753;" d="M31.58,76.01c0.45,0.41,1.4,1.25,1.6,1.76c1.54,4.04,3.02,14.48,4.07,21.73"/><path id="kvg:07a96-s11" kvg:type="&#12757;b" d="M35,77.88c12.36-0.69,35.41-1.62,41.23-2.04c2.13-0.15,3.41,1.55,3.1,2.46c-1.26,3.75-3.33,10.46-5.58,17.46"/><path id="kvg:07a96-s12" kvg:type="&#12752;b" d="M37.85,97.19c10.9-0.55,31.68-1.14,39.5-1.65"/></g></g></g></g></svg>