<svg xmlns="http://www.w3.org/2000/svg" width="109" height="109" viewBox="0 0 109 109"><g xmlns:kvg="http://kanjivg.tagaini.net" id="kvg:StrokePaths_07a97" style="fill:none;stroke:#000000;stroke-width:3;stroke-linecap:round;stroke-linejoin:round;"><g id="kvg:07a97" kvg:element="&#31383;"><g id="kvg:07a97-g1" kvg:element="&#31348;" kvg:variant="true" kvg:position="top" kvg:radical="general"><g id="kvg:07a97-g2" kvg:element="&#23424;" kvg:position="top"><path id="kvg:07a97-s1" kvg:type="&#12753;a" d="M51.48,9.25c0.99,0.34,2.4,1.98,2.38,2.95c-0.07,3.05-0.07,4.74-0.08,7.52"/><g id="kvg:07a97-g3" kvg:element="&#20886;"><path id="kvg:07a97-s2" kvg:type="&#12756;" d="M19,19.5c0,3.85-3.61,14.43-5.25,17"/><path id="kvg:07a97-s3" kvg:type="&#12758;b" d="M18.87,23.74c12.8-1.99,58.5-5.99,67.84-5.88c12.09,0.14,2.56,7.41-0.45,9.3"/></g></g><g id="kvg:07a97-g4" kvg:element="&#20843;" kvg:variant="true" kvg:position="bottom"><path id="kvg:07a97-s4" kvg:type="&#12754;" d="M42.26,25.25c0.06,0.39,0.23,1.04-0.11,1.56c-3.17,4.8-9.81,10.33-20.15,14.94"/><path id="kvg:07a97-s5" kvg:type="&#12767;/&#12751;" d="M63.09,22.37c0.44,0.51,0.81,1.11,0.81,1.89c0,2.08-0.31,5.73-0.31,8.11c0,5.56,6.34,4.93,11.52,4.93c5.46,0,10.15-0.72,10.91-1.12"/></g></g><g id="kvg:07a97-g5" kvg:position="bottom"><path id="kvg:07a97-s6" kvg:type="&#12754;" d="M52.4,36.14c0.03,0.34,0.05,0.89-0.05,1.38c-0.63,2.91-4.23,9.29-9.15,13.19"/><path id="kvg:07a97-s7" kvg:type="&#12752;" d="M25,51.75c0.89,0.91,0.77,1.42,0.89,2.57c0.86,8.29,0.9,28.65,1.92,44.32"/><path id="kvg:07a97-s8" kvg:type="&#12757;" d="M26.52,53.91c13.68-1.77,44.54-3.89,53.87-4.17c3.86-0.11,4.87,2.07,4.6,4.69c-1,9.82-1.68,27.5-3.67,42.57"/><g id="kvg:07a97-g6" kvg:element="&#22805;"><path id="kvg:07a97-s9" kvg:type="&#12754;" d="M53.76,55.5c0.21,0.33,0.39,1.35,0.01,1.98C51.03,62,44.69,69.77,34.25,75"/><path id="kvg:07a97-s10" kvg:type="&#12743;" d="M53.75,61c1.1,0.22,2.79,1.19,3.62,1.11c4.13-0.36,8.86-0.49,12.52-1.44c2.63-0.68,3.77,0.76,2.77,2.03C63.75,74,52.25,83.75,34.04,92.25"/><path id="kvg:07a97-s11" kvg:type="&#12756;" d="M40.89,66.89c7.63,2.8,19.7,11.51,21.61,15.86"/></g><path id="kvg:07a97-s12" kvg:type="&#12752;" d="M27.97,96.32c10.28,0,39.11-1.3,53.3-1.58"/></g></g></g></svg>