<svg xmlns="http://www.w3.org/2000/svg" width="109" height="109" viewBox="0 0 109 109"><g xmlns:kvg="http://kanjivg.tagaini.net" id="kvg:StrokePaths_07acf" style="fill:none;stroke:#000000;stroke-width:3;stroke-linecap:round;stroke-linejoin:round;"><g id="kvg:07acf" kvg:element="&#31439;"><g id="kvg:07acf-g1" kvg:element="&#31435;" kvg:position="left" kvg:radical="general"><g id="kvg:07acf-g2" kvg:element="&#20128;" kvg:position="top"><path id="kvg:07acf-s1" kvg:type="&#12753;a" d="M25.99,14.75c1.21,1.14,1.84,2.66,1.84,3.84c0,2.69,0,10.65,0,17.96"/><path id="kvg:07acf-s2" kvg:type="&#12752;" d="M9.75,37.07c1.2,0.25,2.6,0.29,3.79,0.25c6.75-0.21,20.11-1.2,29.28-1.7C44.8,35.5,46,35.73,47,35.86"/></g><g id="kvg:07acf-g3" kvg:position="bottom"><path id="kvg:07acf-s3" kvg:type="&#12756;" d="M15.75,45.5c5.5,11.56,8,23.38,8.5,31"/><path id="kvg:07acf-s4" kvg:type="&#12754;" d="M39.56,41.94c1.07,1.34,0.6,4.13,0.38,5.19c-2.36,10.97-7.32,28.58-9.43,34.27"/><path id="kvg:07acf-s5" kvg:type="&#12736;/&#12752;" d="M11.5,90.47c1.05,1.32,3.41,1.29,4.45,0.77C27.43,85.51,36.82,80.22,47,75.5"/></g></g><g id="kvg:07acf-g4" kvg:element="&#21315;" kvg:position="right"><g id="kvg:07acf-g5" kvg:element="&#20031;" kvg:position="top"><path id="kvg:07acf-s6" kvg:type="&#12754;" d="M86.75,13.5c0.1,0.38-0.75,2.4-1.3,2.81C81.25,19.45,70.6,24.63,52,29"/></g><g id="kvg:07acf-g6" kvg:element="&#21313;" kvg:position="bottom"><path id="kvg:07acf-s7" kvg:type="&#12752;" d="M47.25,51.05c1.14,0.19,3.99,0.23,5.13,0.19c13.2-0.52,19.58-1.93,41.62-2.21c1.9-0.02,3.04,0.09,4,0.18"/><path id="kvg:07acf-s8" kvg:type="&#12753;" d="M71.19,26.75c0.36,0.51,1.12,3.79,1.19,4.8c0.07,1.01-0.05,61.13-0.12,67.45"/></g></g></g></g></svg>