<svg xmlns="http://www.w3.org/2000/svg" width="109" height="109" viewBox="0 0 109 109"><g xmlns:kvg="http://kanjivg.tagaini.net" id="kvg:StrokePaths_07acb" style="fill:none;stroke:#000000;stroke-width:3;stroke-linecap:round;stroke-linejoin:round;"><g id="kvg:07acb" kvg:element="&#31435;" kvg:radical="general"><g id="kvg:07acb-g1" kvg:element="&#20128;" kvg:position="top"><path id="kvg:07acb-s1" kvg:type="&#12753;a" d="M51.51,15c1.43,1.43,2.24,3.25,2.24,5.81c0,4.06,0,9.56,0,13.69"/><path id="kvg:07acb-s2" kvg:type="&#12752;" d="M22,37.86c2.62,0.51,4.75,0.34,7,0.16c11.38-0.9,36.13-3.4,50.65-4.26c2.38-0.14,4.86-0.01,6.86,0.4"/></g><g id="kvg:07acb-g2" kvg:position="bottom"><path id="kvg:07acb-s3" kvg:type="&#12756;" d="M32,49c4.75,9.75,8.25,22.5,9.5,31.5"/><path id="kvg:07acb-s4" kvg:type="&#12754;" d="M74,39c0.75,1.38,0.81,3.29,0.5,4.5c-2.88,11.12-8.5,30.38-12.75,42"/><path id="kvg:07acb-s5" kvg:type="&#12752;" d="M15.25,88.8c2.33,0.45,5.89,0.53,7.82,0.39c18.3-1.32,40.31-1.94,64.83-2.75c3.24-0.11,6.14,0.05,8.47,0.88"/></g></g></g></svg>