<svg xmlns="http://www.w3.org/2000/svg" width="109" height="109" viewBox="0 0 109 109"><g xmlns:kvg="http://kanjivg.tagaini.net" id="kvg:StrokePaths_07ad2" style="fill:none;stroke:#000000;stroke-width:3;stroke-linecap:round;stroke-linejoin:round;"><g id="kvg:07ad2" kvg:element="&#31442;"><g id="kvg:07ad2-g1" kvg:element="&#31435;" kvg:partial="true" kvg:position="top" kvg:radical="general"><g id="kvg:07ad2-g2" kvg:element="&#20128;" kvg:position="top"><path id="kvg:07ad2-s1" kvg:type="&#12753;a" d="M52.75,8.75c1,0.75,1.5,1.75,1.5,3.5s0,4.75,0,9.5"/><path id="kvg:07ad2-s2" kvg:type="&#12752;" d="M26,24.09c1.55,0.41,3.37,0.47,4.92,0.41c8.77-0.35,34.14-4.41,47.39-4.71c2.59-0.06,4.14,0.2,5.44,0.4"/></g><g id="kvg:07ad2-g3" kvg:position="bottom"><path id="kvg:07ad2-s3" kvg:type="&#12756;" d="M35.5,29.25c5.18,5.59,7.53,11.31,8,15"/><path id="kvg:07ad2-s4" kvg:type="&#12754;" d="M69.94,25c0.82,0.69,0.53,2.58,0.32,3.12c-1.77,4.63-6.12,13.37-7.77,16.38"/></g></g><g id="kvg:07ad2-g4" kvg:element="&#21487;" kvg:position="bottom"><g id="kvg:07ad2-g5" kvg:element="&#19969;" kvg:part="1"><g id="kvg:07ad2-g6" kvg:element="&#19968;"><path id="kvg:07ad2-s5" kvg:type="&#12752;" d="M14.25,51.21c2.06,0.47,4.48,0.65,6.52,0.47c22.43-2.03,40.79-5.02,66.77-5.98c3.43-0.13,5.49,0.22,7.21,0.46"/></g></g><g id="kvg:07ad2-g7" kvg:element="&#21475;"><path id="kvg:07ad2-s6" kvg:type="&#12753;" d="M31.25,63.81c0.28,0.33,0.57,0.61,0.7,1.03c0.98,3.3,2.99,12.24,3.66,18.17"/><path id="kvg:07ad2-s7" kvg:type="&#12757;b" d="M33.02,64.77c5.97-1.08,17.73-2.35,21.05-2.79c1.21-0.16,1.94,0.94,1.77,1.87c-0.72,3.85-1.4,8.7-2.46,14.03"/><path id="kvg:07ad2-s8" kvg:type="&#12752;b" d="M35.74,80.95c3.9-0.49,13.98-1.34,19.34-2.09"/></g><g id="kvg:07ad2-g8" kvg:element="&#19969;" kvg:part="2"><g id="kvg:07ad2-g9" kvg:element="&#20101;"><path id="kvg:07ad2-s9" kvg:type="&#12762;" d="M72.52,49.85C73.5,51,74.07,52.6,74.09,54c0.24,18.64,0.17,35.85,0.17,40.46c0,10.39-7.21,1.5-8.71,0.25"/></g></g></g></g></g></svg>