<svg xmlns="http://www.w3.org/2000/svg" width="109" height="109" viewBox="0 0 109 109"><g xmlns:kvg="http://kanjivg.tagaini.net" id="kvg:StrokePaths_07ae6" style="fill:none;stroke:#000000;stroke-width:3;stroke-linecap:round;stroke-linejoin:round;"><g id="kvg:07ae6" kvg:element="&#31462;"><g id="kvg:07ae6-g1" kvg:element="&#31435;" kvg:position="left" kvg:radical="general"><g id="kvg:07ae6-g2" kvg:element="&#20128;" kvg:position="top"><path id="kvg:07ae6-s1" kvg:type="&#12753;a" d="M23.04,16c0.77,0.95,1.17,2.21,1.17,3.2c0,2.24,0,11.27,0,17.35"/><path id="kvg:07ae6-s2" kvg:type="&#12752;" d="M7.78,38.38c1.03,0.27,2.24,0.28,3.26,0.21c5.78-0.41,17.21-1.88,25.07-2.68c1.7-0.17,2.74,0.07,3.6,0.19"/></g><g id="kvg:07ae6-g3" kvg:position="bottom"><path id="kvg:07ae6-s3" kvg:type="&#12756;" d="M12,47.9c5.5,10.76,7,22.26,7.5,29.35"/><path id="kvg:07ae6-s4" kvg:type="&#12754;" d="M33.22,44.5c0.85,1.24,0.48,3.84,0.3,4.83C31.64,59.55,27.68,75.95,26,81.25"/><path id="kvg:07ae6-s5" kvg:type="&#12736;/&#12752;" d="M9.5,89.74c0.95,1.3,3.07,1.27,4.01,0.76C23.86,84.86,32.32,79.64,41.5,75"/></g></g><g id="kvg:07ae6-g4" kvg:element="&#26463;" kvg:position="right"><g id="kvg:07ae6-g5" kvg:element="&#26408;" kvg:part="1"><path id="kvg:07ae6-s6" kvg:type="&#12752;" d="M45,25.83c1.13,0.19,3.2,0.28,4.32,0.18c10.93-1,28.29-3.33,38.46-3.55c1.88-0.04,3.01,0.08,3.95,0.17"/></g><g id="kvg:07ae6-g6" kvg:element="&#21475;"><path id="kvg:07ae6-s7" kvg:type="&#12753;" d="M46.24,37.45c0.32,0.4,0.64,0.74,0.78,1.24c1.1,3.99,3.47,15.88,4.22,23.06"/><path id="kvg:07ae6-s8" kvg:type="&#12757;b" d="M47.75,39.25c14.5-1.5,35.21-3.53,38.93-3.91c2.31-0.23,3.77,2.4,3.16,4.54c-1.64,5.74-2.53,11.44-3.83,15.83"/><path id="kvg:07ae6-s9" kvg:type="&#12752;b" d="M51.16,59.31c8.9-1.12,28.77-3.26,37.09-3.81"/></g><g id="kvg:07ae6-g7" kvg:element="&#26408;" kvg:part="2"><path id="kvg:07ae6-s10" kvg:type="&#12753;" d="M64.84,9.75c1.29,0.51,2.06,2.28,2.31,3.29c0.26,1.01,0,81.14-0.26,87.46"/><path id="kvg:07ae6-s11" kvg:type="&#12754;" d="M67.25,58.5C61.57,69.57,46.81,85.24,35,91.5"/><path id="kvg:07ae6-s12" kvg:type="&#12751;" d="M67.24,58.6c5.01,7.65,19.05,25.17,24.69,29.36c1.51,1.13,2.49,1.91,3.82,2.29"/></g></g></g></g></svg>