<svg xmlns="http://www.w3.org/2000/svg" width="109" height="109" viewBox="0 0 109 109"><g xmlns:kvg="http://kanjivg.tagaini.net" id="kvg:StrokePaths_07b0a" style="fill:none;stroke:#000000;stroke-width:3;stroke-linecap:round;stroke-linejoin:round;"><g id="kvg:07b0a" kvg:element="&#31498;"><g id="kvg:07b0a-g1" kvg:element="&#31481;" kvg:variant="true" kvg:position="top" kvg:radical="general"><g id="kvg:07b0a-g2" kvg:position="left"><path id="kvg:07b0a-s1" kvg:type="&#12754;" d="M27.75,12.5c0.04,0.51,0.08,1.32-0.07,2.06C26.81,18.9,21.82,28.42,15,34.25"/><path id="kvg:07b0a-s2" kvg:type="&#12752;b" d="M26.73,23.81c3.5,0,17.59-2.08,21.52-2.08"/><path id="kvg:07b0a-s3" kvg:type="&#12756;/&#12753;" d="M30.5,25c2.38,2.07,6.15,8.52,6.75,11.75"/></g><g id="kvg:07b0a-g3" kvg:position="right"><path id="kvg:07b0a-s4" kvg:type="&#12754;" d="M62.51,11.75c0.04,0.5,0.16,1.3-0.08,2.01C60.66,19.02,55.75,26.53,49.25,33"/><path id="kvg:07b0a-s5" kvg:type="&#12752;b" d="M60.49,23.31c4.33-0.01,23.04-4.12,27.89-4.13"/><path id="kvg:07b0a-s6" kvg:type="&#12754;/&#12762;" d="M70.77,26c0.02,0.24,0.05,0.61-0.05,0.95c-0.58,2-3.91,6.37-8.47,9.05"/></g></g><g id="kvg:07b0a-g4" kvg:element="&#29226;" kvg:position="bottom"><g id="kvg:07b0a-g5" kvg:element="&#20031;"><path id="kvg:07b0a-s7" kvg:type="&#12754;" d="M76.5,36.25c0.12,0.29-0.18,1.21-0.9,1.54c-8.92,4.07-22.1,8.18-45.34,11.46"/></g><path id="kvg:07b0a-s8" kvg:type="&#12754;" d="M27.26,47.58c0.48,0.59,1.42,1.61,1.35,3.28C27.94,67.09,26.38,88.16,12,97.5"/><path id="kvg:07b0a-s9" kvg:type="&#12753;" d="M49.62,52.82c0.88,0.68,1.93,2.41,1.93,3.29c0,4.49-0.27,34.86-0.27,42.14"/><path id="kvg:07b0a-s10" kvg:type="&#12751;" d="M63.5,49.75c1.5,0.25,2.73,1.08,3.75,2.75c7,11.5,12.98,26.6,23.65,39.11c1.64,1.92,3.98,2.85,5.35,3.42"/></g></g></g></svg>