<svg xmlns="http://www.w3.org/2000/svg" width="109" height="109" viewBox="0 0 109 109"><g xmlns:kvg="http://kanjivg.tagaini.net" id="kvg:StrokePaths_07b1e" style="fill:none;stroke:#000000;stroke-width:3;stroke-linecap:round;stroke-linejoin:round;"><g id="kvg:07b1e" kvg:element="&#31518;"><g id="kvg:07b1e-g1" kvg:element="&#31481;" kvg:variant="true" kvg:position="top" kvg:radical="general"><g id="kvg:07b1e-g2" kvg:position="left"><path id="kvg:07b1e-s1" kvg:type="&#12754;" d="M28.49,12c0.04,0.53,0.09,1.37-0.08,2.13c-1.02,4.49-6.89,14.34-14.91,20.37"/><path id="kvg:07b1e-s2" kvg:type="&#12752;b" d="M27.46,22.88c3.63,0,18.21-2.46,22.29-2.46"/><path id="kvg:07b1e-s3" kvg:type="&#12756;/&#12753;" d="M32.02,25.33c2.02,1.84,5.23,7.56,5.73,10.42"/></g><g id="kvg:07b1e-g3" kvg:position="right"><path id="kvg:07b1e-s4" kvg:type="&#12754;" d="M65.74,10c0.04,0.44,0.17,1.14-0.08,1.75c-1.91,4.58-7.18,11.12-14.16,16.75"/><path id="kvg:07b1e-s5" kvg:type="&#12752;b" d="M63.48,21.66c4.73,0,23.08-3.07,28.4-3.07"/><path id="kvg:07b1e-s6" kvg:type="&#12754;/&#12762;" d="M74.74,23.75c0.03,0.28,0.07,0.72-0.06,1.11c-0.77,2.34-5.16,7.49-11.18,10.64"/></g></g><g id="kvg:07b1e-g4" kvg:element="&#21488;" kvg:position="bottom"><g id="kvg:07b1e-g5" kvg:element="&#21430;" kvg:position="top"><path id="kvg:07b1e-s7" kvg:type="&#12764;" d="M50.18,35.5c0.07,1.5,0.1,3.52-1.17,4.87C42.5,47.25,37.75,52,28.27,59.87c-3.22,2.67-2.82,3.47,1.35,2.59c8.99-1.9,31.78-5.79,46.6-8.21"/><path id="kvg:07b1e-s8" kvg:type="&#12756;" d="M66.75,44c6.18,3.38,15.96,13.9,17.5,19.16"/></g><g id="kvg:07b1e-g6" kvg:element="&#21475;" kvg:position="bottom"><path id="kvg:07b1e-s9" kvg:type="&#12753;" d="M31.16,71.59c0.39,0.5,0.79,0.91,0.96,1.52c1.35,4.9,2.97,17.41,3.89,26.21"/><path id="kvg:07b1e-s10" kvg:type="&#12757;b" d="M33.18,74.79c15.69-2.08,31.4-2.12,41-3.03c3.28-0.31,5.1,2.02,4.79,3.41c-1.67,7.39-2.39,12.88-3.86,19.27"/><path id="kvg:07b1e-s11" kvg:type="&#12752;b" d="M35.84,97.33C41.5,96.75,70,96,77.69,95.49"/></g></g></g></g></svg>