<svg xmlns="http://www.w3.org/2000/svg" width="109" height="109" viewBox="0 0 109 109"><g xmlns:kvg="http://kanjivg.tagaini.net" id="kvg:StrokePaths_07b25" style="fill:none;stroke:#000000;stroke-width:3;stroke-linecap:round;stroke-linejoin:round;"><g id="kvg:07b25" kvg:element="&#31525;"><g id="kvg:07b25-g1" kvg:element="&#31481;" kvg:variant="true" kvg:position="top" kvg:radical="general"><g id="kvg:07b25-g2" kvg:position="left"><path id="kvg:07b25-s1" kvg:type="&#12754;" d="M29,11.75c0.1,0.86,0.02,1.7-0.23,2.51c-2.15,4.49-5.65,11.12-12.02,17.24"/><path id="kvg:07b25-s2" kvg:type="&#12752;b" d="M27.23,23.79c2.89,0,12.3-1.8,18.27-2.47c1.68-0.19,3.09-0.06,4-0.06"/><path id="kvg:07b25-s3" kvg:type="&#12756;/&#12753;" d="M34.27,25.83c1.61,1.45,4.14,5.39,4.54,7.63"/></g><g id="kvg:07b25-g3" kvg:position="right"><path id="kvg:07b25-s4" kvg:type="&#12754;" d="M65.98,10.75c0,1.12-0.29,2.03-0.78,2.96c-2.58,4.91-5.7,10.16-11.95,15.79"/><path id="kvg:07b25-s5" kvg:type="&#12752;b" d="M64.98,20.91c3.55,0,13.34-1.54,20.26-2.21c1.87-0.19,3.75-0.23,5.63-0.11"/><path id="kvg:07b25-s6" kvg:type="&#12754;/&#12762;" d="M74.52,23.75c0.07,0.61-0.09,1.15-0.43,1.67C72.38,28,70.38,30,66.25,32.5"/></g></g><g id="kvg:07b25-g4" kvg:element="&#21496;" kvg:position="bottom"><path id="kvg:07b25-s7" kvg:type="&#12742;" d="M21.5,41.45c3.12,0.67,6.93,0.35,10.39,0.02c18.36-1.73,39.08-3.45,43.99-3.93c5.72-0.56,6.62,0.57,6.62,5.66c0,5.3,0,42.25,0,48c0,13.25-5.5,6.25-9.5,3.25"/><g id="kvg:07b25-g5" kvg:element="&#19968;"><path id="kvg:07b25-s8" kvg:type="&#12752;" d="M25.5,54.34c2.17,0.49,4.35,0.51,6.52,0.05c5.93-0.68,16.78-1.86,23.61-2.47c2.53-0.27,5.07-0.25,7.62,0.04"/></g><g id="kvg:07b25-g6" kvg:element="&#21475;"><path id="kvg:07b25-s9" kvg:type="&#12753;" d="M28,66.52c0.8,0.8,0.95,1.71,1.14,2.72c0.88,4.82,1.64,8.75,2.39,12.76c0.3,1.61,0.59,3.24,0.89,4.94"/><path id="kvg:07b25-s10" kvg:type="&#12757;b" d="M30.09,67.43c8.49-1.3,20.52-2.55,26.02-3.1c2.88-0.29,4.06,1.23,3.43,3.94c-0.87,3.79-1.67,7.12-3.59,13.15"/><path id="kvg:07b25-s11" kvg:type="&#12752;b" d="M32.79,84.72c4.66-0.45,12.9-1.47,20.71-2.32c1.5-0.16,2.99-0.32,4.43-0.47"/></g></g></g></g></svg>