<svg xmlns="http://www.w3.org/2000/svg" width="109" height="109" viewBox="0 0 109 109"><g xmlns:kvg="http://kanjivg.tagaini.net" id="kvg:StrokePaths_07b20" style="fill:none;stroke:#000000;stroke-width:3;stroke-linecap:round;stroke-linejoin:round;"><g id="kvg:07b20" kvg:element="&#31520;"><g id="kvg:07b20-g1" kvg:element="&#31481;" kvg:variant="true" kvg:position="top" kvg:radical="general"><g id="kvg:07b20-g2" kvg:position="left"><path id="kvg:07b20-s1" kvg:type="&#12754;" d="M31.24,15c0.13,1.19,0.12,2.39-0.37,3.46c-3,6.54-7.12,13.92-15.62,22.29"/><path id="kvg:07b20-s2" kvg:type="&#12752;b" d="M28.73,29.79c0.95,0,2.58-0.22,4.54-0.54c3.6-0.59,8.84-1.29,12.6-1.9c2.16-0.35,4-0.59,5.13-0.59"/><path id="kvg:07b20-s3" kvg:type="&#12756;/&#12753;" d="M34.27,32.33c1.78,2.01,4.6,8.01,5.04,11.13"/></g><g id="kvg:07b20-g3" kvg:position="right"><path id="kvg:07b20-s4" kvg:type="&#12754;" d="M66.49,13c0.15,1.38-0.07,2.69-0.66,3.94c-2.46,5.69-6.05,12.26-11.08,18.31"/><path id="kvg:07b20-s5" kvg:type="&#12752;b" d="M65.23,26.91c0.81,0,1.95-0.1,3.3-0.26c4.63-0.56,11.78-1.88,17.1-2.59c2.14-0.29,3.99-0.47,5.25-0.47"/><path id="kvg:07b20-s6" kvg:type="&#12754;/&#12762;" d="M75.28,29.5c0.05,0.61-0.03,1.19-0.24,1.76c-0.72,2.24-2.86,5.85-5.29,8.49"/></g></g><g id="kvg:07b20-g4" kvg:element="&#31435;" kvg:position="bottom"><g id="kvg:07b20-g5" kvg:element="&#20128;" kvg:position="top"><path id="kvg:07b20-s7" kvg:type="&#12753;a" d="M51.48,42c1.07,1.07,1.29,2.76,1.29,4.35c0,2.52,0-0.69,0,6.15"/><path id="kvg:07b20-s8" kvg:type="&#12752;" d="M26.5,55.29c3.17,0.35,6.34,0.33,9.5-0.07c10.25-1.06,27.99-2.57,37.25-3.06c2.83-0.23,5.67-0.2,8.5,0.09"/></g><g id="kvg:07b20-g6" kvg:position="bottom"><path id="kvg:07b20-s9" kvg:type="&#12756;" d="M36.75,59.25C40.8,68.24,42.63,78.57,43,84.5"/><path id="kvg:07b20-s10" kvg:type="&#12754;" d="M69.95,56c0.3,1.12,0.1,2.28-0.1,3.02c-1.54,5.85-6.19,20.36-7.73,24.36"/><path id="kvg:07b20-s11" kvg:type="&#12752;" d="M15.75,88.8c4.17,0.54,8.31,0.28,12.5-0.06c19.77-1.6,39.5-2.62,56.88-3.38c3.73-0.16,7.12,0.13,11.12,0.96"/></g></g></g></g></svg>