<svg xmlns="http://www.w3.org/2000/svg" width="109" height="109" viewBox="0 0 109 109"><g xmlns:kvg="http://kanjivg.tagaini.net" id="kvg:StrokePaths_07b39" style="fill:none;stroke:#000000;stroke-width:3;stroke-linecap:round;stroke-linejoin:round;"><g id="kvg:07b39" kvg:element="&#31545;"><g id="kvg:07b39-g1" kvg:element="&#31481;" kvg:variant="true" kvg:position="top" kvg:radical="general"><g id="kvg:07b39-g2" kvg:position="left"><path id="kvg:07b39-s1" kvg:type="&#12754;" d="M30.75,14.75c0.08,1.08-0.18,2.45-0.71,3.43C27.38,23.12,23.87,29.16,17,36.25"/><path id="kvg:07b39-s2" kvg:type="&#12752;b" d="M28.98,26.54C32.12,26.75,39,25.88,47,24.38c2.11-0.4,3.93-0.12,5-0.12"/><path id="kvg:07b39-s3" kvg:type="&#12756;/&#12753;" d="M35.5,29.38c1.52,1.65,3.93,6.78,4.31,9.34"/></g><g id="kvg:07b39-g3" kvg:position="right"><path id="kvg:07b39-s4" kvg:type="&#12754;" d="M63.98,14.25c0.08,1.2-0.07,2.03-0.5,3.17c-1.84,4.91-5.69,11.42-10.98,17.08"/><path id="kvg:07b39-s5" kvg:type="&#12752;b" d="M63.73,25.16c3.71,0,15.18-2.45,22.52-3.39c2.02-0.26,3.25-0.39,4.88-0.18"/><path id="kvg:07b39-s6" kvg:type="&#12754;/&#12762;" d="M73.77,27.25c0.06,0.78-0.1,1.51-0.49,2.2c-0.95,2.15-2.91,4.43-5.91,7.43"/></g></g><g id="kvg:07b39-g4" kvg:element="&#19990;" kvg:position="bottom"><g id="kvg:07b39-g5" kvg:element="&#24319;"><g id="kvg:07b39-g6" kvg:element="&#21313;"><g id="kvg:07b39-g7" kvg:element="&#19968;"><path id="kvg:07b39-s7" kvg:type="&#12752;" d="M15.25,58.2c3.17,1.24,7.37,0.99,10.65,0.74c13.85-1.06,41.16-3.31,58.22-3.97c4.07-0.16,7.44,0.15,11.38,1.07"/></g><path id="kvg:07b39-s8" kvg:type="&#12753;" d="M53.13,43.25c1.12,1.12,1.29,2.5,1.29,4c0,0.81-0.03,16.6-0.04,26.75c0,2.62,0,4.86,0,6.38"/></g><path id="kvg:07b39-s9" kvg:type="&#12753;" d="M72.52,41.75c1.11,1.11,1.29,2.25,1.29,4c0,1.02-0.65,19-1.23,29.5"/><path id="kvg:07b39-s10" kvg:type="&#12752;" d="M55.67,77.75c2.51,0,9.08-0.71,14.08-1.15c2.27-0.2,4.06-0.35,4.7-0.35"/></g><path id="kvg:07b39-s11" kvg:type="&#12759;" d="M32.63,46.25c1.12,1.12,1.29,2.62,1.29,4.25c0,1.02,0.06,25.99,0.06,37.5c0,3.04,0.63,4.32,3.78,4.21c14.53-0.5,29.63-1.33,43.63-2.17c2.76-0.17,6.12-0.29,9.04,0.21"/></g></g></g></svg>