<svg xmlns="http://www.w3.org/2000/svg" width="109" height="109" viewBox="0 0 109 109"><g xmlns:kvg="http://kanjivg.tagaini.net" id="kvg:StrokePaths_07b36" style="fill:none;stroke:#000000;stroke-width:3;stroke-linecap:round;stroke-linejoin:round;"><g id="kvg:07b36" kvg:element="&#31542;"><g id="kvg:07b36-g1" kvg:element="&#31481;" kvg:variant="true" kvg:position="top" kvg:radical="general"><g id="kvg:07b36-g2" kvg:position="left"><path id="kvg:07b36-s1" kvg:type="&#12754;" d="M28.5,10.25c0.04,0.55,0.09,1.43-0.08,2.22c-1,4.69-6.77,14.98-14.67,21.28"/><path id="kvg:07b36-s2" kvg:type="&#12752;b" d="M27.73,22.29c3.71,0,18.61-2.29,22.77-2.29"/><path id="kvg:07b36-s3" kvg:type="&#12756;/&#12753;" d="M34.52,24.58c2.82,1.84,7.28,7.56,7.98,10.42"/></g><g id="kvg:07b36-g3" kvg:position="right"><path id="kvg:07b36-s4" kvg:type="&#12754;" d="M63.73,9.25c0.03,0.51,0.14,1.34-0.07,2.06c-1.6,5.39-6.04,13.07-11.91,19.69"/><path id="kvg:07b36-s5" kvg:type="&#12752;b" d="M63.98,19.66c4.73,0,22.58-2.57,27.9-2.57"/><path id="kvg:07b36-s6" kvg:type="&#12754;/&#12762;" d="M74.76,21.75c0.03,0.33,0.07,0.87-0.07,1.35c-0.82,2.84-5.52,9.08-11.94,12.9"/></g></g><g id="kvg:07b36-g4" kvg:element="&#30690;" kvg:position="bottom"><path id="kvg:07b36-s7" kvg:type="&#12754;" d="M38.81,38.98c0.05,0.56,0.11,1.45-0.11,2.25C37.41,45.98,29.31,57.67,21.25,62"/><g id="kvg:07b36-g5" kvg:element="&#22825;"><path id="kvg:07b36-s8" kvg:type="&#12752;" d="M36.92,50.41c1.97,0.05,5.01,0.07,6.37-0.03c5.59-0.43,21.74-2.57,30.35-3.31c2.27-0.19,3.71-0.26,4.86-0.15"/><g id="kvg:07b36-g6" kvg:element="&#22823;"><path id="kvg:07b36-s9" kvg:type="&#12752;" d="M15,69.33c1.75,0.36,5.44,0.44,6.56,0.35c19.18-1.5,53.36-3.28,66.99-3.52c1.45-0.03,3.5,0.1,6.74,0.53"/><path id="kvg:07b36-s10" kvg:type="&#12754;" d="M53.78,51.26c0.45,0.75,0.9,1.45,0.88,2.91C54.38,79.36,41,93,16.75,100"/><path id="kvg:07b36-s11" kvg:type="&#12751;" d="M55.5,68.48c6.71,10.58,22.87,24.17,30.08,28.99c2.45,1.64,3.31,1.88,4.42,2.04"/></g></g></g></g></g></svg>