<svg xmlns="http://www.w3.org/2000/svg" width="109" height="109" viewBox="0 0 109 109"><g xmlns:kvg="http://kanjivg.tagaini.net" id="kvg:StrokePaths_07b45" style="fill:none;stroke:#000000;stroke-width:3;stroke-linecap:round;stroke-linejoin:round;"><g id="kvg:07b45" kvg:element="&#31557;"><g id="kvg:07b45-g1" kvg:element="&#31481;" kvg:variant="true" kvg:position="top" kvg:radical="general"><g id="kvg:07b45-g2" kvg:position="left"><path id="kvg:07b45-s1" kvg:type="&#12754;" d="M28.5,11.25c0.04,0.53,0.08,1.37-0.08,2.13c-0.9,4.49-6.08,14.34-13.17,20.37"/><path id="kvg:07b45-s2" kvg:type="&#12752;b" d="M27.73,21.29c3.71,0,18.61-2.29,22.77-2.29"/><path id="kvg:07b45-s3" kvg:type="&#12756;/&#12753;" d="M33.77,23.58c2.4,1.66,6.19,6.81,6.79,9.38"/></g><g id="kvg:07b45-g3" kvg:position="right"><path id="kvg:07b45-s4" kvg:type="&#12754;" d="M62.73,10.25c0.03,0.43,0.14,1.12-0.07,1.73C61.1,16.5,56.75,22.95,51,28.5"/><path id="kvg:07b45-s5" kvg:type="&#12752;b" d="M61.25,20.12c5.04,0,25.1-2.62,30.76-2.62"/><path id="kvg:07b45-s6" kvg:type="&#12754;/&#12762;" d="M75.75,22.25c0.03,0.28,0.05,0.73-0.05,1.14c-0.63,2.39-4.25,7.65-9.2,10.86"/></g></g><g id="kvg:07b45-g4" kvg:element="&#20808;" kvg:position="bottom"><g id="kvg:07b45-g5" kvg:position="top"><path id="kvg:07b45-s7" kvg:type="&#12754;" d="M35.76,37.75c0.07,0.55,0.15,1.44-0.14,2.23C32.75,47.5,28.5,53.5,22.8,59.41"/><path id="kvg:07b45-s8" kvg:type="&#12752;" d="M35.42,48.21c0.86,0.35,4.91,0.43,5.77,0.35c8.05-0.72,25.45-2.42,34.57-3.52c1.42-0.17,4.77,0.17,5.48,0.34"/><path id="kvg:07b45-s9" kvg:type="&#12753;a" d="M52.87,33.82c0.66,0.34,2.04,2.57,2.17,3.25c0.13,0.69,0.06,21.83-0.07,26.11"/><path id="kvg:07b45-s10" kvg:type="&#12752;" d="M16.75,65.49c1.36,0.64,3.83,0.7,5.2,0.64c10.05-0.38,40.14-4.53,66.11-4.7c2.26-0.01,3.62,0.31,4.75,0.63"/></g><g id="kvg:07b45-g6" kvg:element="&#20799;" kvg:original="&#20843;" kvg:position="bottom"><g id="kvg:07b45-g7" kvg:element="&#20031;"><path id="kvg:07b45-s11" kvg:type="&#12754;" d="M43.95,66.14c0.08,0.8,0.79,2.53,0.3,4.61c-3,12.75-9.75,23.5-27.25,29.75"/></g><path id="kvg:07b45-s12" kvg:type="&#12767;" d="M60.51,66.25c0.61,1.21,1.09,2.64,1.13,4.51c0.1,4.87-0.47,8.82-0.47,14.59c0,10.08,0.35,13.17,14.09,13.19c20.98,0.03,17.42-5.72,17.62-9.29"/></g></g></g></g></svg>