<svg xmlns="http://www.w3.org/2000/svg" width="109" height="109" viewBox="0 0 109 109"><g xmlns:kvg="http://kanjivg.tagaini.net" id="kvg:StrokePaths_07b65" style="fill:none;stroke:#000000;stroke-width:3;stroke-linecap:round;stroke-linejoin:round;"><g id="kvg:07b65" kvg:element="&#31589;"><g id="kvg:07b65-g1" kvg:element="&#31481;" kvg:variant="true" kvg:position="top" kvg:radical="general"><g id="kvg:07b65-g2" kvg:position="left"><path id="kvg:07b65-s1" kvg:type="&#12754;" d="M28.5,11c0.04,0.61,0.09,1.58-0.09,2.46C27.32,18.65,21.06,30.03,12.5,37"/><path id="kvg:07b65-s2" kvg:type="&#12752;b" d="M27.73,22.29c3.71,0,18.61-2.29,22.77-2.29"/><path id="kvg:07b65-s3" kvg:type="&#12756;/&#12753;" d="M32.02,24.33c2.55,2.1,6.6,8.65,7.23,11.92"/></g><g id="kvg:07b65-g3" kvg:position="right"><path id="kvg:07b65-s4" kvg:type="&#12754;" d="M64.75,10.5c0.04,0.51,0.17,1.32-0.08,2.03C62.76,17.86,57.48,25.46,50.5,32"/><path id="kvg:07b65-s5" kvg:type="&#12752;b" d="M62.73,21.73c4.8,0,24.39-2.96,29.78-2.96"/><path id="kvg:07b65-s6" kvg:type="&#12754;/&#12762;" d="M76.01,23c0.03,0.29,0.07,0.76-0.07,1.18C75.12,26.68,70.43,32.15,64,35.5"/></g></g><g id="kvg:07b65-g4" kvg:element="&#21570;" kvg:position="bottom"><g id="kvg:07b65-g5" kvg:element="&#21475;" kvg:position="top"><path id="kvg:07b65-s7" kvg:type="&#12753;" d="M28.8,41.95c0.55,0.38,1.12,0.69,1.36,1.16c1.91,3.7,4.17,13.84,5.46,20.45"/><path id="kvg:07b65-s8" kvg:type="&#12757;b" d="M30.74,43.76C44,41.5,68.98,39.3,75.22,38.88c2.29-0.15,3.65,2.47,3.32,3.58c-1.37,4.59-1.92,8.05-4.84,14.65"/><path id="kvg:07b65-s9" kvg:type="&#12752;b" d="M35.25,60.81c7.21-0.81,31.46-3.02,40.6-3.68"/></g><g id="kvg:07b65-g6" kvg:position="bottom"><g id="kvg:07b65-g7" kvg:element="&#20031;"><path id="kvg:07b65-s10" kvg:type="&#12754;" d="M52.46,59.11c0.54,0.64,0.84,2.1,0.18,3.33c-1.64,3.06-4.1,7.65-4.7,8.96"/></g><g id="kvg:07b65-g8" kvg:element="&#21475;"><path id="kvg:07b65-s11" kvg:type="&#12753;" d="M27.34,70.58c0.44,0.53,0.9,0.98,1.1,1.63c1.54,5.12,4.37,18.91,5.41,28.02"/><path id="kvg:07b65-s12" kvg:type="&#12757;b" d="M29.13,73.43c14.08-1.49,42.71-3.6,49.97-4c2.66-0.15,4.25,2.79,3.86,4.29c-1.59,6.22-2.78,9.54-5.85,20.49"/><path id="kvg:07b65-s13" kvg:type="&#12752;b" d="M33.49,97.61c9.02-0.63,34.58-2.67,46.03-3.29"/></g></g></g></g></g></svg>