<svg xmlns="http://www.w3.org/2000/svg" width="109" height="109" viewBox="0 0 109 109"><g xmlns:kvg="http://kanjivg.tagaini.net" id="kvg:StrokePaths_07b6e" style="fill:none;stroke:#000000;stroke-width:3;stroke-linecap:round;stroke-linejoin:round;"><g id="kvg:07b6e" kvg:element="&#31598;"><g id="kvg:07b6e-g1" kvg:element="&#31481;" kvg:variant="true" kvg:position="top" kvg:radical="general"><g id="kvg:07b6e-g2" kvg:position="left"><path id="kvg:07b6e-s1" kvg:type="&#12754;" d="M28,13.25c0.04,0.58,0.09,1.5-0.08,2.34c-1,4.94-6.77,15.77-14.66,22.41"/><path id="kvg:07b6e-s2" kvg:type="&#12752;b" d="M27.23,24.9c4.5,0,18.96-2.26,24.02-2.26"/><path id="kvg:07b6e-s3" kvg:type="&#12756;/&#12753;" d="M35.02,27.33c1.96,1.7,5.05,6.99,5.54,9.63"/></g><g id="kvg:07b6e-g3" kvg:position="right"><path id="kvg:07b6e-s4" kvg:type="&#12754;" d="M62.73,11c0.04,0.55,0.16,1.44-0.07,2.22c-1.74,5.82-6.54,14.13-12.9,21.28"/><path id="kvg:07b6e-s5" kvg:type="&#12752;b" d="M60.48,22.7c5.64,0,26.31-2.9,32.65-2.9"/><path id="kvg:07b6e-s6" kvg:type="&#12754;/&#12762;" d="M74.76,25.25c0.03,0.24,0.06,0.62-0.06,0.97c-0.68,2.05-4.6,6.53-9.96,9.28"/></g></g><g id="kvg:07b6e-g4" kvg:element="&#24043;" kvg:position="bottom"><g id="kvg:07b6e-g5" kvg:element="&#24037;" kvg:part="1"><path id="kvg:07b6e-s7" kvg:type="&#12752;" d="M22.2,46.04c1.16,0.62,5.01,0.93,6.2,0.8c5.58-0.62,46.84-3.88,56.19-4.19c1.83-0.06,3.47,0.23,4.96,0.77"/><path id="kvg:07b6e-s8" kvg:type="&#12753;" d="M52.79,46.25c1.91,2.39,1.91,3.83,1.91,5.74c0,13.4-0.06,19.29-0.06,42.26"/></g><g id="kvg:07b6e-g6" kvg:element="&#20174;"><g id="kvg:07b6e-g7" kvg:element="&#20154;" kvg:position="left"><path id="kvg:07b6e-s9" kvg:type="&#12754;" d="M36.28,55.74c0.2,0.7,0.15,2.23-0.13,3.01c-2.69,7.63-6.91,17.58-15.18,24.87"/><path id="kvg:07b6e-s10" kvg:type="&#12751;" d="M33.39,68.36c4.56,2.26,10.39,8.28,12.61,13.98"/></g><g id="kvg:07b6e-g8" kvg:element="&#20154;" kvg:position="right"><path id="kvg:07b6e-s11" kvg:type="&#12754;" d="M76.28,52.74c0.2,0.7,0.15,2.23-0.12,3.01c-2.6,7.63-6.69,17.58-14.69,24.87"/><path id="kvg:07b6e-s12" kvg:type="&#12751;" d="M73.39,65.36C79.5,69,84.75,74.5,89,80.84"/></g></g><g id="kvg:07b6e-g9" kvg:element="&#24037;" kvg:part="2"><path id="kvg:07b6e-s13" kvg:type="&#12752;" d="M15.46,96.08c0.96,0.3,4.41,0.68,6.05,0.59c17.69-0.94,52.83-3.38,68.92-3.41c2.64,0,5.79,0.61,7.1,1.08"/></g></g></g></g></svg>