<svg xmlns="http://www.w3.org/2000/svg" width="109" height="109" viewBox="0 0 109 109"><g xmlns:kvg="http://kanjivg.tagaini.net" id="kvg:StrokePaths_07b67" style="fill:none;stroke:#000000;stroke-width:3;stroke-linecap:round;stroke-linejoin:round;"><g id="kvg:07b67" kvg:element="&#31591;"><g id="kvg:07b67-g1" kvg:element="&#31481;" kvg:variant="true" kvg:position="top" kvg:radical="general"><g id="kvg:07b67-g2" kvg:position="left"><path id="kvg:07b67-s1" kvg:type="&#12754;" d="M30.99,12c0.04,0.55,0.09,1.41-0.09,2.2c-1.04,4.64-7,14.82-15.16,21.05"/><path id="kvg:07b67-s2" kvg:type="&#12752;b" d="M30.25,23.32c3.66,0,15.39-2.39,19.5-2.39"/><path id="kvg:07b67-s3" kvg:type="&#12756;/&#12753;" d="M34.02,25.08c2.29,1.53,5.91,6.29,6.48,8.67"/></g><g id="kvg:07b67-g3" kvg:position="right"><path id="kvg:07b67-s4" kvg:type="&#12754;" d="M63.23,10.5c0.03,0.5,0.14,1.3-0.07,2.01c-1.6,5.26-6.04,12.77-11.91,19.24"/><path id="kvg:07b67-s5" kvg:type="&#12752;b" d="M63,21.97c4.9,0,22.87-3.36,28.38-3.36"/><path id="kvg:07b67-s6" kvg:type="&#12754;/&#12762;" d="M77.5,23.75c0.03,0.22,0.06,0.58-0.06,0.9c-0.7,1.9-4.7,6.06-10.19,8.6"/></g></g><g id="kvg:07b67-g4" kvg:element="&#35211;" kvg:position="bottom"><g id="kvg:07b67-g5" kvg:element="&#30446;" kvg:position="top"><path id="kvg:07b67-s7" kvg:type="&#12753;" d="M33.72,38.64c0.62,0.79,1.52,2.88,1.52,3.94c0,1.05-0.2,33.33,0,34.38"/><path id="kvg:07b67-s8" kvg:type="&#12757;a" d="M36.28,40.23c3.58-0.13,32.82-2.74,36.08-2.74c1.39,0,2.36,1.74,2.13,2.73c-0.29,1.25-0.76,35.42-0.76,36.22"/><path id="kvg:07b67-s9" kvg:type="&#12752;a" d="M36.22,51.61c5.29,0,31.4-2.14,37.34-2.14"/><path id="kvg:07b67-s10" kvg:type="&#12752;a" d="M35.5,62.81c10.53-0.31,27.54-1.78,36.89-1.78"/><path id="kvg:07b67-s11" kvg:type="&#12752;a" d="M35.41,73.96c7.11,0,28.64-1.71,37.84-1.71"/></g><g id="kvg:07b67-g6" kvg:position="bottom"><path id="kvg:07b67-s12" kvg:type="&#12754;" d="M45.14,77.21c0.08,0.56,0.17,1.45-0.16,2.25C43.06,84.21,32.06,94.62,17,101"/><path id="kvg:07b67-s13" kvg:type="&#12767;" d="M57.63,75.37c0.65,0.83,1.17,1.81,1.21,3.09c0.09,3.08-0.18,6.94-0.23,10.29c-0.11,8,2.39,9.21,16.15,9.34C91,98.25,92.25,96.25,92.25,87.21"/></g></g></g></g></svg>