<svg xmlns="http://www.w3.org/2000/svg" width="109" height="109" viewBox="0 0 109 109"><g xmlns:kvg="http://kanjivg.tagaini.net" id="kvg:StrokePaths_07b6c" style="fill:none;stroke:#000000;stroke-width:3;stroke-linecap:round;stroke-linejoin:round;"><g id="kvg:07b6c" kvg:element="&#31596;"><g id="kvg:07b6c-g1" kvg:element="&#31481;" kvg:variant="true" kvg:position="top" kvg:radical="general"><g id="kvg:07b6c-g2" kvg:position="left"><path id="kvg:07b6c-s1" kvg:type="&#12754;" d="M29.25,11c0.04,0.56,0.08,1.46-0.08,2.27C28.21,18.06,22.74,28.57,15.25,35"/><path id="kvg:07b6c-s2" kvg:type="&#12752;b" d="M26.5,24.07c4.5,0,18.95-2.62,24-2.62"/><path id="kvg:07b6c-s3" kvg:type="&#12756;/&#12753;" d="M34.77,25.33c2.29,1.97,5.91,8.1,6.48,11.17"/></g><g id="kvg:07b6c-g3" kvg:position="right"><path id="kvg:07b6c-s4" kvg:type="&#12754;" d="M61.73,10.75c0.03,0.49,0.14,1.27-0.07,1.96c-1.6,5.14-6.04,12.47-11.91,18.79"/><path id="kvg:07b6c-s5" kvg:type="&#12752;b" d="M60.25,21.82c5.4,0,25.19-2.64,31.25-2.64"/><path id="kvg:07b6c-s6" kvg:type="&#12754;/&#12762;" d="M75.99,22.75c0.03,0.31,0.06,0.79-0.05,1.23c-0.66,2.59-4.47,8.29-9.68,11.77"/></g></g><g id="kvg:07b6c-g4" kvg:element="&#25104;" kvg:position="bottom"><g id="kvg:07b6c-g5" kvg:element="&#131210;" kvg:part="1" kvg:variant="true" kvg:original="&#21241;"><g id="kvg:07b6c-g6" kvg:element="&#20031;"><path id="kvg:07b6c-s7" kvg:type="&#12754;" d="M28.57,48.75c0.56,1.33,0.87,1.94,0.82,3.6c-0.43,15.26-2.4,30.83-16.33,45.12"/></g></g><g id="kvg:07b6c-g7" kvg:element="&#25096;" kvg:part="1"><g id="kvg:07b6c-g8" kvg:element="&#24331;" kvg:part="1"><path id="kvg:07b6c-s8" kvg:type="&#12752;" d="M25.75,47.74c1.56,0.56,4.43,0.65,6,0.56c8.94-0.51,37.01-3.08,48.53-3.84c2.6-0.17,4.17,0.27,5.47,0.55"/></g></g><g id="kvg:07b6c-g9" kvg:element="&#131210;" kvg:part="2" kvg:variant="true" kvg:original="&#21241;"><path id="kvg:07b6c-s9" kvg:type="&#12742;" d="M29.01,66.24c0.99,0.26,1.65,0.24,2.58,0.1c5.93-0.9,14.18-2.05,16.02-2.02c2.13,0.03,2.47,1.3,1.99,3.64C49.12,70.31,47.14,86.8,42.13,93c-2.99,3.7-5,0.1-6.2-3.12"/></g><g id="kvg:07b6c-g10" kvg:element="&#25096;" kvg:part="2"><path id="kvg:07b6c-s10" kvg:type="&#12738;" d="M56.25,34.5c1.61,1.33,2.31,1.69,2.62,4.56c2.32,21.88,11.88,46.69,32.4,55.81c6.33,2.82,5.43,0.57,4.63-5.31"/><g id="kvg:07b6c-g11" kvg:element="&#20031;"><path id="kvg:07b6c-s11" kvg:type="&#12754;" d="M83.96,56.14c0.1,0.98,0.21,2.53-0.2,3.94c-2.48,8.31-16.5,29.17-35.5,37.67"/></g><g id="kvg:07b6c-g12" kvg:element="&#24331;" kvg:part="2"><g id="kvg:07b6c-g13" kvg:element="&#20022;"><path id="kvg:07b6c-s12" kvg:type="&#12756;" d="M78.75,32c4.32,1.8,11.23,5.91,13.25,9"/></g></g></g></g></g></g></svg>