<svg xmlns="http://www.w3.org/2000/svg" width="109" height="109" viewBox="0 0 109 109"><g xmlns:kvg="http://kanjivg.tagaini.net" id="kvg:StrokePaths_07b70" style="fill:none;stroke:#000000;stroke-width:3;stroke-linecap:round;stroke-linejoin:round;"><g id="kvg:07b70" kvg:element="&#31600;"><g id="kvg:07b70-g1" kvg:element="&#31481;" kvg:variant="true" kvg:position="top" kvg:radical="general"><g id="kvg:07b70-g2" kvg:position="left"><path id="kvg:07b70-s1" kvg:type="&#12754;" d="M29.25,13c0.04,0.57,0.09,1.46-0.09,2.27C28.13,20.06,22.16,30.57,14,37"/><path id="kvg:07b70-s2" kvg:type="&#12752;b" d="M28,25.09c4.31,0,18.16-2.43,23-2.43"/><path id="kvg:07b70-s3" kvg:type="&#12756;/&#12753;" d="M34,26.5c3.09,1.72,7.98,7.07,8.75,9.75"/></g><g id="kvg:07b70-g3" kvg:position="right"><path id="kvg:07b70-s4" kvg:type="&#12754;" d="M64.75,11.5c0.04,0.53,0.19,1.38-0.09,2.13C62.55,19.2,56.72,27.15,49,34"/><path id="kvg:07b70-s5" kvg:type="&#12752;b" d="M61.75,23.69c5.12,0,23.88-3.3,29.63-3.3"/><path id="kvg:07b70-s6" kvg:type="&#12754;/&#12762;" d="M77,25.25c0.02,0.26,0.05,0.67-0.04,1.04c-0.55,2.19-3.67,7.01-7.95,9.96"/></g></g><g id="kvg:07b70-g4" kvg:element="&#20316;" kvg:position="bottom"><g id="kvg:07b70-g5" kvg:element="&#20155;" kvg:variant="true" kvg:original="&#20154;" kvg:position="left"><path id="kvg:07b70-s7" kvg:type="&#12754;" d="M36.06,39.76c0.25,1.48-0.07,3.42-0.88,4.69c-5.19,8.08-11.93,16.8-23.14,26"/><path id="kvg:07b70-s8" kvg:type="&#12753;" d="M30.5,54.75c1.25,1,1.13,2.97,1.16,4.25c0.29,10.57-0.6,33.45-0.33,39.75"/></g><g id="kvg:07b70-g6" kvg:element="&#20045;" kvg:position="right"><g id="kvg:07b70-g7" kvg:element="&#20031;"><path id="kvg:07b70-s9" kvg:type="&#12754;" d="M61.23,37.25c0.06,0.68,0.23,1.78-0.11,2.72C58.75,46.5,53,55.75,42.5,65.5"/></g><path id="kvg:07b70-s10" kvg:type="&#12752;" d="M56.92,50.19c0.79,0.25,2.24,0.29,3.04,0.25c10.46-0.52,22.38-2.52,30.16-3.09c1.46-0.11,2.1-0.16,3.08-0.05"/><path id="kvg:07b70-s11" kvg:type="&#12753;" d="M60.7,51.75c0.62,0.34,1,1.54,1.12,2.22c0.12,0.68,0,41.5-0.12,45.78"/><path id="kvg:07b70-s12" kvg:type="&#12752;b" d="M62.5,64.81c1.5-0.06,2.42-0.18,2.93-0.22C72.5,64,78,63.25,88.62,61.46c0.83-0.14,1.34,0.13,1.76,0.27"/><path id="kvg:07b70-s13" kvg:type="&#12752;b" d="M63.15,78.78c0.54,0.11,1.52,0.11,2.06,0.09c5.6-0.24,14.53-1.64,24.85-1.86c0.89-0.02,1.44,0.03,1.88,0.09"/></g></g></g></g></svg>