<svg xmlns="http://www.w3.org/2000/svg" width="109" height="109" viewBox="0 0 109 109"><g xmlns:kvg="http://kanjivg.tagaini.net" id="kvg:StrokePaths_07b74" style="fill:none;stroke:#000000;stroke-width:3;stroke-linecap:round;stroke-linejoin:round;"><g id="kvg:07b74" kvg:element="&#31604;"><g id="kvg:07b74-g1" kvg:element="&#31481;" kvg:variant="true" kvg:position="top" kvg:radical="general"><g id="kvg:07b74-g2" kvg:position="left"><path id="kvg:07b74-s1" kvg:type="&#12754;" d="M30.25,11.5c0.04,0.58,0.08,1.51-0.08,2.34c-0.92,4.94-6.2,15.77-13.42,22.41"/><path id="kvg:07b74-s2" kvg:type="&#12752;b" d="M28.73,24.15c3.8,0,16-2.26,20.27-2.26"/><path id="kvg:07b74-s3" kvg:type="&#12756;/&#12753;" d="M33.25,26c2.91,1.85,7.52,7.62,8.25,10.5"/></g><g id="kvg:07b74-g3" kvg:position="right"><path id="kvg:07b74-s4" kvg:type="&#12754;" d="M63.5,10.25c0.03,0.47,0.12,1.21-0.06,1.87C62.07,17.01,58.27,23.99,53.25,30"/><path id="kvg:07b74-s5" kvg:type="&#12752;b" d="M61.75,22.52c5.16,0,24.08-3.18,29.88-3.18"/><path id="kvg:07b74-s6" kvg:type="&#12754;/&#12762;" d="M75.52,24.05c0.03,0.3,0.06,0.79-0.06,1.23c-0.7,2.58-4.71,8.25-10.21,11.72"/></g></g><g id="kvg:07b74-g4" kvg:element="&#22846;" kvg:position="bottom"><g id="kvg:07b74-g5" kvg:element="&#22823;" kvg:part="1"><path id="kvg:07b74-s7" kvg:type="&#12752;" d="M19.73,48.57c1.56,0.59,4.45,0.8,6.02,0.66C37,48.25,74,44.25,83.8,43.65c2.62-0.16,4.19,0.33,5.5,0.64"/></g><g id="kvg:07b74-g6" kvg:element="&#20174;"><g id="kvg:07b74-g7" kvg:element="&#20154;" kvg:position="left"><path id="kvg:07b74-s8" kvg:type="&#12754;" d="M32.76,56.25c0,0.59,0.07,1.08-0.11,1.77C31.02,64.44,26.15,72.42,19,79.5"/><path id="kvg:07b74-s9" kvg:type="&#12751;" d="M33.25,65.75c2.98,1.54,6.8,5.63,8.25,9.5"/></g><g id="kvg:07b74-g8" kvg:element="&#20154;" kvg:position="right"><path id="kvg:07b74-s10" kvg:type="&#12754;" d="M78.25,53.5c0,0.48,0.09,0.89-0.09,1.44c-1.54,4.7-5.93,13.07-11.16,17.81"/><path id="kvg:07b74-s11" kvg:type="&#12751;" d="M77.75,63.75c4.54,2.78,8.04,6.27,10.75,10.5"/></g></g><g id="kvg:07b74-g9" kvg:element="&#22823;" kvg:part="2"><path id="kvg:07b74-s12" kvg:type="&#12754;" d="M52.55,35.5c0.56,0.9,1.45,1.95,1.45,3.9c0,32.6-7.74,51.85-36.24,62.1"/><path id="kvg:07b74-s13" kvg:type="&#12751;" d="M52.5,62.25c7.07,10.49,22.61,29.11,32.2,35.14c2.69,1.69,3.4,2.18,4.55,2.36"/></g></g></g></g></svg>