<svg xmlns="http://www.w3.org/2000/svg" width="109" height="109" viewBox="0 0 109 109"><g xmlns:kvg="http://kanjivg.tagaini.net" id="kvg:StrokePaths_07b71" style="fill:none;stroke:#000000;stroke-width:3;stroke-linecap:round;stroke-linejoin:round;"><g id="kvg:07b71" kvg:element="&#31601;"><g id="kvg:07b71-g1" kvg:element="&#31481;" kvg:variant="true" kvg:position="top" kvg:radical="tradit"><g id="kvg:07b71-g2" kvg:position="left"><path id="kvg:07b71-s1" kvg:type="&#12754;" d="M28.5,11c0.04,0.58,0.09,1.49-0.09,2.32C27.32,18.2,21.06,28.93,12.5,35.5"/><path id="kvg:07b71-s2" kvg:type="&#12752;b" d="M26.73,23.06c4.27,0,17.98-3.08,22.77-3.08"/><path id="kvg:07b71-s3" kvg:type="&#12756;/&#12753;" d="M34.52,24.83c2.22,1.7,5.74,6.99,6.29,9.63"/></g><g id="kvg:07b71-g3" kvg:position="right"><path id="kvg:07b71-s4" kvg:type="&#12754;" d="M61.51,10.75c0.04,0.52,0.16,1.35-0.08,2.08c-1.77,5.45-6.68,13.23-13.18,19.92"/><path id="kvg:07b71-s5" kvg:type="&#12752;b" d="M60.75,20.97c5.83,0,27.2-3.72,33.75-3.72"/><path id="kvg:07b71-s6" kvg:type="&#12754;/&#12762;" d="M78.24,22.5c0.03,0.24,0.06,0.62-0.06,0.97c-0.7,2.05-4.7,6.53-10.18,9.28"/></g></g><g id="kvg:07b71-g4" kvg:element="&#25912;" kvg:position="bottom"><g id="kvg:07b71-g5" kvg:element="&#20155;" kvg:variant="true" kvg:original="&#20154;" kvg:position="left"><path id="kvg:07b71-s7" kvg:type="&#12754;" d="M32.5,35.75c0.22,1.79-0.06,4.13-0.77,5.66C27.18,51.17,21.42,60.33,11,72.21"/><path id="kvg:07b71-s8" kvg:type="&#12753;" d="M24.98,53.47c0.62,0.82,1.57,1.59,1.66,2.66c0.96,10.38-0.53,37.59,0.22,43.62"/></g><g id="kvg:07b71-g6" kvg:position="right"><g id="kvg:07b71-g7" kvg:element="&#20008;"><path id="kvg:07b71-s9" kvg:type="&#12753;" d="M39.42,46.66c0.7,0.7,1.19,1.53,1.25,3.86c0.29,11.19-0.02,35.81-0.02,39.62"/></g><g id="kvg:07b71-g8" kvg:element="&#25908;" kvg:variant="true" kvg:original="&#25909;"><g id="kvg:07b71-g9" kvg:position="top"><path id="kvg:07b71-s10" kvg:type="&#12754;" d="M62,35c0.04,0.66,0.27,1.74-0.08,2.65c-2.25,5.83-8.36,19.03-16.16,27.1"/><path id="kvg:07b71-s11" kvg:type="&#12752;" d="M59.97,47.48c0.04-0.2,1.86,0.57,2.52,0.52c6.83-0.59,18.53-2.7,28.96-3.65c1.17-0.11,1.89-0.03,2.2,0.1"/></g><g id="kvg:07b71-g10" kvg:element="&#20034;" kvg:position="bottom"><g id="kvg:07b71-g11" kvg:element="&#20031;"><path id="kvg:07b71-s12" kvg:type="&#12754;" d="M81.96,48.67c0.63,1.25,0.97,2.15,0.32,4.44C76.3,73.93,62.67,92.53,43,99.75"/></g><path id="kvg:07b71-s13" kvg:type="&#12751;" d="M56,54c7.75,10.75,24.02,34.04,35.04,42.24c2.12,1.58,3.47,1.84,5.21,2.01"/></g></g></g></g></g></g></svg>