<svg xmlns="http://www.w3.org/2000/svg" width="109" height="109" viewBox="0 0 109 109"><g xmlns:kvg="http://kanjivg.tagaini.net" id="kvg:StrokePaths_07b94" style="fill:none;stroke:#000000;stroke-width:3;stroke-linecap:round;stroke-linejoin:round;"><g id="kvg:07b94" kvg:element="&#31636;"><g id="kvg:07b94-g1" kvg:element="&#31481;" kvg:variant="true" kvg:position="top" kvg:radical="general"><g id="kvg:07b94-g2" kvg:position="left"><path id="kvg:07b94-s1" kvg:type="&#12754;" d="M30.5,12.75c0.03,0.46,0.07,1.2-0.07,1.87C29.58,18.56,24.69,27.21,18,32.5"/><path id="kvg:07b94-s2" kvg:type="&#12752;b" d="M28.73,23.85c4.36,0,18.37-2.67,23.27-2.67"/><path id="kvg:07b94-s3" kvg:type="&#12756;/&#12753;" d="M36.77,25.83c1.87,1.61,4.83,6.63,5.29,9.13"/></g><g id="kvg:07b94-g3" kvg:position="right"><path id="kvg:07b94-s4" kvg:type="&#12754;" d="M63.75,12.5c0.03,0.4,0.11,1.04-0.05,1.61c-1.27,4.21-4.79,10.22-9.44,15.39"/><path id="kvg:07b94-s5" kvg:type="&#12752;b" d="M63.48,22.16c4.73,0,22.08-3.07,27.4-3.07"/><path id="kvg:07b94-s6" kvg:type="&#12754;/&#12762;" d="M76.77,23.75c0.02,0.22,0.04,0.56-0.04,0.88c-0.46,1.85-3.11,5.9-6.74,8.37"/></g></g><g id="kvg:07b94-g4" kvg:element="&#27850;" kvg:position="bottom"><g id="kvg:07b94-g5" kvg:element="&#27701;" kvg:variant="true" kvg:original="&#27700;" kvg:position="left"><path id="kvg:07b94-s7" kvg:type="&#12756;" d="M25.41,37.75c4.09,1.58,10.57,6.52,11.59,8.98"/><path id="kvg:07b94-s8" kvg:type="&#12756;" d="M21,55.12c3.51,1.39,9.07,5.72,9.95,7.88"/><path id="kvg:07b94-s9" kvg:type="&#12736;" d="M20.25,91.72c1.64,0.99,3.62,1.03,4.65-0.19c3.01-3.57,6.02-7.93,8.76-12.48"/></g><g id="kvg:07b94-g6" kvg:position="right"><g id="kvg:07b94-g7" kvg:position="top"><path id="kvg:07b94-s10" kvg:type="&#12756;" d="M67,39.25c0.5,0.61,0.69,1.38,0.46,1.88c-1.66,3.69-6.82,10.6-12.38,14.79"/></g><g id="kvg:07b94-g8" kvg:element="&#26085;" kvg:position="bottom"><path id="kvg:07b94-s11" kvg:type="&#12753;" d="M50.71,55.29c0.59,1.04,1.19,2.78,1.19,4.17c0,1.39,1.69,29.95,1.69,38.29"/><path id="kvg:07b94-s12" kvg:type="&#12757;a" d="M52.26,57.34c3.35-0.17,29.52-2.87,32.57-3.11c2.92-0.23,3.73,1.14,3.72,3.33c-0.01,3.75-1.53,27.17-2.16,38.64"/><path id="kvg:07b94-s13" kvg:type="&#12752;a" d="M53.22,75.21c7.02-0.52,28.88-2.85,34-2.85"/><path id="kvg:07b94-s14" kvg:type="&#12752;a" d="M54.39,95.49c8.4-0.56,22.84-1.89,31.8-2.15"/></g></g></g></g></g></svg>