<svg xmlns="http://www.w3.org/2000/svg" width="109" height="109" viewBox="0 0 109 109"><g xmlns:kvg="http://kanjivg.tagaini.net" id="kvg:StrokePaths_07b92" style="fill:none;stroke:#000000;stroke-width:3;stroke-linecap:round;stroke-linejoin:round;"><g id="kvg:07b92" kvg:element="&#31634;"><g id="kvg:07b92-g1" kvg:element="&#31481;" kvg:variant="true" kvg:position="top" kvg:radical="general"><g id="kvg:07b92-g2" kvg:position="left"><path id="kvg:07b92-s1" kvg:type="&#12754;" d="M30.76,9.75c0.03,0.47,0.08,1.22-0.07,1.89C29.81,15.63,24.83,24.39,18,29.75"/><path id="kvg:07b92-s2" kvg:type="&#12752;b" d="M29.98,18.92c4.04,0,16.99-2.05,21.52-2.05"/><path id="kvg:07b92-s3" kvg:type="&#12756;/&#12753;" d="M35.52,21.83c1.6,1.35,4.14,5.54,4.54,7.63"/></g><g id="kvg:07b92-g3" kvg:position="right"><path id="kvg:07b92-s4" kvg:type="&#12754;" d="M62.02,9.75c0.03,0.42,0.15,1.11-0.07,1.7c-1.64,4.46-6.18,10.82-12.2,16.3"/><path id="kvg:07b92-s5" kvg:type="&#12752;b" d="M61.25,18.22C66.22,18.22,84.42,16,90,16"/><path id="kvg:07b92-s6" kvg:type="&#12754;/&#12762;" d="M77.25,20.25c0.03,0.19,0.06,0.49-0.06,0.76c-0.72,1.6-4.82,5.1-10.44,7.24"/></g></g><g id="kvg:07b92-g4" kvg:element="&#24090;" kvg:position="bottom"><g id="kvg:07b92-g5" kvg:element="&#11925;" kvg:variant="true" kvg:original="&#24401;" kvg:position="top"><path id="kvg:07b92-s7" kvg:type="&#12757;" d="M32.34,34.67c1.47,0.39,2.69,0.78,3.91,0.78s35.72-2.65,37.68-2.85c1.96-0.2,3.39,1.6,2.91,2.95c-1.71,4.89-3.18,11.43-3.91,14.55"/><path id="kvg:07b92-s8" kvg:type="&#12752;" d="M17.75,44.07c1.42,0.35,4.03,0.41,5.45,0.35c14.8-0.59,38.43-2.99,65.66-3.09c2.37-0.01,3.79,0.17,4.98,0.35"/><path id="kvg:07b92-s9" kvg:type="&#12752;c" d="M31.97,52.89c0.8,0.22,2.27,0.24,3.07,0.22c10.61-0.26,21.68-2.5,37.03-2.56c1.34,0,2.14,0.11,2.81,0.22"/></g><g id="kvg:07b92-g6" kvg:position="bottom"><g id="kvg:07b92-g7" kvg:element="&#20886;"><path id="kvg:07b92-s10" kvg:type="&#12756;" d="M23,58.5c-0.17,4.04-4.29,14.59-5.75,17"/><path id="kvg:07b92-s11" kvg:type="&#12758;b" d="M23.35,62.12c3.44,0,5.32-0.1,8.08-0.21c20.49-0.85,38.97-2.97,56.26-3.05C98.46,58.81,86.62,67.45,85,68"/></g><g id="kvg:07b92-g8" kvg:element="&#24062;"><path id="kvg:07b92-s12" kvg:type="&#12753;" d="M30.41,71.44c0.58,0.21,1.91,1.58,1.97,2.02C33,78.5,33.75,90.25,34.1,94.78"/><path id="kvg:07b92-s13" kvg:type="&#12742;a" d="M32.59,72.35c3.45-0.15,38.35-2.76,40.93-2.85c3.03-0.11,3.69,1.88,3.58,2.85c-0.55,4.9-1.49,12.21-4,16.81c-2.5,4.57-4.85,0.03-6-0.71"/><path id="kvg:07b92-s14" kvg:type="&#12753;" d="M53.41,62.24c0.39,0.21,1.22,1.55,1.29,1.97c0.08,0.42-0.05,33.45-0.13,36.04"/></g></g></g></g></g></svg>