<svg xmlns="http://www.w3.org/2000/svg" width="109" height="109" viewBox="0 0 109 109"><g xmlns:kvg="http://kanjivg.tagaini.net" id="kvg:StrokePaths_07b9a" style="fill:none;stroke:#000000;stroke-width:3;stroke-linecap:round;stroke-linejoin:round;"><g id="kvg:07b9a" kvg:element="&#31642;"><g id="kvg:07b9a-g1" kvg:element="&#31572;" kvg:part="1"><g id="kvg:07b9a-g2" kvg:element="&#31481;" kvg:variant="true" kvg:position="top" kvg:radical="general"><g id="kvg:07b9a-g3" kvg:position="left"><path id="kvg:07b9a-s1" kvg:type="&#12754;" d="M28.25,11.25c0.03,0.55,0.07,1.41-0.07,2.2c-0.87,4.64-5.85,14.82-12.68,21.05"/><path id="kvg:07b9a-s2" kvg:type="&#12752;b" d="M27,23.73c4.59,0,19.34-3.17,24.5-3.17"/><path id="kvg:07b9a-s3" kvg:type="&#12756;/&#12753;" d="M35.75,26c2.14,1.49,5.52,6.14,6.06,8.47"/></g><g id="kvg:07b9a-g4" kvg:position="right"><path id="kvg:07b9a-s4" kvg:type="&#12754;" d="M65.48,10.75c0.04,0.52,0.17,1.37-0.08,2.1C63.57,18.36,58.48,26.23,51.75,33"/><path id="kvg:07b9a-s5" kvg:type="&#12752;b" d="M63.48,20.22c5.12,0,23.9-2.45,29.65-2.45"/><path id="kvg:07b9a-s6" kvg:type="&#12754;/&#12762;" d="M77.73,23c0.04,0.26,0.08,0.67-0.07,1.04c-0.9,2.19-6.07,7.01-13.16,9.96"/></g></g></g><g id="kvg:07b9a-g5" kvg:position="bottom"><g id="kvg:07b9a-g6" kvg:element="&#31572;" kvg:part="2" kvg:position="left"><g id="kvg:07b9a-g7" kvg:element="&#21512;"><g id="kvg:07b9a-g8" kvg:position="top"><g id="kvg:07b9a-g9" kvg:element="&#20154;"><path id="kvg:07b9a-s7" kvg:type="&#12754;" d="M37.97,38.04c0.07,0.67,0.35,1.79-0.15,2.7c-3.47,6.29-11.42,17.09-25.83,25.82"/><path id="kvg:07b9a-s8" kvg:type="&#12751;" d="M38.75,44.5c7.61,2.39,15.79,8.16,19.5,12.25"/></g><g id="kvg:07b9a-g10" kvg:element="&#19968;"><path id="kvg:07b9a-s9" kvg:type="&#12752;" d="M26.45,61.07c0.46,0.14,2.58,0.65,3.04,0.64c4.74-0.16,10.27-0.46,18.78-1.49c0.76-0.09,1.86,0.06,2.24,0.13"/></g></g><g id="kvg:07b9a-g11" kvg:element="&#21475;" kvg:position="bottom"><path id="kvg:07b9a-s10" kvg:type="&#12753;" d="M24.5,72.25c0.41,0.58,0.91,1.98,1.01,2.74c1.38,9.98,1.98,11.94,2.91,20.26"/><path id="kvg:07b9a-s11" kvg:type="&#12757;b" d="M26.57,74.17c10.36-1.56,18.47-2.47,23.2-3.23c1.73-0.28,2.76,1.65,2.52,3.28c-1.02,6.76-2.17,9.49-3.21,17.03"/><path id="kvg:07b9a-s12" kvg:type="&#12752;b" d="M28.75,93.9c6.12-0.61,14.42-1.44,22.24-2.03"/></g></g></g><g id="kvg:07b9a-g12" kvg:element="&#20994;" kvg:variant="true" kvg:original="&#20992;" kvg:position="right"><path id="kvg:07b9a-s13" kvg:type="&#12753;" d="M66.6,42.62c0.69,0.85,1.18,1.83,1.24,4.64c0.28,13.44-0.01,30.19-0.01,34.77"/><path id="kvg:07b9a-s14" kvg:type="&#12762;" d="M86.45,34.9c0.74,0.69,1.25,1.49,1.32,3.77c0.3,10.92-0.69,48.89-0.69,52.6c0,9.86-6.41,0.62-7.53-0.31"/></g></g></g></g></svg>