<svg xmlns="http://www.w3.org/2000/svg" width="109" height="109" viewBox="0 0 109 109"><g xmlns:kvg="http://kanjivg.tagaini.net" id="kvg:StrokePaths_07bc7" style="fill:none;stroke:#000000;stroke-width:3;stroke-linecap:round;stroke-linejoin:round;"><g id="kvg:07bc7" kvg:element="&#31687;"><g id="kvg:07bc7-g1" kvg:element="&#31481;" kvg:variant="true" kvg:position="top" kvg:radical="general"><g id="kvg:07bc7-g2" kvg:position="left"><path id="kvg:07bc7-s1" kvg:type="&#12754;" d="M29.5,11c0.07,1.18-0.08,2.21-0.42,3.35c-1.32,4.44-5.46,11.02-10.59,16.9"/><path id="kvg:07bc7-s2" kvg:type="&#12752;b" d="M30.48,20.38c2.89,0,10.5-1.6,16.03-2.31c1.93-0.25,3.61-0.16,4.74-0.16"/><path id="kvg:07bc7-s3" kvg:type="&#12756;/&#12753;" d="M37.77,22.33c1.6,1.44,4.14,5.9,4.54,8.13"/></g><g id="kvg:07bc7-g3" kvg:position="right"><path id="kvg:07bc7-s4" kvg:type="&#12754;" d="M62.75,9.75c0.11,0.93-0.03,1.81-0.42,2.65c-1.4,4-4.31,9.59-8.33,14.1"/><path id="kvg:07bc7-s5" kvg:type="&#12752;b" d="M62.98,18.16c3.68,0,14.09-1.56,21.04-2.25c1.98-0.2,3.68-0.32,4.86-0.32"/><path id="kvg:07bc7-s6" kvg:type="&#12754;/&#12762;" d="M74.27,20.5c0.05,0.51-0.04,0.99-0.29,1.44c-0.8,1.77-2.61,4.19-5.98,6.81"/></g></g><g id="kvg:07bc7-g4" kvg:element="&#25153;" kvg:variant="true" kvg:position="bottom"><g id="kvg:07bc7-g5" kvg:element="&#25144;" kvg:position="tare"><path id="kvg:07bc7-s7" kvg:type="&#12754;/&#12752;" d="M76.72,30.5c-1.35,1.25-2.57,1.74-4.02,2.03c-11.07,2.22-22.95,3.6-39.45,5.26"/><path id="kvg:07bc7-s8" kvg:type="&#12754;" d="M30.69,36.7c0.93,0.93,1.12,2.25,1.06,4.22c-0.8,24.67-2.92,41-17.16,54.8"/><path id="kvg:07bc7-s9" kvg:type="&#12757;" d="M32.25,47.58c12.77-1.49,35.27-4.31,44.75-5.07c3.02-0.24,5.42,0.26,4.08,3.73c-1.12,2.9-1.33,3.64-2.48,7.76"/><path id="kvg:07bc7-s10" kvg:type="&#12752;" d="M31.43,59.81c12.7-1.31,26.95-2.69,42.7-4.17c2.9-0.27,5.51-0.42,7.63-0.49"/></g><g id="kvg:07bc7-g6" kvg:element="&#20874;"><g id="kvg:07bc7-g7" kvg:element="&#20866;"><path id="kvg:07bc7-s11" kvg:type="&#12753;" d="M33.74,68.5c1,1,1.34,2.63,1.41,3.88c0.3,5.81,0.77,15.58,1.14,22.26c0.12,2.21,0.23,4.09,0.33,5.37"/><path id="kvg:07bc7-s12" kvg:type="&#12742;a" d="M35.78,70.48c5.76-0.39,39.02-4.22,45.07-4.96c3.37-0.41,4.92,1.19,4.6,4.37c-0.7,7-3.55,21.75-4.61,25.27c-1.57,5.25-3.86,1.99-5.82,0.63"/></g><g id="kvg:07bc7-g8" kvg:element="&#24318;" kvg:variant="true"><g id="kvg:07bc7-g9" kvg:element="&#21313;" kvg:part="1" kvg:variant="true"><path id="kvg:07bc7-s13" kvg:type="&#12752;" d="M36.71,83.2c10.79-1.08,29.41-3.33,46.1-4.13"/></g><g id="kvg:07bc7-g10" kvg:element="&#20031;" kvg:variant="true"><path id="kvg:07bc7-s14" kvg:type="&#12753;" d="M49.65,72.05c0.9,0.9,1.14,2.07,1.14,3.17c0,1.53,0.04,10.2,0.06,16.28c0.01,1.96,0.01,3.66,0.01,4.76"/></g><g id="kvg:07bc7-g11" kvg:element="&#21313;" kvg:part="2" kvg:variant="true"><path id="kvg:07bc7-s15" kvg:type="&#12753;" d="M65,70.13c0.93,0.93,0.89,1.62,0.89,2.92c0,2.51,0.04,10.96,0.05,16.83c0.01,2.19,0.01,4.01,0.01,5.04"/></g></g></g></g></g></g></svg>