<svg xmlns="http://www.w3.org/2000/svg" width="109" height="109" viewBox="0 0 109 109"><g xmlns:kvg="http://kanjivg.tagaini.net" id="kvg:StrokePaths_07bcf" style="fill:none;stroke:#000000;stroke-width:3;stroke-linecap:round;stroke-linejoin:round;"><g id="kvg:07bcf" kvg:element="&#31695;"><g id="kvg:07bcf-g1" kvg:element="&#31481;" kvg:variant="true" kvg:position="top" kvg:radical="tradit"><g id="kvg:07bcf-g2" kvg:position="left"><path id="kvg:07bcf-s1" kvg:type="&#12754;" d="M26.75,9.25c0.03,0.56,0.08,1.44-0.07,2.25C25.81,16.23,20.82,26.63,14,33"/><path id="kvg:07bcf-s2" kvg:type="&#12752;b" d="M25.98,19.97c4.27,0,19.48-1.65,24.27-1.65"/><path id="kvg:07bcf-s3" kvg:type="&#12756;/&#12753;" d="M33.77,22.08c1.67,1.62,4.32,6.65,4.73,9.17"/></g><g id="kvg:07bcf-g3" kvg:position="right"><path id="kvg:07bcf-s4" kvg:type="&#12754;" d="M62.24,10c0.03,0.45,0.15,1.17-0.07,1.8C60.46,16.5,55.75,23.22,49.5,29"/><path id="kvg:07bcf-s5" kvg:type="&#12752;b" d="M62.98,18.85c4.93,0,22.99-3.05,28.52-3.05"/><path id="kvg:07bcf-s6" kvg:type="&#12754;/&#12762;" d="M76.76,20.75c0.03,0.19,0.07,0.5-0.07,0.78c-0.84,1.65-5.63,5.26-12.19,7.47"/></g></g><g id="kvg:07bcf-g4" kvg:position="bottom"><g id="kvg:07bcf-g5" kvg:element="&#29976;" kvg:position="left"><g id="kvg:07bcf-g6" kvg:element="&#24319;" kvg:part="1"><g id="kvg:07bcf-g7" kvg:element="&#21313;"><path id="kvg:07bcf-s7" kvg:type="&#12752;" d="M10.65,51.16c1.17,0.19,3.3,0.2,4.46,0.12c8.55-0.58,23.9-2.32,37.92-3.15c1.93-0.11,3.1,0.04,4.08,0.12"/><path id="kvg:07bcf-s8" kvg:type="&#12753;" d="M22.96,35.25c0.97,0.41,1.55,1.87,1.75,2.7c0.19,0.83,0,55.37-0.19,60.55"/></g><path id="kvg:07bcf-s9" kvg:type="&#12753;" d="M45.66,35.5c0.67,0.41,1.05,1.81,1.18,2.61c0.12,0.8-0.84,55.15-1.05,60.13"/></g><path id="kvg:07bcf-s10" kvg:type="&#12752;" d="M26.68,70.14c4.54-0.2,16.76-1.13,19.2-1.13"/><g id="kvg:07bcf-g8" kvg:element="&#24319;" kvg:part="2"><path id="kvg:07bcf-s11" kvg:type="&#12752;" d="M25.25,94.84c5.44-0.37,14.49-1.16,19.51-1.5"/></g></g><g id="kvg:07bcf-g9" kvg:element="&#27424;" kvg:position="right"><g id="kvg:07bcf-g10" kvg:position="top"><path id="kvg:07bcf-s12" kvg:type="&#12754;" d="M67.53,34c0.04,0.72,0.08,1.85-0.08,2.89C66.53,42.97,61.24,56.33,54,64.5"/><path id="kvg:07bcf-s13" kvg:type="&#12758;a" d="M65.97,48.71c0.86,0.3,2.5,0.78,3.8,0.51c1.58-0.32,19.02-4.21,20.52-4.37c7.57-0.83-2.21,10.82-3.79,12.41"/></g><g id="kvg:07bcf-g11" kvg:position="bottom"><path id="kvg:07bcf-s14" kvg:type="&#12754;" d="M74.25,54.5c0.07,1.03,0.15,2.65-0.13,4.14C71.38,73.05,66.1,87.94,51,98.25"/><path id="kvg:07bcf-s15" kvg:type="&#12751;" d="M72.75,66.75C76.19,73.5,88.62,89.41,94.27,95c1.19,1.18,2.1,1.88,3.23,2.25"/></g></g></g></g></g></svg>