<svg xmlns="http://www.w3.org/2000/svg" width="109" height="109" viewBox="0 0 109 109"><g xmlns:kvg="http://kanjivg.tagaini.net" id="kvg:StrokePaths_07be4" style="fill:none;stroke:#000000;stroke-width:3;stroke-linecap:round;stroke-linejoin:round;"><g id="kvg:07be4" kvg:element="&#31716;"><g id="kvg:07be4-g1" kvg:element="&#31481;" kvg:variant="true" kvg:position="top" kvg:radical="general" kvg:phon="&#31481;"><g id="kvg:07be4-g2" kvg:position="left"><path id="kvg:07be4-s1" kvg:type="&#12754;" d="M31.75,13.25c0.03,0.46,0.01,1.27-0.32,1.87C29,19.5,24.06,26.46,17.5,31.75"/><path id="kvg:07be4-s2" kvg:type="&#12752;b" d="M29.73,23.29c2.78,0,9.12-1.56,14.26-2.35c1.72-0.26,3.22-0.44,4.26-0.44"/><path id="kvg:07be4-s3" kvg:type="&#12756;/&#12753;" d="M36.27,24.83c1.34,1.3,3.46,5.36,3.79,7.38"/></g><g id="kvg:07be4-g3" kvg:position="right"><path id="kvg:07be4-s4" kvg:type="&#12754;" d="M63.24,10.5c0.03,0.41,0.12,1.07-0.06,1.66C61.81,16.49,58.02,22.67,53,28"/><path id="kvg:07be4-s5" kvg:type="&#12752;b" d="M64.48,19.16c3.77,0,12.64-1.28,19.52-2.1c1.77-0.21,3.29,0.03,4.37,0.03"/><path id="kvg:07be4-s6" kvg:type="&#12754;/&#12762;" d="M73.28,21.5c0.06,0.8,0.02,1.25-0.37,1.96c-0.83,1.5-2.44,3.38-4.05,5.25"/></g></g><g id="kvg:07be4-g4" kvg:element="&#39340;" kvg:position="bottom"><path id="kvg:07be4-s7" kvg:type="&#12753;" d="M34.29,37.07c0.69,0.69,1.02,1.55,1.02,2.49c0,3.96,0.03,17.19,0.03,26.81c0,1.91-0.06,3.58-0.09,4.87"/><path id="kvg:07be4-s8" kvg:type="&#12752;b" d="M36.14,38.34c8.28-0.73,25.25-2.46,32.01-3.23c2.06-0.23,4.55-0.67,6.6-0.27"/><path id="kvg:07be4-s9" kvg:type="&#12753;a" d="M52.82,38.3c0.75,0.75,1.17,1.7,1.17,2.86c0,4.78-0.11,18.74-0.11,26.46"/><path id="kvg:07be4-s10" kvg:type="&#12752;b" d="M36.49,49.2c7.92-0.81,23.43-2.3,29.89-3.01c2.06-0.23,4.54-0.66,6.6-0.26"/><path id="kvg:07be4-s11" kvg:type="&#12752;b" d="M36.69,59.28c8.09-0.83,23.92-1.97,30.07-2.58c2.01-0.2,4.16-0.59,6.17-0.2"/><path id="kvg:07be4-s12" kvg:type="&#12742;a" d="M36.14,70.45c9.28-1.08,35.24-3.95,49.83-4.72c4.53-0.24,5.97,1.99,5.27,4.91c-2.11,8.87-5.86,17.12-9.32,23.08c-4.41,7.61-7.92,3.16-10.74,0.71"/><g id="kvg:07be4-g5" kvg:element="&#28780;" kvg:variant="true" kvg:original="&#28779;"><path id="kvg:07be4-s13" kvg:type="&#12756;" d="M22.07,81.08c-0.2,5.17-1.2,10.17-2.68,14.71"/><path id="kvg:07be4-s14" kvg:type="&#12756;" d="M35.38,79.6c2.18,2.29,4.25,8.6,4.79,12.17"/><path id="kvg:07be4-s15" kvg:type="&#12756;" d="M49.8,77.79c1.56,2.01,4.2,7.71,4.91,11.38"/><path id="kvg:07be4-s16" kvg:type="&#12756;" d="M63.52,73.72c2.42,1.98,6.25,8.14,6.86,11.22"/></g></g></g></g></svg>