<svg xmlns="http://www.w3.org/2000/svg" width="109" height="109" viewBox="0 0 109 109"><g xmlns:kvg="http://kanjivg.tagaini.net" id="kvg:StrokePaths_07be0" style="fill:none;stroke:#000000;stroke-width:3;stroke-linecap:round;stroke-linejoin:round;"><g id="kvg:07be0" kvg:element="&#31712;"><g id="kvg:07be0-g1" kvg:element="&#31481;" kvg:variant="true" kvg:position="top" kvg:radical="general"><g id="kvg:07be0-g2" kvg:position="left"><path id="kvg:07be0-s1" kvg:type="&#12754;" d="M30.75,12.5c0,1.25-0.41,2.23-0.88,3.27c-2.62,4.1-5.87,8.73-13.12,14.98"/><path id="kvg:07be0-s2" kvg:type="&#12752;b" d="M30.73,21.04c0.74,0,1.84,0.15,3.16-0.01c3.74-0.45,10.02-1.77,14.13-2.36c1.74-0.25,3.23-0.42,4.23-0.17"/><path id="kvg:07be0-s3" kvg:type="&#12756;/&#12753;" d="M39.27,22.83c1.16,1.7,2.25,6.49,2.54,9.13"/></g><g id="kvg:07be0-g3" kvg:position="right"><path id="kvg:07be0-s4" kvg:type="&#12754;" d="M63.24,12.25c0,1.12-0.3,1.92-0.76,2.79C60,19.62,57.5,23.12,53,28.25"/><path id="kvg:07be0-s5" kvg:type="&#12752;b" d="M63.98,19.66c0.92,0,2.29,0.11,3.92-0.1c4.49-0.6,11.04-1.93,16.18-2.76c2.61-0.42,5.1-0.46,6.54-0.46"/><path id="kvg:07be0-s6" kvg:type="&#12754;/&#12762;" d="M74.53,22c0,0.75-0.06,1.13-0.32,1.66c-0.73,1.78-2.33,4.47-5.21,7.09"/></g></g><g id="kvg:07be0-g4" kvg:element="&#26781;" kvg:position="bottom"><g id="kvg:07be0-g5" kvg:element="&#25912;" kvg:part="1" kvg:position="left"><g id="kvg:07be0-g6" kvg:element="&#20155;" kvg:variant="true" kvg:original="&#20154;" kvg:position="left"><path id="kvg:07be0-s7" kvg:type="&#12754;" d="M33.08,33.97c0,1.41-0.56,3.33-1.22,4.65c-4.24,8.45-9.88,16.14-19.6,26.43"/><path id="kvg:07be0-s8" kvg:type="&#12753;" d="M24.17,54.05c0.95,0.95,1.24,2.29,1.24,3.3c0,8.05-0.02,20.63-0.02,30.27c0,3.87-0.01,7.26-0.01,9.7"/></g><g id="kvg:07be0-g7" kvg:element="&#20008;" kvg:position="right"><path id="kvg:07be0-s9" kvg:type="&#12753;" d="M36.79,47.09c0.93,0.93,1.24,2.41,1.24,3.97c0,8.13-0.01,20.97-0.02,29.19c0,3.42,0,6.05,0,7.2"/></g></g><g id="kvg:07be0-g8" kvg:position="right"><g id="kvg:07be0-g9" kvg:element="&#25912;" kvg:part="2" kvg:position="top"><g id="kvg:07be0-g10" kvg:element="&#25908;" kvg:variant="true" kvg:original="&#25909;"><g id="kvg:07be0-g11" kvg:position="top"><path id="kvg:07be0-s10" kvg:type="&#12754;" d="M60.92,33.14c0,0.98-0.64,1.92-1.15,2.82C57.5,40,53.25,45.75,46.44,50.73"/><path id="kvg:07be0-s11" kvg:type="&#12752;" d="M60.05,40.85c1.74,0.27,3.49,0.25,5.23-0.06c5.17-0.65,11.35-1.66,18.98-3.01c1.88-0.33,3.78-0.31,5.68-0.22"/></g><g id="kvg:07be0-g12" kvg:element="&#20034;" kvg:position="bottom"><g id="kvg:07be0-g13" kvg:element="&#20031;"><path id="kvg:07be0-s12" kvg:type="&#12754;" d="M76.95,42.94c-0.34,1.22-0.94,2.25-1.79,3.1c-5.91,6.36-11.69,11.61-29.09,17.7"/></g><path id="kvg:07be0-s13" kvg:type="&#12751;" d="M55.12,46.21c5.32,0.58,18.05,9.01,28.78,13.28c3.02,1.23,6.14,2.11,9.35,2.64"/></g></g></g><g id="kvg:07be0-g14" kvg:element="&#26408;" kvg:position="bottom"><path id="kvg:07be0-s14" kvg:type="&#12752;" d="M46.72,72.97c2.68,0.43,5.33,0.17,8.04-0.03c7.74-0.57,19.12-1.69,28.49-2.47c2.86-0.24,5.62-0.47,8.4,0.19"/><path id="kvg:07be0-s15" kvg:type="&#12753;" d="M66.84,60.95c0.86,0.86,1.01,2.05,1.01,2.99c0,3.26-0.05,16.53-0.08,25.93c-0.01,4.15-0.02,7.55-0.02,9"/><path id="kvg:07be0-s16" kvg:type="&#12754;" d="M66.37,72.78c-0.62,1.72-1.18,2.68-2.31,4.01c-5,5.91-13.35,12.14-20.11,15.07"/><path id="kvg:07be0-s17" kvg:type="&#12751;" d="M68.91,73.35c3.91,3.93,12.02,10.62,17.98,14.84c2.64,1.91,5.5,3.45,8.59,4.62"/></g></g></g></g></g></svg>