<svg xmlns="http://www.w3.org/2000/svg" width="109" height="109" viewBox="0 0 109 109"><g xmlns:kvg="http://kanjivg.tagaini.net" id="kvg:StrokePaths_07be5" style="fill:none;stroke:#000000;stroke-width:3;stroke-linecap:round;stroke-linejoin:round;"><g id="kvg:07be5" kvg:element="&#31717;"><g id="kvg:07be5-g1" kvg:element="&#31481;" kvg:variant="true" kvg:position="top" kvg:radical="general"><g id="kvg:07be5-g2" kvg:position="left"><path id="kvg:07be5-s1" kvg:type="&#12754;" d="M30.74,9c0.04,0.55,0.09,1.41-0.09,2.2c-1.06,4.64-7.11,14.82-15.4,21.05"/><path id="kvg:07be5-s2" kvg:type="&#12752;b" d="M28.23,20.29c4.22,0,17.78-3.29,22.52-3.29"/><path id="kvg:07be5-s3" kvg:type="&#12756;/&#12753;" d="M35.77,22.08c2.04,1.3,5.28,5.36,5.79,7.38"/></g><g id="kvg:07be5-g3" kvg:position="right"><path id="kvg:07be5-s4" kvg:type="&#12754;" d="M62.25,9.75c0.03,0.42,0.12,1.11-0.06,1.7c-1.37,4.46-5.16,10.82-10.19,16.3"/><path id="kvg:07be5-s5" kvg:type="&#12752;b" d="M61.23,18.6c5.06,0,24.59-3.1,30.27-3.1"/><path id="kvg:07be5-s6" kvg:type="&#12754;/&#12762;" d="M76.77,20.3c0.03,0.2,0.06,0.53-0.06,0.82c-0.68,1.73-4.6,5.54-9.96,7.87"/></g></g><g id="kvg:07be5-g4" kvg:element="&#26647;" kvg:position="bottom"><g id="kvg:07be5-g5" kvg:element="&#35199;" kvg:variant="true" kvg:original="&#35198;" kvg:position="top"><path id="kvg:07be5-s7" kvg:type="&#12752;" d="M21.99,35.88c1.42,0.67,4.02,0.79,5.45,0.71c13.11-0.8,46.07-5.08,55.1-5.37c2.38-0.07,3.79,0.35,4.98,0.69"/><path id="kvg:07be5-s8" kvg:type="&#12753;" d="M23.88,46.37c0.32,0.28,0.64,0.52,0.78,0.87c1.3,3.35,2.44,11.04,3.09,15.48"/><path id="kvg:07be5-s9" kvg:type="&#12757;" d="M25.79,47.34c10.25-1.1,51.69-4.71,56.98-5.08c1.93-0.13,3,1.34,2.82,2.17c-1.35,6.32-1.97,9.56-4.42,14.32"/><path id="kvg:07be5-s10" kvg:type="&#12754;" d="M43.12,36.32c0.78,0.47,1.34,2.07,1.42,3.01c0.28,2.77,0.96,13.57,1.65,20.03"/><path id="kvg:07be5-s11" kvg:type="&#12767;" d="M62.85,36.02c0.9,0.98,1.57,2.32,1.25,4.27c-0.82,5.13-0.82,9.4-2.19,17.73"/><path id="kvg:07be5-s12" kvg:type="&#12752;" d="M27.99,60.72c5.8-0.26,46.31-3.54,53.68-3.81"/></g><g id="kvg:07be5-g6" kvg:element="&#26408;" kvg:position="bottom"><path id="kvg:07be5-s13" kvg:type="&#12752;" d="M17.83,73.14c1.8,0.34,3.84,0.44,5.91,0.31c10.52-0.64,45.99-3.55,61.9-4.32c2.05-0.1,3.34,0.04,5.39,0.27"/><path id="kvg:07be5-s14" kvg:type="&#12753;" d="M53.59,61c0.4,0.39,0.71,1.72,0.71,2.52c0,8.14,0,32.38-0.08,37.23"/><path id="kvg:07be5-s15" kvg:type="&#12754;" d="M53.5,71.75C45.78,81.22,32.91,92.76,15.25,98"/><path id="kvg:07be5-s16" kvg:type="&#12751;" d="M54.79,72.57c5.21,4.93,23.96,17.68,32,21.89c1.79,0.94,3.22,1.49,4.96,1.79"/></g></g></g></g></svg>