<svg xmlns="http://www.w3.org/2000/svg" width="109" height="109" viewBox="0 0 109 109"><g xmlns:kvg="http://kanjivg.tagaini.net" id="kvg:StrokePaths_07c12" style="fill:none;stroke:#000000;stroke-width:3;stroke-linecap:round;stroke-linejoin:round;"><g id="kvg:07c12" kvg:element="&#31762;"><g id="kvg:07c12-g1" kvg:element="&#31639;" kvg:variant="true" kvg:position="top"><g id="kvg:07c12-g2" kvg:element="&#31481;" kvg:variant="true" kvg:position="top" kvg:radical="general"><g id="kvg:07c12-g3" kvg:position="left"><path id="kvg:07c12-s1" kvg:type="&#12754;" d="M28,10.56c0.03,0.49,0.07,1.26-0.07,1.96c-0.85,4.13-5.74,13.19-12.43,18.74"/><path id="kvg:07c12-s2" kvg:type="&#12752;b" d="M27.23,20.1c4.32,0,18.17-3.57,23.02-3.57"/><path id="kvg:07c12-s3" kvg:type="&#12756;/&#12753;" d="M34.27,20.79c2.04,1.55,5.28,6.38,5.79,8.8"/></g><g id="kvg:07c12-g4" kvg:position="right"><path id="kvg:07c12-s4" kvg:type="&#12754;" d="M60.75,10c0.03,0.4,0.11,1.04-0.05,1.59c-1.24,4.18-4.66,10.14-9.19,15.27"/><path id="kvg:07c12-s5" kvg:type="&#12752;b" d="M59.48,18.61c4.73,0,24.58-2.83,29.9-2.83"/><path id="kvg:07c12-s6" kvg:type="&#12754;/&#12762;" d="M71.78,19.73c0.01,0.22,0.03,0.57-0.03,0.88c-0.36,1.86-2.42,5.94-5.25,8.44"/></g></g><g id="kvg:07c12-g5" kvg:position="bottom"><g id="kvg:07c12-g6" kvg:element="&#30446;"><path id="kvg:07c12-s7" kvg:type="&#12753;" d="M31.71,32.86c0.29,0.53,0.54,1.21,0.93,2.08c0.27,0.59,2.65,19.61,2.65,19.92"/><path id="kvg:07c12-s8" kvg:type="&#12757;a" d="M34.11,34.17c3.29-0.17,33.38-2.46,36.37-2.64c2.5-0.15,3.51,1.23,3.26,3.74c-0.29,2.91-1,10.05-2.47,18.25"/><path id="kvg:07c12-s9" kvg:type="&#12752;a" d="M34.57,40.25c6.49-0.29,32.89-2.36,38.17-2.51"/><path id="kvg:07c12-s10" kvg:type="&#12752;a" d="M35,46.42c8.72-0.51,28.9-2,37.37-2.24"/><path id="kvg:07c12-s11" kvg:type="&#12752;a" d="M34.91,53.15c6.54-0.19,28.25-1.62,36.72-1.86"/></g><g id="kvg:07c12-g7" kvg:element="&#24318;" kvg:variant="true"><g id="kvg:07c12-g8" kvg:element="&#22823;"><g id="kvg:07c12-g9" kvg:element="&#21313;" kvg:part="1" kvg:partial="true"><path id="kvg:07c12-s12" kvg:type="&#12752;" d="M14.62,62.99c1.29,0.59,4.72,0.67,7.46,0.52c13.66-0.76,45.81-3.13,62.43-3.98c2.86-0.15,5.15-0.08,7.73,0.39"/></g><g id="kvg:07c12-g10" kvg:element="&#20031;"><path id="kvg:07c12-s13" kvg:type="&#12754;" d="M45,55.3c0.24,1.15-0.25,2.71-0.72,3.43C36.25,71,24.5,80.5,13.25,86.44"/></g><path id="kvg:07c12-s14" kvg:type="&#12751;" d="M63.75,60.92c5.87,5.17,19.55,18.34,25.41,21.8c1.99,1.17,2.69,1.35,3.59,1.46"/></g></g></g></g><g id="kvg:07c12-g11" kvg:position="bottom"><g id="kvg:07c12-g12" kvg:element="&#20031;"><path id="kvg:07c12-s15" kvg:type="&#12754;" d="M46.31,70c0.06,0.55,0.21,1.57-0.12,2.2c-3.94,7.55-11.44,14.55-21.69,21.09"/></g><g id="kvg:07c12-g13" kvg:element="&#21430;"><path id="kvg:07c12-s16" kvg:type="&#12764;" d="M57.04,70.5c0.44,0.48,0.28,2.14-0.06,2.72c-4.98,8.53-9.06,14.77-15.14,20.2c-1.92,1.72-1.9,3.24,0.89,2.72c7.52-1.39,20.27-4.89,30.59-6.92"/><path id="kvg:07c12-s17" kvg:type="&#12756;" d="M66.37,80.54c4.47,3.25,11.55,13.37,12.67,18.43"/></g></g></g></g></svg>