<svg xmlns="http://www.w3.org/2000/svg" width="109" height="109" viewBox="0 0 109 109"><g xmlns:kvg="http://kanjivg.tagaini.net" id="kvg:StrokePaths_07c3e" style="fill:none;stroke:#000000;stroke-width:3;stroke-linecap:round;stroke-linejoin:round;"><g id="kvg:07c3e" kvg:element="&#31806;"><g id="kvg:07c3e-g1" kvg:element="&#31481;" kvg:variant="true" kvg:position="top" kvg:radical="general"><g id="kvg:07c3e-g2" kvg:position="left"><path id="kvg:07c3e-s1" kvg:type="&#12754;" d="M30.5,11.75c0.04,0.44,0.08,1.12-0.07,1.75c-0.89,3.69-5.97,11.79-12.93,16.75"/><path id="kvg:07c3e-s2" kvg:type="&#12752;b" d="M29.23,20.79c3.71,0,16.11-2.29,20.27-2.29"/><path id="kvg:07c3e-s3" kvg:type="&#12756;/&#12753;" d="M35.52,21.83c1.6,1.44,4.14,5.9,4.54,8.13"/></g><g id="kvg:07c3e-g3" kvg:position="right"><path id="kvg:07c3e-s4" kvg:type="&#12754;" d="M61.75,11c0.03,0.31,0.11,0.81-0.05,1.25c-1.2,3.28-4.53,7.96-8.95,12"/><path id="kvg:07c3e-s5" kvg:type="&#12752;b" d="M59.98,19.16c4.73,0,22.08-3.57,27.4-3.57"/><path id="kvg:07c3e-s6" kvg:type="&#12754;/&#12762;" d="M73.78,18.25c0.01,0.24,0.03,0.61-0.03,0.95c-0.36,2-2.42,6.37-5.25,9.05"/></g></g><g id="kvg:07c3e-g4" kvg:element="&#24265;" kvg:position="bottom"><g id="kvg:07c3e-g5" kvg:element="&#24191;" kvg:position="tare"><path id="kvg:07c3e-s7" kvg:type="&#12753;a" d="M51.99,26.38c0.6,0.27,1.86,2.01,1.98,2.54c0.12,0.54,0.06,3.24-0.06,6.59"/><g id="kvg:07c3e-g6" kvg:element="&#21378;"><path id="kvg:07c3e-s8" kvg:type="&#12752;" d="M24.07,37.59c1.44,0.45,4.09,0.53,5.53,0.45c15-0.76,35.89-3.8,49.48-4.81c2.39-0.18,3.84,0.22,5.05,0.45"/><path id="kvg:07c3e-s9" kvg:type="&#12754;" d="M28.69,39.92c0.04,1.28,0.09,3.3-0.08,5.14c-1.02,10.84-3.32,37.14-14.33,48.81"/></g></g><g id="kvg:07c3e-g7" kvg:element="&#20860;"><g id="kvg:07c3e-g8" kvg:element="&#20843;" kvg:variant="true" kvg:position="top"><g id="kvg:07c3e-g9" kvg:position="left"><path id="kvg:07c3e-s10" kvg:type="&#12756;" d="M50.24,38.25c0.03,0.18,0.06,0.46-0.05,0.71c-0.67,1.5-4.47,4.78-9.68,6.79"/></g><g id="kvg:07c3e-g10" kvg:position="right"><path id="kvg:07c3e-s11" kvg:type="&#12754;" d="M66.83,36.73c0.03,0.18,0.07,0.47-0.07,0.73c-0.81,1.55-5.43,4.95-11.77,7.03"/></g></g><g id="kvg:07c3e-g11" kvg:position="bottom"><path id="kvg:07c3e-s12" kvg:type="&#12752;" d="M32.38,51.14c1.01,0.35,2.85,0.42,3.85,0.35C42.98,51,68.13,47.7,78.17,47c1.67-0.12,2.68,0.17,3.52,0.34"/><g id="kvg:07c3e-g12" kvg:element="&#11925;" kvg:variant="true" kvg:original="&#24401;"><path id="kvg:07c3e-s13" kvg:type="&#12757;" d="M35.55,58.73c1.44,0.17,2.22,0.51,4.1,0.33c10.25-0.99,26.13-3.6,35.35-4.1c1.84-0.1,2.87,1.16,2.46,2.81c-1.1,4.42-2.01,6.46-3.43,13.84"/><path id="kvg:07c3e-s14" kvg:type="&#12752;" d="M32.75,67.16c1.84,0.17,3.29,0.48,5.33,0.33c17.84-1.32,30.97-3.2,43.63-4.2c2.25-0.18,4.1,0.33,5.12,0.5"/><path id="kvg:07c3e-s15" kvg:type="&#12752;c" d="M34.77,75.5c1.02,0.1,2.87,0.36,4.1,0.3c11.27-0.5,23.52-2.92,33.77-3.12c1.64-0.03,2.67,0,3.9,0.1"/></g><g id="kvg:07c3e-g13" kvg:element="&#20008;"><path id="kvg:07c3e-s16" kvg:type="&#12753;" d="M48.04,42.44c0.94,0.38,1.5,1.72,1.69,2.48c0.19,0.76,0,49.81-0.19,54.58"/></g><g id="kvg:07c3e-g14" kvg:element="&#20008;"><path id="kvg:07c3e-s17" kvg:type="&#12753;" d="M61.05,42.15c0.94,0.38,1.5,1.72,1.69,2.48c0.19,0.76,0,50.33-0.19,55.1"/></g><path id="kvg:07c3e-s18" kvg:type="&#12754;" d="M49.3,76.3c-4.3,6.87-15.49,16.59-24.44,20.48"/><path id="kvg:07c3e-s19" kvg:type="&#12751;" d="M62.89,74.29c3.98,2.76,21.46,15.81,25.79,18.52c1.47,0.92,2.73,1.31,4.2,1.58"/></g></g></g></g></g></svg>