<svg xmlns="http://www.w3.org/2000/svg" width="109" height="109" viewBox="0 0 109 109"><g xmlns:kvg="http://kanjivg.tagaini.net" id="kvg:StrokePaths_07c43" style="fill:none;stroke:#000000;stroke-width:3;stroke-linecap:round;stroke-linejoin:round;"><g id="kvg:07c43" kvg:element="&#31811;"><g id="kvg:07c43-g1" kvg:element="&#31481;" kvg:variant="true" kvg:position="top" kvg:radical="general"><g id="kvg:07c43-g2" kvg:position="left"><path id="kvg:07c43-s1" kvg:type="&#12754;" d="M25.5,10.25c0.04,0.54,0.08,1.4-0.08,2.18c-0.95,4.59-6.43,14.66-13.92,20.82"/><path id="kvg:07c43-s2" kvg:type="&#12752;b" d="M25.73,20.31c4.18,0,18.08-2.58,22.77-2.58"/><path id="kvg:07c43-s3" kvg:type="&#12756;/&#12753;" d="M31.5,21.5c1.77,1.54,4.56,6.35,5,8.75"/></g><g id="kvg:07c43-g3" kvg:position="right"><path id="kvg:07c43-s4" kvg:type="&#12754;" d="M60.49,8.5c0.03,0.46,0.14,1.2-0.07,1.84C58.88,15.17,54.63,22.07,49,28"/><path id="kvg:07c43-s5" kvg:type="&#12752;b" d="M60.98,17.71c5.21,0,24.3-2.68,30.15-2.68"/><path id="kvg:07c43-s6" kvg:type="&#12754;/&#12762;" d="M74.49,20c0.02,0.16,0.05,0.41-0.05,0.64c-0.56,1.35-3.79,4.3-8.2,6.11"/></g></g><g id="kvg:07c43-g4" kvg:element="&#30435;" kvg:position="bottom"><g id="kvg:07c43-g5" kvg:position="top"><g id="kvg:07c43-g6" kvg:element="&#33251;" kvg:position="left"><path id="kvg:07c43-s7" kvg:type="&#12753;" d="M21.91,35.68c0.32,0.22,0.51,0.99,0.58,1.43c0.06,0.44,0,31.03-0.06,33.78"/><path id="kvg:07c43-s8" kvg:type="&#12752;b" d="M22.84,36.66c4.57-0.14,19.56-2.58,26.68-2.87c1.08-0.04,1.73-0.1,2.27,0.01"/><path id="kvg:07c43-s9" kvg:type="&#12753;a" d="M36.05,35.53c0.8,0.42,0.96,0.75,0.96,1.63c0.02,2.04-0.02,7.1-0.09,8.83"/><path id="kvg:07c43-s10" kvg:type="&#12757;b" d="M23.77,47.77c7.42-0.67,17.18-1.87,22.33-2.33c2.08-0.18,2.66,0.57,2.37,1.55c-0.52,1.78-1.3,4.98-1.83,7.12"/><path id="kvg:07c43-s11" kvg:type="&#12752;b" d="M24.05,57.95c3.07-0.2,20.79-2.26,23.68-2.38"/><path id="kvg:07c43-s12" kvg:type="&#12753;a" d="M36.48,56.61c0.19,0.5,0.73,0.85,0.73,1.54c0,2.29-0.02,4.97-0.06,6.68"/><path id="kvg:07c43-s13" kvg:type="&#12752;b" d="M23.35,68.69c5.6-0.16,21.18-2.3,28.48-2.46c1.08-0.02,1.73-0.03,2.27-0.01"/></g><g id="kvg:07c43-g7" kvg:position="right"><path id="kvg:07c43-s14" kvg:type="&#12754;" d="M66.93,32c0.03,0.45,0.22,1.22-0.06,1.82c-2.12,4.44-5.96,11.28-11.43,17.41"/><path id="kvg:07c43-s15" kvg:type="&#12752;" d="M64.46,42.15c0.94,0.24,2.64,0.23,3.58,0.19c6.85-0.26,12.62-1.5,18.53-2.21c1.54-0.19,2.98-0.18,3.76-0.06"/><path id="kvg:07c43-s16" kvg:type="&#12752;" d="M60.61,58.81c0.88,0.1,2.5,0.13,3.38,0.1c5.61-0.18,15.39-1.13,22.39-1.26c1.45-0.06,2.82-0.07,4.14-0.01"/></g></g><g id="kvg:07c43-g8" kvg:element="&#30399;" kvg:position="bottom"><path id="kvg:07c43-s17" kvg:type="&#12753;a" d="M26.2,74.98c0.62,0.51,1.43,0.62,1.57,1.06c1.06,3.5,1.24,13.53,1.98,19.84"/><path id="kvg:07c43-s18" kvg:type="&#12757;b" d="M28.99,76.88c12.04-0.99,49.85-3.11,51.44-3.14c1.59-0.02,2.85,0.85,2.57,2.01c-0.73,2.96-1.75,11-3.25,18.75"/><path id="kvg:07c43-s19" kvg:type="&#12753;a" d="M46.43,77.63c0.06,0.33,0.15,0.6,0.15,1.02c0.09,5.69,0.21,9.82,0.37,15.77"/><path id="kvg:07c43-s20" kvg:type="&#12753;a" d="M62.58,76.56c0.12,0.39,0.24,1.07,0.22,1.58c-0.2,5.16-0.55,8.93-0.79,15.54"/><path id="kvg:07c43-s21" kvg:type="&#12752;" d="M11.41,96.93c1.62,0.42,4.57,0.4,6.19,0.33c20.09-0.92,42.79-2.16,73.7-2.91c2.69-0.07,4.3,0.13,5.65,0.33"/></g></g></g></g></svg>