<svg xmlns="http://www.w3.org/2000/svg" width="109" height="109" viewBox="0 0 109 109"><g xmlns:kvg="http://kanjivg.tagaini.net" id="kvg:StrokePaths_07c75" style="fill:none;stroke:#000000;stroke-width:3;stroke-linecap:round;stroke-linejoin:round;"><g id="kvg:07c75" kvg:element="&#31861;"><g id="kvg:07c75-g1" kvg:element="&#31859;" kvg:variant="true" kvg:position="left" kvg:radical="general"><path id="kvg:07c75-s1" kvg:type="&#12756;" d="M15.44,26.89c2.92,2.26,7.33,8.65,8.06,12.16"/><path id="kvg:07c75-s2" kvg:type="&#12754;" d="M48.26,23.47c0.02,0.35,0.05,0.9-0.05,1.4c-0.57,2.96-3.87,9.45-8.39,13.42"/><path id="kvg:07c75-s3" kvg:type="&#12752;" d="M13.1,47.05c0.67,0.16,2.45,0.55,4.23,0.47c6.37-0.31,18.99-1.85,26.19-2.35c1.77-0.12,2.22-0.16,3.34,0"/><path id="kvg:07c75-s4" kvg:type="&#12753;" d="M30.52,16.46c0.88,0.45,1.41,2.03,1.59,2.94s0,70.74-0.18,76.39"/><path id="kvg:07c75-s5" kvg:type="&#12754;" d="M32.52,47.46C29.26,57.95,21.33,72.67,14,78.73"/><path id="kvg:07c75-s6" kvg:type="&#12756;/&#12751;" d="M35.12,53.82c5.53,3.1,9.6,6.67,11.65,11.9"/></g><g id="kvg:07c75-g2" kvg:element="&#21313;" kvg:position="right"><path id="kvg:07c75-s7" kvg:type="&#12752;" d="M53.53,46.4c1.53,0.5,3.27,0.66,5.03,0.5c8.97-0.82,22.07-1.68,35.64-2.64c1.75-0.12,2.84,0.08,4.6,0.44"/><path id="kvg:07c75-s8" kvg:type="&#12753;" d="M72.6,14.75c1.21,0.48,2.17,2.14,2.17,3.14c0,10.13,0,73.58-0.24,79.61"/></g></g></g></svg>