<svg xmlns="http://www.w3.org/2000/svg" width="109" height="109" viewBox="0 0 109 109"><g xmlns:kvg="http://kanjivg.tagaini.net" id="kvg:StrokePaths_07c90" style="fill:none;stroke:#000000;stroke-width:3;stroke-linecap:round;stroke-linejoin:round;"><g id="kvg:07c90" kvg:element="&#31888;"><g id="kvg:07c90-g1" kvg:element="&#31859;" kvg:variant="true" kvg:position="left" kvg:radical="general"><path id="kvg:07c90-s1" kvg:type="&#12756;" d="M14.19,25.39c3.74,2.63,9.38,10.07,10.31,14.16"/><path id="kvg:07c90-s2" kvg:type="&#12754;" d="M46.26,22.47c0.02,0.31,0.04,0.81-0.04,1.26c-0.51,2.66-3.42,8.49-7.4,12.06"/><path id="kvg:07c90-s3" kvg:type="&#12752;" d="M12.1,45.94c0.73,0.18,2.67,0.65,4.6,0.55c6.94-0.36,20.67-2.19,28.52-2.78c1.93-0.15,2.42-0.18,3.63,0"/><path id="kvg:07c90-s4" kvg:type="&#12753;" d="M30.52,15.46c0.88,0.45,1.41,2.03,1.59,2.94s0,71.24-0.18,76.89"/><path id="kvg:07c90-s5" kvg:type="&#12754;" d="M32.02,45.46C28.54,57.29,21.25,72,12.25,80.73"/><path id="kvg:07c90-s6" kvg:type="&#12756;/&#12751;" d="M35.12,51.57c5.53,3.16,8.88,6.93,11.65,12.15"/></g><g id="kvg:07c90-g2" kvg:element="&#25144;" kvg:position="right"><path id="kvg:07c90-s7" kvg:type="&#12752;" d="M53.88,18.26c0.94,0.3,3.66,0.33,4.6,0.3c9.77-0.34,20.02-1.81,31.86-2.4c1.56-0.08,3.5,0.14,4.29,0.29"/><path id="kvg:07c90-s8" kvg:type="&#12757;c" d="M52.35,37.38c1.15,0.37,2.89,1.05,5.15,0.78c11.75-1.4,26.14-2.73,33.5-3.4c1.99-0.18,4,1.25,3.25,4c-1.33,4.87-2.25,10-4,18.25"/><path id="kvg:07c90-s9" kvg:type="&#12752;b" d="M57.25,58.75c1.25,0,25.52-1.75,35.5-1.75"/><path id="kvg:07c90-s10" kvg:type="&#12754;" d="M57.06,38.18c0.04,1.46,0.27,2.68,0.28,4.78c0.11,26.48-2.84,44.29-13.59,53.54"/></g></g></g></svg>