<svg xmlns="http://www.w3.org/2000/svg" width="109" height="109" viewBox="0 0 109 109"><g xmlns:kvg="http://kanjivg.tagaini.net" id="kvg:StrokePaths_07c92" style="fill:none;stroke:#000000;stroke-width:3;stroke-linecap:round;stroke-linejoin:round;"><g id="kvg:07c92" kvg:element="&#31890;"><g id="kvg:07c92-g1" kvg:element="&#31859;" kvg:variant="true" kvg:position="left" kvg:radical="general"><path id="kvg:07c92-s1" kvg:type="&#12756;" d="M16.44,26.39c2.29,2.21,5.49,8.47,6.06,11.91"/><path id="kvg:07c92-s2" kvg:type="&#12754;" d="M47.51,20.72c0.13,0.78,0.01,1.5-0.35,2.18c-1.36,3.41-3.48,7.85-7.59,12.65"/><path id="kvg:07c92-s3" kvg:type="&#12752;" d="M14.6,46.02c2.77,0.48,4.14,0.38,6.38,0.03c5.61-0.89,13.27-2.79,19.79-3.43c1.92-0.19,3.22-0.57,5.08-0.09"/><path id="kvg:07c92-s4" kvg:type="&#12753;" d="M31.02,15.71c1.01,1.01,1.09,2.29,1.09,3.44c0,0.78-0.1,49.85-0.1,68.6c0,3.35-0.01,5.34-0.01,7.12"/><path id="kvg:07c92-s5" kvg:type="&#12754;" d="M31.27,44.96c0,2.41-0.93,5.38-1.86,7.85C25.34,63.63,20.88,71,12.5,81.48"/><path id="kvg:07c92-s6" kvg:type="&#12756;/&#12751;" d="M35.12,53.82c4,3.18,6.5,5.06,9.4,10.15"/></g><g id="kvg:07c92-g2" kvg:element="&#31435;" kvg:position="right" kvg:phon="&#31435;"><g id="kvg:07c92-g3" kvg:element="&#20128;" kvg:position="top"><path id="kvg:07c92-s7" kvg:type="&#12753;a" d="M68.51,16c1.37,1.37,1.74,2.88,1.74,5.06c0,4.07,0,6.89,0,17.94"/><path id="kvg:07c92-s8" kvg:type="&#12752;" d="M51.5,41.45c1.96,0.55,4.72,0.25,6.75,0.01c7.26-0.89,17.9-2.59,26.5-3.07c2.54-0.14,4.76,0.02,7.26,0.44"/></g><g id="kvg:07c92-g4" kvg:position="bottom"><path id="kvg:07c92-s9" kvg:type="&#12756;" d="M55.25,51.5c3.62,9.69,5.67,21.36,6,27.75"/><path id="kvg:07c92-s10" kvg:type="&#12754;" d="M83.88,46c0.37,1.25,0.11,2.5-0.12,3.58C82.12,57.25,77.5,75.12,75.75,82"/><path id="kvg:07c92-s11" kvg:type="&#12752;" d="M42.25,86.8c2.9,0.78,5.95,0.55,8.88,0.27C62.33,86,77,84.25,89.25,84.02c2.53-0.05,5.25-0.02,8,0.55"/></g></g></g></g></svg>