<svg xmlns="http://www.w3.org/2000/svg" width="109" height="109" viewBox="0 0 109 109"><g xmlns:kvg="http://kanjivg.tagaini.net" id="kvg:StrokePaths_07c97" style="fill:none;stroke:#000000;stroke-width:3;stroke-linecap:round;stroke-linejoin:round;"><g id="kvg:07c97" kvg:element="&#31895;"><g id="kvg:07c97-g1" kvg:element="&#31859;" kvg:variant="true" kvg:position="left" kvg:radical="general"><path id="kvg:07c97-s1" kvg:type="&#12756;" d="M16.19,27.77c2.38,2.42,5.96,9.27,6.56,13.04"/><path id="kvg:07c97-s2" kvg:type="&#12754;" d="M44.76,23.97c0.12,0.75,0,1.45-0.35,2.1c-1.3,3.33-2.69,6.58-6.09,11.47"/><path id="kvg:07c97-s3" kvg:type="&#12752;" d="M12.35,47.27c2.08,0.89,4.56,0.82,6.78,0.62c6.43-0.57,17.37-1.84,22.88-2.45c1.34-0.15,2.75-0.26,4.1,0.08"/><path id="kvg:07c97-s4" kvg:type="&#12753;" d="M29.77,14.96c0.94,0.94,1.59,2.41,1.59,3.94c0,0.75,0.05,47.71-0.08,68.1c-0.03,4.55-0.06,7.75-0.09,8.79"/><path id="kvg:07c97-s5" kvg:type="&#12754;" d="M30.52,47.71c0,1.79-0.77,4.71-1.65,6.68C24.62,64,19.75,72.5,11,82.98"/><path id="kvg:07c97-s6" kvg:type="&#12756;/&#12751;" d="M34.12,54.07c3.38,2.31,6.63,5.93,9.4,10.9"/></g><g id="kvg:07c97-g2" kvg:element="&#19988;" kvg:position="right" kvg:phon="&#19988;"><g id="kvg:07c97-g3" kvg:element="&#26376;"><path id="kvg:07c97-s7" kvg:type="&#12753;a" d="M55.2,25.47c1.04,1.04,1.16,2.41,1.16,3.88c0,0.97-0.12,54.03-0.12,58.9"/><path id="kvg:07c97-s8" kvg:type="&#12757;b" d="M57.01,27.04c8.62-1.17,21.79-3.05,23.46-3.21c2.99-0.29,4.76,0.67,4.76,3.93c0,6,0.07,37.51-0.03,56.47"/><path id="kvg:07c97-s9" kvg:type="&#12752;a" d="M57.34,46.67c7.65-0.94,20.16-2.54,26.88-2.83"/><path id="kvg:07c97-s10" kvg:type="&#12752;a" d="M57.54,65.88c7.21-0.63,19.55-1.91,26.45-1.95"/></g><g id="kvg:07c97-g4" kvg:element="&#19968;"><path id="kvg:07c97-s11" kvg:type="&#12752;" d="M42.93,89.34c2.57,0.41,5.79,0.34,8.44,0.15c11.54-0.82,29.24-2.35,40.62-2.67c2.58-0.07,5.19,0.06,7.73,0.59"/></g></g></g></g></svg>