<svg xmlns="http://www.w3.org/2000/svg" width="109" height="109" viewBox="0 0 109 109"><g xmlns:kvg="http://kanjivg.tagaini.net" id="kvg:StrokePaths_07cad" style="fill:none;stroke:#000000;stroke-width:3;stroke-linecap:round;stroke-linejoin:round;"><g id="kvg:07cad" kvg:element="&#31917;"><g id="kvg:07cad-g1" kvg:element="&#31859;" kvg:variant="true" kvg:position="left" kvg:radical="general"><path id="kvg:07cad-s1" kvg:type="&#12756;" d="M12,25c3.26,2.52,8.19,9.64,9,13.55"/><path id="kvg:07cad-s2" kvg:type="&#12754;" d="M44.5,21.25c0.02,0.34,0.04,0.88-0.04,1.37c-0.51,2.89-3.45,9.24-7.46,13.13"/><path id="kvg:07cad-s3" kvg:type="&#12752;" d="M9.75,45.98c0.62,0.13,2.28,0.45,3.92,0.38c5.91-0.25,22.9-2.09,29.59-2.5c1.64-0.1,2.06-0.13,3.1,0"/><path id="kvg:07cad-s4" kvg:type="&#12753;" d="M28.73,15.46c0.66,0.45,1.06,2.03,1.19,2.94c0.13,0.9,0,71.24-0.13,76.89"/><path id="kvg:07cad-s5" kvg:type="&#12754;" d="M29.52,46.21C26.09,57.7,18.25,71.25,10,80.48"/><path id="kvg:07cad-s6" kvg:type="&#12756;/&#12751;" d="M32.75,51c5.35,3.31,8,7,11.28,12.71"/></g><g id="kvg:07cad-g2" kvg:element="&#21512;" kvg:position="right"><g id="kvg:07cad-g3" kvg:position="top"><g id="kvg:07cad-g4" kvg:element="&#20154;"><path id="kvg:07cad-s7" kvg:type="&#12754;" d="M67.75,13.5c0.06,0.92-0.21,2.46-0.63,3.71c-2.89,8.64-8.71,24.7-21.06,35.48"/><path id="kvg:07cad-s8" kvg:type="&#12751;" d="M68.33,18.08c3.74,5.99,19.87,25.55,24,29.94c1.4,1.49,3.2,2.13,4.6,2.55"/></g><g id="kvg:07cad-g5" kvg:element="&#19968;"><path id="kvg:07cad-s9" kvg:type="&#12752;" d="M55.8,52.35c0.61,0.16,3.43,0.17,4.03,0.16c6.3-0.18,12.29-1.42,21.3-1.45c1.01,0,2.47,0.07,2.98,0.15"/></g></g><g id="kvg:07cad-g6" kvg:element="&#21475;" kvg:position="bottom"><path id="kvg:07cad-s10" kvg:type="&#12753;" d="M51.59,67.83c0.47,0.59,1.53,2.01,1.65,2.79c1.56,10.15,2.74,17.45,3.8,25.91"/><path id="kvg:07cad-s11" kvg:type="&#12757;b" d="M54.31,69.93c11.55-1.51,23.9-2.39,29.66-3.12c2.11-0.27,3.37,1.59,3.07,3.16c-1.25,6.51-1.51,12.48-4.07,21.59"/><path id="kvg:07cad-s12" kvg:type="&#12752;b" d="M57.25,94.48c6.41-0.71,16.5-1.73,28.22-1.83"/></g></g></g></g></svg>