<svg xmlns="http://www.w3.org/2000/svg" width="109" height="109" viewBox="0 0 109 109"><g xmlns:kvg="http://kanjivg.tagaini.net" id="kvg:StrokePaths_07cb3" style="fill:none;stroke:#000000;stroke-width:3;stroke-linecap:round;stroke-linejoin:round;"><g id="kvg:07cb3" kvg:element="&#31923;"><g id="kvg:07cb3-g1" kvg:element="&#31859;" kvg:variant="true" kvg:position="left" kvg:radical="general"><path id="kvg:07cb3-s1" kvg:type="&#12756;" d="M12.94,24.89c2.74,2.35,6.87,9,7.56,12.66"/><path id="kvg:07cb3-s2" kvg:type="&#12754;" d="M44.26,20.22c0.02,0.36,0.04,0.93-0.04,1.45c-0.53,3.05-3.56,9.74-7.72,13.84"/><path id="kvg:07cb3-s3" kvg:type="&#12752;" d="M10.1,44.93c0.58,0.13,2.13,0.45,3.67,0.38c5.53-0.25,21.43-2.06,27.69-2.46c1.54-0.1,1.93-0.13,2.9,0"/><path id="kvg:07cb3-s4" kvg:type="&#12753;" d="M28.52,14.46c0.88,0.45,1.41,2.03,1.59,2.94s0,74.24-0.18,79.89"/><path id="kvg:07cb3-s5" kvg:type="&#12754;" d="M30.02,45.46C26.45,56.79,17.78,72.69,9.75,79.23"/><path id="kvg:07cb3-s6" kvg:type="&#12756;/&#12751;" d="M32.87,51.32c5.18,3.16,8.98,6.81,10.9,12.15"/></g><g id="kvg:07cb3-g2" kvg:element="&#26356;" kvg:position="right"><path id="kvg:07cb3-s7" kvg:type="&#12752;" d="M50.28,19.17c1.05,0.41,2.96,0.38,4.01,0.41c6.95,0.17,24.55-2.98,35.17-3.1c1.75-0.02,2.79,0.2,3.66,0.4"/><g id="kvg:07cb3-g3" kvg:element="&#26085;"><path id="kvg:07cb3-s8" kvg:type="&#12753;" d="M50.32,33.23c0.75,0.75,1.5,1.66,1.49,2.65s2.88,23.89,3.12,24.88"/><path id="kvg:07cb3-s9" kvg:type="&#12757;a" d="M52.19,34.72c2.79-0.05,34.24-3.51,36.78-3.59c2.12-0.07,3.31,1.56,2.62,4.95c-1.07,5.33-1.07,10.89-4.17,22.68"/><path id="kvg:07cb3-s10" kvg:type="&#12752;a" d="M53.74,46.44c6.81-0.78,31.76-2.84,35.9-2.85"/><path id="kvg:07cb3-s11" kvg:type="&#12752;a" d="M55,58.76c10.44-1.13,20.56-1.23,31.69-2.11"/></g><g id="kvg:07cb3-g4" kvg:element="&#20034;"><g id="kvg:07cb3-g5" kvg:element="&#20031;"><path id="kvg:07cb3-s12" kvg:type="&#12754;" d="M70.01,20.36c0.71,1.47,0.67,2.7,0.67,4.83c0,33.86-0.17,60.3-28.2,72.1"/></g><path id="kvg:07cb3-s13" kvg:type="&#12751;" d="M49.93,66.61c8.02,1.63,32.44,23.12,38.98,27.09c2.22,1.34,4.12,1.92,6.34,2.3"/></g></g></g></g></svg>