<svg xmlns="http://www.w3.org/2000/svg" width="109" height="109" viewBox="0 0 109 109"><g xmlns:kvg="http://kanjivg.tagaini.net" id="kvg:StrokePaths_07cc0" style="fill:none;stroke:#000000;stroke-width:3;stroke-linecap:round;stroke-linejoin:round;"><g id="kvg:07cc0" kvg:element="&#31936;"><g id="kvg:07cc0-g1" kvg:element="&#31859;" kvg:variant="true" kvg:position="left" kvg:radical="general"><path id="kvg:07cc0-s1" kvg:type="&#12756;" d="M12.69,24.64c3.1,2.34,7.78,8.96,8.56,12.61"/><path id="kvg:07cc0-s2" kvg:type="&#12754;" d="M44.5,22.5c0.02,0.33,0.04,0.85-0.04,1.33c-0.52,2.8-3.53,8.95-7.64,12.71"/><path id="kvg:07cc0-s3" kvg:type="&#12752;" d="M11.6,45.86c0.57,0.12,2.1,0.41,3.62,0.35c5.45-0.23,21.11-1.88,27.28-2.25c1.51-0.09,1.9-0.12,2.86,0"/><path id="kvg:07cc0-s4" kvg:type="&#12753;" d="M28.02,15.46c0.88,0.46,1.41,2.09,1.59,3.02s0,73.21-0.18,79.02"/><path id="kvg:07cc0-s5" kvg:type="&#12754;" d="M29.52,45.96C25.95,57.29,17.28,73.21,9.25,79.75"/><path id="kvg:07cc0-s6" kvg:type="&#12756;/&#12751;" d="M31.62,52.82c4.81,3.04,8.34,6.55,10.13,11.68"/></g><g id="kvg:07cc0-g2" kvg:element="&#33457;" kvg:position="right"><g id="kvg:07cc0-g3" kvg:element="&#33401;" kvg:variant="true" kvg:original="&#33400;" kvg:position="top"><path id="kvg:07cc0-s7" kvg:type="&#12752;" d="M50.78,27c1.11,0.2,2.39,0.19,3.51,0.14c12.08-0.52,19.04-2.72,40.2-3.28c1.84-0.05,2.95,0.04,3.88,0.13"/><path id="kvg:07cc0-s8" kvg:type="&#12753;a" d="M61.36,13.98c0.74,1.21,0.98,1.57,1.06,2.31c0.74,6.94,1.79,15.43,2,17.95"/><path id="kvg:07cc0-s9" kvg:type="&#12753;a" d="M82.4,12.25c0.23,1.04,0.53,1.82,0.3,3.11c-1.31,7.59-1.4,12.33-2.85,19.48"/></g><g id="kvg:07cc0-g4" kvg:element="&#21270;" kvg:position="bottom"><g id="kvg:07cc0-g5" kvg:element="&#20155;" kvg:variant="true" kvg:original="&#20154;"><path id="kvg:07cc0-s10" kvg:type="&#12754;" d="M64.36,41.69c0,1.49-0.72,3.77-1.44,5.05C58.23,55.06,48.94,65.5,42.75,71"/><path id="kvg:07cc0-s11" kvg:type="&#12753;" d="M57.14,58.74c1.21,1.22,0.97,2.41,1,3.66c0.26,9.34-0.91,30.52-0.2,35.1"/></g><g id="kvg:07cc0-g6" kvg:element="&#21269;"><path id="kvg:07cc0-s12" kvg:type="&#12754;" d="M93,48c0,1.19,0.03,2.51-0.87,3.47c-4.11,4.35-8.17,8.4-13.63,12.53"/><path id="kvg:07cc0-s13" kvg:type="&#12767;" d="M75,41.25c0.42,0.83,0.98,3,0.98,4.14c0,4.42-0.42,40.32,0.14,43.63c0.56,3.31,2.24,6.91,4.49,7.18c2.24,0.28,12.06,0.55,13.46-1.93c1.4-2.49,1.54-6.08,1.68-8.56"/></g></g></g></g></g></svg>