<svg xmlns="http://www.w3.org/2000/svg" width="109" height="109" viewBox="0 0 109 109"><g xmlns:kvg="http://kanjivg.tagaini.net" id="kvg:StrokePaths_07cc5" style="fill:none;stroke:#000000;stroke-width:3;stroke-linecap:round;stroke-linejoin:round;"><g id="kvg:07cc5" kvg:element="&#31941;"><g id="kvg:07cc5-g1" kvg:element="&#31859;" kvg:variant="true" kvg:position="left" kvg:radical="general"><path id="kvg:07cc5-s1" kvg:type="&#12756;" d="M12.44,25.39c3.1,2.54,7.78,9.71,8.56,13.66"/><path id="kvg:07cc5-s2" kvg:type="&#12754;" d="M44.01,22.72c0.02,0.3,0.04,0.77-0.04,1.19c-0.49,2.51-3.3,8.01-7.15,11.38"/><path id="kvg:07cc5-s3" kvg:type="&#12752;" d="M8.85,46.22c0.59,0.11,2.18,0.4,3.75,0.34c5.66-0.22,21.9-1.86,28.29-2.22c1.57-0.09,1.97-0.11,2.96,0"/><path id="kvg:07cc5-s4" kvg:type="&#12753;" d="M28.52,14.96c0.88,0.45,1.41,2.03,1.59,2.94s0,73.24-0.18,78.89"/><path id="kvg:07cc5-s5" kvg:type="&#12754;" d="M30.02,45.96C26.5,57.37,17.93,73.39,10,79.98"/><path id="kvg:07cc5-s6" kvg:type="&#12756;/&#12751;" d="M31.25,52.25c4.63,3.38,8.03,7.29,9.75,13"/></g><g id="kvg:07cc5-g2" kvg:element="&#26580;" kvg:position="right"><g id="kvg:07cc5-g3" kvg:element="&#30683;" kvg:position="top"><g id="kvg:07cc5-g4" kvg:element="&#20104;"><g id="kvg:07cc5-g5" kvg:element="&#12510;" kvg:position="top"><path id="kvg:07cc5-s7" kvg:type="&#12743;" d="M52.49,14.91c0.76,0.59,3.01,1.34,3.98,1.25c4.28-0.41,26.09-2.71,28.11-3c2.02-0.29,2.71,1.2,1.51,2.13c-2.07,1.6-11.55,8.56-12.83,9.7"/><path id="kvg:07cc5-s8" kvg:type="&#12756;" d="M63,21.25c2.94,1.04,9.87,5.03,11.25,7.75"/></g><g id="kvg:07cc5-g6" kvg:element="&#20102;" kvg:position="bottom"><path id="kvg:07cc5-s9" kvg:type="&#12743;" d="M47.99,32.67c0.62,0.22,2.48,0.97,4.48,0.81c13.88-1.09,27.94-2.45,37.17-2.83c9.86-0.41,0.2,7.79-2.89,10.59"/><g id="kvg:07cc5-g7" kvg:element="&#20101;"><path id="kvg:07cc5-s10" kvg:type="&#12762;" d="M73.02,33.15c0,6.45-0.03,10.64-0.03,14.66c0,4.85-4.52,1.27-6.29-0.25"/></g></g></g><g id="kvg:07cc5-g8" kvg:element="&#20031;"><path id="kvg:07cc5-s11" kvg:type="&#12754;" d="M67.25,32.75c0.06,0.45,0.22,1.19-0.12,1.81c-2.62,4.8-8.36,11.5-21.49,17.3"/></g></g><g id="kvg:07cc5-g9" kvg:element="&#26408;" kvg:position="bottom"><path id="kvg:07cc5-s12" kvg:type="&#12752;" d="M46.56,66.35c1.35,0.28,2.88,0.36,4.43,0.26c7.88-0.52,31.06-1.78,42.98-2.4c1.53-0.08,2.5,0.03,4.04,0.22"/><path id="kvg:07cc5-s13" kvg:type="&#12753;" d="M70.42,56.33c0.7,0.99,1.23,2.19,1.23,3.2c0,10.35,0,33.3-0.18,39.46"/><path id="kvg:07cc5-s14" kvg:type="&#12754;" d="M68.25,66c-4.1,9.08-16.61,20.89-27.75,24.75"/><path id="kvg:07cc5-s15" kvg:type="&#12751;" d="M72.35,65.95c2.95,3.01,16.83,18.12,20.04,21.08c1.09,1,2.02,1.43,3.11,1.72"/></g></g></g></g></svg>