<svg xmlns="http://www.w3.org/2000/svg" width="109" height="109" viewBox="0 0 109 109"><g xmlns:kvg="http://kanjivg.tagaini.net" id="kvg:StrokePaths_07cdc" style="fill:none;stroke:#000000;stroke-width:3;stroke-linecap:round;stroke-linejoin:round;"><g id="kvg:07cdc" kvg:element="&#31964;"><g id="kvg:07cdc-g1" kvg:element="&#40635;" kvg:variant="true" kvg:position="tare" kvg:radical="nelson"><g id="kvg:07cdc-g2" kvg:element="&#24191;" kvg:position="tare"><path id="kvg:07cdc-s1" kvg:type="&#12753;a" d="M53.02,10.13c0.67,0.4,1.69,2.52,1.82,3.32c0.14,0.81,0.07,2.87-0.07,7.9"/><g id="kvg:07cdc-g3" kvg:element="&#21378;"><path id="kvg:07cdc-s2" kvg:type="&#12752;" d="M21.28,23.16c1.58,0.37,4.47,0.43,6.04,0.37c16.41-0.62,37.14-3.07,57.71-3.21c2.63-0.02,4.21,0.18,5.52,0.36"/><path id="kvg:07cdc-s3" kvg:type="&#12754;" d="M25.5,23.75c0.04,1.66,0.09,4.28-0.09,6.67c-1.06,14.06-2.95,48.16-14.35,63.31"/></g></g><g id="kvg:07cdc-g4" kvg:element="&#26519;" kvg:variant="true"><g id="kvg:07cdc-g5" kvg:element="&#26408;" kvg:variant="true"><path id="kvg:07cdc-s4" kvg:type="&#12752;" d="M33.08,36.2c0.47,0.17,1.9,0.13,3.16-0.02c4.42-0.55,11.34-1.86,16.07-2.24c1.26-0.1,2.21-0.12,3,0.04"/><path id="kvg:07cdc-s5" kvg:type="&#12753;" d="M43.04,28.18c0.62,0.26,0.99,1.19,1.11,1.71c0.12,0.53,0,21.01-0.12,24.3"/><path id="kvg:07cdc-s6" kvg:type="&#12754;" d="M35.84,43.17c0.01,0.27,0.03,0.7-0.03,1.1c-0.35,2.31-2.34,7.38-5.06,10.48"/><path id="kvg:07cdc-s7" kvg:type="&#12756;" d="M52.43,41c0.43,0.19,0.69,0.83,0.78,1.2c0.09,0.37,0,5.91-0.08,8.21"/></g><g id="kvg:07cdc-g6" kvg:element="&#26408;" kvg:variant="true"><path id="kvg:07cdc-s8" kvg:type="&#12752;" d="M61.71,32.69c0.49,0.15,1.56,0.24,2.88,0.15c4.64-0.3,12.25-1.35,21.31-2.11c1.31-0.11,2.46-0.15,3.29,0"/><path id="kvg:07cdc-s9" kvg:type="&#12753;" d="M73.04,27.03c0.54,0.3,0.86,1.35,0.97,1.95c0.11,0.6,0,18.77-0.11,22.52"/><path id="kvg:07cdc-s10" kvg:type="&#12754;" d="M65.49,39.75c0.01,0.3,0.03,0.78-0.03,1.21c-0.31,2.55-2.12,8.15-4.58,11.57"/><path id="kvg:07cdc-s11" kvg:type="&#12767;/&#12751;" d="M82.08,36.47c0.86,0.24,1.05,2.1,1.06,2.65c0.06,2.49-0.17,5.29-0.17,6.98c0,3,2.8,3.51,5.55,3.5c3.79-0.02,6.37-0.4,6.37-2.77"/></g></g></g><g id="kvg:07cdc-g7" kvg:element="&#31859;" kvg:radical="tradit"><path id="kvg:07cdc-s12" kvg:type="&#12756;" d="M36.18,60.2c3.11,1.54,7.8,5.9,8.57,8.3"/><path id="kvg:07cdc-s13" kvg:type="&#12754;" d="M76.98,58.49c0.02,0.22,0.04,0.56-0.04,0.88c-0.46,1.85-3.09,5.9-6.7,8.39"/><path id="kvg:07cdc-s14" kvg:type="&#12752;" d="M28.74,71.86c0.96,0.17,3.54,0.46,6.12,0.55c7.09,0.25,41.55-3.42,52.83-2.97c2.57,0.11,3.23-0.12,4.83,0.06"/><path id="kvg:07cdc-s15" kvg:type="&#12753;" d="M57.9,59c0.7,0.34,1.12,1.52,1.27,2.19c0.14,0.68,0,33.59-0.14,37.81"/><path id="kvg:07cdc-s16" kvg:type="&#12754;" d="M57.4,71.48c-5.92,8.14-20.32,19.57-33.65,24.27"/><path id="kvg:07cdc-s17" kvg:type="&#12751;" d="M60.25,71.75c4.95,3.46,21.83,16.83,27.96,20.28c1.64,0.92,2.95,1.44,4.54,1.72"/></g></g></g></svg>