<svg xmlns="http://www.w3.org/2000/svg" width="109" height="109" viewBox="0 0 109 109"><g xmlns:kvg="http://kanjivg.tagaini.net" id="kvg:StrokePaths_07d14" style="fill:none;stroke:#000000;stroke-width:3;stroke-linecap:round;stroke-linejoin:round;"><g id="kvg:07d14" kvg:element="&#32020;"><g id="kvg:07d14-g1" kvg:element="&#31992;" kvg:position="left" kvg:radical="general"><path id="kvg:07d14-s1" kvg:type="&#12764;" d="M28.38,13.67c0.34,1.34,0.07,2.68-0.67,4.05c-3.08,5.65-7.57,11.74-12.05,16.97c-0.9,1.06-0.9,2.68,0.5,3.35c3.94,1.89,6.88,3.86,9.97,6.31"/><path id="kvg:07d14-s2" kvg:type="&#12764;" d="M40.8,21.68c0.32,1.2,0.15,2.48-0.25,3.09c-6.68,10.11-17.43,23.98-25.98,33.94c-1.72,2-0.95,3.54,1.15,2.84c4.98-1.66,17.12-5.24,23.54-6.78"/><path id="kvg:07d14-s3" kvg:type="&#12756;" d="M35.88,48c2.16,2.34,5.58,9.6,6.12,13.23"/><path id="kvg:07d14-s4" kvg:type="&#12753;" d="M28.39,61.87c0.81,0.81,1.23,2.13,1.23,3.84c0,6.15-0.12,17.4-0.18,24.67c-0.01,1.94-0.02,3.6-0.02,4.8"/><path id="kvg:07d14-s5" kvg:type="&#12754;" d="M18.85,72.1c0.16,0.94,0.13,2.29-0.16,2.97c-1.87,4.39-6.55,12.6-9.2,16.37"/><path id="kvg:07d14-s6" kvg:type="&#12756;" d="M38.18,68.54c2.62,3.41,4.63,11.34,5.24,14.44"/></g><g id="kvg:07d14-g2" kvg:element="&#23663;" kvg:position="right" kvg:phon="&#23663;"><g id="kvg:07d14-g3" kvg:element="&#20031;"><path id="kvg:07d14-s7" kvg:type="&#12754;" d="M84.73,23.29c-0.23,1.33-1.25,2.3-2.24,2.81c-8.24,4.27-19.36,9.27-35.43,13.25"/></g><g id="kvg:07d14-g4" kvg:element="&#23662;" kvg:variant="true"><g id="kvg:07d14-g5" kvg:element="&#20981;"><path id="kvg:07d14-s8" kvg:type="&#12759;a" d="M51.22,48.42c0.81,0.81,1.08,2.08,1.08,3.67c0,2.48-0.17,8.42-0.54,14.55c-0.14,2.26,0.36,3.44,2.15,2.94c9.72-2.7,20.1-5.32,32.8-8.31"/><path id="kvg:07d14-s9" kvg:type="&#12753;" d="M88.17,39.27c0.84,0.84,1.21,2.23,1.07,3.77c-0.32,3.74-0.81,10.34-1.54,16.98c-0.19,1.76-0.4,3.56-0.6,5.37"/></g><g id="kvg:07d14-g6" kvg:element="&#20031;" kvg:variant="true"><path id="kvg:07d14-s10" kvg:type="&#12767;" d="M67.12,14.87c1.13,1.13,1.77,2.5,1.77,4.38c0,9.04-0.01,47.6-0.01,60.05c0,10.91,1.96,12.72,13.28,12.72C95.62,92.02,97,90,97,81.96"/></g></g></g></g></g></svg>