<svg xmlns="http://www.w3.org/2000/svg" width="109" height="109" viewBox="0 0 109 109"><g xmlns:kvg="http://kanjivg.tagaini.net" id="kvg:StrokePaths_07d46" style="fill:none;stroke:#000000;stroke-width:3;stroke-linecap:round;stroke-linejoin:round;"><g id="kvg:07d46" kvg:element="&#32070;"><g id="kvg:07d46-g1" kvg:element="&#31992;" kvg:position="left" kvg:radical="general"><path id="kvg:07d46-s1" kvg:type="&#12764;" d="M28.4,12.17c0.36,1.42,0.1,2.82-0.68,4.26c-3.96,7.31-8.96,14.06-13.78,19.51c-1.12,1.27-0.66,3.31,0.81,3.84c3.79,1.38,9.06,3.16,12.1,5.58"/><path id="kvg:07d46-s2" kvg:type="&#12764;" d="M39.18,23.86c0.87,1.74,0.12,3.21-0.82,4.66c-6.09,9.36-15.57,22.48-22.77,30.55c-1.05,1.18-0.66,3.92,2.03,2.99c4.76-1.64,15.58-5.06,21.71-6.63"/><path id="kvg:07d46-s3" kvg:type="&#12756;" d="M34.25,46.25c3.35,2.43,8.66,9.97,9.5,13.75"/><path id="kvg:07d46-s4" kvg:type="&#12753;" d="M28.89,61.62c0.87,0.87,1.23,2.51,1.23,3.84c0,8.21-0.07,21.26-0.1,28.67c-0.01,2.34-0.02,4.12-0.02,5"/><path id="kvg:07d46-s5" kvg:type="&#12754;" d="M21.35,72.6c0.27,1.4,0.02,2.28-0.41,3.47c-1.61,4.49-6.3,12.35-8.95,16.12"/><path id="kvg:07d46-s6" kvg:type="&#12756;" d="M37.38,69.88c4.27,3.33,7.55,11.08,8.55,14.1"/></g><g id="kvg:07d46-g2" kvg:element="&#21322;" kvg:variant="true" kvg:position="right"><path id="kvg:07d46-s7" kvg:type="&#12754;" d="M60.49,22.75c0.13,1.11-0.04,2.17-0.61,3.12c-2.62,4.38-7.47,9.8-13.88,14.88"/><path id="kvg:07d46-s8" kvg:type="&#12756;" d="M81.09,21.04c5.34,2.68,13.81,11.01,15.15,15.17"/><g id="kvg:07d46-g3" kvg:element="&#20108;" kvg:part="1"><path id="kvg:07d46-s9" kvg:type="&#12752;" d="M55.31,45.2c1.72,0.46,3.56,0.26,5.3,0.12c8.13-0.64,17.87-1.38,26.02-1.66c1.66-0.06,3.25-0.06,4.89,0.21"/></g><g id="kvg:07d46-g4" kvg:element="&#21313;"><g id="kvg:07d46-g5" kvg:element="&#20108;" kvg:part="2"><path id="kvg:07d46-s10" kvg:type="&#12752;" d="M49,65.23c1.94,0.61,4.14,0.6,6.12,0.48c9.85-0.6,30.11-2.14,37.88-2.56c1.88-0.1,4.25-0.03,5.5,0.5"/></g><path id="kvg:07d46-s11" kvg:type="&#12753;" d="M69.62,11.75c1.13,1.13,1.46,2.62,1.46,3.69c0,0.84,0.02,53.37,0.03,75.31c0,4.3,0,7.42,0,8.75"/></g></g></g></g></svg>