<svg xmlns="http://www.w3.org/2000/svg" width="109" height="109" viewBox="0 0 109 109"><g xmlns:kvg="http://kanjivg.tagaini.net" id="kvg:StrokePaths_07d5b" style="fill:none;stroke:#000000;stroke-width:3;stroke-linecap:round;stroke-linejoin:round;"><g id="kvg:07d5b" kvg:element="&#32091;"><g id="kvg:07d5b-g1" kvg:element="&#25912;" kvg:part="1" kvg:position="left"><g id="kvg:07d5b-g2" kvg:element="&#20155;" kvg:variant="true" kvg:original="&#20154;" kvg:position="left"><path id="kvg:07d5b-s1" kvg:type="&#12754;" d="M32.75,12.5c0.24,2.16-0.07,4.99-0.84,6.84C27,31.12,20.77,42.19,9.5,56.54"/><path id="kvg:07d5b-s2" kvg:type="&#12753;" d="M24.52,39.5c0.29,1.02,0.78,1.98,0.78,3.3c0,14.58-0.33,44.22-0.33,55.2"/></g><g id="kvg:07d5b-g3" kvg:element="&#20008;" kvg:position="right"><path id="kvg:07d5b-s3" kvg:type="&#12753;" d="M36.26,36.33c0.61,0.92,1.03,1.99,1.08,5.02c0.25,14.55-0.01,36.69-0.01,41.65"/></g></g><g id="kvg:07d5b-g4" kvg:position="right"><g id="kvg:07d5b-g5" kvg:element="&#25912;" kvg:part="2" kvg:position="top"><g id="kvg:07d5b-g6" kvg:element="&#25908;" kvg:variant="true" kvg:original="&#25909;"><g id="kvg:07d5b-g7" kvg:position="top"><path id="kvg:07d5b-s4" kvg:type="&#12754;" d="M60.26,11c0.04,0.53,0.23,1.41-0.07,2.14C58.28,17.84,53.1,28.5,46.5,35"/><path id="kvg:07d5b-s5" kvg:type="&#12752;" d="M60.44,21.34c0.03-0.06,1.64,0.18,2.22,0.17c6.04-0.19,17.82-1.91,27.04-2.22c1.04-0.03,1.67-0.01,1.94,0.03"/></g><g id="kvg:07d5b-g8" kvg:element="&#20034;" kvg:position="bottom"><g id="kvg:07d5b-g9" kvg:element="&#20031;"><path id="kvg:07d5b-s6" kvg:type="&#12754;" d="M80,23.5c-0.04,0.84,0.12,2.5-0.75,3.52c-6.58,7.71-13.61,14.63-33,21.98"/></g><path id="kvg:07d5b-s7" kvg:type="&#12751;" d="M55.5,28.25c6.31,1.52,24.32,14.59,35.48,18.33c2.15,0.72,3.52,0.84,5.27,0.92"/></g></g></g><g id="kvg:07d5b-g10" kvg:element="&#31992;" kvg:position="bottom" kvg:radical="general"><path id="kvg:07d5b-s8" kvg:type="&#12764;" d="M64.03,47c0.27,0.71,0.51,1.31-0.14,2.02c-3.14,3.48-5.14,5.73-9.35,9.28c-0.5,0.42-0.54,1.65,0,1.79c2.86,0.71,7.26,1.6,9.71,2.91"/><path id="kvg:07d5b-s9" kvg:type="&#12764;" d="M77.69,50.56c0.38,0.43,0,2.33-0.5,2.79c-7.39,6.72-16.07,13.12-26.22,19.25c-2.33,1.4-0.42,2.21,1.09,1.92c6.35-1.2,24.28-4.13,32.43-5.28"/><path id="kvg:07d5b-s10" kvg:type="&#12756;" d="M79.37,61.95c4.02,2.57,10.38,10.56,11.38,14.55"/><path id="kvg:07d5b-s11" kvg:type="&#12753;" d="M68.98,74.75c0.04,0.19,0.49,0.99,0.53,2.19c0.17,5.76-0.11,20.85-0.11,22.81"/><path id="kvg:07d5b-s12" kvg:type="&#12754;" d="M55.79,82.25c0.23,0.63,0.19,1.88-0.23,2.33C52.8,87.53,45.91,93.22,42,95.75"/><path id="kvg:07d5b-s13" kvg:type="&#12756;" d="M80.71,82.9c7.14,2.98,12.63,9.9,14.29,12.6"/></g></g></g></g></svg>