<svg xmlns="http://www.w3.org/2000/svg" width="109" height="109" viewBox="0 0 109 109"><g xmlns:kvg="http://kanjivg.tagaini.net" id="kvg:StrokePaths_07d68" style="fill:none;stroke:#000000;stroke-width:3;stroke-linecap:round;stroke-linejoin:round;"><g id="kvg:07d68" kvg:element="&#32104;"><g id="kvg:07d68-g1" kvg:element="&#31992;" kvg:position="left" kvg:radical="general"><path id="kvg:07d68-s1" kvg:type="&#12764;" d="M26.93,12.42c0.31,1.43,0.33,2.49-0.16,4.04c-2.13,6.86-7.25,14.67-11.41,20.15c-0.58,0.76-0.62,3.3,0,3.57c3.29,1.43,8.34,3.3,11.16,5.92"/><path id="kvg:07d68-s2" kvg:type="&#12764;" d="M39.36,24.68c0.29,0.58,0.36,2.46,0,3.09C33.78,37.5,24.48,49.94,16.8,58.21c-1.76,1.89,0.44,2.98,1.58,2.59c4.8-1.61,14.21-4.49,20.39-6.03"/><path id="kvg:07d68-s3" kvg:type="&#12756;" d="M34,48c2.38,2.16,6.16,8.89,6.75,12.25"/><path id="kvg:07d68-s4" kvg:type="&#12753;" d="M27.14,60.87c0.07,0.36,0.91,1.85,0.98,4.09c0.31,10.79-0.2,28.79-0.2,32.46"/><path id="kvg:07d68-s5" kvg:type="&#12754;" d="M18.86,71.1c0.14,0.96,0.12,2.86-0.14,3.55c-1.72,4.5-6.03,13.17-8.47,17.03"/><path id="kvg:07d68-s6" kvg:type="&#12756;" d="M35.43,68.04c3.5,3.47,6.18,11.54,6.99,14.69"/></g><g id="kvg:07d68-g2" kvg:element="&#25102;" kvg:position="right"><g id="kvg:07d68-g3" kvg:element="&#25096;" kvg:part="1"><g id="kvg:07d68-g4" kvg:element="&#24331;" kvg:part="1"><path id="kvg:07d68-s7" kvg:type="&#12752;" d="M43.75,39.19c1.02,0.3,2.9,0.39,3.91,0.3c8.02-0.69,34.23-3.59,43.43-4c1.7-0.08,2.72,0.14,3.57,0.29"/></g></g><g id="kvg:07d68-g5" kvg:element="&#21313;" kvg:variant="true"><path id="kvg:07d68-s8" kvg:type="&#12753;" d="M45.31,65.77c0.73,0.48,2.23,0.72,3.13,0.46c8.1-2.32,14.5-4.14,20.58-5.91"/><path id="kvg:07d68-s9" kvg:type="&#12752;" d="M57.53,46.39c0.41,1.26,1,2.25,1,3.82c0,14.38,0.61,31.82-12.33,42.51"/></g><g id="kvg:07d68-g6" kvg:element="&#25096;" kvg:part="2"><g id="kvg:07d68-g7" kvg:element="&#24331;" kvg:part="2"><path id="kvg:07d68-s10" kvg:type="&#12738;" d="M68.75,12.75c1.17,1.79,1.21,2.3,1.61,6.13c3.39,31.87,10.89,60.37,23.55,75.59c3.84,4.62,3.96,0.77,3.37-7.15"/></g><g id="kvg:07d68-g8" kvg:element="&#20031;"><path id="kvg:07d68-s11" kvg:type="&#12754;" d="M89.48,48.25c0.08,1.12,0.17,2.89-0.16,4.49c-1.99,9.47-13.42,31.29-29.07,44.01"/></g><g id="kvg:07d68-g9" kvg:element="&#24331;" kvg:part="3"><g id="kvg:07d68-g10" kvg:element="&#20022;"><path id="kvg:07d68-s12" kvg:type="&#12756;" d="M80.05,17c2.93,2.08,7.62,6.82,8.98,10.38"/></g></g></g></g></g></g></svg>