<svg xmlns="http://www.w3.org/2000/svg" width="109" height="109" viewBox="0 0 109 109"><g xmlns:kvg="http://kanjivg.tagaini.net" id="kvg:StrokePaths_07d71" style="fill:none;stroke:#000000;stroke-width:3;stroke-linecap:round;stroke-linejoin:round;"><g id="kvg:07d71" kvg:element="&#32113;"><g id="kvg:07d71-g1" kvg:element="&#31992;" kvg:position="left" kvg:radical="general"><path id="kvg:07d71-s1" kvg:type="&#12764;" d="M28.4,17c0.31,1.21,0.23,2.43-0.41,3.69c-3.11,6.18-6.98,12.65-10.07,17.04c-0.8,1.14-0.56,2.69,0,3.04c3.33,2.1,5.34,2.99,8.14,5.22"/><path id="kvg:07d71-s2" kvg:type="&#12764;" d="M37.28,30.69c0.09,1.06-0.03,1.93-0.75,2.94c-5.94,8.34-12.78,17.12-20.38,24.98c-1.74,1.8,0.43,2.83,1.57,2.47c4.75-1.53,16.12-4.27,22.23-5.74"/><path id="kvg:07d71-s3" kvg:type="&#12756;" d="M37.25,49.62c1.94,1.96,5.01,8.07,5.5,11.12"/><path id="kvg:07d71-s4" kvg:type="&#12753;" d="M29.08,60.26c0.58,0.58,1.03,1.99,1.03,3.03c0,6.11,0.02,18.46-0.08,26.21c-0.04,3.21-0.08,5.64-0.08,6.5"/><path id="kvg:07d71-s5" kvg:type="&#12754;" d="M21.23,70.5c0.15,0.96-0.15,2.34-0.4,3.04c-1.58,4.46-5.29,11.97-9.08,17.21"/><path id="kvg:07d71-s6" kvg:type="&#12756;" d="M37.88,69.12c2.44,3.46,4.31,11.49,4.88,14.62"/></g><g id="kvg:07d71-g2" kvg:element="&#20805;" kvg:position="right" kvg:phon="&#20805;"><g id="kvg:07d71-g3" kvg:position="top"><g id="kvg:07d71-g4" kvg:element="&#20128;"><path id="kvg:07d71-s7" kvg:type="&#12753;a" d="M66.33,14.24c1.09,1.09,1.46,2.63,1.46,4.19c0,3.68-0.12,5.69-0.12,7.61"/><path id="kvg:07d71-s8" kvg:type="&#12752;" d="M46.35,28.46c2.01,0.15,3.77,0.32,5.78,0.11c8.03-0.84,26.14-2.76,35.74-3.38c1.77-0.11,3.56-0.34,5.27,0.3"/></g><g id="kvg:07d71-g5" kvg:element="&#20801;" kvg:part="1"><g id="kvg:07d71-g6" kvg:element="&#21430;"><path id="kvg:07d71-s9" kvg:type="&#12764;" d="M65.84,30.54c0,0.96-0.24,1.82-0.6,2.34c-3.85,5.51-6.74,9.99-11.74,15.65c-1.68,1.9-1.66,3.28,1.15,2.68c9.72-2.08,16.68-3.65,26.26-5.67"/><path id="kvg:07d71-s10" kvg:type="&#12756;" d="M76.52,38.69c3.41,2.3,8.81,9.47,9.66,13.05"/></g></g></g><g id="kvg:07d71-g7" kvg:element="&#20801;" kvg:part="2" kvg:position="bottom"><g id="kvg:07d71-g8" kvg:element="&#20799;"><g id="kvg:07d71-g9" kvg:element="&#20843;" kvg:variant="true"><g id="kvg:07d71-g10" kvg:element="&#20031;" kvg:position="left"><path id="kvg:07d71-s11" kvg:type="&#12754;" d="M61.62,56.72c0.25,0.9,0.14,2.24-0.09,3.48c-1.9,9.8-5.65,22.68-17.4,33.02"/></g><g id="kvg:07d71-g11" kvg:position="right"><path id="kvg:07d71-s12" kvg:type="&#12767;" d="M71.89,52.42c0.91,0.91,1.59,2.83,1.59,4.26c0,10.08-0.07,19.1-0.07,25.08c0,10.74,1.34,12.4,11.51,12.4c9.58,0,10.5-1.16,10.5-9.81"/></g></g></g></g></g></g></g></svg>