<svg xmlns="http://www.w3.org/2000/svg" width="109" height="109" viewBox="0 0 109 109"><g xmlns:kvg="http://kanjivg.tagaini.net" id="kvg:StrokePaths_07e56" style="fill:none;stroke:#000000;stroke-width:3;stroke-linecap:round;stroke-linejoin:round;"><g id="kvg:07e56" kvg:element="&#32342;"><g id="kvg:07e56-g1" kvg:element="&#31992;" kvg:position="left" kvg:radical="general"><path id="kvg:07e56-s1" kvg:type="&#12764;" d="M25.65,13.67c0.36,1.42,0.38,2.47-0.18,4.01C23,24.5,18.5,29.25,13.68,34.69c-0.67,0.75-0.72,3.27,0,3.54c3.81,1.42,6.64,3.28,9.91,5.88"/><path id="kvg:07e56-s2" kvg:type="&#12764;" d="M34.05,26.43c0.3,0.58,0.37,2.46,0,3.09c-5.8,9.73-13.49,19.68-21.48,27.94c-1.83,1.89,0.46,2.98,1.65,2.59c5-1.61,14.87-3.99,21.29-5.53"/><path id="kvg:07e56-s3" kvg:type="&#12756;" d="M31.63,47.88c2.34,2.36,6.04,9.69,6.62,13.35"/><path id="kvg:07e56-s4" kvg:type="&#12753;" d="M24.89,60.62c0.07,0.36,0.91,1.85,0.98,4.09c0.31,10.79-0.2,28.79-0.2,32.46"/><path id="kvg:07e56-s5" kvg:type="&#12754;" d="M15.62,70.35c0.13,0.86,0.11,2.55-0.13,3.17c-1.57,4.01-5.51,11.73-7.74,15.17"/><path id="kvg:07e56-s6" kvg:type="&#12756;" d="M32.68,68.54c2.5,3.77,4.41,12.52,4.99,15.94"/></g><g id="kvg:07e56-g2" kvg:element="&#25955;" kvg:position="right"><g id="kvg:07e56-g3" kvg:position="left"><path id="kvg:07e56-s7" kvg:type="&#12752;" d="M41.28,27.67c1.12,0.4,2.43,0.56,3.54,0.4c4.23-0.61,17.39-2.89,21.25-3.07c1.86-0.09,2.98,0.19,3.91,0.39"/><path id="kvg:07e56-s8" kvg:type="&#12753;" d="M47.96,14.75c0.93,1.58,1.22,2.06,1.32,3.02C50.21,26.85,50,37.7,50.26,41"/><path id="kvg:07e56-s9" kvg:type="&#12753;" d="M61.24,13.25c0.76,1,1.42,2.31,1.21,3.93c-1.18,9.55-0.71,13.33-2,22.32"/><path id="kvg:07e56-s10" kvg:type="&#12752;" d="M40,41.73c0.95,0.38,2.07,0.53,3.01,0.38c3.6-0.57,21.07-2.72,24.35-2.89c1.58-0.08,2.54,0.18,3.33,0.37"/><g id="kvg:07e56-g4" kvg:element="&#26376;"><path id="kvg:07e56-s11" kvg:type="&#12754;" d="M45.6,50.7c0.33,0.6,0.55,1.7,0.66,2.3c0.11,0.6,0.16,40.37,0.11,41.71"/><path id="kvg:07e56-s12" kvg:type="&#12742;a" d="M46.93,51.8c1.32-0.15,13.98-2.18,14.96-2.35c1.77-0.3,2.43,1.95,2.21,2.85c-0.21,0.87-0.33,25.26-0.33,37.42c0,7.03-4.81,2.6-5.25,1.85"/><path id="kvg:07e56-s13" kvg:type="&#12752;a" d="M46.93,63.36c4.53-0.9,11.92-1.25,15.9-1.7"/><path id="kvg:07e56-s14" kvg:type="&#12752;a" d="M47.26,75.22c3.53-0.45,10.49-0.97,15.84-1.1"/></g></g><g id="kvg:07e56-g5" kvg:element="&#25908;" kvg:variant="true" kvg:original="&#25909;" kvg:position="right"><g id="kvg:07e56-g6" kvg:position="top"><path id="kvg:07e56-s15" kvg:type="&#12754;" d="M80.26,13.89c0.03,0.94,0.17,2.48-0.05,3.77c-1.46,8.28-4.75,24.12-9.81,35.58"/><path id="kvg:07e56-s16" kvg:type="&#12752;" d="M79.49,36.7c0.45,0.23,2.27-0.22,2.72-0.27c2.36-0.24,9.95-1.63,13.65-1.87c0.8-0.05,1.29-0.01,1.5,0.04"/></g><g id="kvg:07e56-g7" kvg:element="&#20034;" kvg:position="bottom"><g id="kvg:07e56-g8" kvg:element="&#20031;"><path id="kvg:07e56-s17" kvg:type="&#12754;" d="M88.87,39.68c0.33,1.33,0.51,2.29,0.17,4.72C85.88,66.54,78.75,84.7,68.35,94"/></g><path id="kvg:07e56-s18" kvg:type="&#12751;" d="M73.54,49.65C77.5,61.75,88,84,95.39,93.13c1.36,1.67,2.07,2.04,3.11,2.22"/></g></g></g></g></g></svg>