<svg xmlns="http://www.w3.org/2000/svg" width="109" height="109" viewBox="0 0 109 109"><g xmlns:kvg="http://kanjivg.tagaini.net" id="kvg:StrokePaths_07f36" style="fill:none;stroke:#000000;stroke-width:3;stroke-linecap:round;stroke-linejoin:round;"><g id="kvg:07f36" kvg:element="&#32566;" kvg:radical="general"><path id="kvg:07f36-s1" kvg:type="&#12754;" d="M40.99,14.64c0.06,0.77-0.16,2.07-0.62,3.11c-2.87,6.5-11.1,19.94-22.87,28.75"/><path id="kvg:07f36-s2" kvg:type="&#12752;" d="M36.63,30.42c2.12,0.46,4.21,0.31,6.01,0.15c8.99-0.81,23-2.83,32.5-4.15c2.45-0.34,4.58-0.72,7-0.13"/><path id="kvg:07f36-s3" kvg:type="&#12752;" d="M15.38,54.98c3.2,1.14,7.68,0.81,10.99,0.42c20.88-2.52,40.38-4.89,58.75-5.77c3.19-0.15,6.36-0.23,9.5,0.44"/><path id="kvg:07f36-s4" kvg:type="&#12753;a" d="M53.06,31.63c1.09,1.09,1.26,2.62,1.26,4.5c0,6.62,0,45.37,0,51.75"/><path id="kvg:07f36-s5" kvg:type="&#12740;a" d="M27.06,66.38c0.84,0.84,1.01,2.24,1.01,3.75c0,5.62-0.07,7.37,0,18c0.02,3.15,0.11,3.91,3.3,3.49c15.12-2,29.5-3.38,48.7-4.24"/><path id="kvg:07f36-s6" kvg:type="&#12753;" d="M82.56,60.88c0.69,1.12,0.94,2.49,0.76,4.5c-0.36,4.06-1.1,11.75-1.85,19.89c-0.27,2.95-0.57,5.88-0.9,8.61"/></g></g></svg>