<svg xmlns="http://www.w3.org/2000/svg" width="109" height="109" viewBox="0 0 109 109"><g xmlns:kvg="http://kanjivg.tagaini.net" id="kvg:StrokePaths_07f3a" style="fill:none;stroke:#000000;stroke-width:3;stroke-linecap:round;stroke-linejoin:round;"><g id="kvg:07f3a" kvg:element="&#32570;"><g id="kvg:07f3a-g1" kvg:element="&#32566;" kvg:position="left" kvg:radical="general"><path id="kvg:07f3a-s1" kvg:type="&#12754;" d="M24.5,15.75c0.03,0.59,0.07,1.52-0.06,2.37c-0.77,4.99-5.2,15.94-11.26,22.64"/><path id="kvg:07f3a-s2" kvg:type="&#12752;" d="M21.15,31.29c0.71,0.26,2.01,0.33,2.72,0.26c5.54-0.55,12.48-1.92,17.04-2.33c1.18-0.1,1.89,0.12,2.48,0.26"/><path id="kvg:07f3a-s3" kvg:type="&#12752;" d="M11.21,50.24c0.98,0.37,2.79,0.47,3.77,0.37c8.45-0.79,23.86-3.58,30.03-3.96c1.64-0.1,2.62,0.18,3.44,0.37"/><path id="kvg:07f3a-s4" kvg:type="&#12753;" d="M29.05,32.66c0.34,1.14,0.73,1.98,0.73,3.56c0,5.54-0.04,39.45-0.09,44.13"/><path id="kvg:07f3a-s5" kvg:type="&#12740;" d="M15.94,61.5c0.58,0.41,1.17,2.15,1.16,2.98c-0.06,5.15-0.44,9.09-0.77,15.63c-0.09,1.89,0.48,2.82,1.92,2.52c3.97-0.81,15.87-3.1,23.42-4.13"/><path id="kvg:07f3a-s6" kvg:type="&#12753;" d="M41.77,60.25c0.82,0.41,1.76,3.03,1.63,3.84c-0.81,4.97-0.54,8.36-1.88,17.63"/></g><g id="kvg:07f3a-g2" kvg:element="&#22828;" kvg:position="right"><path id="kvg:07f3a-s7" kvg:type="&#12757;c" d="M55.02,37.01c0.97,0.72,2.6,0.93,4.05,0.69c1.45-0.24,21.33-2.28,23.26-2.7c3.23-0.71,3.9-0.28,3.04,3.67c-0.93,4.3-2.17,12.89-3.12,15.83"/><g id="kvg:07f3a-g3" kvg:element="&#22823;"><path id="kvg:07f3a-s8" kvg:type="&#12752;" d="M50.12,58.39c0.87,0.2,3.11,0.34,4.06,0.27c13.37-0.99,21.18-2.33,35.8-2.52c1.21-0.02,2.92,0.08,5.62,0.41"/><g id="kvg:07f3a-g4" kvg:element="&#20154;"><path id="kvg:07f3a-s9" kvg:type="&#12754;" d="M66.01,14.75c0.54,0.98,1.56,2.05,1.56,4.1c0,37.15-1.81,61.4-24.81,76.65"/><path id="kvg:07f3a-s10" kvg:type="&#12751;" d="M65.72,58.46C73,70.5,81.75,84,92.23,92c2.39,1.82,3.01,2.31,4.02,2.5"/></g></g></g></g></g></svg>