<svg xmlns="http://www.w3.org/2000/svg" width="109" height="109" viewBox="0 0 109 109"><g xmlns:kvg="http://kanjivg.tagaini.net" id="kvg:StrokePaths_07f51" style="fill:none;stroke:#000000;stroke-width:3;stroke-linecap:round;stroke-linejoin:round;"><g id="kvg:07f51" kvg:element="&#32593;" kvg:radical="tradit"><g id="kvg:07f51-g1" kvg:element="&#20866;" kvg:radical="nelson"><path id="kvg:07f51-s1" kvg:type="&#12753;" d="M19.5,20.5c0.75,1.21,1.25,3.15,1,5.32s0.25,66.3,0.25,69.93"/><path id="kvg:07f51-s2" kvg:type="&#12757;" d="M20.5,23c9.5-1,62.63-3.65,64.5-4c4-0.75,6,2.75,6,4c0,4.5-3.09,52.05-4.25,60c-2,13.75-5.75,5.25-8.75,2"/></g><g id="kvg:07f51-g2" kvg:element="&#20034;"><g id="kvg:07f51-g3" kvg:element="&#20031;"><path id="kvg:07f51-s3" kvg:type="&#12754;" d="M49,27.84c0.37,1.26,0.68,2.21,0.19,4.45C44.79,52.25,36.81,70.14,26,79"/></g><path id="kvg:07f51-s4" kvg:type="&#12751;" d="M29.75,40.5c8.17,6.53,17.16,18.95,21.49,28.81"/></g><g id="kvg:07f51-g4" kvg:element="&#20034;"><g id="kvg:07f51-g5" kvg:element="&#20031;"><path id="kvg:07f51-s5" kvg:type="&#12754;" d="M75.76,27.5c0.46,1.4,0.83,2.47,0.23,4.98C70.75,54.5,60.75,72.75,47.22,84.73"/></g><path id="kvg:07f51-s6" kvg:type="&#12751;" d="M55.75,41c8.65,6.75,18.17,19.57,22.75,29.75"/></g></g></g></svg>