<svg xmlns="http://www.w3.org/2000/svg" width="109" height="109" viewBox="0 0 109 109"><g xmlns:kvg="http://kanjivg.tagaini.net" id="kvg:StrokePaths_07f55" style="fill:none;stroke:#000000;stroke-width:3;stroke-linecap:round;stroke-linejoin:round;"><g id="kvg:07f55" kvg:element="&#32597;"><g id="kvg:07f55-g1" kvg:element="&#32594;" kvg:part="1" kvg:variant="true" kvg:original="&#32593;" kvg:position="top" kvg:radical="tradit"><g id="kvg:07f55-g2" kvg:element="&#20886;" kvg:radical="nelson"><path id="kvg:07f55-s1" kvg:type="&#12756;" d="M21.5,14.5c0,3.91-4.13,14.65-6,17.25"/><path id="kvg:07f55-s2" kvg:type="&#12742;" d="M21.25,18.28c10-0.78,52.25-4.28,62.81-4.27c12.27,0.02,6.63,3.78,0.76,9.24"/></g><g id="kvg:07f55-g3" kvg:element="&#20799;"><g id="kvg:07f55-g4" kvg:element="&#20843;" kvg:variant="true"><g id="kvg:07f55-g5" kvg:element="&#20031;" kvg:position="left"><path id="kvg:07f55-s3" kvg:type="&#12754;" d="M43.48,19.75c0.12,0.56,0.25,1.49-0.25,2.24C38.25,29.5,34,35.25,21,41.5"/></g><g id="kvg:07f55-g6" kvg:position="right"><path id="kvg:07f55-s4" kvg:type="&#12767;" d="M60.76,17.72c1.09,0.85,1.45,2.34,1.52,3.64c0.29,5.82-0.87,11.01,2.33,13.09c3.06,1.99,20.36,0.42,24.14-0.42"/></g></g></g></g><g id="kvg:07f55-g7" kvg:element="&#24178;" kvg:position="bottom"><g id="kvg:07f55-g8" kvg:element="&#32594;" kvg:part="2" kvg:variant="true" kvg:original="&#32593;" kvg:radical="tradit"><path id="kvg:07f55-s5" kvg:type="&#12752;" d="M27.92,48.96c1,0.33,4.46,0.36,5.47,0.3c6.94-0.39,31.63-2.86,43.47-3.51c1.67-0.09,5.17,0.29,6.01,0.45"/></g><g id="kvg:07f55-g9" kvg:element="&#21313;"><path id="kvg:07f55-s6" kvg:type="&#12752;" d="M18.13,66.77c2.02,0.29,5.74,0.37,7.75,0.29c19.02-0.78,37.85-2.51,59.92-2.78c3.37-0.04,5.39,0.14,7.08,0.28"/><path id="kvg:07f55-s7" kvg:type="&#12753;" d="M52.06,49.88c0.54,0.51,2.29,2.12,2.29,4.83c0,5.29-0.07,37.56-0.18,43.92"/></g></g></g></g></svg>