<svg xmlns="http://www.w3.org/2000/svg" width="109" height="109" viewBox="0 0 109 109"><g xmlns:kvg="http://kanjivg.tagaini.net" id="kvg:StrokePaths_07f58" style="fill:none;stroke:#000000;stroke-width:3;stroke-linecap:round;stroke-linejoin:round;"><g id="kvg:07f58" kvg:element="&#32600;"><g id="kvg:07f58-g1" kvg:element="&#32594;" kvg:variant="true" kvg:original="&#32593;" kvg:position="top" kvg:radical="general"><path id="kvg:07f58-s1" kvg:type="&#12753;" d="M19.75,15.75c0.41,0.29,0.83,0.53,1.01,0.89c1.42,2.85,3.91,11.74,4.88,16.86"/><path id="kvg:07f58-s2" kvg:type="&#12757;a" d="M22.72,17.12C28.65,16.29,77,12.5,83.1,12.73c1,0.04,2.83,1.45,2.57,3.03c-0.55,3.29-1.92,8.91-3.39,13.61"/><path id="kvg:07f58-s3" kvg:type="&#12753;a" d="M42.79,16.86c0.2,1.79,1.62,10.06,1.82,12.08"/><path id="kvg:07f58-s4" kvg:type="&#12753;a" d="M62.79,15.29c-0.15,2.86-0.92,10.33-1.23,12.09"/><path id="kvg:07f58-s5" kvg:type="&#12752;a" d="M25.75,31.76c3.05-0.56,50.5-4.01,56.75-3.26"/></g><g id="kvg:07f58-g2" kvg:element="&#19981;" kvg:position="bottom"><g id="kvg:07f58-g3" kvg:element="&#19968;"><path id="kvg:07f58-s6" kvg:type="&#12752;" d="M18.25,44.31c1.8,0.65,5.08,0.84,6.88,0.65c13.62-1.46,40.52-4.08,60.25-5.25c2.99-0.18,4.79,0.31,6.29,0.63"/></g><g id="kvg:07f58-g4" kvg:element="&#20031;"><path id="kvg:07f58-s7" kvg:type="&#12754;" d="M61,44.25c0.13,0.9,0.1,2.51-0.75,3.6c-6,7.65-21.5,20.9-42.5,32.9"/></g><g id="kvg:07f58-g5" kvg:element="&#20008;"><path id="kvg:07f58-s8" kvg:type="&#12753;" d="M51.77,57.25c1.39,0.61,2.22,2.74,2.5,3.95c0.28,1.22,0,29.77-0.28,37.37"/></g><path id="kvg:07f58-s9" kvg:type="&#12756;" d="M63.25,59.5c9.18,3.57,20.48,12.22,26,20.25"/></g></g></g></svg>