<svg xmlns="http://www.w3.org/2000/svg" width="109" height="109" viewBox="0 0 109 109"><g xmlns:kvg="http://kanjivg.tagaini.net" id="kvg:StrokePaths_07f52" style="fill:none;stroke:#000000;stroke-width:3;stroke-linecap:round;stroke-linejoin:round;"><g id="kvg:07f52" kvg:element="&#32594;" kvg:variant="true" kvg:original="&#32593;" kvg:radical="tradit"><path id="kvg:07f52-s1" kvg:type="&#12753;" d="M18.88,39.62c0.94,1.01,1.38,1.78,1.62,3.22c1.07,6.26,2.25,14.16,3.19,21.13c0.27,1.98,0.51,3.88,0.73,5.65"/><path id="kvg:07f52-s2" kvg:type="&#12757;a" d="M21.4,42.22c21.48-2.47,44.98-4.6,63.5-6.01c3.91-0.3,5.49,1.68,4.86,5.43c-0.74,4.43-2.21,11.11-3.54,16.99c-0.49,2.14-0.95,4.14-1.36,5.85"/><path id="kvg:07f52-s3" kvg:type="&#12753;a" d="M41.22,41.46c0.72,0.72,1.15,1.75,1.29,3.15c0.57,5.88,1.48,16.17,1.67,19.16"/><path id="kvg:07f52-s4" kvg:type="&#12753;a" d="M64.55,39.4c0.58,1.22,0.57,2.28,0.43,3.74c-0.63,6.45-1.85,14.74-2.47,18.74"/><path id="kvg:07f52-s5" kvg:type="&#12752;a" d="M25.07,66.93C30.09,66.2,70,61.75,84.43,62"/></g></g></svg>