<svg xmlns="http://www.w3.org/2000/svg" width="109" height="109" viewBox="0 0 109 109"><g xmlns:kvg="http://kanjivg.tagaini.net" id="kvg:StrokePaths_07f9a" style="fill:none;stroke:#000000;stroke-width:3;stroke-linecap:round;stroke-linejoin:round;"><g id="kvg:07f9a" kvg:element="&#32666;"><g id="kvg:07f9a-g1" kvg:element="&#32650;" kvg:position="left" kvg:radical="general"><path id="kvg:07f9a-s1" kvg:type="&#12756;" d="M15.79,16.09c3.41,2.12,8.82,8.72,9.68,12.02"/><path id="kvg:07f9a-s2" kvg:type="&#12754;" d="M40.64,13.14c0.02,0.38,0.04,0.99-0.04,1.54c-0.53,3.25-3.54,10.39-7.67,14.76"/><path id="kvg:07f9a-s3" kvg:type="&#12752;" d="M14.96,34.21c0.71,0.35,2,0.39,2.71,0.35c5-0.25,18.66-2.94,24.98-3.79c1.17-0.16,1.88,0.17,2.47,0.34"/><path id="kvg:07f9a-s4" kvg:type="&#12752;" d="M14.93,47.95c0.62,0.34,2.76,0.4,3.39,0.34c5.24-0.46,17.31-3.07,23.59-4.16c1.03-0.18,1.66,0.16,2.18,0.33"/><path id="kvg:07f9a-s5" kvg:type="&#12752;" d="M12,64.89c0.66,0.77,1.88,0.9,2.54,0.77c5.09-1.05,20.48-6.57,28.71-9.16"/><path id="kvg:07f9a-s6" kvg:type="&#12753;" d="M29.78,35.06c0.97,0.94,1.14,2.29,1.14,3.12C30.92,74.25,28.25,86,15,97"/></g><g id="kvg:07f9a-g2" kvg:element="&#20196;" kvg:position="right"><g id="kvg:07f9a-g3" kvg:element="&#20154;" kvg:position="top"><path id="kvg:07f9a-s7" kvg:type="&#12754;" d="M67.02,14c0.07,0.92,0.29,2.4-0.13,3.69C64.24,25.76,55.84,42.28,46,52.1"/><path id="kvg:07f9a-s8" kvg:type="&#12751;" d="M67.25,18c4.63,4.66,21.48,23.51,25.39,27.38c1.33,1.31,3.03,1.88,4.36,2.25"/></g><g id="kvg:07f9a-g4" kvg:position="bottom"><g id="kvg:07f9a-g5" kvg:element="&#19968;"><path id="kvg:07f9a-s9" kvg:type="" d="M64.5,43.5c3.97,1.9,10.26,7.8,11.25,10.75"/></g><g id="kvg:07f9a-g6" kvg:element="&#12510;"><path id="kvg:07f9a-s10" kvg:type="&#12742;a" d="M49.7,64.22c1.14,0.75,3.54,1.12,4.83,0.92c5.73-0.89,29.66-4.07,32.36-4.45c2.7-0.37,3.88,1.88,1.94,3.86c-4.54,4.65-17.67,16.78-19.37,18.28"/><path id="kvg:07f9a-s11" kvg:type="&#12756;" d="M56.25,74.25c5.05,2.85,18.12,13.8,20.5,21.25"/></g></g></g></g></g></svg>