<svg xmlns="http://www.w3.org/2000/svg" width="109" height="109" viewBox="0 0 109 109"><g xmlns:kvg="http://kanjivg.tagaini.net" id="kvg:StrokePaths_07fae" style="fill:none;stroke:#000000;stroke-width:3;stroke-linecap:round;stroke-linejoin:round;"><g id="kvg:07fae" kvg:element="&#32686;"><g id="kvg:07fae-g1" kvg:element="&#32660;" kvg:position="top"><g id="kvg:07fae-g2" kvg:element="&#32650;" kvg:variant="true" kvg:position="top" kvg:radical="general"><path id="kvg:07fae-s1" kvg:type="&#12756;" d="M37.75,8.78c2.75,1.23,7.56,5.06,8.25,6.97"/><path id="kvg:07fae-s2" kvg:type="&#12754;" d="M67.21,8.14c0.02,0.17,0.04,0.44-0.04,0.69c-0.43,1.45-3.77,5.46-7,7.69"/><path id="kvg:07fae-s3" kvg:type="&#12752;" d="M27.96,20.05c0.99,0.33,2.8,0.36,3.79,0.33c8.51-0.26,34.51-2.39,44.44-2.8c1.65-0.07,2.64,0.16,3.46,0.33"/><path id="kvg:07fae-s4" kvg:type="&#12753;a" d="M52.44,19.51c0.98,0.25,1.77,1.1,1.77,1.62c0,4.24,0,11.17,0,15.62"/><path id="kvg:07fae-s5" kvg:type="&#12752;" d="M32.38,29.13c0.98,0.4,2.77,0.44,3.75,0.4c7.34-0.33,28.7-2.15,38.36-2.59c1.63-0.07,2.62,0.19,3.43,0.39"/><path id="kvg:07fae-s6" kvg:type="&#12752;" d="M22.6,40.06c1.3,0.33,3.68,0.44,4.97,0.33c7.02-0.6,44.19-2.87,58.4-3.54c2.15-0.1,3.45,0.16,4.54,0.32"/></g><g id="kvg:07fae-g3" kvg:element="&#28780;" kvg:variant="true" kvg:original="&#28779;" kvg:position="bottom"><path id="kvg:07fae-s7" kvg:type="&#12756;" d="M25.87,44.69c0,4.37-7.63,10.82-9.62,12.06"/><path id="kvg:07fae-s8" kvg:type="&#12756;" d="M38.75,43c3.41,1.93,6.65,7.25,7.5,10.26"/><path id="kvg:07fae-s9" kvg:type="&#12756;" d="M59,42.75c2.38,1.63,6.15,6.71,6.75,9.25"/><path id="kvg:07fae-s10" kvg:type="&#12756;" d="M80.58,42.45c4.23,2.25,10.94,9.26,12,12.77"/></g></g><g id="kvg:07fae-g4" kvg:position="bottom"><g id="kvg:07fae-g5" kvg:element="&#19977;"><g id="kvg:07fae-g6" kvg:element="&#19968;" kvg:position="top"><path id="kvg:07fae-s11" kvg:type="&#12752;" d="M31.24,57.38c1.14,0.3,3.73,0.86,4.86,0.8c8.21-0.42,30.1-2.62,40.92-2.62c1.9,0,3.04,0.14,3.98,0.29"/></g><g id="kvg:07fae-g7" kvg:position="bottom"><g id="kvg:07fae-g8" kvg:element="&#19968;"><path id="kvg:07fae-s12" kvg:type="&#12752;" d="M30.61,69.46c0.99,0.37,2.8,0.36,3.79,0.37c8.45,0.12,31.97-2.34,40.89-2.21c1.65,0.03,2.64,0.17,3.46,0.36"/></g><g id="kvg:07fae-g9" kvg:element="&#19968;"><path id="kvg:07fae-s13" kvg:type="&#12752;" d="M19.37,81.41c1.46,0.43,4.12,0.51,5.58,0.43c15.27-0.79,47.24-4,62.52-3.39c2.42,0.1,3.88,0.21,5.09,0.42"/></g></g></g><g id="kvg:07fae-g10" kvg:element="&#20154;"><path id="kvg:07fae-s14" kvg:type="&#12754;" d="M53.76,60.25c0.24,1,0.53,2.47,0.31,3.9C51.75,78.75,47.25,94.5,19.75,102"/><path id="kvg:07fae-s15" kvg:type="&#12751;" d="M55,80c4.48,3.83,23.8,16.32,28.74,19.12c1.68,0.95,3.83,1.36,5.51,1.63"/></g></g></g></g></svg>