<svg xmlns="http://www.w3.org/2000/svg" width="109" height="109" viewBox="0 0 109 109"><g xmlns:kvg="http://kanjivg.tagaini.net" id="kvg:StrokePaths_07fa3" style="fill:none;stroke:#000000;stroke-width:3;stroke-linecap:round;stroke-linejoin:round;"><g id="kvg:07fa3" kvg:element="&#32675;"><g id="kvg:07fa3-g1" kvg:element="&#21531;" kvg:position="top"><g id="kvg:07fa3-g2" kvg:element="&#23609;"><g id="kvg:07fa3-g3" kvg:element="&#11925;" kvg:variant="true" kvg:original="&#24401;"><g id="kvg:07fa3-g4" kvg:element="&#23608;" kvg:part="1"><path id="kvg:07fa3-s1" kvg:type="&#12757;c" d="M26.24,13.04c3.52,0.57,3.74,0.72,6.04,0.46c15.23-1.74,26.78-2.92,38.09-4.24c2.13-0.25,3.68,1.52,3.14,3.5c-0.84,3.04-1.84,9.02-3.6,14.17"/><path id="kvg:07fa3-s2" kvg:type="&#12752;" d="M11.75,23.67c2.2,0.24,3.93,0.75,6.36,0.48c18.51-2.05,51.39-5.9,66.53-7.59c2.68-0.3,4.89,0.48,6.11,0.72"/></g><path id="kvg:07fa3-s3" kvg:type="&#12752;" d="M24.28,31.65c1.22,0.21,3.43,0.82,4.87,0.61c10.6-1.52,28.1-3.77,40.38-5.03c1.94-0.2,3.17,0,4.63,0.2"/></g><g id="kvg:07fa3-g5" kvg:element="&#23608;" kvg:part="2"><g id="kvg:07fa3-g6" kvg:element="&#20031;"><path id="kvg:07fa3-s4" kvg:type="&#12754;" d="M44.69,16.23c0.06,0.52,0.05,2.54-0.18,3.16C40.1,31.54,35.75,40.25,19.5,52.25"/></g></g></g><g id="kvg:07fa3-g7" kvg:element="&#21475;"><path id="kvg:07fa3-s5" kvg:type="&#12753;" d="M38.71,38.84c0.25,0.22,0.69,1.31,0.75,1.6c0.54,2.81,2,6.54,2.52,10.52"/><path id="kvg:07fa3-s6" kvg:type="&#12757;b" d="M39.64,39.46C51.61,38.45,68,36.25,74.5,35.25c2.24-0.34,3,0.75,2.75,2.25C76.88,39.71,75.75,42,75,45"/><path id="kvg:07fa3-s7" kvg:type="&#12752;b" d="M42.54,48.62c7.27-0.91,24.98-2.9,34.21-3.81"/></g></g><g id="kvg:07fa3-g8" kvg:element="&#32650;" kvg:position="bottom" kvg:radical="tradit"><path id="kvg:07fa3-s8" kvg:type="&#12756;" d="M33.52,52.58c3.9,1.39,10.07,5.72,11.04,7.88"/><path id="kvg:07fa3-s9" kvg:type="&#12754;" d="M68.25,48.25c0.02,0.25,0.05,0.65-0.05,1.02C67.64,51.41,64.42,56.12,60,59"/><path id="kvg:07fa3-s10" kvg:type="&#12752;" d="M22.5,64.96c1.31,0.61,3.69,0.67,5.01,0.61c9.25-0.43,40.91-5.65,52.67-5.43c2.18,0.04,3.48,0.29,4.57,0.59"/><path id="kvg:07fa3-s11" kvg:type="&#12752;" d="M26.25,74.73c1.27,0.43,3.59,0.5,4.87,0.43c10.68-0.59,34.13-3.91,46.44-4.41c2.12-0.09,3.39,0.21,4.44,0.42"/><path id="kvg:07fa3-s12" kvg:type="&#12752;" d="M16,86.25c1.54,0.5,4.37,0.59,5.92,0.5c11.87-0.68,48.21-5.05,65.68-4.81c2.57,0.04,4.12,0.24,5.4,0.49"/><path id="kvg:07fa3-s13" kvg:type="&#12753;" d="M52.36,64.5c1,0.45,1.8,1.98,1.8,2.89c0,6.86-0.2,24.86-0.2,34.86"/></g></g></g></svg>