<svg xmlns="http://www.w3.org/2000/svg" width="109" height="109" viewBox="0 0 109 109"><g xmlns:kvg="http://kanjivg.tagaini.net" id="kvg:StrokePaths_07fbd" style="fill:none;stroke:#000000;stroke-width:3;stroke-linecap:round;stroke-linejoin:round;"><g id="kvg:07fbd" kvg:element="&#32701;" kvg:radical="general"><g id="kvg:07fbd-g1" kvg:position="left"><path id="kvg:07fbd-s1" kvg:type="&#12742;" d="M18.5,25.25c1.75,0.75,3.75,0.75,6.32,0.34c5.22-0.84,14.87-2.97,16.46-3.1c3.58-0.29,4.48,0.39,4.48,3.55c0,3.6-0.17,48.23-0.17,60.15c0,9.08-7.72,1.06-8.61,0.32"/><path id="kvg:07fbd-s2" kvg:type="&#12756;" d="M21.77,41.08c3.02,1.3,6.48,4.29,8.54,7.38"/><path id="kvg:07fbd-s3" kvg:type="&#12736;" d="M17,72c2.12,0.62,3.25,0.25,4.75-1.25c0.88-0.88,7.5-7.75,11.25-12"/></g><g id="kvg:07fbd-g2" kvg:position="right"><path id="kvg:07fbd-s4" kvg:type="&#12742;" d="M56.75,22.25C58.5,22.88,60,23,62.57,22.59c5.22-0.84,18.89-3.55,20.46-3.85c2.47-0.48,4.48,1.27,4.48,3.55c0,3.85-0.17,51.73-0.17,63.65c0,8.58-7.72,1.06-8.61,0.32"/><path id="kvg:07fbd-s5" kvg:type="&#12756;" d="M61.77,39.58c3.02,1.3,6.98,4.92,8.54,7.38"/><path id="kvg:07fbd-s6" kvg:type="&#12736;" d="M56.75,71c1.88,0.5,3.25,0.25,4.75-1.25c1.51-1.51,8.7-9.55,12.25-13.75"/></g></g></g></svg>