<svg xmlns="http://www.w3.org/2000/svg" width="109" height="109" viewBox="0 0 109 109"><g xmlns:kvg="http://kanjivg.tagaini.net" id="kvg:StrokePaths_07fe0" style="fill:none;stroke:#000000;stroke-width:3;stroke-linecap:round;stroke-linejoin:round;"><g id="kvg:07fe0" kvg:element="&#32736;"><g id="kvg:07fe0-g1" kvg:element="&#32701;" kvg:position="top" kvg:radical="general"><g id="kvg:07fe0-g2" kvg:position="left"><path id="kvg:07fe0-s1" kvg:type="&#12742;" d="M17.92,14.29c1.95,0.71,3.14,0.96,5.61,0.56c5.04-0.81,17.1-2.33,18.63-2.49c2.21-0.23,3.58,0.52,3.58,3.14c0,2.82,0.09,15,0.09,18.31c0,8.76-5.7,2.02-6.56,1.31"/><path id="kvg:07fe0-s2" kvg:type="&#12756;" d="M20.88,20.88c4.03,0.67,10.4,2.74,11.4,3.77"/><path id="kvg:07fe0-s3" kvg:type="&#12736;" d="M16.5,35.97c1.61,0.91,2.95,1.3,4.57,0.52c0.95-0.46,8.59-4.54,12.62-6.75"/></g><g id="kvg:07fe0-g3" kvg:position="right"><path id="kvg:07fe0-s4" kvg:type="&#12742;" d="M55.58,11.39c1.92,0.86,3.64,0.96,6.11,0.56c5.04-0.81,16.98-3.14,18.49-3.45c2.43-0.5,4.32,0.75,4.32,2.95c0,2.43,0.1,13.43,0.1,20.87c0,8.27-5.45,1.52-6.31,0.81"/><path id="kvg:07fe0-s5" kvg:type="&#12756;" d="M60.25,18.12c3.51,0.56,9.07,2.29,9.94,3.15"/><path id="kvg:07fe0-s6" kvg:type="&#12736;" d="M57.34,30.61c1.45,0.81,2.65,1.16,4.1,0.46c0.85-0.41,8.44-4.18,11.34-6.04"/></g></g><g id="kvg:07fe0-g4" kvg:element="&#21330;" kvg:position="bottom"><g id="kvg:07fe0-g5" kvg:position="top"><g id="kvg:07fe0-g6" kvg:element="&#20128;"><path id="kvg:07fe0-s7" kvg:type="&#12753;a" d="M53.22,35.75c1.08,1.08,1.28,2.76,1.28,3.69c0,1.94-0.11,4.19-0.11,6.57"/><path id="kvg:07fe0-s8" kvg:type="&#12752;" d="M25.2,47.56c3.42,0.57,6.45,0.26,9.92-0.04c10.59-0.92,28.45-2.32,39.5-2.79c2.74-0.12,6.12-0.22,9.67,0.66"/></g><g id="kvg:07fe0-g7" kvg:element="&#20174;"><g id="kvg:07fe0-g8" kvg:element="&#20154;" kvg:position="left"><path id="kvg:07fe0-s9" kvg:type="&#12754;" d="M39.17,53.74c0.07,0.9-0.14,1.72-0.63,2.47c-2.03,3.66-9.06,11.81-15.17,15.53"/><path id="kvg:07fe0-s10" kvg:type="&#12751;" d="M38.5,61.25c2.99,1.34,6.8,4.89,8.25,8.26"/></g><g id="kvg:07fe0-g9" kvg:element="&#20154;" kvg:position="right"><path id="kvg:07fe0-s11" kvg:type="&#12754;" d="M72.62,51.74c0.05,0.97-0.15,1.89-0.62,2.76c-1.59,3.59-6.15,10.53-10.13,13.87"/><path id="kvg:07fe0-s12" kvg:type="&#12751;" d="M73,58.75c4.02,1.46,9.15,5.33,11.11,9"/></g></g></g><g id="kvg:07fe0-g10" kvg:element="&#21313;" kvg:position="bottom"><path id="kvg:07fe0-s13" kvg:type="&#12752;" d="M15.38,78.84c3.58,1.27,7.84,0.6,11.49,0.3c17.74-1.44,44.36-2.94,58.87-3.37c3.68-0.11,7.03-0.12,10.63,0.65"/><path id="kvg:07fe0-s14" kvg:type="&#12753;" d="M53.59,66c1.15,1.14,1.23,2.5,1.23,4.73c0,0.91-0.04,14.14-0.05,23.02c-0.01,2.91-0.01,5.36-0.01,6.75"/></g></g></g></g></svg>