<svg xmlns="http://www.w3.org/2000/svg" width="109" height="109" viewBox="0 0 109 109"><g xmlns:kvg="http://kanjivg.tagaini.net" id="kvg:StrokePaths_0801c" style="fill:none;stroke:#000000;stroke-width:3;stroke-linecap:round;stroke-linejoin:round;"><g id="kvg:0801c" kvg:element="&#32796;"><g id="kvg:0801c-g1" kvg:element="&#32786;" kvg:position="left" kvg:radical="general"><g id="kvg:0801c-g2" kvg:element="&#20031;"><path id="kvg:0801c-s1" kvg:type="&#12754;" d="M44.23,19.66c-0.23,0.84-0.2,1.5-0.65,1.89c-5.58,4.88-12.89,9.81-27.57,12.2"/></g><g id="kvg:0801c-g3" kvg:element="&#26410;"><path id="kvg:0801c-s2" kvg:type="&#12752;" d="M14.22,42.18c0.48,0.31,3.67,0.87,4.15,0.84c4.95-0.36,17.94-1.88,25.79-3.15c0.79-0.13,2.2-0.35,2.6-0.19"/><g id="kvg:0801c-g4" kvg:element="&#26408;"><path id="kvg:0801c-s3" kvg:type="&#12752;" d="M11.34,55.14c0.44,0.28,3.21,0.82,4.37,0.82c6.05,0.01,19.79-2.29,29.64-3.39c1.15-0.13,2.18-0.19,2.91,0.08"/><path id="kvg:0801c-s4" kvg:type="&#12753;" d="M30.11,13.5c1.05,0.45,1.89,3.35,1.89,4.3c0,3.62,0.35,74.05,0.14,79.7"/><path id="kvg:0801c-s5" kvg:type="&#12754;" d="M31.25,55.75c-3.53,9.5-12.66,23.9-20.01,29.27"/><path id="kvg:0801c-s6" kvg:type="&#12756;/&#12751;" d="M34,60c5.14,2.59,8.91,6.58,12,11.05"/></g></g></g><g id="kvg:0801c-g5" kvg:position="right"><path id="kvg:0801c-s7" kvg:type="&#12753;" d="M54.65,18.34c0.81,0.7,1.29,3.17,1.45,4.58c0.16,1.41,0,63.77-0.16,72.58"/><path id="kvg:0801c-s8" kvg:type="&#12757;" d="M56.25,21c9.5-1.25,26.47-2.13,31.11-2.82c1.64-0.24,3.62,1.93,3.38,3.35c-0.97,5.87-2.07,12.41-4.15,20.87"/><path id="kvg:0801c-s9" kvg:type="&#12752;" d="M56.17,45.27c13.51-1.37,25.8-1.75,32.17-2.25"/><path id="kvg:0801c-s10" kvg:type="&#12757;" d="M56.25,64.46c8.5-0.74,25-2.22,32.39-3.44c3.11-0.51,4.34,1.23,3.8,4.19C91,73,90.45,79.97,88.29,91.29"/><path id="kvg:0801c-s11" kvg:type="&#12752;" d="M56.81,92.63c7.76-0.53,24.59-0.99,34.37-1.6"/></g></g></g></svg>