<svg xmlns="http://www.w3.org/2000/svg" width="109" height="109" viewBox="0 0 109 109"><g xmlns:kvg="http://kanjivg.tagaini.net" id="kvg:StrokePaths_0805a" style="fill:none;stroke:#000000;stroke-width:3;stroke-linecap:round;stroke-linejoin:round;"><g id="kvg:0805a" kvg:element="&#32858;"><g id="kvg:0805a-g1" kvg:element="&#21462;" kvg:position="top"><g id="kvg:0805a-g2" kvg:element="&#32819;" kvg:position="left" kvg:radical="general"><path id="kvg:0805a-s1" kvg:type="&#12752;" d="M12.65,16.85c0.92,0.21,2.62,0.27,3.54,0.21c8.04-0.45,20.7-2.46,30.78-2.81c1.54-0.05,2.47,0.1,3.24,0.21"/><path id="kvg:0805a-s2" kvg:type="&#12753;a" d="M21.46,19.03c0.68,0.58,1.19,1.86,1.19,2.96c0,1.1,0.3,21.32,0.3,25.29"/><path id="kvg:0805a-s3" kvg:type="&#12752;a" d="M22.81,26.9c4.69-0.4,16.69-1.9,20.15-1.92"/><path id="kvg:0805a-s4" kvg:type="&#12752;a" d="M23.02,35.76c4.73-0.51,14.48-2.26,20-2.79"/><path id="kvg:0805a-s5" kvg:type="&#12736;" d="M13.44,48.92c0.29,0.55,3.07,1,4.07,0.64c4.74-1.75,16.74-6.56,25.86-9.43"/><path id="kvg:0805a-s6" kvg:type="&#12753;" d="M42.19,17.24c0.56,0.99,1.1,1.81,1.1,2.86c0,1.05,0.16,23.55,0.16,32.16"/></g><g id="kvg:0805a-g3" kvg:element="&#21448;" kvg:position="right"><path id="kvg:0805a-s7" kvg:type="&#12743;" d="M55.32,19.39c1.43,0.36,3.27,0.44,5.26,0.18s16.5-4.5,17.88-4.63c2.03-0.19,3.28,0.9,2.52,2.59C75.5,29.75,63,39.75,53.45,43.58"/><path id="kvg:0805a-s8" kvg:type="&#12751;" d="M56.24,26.04C68.5,30.75,82.25,39,90.13,48.15"/></g></g><g id="kvg:0805a-g4" kvg:position="bottom"><g id="kvg:0805a-g5" kvg:element="&#20155;" kvg:variant="true" kvg:original="&#20154;"><path id="kvg:0805a-s9" kvg:type="&#12754;" d="M68.49,45.75c0.1,0.34,0.39,0.99-0.2,1.38c-7.38,4.83-18.3,9.27-37.54,13.17"/><path id="kvg:0805a-s10" kvg:type="&#12753;" d="M51.35,57.99c0.79,1.07,1.57,1.94,1.57,3.06c0,1.12-0.09,28.48-0.09,37.7"/></g><path id="kvg:0805a-s11" kvg:type="&#12754;" d="M37.5,63.89c0.06,0.29,0.11,0.75-0.11,1.17c-1.33,2.46-8.93,7.86-19.33,11.16"/><path id="kvg:0805a-s12" kvg:type="&#12754;" d="M41.73,74.39c0.07,0.5,0.15,1.3-0.14,2.02C39.86,80.67,29.92,90,16.31,95.72"/><path id="kvg:0805a-s13" kvg:type="&#12754;" d="M80.01,57.39c0.04,0.3,0.09,0.76-0.09,1.19c-1.05,2.51-7.1,8.01-15.37,11.38"/><path id="kvg:0805a-s14" kvg:type="&#12751;" d="M55.15,62.48c3.02,0.68,17.75,18.92,28.25,26.39c1.64,1.16,2.83,1.94,4.35,2.33"/></g></g></g></svg>