<svg xmlns="http://www.w3.org/2000/svg" width="109" height="109" viewBox="0 0 109 109"><g xmlns:kvg="http://kanjivg.tagaini.net" id="kvg:StrokePaths_08096" style="fill:none;stroke:#000000;stroke-width:3;stroke-linecap:round;stroke-linejoin:round;"><g id="kvg:08096" kvg:element="&#32918;"><g id="kvg:08096-g1" kvg:element="&#11916;" kvg:variant="true" kvg:original="&#23567;" kvg:position="top" kvg:radical="nelson" kvg:phon="&#23567;"><path id="kvg:08096-s1" kvg:type="&#12753;a" d="M53.94,9.87c1.35,1.35,1.72,3.13,1.72,5.08c0,11.3,0,15.3,0,26.17"/><path id="kvg:08096-s2" kvg:type="&#12756;" d="M28.38,20.62c4.1,2.63,10.6,10.31,11.63,14.4"/><path id="kvg:08096-s3" kvg:type="&#12754;" d="M81.2,16.15c0.08,1.03,0.09,1.81-0.4,2.72c-2.67,5-4.9,8.06-10.79,13.62"/></g><g id="kvg:08096-g2" kvg:element="&#26376;" kvg:variant="true" kvg:position="bottom" kvg:radical="tradit"><path id="kvg:08096-s4" kvg:type="&#12753;/&#12754;" d="M35.75,41.22c1.02,1.02,1.5,2.53,1.5,4c0,0.77,0.04,27.56,0.04,42.28c0,5.05-0.01,8.65-0.04,9.22"/><path id="kvg:08096-s5" kvg:type="&#12742;a" d="M38,43.47c6.62-0.72,30.5-3.62,32.75-3.75c3.62-0.22,5,1.16,5,4.75c0,10.78,0,25.75,0,46c0,11.03-6,2.78-8.25,1.03"/><path id="kvg:08096-s6" kvg:type="&#12752;a" d="M38.25,56.47c12-1.22,25.12-2.09,36.5-2.75"/><path id="kvg:08096-s7" kvg:type="&#12752;a" d="M38.5,71.22c8-0.75,27-2.25,36.25-2.75"/></g></g></g></svg>