<svg xmlns="http://www.w3.org/2000/svg" width="109" height="109" viewBox="0 0 109 109"><g xmlns:kvg="http://kanjivg.tagaini.net" id="kvg:StrokePaths_08093" style="fill:none;stroke:#000000;stroke-width:3;stroke-linecap:round;stroke-linejoin:round;"><g id="kvg:08093" kvg:element="&#32915;"><g id="kvg:08093-g1" kvg:element="&#20129;" kvg:position="top"><g id="kvg:08093-g2" kvg:element="&#20128;"><path id="kvg:08093-s1" kvg:type="&#12753;a" d="M51.75,10.5c0.74,0.34,2.4,1.75,2.4,3.67c0,2.5-0.02,5.83-0.02,9.14"/><g id="kvg:08093-g3" kvg:element="&#21304;" kvg:part="1" kvg:variant="true" kvg:original="&#21274;"><path id="kvg:08093-s2" kvg:type="&#12752;" d="M17.5,25c1.5,0.75,5.25,1.25,9,1c8.29-0.55,40.5-3,55.25-4c2.15-0.15,6.65-0.38,8.25,0.5"/></g></g><g id="kvg:08093-g4" kvg:element="&#21304;" kvg:part="2" kvg:variant="true" kvg:original="&#21274;"><path id="kvg:08093-s3" kvg:type="&#12740;a" d="M23.96,26.24c0.93,0.31,1.39,1.2,1.39,1.63c0,2.03,0,5.01,0,6.63c0,7.75,8.4,6.95,24.9,6.95c19.5,0,26.25-0.95,30.5-1.95"/></g></g><g id="kvg:08093-g5" kvg:element="&#26376;" kvg:variant="true" kvg:original="&#32905;" kvg:position="bottom" kvg:radical="general"><path id="kvg:08093-s4" kvg:type="&#12754;" d="M30.92,51.42c1.14,0.67,1.77,2.06,1.77,2.85c0,6.24,0.21,41.95,0.06,43.49"/><path id="kvg:08093-s5" kvg:type="&#12742;a" d="M33.58,53.08c3.1-0.2,35.25-2.67,37.55-2.88c4.13-0.37,4.68,2.36,4.68,3.42c0,2.39-0.23,23.51-0.23,36.29c0,13.58-6.63,2.77-7.67,2"/><path id="kvg:08093-s6" kvg:type="&#12752;a" d="M34.08,64.93c11.96-1.14,30.5-2.55,41-3.18"/><path id="kvg:08093-s7" kvg:type="&#12752;a" d="M34.08,77.08c9.38-0.62,30.15-2.2,41-2.67"/></g></g></g></svg>