<svg xmlns="http://www.w3.org/2000/svg" width="109" height="109" viewBox="0 0 109 109"><g xmlns:kvg="http://kanjivg.tagaini.net" id="kvg:StrokePaths_080af" style="fill:none;stroke:#000000;stroke-width:3;stroke-linecap:round;stroke-linejoin:round;"><g id="kvg:080af" kvg:element="&#32943;"><g id="kvg:080af-g1" kvg:element="&#27490;" kvg:position="top" kvg:radical="nelson"><g id="kvg:080af-g2" kvg:element="&#21340;" kvg:original="&#12488;"><path id="kvg:080af-s1" kvg:type="&#12753;a" d="M54.12,9.48c0.95,0.95,1.32,2.15,1.32,3.52c0,0.95,0.05,15.12,0.05,21.38"/><path id="kvg:080af-s2" kvg:type="&#12752;b" d="M57.96,21.27C61,21,67.75,19.75,72.33,19.48c1.62-0.1,2.02-0.23,3.04,0"/></g><path id="kvg:080af-s3" kvg:type="&#12753;a" d="M30.91,19.93c1.02,1.02,1.32,2.45,1.32,3.77c0,2.67-0.1,7.38-0.1,13.67"/><path id="kvg:080af-s4" kvg:type="&#12752;" d="M18,38.94c4.25,0.68,7.67,0.27,11.24-0.26c15.76-2.31,34.88-4.31,50.65-5.41c3.65-0.25,7.01-0.06,10.61,0.66"/></g><g id="kvg:080af-g3" kvg:element="&#26376;" kvg:position="bottom" kvg:radical="tradit"><path id="kvg:080af-s5" kvg:type="&#12754;" d="M38.56,47.73c0.7,0.89,0.89,2.02,0.89,3.42c0,2.6,0.03,26.3,0.02,38.85c0,3.75-0.01,6.35-0.04,6.81"/><path id="kvg:080af-s6" kvg:type="&#12742;a" d="M40.39,48.97c2.49-0.2,25.36-3.42,27.22-3.54c2.77-0.18,4.15,1.32,4.15,4.94c0,5.39-0.01,27.17-0.01,41.75c0,10.36-5.34,3.58-7.42,1.79"/><path id="kvg:080af-s7" kvg:type="&#12752;a" d="M40.64,61.87c9.74-1.12,21.86-2.37,30.17-2.84"/><path id="kvg:080af-s8" kvg:type="&#12752;a" d="M40.51,75.87c7.61-0.87,22.19-2.39,29.88-2.79"/></g></g></g></svg>