<svg xmlns="http://www.w3.org/2000/svg" width="109" height="109" viewBox="0 0 109 109"><g xmlns:kvg="http://kanjivg.tagaini.net" id="kvg:StrokePaths_080ac" style="fill:none;stroke:#000000;stroke-width:3;stroke-linecap:round;stroke-linejoin:round;"><g id="kvg:080ac" kvg:element="&#32940;"><g id="kvg:080ac-g1" kvg:element="&#26376;" kvg:position="left" kvg:radical="tradit"><path id="kvg:080ac-s1" kvg:type="&#12754;" d="M18.75,20c0.73,0.97,1,3.06,1.25,4c0.24,0.94,0.53,24.36-0.25,32.25c-1.11,11.23-2,23.25-10,36.73"/><path id="kvg:080ac-s2" kvg:type="&#12742;a" d="M20.2,21.36c2.18-0.06,12.59-1.8,14.21-1.92c2.9-0.23,3.63,1.28,3.63,2.62c0,3.17-0.04,44.44-0.04,62.46c0,12.39-5.14,4.48-6.99,2.99"/><path id="kvg:080ac-s3" kvg:type="&#12752;a" d="M21.2,41.96c4.3-0.32,12.17-1.39,15.95-1.42"/><path id="kvg:080ac-s4" kvg:type="&#12752;a" d="M20.5,60.5c3.5-0.08,11.78-1.04,16.53-1.46"/></g><g id="kvg:080ac-g2" kvg:element="&#23588;" kvg:position="right"><g id="kvg:080ac-g3" kvg:element="&#23586;"><path id="kvg:080ac-s5" kvg:type="&#12752;" d="M44.5,37.18c1.5,0.32,3.79,0.98,6.25,0.57c9-1.51,30.47-4.24,40.49-4.23c1.55,0,3.57,0.71,4.35,0.93"/><g id="kvg:080ac-g4" kvg:element="&#20799;" kvg:original="&#20843;"><g id="kvg:080ac-g5" kvg:element="&#20031;"><path id="kvg:080ac-s6" kvg:type="&#12754;" d="M65.58,13.92c1.42,1.33,1.5,3.08,1.5,4.83c0,33.5-3.33,63.25-25,76.5"/></g><path id="kvg:080ac-s7" kvg:type="&#12767;" d="M70.75,45.42c1,1.08,1.14,1.8,1.17,4.17c0.13,10.57,0.12,26.35,0.12,33.54c0,9.13,1.22,10.96,11.05,10.96c11.92,0,12.83-2.58,12.83-11.33"/></g></g><g id="kvg:080ac-g6" kvg:element="&#20022;"><path id="kvg:080ac-s8" kvg:type="&#12756;" d="M79.58,16.25c3.97,1.63,10.17,6.96,11.17,9.5"/></g></g></g></g></svg>