<svg xmlns="http://www.w3.org/2000/svg" width="109" height="109" viewBox="0 0 109 109"><g xmlns:kvg="http://kanjivg.tagaini.net" id="kvg:StrokePaths_080c4" style="fill:none;stroke:#000000;stroke-width:3;stroke-linecap:round;stroke-linejoin:round;"><g id="kvg:080c4" kvg:element="&#32964;"><g id="kvg:080c4-g1" kvg:element="&#30001;" kvg:position="top"><g id="kvg:080c4-g2" kvg:element="&#30000;" kvg:part="1" kvg:partial="true"><path id="kvg:080c4-s1" kvg:type="&#12753;" d="M25.58,19.92c0.54,0.67,1.54,2.25,1.67,2.83c1.03,4.82,2.39,14.97,3,23.83"/><path id="kvg:080c4-s2" kvg:type="&#12757;a" d="M27.42,21.42c17.95-1.08,40.97-3.67,52.33-3.67c2.75,0,4.25,1.5,4,4.33c-0.38,4.31-2.05,14.84-4.67,21.83"/></g><g id="kvg:080c4-g3" kvg:element="&#20008;"><path id="kvg:080c4-s3" kvg:type="&#12753;a" d="M52.45,8.36c1.05,0.89,1.45,2.73,1.45,3.39c0.04,6.55,0.23,28.48,0.23,30.19"/></g><g id="kvg:080c4-g4" kvg:element="&#30000;" kvg:part="2" kvg:partial="true"><path id="kvg:080c4-s4" kvg:type="&#12752;a" d="M29.42,32.08c4.86-0.45,48.48-3.83,52.5-3.83"/><path id="kvg:080c4-s5" kvg:type="&#12752;a" d="M30.58,43.92c11.93-0.64,30.98-2.88,48.17-3.17"/></g></g><g id="kvg:080c4-g5" kvg:element="&#26376;" kvg:variant="true" kvg:original="&#32905;" kvg:position="bottom" kvg:radical="general"><path id="kvg:080c4-s6" kvg:type="&#12754;" d="M34.58,54.08c1.14,0.67,2,2.17,2,3.83c0,6.33,0.32,41.39,0.17,42.94"/><path id="kvg:080c4-s7" kvg:type="&#12742;a" d="M37.08,55.58c3.01-0.21,31.58-2.5,33.83-2.5c2.33,0,3.73,1.42,3.73,3.8c0,2.46-0.23,23.71-0.23,36.87c0,10.54-5.16,2.3-6.17,1.5"/><path id="kvg:080c4-s8" kvg:type="&#12752;a" d="M36.92,67.75c10.32-1.14,27.93-2.04,37-2.67"/><path id="kvg:080c4-s9" kvg:type="&#12752;a" d="M36.75,79.75c7.91-0.43,28.69-1.84,37.83-2.17"/></g></g></g></svg>