<svg xmlns="http://www.w3.org/2000/svg" width="109" height="109" viewBox="0 0 109 109"><g xmlns:kvg="http://kanjivg.tagaini.net" id="kvg:StrokePaths_080e1" style="fill:none;stroke:#000000;stroke-width:3;stroke-linecap:round;stroke-linejoin:round;"><g id="kvg:080e1" kvg:element="&#32993;"><g id="kvg:080e1-g1" kvg:element="&#21476;" kvg:position="left"><g id="kvg:080e1-g2" kvg:element="&#21313;"><path id="kvg:080e1-s1" kvg:type="&#12752;" d="M13.78,42.67c2.35,0.58,4.46,0.42,6.39,0.08c7.84-1.38,20.46-3.65,28.09-4.34c1.64-0.15,4.35-0.15,5.97,0.31"/><path id="kvg:080e1-s2" kvg:type="&#12753;a" d="M33.36,16.25c1.07,1.07,1.13,2.38,1.13,4.15c0,15.64-0.12,33.52-0.12,40.72"/></g><g id="kvg:080e1-g3" kvg:element="&#21475;"><path id="kvg:080e1-s3" kvg:type="&#12753;" d="M19.12,63.12C20,64,20.18,65.2,20.39,66.48c0.67,4.03,1.75,11.03,2.67,17.66c0.26,1.84,0.5,3.66,0.72,5.37"/><path id="kvg:080e1-s4" kvg:type="&#12757;b" d="M21.24,64.44c5.52-0.79,16.89-3.25,22.75-3.91c3.44-0.39,5.16,0.54,4.61,4.24c-0.78,5.19-2.63,12.87-3.51,19.11"/><path id="kvg:080e1-s5" kvg:type="&#12752;b" d="M23.87,87.2c3.94-0.28,12.21-1.36,18.76-2.08c2.19-0.24,4.18-0.45,5.76-0.57"/></g></g><g id="kvg:080e1-g4" kvg:element="&#26376;" kvg:variant="true" kvg:original="&#32905;" kvg:position="right" kvg:radical="general"><path id="kvg:080e1-s6" kvg:type="&#12754;" d="M61,16.81c0.85,0.85,0.96,2.02,0.99,3.05c1.39,51.89-1.36,61.02-12.23,73.39"/><path id="kvg:080e1-s7" kvg:type="&#12742;a" d="M62.97,19.08C66.23,18.28,77.3,16,81.75,15.1c3.64-0.74,5.54-0.3,5.54,3.77c0,8.21,0.01,52.15,0.01,71.04c0,9.83-5.54,2.33-7.59,0.29"/><path id="kvg:080e1-s8" kvg:type="&#12752;a" d="M63.55,40.85c6.43-1.2,16.68-2.93,22.32-3.35"/><path id="kvg:080e1-s9" kvg:type="&#12752;a" d="M62.46,61.7c6.04-0.7,16.29-1.7,23.5-2.15"/></g></g></g></svg>