<svg xmlns="http://www.w3.org/2000/svg" width="109" height="109" viewBox="0 0 109 109"><g xmlns:kvg="http://kanjivg.tagaini.net" id="kvg:StrokePaths_080e5" style="fill:none;stroke:#000000;stroke-width:3;stroke-linecap:round;stroke-linejoin:round;"><g id="kvg:080e5" kvg:element="&#32997;"><g id="kvg:080e5-g1" kvg:element="&#30091;" kvg:position="top"><path id="kvg:080e5-s1" kvg:type="&#12758;" d="M20.97,18.34c2.03,0.41,3.46,0.6,6.28,0.33c16-1.5,35.97-4.67,53.69-4.67c6.06,0,4.06,4-0.69,6.84"/><g id="kvg:080e5-g2" kvg:element="&#21340;" kvg:original="&#12488;"><path id="kvg:080e5-s2" kvg:type="&#12753;" d="M51.62,16.67c1.09,0.33,1.74,1.5,1.96,2.17c0.22,0.67,0,15.22-0.22,19.39"/><path id="kvg:080e5-s3" kvg:type="&#12752;" d="M54.13,28.37c7.12-0.5,9.12-0.5,19.85-1.5c1.73-0.16,2.18-0.17,3.26,0"/></g><g id="kvg:080e5-g3" kvg:element="&#20154;"><path id="kvg:080e5-s4" kvg:type="&#12754;" d="M34.5,23.79c0.05,0.59,0.11,1.52-0.11,2.37c-1.29,5-8.7,15.67-18.84,22.39"/><path id="kvg:080e5-s5" kvg:type="&#12751;" d="M32.75,32.3c7.77,2.19,41.87,12.54,50.32,14.7c2.86,0.73,5.32,1.04,8.18,1.25"/></g></g><g id="kvg:080e5-g4" kvg:element="&#26376;" kvg:variant="true" kvg:original="&#32905;" kvg:position="bottom" kvg:radical="general"><path id="kvg:080e5-s6" kvg:type="&#12754;" d="M34.5,53.5c0.75,1,1.25,2,1.5,3s0.35,40.5,0.25,42.75"/><path id="kvg:080e5-s7" kvg:type="&#12742;a" d="M37,55c3-0.25,31.52-2.97,33.75-3.25c4-0.5,5.09,2.17,5,3.75C75.5,59.75,75,69.75,75,90c0,13-3.5,6.5-6,4.25"/><path id="kvg:080e5-s8" kvg:type="&#12752;a" d="M36.5,66.25c11.03-1,29.06-2.5,38.75-3"/><path id="kvg:080e5-s9" kvg:type="&#12752;a" d="M36.25,77.55c9.04-0.61,28.3-2.44,38.75-2.84"/></g></g></g></svg>