<svg xmlns="http://www.w3.org/2000/svg" width="109" height="109" viewBox="0 0 109 109"><g xmlns:kvg="http://kanjivg.tagaini.net" id="kvg:StrokePaths_08133" style="fill:none;stroke:#000000;stroke-width:3;stroke-linecap:round;stroke-linejoin:round;"><g id="kvg:08133" kvg:element="&#33075;"><g id="kvg:08133-g1" kvg:element="&#26376;" kvg:variant="true" kvg:original="&#32905;" kvg:position="left" kvg:radical="general"><path id="kvg:08133-s1" kvg:type="&#12754;" d="M20.57,22.42c0.76,0.76,1,2.03,1.03,2.92c0.98,32.04-1.61,56.32-9.6,65.08"/><path id="kvg:08133-s2" kvg:type="&#12742;a" d="M22.38,23.94c2.99-0.57,12.94-2.65,14.47-2.85c1.78-0.22,2.94,1.24,2.94,2.54c0,3.07-0.02,44.25-0.02,61.71c0,10.68-5.8,3.38-7.56,1.94"/><path id="kvg:08133-s3" kvg:type="&#12752;a" d="M22.88,40.25c4.53-0.34,11.8-1.73,15.77-1.75"/><path id="kvg:08133-s4" kvg:type="&#12752;a" d="M22.33,57.12c3.72-0.08,11.43-0.97,16.48-1.37"/></g><g id="kvg:08133-g2" kvg:position="right" kvg:phon="&#12388;+&#20982;"><g id="kvg:08133-g3" kvg:element="&#11917;" kvg:original="&#12388;" kvg:position="top"><path id="kvg:08133-s5" kvg:type="&#12756;" d="M47,27.36c3.76,4.43,6.88,10.27,8.08,13.89"/><path id="kvg:08133-s6" kvg:type="&#12756;" d="M63.82,20.25c2.68,3.38,6.43,10.5,7.65,16.25"/><path id="kvg:08133-s7" kvg:type="&#12754;" d="M92.86,17.5c0.51,1.25,0.26,2.75-0.65,4.14c-2.81,4.3-4.84,7.24-10.05,14.33"/></g><g id="kvg:08133-g4" kvg:element="&#20982;" kvg:position="bottom"><g id="kvg:08133-g5" kvg:element="&#20034;"><g id="kvg:08133-g6" kvg:element="&#20031;"><path id="kvg:08133-s8" kvg:type="&#12754;" d="M80.72,46.18c0.37,0.75,0.49,1.85-0.06,3.17c-4.99,11.89-12.41,21.6-23.15,27.82"/></g><path id="kvg:08133-s9" kvg:type="&#12756;/&#12751;" d="M60.26,54.97c7.18,3.02,17.76,13.08,21.51,20.26"/></g><g id="kvg:08133-g7" kvg:element="&#20981;" kvg:position="kamae"><path id="kvg:08133-s10" kvg:type="&#12740;a" d="M49.56,59.31c0.69,0.69,1.06,1.94,1.04,3.12c-0.08,3.44,0.14,17.3-0.06,22.56c-0.06,1.74-0.36,3.18,1.86,3.04c8.43-0.5,33.96-2.72,38.78-3"/><path id="kvg:08133-s11" kvg:type="&#12753;" d="M93.05,54.56c0.76,0.76,0.95,2.06,0.79,3.87c-0.34,3.67-1.5,16.3-2.25,25.06c-0.21,2.45-0.39,4.52-0.51,5.89"/></g></g></g></g></g></svg>