<svg xmlns="http://www.w3.org/2000/svg" width="109" height="109" viewBox="0 0 109 109"><g xmlns:kvg="http://kanjivg.tagaini.net" id="kvg:StrokePaths_08155" style="fill:none;stroke:#000000;stroke-width:3;stroke-linecap:round;stroke-linejoin:round;"><g id="kvg:08155" kvg:element="&#33109;"><g id="kvg:08155-g1" kvg:element="&#26376;" kvg:variant="true" kvg:original="&#32905;" kvg:position="left" kvg:radical="general"><path id="kvg:08155-s1" kvg:type="&#12754;" d="M17,20c0.88,0.88,0.96,1.97,1,3c1.5,37.75-1.38,56.62-7.75,69"/><path id="kvg:08155-s2" kvg:type="&#12742;a" d="M19,22.25c4.07-0.79,9.61-1.8,12.26-2.34c2.22-0.46,4.24,0.54,4.24,3.09c0,6.75,0,43.75,0,64c0,10.75-4.75,5.25-7.5,2.25"/><path id="kvg:08155-s3" kvg:type="&#12752;a" d="M19.5,40.75c4.75-0.5,8.25-0.88,15-1.5"/><path id="kvg:08155-s4" kvg:type="&#12752;a" d="M18.75,58.75c5.25-0.75,9.5-1.25,15.5-1.5"/></g><g id="kvg:08155-g2" kvg:element="&#23451;" kvg:position="right" kvg:phon="&#23451;"><g id="kvg:08155-g3" kvg:element="&#23424;" kvg:position="top"><path id="kvg:08155-s5" kvg:type="&#12753;a" d="M67.15,13.8c0.96,0.96,1.35,2.25,1.35,3.7c0,3.05,0.11,6.45,0.11,9.22"/><g id="kvg:08155-g4" kvg:element="&#20886;"><path id="kvg:08155-s6" kvg:type="&#12756;" d="M48.08,27.49c0,3.68-2.87,13.79-4.17,16.25"/><path id="kvg:08155-s7" kvg:type="&#12758;b" d="M48.94,29.35c8.18-1.1,32.93-3.6,42-3.82c9.81-0.24,0.35,6.34-1.64,7.99"/></g></g><g id="kvg:08155-g5" kvg:position="bottom"><g id="kvg:08155-g6" kvg:element="&#22805;" kvg:position="left"><path id="kvg:08155-s8" kvg:type="&#12754;" d="M54.42,39.17c0.15,0.53,0.13,1.92-0.22,2.92c-2.7,7.79-7.75,16.06-14.81,25.85"/><path id="kvg:08155-s9" kvg:type="&#12743;" d="M54.06,50.7c0.57,0.18,1.41,0.19,2.06,0.13c2.01-0.2,4.26-0.7,7.17-1.56c2.11-0.63,3.4,0.77,2.61,2.94C61.88,63.25,52,82.5,38.75,93.75"/><path id="kvg:08155-s10" kvg:type="&#12756;" d="M47.62,61.25c2.31,1.55,5.97,6.38,6.54,8.79"/></g><g id="kvg:08155-g7" kvg:element="&#21353;" kvg:variant="true" kvg:position="right"><path id="kvg:08155-s11" kvg:type="&#12742;" d="M71.24,45.96c1.64,0.54,3.53,0.21,4.6,0.07c3.91-0.53,10.61-2.08,12.04-2.38c2.49-0.52,3.72,0.87,3.63,3.43c-0.14,4.35-1.73,17.56-4.05,24.64c-2.22,6.78-4.22,2.53-5.45-0.39"/><path id="kvg:08155-s12" kvg:type="&#12767;/&#12753;" d="M71.89,46.75c0.93,0.93,1.28,2,1.28,3.33c0,12.3-0.01,20.3-0.01,29.2c0,12.97,0.58,14.47,12.28,14.47c10.68,0,11.7-2,11.7-10.9"/></g></g></g></g></g></svg>