<svg xmlns="http://www.w3.org/2000/svg" width="109" height="109" viewBox="0 0 109 109"><g xmlns:kvg="http://kanjivg.tagaini.net" id="kvg:StrokePaths_0816b" style="fill:none;stroke:#000000;stroke-width:3;stroke-linecap:round;stroke-linejoin:round;"><g id="kvg:0816b" kvg:element="&#33131;"><g id="kvg:0816b-g1" kvg:element="&#26376;" kvg:variant="true" kvg:original="&#32905;" kvg:position="left" kvg:radical="general"><path id="kvg:0816b-s1" kvg:type="&#12754;" d="M17.47,22.24c0.77,0.77,1.04,1.87,1.05,2.8c0.35,33.21-0.65,51.21-7.52,67.85"/><path id="kvg:0816b-s2" kvg:type="&#12742;a" d="M19.57,23.56c3.76-1.04,10.23-2.62,12.84-3.09c3.4-0.61,4.39,1.08,4.36,4.02c-0.07,8.4-0.02,46.18-0.02,63.07c0,12.61-5.91,3.55-7.7,2.04"/><path id="kvg:0816b-s3" kvg:type="&#12752;a" d="M19.57,41.95c6.05-0.95,10.05-1.58,16.08-2.32"/><path id="kvg:0816b-s4" kvg:type="&#12752;a" d="M19.01,59.15c4.74-0.52,11.64-1.28,16.79-1.7"/></g><g id="kvg:0816b-g2" kvg:element="&#37325;" kvg:position="right"><g id="kvg:0816b-g3" kvg:element="&#21315;" kvg:part="1"><g id="kvg:0816b-g4" kvg:element="&#20031;"><path id="kvg:0816b-s5" kvg:type="&#12754;" d="M79.56,14.05c-0.18,1.3-0.8,2.2-1.86,2.7c-4.6,2.8-12.95,5.47-28.18,8.28"/></g><g id="kvg:0816b-g5" kvg:element="&#21313;" kvg:part="1"><path id="kvg:0816b-s6" kvg:type="&#12752;" d="M43.92,33.99c3.37,0.64,6.68,0.25,10.09-0.2c8.55-1.12,20.87-2.42,29.74-3.22c3.39-0.31,6.67-0.44,10,0.16"/></g></g><g id="kvg:0816b-g6" kvg:element="&#37324;"><path id="kvg:0816b-s7" kvg:type="&#12753;" d="M48.6,43.31c0.69,0.96,1.31,2.02,1.37,3.18c0.71,4.74,1.52,9.92,2.27,14.89c0.36,2.4,0.71,4.75,1.02,6.98"/><path id="kvg:0816b-s8" kvg:type="&#12757;a" d="M50.68,45.2c11.94-1.45,24.69-3.07,34.69-3.89c3.67-0.3,5.11,1.28,4.76,4.45c-0.38,3.43-0.91,8.39-1.53,13.14c-0.33,2.56-0.7,5.06-1.08,7.23"/><path id="kvg:0816b-s9" kvg:type="&#12752;a" d="M52.39,55.46C65,53.88,76.12,53,88.19,52.39"/><path id="kvg:0816b-s10" kvg:type="&#12752;a" d="M54.16,66.65c12.97-1.28,22.69-1.94,32.62-2.36"/><g id="kvg:0816b-g7" kvg:element="&#21315;" kvg:part="2"><g id="kvg:0816b-g8" kvg:element="&#21313;" kvg:part="2"><path id="kvg:0816b-s11" kvg:type="&#12753;" d="M67.9,23.36c1.06,1.06,1.43,2.55,1.43,3.34c0,1.03-0.19,57.29-0.19,64.26"/></g></g><path id="kvg:0816b-s12" kvg:type="&#12752;" d="M50.77,78.38c2.44,0.64,4.79,0.34,7.35,0.09c7.38-0.72,15.76-1.6,23.13-2.05c2.61-0.16,4.93-0.65,7.29,0.27"/><path id="kvg:0816b-s13" kvg:type="&#12752;" d="M42.48,92.87c3.73,0.82,7.43,0.41,11.27,0.13c12-0.87,23.14-1.52,33.88-1.8c3.49-0.09,6.89-0.27,10.28,0.45"/></g></g></g></g></svg>