<svg xmlns="http://www.w3.org/2000/svg" width="109" height="109" viewBox="0 0 109 109"><g xmlns:kvg="http://kanjivg.tagaini.net" id="kvg:StrokePaths_08195" style="fill:none;stroke:#000000;stroke-width:3;stroke-linecap:round;stroke-linejoin:round;"><g id="kvg:08195" kvg:element="&#33173;"><g id="kvg:08195-g1" kvg:element="&#26376;" kvg:variant="true" kvg:original="&#32905;" kvg:position="left" kvg:radical="general"><path id="kvg:08195-s1" kvg:type="&#12754;" d="M15.75,17.08c1.33,0.67,2.38,2.08,2.53,3.06c0.15,0.98,0.13,27.6-0.35,35.84c-0.69,11.72-1.39,23.53-7.85,37"/><path id="kvg:08195-s2" kvg:type="&#12742;a" d="M18.99,18.42c1.9-0.06,10.97-2.36,12.39-2.49c2.53-0.23,3.16,1.32,3.16,2.7c0,3.27-0.47,46.74-0.47,65.28c0,12.75-4.02,7.21-5.64,5.68"/><path id="kvg:08195-s3" kvg:type="&#12752;a" d="M19.32,39.25c3.84-0.25,10.87-1.47,14.25-1.49"/><path id="kvg:08195-s4" kvg:type="&#12752;a" d="M18.93,58.48c3.45-0.08,8.96-0.81,13.65-1.23"/></g><g id="kvg:08195-g2" kvg:element="&#22283;" kvg:variant="true" kvg:original="&#22269;" kvg:position="right"><g id="kvg:08195-g3" kvg:element="&#22231;" kvg:part="1"><path id="kvg:08195-s5" kvg:type="&#12753;" d="M45.58,15.92c0.83,0.83,1.39,1.69,1.41,3.6c0.1,14.42,0.1,48.53-0.21,76.06"/><path id="kvg:08195-s6" kvg:type="&#12757;a" d="M48.07,17.43C61,16.5,83.4,15.25,91.58,15.25c1.86,0,2.62,1.01,2.58,4.05C94,35.18,93.49,72.48,93.83,94.92"/></g><g id="kvg:08195-g4" kvg:element="&#25110;"><g id="kvg:08195-g5" kvg:element="&#25096;" kvg:part="1"><g id="kvg:08195-g6" kvg:element="&#24331;" kvg:part="1"><path id="kvg:08195-s7" kvg:type="&#12752;" d="M51.75,36.08c0.71,0.34,4.46,1.64,5.17,1.5c5.47-1.11,21.59-2.86,28-3.33c1.19-0.09,3.24,0.49,3.83,0.67"/></g></g><g id="kvg:08195-g7" kvg:element="&#21475;"><path id="kvg:08195-s8" kvg:type="&#12753;" d="M51.92,46.08c0.18,0.35,1.78,1.54,1.83,2c0.5,4.08,1.12,12.65,1.62,18.64"/><path id="kvg:08195-s9" kvg:type="&#12757;b" d="M54.58,47.58c3.84-0.79,8.27-0.92,11.81-1.72c0.89-0.2,1.43,0.92,1.3,1.83c-0.53,3.76-0.84,8.29-1.78,14.56"/><path id="kvg:08195-s10" kvg:type="&#12752;b" d="M55.82,65.03c3.04-0.39,7.67-1.07,11.85-1.67"/></g><g id="kvg:08195-g8" kvg:element="&#19968;"><path id="kvg:08195-s11" kvg:type="&#12736;/&#12752;" d="M53.42,77.8c0.48,0.67,2.15,1.1,3.58,0.22c3.97-2.45,11.11-6.82,15.08-9.27"/></g><g id="kvg:08195-g9" kvg:element="&#25096;" kvg:part="2"><g id="kvg:08195-g10" kvg:element="&#24331;" kvg:part="2"><path id="kvg:08195-s12" kvg:type="&#12738;" d="M70.75,20.92c0.63,1.24,2,2.34,2.17,5c1.54,24.24,3.41,45.47,12.25,54.63c2.5,2.58,3.4,2.18,3.08-3.29"/></g><g id="kvg:08195-g11" kvg:element="&#20031;"><path id="kvg:08195-s13" kvg:type="&#12754;" d="M86.25,40.58c0.06,1.04,0.14,2.04-0.12,3.54C83.1,60.91,76.5,76.25,62.99,85.05"/></g><g id="kvg:08195-g12" kvg:element="&#24331;" kvg:part="3"><g id="kvg:08195-g13" kvg:element="&#20022;"><path id="kvg:08195-s14" kvg:type="&#12756;" d="M79.25,20.42c1.68,1.3,7.21,5.93,8,8.17"/></g></g></g></g><g id="kvg:08195-g14" kvg:element="&#22231;" kvg:part="2"><path id="kvg:08195-s15" kvg:type="&#12752;a" d="M47.42,92.26c8.73,0,33.45-1.93,45.5-2.35"/></g></g></g></g></svg>