<svg xmlns="http://www.w3.org/2000/svg" width="109" height="109" viewBox="0 0 109 109"><g xmlns:kvg="http://kanjivg.tagaini.net" id="kvg:StrokePaths_081b5" style="fill:none;stroke:#000000;stroke-width:3;stroke-linecap:round;stroke-linejoin:round;"><g id="kvg:081b5" kvg:element="&#33205;"><g id="kvg:081b5-g1" kvg:element="&#26376;" kvg:variant="true" kvg:original="&#32905;" kvg:position="left" kvg:radical="general"><path id="kvg:081b5-s1" kvg:type="&#12754;" d="M16.42,19.58c1.33,0.92,1.34,2.92,1.5,3.83c0.15,0.91,0,24.51-0.49,32.16c-0.7,10.89-1.42,21.87-8.01,34.4"/><path id="kvg:081b5-s2" kvg:type="&#12742;a" d="M18.58,20.42c2.02-0.06,11.58-2.53,13.09-2.65c2.69-0.23,3.37,1.3,3.37,2.66c0,3.22-0.51,46.11-0.51,64.4c0,12.58-4.4,5.1-6.12,3.59"/><path id="kvg:081b5-s3" kvg:type="&#12752;a" d="M18.32,39.54c4.38-0.24,12.4-1.4,16.25-1.41"/><path id="kvg:081b5-s4" kvg:type="&#12752;a" d="M18.43,57.12c3.57-0.06,10.94-0.98,15.79-1.31"/></g><g id="kvg:081b5-g2" kvg:element="&#33795;" kvg:position="right"><g id="kvg:081b5-g3" kvg:element="&#33401;" kvg:variant="true" kvg:original="&#33400;" kvg:position="top"><path id="kvg:081b5-s5" kvg:type="&#12752;" d="M44.42,23.92c0.9,0.46,4.6,0.76,5.5,0.67c8.22-0.84,30.53-3.16,40-3.5c2.23-0.08,4.18,0.32,5.83,0.83"/><path id="kvg:081b5-s6" kvg:type="&#12753;a" d="M53.53,14.05c1.72,1.55,2.58,2.07,2.72,3.04c0.98,6.48,0.95,13.2,1.44,16.44"/><path id="kvg:081b5-s7" kvg:type="&#12753;a" d="M80.92,12.92c1.27,1.07,1.25,3.09,0.83,4.67c-1.27,4.81-1.48,5.71-3.46,14.8"/></g><g id="kvg:081b5-g4" kvg:element="&#21330;" kvg:position="bottom"><g id="kvg:081b5-g5" kvg:position="top"><g id="kvg:081b5-g6" kvg:element="&#20128;"><path id="kvg:081b5-s8" kvg:type="&#12753;a" d="M66.75,29.42c0.35,0.41,1.83,1.85,1.83,2.67c0,3.02-0.04,6.01,0.03,8.57"/><path id="kvg:081b5-s9" kvg:type="&#12752;" d="M46.92,42.58c1.83,0.42,3.34,0.46,5.5,0.33c7.33-0.42,26.41-2.82,34.33-3c1.31-0.03,3.69-0.07,4.67,0.33"/></g><g id="kvg:081b5-g7" kvg:element="&#20174;"><g id="kvg:081b5-g8" kvg:element="&#20154;" kvg:position="left"><path id="kvg:081b5-s10" kvg:type="&#12754;" d="M56.29,46.01c0,0.5,0.03,0.89-0.1,1.49c-0.68,3.11-7.13,13.47-12.65,18.07"/><path id="kvg:081b5-s11" kvg:type="&#12751;" d="M57.74,51.77c3.13,1.13,7.14,4.14,8.66,7"/></g><g id="kvg:081b5-g9" kvg:element="&#20154;" kvg:position="right"><path id="kvg:081b5-s12" kvg:type="&#12754;" d="M81.91,43.96c0,0.4,0.03,0.71-0.08,1.19c-0.53,2.48-5.63,10.76-9.99,14.43"/><path id="kvg:081b5-s13" kvg:type="&#12751;" d="M81.67,52.07c3.8,1.48,8.66,5.4,10.5,9.12"/></g></g></g><g id="kvg:081b5-g10" kvg:element="&#21313;" kvg:position="bottom"><path id="kvg:081b5-s14" kvg:type="&#12752;" d="M43.75,73.25c0.98,0.64,3.52,1.47,6.67,1c10.08-1.5,33.76-3.25,42.33-3.5c1.63-0.05,4.85,0.51,5.67,0.83"/><path id="kvg:081b5-s15" kvg:type="&#12753;" d="M67.58,63.58c0.92,0.92,1.3,2.21,1.33,3.17c0.04,0.96-0.05,26.66-0.09,32.67"/></g></g></g></g></g></svg>