<svg xmlns="http://www.w3.org/2000/svg" width="109" height="109" viewBox="0 0 109 109"><g xmlns:kvg="http://kanjivg.tagaini.net" id="kvg:StrokePaths_081b0" style="fill:none;stroke:#000000;stroke-width:3;stroke-linecap:round;stroke-linejoin:round;"><g id="kvg:081b0" kvg:element="&#33200;"><g id="kvg:081b0-g1" kvg:element="&#26376;" kvg:variant="true" kvg:original="&#32905;" kvg:position="left" kvg:radical="general"><path id="kvg:081b0-s1" kvg:type="&#12754;" d="M17.92,18.92c0.58,0.83,0.97,2.58,1.17,3.5c0.19,0.92-0.15,25.28-0.77,33c-0.88,11-1.45,22.69-9.73,35.33"/><path id="kvg:081b0-s2" kvg:type="&#12742;a" d="M18.75,19.92c1.68-0.06,10.89-1.87,12.14-2c2.24-0.23,2.48,0.99,2.48,2.35c0,3.23-0.42,46.22-0.42,64.55c0,12.61-3.49,6.95-4.92,5.44"/><path id="kvg:081b0-s3" kvg:type="&#12752;a" d="M19.42,40.58c3.89-0.3,10.07-1.51,13.49-1.53"/><path id="kvg:081b0-s4" kvg:type="&#12752;a" d="M19.08,59.08c2.93-0.06,9.19-0.85,13.17-1.17"/></g><g id="kvg:081b0-g2" kvg:element="&#30058;" kvg:position="right"><g id="kvg:081b0-g3" kvg:element="&#37318;" kvg:position="top"><g id="kvg:081b0-g4" kvg:element="&#20031;"><path id="kvg:081b0-s5" kvg:type="&#12754;" d="M83.91,13.67c0.11,0.24,0.15,0.58-0.21,0.96c-2.91,3.14-18.66,6.1-37.36,8.62"/></g><g id="kvg:081b0-g5" kvg:element="&#31859;"><path id="kvg:081b0-s6" kvg:type="&#12756;" d="M44.67,25.74c3.23,1.76,8.12,6.75,8.93,9.49"/><path id="kvg:081b0-s7" kvg:type="&#12754;" d="M84.91,22.03c0.02,0.28,0.11,0.75-0.04,1.14c-1.15,3.06-2.98,6.67-6.76,10.87"/><path id="kvg:081b0-s8" kvg:type="&#12752;" d="M39.92,39.08c1.58,0.17,3.1,0.62,6.17,0.33c7.17-0.67,38.42-3.76,45.5-3.5c1.62,0.06,3.65,0.54,4.67,0.67"/><path id="kvg:081b0-s9" kvg:type="&#12753;" d="M65.05,22.31c0.99,0.3,1.78,1.79,1.78,2.44c0,3.81,0,29.34-0.2,33.14"/><path id="kvg:081b0-s10" kvg:type="&#12754;" d="M66.3,37.74c-4.54,8.12-15.35,18.58-25.56,23.27"/><path id="kvg:081b0-s11" kvg:type="&#12751;" d="M68.77,38.04c3.48,2.63,20.18,16.31,23.97,18.9c1.28,0.88,2.38,1.25,3.66,1.5"/></g></g><g id="kvg:081b0-g6" kvg:element="&#30000;" kvg:position="bottom"><path id="kvg:081b0-s12" kvg:type="&#12753;" d="M47.08,62.58c0.92,0.92,1.39,1.98,1.5,2.67c0.94,5.61,1.35,18.99,1.9,29.33"/><path id="kvg:081b0-s13" kvg:type="&#12757;a" d="M49.25,64.08c12.71-1.62,25.75-2.27,33.33-2.83c2.79-0.21,4.65,1.3,4.5,2.83c-0.62,6.33-1.13,19.88-3.26,29.61"/><path id="kvg:081b0-s14" kvg:type="&#12753;a" d="M66.53,64.86c0.56,1.03,0.76,1.45,0.76,2.89c-0.02,6.78,0.17,20.92,0.17,23.13"/><path id="kvg:081b0-s15" kvg:type="&#12752;a" d="M49.58,77.42c3.3-0.24,33.44-2.17,36.17-2.17"/><path id="kvg:081b0-s16" kvg:type="&#12752;a" d="M51.08,92.08c9.32-0.34,22.45-1.36,33.17-1.5"/></g></g></g></g></svg>