<svg xmlns="http://www.w3.org/2000/svg" width="109" height="109" viewBox="0 0 109 109"><g xmlns:kvg="http://kanjivg.tagaini.net" id="kvg:StrokePaths_081e3" style="fill:none;stroke:#000000;stroke-width:3;stroke-linecap:round;stroke-linejoin:round;"><g id="kvg:081e3" kvg:element="&#33251;" kvg:radical="general"><path id="kvg:081e3-s1" kvg:type="&#12753;" d="M24.37,16.25c0.88,0.88,1.46,2.38,1.46,3.5c0,4.33-0.15,52.55-0.2,71.62c-0.01,3.52-0.01,6.05-0.01,7.12"/><path id="kvg:081e3-s2" kvg:type="&#12752;b" d="M26.57,18.49c6.78-0.7,35.22-2.63,53.05-3.78c2.69-0.17,6.21-0.49,8.88,0.08"/><path id="kvg:081e3-s3" kvg:type="&#12753;a" d="M54.12,18.5c1.13,1.13,1.46,2.73,1.46,3.75c0,4.75-0.08,10.12-0.08,16.5"/><path id="kvg:081e3-s4" kvg:type="&#12757;b" d="M27,42.5c18.38-1.75,39.32-3.24,51.25-4.5c4.83-0.51,6.25,1,5.25,5c-1.22,4.88-2.76,10.88-4,16.75"/><path id="kvg:081e3-s5" kvg:type="&#12752;b" d="M26.82,64.74C32.84,64.12,61.85,62,76,61.13c2.72-0.17,4.9-0.29,6.25-0.34"/><path id="kvg:081e3-s6" kvg:type="&#12753;a" d="M55.12,64.5c0.94,0.94,1.46,2.23,1.46,3.25c0,4-0.08,16.88-0.08,23"/><path id="kvg:081e3-s7" kvg:type="&#12752;b" d="M26.57,93.49c8.55-0.62,38.68-2.37,57.93-3.86c2.57-0.2,5.96-0.39,8.5,0.16"/></g></g></svg>