<svg xmlns="http://www.w3.org/2000/svg" width="109" height="109" viewBox="0 0 109 109"><g xmlns:kvg="http://kanjivg.tagaini.net" id="kvg:StrokePaths_081e7" style="fill:none;stroke:#000000;stroke-width:3;stroke-linecap:round;stroke-linejoin:round;"><g id="kvg:081e7" kvg:element="&#33255;"><g id="kvg:081e7-g1" kvg:element="&#29247;" kvg:part="1" kvg:variant="true"><path id="kvg:081e7-s1" kvg:type="&#12740;" d="M34.33,30.69c0.67,0.92,1.1,2.5,1.1,3.58c0,26.31-0.43,48.48-15.02,60.37"/><path id="kvg:081e7-s2" kvg:type="&#12752;" d="M32.38,29.98c1.52,0.54,4.3,0.63,5.82,0.54c13.05-0.77,29.55-2.02,44.11-2.73c2.53-0.12,4.05,0.26,5.31,0.53"/><path id="kvg:081e7-s3" kvg:type="&#12754;" d="M18.8,23.18c0.82,0.56,1.13,1.22,1.2,3.09c0.1,2.79-0.44,15.14-0.7,18.07c-0.08,0.93,0.14,2.33,1.36,2.18c4.3-0.51,9.49-1.38,14.47-1.79"/></g><g id="kvg:081e7-g2" kvg:element="&#29247;" kvg:part="2" kvg:variant="true"><g id="kvg:081e7-g3" kvg:element="&#21378;" kvg:part="1" kvg:variant="true"><path id="kvg:081e7-s4" kvg:type="&#12754;" d="M12.69,60.44c1.16,0.13,1.4,0.51,2.77,0.42c5.83-0.38,14.47-1.23,18.54-1.43"/></g></g><g id="kvg:081e7-g4" kvg:element="&#25096;" kvg:part="1"><g id="kvg:081e7-g5" kvg:element="&#24331;" kvg:part="1"><g id="kvg:081e7-g6" kvg:element="&#21378;" kvg:part="2" kvg:variant="true"><path id="kvg:081e7-s5" kvg:type="&#12752;" d="M23.25,60.46c0.02,0.6,0.02,1.54-0.04,2.4c-0.4,6.19-1.56,16.78-6.87,23"/></g></g></g><g id="kvg:081e7-g7" kvg:element="&#33251;" kvg:radical="general"><path id="kvg:081e7-s6" kvg:type="&#12753;" d="M43.23,40.33c0.64,0.3,1.02,1.34,1.15,1.93c0.13,0.59,0,42.94-0.13,46.65"/><path id="kvg:081e7-s7" kvg:type="&#12752;b" d="M44.52,41.81c4.2-0.44,7.84-0.57,17.59-1.01c1.48-0.07,2.37-0.14,3.11,0.02"/><path id="kvg:081e7-s8" kvg:type="&#12753;a" d="M53.77,42.13c0.64,0.3,1.02,1.34,1.15,1.93c0.13,0.59,0.08,6.52-0.05,10.24"/><path id="kvg:081e7-s9" kvg:type="&#12757;b" d="M44.77,55.58C48.5,55,58.25,54,62.52,53.61c2.83-0.26,3.61,0.92,3.21,2.53c-0.71,2.9-1.76,6.56-2.48,10.05"/><path id="kvg:081e7-s10" kvg:type="&#12752;b" d="M44.81,68.44c4.2-0.44,15.95-1.22,19.9-1.49"/><path id="kvg:081e7-s11" kvg:type="&#12753;a" d="M54.21,68.41c0.64,0.3,1.02,1.34,1.15,1.93c0.13,0.59,0.08,10.7-0.05,14.41"/><path id="kvg:081e7-s12" kvg:type="&#12752;b" d="M44.52,86.38c4.2-0.44,8.26-1.78,18.02-2.22c1.48-0.07,2.37-0.14,3.11,0.02"/></g><g id="kvg:081e7-g8" kvg:element="&#25096;" kvg:part="2"><g id="kvg:081e7-g9" kvg:element="&#24331;" kvg:part="2"><path id="kvg:081e7-s13" kvg:type="&#12738;" d="M67,12.75c1.18,1.75,1.38,2.24,1.62,6c2.06,31.5,8.58,62.25,23.03,74c4.64,3.77,3.98,0.75,3.39-7"/></g><g id="kvg:081e7-g10" kvg:element="&#20031;"><path id="kvg:081e7-s14" kvg:type="&#12754;" d="M86.99,39.14c0.07,1.26,0.04,3.23-0.14,5.05c-1.1,11.55-9.35,38.3-24.04,49.52"/></g><g id="kvg:081e7-g11" kvg:element="&#24331;" kvg:part="3"><g id="kvg:081e7-g12" kvg:element="&#20022;"><path id="kvg:081e7-s15" kvg:type="&#12756;" d="M78,13.25c3.83,1.8,9.96,5.91,11.75,9"/></g></g></g></g></g></svg>