<svg xmlns="http://www.w3.org/2000/svg" width="109" height="109" viewBox="0 0 109 109"><g xmlns:kvg="http://kanjivg.tagaini.net" id="kvg:StrokePaths_081fb" style="fill:none;stroke:#000000;stroke-width:3;stroke-linecap:round;stroke-linejoin:round;"><g id="kvg:081fb" kvg:element="&#33275;"><g id="kvg:081fb-g1" kvg:element="&#33267;" kvg:position="left" kvg:radical="general"><path id="kvg:081fb-s1" kvg:type="&#12752;" d="M9.42,22.95c0.47,0.19,3.19,0.66,3.67,0.62c6.51-0.51,15.06-1.51,23-1.75c0.79-0.02,3.44,0.53,3.83,0.62"/><g id="kvg:081fb-g2" kvg:element="&#21430;"><path id="kvg:081fb-s2" kvg:type="&#12764;" d="M23.75,25.2c0.34,0.35,0.43,1.93,0.17,2.33c-2.99,4.66-7,9.1-11.14,13.59c-1.33,1.45-1.43,2.42,0.71,2c4.99-1,12.89-3.44,20.76-5.09"/><path id="kvg:081fb-s3" kvg:type="&#12756;" d="M29.65,29.1c2.85,2.34,7.36,9.63,8.07,13.28"/></g><g id="kvg:081fb-g3" kvg:element="&#22303;"><path id="kvg:081fb-s4" kvg:type="&#12752;" d="M9.75,61.2c1.5,0.5,2.53,0.89,5.17,0.5c6.83-1,12.77-1.38,18.17-2.17c0.83-0.12,2.92-0.58,4.83-0.17"/><path id="kvg:081fb-s5" kvg:type="&#12753;" d="M22.75,44.36c1,0.58,2,1.63,2,4.17c0,12.68,0.12,26.44,0.12,30.56"/><path id="kvg:081fb-s6" kvg:type="&#12736;/&#12752;" d="M10.25,85.2c0.94,0.79,2.59,1.79,3.33,1.33c7.46-4.58,15.16-8.04,25.4-14.38"/></g></g><g id="kvg:081fb-g4" kvg:element="&#31206;" kvg:position="right"><g id="kvg:081fb-g5" kvg:element="&#19977;" kvg:position="top"><g id="kvg:081fb-g6" kvg:element="&#19968;" kvg:position="top"><path id="kvg:081fb-s7" kvg:type="&#12752;" d="M46.42,21.03c0.85,0.33,3.99,0.7,4.83,0.67c11.17-0.4,22.07-1.75,33-2.17c1.41-0.05,4.3,0.17,5,0.33"/></g><g id="kvg:081fb-g7" kvg:position="bottom"><g id="kvg:081fb-g8" kvg:element="&#19968;"><path id="kvg:081fb-s8" kvg:type="&#12752;" d="M48.08,31.86c0.84,0.41,3.33,0.38,4.17,0.33c8.71-0.47,18.91-0.84,28.83-1.5c1.39-0.09,4.14-0.21,4.83,0"/></g><g id="kvg:081fb-g9" kvg:element="&#22823;" kvg:part="1"><g id="kvg:081fb-g10" kvg:element="&#19968;"><path id="kvg:081fb-s9" kvg:type="&#12752;" d="M43.42,43.7c1.83,0.33,3.57,0.59,5.5,0.5c11.33-0.5,25.86-2.7,39.5-2.67c1.74,0,5.63,0.42,6.5,0.67"/></g></g></g><g id="kvg:081fb-g11" kvg:element="&#22823;" kvg:part="2"><g id="kvg:081fb-g12" kvg:element="&#20154;"><path id="kvg:081fb-s10" kvg:type="&#12754;" d="M64.25,10.36c1,0.83,1.47,1.96,1.17,3.83c-2.27,14.23-10.48,40.9-29.18,52.08"/><path id="kvg:081fb-s11" kvg:type="&#12751;" d="M70.36,32.48c3.82,5.51,17.18,22.51,21.39,26.55c1.43,1.37,3.5,2.44,4.92,2.83"/></g></g></g><g id="kvg:081fb-g13" kvg:element="&#31166;" kvg:position="bottom"><g id="kvg:081fb-g14" kvg:element="&#20031;" kvg:position="top"><path id="kvg:081fb-s12" kvg:type="&#12754;" d="M74.94,47.94c0.07,0.24,0.14,0.62-0.13,0.97c-1.57,2.04-10.62,6.53-22.99,9.27"/></g><g id="kvg:081fb-g15" kvg:element="&#26408;" kvg:position="bottom"><path id="kvg:081fb-s13" kvg:type="&#12752;" d="M42.58,68.7c2.42,0.5,3.67,0.5,5.5,0.47c5.11-0.08,21.42-1.97,34.67-2.77c2.02-0.12,4.8,0.45,7,0.88"/><path id="kvg:081fb-s14" kvg:type="&#12753;" d="M65.01,56.42c0.79,0.27,1.27,1.23,1.43,1.78c0.16,0.55,0,37.82-0.16,41.24"/><path id="kvg:081fb-s15" kvg:type="&#12754;" d="M65.48,69.2c-8.06,10.41-18.3,18.1-31.28,24.97"/><path id="kvg:081fb-s16" kvg:type="&#12751;" d="M69.1,70.01c8.32,9.19,21.49,19.86,26.49,21.86"/></g></g></g></g></g></svg>