<svg xmlns="http://www.w3.org/2000/svg" width="109" height="109" viewBox="0 0 109 109"><g xmlns:kvg="http://kanjivg.tagaini.net" id="kvg:StrokePaths_08201" style="fill:none;stroke:#000000;stroke-width:3;stroke-linecap:round;stroke-linejoin:round;"><g id="kvg:08201" kvg:element="&#33281;"><g id="kvg:08201-g1" kvg:element="&#33276;" kvg:position="top" kvg:radical="general"><path id="kvg:08201-s1" kvg:type="&#12754;" d="M45.63,12.21c0.05,0.21-0.75,1.56-1.07,1.78c-4.2,2.92-6.52,5.23-16.67,9.02"/><path id="kvg:08201-s2" kvg:type="&#12753;" d="M26.33,23.16c0.81,0.61,1.14,1.99,1.34,3.24c0.73,4.6,2.54,18.63,3.27,24.84"/><path id="kvg:08201-s3" kvg:type="&#12757;" d="M59.08,17.06c0.95,0.14,1.71,0.42,3.04,0.42c1.33,0,15.42-2.68,16.94-2.82c1.52-0.14,3.35,0.91,3.14,2.5c-1.16,8.79-2.66,22.29-3.8,29c-0.16,0.97,0,1.54-0.19,2.1"/><path id="kvg:08201-s4" kvg:type="&#12752;" d="M29.28,34.24c4.3-0.6,14.66-2.99,15.68-2.99c1.02,0,2.46,0,3.27,0"/><path id="kvg:08201-s5" kvg:type="&#12752;" d="M59,31.06c0.95,0.14,1.71,0.42,3.04,0.42c1.33,0,16.95-1.6,18.47-1.74"/><path id="kvg:08201-s6" kvg:type="&#12752;" d="M31.12,48.87c4.75-0.28,43.48-3.26,46.33-3.4"/></g><g id="kvg:08201-g2" kvg:element="&#24318;" kvg:position="bottom"><g id="kvg:08201-g3" kvg:element="&#21313;" kvg:part="1"><path id="kvg:08201-s7" kvg:type="&#12752;" d="M16.63,67.23c1.52,0.54,4.3,0.63,5.82,0.54C38.25,66.86,68,64,88.06,63.54c2.53-0.06,4.05,0.26,5.31,0.53"/></g><g id="kvg:08201-g4" kvg:element="&#20031;"><path id="kvg:08201-s8" kvg:type="&#12754;" d="M41.3,52.75c0.69,1.07,1.39,2.18,1.39,3.74c0,17.18-0.4,33.71-20.44,42.76"/></g><g id="kvg:08201-g5" kvg:element="&#21313;" kvg:part="2"><path id="kvg:08201-s9" kvg:type="&#12753;" d="M65.62,49.5c1.13,1,1.96,2.25,1.96,4.25c0,6.75,0,39.25-0.22,45.5"/></g></g></g></g></svg>