<svg xmlns="http://www.w3.org/2000/svg" width="109" height="109" viewBox="0 0 109 109"><g xmlns:kvg="http://kanjivg.tagaini.net" id="kvg:StrokePaths_08212" style="fill:none;stroke:#000000;stroke-width:3;stroke-linecap:round;stroke-linejoin:round;"><g id="kvg:08212" kvg:element="&#33298;"><g id="kvg:08212-g1" kvg:element="&#33293;" kvg:position="left"><g id="kvg:08212-g2" kvg:element="&#20154;" kvg:position="top"><path id="kvg:08212-s1" kvg:type="&#12754;" d="M32.75,11.49c0,0.83,0.05,1.49-0.15,2.49c-1.08,5.18-11.34,22.48-20.12,30.15"/><path id="kvg:08212-s2" kvg:type="&#12751;" d="M34.14,16.71c5.83,2.47,13.27,9.05,16.11,15.29"/></g><g id="kvg:08212-g3" kvg:element="&#33292;" kvg:variant="true" kvg:position="bottom" kvg:radical="general"><g id="kvg:08212-g4" kvg:position="top"><path id="kvg:08212-s3" kvg:type="&#12752;" d="M21,40.22c1.89,0,2.75,0.11,3.36,0.07c5.46-0.39,10.76-1.93,17.19-2.21c0.93-0.04,1.13-0.07,2.7-0.07"/><path id="kvg:08212-s4" kvg:type="&#12752;" d="M12.09,55.59c0.77,0.42,3.33,0.63,4.12,0.56c7.14-0.64,22.38-3.24,31.53-3.47c0.97-0.02,3.09-0.17,4.54,0.2"/><path id="kvg:08212-s5" kvg:type="&#12753;" d="M32.45,41.69c1.24,0.78,1.24,2.52,1.24,3.14c0,4.35,0.12,19.63-0.19,23.98"/></g><g id="kvg:08212-g5" kvg:element="&#21475;" kvg:position="bottom"><path id="kvg:08212-s6" kvg:type="&#12753;" d="M17.5,70.64c0.44,0.39,0.9,0.72,1.09,1.21c1.54,3.9,3.38,15.65,4.43,22.65"/><path id="kvg:08212-s7" kvg:type="&#12757;b" d="M20.26,72.78C31.38,71,39.6,69.5,44.8,68.99c1.9-0.19,3.04,1.11,2.77,2.21c-1.13,4.55-2.04,11.55-3.72,17.85"/><path id="kvg:08212-s8" kvg:type="&#12752;b" d="M22.74,91.58C28.84,91,37.47,90,45.85,89.11"/></g></g></g><g id="kvg:08212-g6" kvg:element="&#20104;" kvg:position="right"><g id="kvg:08212-g7" kvg:element="&#12510;" kvg:position="top"><path id="kvg:08212-s9" kvg:type="&#12743;" d="M55.51,18.09c1.24,0.66,3.59,0.68,4.83,0.42c2.46-0.52,23.5-2.74,26.1-3.26c2.6-0.52,3.49,2.21,1.94,3.92c-2.66,2.94-12.29,11.29-13.93,13.39"/><path id="kvg:08212-s10" kvg:type="&#12756;" d="M62,26.25c3.39,1.67,12.16,8.12,13.75,12.5"/></g><g id="kvg:08212-g8" kvg:element="&#20102;" kvg:position="bottom"><path id="kvg:08212-s11" kvg:type="&#12743;" d="M52.17,43.88C53,44.5,54.55,45.42,58,45c8.25-1,30.71-4.08,33.5-4.25c8.25-0.5,1.5,6.5-3.25,11.5"/><g id="kvg:08212-g9" kvg:element="&#20101;"><path id="kvg:08212-s12" kvg:type="&#12762;" d="M72.01,45.75c1.19,1.02,2.07,2.38,2.07,4.41c0,2.04-0.08,36.85-0.09,40.59C73.97,99,70,94,66.28,89.73"/></g></g></g></g></g></svg>