<svg xmlns="http://www.w3.org/2000/svg" width="109" height="109" viewBox="0 0 109 109"><g xmlns:kvg="http://kanjivg.tagaini.net" id="kvg:StrokePaths_0826b" style="fill:none;stroke:#000000;stroke-width:3;stroke-linecap:round;stroke-linejoin:round;"><g id="kvg:0826b" kvg:element="&#33387;"><g id="kvg:0826b-g1" kvg:element="&#33311;" kvg:position="left" kvg:radical="general"><path id="kvg:0826b-s1" kvg:type="&#12754;" d="M26.25,13.08c0.5,0.67,0.77,1.72,0,3c-1.75,2.92-1.45,3.67-6.08,9.83"/><path id="kvg:0826b-s2" kvg:type="&#12754;" d="M15.92,26.25c0.73,1.33,1.29,3,1.33,4.67c0.25,10.83,0.44,23.97,0.52,26.97c0.36,13.13-3.02,31.12-9.02,37.7"/><path id="kvg:0826b-s3" kvg:type="&#12742;a" d="M16.92,28.92c3.41-0.62,11.75-1.71,14.83-2.33c3.09-0.62,2.67,1.33,2.67,3.5c0,2.17-0.21,53.46-0.21,56.56c0,11.11-5.31,3.06-5.96,2.44"/><path id="kvg:0826b-s4" kvg:type="&#12756;" d="M21.53,33.36c1.56,1.86,5.45,6.8,5.84,8.97"/><path id="kvg:0826b-s5" kvg:type="&#12753;" d="M24.48,54.97c0.7,1.57,0.84,2.51,0.84,3.76c0,1.25,0,16.81-0.28,19.93"/><path id="kvg:0826b-s6" kvg:type="&#12736;/&#12752;" d="M10.08,55.52c1.17,0.73,2.92,0.56,4.06,0.22c1.14-0.35,26.1-10.07,27.53-10.07"/></g><g id="kvg:0826b-g2" kvg:element="&#30439;" kvg:position="right"><g id="kvg:0826b-g3" kvg:element="&#34381;" kvg:position="tare"><path id="kvg:0826b-s7" kvg:type="&#12753;a" d="M62.42,11.92c1.58,0.58,2.5,1.83,2.5,3.67c0,5.42,0,6.44,0,11"/><path id="kvg:0826b-s8" kvg:type="&#12752;b" d="M66.28,19.06c4.27-0.62,10.38-1.43,14.7-1.92c1.43-0.16,3.72,0.12,4.44,0.27"/><path id="kvg:0826b-s9" kvg:type="&#12754;" d="M49.52,26.58c0.52,0.57,0.73,3.7,0.58,5.75c-1.61,21.47-2.38,42.82-11.65,59.62"/><path id="kvg:0826b-s10" kvg:type="&#12758;a" d="M50.58,29.25c0.85,0.14,3.94-0.3,5.33-0.5c10.58-1.5,24.02-3.4,32.48-3.52c8.91-0.13,1.74,5.79-0.48,7.35"/><g id="kvg:0826b-g4" kvg:element="&#19971;"><g id="kvg:0826b-g5" kvg:element="&#19968;"><path id="kvg:0826b-s11" kvg:type="&#12752;" d="M54.42,37.92c0.5,0.27,3.33,0.58,5,0.5c5.05-0.25,11.22-2.68,16.67-3.33c0.84-0.1,3.58-0.3,4-0.17"/></g><path id="kvg:0826b-s12" kvg:type="&#12767;a" d="M64.92,29.92c0.51,0.35,1.17,2.39,1.17,2.87c0,3.87-0.09,3.6-0.09,5.33c0,5.14,2.84,5.25,10.18,5.25c2.73,0,10.39-0.43,12.74-1.12"/></g></g><g id="kvg:0826b-g6" kvg:element="&#30000;"><path id="kvg:0826b-s13" kvg:type="&#12753;" d="M55.42,51.08c0.27,0.39,1.52,1.35,1.67,1.83c1.2,3.97,2.41,9.22,3.12,16.53"/><path id="kvg:0826b-s14" kvg:type="&#12757;a" d="M57.08,52.25c8.88-1.18,24.36-3.31,29.84-3.18c1.34,0.03,2.15,1.36,2.15,2.62c0,3.97-1.06,8.55-2.49,15.9"/><path id="kvg:0826b-s15" kvg:type="&#12753;a" d="M71.08,52.08c1.07,0.7,1.5,3.22,1.5,3.83c-0.03,4.02,0.17,9.04,0.17,10.5"/><path id="kvg:0826b-s16" kvg:type="&#12752;a" d="M59.84,59.15c2.49-0.18,26.74-2.24,28.8-2.24"/><path id="kvg:0826b-s17" kvg:type="&#12752;a" d="M60.25,67.92c6.33-0.33,17.67-1.5,25.67-2.17"/></g><g id="kvg:0826b-g7" kvg:element="&#30399;"><path id="kvg:0826b-s18" kvg:type="&#12753;a" d="M54.25,75.58c0.49,0.72,1.46,2.04,1.5,2.67c0.33,5,0.57,5.87,1.33,12.33"/><path id="kvg:0826b-s19" kvg:type="&#12757;b" d="M55.41,77.24c7.88-1.01,29.81-3.79,32.67-3.66c1.24,0.06,2,0.74,1.83,2.67c-0.38,4.51-0.99,8.28-2,12.5"/><path id="kvg:0826b-s20" kvg:type="&#12753;a" d="M66.8,76.72c0.18,0.47,0.45,0.85,0.45,1.43c0,4.17,0.17,8.28,0.17,12.1"/><path id="kvg:0826b-s21" kvg:type="&#12753;a" d="M78.08,75.08c0.46,0.56,0.22,1.95,0.17,2.67c-0.33,4.67-0.55,8.33-0.83,11.83"/><path id="kvg:0826b-s22" kvg:type="&#12752;" d="M45.58,91.58c0.97,0.37,6.2,1.23,7.17,1.17c10.07-0.62,22.58-3.03,41.13-3.13c1.61-0.01,4.73,1.11,5.54,1.3"/></g></g></g></g></svg>