<svg xmlns="http://www.w3.org/2000/svg" width="109" height="109" viewBox="0 0 109 109"><g xmlns:kvg="http://kanjivg.tagaini.net" id="kvg:StrokePaths_08271" style="fill:none;stroke:#000000;stroke-width:3;stroke-linecap:round;stroke-linejoin:round;"><g id="kvg:08271" kvg:element="&#33393;"><g id="kvg:08271-g1" kvg:position="left"><g id="kvg:08271-g2" kvg:element="&#24319;"><g id="kvg:08271-g3" kvg:element="&#33401;" kvg:part="1" kvg:variant="true" kvg:original="&#33400;"><g id="kvg:08271-g4" kvg:element="&#21313;"><path id="kvg:08271-s1" kvg:type="&#12752;" d="M11.08,26.42c0.69,0.38,3.8,0.57,4.5,0.5C24.5,26,39.5,24.5,46.75,23.58c1.15-0.15,4.42-0.02,5,0.17"/><path id="kvg:08271-s2" kvg:type="&#12753;" d="M20.08,16.42c1.17,0.58,2.37,2.16,2.46,3.23c0.46,5.61,1.92,13.65,2.21,17.27"/></g></g><g id="kvg:08271-g5" kvg:element="&#33401;" kvg:part="2" kvg:variant="true" kvg:original="&#33400;"><path id="kvg:08271-s3" kvg:type="&#12753;" d="M38.25,14.25c1,0.75,1.63,2.83,1.5,4.17c-0.55,5.59-1,7.17-2.17,13.5"/></g><path id="kvg:08271-s4" kvg:type="&#12752;" d="M25.92,34.58c3.5-0.5,10.33-1.5,13.5-1.17"/></g><g id="kvg:08271-g6" kvg:element="&#21475;"><path id="kvg:08271-s5" kvg:type="&#12753;" d="M13.58,42.92c0.28,0.27,1.71,1.66,1.83,2c0.97,2.71,2.34,6.14,3,11"/><path id="kvg:08271-s6" kvg:type="&#12757;b" d="M16.42,44.58c6.56-1.41,24.91-3.31,28.67-3.67c1.37-0.13,2.61,0.48,2.42,1.24c-0.81,3.16-1.37,5.05-2.58,9.43"/><path id="kvg:08271-s7" kvg:type="&#12752;b" d="M19.25,54.75c3.84-0.4,21.5-2.33,27.67-2.83"/></g><g id="kvg:08271-g7" kvg:element="&#22827;"><path id="kvg:08271-s8" kvg:type="&#12752;" d="M15.58,63.58c1.67,0.67,3.92,0.53,4.5,0.5c5.67-0.33,17.67-1.8,23-2.33c0.96-0.1,3.02,0.21,3.5,0.33"/><g id="kvg:08271-g8" kvg:element="&#22823;"><path id="kvg:08271-s9" kvg:type="&#12752;" d="M11.08,74.08c0.67,0.19,2.92,0.67,5,0.67c3.99,0,20.17-1.75,27.5-2.5c1.66-0.17,4.6-0.29,5.33-0.17"/><path id="kvg:08271-s10" kvg:type="&#12754;" d="M30.75,36.25c0.35,0.85,0.36,2.93,0.34,4.57c-0.3,29.05-7.34,47.68-19.74,55.96"/><path id="kvg:08271-s11" kvg:type="&#12751;" d="M29.13,77.76c6.03,3.03,11.76,8.29,14.26,13.68"/></g></g></g><g id="kvg:08271-g9" kvg:element="&#33390;" kvg:position="right" kvg:radical="general"><path id="kvg:08271-s12" kvg:type="&#12757;" d="M58.75,18.42c2.17-0.13,21.19-2.52,23.17-2.67c1.65-0.13,3.08,0.75,3.12,2.63c0.1,5.37-2.04,21.12-2.95,27.87"/><path id="kvg:08271-s13" kvg:type="&#12752;a" d="M58.23,31.85c5.77-0.63,18.81-2.26,24.35-2.76"/><path id="kvg:08271-s14" kvg:type="&#12752;a" d="M59.25,46.42c7.91-1.01,14.24-1.53,22.83-2.5"/><path id="kvg:08271-s15" kvg:type="&#12761;" d="M56.25,16.25c1.83,1.17,1.86,2.71,1.86,3.88c0,5.12,0.26,61.52,0.26,65.53c0,2.56,0.72,5.43,3.99,3.14c3.64-2.56,5.73-5.04,11.06-9.71"/><path id="kvg:08271-s16" kvg:type="&#12754;" d="M90.42,46.92c0.33,1,0.25,1.73-0.94,3.1C86,54,80.25,58,75.58,60.64"/><path id="kvg:08271-s17" kvg:type="&#12751;" d="M64.25,54.25c5.36,0.41,15.25,18,25.59,27.57c3.93,3.64,5.66,4.43,7.81,5.64"/></g></g></g></svg>