<svg xmlns="http://www.w3.org/2000/svg" width="109" height="109" viewBox="0 0 109 109"><g xmlns:kvg="http://kanjivg.tagaini.net" id="kvg:StrokePaths_0827e" style="fill:none;stroke:#000000;stroke-width:3;stroke-linecap:round;stroke-linejoin:round;"><g id="kvg:0827e" kvg:element="&#33406;"><g id="kvg:0827e-g1" kvg:element="&#33401;" kvg:variant="true" kvg:original="&#33400;" kvg:position="top" kvg:radical="general"><path id="kvg:0827e-s1" kvg:type="&#12752;" d="M15.75,25.92c3.75,1.33,7,0.83,10.67,0.5c11.89-1.08,44.95-4.76,58.67-4.83c2.56-0.01,5.92,0.42,8,1.67"/><path id="kvg:0827e-s2" kvg:type="&#12753;a" d="M35.08,11.42c1.67,0.83,2.97,2.29,3.17,3.17c1.81,8.25,2.65,20,3.17,23"/><path id="kvg:0827e-s3" kvg:type="&#12753;a" d="M68.25,9.25c1.12,1,1.04,3.19,0.67,4.67c-1.12,4.5-3.54,14.42-5.17,20.17"/></g><g id="kvg:0827e-g2" kvg:element="&#20034;" kvg:position="bottom"><g id="kvg:0827e-g3" kvg:element="&#20031;"><path id="kvg:0827e-s4" kvg:type="&#12754;" d="M69.73,38.38c0.76,1.53,0.53,3.37-0.48,6.09C59.17,71.63,39.48,89.29,14.76,101.3"/></g><path id="kvg:0827e-s5" kvg:type="&#12751;" d="M30.25,43.42C34.61,43.63,49.5,75,77.91,93.75c3.24,2.14,7.23,4.71,9.41,5.36"/></g></g></g></svg>