<svg xmlns="http://www.w3.org/2000/svg" width="109" height="109" viewBox="0 0 109 109"><g xmlns:kvg="http://kanjivg.tagaini.net" id="kvg:StrokePaths_0829d" style="fill:none;stroke:#000000;stroke-width:3;stroke-linecap:round;stroke-linejoin:round;"><g id="kvg:0829d" kvg:element="&#33437;"><g id="kvg:0829d-g1" kvg:element="&#33401;" kvg:variant="true" kvg:original="&#33400;" kvg:position="top" kvg:radical="general"><path id="kvg:0829d-s1" kvg:type="&#12752;" d="M14.5,29.45c2.88,0.68,6.63,0.76,9.52,0.34c15.11-2.17,40.04-4.68,54.86-5.36c3.29-0.15,6.64-0.38,9.88,0.41"/><path id="kvg:0829d-s2" kvg:type="&#12753;a" d="M31.15,14.25c1.05,1.05,1.57,2.53,1.78,3.49c1.94,8.98,3.86,17.74,4.42,21.01"/><path id="kvg:0829d-s3" kvg:type="&#12753;a" d="M68.25,11.75c0.42,1.18,0.77,2,0.5,3.5c-1.25,7-3,13.25-5,21.75"/></g><g id="kvg:0829d-g2" kvg:element="&#20043;" kvg:position="bottom" kvg:phon="&#20043;"><g id="kvg:0829d-g3" kvg:element="&#20022;"><path id="kvg:0829d-s4" kvg:type="&#12753;a" d="M49.4,38.25c1.11,1.11,1.42,2.12,1.42,4.27c0,3.9-0.06,7.06-0.06,10.6"/></g><path id="kvg:0829d-s5" kvg:type="&#12743;" d="M23.08,58.5c2.92,0.75,5.83,0.5,8.55-0.12c13-3,27-6,36.2-8.13c6.85-1.59,8.89,1.28,3.25,6c-14.33,12-26.45,18.88-42.83,27.5"/><path id="kvg:0829d-s6" kvg:type="&#12751;a" d="M13.25,84.25c2.88-0.38,5.21-0.13,7.13,0.06c19.77,2,37.62,6.82,54.95,10.07c6.9,1.3,9.08,1.38,15.92,1.62"/></g></g></g></svg>