<svg xmlns="http://www.w3.org/2000/svg" width="109" height="109" viewBox="0 0 109 109"><g xmlns:kvg="http://kanjivg.tagaini.net" id="kvg:StrokePaths_08299" style="fill:none;stroke:#000000;stroke-width:3;stroke-linecap:round;stroke-linejoin:round;"><g id="kvg:08299" kvg:element="&#33433;"><g id="kvg:08299-g1" kvg:element="&#33401;" kvg:variant="true" kvg:original="&#33400;" kvg:position="top" kvg:radical="general"><path id="kvg:08299-s1" kvg:type="&#12752;" d="M19.25,23.18c2.77,0.73,5.91,0.85,8.76,0.55c14.37-1.49,34.87-3.11,50.5-3.73c3.43-0.14,6.79,0.14,10.16,0.67"/><path id="kvg:08299-s2" kvg:type="&#12753;a" d="M35.44,12.2c1.18,1.18,1.63,2.44,1.75,3.37C38,21.62,39,29.62,39.66,34.25"/><path id="kvg:08299-s3" kvg:type="&#12753;a" d="M69.26,10.67c0.34,1.16,0.39,1.96,0.12,3.44c-1.28,7.14-2.25,12.27-3.6,18.61"/></g><g id="kvg:08299-g2" kvg:element="&#22827;" kvg:position="bottom"><path id="kvg:08299-s4" kvg:type="&#12752;" d="M29.03,48.19c3.2,0.5,6.27,0.31,9.47,0.01c8.7-0.81,21.89-2.4,30.99-3c3.24-0.21,6.69-0.56,9.89,0.11"/><g id="kvg:08299-g3" kvg:element="&#22823;"><path id="kvg:08299-s5" kvg:type="&#12752;" d="M20.44,65.56c3.93,0.63,6.93,0.69,11.44,0.19c13.68-1.51,36.43-3.37,48.11-3.91c2.94-0.14,6.29-0.19,9.18,0.44"/><path id="kvg:08299-s6" kvg:type="&#12754;" d="M53.35,33c0.58,1.02,0.79,1.97,0.8,3.95c0.24,36.47-6.77,49.18-33.58,62.8"/><path id="kvg:08299-s7" kvg:type="&#12751;" d="M54.38,64.75c7.3,7.89,16.88,17.5,26.75,26c2.68,2.3,6.25,4.87,10.31,6.48"/></g></g></g></g></svg>