<svg xmlns="http://www.w3.org/2000/svg" width="109" height="109" viewBox="0 0 109 109"><g xmlns:kvg="http://kanjivg.tagaini.net" id="kvg:StrokePaths_0829f" style="fill:none;stroke:#000000;stroke-width:3;stroke-linecap:round;stroke-linejoin:round;"><g id="kvg:0829f" kvg:element="&#33439;"><g id="kvg:0829f-g1" kvg:element="&#33401;" kvg:variant="true" kvg:original="&#33400;" kvg:position="top" kvg:radical="general"><path id="kvg:0829f-s1" kvg:type="&#12752;" d="M16.58,21.58c1.29,0.53,6.04,0.44,7.33,0.33c11.9-0.96,46.95-2.93,60.67-3c2.16-0.01,6.75,0.4,7.83,0.67"/><path id="kvg:0829f-s2" kvg:type="&#12753;a" d="M37.92,10.08c1.08,0.67,2.06,1.94,2.17,2.83c1.17,10,1.33,13.33,1,16.5"/><path id="kvg:0829f-s3" kvg:type="&#12753;a" d="M66.25,8.58c1.12,1,1.51,2.92,1.25,4.42c-0.75,4.25-1.5,8.25-2.75,14.42"/></g><g id="kvg:0829f-g2" kvg:element="&#27571;" kvg:position="bottom"><g id="kvg:0829f-g3" kvg:element="&#20960;" kvg:position="top"><g id="kvg:0829f-g4" kvg:element="&#20031;"><path id="kvg:0829f-s4" kvg:type="&#12754;" d="M37.42,34.75c0.83,0.75,1.07,2.21,1,3c-1.17,13.25-9.67,21-19,24"/></g><path id="kvg:0829f-s5" kvg:type="&#12744;b" d="M38.92,36.42c6.08-0.17,21.37-2.08,23.51-2.54c3.18-0.68,4.31,1.37,3.99,2.87c-0.64,2.95-0.5,8.01-0.5,10.96c0,4.08,1.67,8.21,12.16,8.21c10.18,0,11.83-2.17,11.83-10.83"/></g><g id="kvg:0829f-g5" kvg:element="&#21448;" kvg:position="bottom"><path id="kvg:0829f-s6" kvg:type="&#12743;" d="M31.75,66.08c2.1,0.32,4.12,0.32,8.33-0.17c4.21-0.49,23.6-3.29,26.5-3.78c2.89-0.49,5.24,1.89,3.94,3.58C57.2,83.09,40.01,91.95,14.75,100.03"/><path id="kvg:0829f-s7" kvg:type="&#12751;" d="M34.58,71.25c5.34,0.65,29.4,19.04,48,26.17c2.89,1.11,7.14,0.8,9.83,1.17"/></g></g></g></g></svg>