<svg xmlns="http://www.w3.org/2000/svg" width="109" height="109" viewBox="0 0 109 109"><g xmlns:kvg="http://kanjivg.tagaini.net" id="kvg:StrokePaths_082af" style="fill:none;stroke:#000000;stroke-width:3;stroke-linecap:round;stroke-linejoin:round;"><g id="kvg:082af" kvg:element="&#33455;"><g id="kvg:082af-g1" kvg:element="&#33401;" kvg:variant="true" kvg:original="&#33400;" kvg:position="top" kvg:radical="general"><path id="kvg:082af-s1" kvg:type="&#12752;" d="M17.5,31.58c5.5,0.92,10.45,0.07,15.77-0.66c13.4-1.85,31.58-3.82,44.09-4.39c4.29-0.22,8.59-0.08,12.88,0.41"/><path id="kvg:082af-s2" kvg:type="&#12753;a" d="M36.5,18.25c1,1,1.35,2.11,1.5,3c1.62,9.38,2.75,18,3.25,21"/><path id="kvg:082af-s3" kvg:type="&#12753;a" d="M68.94,13.75c0.56,1.38,0.29,2.77-0.03,4.31c-1.66,8.07-3.16,14.57-4.84,22.69"/></g><g id="kvg:082af-g2" kvg:element="&#24515;" kvg:position="bottom"><path id="kvg:082af-s4" kvg:type="&#12756;" d="M23.64,68.82c0.42,2.78-4.95,15.29-8.31,19.92"/><path id="kvg:082af-s5" kvg:type="&#12767;b" d="M33.08,60.75C42.5,86.5,47.5,96.5,77.03,95.43c12.7-0.46,14.03-3.06,3.44-11.7"/><path id="kvg:082af-s6" kvg:type="&#12756;a" d="M56.91,60.25c2.17,5.25,6.82,13,9.13,4.96"/><path id="kvg:082af-s7" kvg:type="&#12756;" d="M83.63,57.23c7.24,4.64,11.37,8.02,13.6,12.86"/></g></g></g></svg>