<svg xmlns="http://www.w3.org/2000/svg" width="109" height="109" viewBox="0 0 109 109"><g xmlns:kvg="http://kanjivg.tagaini.net" id="kvg:StrokePaths_082b1" style="fill:none;stroke:#000000;stroke-width:3;stroke-linecap:round;stroke-linejoin:round;"><g id="kvg:082b1" kvg:element="&#33457;"><g id="kvg:082b1-g1" kvg:element="&#33401;" kvg:variant="true" kvg:original="&#33400;" kvg:position="top" kvg:radical="general"><path id="kvg:082b1-s1" kvg:type="&#12752;" d="M17,29.77c3,0.73,6.35,0.54,9.37,0.29c16.22-1.35,36.31-4.64,56.76-4.79c2.4-0.02,4.77,0.04,7.12,0.51"/><path id="kvg:082b1-s2" kvg:type="&#12753;a" d="M32.25,16c1.25,0.5,2.25,1.62,2.5,2.75c1.33,5.97,4.86,19.92,5,20.75"/><path id="kvg:082b1-s3" kvg:type="&#12753;a" d="M71.25,12.5c0.42,1.18,0.47,3.05,0,4.5c-2.19,6.77-6.14,19.12-6.75,20.75"/></g><g id="kvg:082b1-g2" kvg:element="&#21270;" kvg:position="bottom" kvg:phon="&#21270;"><g id="kvg:082b1-g3" kvg:element="&#20155;" kvg:variant="true" kvg:original="&#20154;"><path id="kvg:082b1-s4" kvg:type="&#12754;" d="M38.25,48.25c0.25,1.75-0.37,3.31-0.98,4.44C33.25,60,24.8,69.67,19.5,74.5"/><path id="kvg:082b1-s5" kvg:type="&#12753;" d="M30.75,65.5c0.75,1,1.12,1.97,1.12,3c0,6.64-0.08,16.47-0.11,24c-0.01,1.96-0.01,3.82-0.01,5.5"/></g><g id="kvg:082b1-g4" kvg:element="&#21269;"><path id="kvg:082b1-s6" kvg:type="&#12754;" d="M84.25,50.25c-0.12,1.62-0.84,2.87-2,3.75c-4.62,3.5-11,6.75-19,9.75"/><path id="kvg:082b1-s7" kvg:type="&#12767;" d="M58.25,43.75c1.06,1.06,1.5,2.5,1.5,4.75c0,2.96-0.22,20.59-0.22,31.25C59.53,93,63,94.15,77,94.15c16.25,0,18-2.65,18-11.15"/></g></g></g></g></svg>