<svg xmlns="http://www.w3.org/2000/svg" width="109" height="109" viewBox="0 0 109 109"><g xmlns:kvg="http://kanjivg.tagaini.net" id="kvg:StrokePaths_082b3" style="fill:none;stroke:#000000;stroke-width:3;stroke-linecap:round;stroke-linejoin:round;"><g id="kvg:082b3" kvg:element="&#33459;"><g id="kvg:082b3-g1" kvg:element="&#33401;" kvg:variant="true" kvg:original="&#33400;" kvg:position="top" kvg:radical="general"><path id="kvg:082b3-s1" kvg:type="&#12752;" d="M18.5,25.52c2.4,0.98,6.24,1.25,8.76,0.91c15.99-2.18,38.93-4.62,53.11-5.28c2.95-0.14,6.25,0.18,9.12,0.88"/><path id="kvg:082b3-s2" kvg:type="&#12753;a" d="M36.5,13.25c0.88,0.88,1.5,2,1.75,3.75c1.23,8.58,1.12,10.75,1.75,17.5"/><path id="kvg:082b3-s3" kvg:type="&#12753;a" d="M70.25,10.75c0.42,1.18,0.22,2.3-0.25,3.75c-2.75,8.5-4,13.38-6,19"/></g><g id="kvg:082b3-g2" kvg:element="&#26041;" kvg:position="bottom" kvg:phon="&#26041;"><g id="kvg:082b3-g3" kvg:element="&#20128;" kvg:position="top"><path id="kvg:082b3-s4" kvg:type="&#12753;a" d="M52.84,32.52c1.13,1.13,1.52,2.61,1.52,4.28c0,1.46-0.11,6.46-0.11,8.08"/><path id="kvg:082b3-s5" kvg:type="&#12752;" d="M14,48.37c3.62,0.88,6.66,0.48,10.25,0.13c13.58-1.32,43.9-3.8,59.62-4.78c3.29-0.21,7.77-0.21,10.88,0.95"/></g><g id="kvg:082b3-g4" kvg:position="bottom"><path id="kvg:082b3-s6" kvg:type="&#12742;a" d="M50.34,60.27c7.66,1.98,16.49,2.1,22.24,1.69c3.38-0.24,5.27,1.25,4.21,4.64c-2.17,6.95-12.49,25.57-16.78,29.27c-5.07,4.38-7.51-0.37-8.48-2.76"/><path id="kvg:082b3-s7" kvg:type="&#12754;" d="M53.01,49.77c0.09,1-0.11,2.38-0.69,3.77c-4,9.6-14.94,27.59-33.07,37.73"/></g></g></g></g></svg>