<svg xmlns="http://www.w3.org/2000/svg" width="109" height="109" viewBox="0 0 109 109"><g xmlns:kvg="http://kanjivg.tagaini.net" id="kvg:StrokePaths_082db" style="fill:none;stroke:#000000;stroke-width:3;stroke-linecap:round;stroke-linejoin:round;"><g id="kvg:082db" kvg:element="&#33499;"><g id="kvg:082db-g1" kvg:element="&#33401;" kvg:variant="true" kvg:original="&#33400;" kvg:position="top" kvg:radical="general"><path id="kvg:082db-s1" kvg:type="&#12752;" d="M21.75,26.52c3.36,0.73,6.69,0.42,10.13,0.01c13.87-1.65,35-2.9,49.38-3.91c3.02-0.28,6.02-0.14,9,0.4"/><path id="kvg:082db-s2" kvg:type="&#12753;a" d="M39.5,14.25c1,1,1.64,2.11,1.75,3c1.38,11,2,14.25,2.5,17.75"/><path id="kvg:082db-s3" kvg:type="&#12753;a" d="M68.25,12c0.62,1.62,0.55,3.01,0.25,4.5c-1.25,6.25-1.75,10.38-3.25,17"/></g><g id="kvg:082db-g2" kvg:element="&#21487;" kvg:position="bottom"><g id="kvg:082db-g3" kvg:element="&#19969;" kvg:part="1"><g id="kvg:082db-g4" kvg:element="&#19968;"><path id="kvg:082db-s4" kvg:type="&#12752;" d="M20.47,44.98c4.04,0.44,8.06,0.43,12.05-0.04c13.39-1.56,31.73-2.95,47.97-4.03c4.26-0.28,7.87-0.26,11.79,0.35"/></g></g><g id="kvg:082db-g5" kvg:element="&#21475;"><path id="kvg:082db-s5" kvg:type="&#12753;" d="M28.19,59.1c0.67,0.67,1.1,1.54,1.24,2.42c0.91,4.06,2.07,8.71,3.04,13.25c0.31,1.44,0.6,2.88,0.86,4.28"/><path id="kvg:082db-s6" kvg:type="&#12757;b" d="M30.13,60.39c8.16-0.98,16.07-2.37,20.61-2.95c1.84-0.24,3.76,0.16,3.3,2.81c-0.64,3.75-1.55,6.62-2.55,12.83"/><path id="kvg:082db-s7" kvg:type="&#12752;b" d="M33.99,76.42c3.89-0.4,9.69-1.18,15.27-1.87c1.36-0.17,2.7-0.33,4-0.48"/></g><g id="kvg:082db-g6" kvg:element="&#19969;" kvg:part="2"><g id="kvg:082db-g7" kvg:element="&#20101;"><path id="kvg:082db-s8" kvg:type="&#12762;" d="M74.94,44.05c0.88,0.88,1.22,2.07,1.22,3.82c0,11.38,0.04,41.3,0.04,44.96c0,7.91-5.19,3.41-8.27,0.68"/></g></g></g></g></g></svg>