<svg xmlns="http://www.w3.org/2000/svg" width="109" height="109" viewBox="0 0 109 109"><g xmlns:kvg="http://kanjivg.tagaini.net" id="kvg:StrokePaths_082df" style="fill:none;stroke:#000000;stroke-width:3;stroke-linecap:round;stroke-linejoin:round;"><g id="kvg:082df" kvg:element="&#33503;"><g id="kvg:082df-g1" kvg:element="&#33401;" kvg:variant="true" kvg:original="&#33400;" kvg:position="top" kvg:radical="general"><path id="kvg:082df-s1" kvg:type="&#12752;" d="M19.75,25.52c1.29,0.53,2.8,0.63,4.1,0.53c11.9-0.96,49.9-4.96,63.62-5.03c2.16-0.01,3.45,0.25,4.53,0.51"/><path id="kvg:082df-s2" kvg:type="&#12753;a" d="M33.5,13c1.61,1.27,2.13,1.66,2.3,2.44c1.61,7.33,1.7,12.56,2.45,17.06"/><path id="kvg:082df-s3" kvg:type="&#12753;a" d="M66.61,10.25c1.14,0.75,1.46,2.69,1.24,3.89c-1.31,7.01-1.91,9.52-3.34,16.11"/></g><g id="kvg:082df-g2" kvg:element="&#21477;" kvg:position="bottom"><g id="kvg:082df-g3" kvg:element="&#21241;"><g id="kvg:082df-g4" kvg:element="&#20031;"><path id="kvg:082df-s4" kvg:type="&#12754;" d="M44.62,30.75c0.08,0.69,0.17,1.77-0.16,2.76c-1.92,5.82-12.91,18.58-27.96,26.4"/></g><path id="kvg:082df-s5" kvg:type="&#12742;" d="M42.31,41.72c0.97,0.63,2.33,0.84,3.88,0.42c1.55-0.42,31.65-4.31,35.49-4.86c2.91-0.42,4.27,1.47,4.07,4.4c-0.43,6.49-4.65,39.01-10.86,53.25c-1.79,4.1-3.92,1.57-6.21-1.05"/></g><g id="kvg:082df-g5" kvg:element="&#21475;"><path id="kvg:082df-s6" kvg:type="&#12753;" d="M30.67,56.05c0.38,0.3,0.77,0.56,0.94,0.94c1.33,3.01,2.32,13.53,3.22,18.94"/><path id="kvg:082df-s7" kvg:type="&#12757;b" d="M32.15,58.22c9.85-1.7,21.48-3.38,26.79-3.83c1.94-0.17,3.23,0.78,2.83,2.33c-1.03,4.03-2,8.85-3.71,14.39"/><path id="kvg:082df-s8" kvg:type="&#12752;b" d="M35.09,73.89c6.24-0.51,16.8-1.39,25.37-2.17"/></g></g></g></g></svg>