<svg xmlns="http://www.w3.org/2000/svg" width="109" height="109" viewBox="0 0 109 109"><g xmlns:kvg="http://kanjivg.tagaini.net" id="kvg:StrokePaths_082d2" style="fill:none;stroke:#000000;stroke-width:3;stroke-linecap:round;stroke-linejoin:round;"><g id="kvg:082d2" kvg:element="&#33490;"><g id="kvg:082d2-g1" kvg:element="&#33401;" kvg:variant="true" kvg:original="&#33400;" kvg:position="top" kvg:radical="general"><path id="kvg:082d2-s1" kvg:type="&#12752;" d="M15.75,22.75c1.29,0.53,5,0.75,8.33,0.5c11.91-0.89,46.67-3.19,60.39-3.24c3.28-0.01,7.54,0.47,8.61,0.74"/><path id="kvg:082d2-s2" kvg:type="&#12753;a" d="M34.42,11.08c1.58,0.67,3.16,2.82,3.33,3.67c1.64,7.93,1.7,14.95,2.17,17.83"/><path id="kvg:082d2-s3" kvg:type="&#12753;a" d="M68.75,9.25c1,1,1.74,2.83,1.33,4.33c-1.23,4.57-2.22,12.16-4,18"/></g><g id="kvg:082d2-g2" kvg:element="&#20873;" kvg:position="bottom"><g id="kvg:082d2-g3" kvg:element="&#20866;"><path id="kvg:082d2-s4" kvg:type="&#12753;" d="M26.58,39.42c2.17,0.83,3.21,3.08,3.21,5.87c0,1.99,0.16,47.9,0.16,51.21"/><path id="kvg:082d2-s5" kvg:type="&#12742;a" d="M29.75,42.42c6.71-0.88,44.66-3.37,45.98-3.68c2.82-0.66,4.9,1.61,4.59,2.65c-0.53,1.76-0.56,43.13-0.56,48.2c0,8.16-5.17,2.86-7.5,1.17"/></g><g id="kvg:082d2-g4" kvg:element="&#22303;" kvg:variant="true"><path id="kvg:082d2-s6" kvg:type="&#12753;a" d="M51.25,26.75c1.25,0.25,2.69,2.14,2.69,4c0,12-0.19,21.96-0.19,37.83"/><path id="kvg:082d2-s7" kvg:type="&#12752;a" d="M30.75,56.25c13.11-1.05,33.81-2.5,48-3.33"/><path id="kvg:082d2-s8" kvg:type="&#12752;" d="M13.92,71.08c2.58,0.67,6.58,0.67,9.5,0.5c17.99-1.03,50.24-2.74,66.33-3.17c2.42-0.06,5.5,0.08,7.33,1"/></g></g></g></g></svg>