<svg xmlns="http://www.w3.org/2000/svg" width="109" height="109" viewBox="0 0 109 109"><g xmlns:kvg="http://kanjivg.tagaini.net" id="kvg:StrokePaths_082f3" style="fill:none;stroke:#000000;stroke-width:3;stroke-linecap:round;stroke-linejoin:round;"><g id="kvg:082f3" kvg:element="&#33523;"><g id="kvg:082f3-g1" kvg:element="&#33401;" kvg:variant="true" kvg:original="&#33400;" kvg:position="top" kvg:radical="general"><path id="kvg:082f3-s1" kvg:type="&#12752;" d="M18.08,23.75c1.29,0.53,4.47,0.9,5.77,0.8c11.9-0.96,46.68-3.56,60.4-3.63c2.16-0.01,4.76,0.74,5.83,1"/><path id="kvg:082f3-s2" kvg:type="&#12753;a" d="M35.92,10.75c2.17,0.83,3.01,1.9,3.13,2.79c1.1,8.52,1.23,15.5,1.54,18.54"/><path id="kvg:082f3-s3" kvg:type="&#12753;a" d="M66.25,9.75c0.75,1,1.64,2.58,1.24,4.13c-1.23,4.74-2.05,11.64-3.83,17.7"/></g><g id="kvg:082f3-g2" kvg:element="&#20908;" kvg:position="bottom"><g id="kvg:082f3-g3" kvg:element="&#22786;" kvg:position="top"><path id="kvg:082f3-s4" kvg:type="&#12754;" d="M48.38,29.42c0.09,0.65,0.19,1.67-0.18,2.6C46,37.5,35.38,50.82,18.1,58.18"/><path id="kvg:082f3-s5" kvg:type="&#12743;" d="M46.75,38.6c0.77-0.07,2.36,0.47,3.67,0.34c5.12-0.52,11.24-1.68,15.5-2.69c2.15-0.51,4.28,1.59,3.33,3.5c-4.73,9.57-28.45,32.27-51.67,37.17"/><path id="kvg:082f3-s6" kvg:type="&#12751;" d="M41.08,44.25c6.26,4.25,34.59,23.23,43,27.17c3.92,1.83,7.17,2.58,10.5,3"/></g><g id="kvg:082f3-g4" kvg:element="&#20907;" kvg:original="&#27703;" kvg:position="bottom"><g id="kvg:082f3-g5" kvg:position="top"><path id="kvg:082f3-s7" kvg:type="&#12756;" d="M48.97,67.91c5.7,1.93,13.71,7.43,15.14,10.42"/></g><g id="kvg:082f3-g6" kvg:position="bottom"><path id="kvg:082f3-s8" kvg:type="&#12736;" d="M43.25,96.25c0.87,0.9,2.4,2.01,5,0.83c7.23-3.28,21.19-9.26,28.42-12.54"/></g></g></g></g></g></svg>