<svg xmlns="http://www.w3.org/2000/svg" width="109" height="109" viewBox="0 0 109 109"><g xmlns:kvg="http://kanjivg.tagaini.net" id="kvg:StrokePaths_08302" style="fill:none;stroke:#000000;stroke-width:3;stroke-linecap:round;stroke-linejoin:round;"><g id="kvg:08302" kvg:element="&#33538;"><g id="kvg:08302-g1" kvg:element="&#33401;" kvg:variant="true" kvg:original="&#33400;" kvg:position="top" kvg:radical="general"><path id="kvg:08302-s1" kvg:type="&#12752;" d="M18.5,27.02c2.4,0.97,5.72,0.96,8.24,0.66c13.13-1.56,35.49-4.17,49.64-4.96c3.42-0.19,7.03-0.02,10.37,0.8"/><path id="kvg:08302-s2" kvg:type="&#12753;a" d="M33.75,16c0.94,0.94,1.31,2.12,1.5,3c1.75,8.25,3,15,3.5,18"/><path id="kvg:08302-s3" kvg:type="&#12753;a" d="M70.5,11.5c0.42,1.18,0.35,2.27,0,3.75C69,21.5,68,27.75,66.5,35"/></g><g id="kvg:08302-g2" kvg:element="&#25098;" kvg:position="bottom" kvg:phon="&#25098;"><g id="kvg:08302-g3" kvg:element="&#20031;"><g id="kvg:08302-g4" kvg:element="&#21378;" kvg:part="1"><path id="kvg:08302-s4" kvg:type="&#12754;" d="M24.98,51.08c0.97,0.97,1.21,2.36,1.18,3.83c-0.32,13.63-2.03,29.22-12.1,40.45"/></g></g><g id="kvg:08302-g5" kvg:element="&#25096;"><g id="kvg:08302-g6" kvg:element="&#24331;" kvg:part="1"><g id="kvg:08302-g7" kvg:element="&#21378;" kvg:part="2"><path id="kvg:08302-s5" kvg:type="&#12752;" d="M25.75,51.53c2.33,0.22,4.7-0.13,7-0.45c12.98-1.81,25.13-3.71,39.13-4.91c3.27-0.28,6.03-0.07,9.39,0.51"/></g><path id="kvg:08302-s6" kvg:type="&#12738;" d="M52.92,34.75c1.79,1.37,2.36,3.24,2.65,6.19c2.29,23.05,13.19,45.43,34.21,54.55c6.95,3.01,5.68,1.09,4.79-4.97"/></g><g id="kvg:08302-g8" kvg:element="&#20031;"><path id="kvg:08302-s7" kvg:type="&#12754;" d="M76.98,56.3c0.11,0.83-0.15,1.95-0.72,3.09C72.5,67,61.75,82.12,40.39,92.49"/></g><g id="kvg:08302-g9" kvg:element="&#24331;" kvg:part="2"><g id="kvg:08302-g10" kvg:element="&#20022;"><path id="kvg:08302-s8" kvg:type="&#12756;" d="M81.61,33.82c3.26,2.11,8.46,6.94,9.98,10.56"/></g></g></g></g></g></g></svg>