<svg xmlns="http://www.w3.org/2000/svg" width="109" height="109" viewBox="0 0 109 109"><g xmlns:kvg="http://kanjivg.tagaini.net" id="kvg:StrokePaths_0832f" style="fill:none;stroke:#000000;stroke-width:3;stroke-linecap:round;stroke-linejoin:round;"><g id="kvg:0832f" kvg:element="&#33583;"><g id="kvg:0832f-g1" kvg:element="&#33401;" kvg:variant="true" kvg:original="&#33400;" kvg:position="top" kvg:radical="general"><path id="kvg:0832f-s1" kvg:type="&#12752;" d="M17,23.33c1.29,0.53,5.54,1.1,6.83,1c11.9-0.96,46.78-3.43,60.5-3.5c2.16-0.01,6.09,0.4,7.17,0.67"/><path id="kvg:0832f-s2" kvg:type="&#12753;a" d="M37,11.33c2.33,0.67,2.8,2.16,3,3c1.83,7.87,1.98,14.47,2.5,17.33"/><path id="kvg:0832f-s3" kvg:type="&#12753;a" d="M66,10c1.62,0.91,2.24,2.07,2,3.5c-0.83,5-1.83,10.67-3.83,16.33"/></g><g id="kvg:0832f-g2" kvg:element="&#20239;" kvg:position="bottom"><g id="kvg:0832f-g3" kvg:element="&#20155;" kvg:variant="true" kvg:original="&#20154;" kvg:position="left"><path id="kvg:0832f-s4" kvg:type="&#12754;" d="M38.31,33.33c0.18,0.99,0.31,2.22-0.16,3.43C35.17,44.42,25.05,57.62,11.17,68"/><path id="kvg:0832f-s5" kvg:type="&#12753;" d="M27.67,55c1.58,0.75,2.33,2.87,2.33,3.83c0,9.91-0.17,32.18-0.17,38.83"/></g><g id="kvg:0832f-g4" kvg:element="&#29356;" kvg:position="right"><g id="kvg:0832f-g5" kvg:element="&#22823;"><path id="kvg:0832f-s6" kvg:type="&#12752;" d="M37,53c2,0.75,5,1.25,8,1c7.9-0.66,30.99-2.5,40.5-2.5c2.5,0,4.74,0.82,7.17,1.33"/><path id="kvg:0832f-s7" kvg:type="&#12754;" d="M61.81,34.33c0.74,0.89,1.4,2.12,1.5,3.89c1.3,23.05-3.56,49.78-25.9,59.03"/><path id="kvg:0832f-s8" kvg:type="&#12751;" d="M64.71,57.86c5.27,10.54,15.53,28.38,22.26,35.9c1.77,1.98,2.42,2.23,3.23,2.41"/></g><g id="kvg:0832f-g6" kvg:element="&#20022;"><path id="kvg:0832f-s9" kvg:type="&#12756;" d="M72.25,37c7.21,3.33,9.18,5.88,11.42,9"/></g></g></g></g></g></svg>