<svg xmlns="http://www.w3.org/2000/svg" width="109" height="109" viewBox="0 0 109 109"><g xmlns:kvg="http://kanjivg.tagaini.net" id="kvg:StrokePaths_08336" style="fill:none;stroke:#000000;stroke-width:3;stroke-linecap:round;stroke-linejoin:round;"><g id="kvg:08336" kvg:element="&#33590;"><g id="kvg:08336-g1" kvg:element="&#33401;" kvg:variant="true" kvg:original="&#33400;" kvg:position="top" kvg:radical="general"><path id="kvg:08336-s1" kvg:type="&#12752;" d="M18.5,27.02c2.2,0.53,4.76,0.73,6.96,0.53C41.88,26,68,23.62,82.68,23.01c3.66-0.15,5.87,0.25,7.7,0.51"/><path id="kvg:08336-s2" kvg:type="&#12753;a" d="M36.75,15.5c1.05,1.18,1.51,1.78,1.76,3.44c1.05,6.91,1.94,13.8,2.24,16.31"/><path id="kvg:08336-s3" kvg:type="&#12753;a" d="M67.75,12.25c0.41,1.59,0.43,2.77,0.06,4.37c-1.62,7.05-2.18,9.88-4.06,18.13"/></g><g id="kvg:08336-g2" kvg:position="bottom" kvg:phon="&#20313;"><g id="kvg:08336-g3" kvg:element="&#20154;"><path id="kvg:08336-s4" kvg:type="&#12754;" d="M51.5,34.75c0.35,1.84-0.35,3.08-1.28,4.64c-4.89,8.2-14.99,21.54-32.97,31.11"/><path id="kvg:08336-s5" kvg:type="&#12751;" d="M52.5,38.25c5.9,4.37,23.65,17.47,32.05,23.16c3.11,2.1,5.98,3.44,9.7,4.09"/></g><g id="kvg:08336-g4" kvg:element="&#26408;" kvg:variant="true"><path id="kvg:08336-s6" kvg:type="&#12752;" d="M34.53,68.21c1.1,0.15,4.05,0.54,6.95,0.19c7.4-0.9,18.9-2.4,28.02-3.17c2.9-0.24,3.66-0.15,5.48,0"/><path id="kvg:08336-s7" kvg:type="&#12753;" d="M52.32,53.94c1.18,1.31,1.81,3.06,1.81,6.15c0,0.46,0,19.56-0.06,30.66c-0.02,3.5-0.05,6.13-0.08,7"/><path id="kvg:08336-s8" kvg:type="&#12754;" d="M38.52,79.14c0.11,1-0.1,1.94-0.64,2.8c-1.7,3.35-6.13,7.94-12.38,12.31"/><path id="kvg:08336-s9" kvg:type="&#12756;/&#12751;" d="M68.5,78.75c4.79,2.51,12.36,10.32,13.56,14.22"/></g></g></g></g></svg>