<svg xmlns="http://www.w3.org/2000/svg" width="109" height="109" viewBox="0 0 109 109"><g xmlns:kvg="http://kanjivg.tagaini.net" id="kvg:StrokePaths_08345" style="fill:none;stroke:#000000;stroke-width:3;stroke-linecap:round;stroke-linejoin:round;"><g id="kvg:08345" kvg:element="&#33605;"><g id="kvg:08345-g1" kvg:element="&#33401;" kvg:variant="true" kvg:original="&#33400;" kvg:position="top" kvg:radical="general"><path id="kvg:08345-s1" kvg:type="&#12752;" d="M20,24.27c1.29,0.53,2.8,0.63,4.1,0.53C36,23.83,72,21.33,85.72,21.26c2.16-0.01,3.45,0.25,4.53,0.51"/><path id="kvg:08345-s2" kvg:type="&#12753;a" d="M38.25,13.5c1.75,1.43,2.39,1.85,2.5,2.75c1,8.5,1.25,11.5,1.25,17.75"/><path id="kvg:08345-s3" kvg:type="&#12753;a" d="M67.75,12.25c0.42,1.18,0.78,2.01,0.5,3.5c-1.5,8-2.25,10.75-3.5,16.25"/></g><g id="kvg:08345-g2" kvg:element="&#21512;" kvg:position="bottom"><g id="kvg:08345-g3" kvg:position="top"><g id="kvg:08345-g4" kvg:element="&#20154;"><path id="kvg:08345-s4" kvg:type="&#12754;" d="M51.77,28.75c0.1,0.92,0.5,2.47-0.21,3.72C46.69,41.12,35.5,56,15.23,68.02"/><path id="kvg:08345-s5" kvg:type="&#12751;" d="M52.87,31.39c5.55,5.89,29.46,25.14,35.59,29.45c2.08,1.46,4.74,2.09,6.82,2.51"/></g><g id="kvg:08345-g5" kvg:element="&#19968;"><path id="kvg:08345-s6" kvg:type="&#12752;" d="M36.84,59.52c0.64,0.19,3.61,0.21,4.25,0.19c6.65-0.21,17.48-1.61,26.98-1.65c1.06,0,2.61,0.09,3.14,0.18"/></g></g><g id="kvg:08345-g6" kvg:element="&#21475;" kvg:position="bottom"><path id="kvg:08345-s7" kvg:type="&#12753;" d="M32.57,71.93c0.64,0.56,1.42,1.91,1.58,2.65c2.16,9.63,3.09,14.67,4.55,22.7"/><path id="kvg:08345-s8" kvg:type="&#12757;b" d="M34,73.75c16.5-1.5,30.76-2.25,38.28-2.98c2.75-0.27,4.4,1.59,4.01,3.16c-1.63,6.51-2.79,10.57-4.45,17.83"/><path id="kvg:08345-s9" kvg:type="&#12752;b" d="M38.53,94.68c10.15-0.63,22.6-1.5,35.55-2.11"/></g></g></g></g></svg>