<svg xmlns="http://www.w3.org/2000/svg" width="109" height="109" viewBox="0 0 109 109"><g xmlns:kvg="http://kanjivg.tagaini.net" id="kvg:StrokePaths_08340" style="fill:none;stroke:#000000;stroke-width:3;stroke-linecap:round;stroke-linejoin:round;"><g id="kvg:08340" kvg:element="&#33600;"><g id="kvg:08340-g1" kvg:element="&#33401;" kvg:variant="true" kvg:original="&#33400;" kvg:position="top" kvg:radical="general"><path id="kvg:08340-s1" kvg:type="&#12752;" d="M16.83,20.83c1.29,0.53,4.92,0.92,8.33,0.83c11.94-0.29,44.13-3.3,57.83-4c3.25-0.17,6.5,0.08,9.17,0.67"/><path id="kvg:08340-s2" kvg:type="&#12753;a" d="M36.33,11.5c1.17,0.75,2.39,2.68,2.5,3.5c1.17,8.5,1.36,12.42,1.83,15.17"/><path id="kvg:08340-s3" kvg:type="&#12753;a" d="M67,9.83c1,0.92,1.05,2.36,0.83,3.67c-0.83,5-1.71,10.38-3.33,15.33"/></g><g id="kvg:08340-g2" kvg:element="&#26092;" kvg:position="bottom"><g id="kvg:08340-g3" kvg:element="&#21241;"><g id="kvg:08340-g4" kvg:element="&#20031;"><path id="kvg:08340-s4" kvg:type="&#12754;" d="M33.6,28.67c0.05,0.59,0.1,1.53-0.1,2.38c-1.17,5.02-7.85,16.05-17.01,22.8"/></g><path id="kvg:08340-s5" kvg:type="&#12742;" d="M33.83,36.17c1.16,0.68,4.14,1.95,6,1.5c1.86-0.45,36.53-4.11,41.17-4.33c4.64-0.23,6.66,1.81,6.35,6.6c-0.35,5.4-1.98,38.65-7.85,53.24c-2.75,6.83-5.93,0.49-8.67-2.33"/></g><g id="kvg:08340-g5" kvg:element="&#26085;"><path id="kvg:08340-s6" kvg:type="&#12753;" d="M32,51.33c1,1.42,1.67,3.53,1.67,4.5c0,0.96,0.69,27.7,1.17,28.67"/><path id="kvg:08340-s7" kvg:type="&#12757;a" d="M33.5,53.17c1.96-0.13,22.24-2.83,24.04-2.98c1.49-0.13,2.45,1.4,2.34,2.15c-0.23,1.52-1.54,29.74-1.54,30.5"/><path id="kvg:08340-s8" kvg:type="&#12752;a" d="M34.83,66.5c2.43,0,20.07-1.39,22.81-1.39"/><path id="kvg:08340-s9" kvg:type="&#12752;a" d="M36.13,80.84c4.73-0.48,14.99-0.92,20.87-1.34"/></g></g></g></g></svg>