<svg xmlns="http://www.w3.org/2000/svg" width="109" height="109" viewBox="0 0 109 109"><g xmlns:kvg="http://kanjivg.tagaini.net" id="kvg:StrokePaths_0838e" style="fill:none;stroke:#000000;stroke-width:3;stroke-linecap:round;stroke-linejoin:round;"><g id="kvg:0838e" kvg:element="&#33678;"><g id="kvg:0838e-g1" kvg:element="&#33401;" kvg:variant="true" kvg:original="&#33400;" kvg:position="top" kvg:radical="general"><path id="kvg:0838e-s1" kvg:type="&#12752;" d="M16.33,24.17c1.29,0.53,5.17,0.83,8.27,0.63c11.91-0.78,45.4-4.05,59.9-4.46c3.02-0.09,5.76,0.07,6.83,0.33"/><path id="kvg:0838e-s2" kvg:type="&#12753;a" d="M37.17,12.17c2,0.67,2.73,2.4,2.87,3.29C41.29,23.84,41.64,30.95,42,34"/><path id="kvg:0838e-s3" kvg:type="&#12753;a" d="M67.67,10.83c1.67,0.83,1.34,3.02,1,4.5c-1.42,6.17-2.29,9.92-3.92,15.67"/></g><g id="kvg:0838e-g2" kvg:element="&#27801;" kvg:position="bottom"><g id="kvg:0838e-g3" kvg:element="&#27701;" kvg:variant="true" kvg:original="&#27700;" kvg:position="left"><path id="kvg:0838e-s4" kvg:type="&#12756;" d="M21.97,35.22c4.28,1.49,11.05,6.13,12.12,8.45"/><path id="kvg:0838e-s5" kvg:type="&#12756;" d="M19.5,53.33c4.06,1.17,10.49,4.82,11.5,6.65"/><path id="kvg:0838e-s6" kvg:type="&#12736;" d="M17.58,93.94c2.67,0.81,3.47,0.08,4.92-2.1C26.73,85.49,31.07,78,34.92,69.9"/></g><g id="kvg:0838e-g4" kvg:element="&#23569;" kvg:position="right"><g id="kvg:0838e-g5" kvg:element="&#23567;"><path id="kvg:0838e-s7" kvg:type="&#12762;" d="M66.67,35.67c0.83,1.08,1.19,2.33,1.19,3.77c0,6-0.31,22.44-0.31,24.48c0,11.84-4.71,2.59-6.38,1.09"/><path id="kvg:0838e-s8" kvg:type="&#12754;" d="M54.68,45.29c0.03,0.48,0.13,1.27-0.07,1.94c-1.4,4.83-7.31,14.15-12.11,18.61"/><path id="kvg:0838e-s9" kvg:type="&#12756;" d="M78,43.85c6.69,3.75,14.66,12.4,16.33,18.24"/></g><g id="kvg:0838e-g6" kvg:element="&#20031;"><path id="kvg:0838e-s10" kvg:type="&#12754;" d="M82.55,57.6c0.11,0.94,0.33,2.45-0.23,3.79c-4.59,11.04-22.25,28.87-40.16,36.28"/></g></g></g></g></g></svg>