<svg xmlns="http://www.w3.org/2000/svg" width="109" height="109" viewBox="0 0 109 109"><g xmlns:kvg="http://kanjivg.tagaini.net" id="kvg:StrokePaths_083f4" style="fill:none;stroke:#000000;stroke-width:3;stroke-linecap:round;stroke-linejoin:round;"><g id="kvg:083f4" kvg:element="&#33780;"><g id="kvg:083f4-g1" kvg:element="&#33401;" kvg:variant="true" kvg:original="&#33400;" kvg:position="top" kvg:radical="general"><path id="kvg:083f4-s1" kvg:type="&#12752;" d="M18.5,20.67c1.29,0.53,5,0.58,8,0.5c11.94-0.33,42.8-3.3,56.5-4c3.25-0.17,6.59,0.57,7.67,0.83"/><path id="kvg:083f4-s2" kvg:type="&#12753;a" d="M36.17,10.33c1.83,0.5,2.74,2.19,2.79,3.08c0.29,5.08,1.37,14.08,1.71,17.08"/><path id="kvg:083f4-s3" kvg:type="&#12753;a" d="M68.5,9c1.18,0.93,1.61,2.41,1.5,3.83c-0.34,4.2-1.67,10.33-3,16.33"/></g><g id="kvg:083f4-g2" kvg:element="&#22852;" kvg:position="bottom"><g id="kvg:083f4-g3" kvg:element="&#22823;" kvg:position="top"><path id="kvg:083f4-s4" kvg:type="&#12752;" d="M16.83,39c1.22,0.64,4.42,1.25,9.83,1c17.56-0.81,39.5-2.86,55.19-3.78c2.7-0.16,7.38-0.39,9.81,0.11"/><path id="kvg:083f4-s5" kvg:type="&#12754;" d="M49.93,24.25c0.41,1.1-0.06,2.73-0.56,3.99C43.75,42.25,26,60.75,12.25,68.46"/><path id="kvg:083f4-s6" kvg:type="&#12751;" d="M63.97,38.47C70,46.5,75,52.75,88.09,60.12c1.92,1.08,2.55,1.34,3.41,1.46"/></g><g id="kvg:083f4-g4" kvg:position="bottom"><g id="kvg:083f4-g5" kvg:element="&#26085;"><path id="kvg:083f4-s7" kvg:type="&#12753;" d="M29.67,57.5c0.37,0.52,1.19,2.85,1.29,3.59c0.29,2.16,2.58,21.84,2.71,22.57"/><path id="kvg:083f4-s8" kvg:type="&#12757;a" d="M31.67,59.67c3.46-0.36,35.85-3.14,39-3.5c2.62-0.3,3.41,2.55,3.17,4.33c-0.5,3.64-1.78,11.46-3.33,20.17"/><path id="kvg:083f4-s9" kvg:type="&#12752;a" d="M34.26,68.88c4.65-0.28,32.98-2.9,38.24-3.21"/><path id="kvg:083f4-s10" kvg:type="&#12752;a" d="M34.17,80.83c7.66-0.74,30.15-2.74,36.17-3.17"/></g><path id="kvg:083f4-s11" kvg:type="&#12767;" d="M51.5,43.83c1.5,0.67,1.63,2.39,1.67,4.17c0.18,7.94-0.43,36.96-0.43,42.36c0,9.22,4.52,9.5,19.21,9.5c13.51,0,15.41-1.97,15.41-10.79"/></g></g></g></g></svg>