<svg xmlns="http://www.w3.org/2000/svg" width="109" height="109" viewBox="0 0 109 109"><g xmlns:kvg="http://kanjivg.tagaini.net" id="kvg:StrokePaths_08403" style="fill:none;stroke:#000000;stroke-width:3;stroke-linecap:round;stroke-linejoin:round;"><g id="kvg:08403" kvg:element="&#33795;"><g id="kvg:08403-g1" kvg:element="&#33401;" kvg:variant="true" kvg:original="&#33400;" kvg:position="top" kvg:radical="general"><path id="kvg:08403-s1" kvg:type="&#12752;" d="M20.5,23.77c1.29,0.53,2.8,0.63,4.1,0.53c11.9-0.96,46.9-4.96,60.62-5.03c2.16-0.01,3.45,0.25,4.53,0.51"/><path id="kvg:08403-s2" kvg:type="&#12753;a" d="M37.25,11.5c1.75,1.43,2.35,1.86,2.5,2.75c1,6,1.75,12.75,2.25,15.75"/><path id="kvg:08403-s3" kvg:type="&#12753;a" d="M67.75,10.25c1.12,1,1.87,2.52,1.5,4c-1.12,4.5-1.25,6.25-3,14.75"/></g><g id="kvg:08403-g2" kvg:element="&#21330;" kvg:position="bottom"><g id="kvg:08403-g3" kvg:position="top"><g id="kvg:08403-g4" kvg:element="&#20128;"><path id="kvg:08403-s4" kvg:type="&#12753;a" d="M51.97,29c0.86,0.47,2.28,2.26,2.28,3.19c0,3.41-0.27,5.69-0.11,8.57"/><path id="kvg:08403-s5" kvg:type="&#12752;" d="M22.95,43.47c1.22,0.09,4.01,0.59,5.2,0.47c9.6-0.99,43.68-5.06,55.86-5.32c2.01-0.04,3.04,0.04,4.54,0.6"/></g><g id="kvg:08403-g5" kvg:element="&#20174;"><g id="kvg:08403-g6" kvg:element="&#20154;" kvg:position="left"><path id="kvg:08403-s6" kvg:type="&#12754;" d="M39.75,47.99c0,0.52,0.04,0.93-0.12,1.55c-0.83,3.24-7.38,14.7-15.41,18.83"/><path id="kvg:08403-s7" kvg:type="&#12751;" d="M38.39,52.71c4.29,1.66,9.77,6.09,11.86,10.29"/></g><g id="kvg:08403-g7" kvg:element="&#20154;" kvg:position="right"><path id="kvg:08403-s8" kvg:type="&#12754;" d="M69.25,43.99c0,0.46,0.03,0.83-0.09,1.38C68.5,48.25,63,58.5,56.97,62.13"/><path id="kvg:08403-s9" kvg:type="&#12751;" d="M67.64,50.96c5.47,1.91,12.45,6.98,15.11,11.79"/></g></g></g><g id="kvg:08403-g8" kvg:element="&#21313;" kvg:position="bottom"><path id="kvg:08403-s10" kvg:type="&#12752;" d="M15.38,77.03c1.74,0.62,4.94,0.78,6.67,0.62c22.12-2.03,52.48-3.53,67.74-3.77c2.9-0.05,4.64,0.29,6.09,0.61"/><path id="kvg:08403-s11" kvg:type="&#12753;" d="M53.08,67.25c0.38,0.44,1.18,3.28,1.25,4.16c0.08,0.88-0.05,22.12-0.12,27.59"/></g></g></g></g></svg>