<svg xmlns="http://www.w3.org/2000/svg" width="109" height="109" viewBox="0 0 109 109"><g xmlns:kvg="http://kanjivg.tagaini.net" id="kvg:StrokePaths_08457" style="fill:none;stroke:#000000;stroke-width:3;stroke-linecap:round;stroke-linejoin:round;"><g id="kvg:08457" kvg:element="&#33879;"><g id="kvg:08457-g1" kvg:element="&#33401;" kvg:variant="true" kvg:original="&#33400;" kvg:position="top" kvg:radical="general"><path id="kvg:08457-s1" kvg:type="&#12752;" d="M22.11,24.07c2.64,0.43,5.23,0.42,7.39,0.15c13.37-1.71,31.87-4.09,47.12-5.47c2.75-0.25,5.56-0.34,8.26,0.32"/><path id="kvg:08457-s2" kvg:type="&#12753;a" d="M37.29,13.43c0.82,0.83,1.45,1.81,1.59,2.55c0.87,4.64,2.72,12.76,3.14,15.27"/><path id="kvg:08457-s3" kvg:type="&#12753;a" d="M68.71,8.5c0.34,1,0.52,2.25,0.15,3.48c-2.2,7.24-2.94,10.36-5.34,17.17"/></g><g id="kvg:08457-g2" kvg:element="&#32773;" kvg:position="bottom" kvg:phon="&#32773;"><g id="kvg:08457-g3" kvg:element="&#32770;" kvg:original="&#32769;" kvg:partial="true"><g id="kvg:08457-g4" kvg:element="&#22303;"><path id="kvg:08457-s4" kvg:type="&#12752;" d="M34.46,40.23c1.45,0.56,3.88,0.49,5.42,0.31c5.43-0.62,14.59-2.17,21.87-3.02c1.33-0.16,2.79-0.43,4.12-0.13"/><path id="kvg:08457-s5" kvg:type="&#12753;a" d="M51,28.87c0.76,0.76,1.24,1.86,1.24,3.52c0,3.73-0.11,14.12-0.11,18.86"/><path id="kvg:08457-s6" kvg:type="&#12752;" d="M15.25,55.43c3.11,0.76,6.47,0.58,9.65,0.18c13.05-1.62,48.07-6.06,61.36-7.09c3.01-0.23,5.92-0.3,8.88,0.41"/></g><path id="kvg:08457-s7" kvg:type="&#12754;" d="M78.6,28.48c0.17,1.23-0.01,2.58-1.09,4.19C63.5,53.5,45.25,70.5,14.45,82.26"/></g><g id="kvg:08457-g5" kvg:element="&#26085;"><path id="kvg:08457-s8" kvg:type="&#12753;" d="M41.75,64.66c0.79,0.79,1.14,1.95,1.14,3.01c0,2.67,0,17.01,0,26.7c0,1.94,0,3.69,0,5.13"/><path id="kvg:08457-s9" kvg:type="&#12757;a" d="M43.63,65.8c2.51-0.13,28.41-2.97,30.7-3.13c1.91-0.13,3.04,1.16,3.04,2.71c0,2.95,0.08,17.5,0.08,27.12c0,2.83,0.03,4.75,0.03,4.94"/><path id="kvg:08457-s10" kvg:type="&#12752;a" d="M44.08,80.43c7.42-0.55,27.42-1.8,32.12-1.85"/><path id="kvg:08457-s11" kvg:type="&#12752;a" d="M44.17,96.77c6.92-0.57,23.39-1.35,32.02-1.83"/></g></g></g></g></svg>