<svg xmlns="http://www.w3.org/2000/svg" width="109" height="109" viewBox="0 0 109 109"><g xmlns:kvg="http://kanjivg.tagaini.net" id="kvg:StrokePaths_08463" style="fill:none;stroke:#000000;stroke-width:3;stroke-linecap:round;stroke-linejoin:round;"><g id="kvg:08463" kvg:element="&#33891;"><g id="kvg:08463-g1" kvg:element="&#33401;" kvg:variant="true" kvg:original="&#33400;" kvg:position="top" kvg:radical="general"><path id="kvg:08463-s1" kvg:type="&#12752;" d="M20.5,23.27c1.29,0.53,2.8,0.56,4.1,0.53c11.9-0.3,45.4-2.46,59.12-2.53c2.16-0.01,3.45,0.25,4.53,0.51"/><path id="kvg:08463-s2" kvg:type="&#12753;a" d="M37.5,13.25c1.5,1.25,1.98,1.63,2.14,2.4c1.5,7.19,1.43,13.74,1.86,16.35"/><path id="kvg:08463-s3" kvg:type="&#12753;a" d="M66.75,11.25c1.12,1,1.37,2.52,1,4c-1.12,4.5-2.38,7.5-4,13.25"/></g><g id="kvg:08463-g2" kvg:element="&#37325;" kvg:position="bottom"><g id="kvg:08463-g3" kvg:element="&#21315;" kvg:part="1"><g id="kvg:08463-g4" kvg:element="&#20031;"><path id="kvg:08463-s4" kvg:type="&#12754;" d="M74.38,28.42c0.12,0.31-0.94,1.96-1.63,2.29c-5.25,2.56-18.25,7.54-41.86,10.35"/></g><g id="kvg:08463-g5" kvg:element="&#21313;" kvg:part="1"><path id="kvg:08463-s5" kvg:type="&#12752;" d="M19.75,48.27c1.52,0.42,4.31,0.55,5.82,0.42c8.93-0.77,42.43-4.06,58.61-4.44c2.53-0.06,4.05,0.2,5.31,0.41"/></g></g><g id="kvg:08463-g6" kvg:element="&#37324;"><path id="kvg:08463-s6" kvg:type="&#12753;" d="M30.19,55.51c0.38,0.33,0.39,0.57,0.6,0.99c1.72,3.47,3.33,13.35,4.39,19.82"/><path id="kvg:08463-s7" kvg:type="&#12757;a" d="M31.96,56.38c13.29-0.87,33.58-2.07,43.51-2.8c3.65-0.27,4.01,2.68,3.83,3.64c-0.69,3.5-2.88,11.12-4.55,16.96"/><path id="kvg:08463-s8" kvg:type="&#12752;a" d="M33.44,65.13C39.5,65,72.82,63.29,76.4,63.15"/><path id="kvg:08463-s9" kvg:type="&#12752;a" d="M34.86,74.35c10.89-0.85,26.17-1.24,39.39-1.84"/><g id="kvg:08463-g7" kvg:element="&#21315;" kvg:part="2"><g id="kvg:08463-g8" kvg:element="&#21313;" kvg:part="2"><path id="kvg:08463-s10" kvg:type="&#12753;" d="M52.25,39.62c1.25,0.39,2.25,2.7,2.25,3.52c0,10.61,0,46.64-0.25,51.49"/></g></g><path id="kvg:08463-s11" kvg:type="&#12752;" d="M30.41,84.97c0.92,0.25,2.6,0.28,3.53,0.25c9.58-0.29,31.06-1.69,41.5-2.27c1.53-0.08,2.45,0.12,3.22,0.24"/><path id="kvg:08463-s12" kvg:type="&#12752;" d="M20.14,95.92c1.49,0.35,4.22,0.41,5.71,0.35c15.49-0.59,43.41-2.62,60.32-2.93c2.48-0.05,3.97,0.17,5.21,0.35"/></g></g></g></g></svg>