<svg xmlns="http://www.w3.org/2000/svg" width="109" height="109" viewBox="0 0 109 109"><g xmlns:kvg="http://kanjivg.tagaini.net" id="kvg:StrokePaths_08477" style="fill:none;stroke:#000000;stroke-width:3;stroke-linecap:round;stroke-linejoin:round;"><g id="kvg:08477" kvg:element="&#33911;"><g id="kvg:08477-g1" kvg:element="&#33401;" kvg:variant="true" kvg:original="&#33400;" kvg:position="top" kvg:radical="general"><path id="kvg:08477-s1" kvg:type="&#12752;" d="M17.17,21c1.29,0.53,4.58,0.5,7.83,0.33c11.92-0.61,48.5-2.83,60.22-3.57c3.78-0.24,7.04,0.81,8.12,1.07"/><path id="kvg:08477-s2" kvg:type="&#12753;a" d="M36.67,10.83c1.58,1.17,2.41,2.51,2.5,3.17c0.83,6.17,1.28,10.65,1.67,12.83"/><path id="kvg:08477-s3" kvg:type="&#12753;a" d="M66.5,8.67c1.25,0.58,2.4,2.6,2.17,3.67c-0.71,3.26-1.81,8.17-2.83,12.33"/></g><g id="kvg:08477-g2" kvg:element="&#36557;" kvg:position="bottom"><g id="kvg:08477-g3" kvg:element="&#20886;" kvg:position="top"><path id="kvg:08477-s4" kvg:type="&#12756;" d="M22.95,30.97c-0.17,3.69-4.19,13.34-5.62,15.55"/><path id="kvg:08477-s5" kvg:type="&#12758;b" d="M22.83,33.17c2.81-0.24,39.92-3.92,61.6-4.25c12.81-0.2,1.64,7.73,1.4,7.92"/></g><g id="kvg:08477-g4" kvg:element="&#36554;" kvg:position="bottom"><path id="kvg:08477-s6" kvg:type="&#12752;" d="M28.67,43.33c1.83,0.67,3.68,1,6.7,0.72c10.97-1.02,26.27-3.2,37.47-3.72c1.76-0.08,5.45,0.12,6.33,0.33"/><path id="kvg:08477-s7" kvg:type="&#12753;" d="M28.5,51.5c0.69,0.44,1.7,1.59,1.83,2.17c0.94,4.15,2.02,13.3,3.33,21.17"/><path id="kvg:08477-s8" kvg:type="&#12757;a" d="M30.83,53.33c11.9-0.7,38.38-3.5,46.5-3.5c2.42,0,3.93,2.52,3.78,3.61c-0.49,3.75-1.95,11.89-3.78,18.39"/><path id="kvg:08477-s9" kvg:type="&#12752;a" d="M32.96,62.31c9.87-0.64,28.71-2.31,45.54-3.14"/><path id="kvg:08477-s10" kvg:type="&#12752;a" d="M34.96,72.36c10.21-1.03,28.71-2.53,42.25-3.02"/><path id="kvg:08477-s11" kvg:type="&#12752;" d="M20.17,82.33c2.58,0.67,5.08,0.92,9,0.67c22.43-1.43,35.13-3.11,57.33-3.83c2.21-0.07,5.73,0.52,6.83,0.83"/><path id="kvg:08477-s12" kvg:type="&#12753;" d="M52.5,34.83c0.89,0.48,2.17,1.92,2.17,3.83c0,0.97,0.18,56.69,0,62.67"/></g></g></g></g></svg>