<svg xmlns="http://www.w3.org/2000/svg" width="109" height="109" viewBox="0 0 109 109"><g xmlns:kvg="http://kanjivg.tagaini.net" id="kvg:StrokePaths_08482" style="fill:none;stroke:#000000;stroke-width:3;stroke-linecap:round;stroke-linejoin:round;"><g id="kvg:08482" kvg:element="&#33922;"><g id="kvg:08482-g1" kvg:element="&#33401;" kvg:variant="true" kvg:original="&#33400;" kvg:position="top" kvg:radical="tradit"><path id="kvg:08482-s1" kvg:type="&#12752;" d="M17.5,21.17c1.3,0.37,4.25,0.83,7.17,0.67c13.03-0.74,47.02-2.67,59.83-3c3.25-0.08,6,0.17,8,0.83"/><path id="kvg:08482-s2" kvg:type="&#12753;a" d="M36.17,10.83c2,0.83,2.72,2.29,2.83,3c1.1,6.66,1.69,13.24,2,15.67"/><path id="kvg:08482-s3" kvg:type="&#12753;a" d="M68.67,10.83c0.33,0.67,0.83,1.92,0.5,3.5c-1.07,5.1-1.64,6.97-3.25,11.67"/></g><g id="kvg:08482-g2" kvg:element="&#24093;" kvg:position="bottom"><g id="kvg:08482-g3" kvg:position="top"><g id="kvg:08482-g4" kvg:element="&#20128;"><path id="kvg:08482-s4" kvg:type="&#12753;a" d="M52.17,24.33c1.16,0.5,1.99,1.88,1.99,3.15c0,2.02,0,0.5,0,6"/><path id="kvg:08482-s5" kvg:type="&#12752;" d="M22.33,35.33C23.43,35.68,26.75,36,29.5,36c6.18,0,40.33-3.25,49.67-3.5c1.82-0.05,7.59-0.51,8.5-0.33"/></g><path id="kvg:08482-s6" kvg:type="&#12756;" d="M36.34,37.49c2.93,3.14,4.8,6.92,5.07,8.99"/><path id="kvg:08482-s7" kvg:type="&#12754;" d="M71.56,35.82c0.19,0.93-0.27,2.03-0.41,2.26c-1.67,2.82-3.34,5.45-4.38,6.74"/><g id="kvg:08482-g5" kvg:element="&#20886;"><path id="kvg:08482-s8" kvg:type="&#12756;" d="M19.83,48.77c-0.16,3.64-4.04,13.15-5.41,15.31"/><path id="kvg:08482-s9" kvg:type="&#12758;b" d="M19.89,51.07c3.49,0,47.3-4.32,64.86-4.32c11.94,0,7.75,4.75,2.25,8.42"/></g></g><g id="kvg:08482-g6" kvg:element="&#24062;" kvg:position="bottom"><path id="kvg:08482-s10" kvg:type="&#12753;" d="M31.17,61.5c0.57,0.33,1.33,2.33,1.33,3c0,4.32,0.28,24.04,0.17,28.17"/><path id="kvg:08482-s11" kvg:type="&#12742;a" d="M32.83,64.5c3.69-0.23,41.25-3.85,44-4c3.23-0.17,3.95,1.97,3.83,3.5C80,72.5,79.25,78,77.5,87c-1.4,7.22-5.13,0.69-6.67-1.17"/><path id="kvg:08482-s12" kvg:type="&#12753;" d="M52.83,50.83c0.7,0.3,1.78,1.67,1.78,3.64c0,0.61,0.03,41.49-0.11,45.19"/></g></g></g></g></svg>