<svg xmlns="http://www.w3.org/2000/svg" width="109" height="109" viewBox="0 0 109 109"><g xmlns:kvg="http://kanjivg.tagaini.net" id="kvg:StrokePaths_08490" style="fill:none;stroke:#000000;stroke-width:3;stroke-linecap:round;stroke-linejoin:round;"><g id="kvg:08490" kvg:element="&#33936;"><g id="kvg:08490-g1" kvg:element="&#33401;" kvg:variant="true" kvg:original="&#33400;" kvg:position="top" kvg:radical="general"><path id="kvg:08490-s1" kvg:type="&#12752;" d="M18,22.27c4.44,0.85,8.79,0.17,13.36-0.25c13.89-1.27,32.65-2.64,45.65-3.27c4.19-0.28,8.35-0.1,12.49,0.52"/><path id="kvg:08490-s2" kvg:type="&#12753;a" d="M36.25,13c0.94,0.94,1.36,1.86,1.5,2.75c1.38,8.5,2,12.25,2.5,15.25"/><path id="kvg:08490-s3" kvg:type="&#12753;a" d="M69.5,10c0.75,1.25,0.62,2.27,0.25,3.75c-1.12,4.5-2.38,9-4,14.75"/></g><g id="kvg:08490-g2" kvg:element="&#39740;" kvg:position="bottom"><g id="kvg:08490-g3" kvg:element="&#20031;"><path id="kvg:08490-s4" kvg:type="&#12754;" d="M52.33,27c0.13,0.69,0.02,1.33-0.4,1.85C49.38,32,46.88,34.5,44,36.62"/></g><g id="kvg:08490-g4" kvg:element="&#30000;"><path id="kvg:08490-s5" kvg:type="&#12753;" d="M27.08,39.58c0.98,0.98,1.47,2.11,1.73,3.31c1.3,5.92,2.19,10.3,3.19,16.13c0.39,2.28,0.81,4.78,1.27,7.68"/><path id="kvg:08490-s6" kvg:type="&#12757;a" d="M29.32,40.82c13.47-1.38,35.22-3.97,45.56-4.62c3.68-0.23,6.49,0.54,5.72,4.7c-0.72,3.88-2.04,8.82-3.77,15.12c-0.58,2.09-1.2,4.34-1.87,6.75"/><path id="kvg:08490-s7" kvg:type="&#12753;a" d="M52.75,40.88c0.9,0.9,1,2,1,3.38c0,2.12,0,13.94,0,16.62"/><path id="kvg:08490-s8" kvg:type="&#12752;a" d="M31.89,52.01c14.11-1.13,32.99-2.88,46.55-3.55"/><path id="kvg:08490-s9" kvg:type="&#12752;a" d="M33.7,64.16c13.85-1.75,24.92-2.66,40.14-3.59"/></g><g id="kvg:08490-g5" kvg:element="&#20799;"><g id="kvg:08490-g6" kvg:element="&#20843;" kvg:variant="true"><g id="kvg:08490-g7" kvg:element="&#20031;" kvg:position="left"><path id="kvg:08490-s10" kvg:type="&#12754;" d="M44.92,68.1c0.28,1.48,0.05,2.82-0.68,4.02C40.41,79.44,31.04,91.51,15.5,99"/></g><g id="kvg:08490-g8" kvg:position="right"><path id="kvg:08490-s11" kvg:type="&#12767;" d="M55.93,64.74c0.85,0.85,1.1,2.4,1.1,3.93c0,4.21,0.09,11.83,0.09,17.46c0,10.56,1.21,12.12,21.76,12.12c16.33,0,18.37-1.46,18.37-10.68"/></g></g></g><g id="kvg:08490-g9" kvg:element="&#21430;"><path id="kvg:08490-s12" kvg:type="&#12764;" d="M76.13,69.46c0,1.04-0.31,1.96-0.84,2.73C72,77,71.25,78.25,66.94,83.05c-2.56,2.86-1.78,4.67,1.41,3.73c5.84-1.73,8.86-2.96,14.53-4.78"/><path id="kvg:08490-s13" kvg:type="&#12756;" d="M81.72,77.27c2.53,2.6,4.65,5.98,5.96,9.8"/></g></g></g></g></svg>