<svg xmlns="http://www.w3.org/2000/svg" width="109" height="109" viewBox="0 0 109 109"><g xmlns:kvg="http://kanjivg.tagaini.net" id="kvg:StrokePaths_084b2" style="fill:none;stroke:#000000;stroke-width:3;stroke-linecap:round;stroke-linejoin:round;"><g id="kvg:084b2" kvg:element="&#33970;"><g id="kvg:084b2-g1" kvg:element="&#33401;" kvg:variant="true" kvg:original="&#33400;" kvg:position="top" kvg:radical="general"><path id="kvg:084b2-s1" kvg:type="&#12752;" d="M23.75,25.02c3.39,0.67,6.81,0.76,10.25,0.25c13.61-1.46,33.25-3.04,45.74-3.42c3.02-0.26,6.02-0.11,9,0.43"/><path id="kvg:084b2-s2" kvg:type="&#12753;a" d="M40.75,14.75c1,1,1.43,2.35,1.5,3.25c0.5,6.5,1,11.5,1.25,15.5"/><path id="kvg:084b2-s3" kvg:type="&#12753;a" d="M69.85,11.25c0.65,1.5,0.25,2.83-0.25,4.22c-1.85,5.15-2.85,8.28-4.5,13.53"/></g><g id="kvg:084b2-g2" kvg:element="&#28006;" kvg:position="bottom"><g id="kvg:084b2-g3" kvg:element="&#27701;" kvg:variant="true" kvg:original="&#27700;" kvg:position="left"><path id="kvg:084b2-s4" kvg:type="&#12756;" d="M20.63,36.04c3.57,1.41,9.22,5.79,10.12,7.98"/><path id="kvg:084b2-s5" kvg:type="&#12756;" d="M17.5,53.66c4.07,1.51,9.98,5.73,11,8.07"/><path id="kvg:084b2-s6" kvg:type="&#12736;" d="M18,90.76c1.88,0.86,3.06-0.2,4-1.44c2.75-3.64,5.5-8.44,8.75-13.69"/></g><g id="kvg:084b2-g4" kvg:element="&#29995;" kvg:position="right"><path id="kvg:084b2-s7" kvg:type="&#12752;" d="M45.58,45c2.23,0.45,4.46,0.47,6.69,0.04c6.5-1.01,17.3-2.46,25.49-3.24c2.39-0.38,4.78-0.36,7.16,0.07"/><g id="kvg:084b2-g5" kvg:element="&#29992;" kvg:variant="true"><path id="kvg:084b2-s8" kvg:type="&#12753;" d="M45.57,55.29c0.88,0.88,1.11,1.83,1.11,3.09c0,2.89,0.01,16.49,0.03,26.37c0.01,4.63,0.01,8.45,0.02,9.97"/><path id="kvg:084b2-s9" kvg:type="&#12742;" d="M47.79,57.19c8.35-0.74,28.22-3.14,33.08-3.69c4.14-0.47,4.69,1.44,4.66,5c-0.06,6.58,0.08,23.56,0.08,33.57c0,8.62-6.43,0.79-7.45,0.27"/><path id="kvg:084b2-s10" kvg:type="&#12752;" d="M47.79,68.89c10.46-0.99,29.82-2.66,36.49-3.06"/><path id="kvg:084b2-s11" kvg:type="&#12752;" d="M47.96,81.64c8.29-0.91,28.29-2.73,36.57-2.93"/><path id="kvg:084b2-s12" kvg:type="&#12753;" d="M63.97,33.53c0.88,0.88,1.3,2.15,1.3,3.02c0,3,0.03,31.62,0.04,48.45c0,5.32,0.01,9.44,0.01,11.16"/></g><g id="kvg:084b2-g6" kvg:element="&#20022;"><path id="kvg:084b2-s13" kvg:type="&#12756;" d="M82.84,30.47c3.64,1.46,9.41,6.01,10.32,8.28"/></g></g></g></g></g></svg>