<svg xmlns="http://www.w3.org/2000/svg" width="109" height="109" viewBox="0 0 109 109"><g xmlns:kvg="http://kanjivg.tagaini.net" id="kvg:StrokePaths_084c6" style="fill:none;stroke:#000000;stroke-width:3;stroke-linecap:round;stroke-linejoin:round;"><g id="kvg:084c6" kvg:element="&#33990;"><g id="kvg:084c6-g1" kvg:element="&#33401;" kvg:variant="true" kvg:original="&#33400;" kvg:position="top" kvg:radical="general"><path id="kvg:084c6-s1" kvg:type="&#12752;" d="M21,19.27c1.72,0.53,3.73,0.63,5.45,0.53c15.83-0.96,36.28-3.46,54.52-3.53c2.87-0.01,4.59,0.25,6.03,0.51"/><path id="kvg:084c6-s2" kvg:type="&#12753;a" d="M34.25,9.5c1.75,1.43,2.31,1.87,2.5,2.75C38.5,20.5,39,24,39.5,27"/><path id="kvg:084c6-s3" kvg:type="&#12753;a" d="M68.18,8c0.95,0.85,1.58,2.14,1.27,3.39C68.5,15.2,66.94,21.13,65.56,26"/></g><g id="kvg:084c6-g2" kvg:position="bottom"><g id="kvg:084c6-g3" kvg:element="&#24109;" kvg:position="tare"><g id="kvg:084c6-g4" kvg:element="&#24191;"><path id="kvg:084c6-s4" kvg:type="&#12753;a" d="M52.18,22.88c0.64,0.35,2,2.62,2.13,3.32c0.13,0.7,0.07,3.32-0.06,7.69"/><g id="kvg:084c6-g5" kvg:element="&#21378;"><path id="kvg:084c6-s5" kvg:type="&#12752;" d="M22.7,35.95c1.61,0.44,4.57,0.51,6.18,0.44c16.78-0.74,33.36-2.89,52.27-3.31c2.69-0.06,4.3,0.21,5.64,0.43"/><path id="kvg:084c6-s6" kvg:type="&#12754;" d="M26.54,37.07c0.05,1.38,0.04,3.56-0.1,5.55c-1.2,17.26-2.69,40.88-17.06,52.73"/></g></g><g id="kvg:084c6-g6" kvg:element="&#24319;"><g id="kvg:084c6-g7" kvg:element="&#21313;"><path id="kvg:084c6-s7" kvg:type="&#12752;" d="M30.97,47.77c1.31,0.23,3.71,0.27,5.01,0.23c6.83-0.21,27.81-2.62,42.84-3.16c2.18-0.08,3.49,0.11,4.58,0.23"/><path id="kvg:084c6-s8" kvg:type="&#12753;" d="M42.96,41.12c0.79,0.34,1.35,1.5,1.42,2.22c0.56,5.45,1.12,11.44,1.54,16.48"/></g><path id="kvg:084c6-s9" kvg:type="&#12753;a" d="M66.06,38.92c0.55,0.24,1.04,2.03,0.99,2.54c-0.64,6.32-1.3,9.54-2.26,13.82"/><path id="kvg:084c6-s10" kvg:type="&#12752;b" d="M46.13,57.68c3,0,17.66-1.81,20.36-1.91"/></g><g id="kvg:084c6-g8" kvg:element="&#24062;"><path id="kvg:084c6-s11" kvg:type="&#12753;" d="M32.02,67.31c0.47,0.28,1.47,2.09,1.57,2.65c0.66,3.87,0.67,12.04,1.38,22.12"/><path id="kvg:084c6-s12" kvg:type="&#12742;a" d="M34,70.09c2.96-0.2,43.35-4.53,45.55-4.65c2.59-0.14,3.16,2.46,3.06,3.73c-0.47,6.41-2.29,13.67-4.58,19.71c-2.04,5.38-3.79,1.38-5.14-0.93"/><path id="kvg:084c6-s13" kvg:type="&#12753;" d="M54.16,59.95c0.47,0.28,1.47,2.09,1.57,2.65c0.09,0.56-0.06,34.91-0.16,38.4"/></g></g></g></g></g></svg>