<svg xmlns="http://www.w3.org/2000/svg" width="109" height="109" viewBox="0 0 109 109"><g xmlns:kvg="http://kanjivg.tagaini.net" id="kvg:StrokePaths_084c9" style="fill:none;stroke:#000000;stroke-width:3;stroke-linecap:round;stroke-linejoin:round;"><g id="kvg:084c9" kvg:element="&#33993;"><g id="kvg:084c9-g1" kvg:element="&#33401;" kvg:variant="true" kvg:original="&#33400;" kvg:position="top" kvg:radical="general"><path id="kvg:084c9-s1" kvg:type="&#12752;" d="M20.25,22.19c3.74,1.31,8.18,0.45,12,0.02c13.87-1.58,34.42-3.01,47.25-3.55c3.62-0.15,6.93,0.07,10.16,0.75"/><path id="kvg:084c9-s2" kvg:type="&#12753;a" d="M34.94,12.2c1.06,0.8,1.58,1.85,1.74,2.61c1.2,5.69,1.95,10.19,2.98,14.94"/><path id="kvg:084c9-s3" kvg:type="&#12753;a" d="M69.63,10.17c0.33,0.97,0.61,1.64,0.39,2.88c-0.78,4.4-2.34,11.12-3.49,15.17"/></g><g id="kvg:084c9-g2" kvg:element="&#23481;" kvg:position="bottom"><g id="kvg:084c9-g3" kvg:element="&#23424;" kvg:position="top"><path id="kvg:084c9-s4" kvg:type="&#12753;a" d="M52.78,26.41c1.09,1.09,1.3,2.21,1.3,3.88c0,2.53-0.07,3.1-0.07,5.08"/><g id="kvg:084c9-g4" kvg:element="&#20886;"><path id="kvg:084c9-s5" kvg:type="&#12756;" d="M20,36.88c0,3.22-3.61,12.07-5.25,14.21"/><path id="kvg:084c9-s6" kvg:type="&#12758;b" d="M20.51,39.61c15.74-1.73,40.87-4.11,64.16-5.22c11.6-0.55,2.46,6.4-0.43,8.43"/></g></g><g id="kvg:084c9-g5" kvg:element="&#35895;" kvg:position="bottom"><g id="kvg:084c9-g6" kvg:position="top"><path id="kvg:084c9-s7" kvg:type="&#12754;" d="M39.58,44.73c0.17,1.34-0.51,2.18-1.27,3.17c-2.67,3.53-7.4,7.98-15.07,12.48"/><path id="kvg:084c9-s8" kvg:type="&#12756;" d="M63.46,43.01c6.27,2.85,13.92,8.28,16.06,11.2"/></g><g id="kvg:084c9-g7" kvg:position="bottom"><path id="kvg:084c9-s9" kvg:type="&#12754;" d="M53.38,50.25c-0.12,1.62-0.97,2.92-1.78,3.92c-6.47,8.08-16.68,16.81-34.84,25.94"/><path id="kvg:084c9-s10" kvg:type="&#12751;" d="M53.23,53.09c8.68,5.88,20.59,13.85,28.78,18.6c2.48,1.44,4.73,2.56,8.39,3.63"/><g id="kvg:084c9-g8" kvg:element="&#21475;"><path id="kvg:084c9-s11" kvg:type="&#12753;" d="M35.27,75.82c0.91,0.71,1.44,1.63,1.57,2.78c0.85,4.62,1.63,10.11,2.35,15.16c0.26,1.81,0.51,3.56,0.75,5.2"/><path id="kvg:084c9-s12" kvg:type="&#12757;b" d="M37.81,77.45c12.91-1.84,21.19-2.7,30.44-3.6c3.5-0.34,5.8,0.62,4.91,3.95c-1.66,6.2-2.27,9.7-3.88,16.29"/><path id="kvg:084c9-s13" kvg:type="&#12752;b" d="M40.86,97.21c8.47-0.52,16.99-1.01,26.39-1.73c1.58-0.12,3.19-0.25,4.82-0.39"/></g></g></g></g></g></g></svg>