<svg xmlns="http://www.w3.org/2000/svg" width="109" height="109" viewBox="0 0 109 109"><g xmlns:kvg="http://kanjivg.tagaini.net" id="kvg:StrokePaths_084da" style="fill:none;stroke:#000000;stroke-width:3;stroke-linecap:round;stroke-linejoin:round;"><g id="kvg:084da" kvg:element="&#34010;"><g id="kvg:084da-g1" kvg:element="&#33401;" kvg:variant="true" kvg:original="&#33400;" kvg:position="top" kvg:radical="general"><path id="kvg:084da-s1" kvg:type="&#12752;" d="M18.5,23.77c1.66,0.53,3.59,0.63,5.25,0.53C39,23.33,64.62,19.83,82.2,19.76c2.76-0.01,4.42,0.25,5.8,0.51"/><path id="kvg:084da-s2" kvg:type="&#12753;a" d="M35.75,12c1.75,1.43,2.31,1.87,2.5,2.75C40,23,40.5,26.5,41,29.5"/><path id="kvg:084da-s3" kvg:type="&#12753;a" d="M66.25,10.25c1.12,1,1.37,2.52,1,4c-1.12,4.5-1.38,8-3,13.75"/></g><g id="kvg:084da-g2" kvg:element="&#20462;" kvg:position="bottom"><g id="kvg:084da-g3" kvg:element="&#25912;" kvg:part="1" kvg:position="left"><g id="kvg:084da-g4" kvg:element="&#20155;" kvg:variant="true" kvg:original="&#20154;" kvg:position="left"><path id="kvg:084da-s4" kvg:type="&#12754;" d="M35.02,31.22c0.24,1.76-0.07,4.06-0.84,5.57C29.25,46.4,23,55.42,11.69,67.12"/><path id="kvg:084da-s5" kvg:type="&#12753;" d="M27.14,52.83c0.86,0.92,1.73,2.44,1.78,4.15c0.34,11.26-0.94,33.67-0.53,39.56"/></g></g><g id="kvg:084da-g5" kvg:position="right"><g id="kvg:084da-g6" kvg:element="&#25912;" kvg:part="2" kvg:position="right"><g id="kvg:084da-g7" kvg:element="&#20008;"><path id="kvg:084da-s6" kvg:type="&#12753;" d="M39.46,41.82c0.87,0.78,1.48,1.69,1.55,4.26c0.36,12.36-0.02,34.28-0.02,38.49"/></g><g id="kvg:084da-g8" kvg:element="&#25908;" kvg:original="&#25909;"><g id="kvg:084da-g9" kvg:position="top"><path id="kvg:084da-s7" kvg:type="&#12754;" d="M59.01,31.14c0.03,0.48,0.17,1.28-0.05,1.94c-1.43,4.27-4.94,13.48-9.9,19.38"/><path id="kvg:084da-s8" kvg:type="&#12752;" d="M60.08,39.06c0.03-0.06,1.47,0.16,2,0.15c5.42-0.17,16.14-2.89,20.96-3.38c0.92-0.09,2.5-0.01,2.74,0.03"/></g><g id="kvg:084da-g10" kvg:element="&#20034;" kvg:position="bottom"><g id="kvg:084da-g11" kvg:element="&#20031;"><path id="kvg:084da-s9" kvg:type="&#12754;" d="M74.49,40.63c0.42,0.66,0.32,1.71-0.29,2.83C70.23,50.7,59.33,62.55,48.49,67.4"/></g><path id="kvg:084da-s10" kvg:type="&#12751;" d="M55.15,44.65c5.99,4.66,22.92,15.55,33.44,19.3c2.02,0.72,3.31,0.84,4.97,0.92"/></g></g></g><g id="kvg:084da-g12" kvg:element="&#24417;"><g id="kvg:084da-g13" kvg:element="&#20031;"><path id="kvg:084da-s11" kvg:type="&#12754;" d="M71.85,61.73c0.05,0.31,0.2,0.84-0.11,1.25c-2.01,2.67-7.95,8.33-18.66,11.52"/></g><g id="kvg:084da-g14" kvg:element="&#20031;"><path id="kvg:084da-s12" kvg:type="&#12754;" d="M78.95,70.4c0.1,0.43,0.34,1.17-0.18,1.71C75.11,75.91,64,83.5,53.31,86.4"/></g><g id="kvg:084da-g15" kvg:element="&#20031;"><path id="kvg:084da-s13" kvg:type="&#12754;" d="M86.82,81.1c0.12,0.42-0.24,1.57-0.74,2.17C83.13,86.78,61.25,96.25,45.3,99.5"/></g></g></g></g></g></g></svg>