<svg xmlns="http://www.w3.org/2000/svg" width="109" height="109" viewBox="0 0 109 109"><g xmlns:kvg="http://kanjivg.tagaini.net" id="kvg:StrokePaths_084d6" style="fill:none;stroke:#000000;stroke-width:3;stroke-linecap:round;stroke-linejoin:round;"><g id="kvg:084d6" kvg:element="&#34006;"><g id="kvg:084d6-g1" kvg:element="&#33401;" kvg:variant="true" kvg:original="&#33400;" kvg:position="top" kvg:radical="general"><path id="kvg:084d6-s1" kvg:type="&#12752;" d="M17.5,21.77c1.77,0.53,3.83,0.63,5.61,0.53c16.29-0.96,43.66-2.96,62.44-3.03c2.95-0.01,4.73,0.25,6.2,0.51"/><path id="kvg:084d6-s2" kvg:type="&#12753;a" d="M36.5,10.25c1.33,1.32,1.76,1.72,1.9,2.53c1.33,7.58,1.71,14.47,2.1,17.22"/><path id="kvg:084d6-s3" kvg:type="&#12753;a" d="M67.75,9.75c1.12,1,1.37,2.52,1,4c-1.12,4.5-1.88,8.5-3.5,14.25"/></g><g id="kvg:084d6-g2" kvg:position="bottom"><path id="kvg:084d6-s4" kvg:type="&#12754;" d="M50.04,26c0.01,0.17,0.03,0.45-0.02,0.69c-0.31,1.46-2.06,4.67-4.46,6.63"/><path id="kvg:084d6-s5" kvg:type="&#12753;" d="M23.99,33.84c0.23,0.39,0.63,1.33,0.76,1.83c1.05,4.05,2.44,14.6,3.09,22.15"/><path id="kvg:084d6-s6" kvg:type="&#12757;" d="M24.87,35.75C36.59,34.52,68.5,33,79.14,32.17c2.85-0.22,4.26,1.25,4.11,3.01c-0.53,6.43-0.75,11.32-2.63,19.84"/><g id="kvg:084d6-g3" kvg:element="&#20034;"><g id="kvg:084d6-g4" kvg:element="&#20031;"><path id="kvg:084d6-s7" kvg:type="&#12754;" d="M62.74,35.25c0.06,0.38,0.13,0.98-0.12,1.52c-1.48,3.21-9.96,10.25-21.57,14.55"/></g><path id="kvg:084d6-s8" kvg:type="&#12751;" d="M43.27,39.94c7.69,1.79,19.87,7.35,21.79,10.13"/></g><path id="kvg:084d6-s9" kvg:type="&#12752;" d="M27.88,56.61c7.39-0.68,41.05-2.73,52.74-3.07"/><g id="kvg:084d6-g5" kvg:element="&#27604;"><g id="kvg:084d6-g6" kvg:position="left"><path id="kvg:084d6-s10" kvg:type="&#12752;b" d="M27.88,73.73c7.31-0.38,12.67-1.22,19.04-1.85c1.87-0.19,3.06-0.18,4.02-0.07"/><path id="kvg:084d6-s11" kvg:type="&#12761;" d="M26,62.01c1,0.63,1.37,1.78,1.37,2.64c0,2.34-0.32,25.99-0.32,29.63c0,3.06-0.16,4.36,4.03,1.75c5.92-3.68,11.67-6.68,17.06-9.21"/></g><g id="kvg:084d6-g7" kvg:element="&#21269;" kvg:position="right"><path id="kvg:084d6-s12" kvg:type="&#12754;" d="M83.96,63.29c0.25,0.61-0.45,1.87-1.23,2.69c-1.87,1.96-12.54,8.44-20.11,11.76"/><path id="kvg:084d6-s13" kvg:type="&#12767;" d="M57.78,58.86c1.18,0.58,1.69,2.59,1.69,3.33c0,1.94-0.27,24.04-0.27,26.32c0,6.85,2.79,8.68,16.77,8.68c14.53,0,16.04-3.08,16.04-10.97"/></g></g></g></g></g></svg>