<svg xmlns="http://www.w3.org/2000/svg" width="109" height="109" viewBox="0 0 109 109"><g xmlns:kvg="http://kanjivg.tagaini.net" id="kvg:StrokePaths_08517" style="fill:none;stroke:#000000;stroke-width:3;stroke-linecap:round;stroke-linejoin:round;"><g id="kvg:08517" kvg:element="&#34071;"><g id="kvg:08517-g1" kvg:element="&#33401;" kvg:variant="true" kvg:original="&#33400;" kvg:position="top" kvg:radical="general"><path id="kvg:08517-s1" kvg:type="&#12752;" d="M24.5,21.77c1.64,0.53,3.55,0.63,5.2,0.53c15.1-0.96,34.14-3.46,51.55-3.53c2.74-0.01,4.38,0.25,5.75,0.51"/><path id="kvg:08517-s2" kvg:type="&#12753;a" d="M35.71,11.5c1.59,1.3,2.1,1.69,2.27,2.49c1.59,7.48,2.04,14.29,2.49,17.01"/><path id="kvg:08517-s3" kvg:type="&#12753;a" d="M69.21,10.5c0.9,0.8,1.5,2.03,1.21,3.22c-0.91,3.62-2.01,9.66-3.32,14.28"/></g><g id="kvg:08517-g2" kvg:element="&#24246;" kvg:position="bottom"><g id="kvg:08517-g3" kvg:element="&#24191;" kvg:position="tare"><path id="kvg:08517-s4" kvg:type="&#12753;a" d="M52.01,24.88c0.62,0.32,1.94,2.37,2.07,3.01c0.12,0.63,0.06,3.33-0.06,7.29"/><g id="kvg:08517-g4" kvg:element="&#21378;"><path id="kvg:08517-s5" kvg:type="&#12752;" d="M23.61,36.47C25.09,37,27.8,37.06,29.27,37c12.98-0.5,37.73-2.25,52.29-3.06c2.46-0.14,3.94,0.25,5.17,0.52"/><path id="kvg:08517-s6" kvg:type="&#12754;" d="M28.01,37.42c0.05,1.33,0.02,3.43-0.1,5.35c-0.66,10.73-3.66,36.48-16.39,50.79"/></g></g><g id="kvg:08517-g5" kvg:element="&#24319;"><g id="kvg:08517-g6" kvg:element="&#21313;"><path id="kvg:08517-s7" kvg:type="&#12752;" d="M31.14,51.51c1.42,0.63,4.02,0.74,5.44,0.63c11.09-0.86,29.22-2.57,44.55-3.43c2.36-0.13,3.78,0.3,4.96,0.62"/><path id="kvg:08517-s8" kvg:type="&#12753;" d="M42.9,40.98c1.1,0.44,1.76,1.98,1.98,2.86C45.1,44.72,46,61.75,46.6,68.5"/></g><path id="kvg:08517-s9" kvg:type="&#12753;a" d="M67.2,38.72c1.1,0.44,1.76,1.98,1.98,2.86c0.22,0.88-2.18,15.17-3.04,23.2"/><path id="kvg:08517-s10" kvg:type="&#12752;b" d="M46.54,66.52c4.93,0,17.65-1.06,22.08-1.26"/></g><g id="kvg:08517-g7" kvg:element="&#28780;" kvg:variant="true" kvg:original="&#28779;"><path id="kvg:08517-s11" kvg:type="&#12756;" d="M34.12,79.51c0,5.25-5.28,12.99-6.66,14.49"/><path id="kvg:08517-s12" kvg:type="&#12756;" d="M47.24,78.45c2.2,3.46,4.29,12.97,4.83,18.36"/><path id="kvg:08517-s13" kvg:type="&#12756;" d="M62.02,76.79c3,3.52,7.74,14.5,8.49,19.98"/><path id="kvg:08517-s14" kvg:type="&#12756;" d="M78.28,76.19c5.05,3.55,13.06,14.61,14.32,20.14"/></g></g></g></g></svg>