<svg xmlns="http://www.w3.org/2000/svg" width="109" height="109" viewBox="0 0 109 109"><g xmlns:kvg="http://kanjivg.tagaini.net" id="kvg:StrokePaths_08513" style="fill:none;stroke:#000000;stroke-width:3;stroke-linecap:round;stroke-linejoin:round;"><g id="kvg:08513" kvg:element="&#34067;"><g id="kvg:08513-g1" kvg:element="&#33401;" kvg:variant="true" kvg:original="&#33400;" kvg:position="top" kvg:radical="general"><path id="kvg:08513-s1" kvg:type="&#12752;" d="M19.5,20.77c1.29,0.53,2.8,0.63,4.1,0.53c11.9-0.96,46.9-3.96,60.62-4.03c2.16-0.01,3.45,0.25,4.53,0.51"/><path id="kvg:08513-s2" kvg:type="&#12753;a" d="M37.6,12.5c1.18,0.97,1.56,1.26,1.69,1.85c1.18,5.56,2.02,10.12,2.35,12.15"/><path id="kvg:08513-s3" kvg:type="&#12753;a" d="M66.69,9.75c0.79,0.7,0.81,2.27,0.55,3.3c-0.79,3.16-1.81,6.91-2.95,10.95"/></g><g id="kvg:08513-g2" kvg:element="&#26364;" kvg:position="bottom"><g id="kvg:08513-g3" kvg:element="&#26085;" kvg:position="top"><path id="kvg:08513-s4" kvg:type="&#12753;" d="M33.27,31.14c0.29,0.28,0.29,0.48,0.45,0.84c1.3,2.95,2.53,10.78,3.33,16.27"/><path id="kvg:08513-s5" kvg:type="&#12757;a" d="M34.62,31.92c10.09-0.74,28.86-2.78,36.4-3.4c2.77-0.23,4.28,0.75,4.04,2.55c-0.4,2.98-2.29,8.79-3.56,13.75"/><path id="kvg:08513-s6" kvg:type="&#12752;a" d="M36.5,39.15c3.29-0.29,34.63-2.42,37.35-2.53"/><path id="kvg:08513-s7" kvg:type="&#12752;a" d="M37.58,46.67c7.26-0.32,23.39-2.25,33.42-2.76"/></g><g id="kvg:08513-g4" kvg:position="bottom"><g id="kvg:08513-g5" kvg:element="&#32594;" kvg:variant="true" kvg:original="&#32593;"><path id="kvg:08513-s8" kvg:type="&#12753;" d="M24.28,53.88c0.31,0.22,0.63,0.9,0.77,1.18c1.09,2.21,2.25,8.33,2.99,12.32"/><path id="kvg:08513-s9" kvg:type="&#12757;a" d="M25.8,55.45c6.91-1.04,54.66-4,58.33-4.38c1.34-0.14,3.16,1.18,2.8,2.44c-0.75,2.64-1.68,6.24-3.1,9.97"/><path id="kvg:08513-s10" kvg:type="&#12753;a" d="M44.56,53.74c0.21,1.48,0.82,8.72,1.03,10.39"/><path id="kvg:08513-s11" kvg:type="&#12753;a" d="M65.96,52.83c-0.21,2.42-0.84,7.56-1.26,10.26"/><path id="kvg:08513-s12" kvg:type="&#12752;a" d="M29.04,65.75c4.31-0.44,49.37-3.53,55.29-4.18"/></g><g id="kvg:08513-g6" kvg:element="&#21448;"><path id="kvg:08513-s13" kvg:type="&#12743;" d="M36.23,73.28c1.69,0.23,1.9,0.57,5.28,0.23c3.38-0.34,27.99-4.24,30.32-4.58c2.32-0.34,3.84,1.7,2.25,3.37C62,85,44.75,93.5,23.52,100"/><path id="kvg:08513-s14" kvg:type="&#12751;" d="M38.1,79.63c5.01,0.45,29.48,12.6,46.91,17.58c2.71,0.77,4.69,1.29,7.22,1.55"/></g></g></g></g></g></svg>