<svg xmlns="http://www.w3.org/2000/svg" width="109" height="109" viewBox="0 0 109 109"><g xmlns:kvg="http://kanjivg.tagaini.net" id="kvg:StrokePaths_08569" style="fill:none;stroke:#000000;stroke-width:3;stroke-linecap:round;stroke-linejoin:round;"><g id="kvg:08569" kvg:element="&#34153;"><g id="kvg:08569-g1" kvg:element="&#33401;" kvg:variant="true" kvg:original="&#33400;" kvg:position="top" kvg:radical="general"><path id="kvg:08569-s1" kvg:type="&#12752;" d="M22,22.27c1.29,0.53,2.8,0.63,4.1,0.53c11.9-0.96,43.4-3.96,57.12-4.03c2.16-0.01,3.45,0.25,4.53,0.51"/><path id="kvg:08569-s2" kvg:type="&#12753;a" d="M38.75,11.5c1.75,1.43,2.39,1.86,2.5,2.75C42,20.25,42.5,27.5,43,30.5"/><path id="kvg:08569-s3" kvg:type="&#12753;a" d="M67.72,9.5c0.98,0.87,1.63,2.21,1.31,3.49c-0.98,3.93-2.14,10.48-3.56,15.51"/></g><g id="kvg:08569-g2" kvg:element="&#28271;" kvg:position="bottom"><g id="kvg:08569-g3" kvg:element="&#27701;" kvg:variant="true" kvg:original="&#27700;" kvg:position="left"><path id="kvg:08569-s4" kvg:type="&#12756;" d="M23.88,34.32c3.48,1.3,9,5.34,9.87,7.37"/><path id="kvg:08569-s5" kvg:type="&#12756;" d="M17.5,52.79c3.71,1.14,9.57,4.67,10.5,6.43"/><path id="kvg:08569-s6" kvg:type="&#12736;" d="M16.75,90.64c1.5,1.06,3.31,1.11,4.25-0.21c2.75-3.82,5.5-8.49,8-13.36"/></g><g id="kvg:08569-g4" kvg:element="&#26140;" kvg:position="right"><g id="kvg:08569-g5" kvg:element="&#26086;" kvg:position="top"><g id="kvg:08569-g6" kvg:element="&#26085;"><path id="kvg:08569-s7" kvg:type="&#12753;" d="M48.3,33.85c0.35,0.28,0.98,0.78,1.08,1.46c0.71,4.77,3.88,19.62,3.98,20.31"/><path id="kvg:08569-s8" kvg:type="&#12757;a" d="M50.09,34.68c5.58-0.68,21.71-2.48,28.86-2.94c1.24-0.08,1.99,1.84,1.95,2.36c-0.54,6.43-3.36,19.35-3.36,19.87"/><path id="kvg:08569-s9" kvg:type="&#12752;a" d="M51.2,44.13c2.22,0,25.53-2.66,28.04-2.66"/><path id="kvg:08569-s10" kvg:type="&#12752;a" d="M53.69,54.04c4.51-0.51,17.73-1.98,23.35-2.42"/></g><g id="kvg:08569-g7" kvg:element="&#19968;"><path id="kvg:08569-s11" kvg:type="&#12752;" d="M38,62.03c1.17,0.31,3.33,0.44,4.5,0.31c11.76-1.33,38.76-3.97,48.63-4.17c1.96-0.04,3.13,0.15,4.11,0.3"/></g></g><g id="kvg:08569-g8" kvg:element="&#21247;" kvg:position="bottom"><g id="kvg:08569-g9" kvg:element="&#21241;"><g id="kvg:08569-g10" kvg:element="&#20031;"><path id="kvg:08569-s12" kvg:type="&#12754;" d="M53.66,63.53c-0.02,0.4-0.08,1.04-0.34,1.62c-1.51,3.4-9.35,10.65-17.63,15.07"/></g><path id="kvg:08569-s13" kvg:type="&#12742;" d="M52.69,71.01c0.73,0.42,1.82,0.58,3.11,0.34c1.3-0.23,27.05-2.95,30.22-3c3.17-0.05,3.18,1.33,2.73,4.16c-0.62,3.9-3.26,17.72-10.13,25.98c-2.08,2.5-3.2-0.46-4.83-2.15"/></g><g id="kvg:08569-g11" kvg:element="&#20031;"><path id="kvg:08569-s14" kvg:type="&#12754;" d="M57.95,74.36c-0.01,0.34-0.02,1.66-0.28,2.14c-2.55,4.67-8.61,10.31-16.52,13.99"/></g><g id="kvg:08569-g12" kvg:element="&#20031;"><path id="kvg:08569-s15" kvg:type="&#12754;" d="M73.91,72.56c-0.03,0.74-0.12,1.91-0.67,2.95c-3.22,6.19-12.74,16.24-27.7,24.28"/></g></g></g></g></g></g></svg>