<svg xmlns="http://www.w3.org/2000/svg" width="109" height="109" viewBox="0 0 109 109"><g xmlns:kvg="http://kanjivg.tagaini.net" id="kvg:StrokePaths_08594" style="fill:none;stroke:#000000;stroke-width:3;stroke-linecap:round;stroke-linejoin:round;"><g id="kvg:08594" kvg:element="&#34196;"><g id="kvg:08594-g1" kvg:element="&#33401;" kvg:variant="true" kvg:original="&#33400;" kvg:position="top" kvg:radical="general"><path id="kvg:08594-s1" kvg:type="&#12752;" d="M21,23.49c1.59,0.65,3.43,0.77,5.02,0.65c14.59-1.18,40.1-3.13,56.92-3.22c2.65-0.01,4.23,0.31,5.55,0.63"/><path id="kvg:08594-s2" kvg:type="&#12753;a" d="M37.75,13c1.75,1.3,2.31,1.69,2.5,2.49C42,22.98,42.5,29.78,43,32.5"/><path id="kvg:08594-s3" kvg:type="&#12753;a" d="M66.75,9.75c1.12,1,1.87,2.52,1.5,4c-1.12,4.5-2.88,11.5-4.5,17.25"/></g><g id="kvg:08594-g2" kvg:element="&#21959;" kvg:position="bottom"><g id="kvg:08594-g3" kvg:element="&#24043;" kvg:variant="true" kvg:position="top"><g id="kvg:08594-g4" kvg:element="&#24037;" kvg:part="1" kvg:variant="true"><g id="kvg:08594-g5" kvg:element="&#22303;" kvg:part="1"><path id="kvg:08594-s4" kvg:type="&#12752;" d="M26.33,38.65c0.99,0.39,4.24,0.52,5.24,0.4c4.68-0.53,39.33-2.59,47.19-3c1.54-0.08,2.93,0.08,4.2,0.41"/><path id="kvg:08594-s5" kvg:type="&#12753;" d="M52.29,27.5c1.89,1.68,1.89,2.68,1.89,4.03c0,9.4-0.06,12.56-0.06,28.66"/></g></g><g id="kvg:08594-g6" kvg:element="&#20174;"><g id="kvg:08594-g7" kvg:element="&#20154;" kvg:position="left"><path id="kvg:08594-s6" kvg:type="&#12754;" d="M37.82,42.82c0.14,0.38,0.1,1.2-0.09,1.62c-1.88,4.1-4.84,9.44-10.64,13.36"/><path id="kvg:08594-s7" kvg:type="&#12751;" d="M36.37,49.08c2.83,1.35,6.44,4.93,7.82,8.33"/></g><g id="kvg:08594-g8" kvg:element="&#20154;" kvg:position="right"><path id="kvg:08594-s8" kvg:type="&#12754;" d="M70.74,40.19c0.14,0.39,0.11,1.24-0.09,1.68c-1.91,4.25-4.91,9.78-10.78,13.84"/><path id="kvg:08594-s9" kvg:type="&#12751;" d="M70.84,47.51c3.2,1.31,7.27,4.79,8.83,8.09"/></g></g><g id="kvg:08594-g9" kvg:element="&#24037;" kvg:part="2" kvg:variant="true"><g id="kvg:08594-g10" kvg:element="&#22303;"><path id="kvg:08594-s10" kvg:type="&#12752;" d="M15.87,63.34c0.89,0.21,4.08,0.42,5.59,0.33c16.28-1.01,49.53-3.92,64.35-4.22c2.43-0.05,5.34,0.34,6.56,0.67"/></g></g></g><g id="kvg:08594-g11" kvg:element="&#22238;" kvg:position="bottom"><g id="kvg:08594-g12" kvg:element="&#22231;" kvg:part="1"><path id="kvg:08594-s11" kvg:type="&#12753;" d="M28.13,71.08c0.81,0.66,0.93,1.37,1.1,2.21c1.13,5.67,3.83,14.38,5.49,25.47"/><path id="kvg:08594-s12" kvg:type="&#12757;a" d="M30.29,72.62c13.83-1.15,38.87-3.47,47.53-3.39c2.93,0.02,4.32,1.79,4.01,3.9c-1.08,7.38-3.01,16.72-5.16,25.1"/></g><g id="kvg:08594-g13" kvg:element="&#21475;"><path id="kvg:08594-s13" kvg:type="&#12753;" d="M42.81,78.76c0.32,0.21,0.64,0.38,0.78,0.64c1.1,2.05,2.12,7.1,3.06,10.78"/><path id="kvg:08594-s14" kvg:type="&#12757;b" d="M44.78,79.62c6.48-1.07,15.46-2.32,19.17-2.59c1.36-0.1,2.17,0.58,1.98,1.16c-0.8,2.39-1.29,5.71-2.48,9.02"/><path id="kvg:08594-s15" kvg:type="&#12752;b" d="M46.83,88.73c4.69-0.53,11.98-0.75,17.96-1.22"/></g><g id="kvg:08594-g14" kvg:element="&#22231;" kvg:part="2"><path id="kvg:08594-s16" kvg:type="&#12752;a" d="M35.14,96.78c9.88-0.26,29.59-1.08,41.77-1.78"/></g></g></g></g></g></svg>