<svg xmlns="http://www.w3.org/2000/svg" width="109" height="109" viewBox="0 0 109 109"><g xmlns:kvg="http://kanjivg.tagaini.net" id="kvg:StrokePaths_08590" style="fill:none;stroke:#000000;stroke-width:3;stroke-linecap:round;stroke-linejoin:round;"><g id="kvg:08590" kvg:element="&#34192;"><g id="kvg:08590-g1" kvg:element="&#33401;" kvg:variant="true" kvg:original="&#33400;" kvg:position="top" kvg:radical="general"><path id="kvg:08590-s1" kvg:type="&#12752;" d="M16.5,20.61c1.4,0.44,3.02,0.53,4.42,0.44c12.85-0.8,50.63-4.98,65.44-5.04c2.33-0.01,3.73,0.21,4.89,0.43"/><path id="kvg:08590-s2" kvg:type="&#12753;a" d="M38.75,9.75c1.33,1.13,1.76,1.47,1.9,2.17c1.33,6.51,2.47,13.21,2.85,15.58"/><path id="kvg:08590-s3" kvg:type="&#12753;a" d="M66.81,8.75c0.23,0.81,0.53,1.42,0.27,2.42c-1.5,5.87-2.08,8.08-3.33,14.33"/></g><g id="kvg:08590-g2" kvg:element="&#31260;" kvg:position="bottom"><g id="kvg:08590-g3" kvg:element="&#31166;" kvg:position="left"><g id="kvg:08590-g4" kvg:element="&#20031;" kvg:position="top"><path id="kvg:08590-s4" kvg:type="&#12754;" d="M39.47,31c0.06,0.27,0.13,0.71-0.12,1.1c-1.5,2.33-10.1,7.45-21.87,10.58"/></g><g id="kvg:08590-g5" kvg:element="&#26408;" kvg:position="bottom"><path id="kvg:08590-s5" kvg:type="&#12752;" d="M14.06,52.58c0.34,0.19,1.25,0.5,2.17,0.57c2.51,0.19,20.09-1.86,26.36-2.82c0.91-0.14,1.14-0.19,1.71,0"/><path id="kvg:08590-s6" kvg:type="&#12753;" d="M30.6,39.78c0.34,0.38,1.6,2.47,1.6,4.48c0,0.77,0,49.72-0.07,54.49"/><path id="kvg:08590-s7" kvg:type="&#12754;" d="M32.48,52.65c-4.07,10.11-10.85,22.59-20.06,30.86"/><path id="kvg:08590-s8" kvg:type="&#12751;" d="M35.21,61.32c3.52,2.02,6.5,6.06,8.39,8.66"/></g></g><g id="kvg:08590-g6" kvg:position="right"><g id="kvg:08590-g7" kvg:position="top"><g id="kvg:08590-g8" kvg:element="&#22303;"><path id="kvg:08590-s9" kvg:type="&#12752;" d="M52.2,38.32c0.68,0.2,1.92,0.25,2.6,0.2c8.71-0.66,22.52-2.49,31.28-2.66c1.13-0.02,1.81,0.09,2.37,0.19"/><path id="kvg:08590-s10" kvg:type="&#12753;a" d="M67.7,29.12c0.08,0.19,1.17,1,1.17,2.23c0,3.86,0.17,9.43,0.17,15.25"/><path id="kvg:08590-s11" kvg:type="&#12752;" d="M48.71,48.44c0.86,0.38,3.44,0.46,4.3,0.38c10.68-1.06,28.2-3.16,37.74-3.66c1.44-0.07,2.3,0.18,3.02,0.37"/></g><g id="kvg:08590-g9" kvg:element="&#20843;" kvg:original="&#20799;"><g id="kvg:08590-g10" kvg:element="&#20031;" kvg:position="left"><path id="kvg:08590-s12" kvg:type="&#12754;" d="M60.69,49.69c0.03,0.37,0.07,0.96-0.06,1.49c-0.75,3.13-4.71,10.61-10.95,14.23"/></g><g id="kvg:08590-g11" kvg:position="right"><path id="kvg:08590-s13" kvg:type="&#12740;" d="M75.63,47.86c0.35,0.39,0.63,0.86,0.65,1.47c0.09,2.72-0.25,3.35-0.25,5.2c0,4.31,4.24,3.82,8.41,3.82c4.4,0,7.3-0.56,7.92-0.87"/></g></g></g><g id="kvg:08590-g12" kvg:element="&#22786;" kvg:position="bottom"><path id="kvg:08590-s14" kvg:type="&#12754;" d="M64.79,58.71c0.06,0.51,0.29,1.38-0.11,2.06c-2.59,4.42-7.98,12.59-18.81,20.17"/><path id="kvg:08590-s15" kvg:type="&#12743;" d="M63.78,65.88c0.27,0.03,1.73,0.25,2.51,0.18c3.46-0.32,9.01-0.99,12.64-1.8c2.49-0.55,3.2,0.63,2.56,2.13C77.99,74.62,60.93,93.75,43.3,99.5"/><path id="kvg:08590-s16" kvg:type="&#12751;" d="M58.66,70.54c4.51,4.5,24.98,21.62,31.06,25.73c1.81,1.23,3.28,1.82,5.05,2.19"/></g></g></g></g></g></svg>