<svg xmlns="http://www.w3.org/2000/svg" width="109" height="109" viewBox="0 0 109 109"><g xmlns:kvg="http://kanjivg.tagaini.net" id="kvg:StrokePaths_085c1" style="fill:none;stroke:#000000;stroke-width:3;stroke-linecap:round;stroke-linejoin:round;"><g id="kvg:085c1" kvg:element="&#34241;"><g id="kvg:085c1-g1" kvg:element="&#33983;" kvg:position="top"><g id="kvg:085c1-g2" kvg:element="&#33401;" kvg:variant="true" kvg:original="&#33400;" kvg:position="top" kvg:radical="general"><path id="kvg:085c1-s1" kvg:type="&#12752;" d="M22.5,19.9c1.22,0.47,2.64,0.56,3.86,0.47c11.21-0.85,44.19-3.96,57.12-4.02c2.03-0.01,3.25,0.22,4.27,0.46"/><path id="kvg:085c1-s2" kvg:type="&#12753;a" d="M37.75,11.8c1.42,0.86,1.87,1.12,2.02,1.65c1.42,4.96,1.82,9.47,2.23,11.27"/><path id="kvg:085c1-s3" kvg:type="&#12753;a" d="M68.25,10.25c1,1,0.87,2.02,0.5,2.9c-1.12,2.71-1.25,5.6-2.5,10.17"/></g><g id="kvg:085c1-g3" kvg:element="&#39640;" kvg:position="bottom"><g id="kvg:085c1-g4" kvg:position="top"><g id="kvg:085c1-g5" kvg:element="&#20128;"><path id="kvg:085c1-s4" kvg:type="&#12753;a" d="M52.08,22.92c0.85,0.33,2.25,1.62,2.25,2.28c0,2.44-0.27,2.51-0.11,4.57"/><path id="kvg:085c1-s5" kvg:type="&#12752;" d="M26.74,32.02c1.06,0.06,3.49,0.44,4.53,0.35c8.36-0.73,37.32-3.72,48.67-3.9c1.75-0.03,2.65,0.03,3.96,0.44"/></g><g id="kvg:085c1-g6" kvg:element="&#21475;"><path id="kvg:085c1-s6" kvg:type="&#12753;" d="M37.63,36.68c0.41,0.16,0.82,0.29,1,0.49c1.41,1.56,1.6,5.87,2.57,8.68"/><path id="kvg:085c1-s7" kvg:type="&#12757;b" d="M40.17,37.74c8.32-0.81,22.71-1.72,27.47-1.92c1.74-0.07,2.79,0.93,2.54,1.38c-1.03,1.83-1.49,3.05-3.02,5.58"/><path id="kvg:085c1-s8" kvg:type="&#12752;b" d="M41.4,44.47c5.6-0.23,19.81-1.12,27.5-1.48"/></g></g><g id="kvg:085c1-g7" kvg:position="bottom"><g id="kvg:085c1-g8" kvg:element="&#20866;"><path id="kvg:085c1-s9" kvg:type="&#12753;" d="M25,50.78c0.65,0.67,1.57,1.48,1.78,2.69c0.49,2.82,2.02,12.23,2.7,16.53"/><path id="kvg:085c1-s10" kvg:type="&#12742;a" d="M28.04,52.39c8.95-0.27,52.96-4.13,54.57-4.49c2.89-0.65,5.03,1.54,4.16,5.17c-1.2,4.99-2.27,8.94-3.98,13.38c-1.54,4-3.79,0.55-5.33-1.5"/></g><g id="kvg:085c1-g9" kvg:element="&#21475;"><path id="kvg:085c1-s11" kvg:type="&#12753;" d="M42.05,56.39c0.21,0.14,0.92,1.26,1.01,1.44c0.71,1.42,1.07,4.85,1.55,7.4"/><path id="kvg:085c1-s12" kvg:type="&#12757;b" d="M43.33,57.36c4.21-0.74,17.8-1.98,20.2-2.25c0.97-0.11,1.92,0.59,1.82,1.27c-0.24,1.71-1.13,3.21-1.91,5.5"/><path id="kvg:085c1-s13" kvg:type="&#12752;b" d="M44.71,63.49c2.83-0.21,15.73-1.08,19.62-1.4"/></g></g></g></g><g id="kvg:085c1-g10" kvg:element="&#26408;" kvg:position="bottom"><path id="kvg:085c1-s14" kvg:type="&#12752;" d="M18.75,77.26c1.93,0.44,4.12,0.58,6.33,0.44c11.29-0.71,44.06-3.21,61.13-4.05c2.2-0.11,3.58,0.08,5.78,0.38"/><path id="kvg:085c1-s15" kvg:type="&#12753;" d="M53.05,67.25c0.92,0.37,1.66,1.63,1.66,2.39c0,7.73,0,26.01-0.18,30.61"/><path id="kvg:085c1-s16" kvg:type="&#12754;" d="M50.75,76.25C44.28,82.79,28.5,92.75,13.5,96.5"/><path id="kvg:085c1-s17" kvg:type="&#12751;" d="M55.5,76c4.62,2.38,26.36,14.3,31.38,16.64c1.7,0.79,3.16,1.13,4.87,1.36"/></g></g></g></svg>