<svg xmlns="http://www.w3.org/2000/svg" width="109" height="109" viewBox="0 0 109 109"><g xmlns:kvg="http://kanjivg.tagaini.net" id="kvg:StrokePaths_085d5" style="fill:none;stroke:#000000;stroke-width:3;stroke-linecap:round;stroke-linejoin:round;"><g id="kvg:085d5" kvg:element="&#34261;"><g id="kvg:085d5-g1" kvg:element="&#33401;" kvg:variant="true" kvg:original="&#33400;" kvg:position="top" kvg:radical="general"><path id="kvg:085d5-s1" kvg:type="&#12752;" d="M17,20.77c1.37,0.53,2.97,0.63,4.35,0.53c12.63-0.96,49.78-4.46,64.34-4.53c2.29-0.01,3.67,0.25,4.81,0.51"/><path id="kvg:085d5-s2" kvg:type="&#12753;a" d="M38.75,11.5c1.25,1.07,1.65,1.39,1.79,2.05c1.25,6.14,1.61,11.72,1.96,13.95"/><path id="kvg:085d5-s3" kvg:type="&#12753;a" d="M66.21,9.75c0.88,0.78,1.46,1.97,1.17,3.13c-0.88,3.52-1.96,9.38-3.24,13.87"/></g><g id="kvg:085d5-g2" kvg:position="bottom"><g id="kvg:085d5-g3" kvg:element="&#32786;" kvg:position="left"><g id="kvg:085d5-g4" kvg:element="&#20031;"><path id="kvg:085d5-s4" kvg:type="&#12754;" d="M43.99,33.49c0.07,0.29,0.26,0.82-0.13,1.15c-4.85,4.02-11.63,8.5-24.38,10.47"/></g><g id="kvg:085d5-g5" kvg:element="&#26410;"><path id="kvg:085d5-s5" kvg:type="&#12752;" d="M15.72,52.42c0.51,0.3,3.94,0.83,4.46,0.8c5.31-0.34,16.58-2.71,25-3.93c0.84-0.12,2.36,0.14,2.79,0.29"/><g id="kvg:085d5-g6" kvg:element="&#26408;"><path id="kvg:085d5-s6" kvg:type="&#12752;" d="M14.09,63.17c0.4,0.28,2.98,0.82,4.06,0.82c5.61,0.01,18.36-2.74,27.49-3.84c1.07-0.13,2.02,0.28,2.7,0.55"/><path id="kvg:085d5-s7" kvg:type="&#12753;" d="M31.76,28.5c0.65,0.4,1.17,2.96,1.17,3.79c0,3.19,0.22,60.47,0.09,65.46"/><path id="kvg:085d5-s8" kvg:type="&#12754;" d="M32.28,63.22c-3.67,9.63-13.16,24.24-20.79,29.69"/><path id="kvg:085d5-s9" kvg:type="&#12756;/&#12751;" d="M36.75,69.5c3.75,2.75,6.5,7,8.75,11.75"/></g></g></g><g id="kvg:085d5-g7" kvg:element="&#31162;" kvg:position="right"><g id="kvg:085d5-g8" kvg:element="&#26085;"><g id="kvg:085d5-g9" kvg:element="&#30000;" kvg:part="1" kvg:variant="true"><path id="kvg:085d5-s10" kvg:type="&#12753;" d="M54.42,30.6c0.24,0.4,0.24,0.67,0.37,1.17c1.06,4.09,2.33,15.05,2.96,22.58"/><path id="kvg:085d5-s11" kvg:type="&#12757;" d="M55.54,31.59c8.42-0.41,23.82-2.23,30.11-2.63c2.31-0.15,3.55,0.39,3.36,2.88c-0.31,4.04-1.4,12.43-2.76,20.32"/><path id="kvg:085d5-s12" kvg:type="&#12752;" d="M56.73,42.08c2.74-0.2,28.76-2.13,31.02-2.13"/><path id="kvg:085d5-s13" kvg:type="&#12752;" d="M57.87,52.54c8.61-0.99,20.08-1.66,28.45-1.77"/></g></g><g id="kvg:085d5-g10" kvg:element="&#31160;"><path id="kvg:085d5-s14" kvg:type="&#12753;" d="M52.2,62.28c0.46,0.72,1.56,2.15,1.66,3.18C54.41,70.96,54,88,54.42,97.5"/><path id="kvg:085d5-s15" kvg:type="&#12742;" d="M53.83,65.13c5.5-0.8,35.47-4.16,36.55-4.44c2.32-0.6,3.85,1.47,3.77,3.25c-0.2,4.3-2.59,22.74-4.41,28.19c-2.28,6.81-4.61,3.69-6.65-0.55"/><g id="kvg:085d5-g11" kvg:element="&#30000;" kvg:part="2" kvg:variant="true"><path id="kvg:085d5-s16" kvg:type="&#12753;" d="M70.38,31.68c0.35,0.73,0.9,1.45,0.9,2.74c0,5.66,0.15,40.91,0.15,42.66"/></g><path id="kvg:085d5-s17" kvg:type="&#65302;" d="M60.9,79c0.93,1.01,1.97,1.57,2.8,1.21c2.33-1.01,13.59-4.73,18.47-6.54"/><path id="kvg:085d5-s18" kvg:type="&#12756;" d="M79.54,67.8c1.87,2.19,4.84,8.98,5.31,12.38"/></g></g></g></g></g></svg>