<svg xmlns="http://www.w3.org/2000/svg" width="109" height="109" viewBox="0 0 109 109"><g xmlns:kvg="http://kanjivg.tagaini.net" id="kvg:StrokePaths_0864e" style="fill:none;stroke:#000000;stroke-width:3;stroke-linecap:round;stroke-linejoin:round;"><g id="kvg:0864e" kvg:element="&#34382;"><g id="kvg:0864e-g1" kvg:element="&#34381;" kvg:radical="general"><path id="kvg:0864e-s1" kvg:type="&#12753;a" d="M52.27,10.83c0.98,0.92,1.26,2.42,1.26,4.27c0,5.9-0.02,8.94-0.02,13.9"/><path id="kvg:0864e-s2" kvg:type="&#12752;b" d="M55.1,20.02c4.65-0.77,9.9-1.77,14.61-2.38c1.55-0.2,2.5,0.18,3.29,0.37"/><path id="kvg:0864e-s3" kvg:type="&#12754;" d="M29.75,32.43c1.16,1.16,1.15,2.71,1.09,4.78C30.12,58.5,24.62,84.38,12.5,96.5"/><path id="kvg:0864e-s4" kvg:type="&#12758;a" d="M31.49,33.74c2.01-0.24,3.77-0.63,5.64-0.97c13.24-2.39,23.99-4.02,42.81-5.18c12.05-0.75,2.55,6.16-0.45,8.28"/><g id="kvg:0864e-g2" kvg:element="&#19971;"><g id="kvg:0864e-g3" kvg:element="&#19968;"><path id="kvg:0864e-s5" kvg:type="&#12752;" d="M38,48.44c2.62,0.56,4.56,0.29,6.48-0.13c7.07-1.55,17.18-3.55,24.53-4.61c1.98-0.28,3.78-0.56,5.74-0.01"/></g><path id="kvg:0864e-s6" kvg:type="&#12767;a" d="M50.34,33.16c0.91,0.91,1.04,1.95,1.04,3.34c0,4.98,0.06,10.16,0.06,12.39c0,6.61,1.44,7.61,10.48,7.61c5.83,0,9.46-0.38,11.58-1.39"/></g></g><g id="kvg:0864e-g4" kvg:element="&#20799;" kvg:original="&#20843;"><g id="kvg:0864e-g5" kvg:element="&#20031;" kvg:position="left"><path id="kvg:0864e-s7" kvg:type="&#12754;" d="M49.72,66.47c0.06,0.73,0.2,1.92-0.11,2.95C47.25,77.38,41.25,89,29.87,97.17"/></g><g id="kvg:0864e-g6" kvg:position="right"><path id="kvg:0864e-s8" kvg:type="&#12767;" d="M63.96,64c0.59,1.02,1.1,2.22,1.1,3.78c0,3.59-0.06,13-0.06,17.72c0,8.62,1.75,10.69,13.55,10.69c14.33,0,15.13-2.32,15.13-7.8"/></g></g></g></g></svg>