<svg xmlns="http://www.w3.org/2000/svg" width="109" height="109" viewBox="0 0 109 109"><g xmlns:kvg="http://kanjivg.tagaini.net" id="kvg:StrokePaths_0864d" style="fill:none;stroke:#000000;stroke-width:3;stroke-linecap:round;stroke-linejoin:round;"><g id="kvg:0864d" kvg:element="&#34381;" kvg:radical="general"><path id="kvg:0864d-s1" kvg:type="&#12753;a" d="M53.02,11.08C54,12,54.77,13.07,54.77,16.1c0,5.9-0.02,13.19-0.02,18.15"/><path id="kvg:0864d-s2" kvg:type="&#12752;b" d="M56.35,22.77C63,22,70,20.75,75.46,20.39c1.56-0.1,2.5,0.18,3.29,0.37"/><path id="kvg:0864d-s3" kvg:type="&#12754;" d="M29.2,35.18c0.8,0.57,0.99,2.73,0.88,4.82C29,62,25.25,83.75,9.64,98.65"/><path id="kvg:0864d-s4" kvg:type="&#12758;a" d="M30.24,37.24c1.16,0.19,2.75-0.06,4.64-0.22c15.62-1.27,36.87-4.27,44.31-4.18c12.07,0.14,2.55,7.16-0.45,9.28"/><g id="kvg:0864d-g1" kvg:element="&#19971;"><g id="kvg:0864d-g2" kvg:element="&#19968;"><path id="kvg:0864d-s5" kvg:type="&#12752;" d="M30.5,69.13c1.26,0.42,3.58,0.61,4.82,0.42c12.37-1.89,34.93-5.8,48.53-6.83c2.09-0.16,3.35,0.2,4.4,0.41"/></g><path id="kvg:0864d-s6" kvg:type="&#12767;a" d="M52.75,45.18c0.81,1,1.63,1.67,1.9,3.01c0.27,1.34-0.15,27.31-0.15,32.31c0,14.25-0.75,16.25,15.5,16c4.36-0.07,13.75,0,17.5-2"/></g></g></g></svg>