<svg xmlns="http://www.w3.org/2000/svg" width="109" height="109" viewBox="0 0 109 109"><g xmlns:kvg="http://kanjivg.tagaini.net" id="kvg:StrokePaths_08679" style="fill:none;stroke:#000000;stroke-width:3;stroke-linecap:round;stroke-linejoin:round;"><g id="kvg:08679" kvg:element="&#34425;"><g id="kvg:08679-g1" kvg:element="&#34411;" kvg:position="left" kvg:radical="general"><g id="kvg:08679-g2" kvg:element="&#20013;"><g id="kvg:08679-g3" kvg:element="&#21475;"><path id="kvg:08679-s1" kvg:type="&#12753;" d="M10.94,37.3c0.82,0.82,1.06,1.7,1.2,2.96c0.53,4.69,1.17,11.83,1.79,18.01c0.2,2.02,0.4,3.94,0.59,5.63"/><path id="kvg:08679-s2" kvg:type="&#12757;b" d="M13.25,39.45c6.6-0.92,18.66-2.65,25.13-3.25c3.2-0.29,5.36,0.72,4.71,4.19c-0.93,4.96-1.52,8.97-2.87,17.22"/><path id="kvg:08679-s3" kvg:type="&#12752;b" d="M15.29,61.04c6.86-0.77,14.88-1.44,21.09-1.93c2.25-0.18,4.26-0.33,5.9-0.45"/></g><g id="kvg:08679-g4" kvg:element="&#20008;"><path id="kvg:08679-s4" kvg:type="&#12753;a" d="M25.17,16.75c1.35,1.35,1.51,2.62,1.51,4.97c0,4.78,0.05,47.78,0.05,61.16"/></g></g><path id="kvg:08679-s5" kvg:type="&#12736;" d="M11.57,89.1c1.31,1.4,2.56,1.4,4.27,0.56c5.06-2.47,20.44-10.21,23.66-12.04"/><path id="kvg:08679-s6" kvg:type="&#12756;" d="M36.25,69.75c2.93,2.5,7.57,10.26,8.31,14.14"/></g><g id="kvg:08679-g5" kvg:element="&#24037;" kvg:position="right"><path id="kvg:08679-s7" kvg:type="&#12752;" d="M50.75,30.47c2.38,0.91,5.26,0.82,7.5,0.71c7.03-0.35,20.84-1.81,28.63-2.48c2.32-0.2,4.62-0.5,6.87,0.31"/><path id="kvg:08679-s8" kvg:type="&#12753;a" d="M69.62,33c1.57,1.57,1.77,3.25,1.77,6.3c0,15.86-0.01,42.45-0.01,49.2"/><path id="kvg:08679-s9" kvg:type="&#12752;" d="M42.5,90.55c2.76,0.95,5.65,0.76,8.49,0.5c14.61-1.32,25.68-2.01,39.13-2.46c3.06-0.1,6,0.06,8.88,1.21"/></g></g></g></svg>