<svg xmlns="http://www.w3.org/2000/svg" width="109" height="109" viewBox="0 0 109 109"><g xmlns:kvg="http://kanjivg.tagaini.net" id="kvg:StrokePaths_0868a" style="fill:none;stroke:#000000;stroke-width:3;stroke-linecap:round;stroke-linejoin:round;"><g id="kvg:0868a" kvg:element="&#34442;"><g id="kvg:0868a-g1" kvg:element="&#34411;" kvg:position="left" kvg:radical="general"><g id="kvg:0868a-g2" kvg:element="&#20013;"><g id="kvg:0868a-g3" kvg:element="&#21475;"><path id="kvg:0868a-s1" kvg:type="&#12753;" d="M12.01,40.4c0.98,1.09,1.14,2.2,1.35,3.6c0.65,4.31,1.26,8.15,2.46,15.28c0.21,1.26,0.44,2.62,0.68,4.11"/><path id="kvg:0868a-s2" kvg:type="&#12757;b" d="M13.72,41.48c6.34-0.89,18.75-2.81,24.65-3.33c3.08-0.27,4.46,0.71,3.88,3.88c-0.81,4.45-1.63,7.33-2.88,14.95"/><path id="kvg:0868a-s3" kvg:type="&#12752;b" d="M16.76,61.43c4.62-0.81,13.21-1.73,20.46-2.62c1.51-0.19,2.96-0.36,4.3-0.52"/></g><g id="kvg:0868a-g4" kvg:element="&#20008;"><path id="kvg:0868a-s4" kvg:type="&#12753;a" d="M25.92,20.75c1.1,1.1,1.26,2.75,1.26,4.47c0,4.54,0.05,40.03,0.05,53.66"/></g></g><path id="kvg:0868a-s5" kvg:type="&#12736;" d="M11.57,86.52c0.89,0.89,1.81,1.23,3.06,0.57c2.51-1.32,20.5-11.46,25.76-14.22"/><path id="kvg:0868a-s6" kvg:type="&#12756;" d="M37.25,65c2.67,2.98,6.89,12.26,7.56,16.89"/></g><g id="kvg:0868a-g5" kvg:element="&#25991;" kvg:position="right" kvg:phon="&#25991;"><g id="kvg:0868a-g6" kvg:element="&#20128;" kvg:position="top"><path id="kvg:0868a-s7" kvg:type="&#12753;a" d="M65.38,15c1.19,1.19,1.48,2.75,1.48,4.51c0,4.32-0.1,9.2-0.1,13.61"/><path id="kvg:0868a-s8" kvg:type="&#12752;" d="M48.28,36.1c2.13,0.26,4.06,0.45,6.23,0.15c7.6-1.07,21.54-3.15,29.87-3.88c2.04-0.18,4.65-0.66,6.61,0.19"/></g><g id="kvg:0868a-g7" kvg:element="&#20034;" kvg:position="bottom"><path id="kvg:0868a-s9" kvg:type="&#12754;" d="M78.24,37.87c0.44,1.24,0.34,2.6-0.28,4.88C72.28,63.54,59.38,80.88,42.29,93"/><path id="kvg:0868a-s10" kvg:type="&#12751;" d="M50.75,48.25c3.44,1.5,20.73,22.15,32.74,35.5c3.26,3.62,6.38,6.25,10.24,8.32"/></g></g></g></g></svg>