<svg xmlns="http://www.w3.org/2000/svg" width="109" height="109" viewBox="0 0 109 109"><g xmlns:kvg="http://kanjivg.tagaini.net" id="kvg:StrokePaths_08695" style="fill:none;stroke:#000000;stroke-width:3;stroke-linecap:round;stroke-linejoin:round;"><g id="kvg:08695" kvg:element="&#34453;"><g id="kvg:08695-g1" kvg:element="&#22825;" kvg:position="top" kvg:phon="&#22825;"><g id="kvg:08695-g2" kvg:element="&#19968;" kvg:radical="nelson"><path id="kvg:08695-s1" kvg:type="&#12752;" d="M19.13,18.58c2.77,1.06,6.63,0.53,9.49,0.15c16.75-2.23,36.17-4.13,50.12-5.22c3.38-0.26,7.33-0.28,10.64,0.47"/></g><g id="kvg:08695-g3" kvg:element="&#22823;"><path id="kvg:08695-s2" kvg:type="&#12752;" d="M26.81,37c2.94,0.75,6.09,0.46,8.56,0.11c10.61-1.53,31.59-4.06,42.1-5.09c2.93-0.29,6.11-0.48,8.98,0.16"/><path id="kvg:08695-s3" kvg:type="&#12754;" d="M50.62,19.75c0.38,1.12,0.4,2.38,0,3.92C46,41.12,34,60,11.25,72.87"/><path id="kvg:08695-s4" kvg:type="&#12751;" d="M61.1,34.39c7.65,8.23,17.6,18.77,25.93,25.97C88.86,61.94,91,64,94,66.25"/></g></g><g id="kvg:08695-g4" kvg:element="&#34411;" kvg:position="bottom" kvg:radical="tradit"><g id="kvg:08695-g5" kvg:element="&#20013;"><g id="kvg:08695-g6" kvg:element="&#21475;"><path id="kvg:08695-s5" kvg:type="&#12753;" d="M34.78,61.35c0.81,0.81,1.47,1.9,1.74,2.97c0.84,3.2,1.17,7.08,2.09,12.67c0.16,0.96,0.32,1.95,0.49,3"/><path id="kvg:08695-s6" kvg:type="&#12757;b" d="M37.48,63.69c11.33-1.69,24.58-3.79,31.77-4.3c3.33-0.24,5.44,0.15,4.5,3.74c-0.96,3.66-1.9,7.65-2.92,11.08"/><path id="kvg:08695-s7" kvg:type="&#12752;b" d="M39.94,77.95c6.62-0.68,18.95-1.68,28.81-2.39c1.21-0.09,2.38-0.17,3.52-0.25"/></g><g id="kvg:08695-g7" kvg:element="&#20008;"><path id="kvg:08695-s8" kvg:type="&#12753;a" d="M53.82,47.25c0.78,0.78,1.06,2.12,1.06,3.84c0,1.91,0.22,33.16,0.22,39.57"/></g></g><path id="kvg:08695-s9" kvg:type="&#12736;" d="M30.11,94.4c0.89,1.22,1.51,1.35,3.21,1.11c5.4-0.77,40.52-7.15,43.06-8"/><path id="kvg:08695-s10" kvg:type="&#12756;" d="M71.38,82c4.39,2.53,11.34,10.39,12.44,14.32"/></g></g></g></svg>