<svg xmlns="http://www.w3.org/2000/svg" width="109" height="109" viewBox="0 0 109 109"><g xmlns:kvg="http://kanjivg.tagaini.net" id="kvg:StrokePaths_086a3" style="fill:none;stroke:#000000;stroke-width:3;stroke-linecap:round;stroke-linejoin:round;"><g id="kvg:086a3" kvg:element="&#34467;"><g id="kvg:086a3-g1" kvg:element="&#34411;" kvg:position="left" kvg:radical="general"><g id="kvg:086a3-g2" kvg:element="&#20013;"><g id="kvg:086a3-g3" kvg:element="&#21475;"><path id="kvg:086a3-s1" kvg:type="&#12753;" d="M12.26,36.4c0.46,0.51,1.02,1.4,1.12,2.06c0.87,5.79,2.87,13.79,4.12,22.43"/><path id="kvg:086a3-s2" kvg:type="&#12757;b" d="M14.72,38.48c6.93-0.97,20.61-2.83,25.63-3.2c1.96-0.14,2.86,1.38,2.62,2.83c-0.83,4.98-1.98,9.84-3.33,18.12"/><path id="kvg:086a3-s3" kvg:type="&#12752;b" d="M17.26,58.43c7.99-0.68,14.49-1.18,24.26-2.39"/></g><g id="kvg:086a3-g4" kvg:element="&#20008;"><path id="kvg:086a3-s4" kvg:type="&#12753;a" d="M25.42,16.75c1.08,1,2.26,2.75,2.26,4.47c0,4.78-0.2,43.78-0.2,57.16"/></g></g><path id="kvg:086a3-s5" kvg:type="&#12736;" d="M11.57,84.77c0.6,1.16,2.46,1.11,3.06,0.82c0.6-0.29,24.04-11.65,27.76-13.97"/><path id="kvg:086a3-s6" kvg:type="&#12756;" d="M36.5,63c3.02,2.63,7.8,10.81,8.56,14.89"/></g><g id="kvg:086a3-g5" kvg:element="&#20844;" kvg:position="right"><g id="kvg:086a3-g6" kvg:element="&#20843;" kvg:position="top"><path id="kvg:086a3-s7" kvg:type="&#12754;" d="M62.16,22.72c0.24,0.87-0.01,1.89-0.33,2.94c-2.28,7.6-6.57,18.88-13.48,26.24"/><path id="kvg:086a3-s8" kvg:type="&#12751;" d="M70.06,15.5c4.69,1.75,14.83,25.37,21.02,31.12c2.39,2.22,3.24,3.42,5.56,4.13"/></g><g id="kvg:086a3-g7" kvg:element="&#21430;" kvg:position="bottom"><path id="kvg:086a3-s9" kvg:type="&#12764;" d="M66.02,54.77c0.49,0.66,0.31,2.21-0.01,3.04c-4.25,10.94-6.75,16.69-13.55,30.04c-1.47,2.88-0.71,3.71,2.32,2.73c8.44-2.76,20.73-6.08,30.68-8.52"/><path id="kvg:086a3-s10" kvg:type="&#12756;" d="M78.11,70.68C82.5,74.62,89.45,86.88,90.54,93"/></g></g></g></g></svg>