<svg xmlns="http://www.w3.org/2000/svg" width="109" height="109" viewBox="0 0 109 109"><g xmlns:kvg="http://kanjivg.tagaini.net" id="kvg:StrokePaths_086b6" style="fill:none;stroke:#000000;stroke-width:3;stroke-linecap:round;stroke-linejoin:round;"><g id="kvg:086b6" kvg:element="&#34486;"><g id="kvg:086b6-g1" kvg:element="&#34411;" kvg:position="left" kvg:radical="general"><g id="kvg:086b6-g2" kvg:element="&#20013;"><g id="kvg:086b6-g3" kvg:element="&#21475;"><path id="kvg:086b6-s1" kvg:type="&#12753;" d="M12.26,37.9c0.46,0.51,1.02,1.4,1.12,2.06c0.87,5.79,1.87,13.29,3.12,21.93"/><path id="kvg:086b6-s2" kvg:type="&#12757;b" d="M14.22,40.48c6.93-0.97,19.61-2.83,24.63-3.2c1.96-0.14,2.86,1.38,2.62,2.83c-0.83,4.98-1.98,9.84-3.33,18.12"/><path id="kvg:086b6-s3" kvg:type="&#12752;b" d="M16.76,60.43c6.24-0.68,15.96-1.48,23.76-2.39"/></g><g id="kvg:086b6-g4" kvg:element="&#20008;"><path id="kvg:086b6-s4" kvg:type="&#12753;a" d="M25.42,19.25c1.08,1,2.26,2.75,2.26,4.47c0,4.78-0.2,42.28-0.2,55.66"/></g></g><path id="kvg:086b6-s5" kvg:type="&#12736;" d="M11.57,86.25c0.57,1.18,2.32,1.13,2.89,0.84c0.57-0.29,23.16-12.86,26.68-15.22"/><path id="kvg:086b6-s6" kvg:type="&#12756;" d="M36.5,65.25c2.84,2.5,7.35,10.26,8.06,14.14"/></g><g id="kvg:086b6-g5" kvg:element="&#29976;" kvg:position="right"><g id="kvg:086b6-g6" kvg:element="&#24319;" kvg:part="1"><g id="kvg:086b6-g7" kvg:element="&#21313;"><path id="kvg:086b6-s7" kvg:type="&#12752;" d="M46.86,36.52c1.62,0.46,4.6,0.57,6.22,0.46c11.94-0.84,20.3-2.73,39.88-3.83c2.7-0.15,4.33,0.22,5.68,0.45"/><path id="kvg:086b6-s8" kvg:type="&#12753;" d="M57.17,17.37c1.07,0.49,1.71,2.19,1.93,3.17c0.21,0.98,0,68.12-0.21,74.21"/></g><path id="kvg:086b6-s9" kvg:type="&#12753;" d="M82.12,15.5c1.07,0.49,1.71,2.19,1.93,3.17c0.21,0.98,0,67.51-0.21,73.6"/></g><path id="kvg:086b6-s10" kvg:type="&#12752;" d="M59.76,61.34c5.49-0.34,20.28-1.93,23.23-1.93"/><g id="kvg:086b6-g8" kvg:element="&#24319;" kvg:part="2"><path id="kvg:086b6-s11" kvg:type="&#12752;" d="M59.76,91.65c6.4-0.24,17.08-1.71,22.98-1.95"/></g></g></g></g></svg>