<svg xmlns="http://www.w3.org/2000/svg" width="109" height="109" viewBox="0 0 109 109"><g xmlns:kvg="http://kanjivg.tagaini.net" id="kvg:StrokePaths_086d9" style="fill:none;stroke:#000000;stroke-width:3;stroke-linecap:round;stroke-linejoin:round;"><g id="kvg:086d9" kvg:element="&#34521;"><g id="kvg:086d9-g1" kvg:element="&#34411;" kvg:position="left" kvg:radical="general"><g id="kvg:086d9-g2" kvg:element="&#20013;"><g id="kvg:086d9-g3" kvg:element="&#21475;"><path id="kvg:086d9-s1" kvg:type="&#12753;" d="M14.01,38.9c0.8,0.91,1.23,1.95,1.28,3.11c0.65,4.32,1.42,9.47,2.11,15.36c0.21,1.77,0.41,3.61,0.6,5.52"/><path id="kvg:086d9-s2" kvg:type="&#12757;b" d="M15.97,40.48c6.34-0.89,17.26-2.48,22.92-3.07c3.62-0.38,4.3,1.39,3.89,3.72c-0.82,4.61-1.65,8.64-2.91,16.34"/><path id="kvg:086d9-s3" kvg:type="&#12752;b" d="M18.51,60.68c5.23-0.54,11.64-1.43,18.24-2.13c1.75-0.19,3.51-0.36,5.27-0.51"/></g><g id="kvg:086d9-g4" kvg:element="&#20008;"><path id="kvg:086d9-s4" kvg:type="&#12753;a" d="M27.17,19.75c1.16,1.17,1.51,2.75,1.51,4.47c0,4.78-0.2,42.03-0.2,55.41"/></g></g><path id="kvg:086d9-s5" kvg:type="&#12736;" d="M13.07,85.45c1.31,1.3,2.63,1.2,3.82,0.67c11.37-5,17.37-7.62,24.62-11.12"/><path id="kvg:086d9-s6" kvg:type="&#12756;" d="M37.75,66.5c2.93,2.89,7.57,11.89,8.31,16.39"/></g><g id="kvg:086d9-g5" kvg:element="&#22317;" kvg:position="right"><g id="kvg:086d9-g6" kvg:element="&#22303;" kvg:position="top"><path id="kvg:086d9-s7" kvg:type="&#12752;" d="M51.55,32.24c2.31,0.57,4.63,0.64,6.96,0.21c7.65-0.87,13.87-1.7,23.74-2.66c2.03-0.25,4.05-0.13,6.05,0.36"/><path id="kvg:086d9-s8" kvg:type="&#12753;a" d="M67.45,12.62c0.84,0.84,1.16,2.51,1.16,4.16c0,4.22-0.1,22.85-0.1,31.86"/><path id="kvg:086d9-s9" kvg:type="&#12752;" d="M49.2,50.4c2.64,0.57,5.28,0.67,7.94,0.29c8.85-1.07,20.34-2.22,28.61-2.68c2.43-0.26,4.84-0.14,7.25,0.37"/></g><g id="kvg:086d9-g7" kvg:element="&#22303;" kvg:position="bottom"><path id="kvg:086d9-s10" kvg:type="&#12752;" d="M50.57,70.71c2.39,0.46,4.79,0.5,7.19,0.13c9.18-0.84,16.55-1.64,24.86-2.01c2.47-0.28,4.93-0.2,7.37,0.23"/><path id="kvg:086d9-s11" kvg:type="&#12753;a" d="M68.1,56.07c0.85,0.85,1.18,1.95,1.18,3.72c0,11.39,0.13,13.64,0.13,28.7"/><path id="kvg:086d9-s12" kvg:type="&#12752;" d="M44.8,90.26c3.01,0.55,6.03,0.68,9.08,0.4c14.37-1.29,22.62-1.91,35.75-2.26c2.9-0.08,5.76,0.14,8.58,0.83"/></g></g></g></g></svg>