<svg xmlns="http://www.w3.org/2000/svg" width="109" height="109" viewBox="0 0 109 109"><g xmlns:kvg="http://kanjivg.tagaini.net" id="kvg:StrokePaths_086e4" style="fill:none;stroke:#000000;stroke-width:3;stroke-linecap:round;stroke-linejoin:round;"><g id="kvg:086e4" kvg:element="&#34532;"><g id="kvg:086e4-g1" kvg:element="&#34411;" kvg:position="left" kvg:radical="general"><g id="kvg:086e4-g2" kvg:element="&#20013;"><g id="kvg:086e4-g3" kvg:element="&#21475;"><path id="kvg:086e4-s1" kvg:type="&#12753;" d="M11.26,38.98c0.44,0.53,0.98,1.45,1.08,2.14c0.83,6.01,1.79,13.8,3,22.77"/><path id="kvg:086e4-s2" kvg:type="&#12757;b" d="M13.14,41.14c6.66-1.01,21.24-3.48,26.06-3.86c1.88-0.15,2.75,1.43,2.51,2.94c-0.8,5.17-2.4,9.72-3.7,18.31"/><path id="kvg:086e4-s3" kvg:type="&#12752;b" d="M15.58,61.86c5.36-1.01,16.24-1.58,23.73-2.52"/></g><g id="kvg:086e4-g4" kvg:element="&#20008;"><path id="kvg:086e4-s4" kvg:type="&#12753;a" d="M24.42,20.25c1.08,1,2.26,2.75,2.26,4.47c0,4.78-0.2,44.78-0.2,58.16"/></g></g><path id="kvg:086e4-s5" kvg:type="&#12736;" d="M10.57,88.77c0.6,1.16,2.46,1.11,3.06,0.82c0.6-0.29,24.04-12.65,27.76-14.97"/><path id="kvg:086e4-s6" kvg:type="&#12756;" d="M36.5,66.5c2.84,2.89,7.35,11.89,8.06,16.39"/></g><g id="kvg:086e4-g5" kvg:element="&#21512;" kvg:position="right"><g id="kvg:086e4-g6" kvg:position="top"><g id="kvg:086e4-g7" kvg:element="&#20154;"><path id="kvg:086e4-s7" kvg:type="&#12754;" d="M65.92,17.5c0.06,0.89-0.21,2.37-0.63,3.57c-2.92,8.3-9.28,23.26-21.72,33.62"/><path id="kvg:086e4-s8" kvg:type="&#12751;" d="M66.58,20.58c3.84,5.9,20.39,25.16,24.62,29.48c1.44,1.47,3.28,2.09,4.72,2.51"/></g><g id="kvg:086e4-g8" kvg:element="&#19968;"><path id="kvg:086e4-s9" kvg:type="&#12752;" d="M56.05,51.39c0.48,0.24,2.71,0.26,3.19,0.24c4.99-0.27,11.13-2.16,18.26-2.2c0.8-0.01,1.96,0.11,2.36,0.23"/></g></g><g id="kvg:086e4-g9" kvg:element="&#21475;" kvg:position="bottom"><path id="kvg:086e4-s10" kvg:type="&#12753;" d="M52.09,66.33c0.47,0.59,1.53,2.01,1.65,2.79c1.56,10.15,1.74,14.95,2.8,23.41"/><path id="kvg:086e4-s11" kvg:type="&#12757;b" d="M54.81,67.34c10.94-1.59,23.12-2.52,28.58-3.29c1.99-0.28,3.19,1.67,2.91,3.32c-1.18,6.85-1.89,10.74-4.32,20.33"/><path id="kvg:086e4-s12" kvg:type="&#12752;b" d="M56.75,90.31c6.41-0.87,17.82-1.11,27.22-1.75"/></g></g></g></g></svg>