<svg xmlns="http://www.w3.org/2000/svg" width="109" height="109" viewBox="0 0 109 109"><g xmlns:kvg="http://kanjivg.tagaini.net" id="kvg:StrokePaths_086ef" style="fill:none;stroke:#000000;stroke-width:3;stroke-linecap:round;stroke-linejoin:round;"><g id="kvg:086ef" kvg:element="&#34543;"><g id="kvg:086ef-g1" kvg:element="&#34411;" kvg:position="left" kvg:radical="general"><g id="kvg:086ef-g2" kvg:element="&#20013;"><g id="kvg:086ef-g3" kvg:element="&#21475;"><path id="kvg:086ef-s1" kvg:type="&#12753;" d="M12.55,37.85c0.42,0.5,0.95,1.38,1.04,2.05c0.81,5.74,1.74,13.18,2.91,21.76"/><path id="kvg:086ef-s2" kvg:type="&#12757;b" d="M14.37,39.92c6.46-0.96,18.63-3.26,23.3-3.63c1.82-0.14,2.66,1.37,2.44,2.81c-0.78,4.94-1.84,9.76-3.1,17.97"/><path id="kvg:086ef-s3" kvg:type="&#12752;b" d="M16.74,60.25c5.2-0.97,15.23-2.46,22.5-3.36"/></g><g id="kvg:086ef-g4" kvg:element="&#20008;"><path id="kvg:086ef-s4" kvg:type="&#12753;a" d="M24.7,20.5c1,0.92,2.09,2.54,2.09,4.13c0,4.42-0.18,42.21-0.18,54.56"/></g></g><path id="kvg:086ef-s5" kvg:type="&#12736;" d="M12.4,84.76c0.57,0.88,2.33,0.84,2.9,0.62c0.57-0.22,20.25-7.6,23.77-9.36"/><path id="kvg:086ef-s6" kvg:type="&#12756;" d="M34.61,70.26c3.04,2.18,7.86,8.95,8.62,12.33"/></g><g id="kvg:086ef-g5" kvg:element="&#32769;" kvg:position="right"><g id="kvg:086ef-g6" kvg:element="&#32770;" kvg:original="&#32769;" kvg:partial="true"><g id="kvg:086ef-g7" kvg:element="&#22303;"><path id="kvg:086ef-s7" kvg:type="&#12752;" d="M52.03,31.8c0.69,0.31,1.96,0.36,2.66,0.31c7.88-0.51,15.12-1.9,21.77-2.6c1.15-0.12,1.85,0.15,2.43,0.31"/><path id="kvg:086ef-s8" kvg:type="&#12753;a" d="M65.05,14.37c0.11,0.28,1.48,1.47,1.59,3.27c0.51,8.61,0.27,25.26,0.27,28.19"/><path id="kvg:086ef-s9" kvg:type="&#12752;" d="M47.08,48.95c1.41,0.67,3.98,0.38,5.39,0.17C63,47.5,78.5,45.5,93.08,44.19c2.33-0.21,3.75,0.32,4.92,0.65"/></g><path id="kvg:086ef-s10" kvg:type="&#12754;" d="M88.78,19.35c0.12,1.26,0.15,3.07-0.74,4.56C76.64,43.07,66.5,58.75,46.56,72.38"/></g><g id="kvg:086ef-g8" kvg:element="&#21269;"><path id="kvg:086ef-s11" kvg:type="&#12754;" d="M90.2,59.73c0.05,0.77-0.05,2.05-0.73,2.59c-4.78,3.77-12.3,8.24-19.05,10.43"/><path id="kvg:086ef-s12" kvg:type="&#12767;" d="M66.36,58.95c0.6,0.87,0.64,1.46,0.84,2.62c0.2,1.17,0.2,20.63,0.2,24.28c0,6.14,1.35,7.92,14.92,7.92c11.18,0,13.72-1.78,13.72-11.42"/></g></g></g></g></svg>