<svg xmlns="http://www.w3.org/2000/svg" width="109" height="109" viewBox="0 0 109 109"><g xmlns:kvg="http://kanjivg.tagaini.net" id="kvg:StrokePaths_0875f" style="fill:none;stroke:#000000;stroke-width:3;stroke-linecap:round;stroke-linejoin:round;"><g id="kvg:0875f" kvg:element="&#34655;"><g id="kvg:0875f-g1" kvg:element="&#34411;" kvg:position="left" kvg:radical="general"><g id="kvg:0875f-g2" kvg:element="&#20013;"><g id="kvg:0875f-g3" kvg:element="&#21475;"><path id="kvg:0875f-s1" kvg:type="&#12753;" d="M13.26,37.4c0.48,0.54,1.08,1.48,1.19,2.19c0.92,6.15,1.98,14.12,3.31,23.3"/><path id="kvg:0875f-s2" kvg:type="&#12757;b" d="M15.22,39.48c6.93-0.97,20.11-2.83,25.13-3.2c1.96-0.14,2.86,1.38,2.62,2.83c-0.83,4.98-1.98,10.84-3.33,19.12"/><path id="kvg:0875f-s3" kvg:type="&#12752;b" d="M17.76,60.43c5.58-0.98,16.46-1.48,24.26-2.39"/></g><g id="kvg:0875f-g4" kvg:element="&#20008;"><path id="kvg:0875f-s4" kvg:type="&#12753;a" d="M25.92,16.75c1.08,1,2.26,2.75,2.26,4.47c0,4.78-0.2,46.28-0.2,59.66"/></g></g><path id="kvg:0875f-s5" kvg:type="&#12736;" d="M12.07,87.27c0.6,1.16,2.46,1.11,3.06,0.82c0.6-0.29,23.54-12.15,27.26-14.47"/><path id="kvg:0875f-s6" kvg:type="&#12756;" d="M37.5,65.25c2.84,2.76,7.35,11.35,8.06,15.64"/></g><g id="kvg:0875f-g5" kvg:element="&#32963;" kvg:position="right"><g id="kvg:0875f-g6" kvg:element="&#30000;" kvg:position="top"><path id="kvg:0875f-s7" kvg:type="&#12753;" d="M49.38,14.5c0.29,0.49,0.63,1.3,0.78,1.91c1.28,5.02,3.94,16.19,4.69,25.53"/><path id="kvg:0875f-s8" kvg:type="&#12757;a" d="M50.74,15.65c10.18-1.11,30.46-2.44,38.05-3.38c2.79-0.34,4.36,1.17,4.06,3.85c-0.57,5.03-1.86,12.52-3.24,23.05"/><path id="kvg:0875f-s9" kvg:type="&#12753;a" d="M70.19,14.92c0.52,0.4,1.1,2.5,1.1,4.17c0,7.65-0.08,10.46-0.08,18.52"/><path id="kvg:0875f-s10" kvg:type="&#12752;a" d="M53.06,27.63c4.69-0.38,34.77-2.59,37.51-2.75"/><path id="kvg:0875f-s11" kvg:type="&#12752;a" d="M55.39,39.61c9.61-1.11,24.2-2,34.32-2.73"/></g><g id="kvg:0875f-g7" kvg:element="&#26376;" kvg:position="bottom"><path id="kvg:0875f-s12" kvg:type="&#12754;" d="M56.38,50.47c0.6,0.71,0.99,1.98,1.2,2.7c0.2,0.72,0.35,44.43,0.28,46.06"/><path id="kvg:0875f-s13" kvg:type="&#12742;a" d="M57.58,51.19c2.38-0.23,25.36-2.25,27.13-2.49c3.17-0.43,3.97,2.13,3.97,3.36c0,2.75-0.07,25.33-0.07,40.02c0,11.77-6.38,1.74-7.17,0.85"/><path id="kvg:0875f-s14" kvg:type="&#12752;a" d="M58.3,63.97c8.12-1.26,22.89-2.11,30.02-2.8"/><path id="kvg:0875f-s15" kvg:type="&#12752;a" d="M57.93,76.59c6.34-0.68,22.7-2.04,30.04-2.55"/></g></g></g></g></svg>