<svg xmlns="http://www.w3.org/2000/svg" width="109" height="109" viewBox="0 0 109 109"><g xmlns:kvg="http://kanjivg.tagaini.net" id="kvg:StrokePaths_08782" style="fill:none;stroke:#000000;stroke-width:3;stroke-linecap:round;stroke-linejoin:round;"><g id="kvg:08782" kvg:element="&#34690;"><g id="kvg:08782-g1" kvg:element="&#34411;" kvg:position="left" kvg:radical="general"><g id="kvg:08782-g2" kvg:element="&#20013;"><g id="kvg:08782-g3" kvg:element="&#21475;"><path id="kvg:08782-s1" kvg:type="&#12753;" d="M11.76,34.9c0.39,0.51,0.87,1.4,0.95,2.06c0.74,5.79,1.58,16.79,2.65,25.43"/><path id="kvg:08782-s2" kvg:type="&#12757;b" d="M13.42,36.48c5.88-0.97,18.32-3.33,22.58-3.7c1.66-0.14,2.42,1.38,2.22,2.83c-0.71,4.98-2.18,14.84-3.32,23.12"/><path id="kvg:08782-s3" kvg:type="&#12752;b" d="M15.57,60.93c7.43-0.68,14.23-1.48,20.85-2.39"/></g><g id="kvg:08782-g4" kvg:element="&#20008;"><path id="kvg:08782-s4" kvg:type="&#12753;a" d="M22.92,16.75c1.08,1,2.26,2.75,2.26,4.47c0,4.78-0.2,46.78-0.2,60.16"/></g></g><path id="kvg:08782-s5" kvg:type="&#12736;" d="M11.07,86.27c0.6,1.16,2.46,1.11,3.06,0.82c0.6-0.29,18.54-8.65,22.26-10.97"/><path id="kvg:08782-s6" kvg:type="&#12756;" d="M32.75,67c2.23,3.07,5.75,12.62,6.31,17.39"/></g><g id="kvg:08782-g5" kvg:element="&#37070;" kvg:variant="true" kvg:position="right"><g id="kvg:08782-g6" kvg:element="&#33391;" kvg:variant="true" kvg:position="left"><path id="kvg:08782-s7" kvg:type="&#12753;a" d="M54.52,12.51c0.82,0.66,1.32,1.64,1.48,2.95c0.16,1.31,0.16,8.41,0.16,11.68"/><g id="kvg:08782-g7" kvg:element="&#33390;" kvg:variant="true"><path id="kvg:08782-s8" kvg:type="&#12757;" d="M47.78,29.59c1.25-0.12,15.89-3,17.02-3.23c1.92-0.39,2.4,1.43,2.32,3.24c-0.32,7.66-1.23,17.64-1.89,25.4"/><path id="kvg:08782-s9" kvg:type="&#12752;" d="M48,42.33c3.18-0.49,12.02-2.02,16.84-2.36"/><path id="kvg:08782-s10" kvg:type="&#12752;" d="M47.92,56.08c3.44-0.53,10-2.58,17.14-2.64"/><path id="kvg:08782-s11" kvg:type="&#12761;" d="M46.25,26.94c0.71,0.57,1.14,2.55,1.28,3.68c0.13,1.03-0.08,49.8-0.08,59.84c0,2.66,0.87,2.55,1.69,1.68c2.88-3.04,8.13-9.87,11.34-12.65"/><path id="kvg:08782-s12" kvg:type="&#12754;" d="M68.72,59.64c0.02,0.23,0.05,0.6-0.04,0.93c-0.53,1.96-3.59,6.26-7.78,8.89"/><path id="kvg:08782-s13" kvg:type="&#12756;/&#12751;" d="M56.96,67.88c4.28,3.08,11.01,11.29,13.45,17.8"/></g></g><g id="kvg:08782-g8" kvg:element="&#11983;" kvg:variant="true" kvg:original="&#37009;" kvg:position="right"><path id="kvg:08782-s14" kvg:type="&#12743;" d="M75.14,22.46c1.15,0.29,1.84,0.59,2.78,0.52c5.96-0.47,10.56-1.18,13.12-2.24c3-1.24,4.55,1.74,3.22,4.64c-1.33,2.9-6.1,15.48-8.43,19.62"/><path id="kvg:08782-s15" kvg:type="&#12757;va" d="M85.79,45.11c17.43,12.14,11.95,43.39,1.88,32.52"/><path id="kvg:08782-s16" kvg:type="&#12753;" d="M77.56,23.25c0.29,0.5,0.47,2.25,0.53,3.25c0.06,1,0,66.75-0.06,73"/></g></g></g></g></svg>