<svg xmlns="http://www.w3.org/2000/svg" width="109" height="109" viewBox="0 0 109 109"><g xmlns:kvg="http://kanjivg.tagaini.net" id="kvg:StrokePaths_08842" style="fill:none;stroke:#000000;stroke-width:3;stroke-linecap:round;stroke-linejoin:round;"><g id="kvg:08842" kvg:element="&#34882;"><g id="kvg:08842-g1" kvg:element="&#34880;" kvg:position="left" kvg:radical="general"><path id="kvg:08842-s1" kvg:type="&#12754;" d="M33.63,11.08c0.04,0.52,0.17,1.4-0.07,2.1c-1.7,4.97-6.54,14.09-13.26,20.09"/><g id="kvg:08842-g2" kvg:element="&#30399;"><path id="kvg:08842-s2" kvg:type="&#12753;a" d="M14.58,33.83c0.55,0.54,1.41,2.24,1.49,2.93c0.67,5.43,1.6,35.1,2.06,44.85"/><path id="kvg:08842-s3" kvg:type="&#12757;b" d="M17.18,36.76c7.08-1.12,26.62-4.55,29.21-4.59c1.85-0.03,2.65,1.44,2.44,2.96c-0.43,3.09-2.26,32.38-3.08,36.63"/><path id="kvg:08842-s4" kvg:type="&#12753;a" d="M26.69,35.18c0.16,0.52,0.74,1.43,0.77,2.08c0.35,10.3,0.35,30.95,0,40.96"/><path id="kvg:08842-s5" kvg:type="&#12753;a" d="M36.88,34.19c0.01,0.44,0.75,2.02,0.75,2.78c0.01,8.53-0.33,27.3-0.46,37.47"/><path id="kvg:08842-s6" kvg:type="&#12752;" d="M10.63,82.38c0.75,1.48,2.68,1.24,3.43,1c10.46-3.27,24.77-8.6,37.27-12.73"/></g></g><g id="kvg:08842-g3" kvg:element="&#20996;" kvg:position="right"><g id="kvg:08842-g4" kvg:element="&#20992;"><path id="kvg:08842-s7" kvg:type="&#12742;" d="M54.58,21.59c1.32,0.88,2.96,0.6,4.12,0.47c8.38-0.9,20.84-3.91,26.05-4.8c3.38-0.58,6.39,2.25,6.2,6.33c-0.5,10.78-5.46,49.4-12.59,65.1c-3.97,8.73-8.62,3.31-10.82,0.28"/><g id="kvg:08842-g5" kvg:element="&#20034;" kvg:part="1"><g id="kvg:08842-g6" kvg:element="&#20031;"><path id="kvg:08842-s8" kvg:type="&#12754;" d="M72.39,22.67c0.08,1.54,0.12,3.98-0.17,6.2C69.36,50.57,61.5,77.5,43,91.91"/></g></g></g><g id="kvg:08842-g7" kvg:element="&#20034;" kvg:part="2"><path id="kvg:08842-s9" kvg:type="&#12751;" d="M54.42,35.43c7.65,10.19,26.74,38.42,35.89,46.31c2.23,1.92,3.7,3.33,5.69,4"/></g></g></g></g></svg>