<svg xmlns="http://www.w3.org/2000/svg" width="109" height="109" viewBox="0 0 109 109"><g xmlns:kvg="http://kanjivg.tagaini.net" id="kvg:StrokePaths_0885d" style="fill:none;stroke:#000000;stroke-width:3;stroke-linecap:round;stroke-linejoin:round;"><g id="kvg:0885d" kvg:element="&#34909;"><g id="kvg:0885d-g1" kvg:element="&#34892;" kvg:part="1" kvg:position="kamae" kvg:radical="tradit"><g id="kvg:0885d-g2" kvg:element="&#24435;" kvg:position="left" kvg:radical="nelson"><path id="kvg:0885d-s1" kvg:type="&#12754;" d="M31.12,17.25c-0.24,1.12-0.63,2.06-1.17,2.69c-2.68,3.15-9.2,8.16-16.81,12.81"/><g id="kvg:0885d-g3" kvg:element="&#20155;" kvg:variant="true" kvg:original="&#20154;"><path id="kvg:0885d-s2" kvg:type="&#12754;" d="M29.28,36.5c0.09,1.12-0.08,2.17-0.58,3.19c-3.45,7.06-7.58,13.44-16.95,22.81"/><path id="kvg:0885d-s3" kvg:type="&#12753;" d="M24.21,53.25c0.77,0.77,1.06,2,1.06,3.16c0,0.42,0.03,21.22,0,33.22c-0.01,2.71-0.01,4.91-0.01,6.25"/></g></g></g><g id="kvg:0885d-g4" kvg:element="&#37325;" kvg:phon="&#37325;"><g id="kvg:0885d-g5" kvg:element="&#21315;" kvg:part="1"><g id="kvg:0885d-g6" kvg:element="&#20031;"><path id="kvg:0885d-s4" kvg:type="&#12754;" d="M60.64,12.89c-0.14,0.99-0.86,1.8-1.34,2.18c-2.69,2.19-9.43,5.06-19.7,8.82"/></g><g id="kvg:0885d-g7" kvg:element="&#21313;" kvg:part="1"><path id="kvg:0885d-s5" kvg:type="&#12752;" d="M35.72,33.75c1.98,0.37,3.52,0.09,5.52-0.18c6.2-0.86,17.26-2.16,24.04-2.98c1.83-0.22,3.94-0.24,5.7,0.29"/></g></g><g id="kvg:0885d-g8" kvg:element="&#37324;"><path id="kvg:0885d-s6" kvg:type="&#12753;" d="M38.12,43.91c0.86,0.86,1.12,2.27,1.3,3.19c0.83,4.4,1.46,8.15,2.22,14.39c0.17,1.39,0.27,2.76,0.38,4.05"/><path id="kvg:0885d-s7" kvg:type="&#12757;a" d="M39.88,44.84c6.73-1.11,16.37-2.21,23.7-3.08c3.24-0.38,5.18,0.65,4.61,4.23c-0.48,3.04-1.31,7.01-2.66,12.48C65.16,59.96,65,61,64.61,62.53"/><path id="kvg:0885d-s8" kvg:type="&#12752;a" d="M42.01,53.22c4.87-0.47,19.74-1.72,23.82-1.99"/><path id="kvg:0885d-s9" kvg:type="&#12752;a" d="M43.13,62.94c5.99-0.65,13.25-1.19,20.73-1.49"/><g id="kvg:0885d-g9" kvg:element="&#21315;" kvg:part="2"><g id="kvg:0885d-g10" kvg:element="&#21313;" kvg:part="2"><path id="kvg:0885d-s10" kvg:type="&#12753;a" d="M52.69,22.23c0.85,0.85,1.28,2.27,1.28,3.88c0,6.89-0.1,51.63-0.1,58.14"/></g></g><path id="kvg:0885d-s11" kvg:type="&#12752;" d="M41.44,73.19c1.07,0.36,2.51,0.43,3.57,0.29c5.89-0.79,12.75-1.36,16.51-1.8c1.31-0.16,2.58-0.26,3.87,0.15"/><path id="kvg:0885d-s12" kvg:type="&#12736;/&#12752;" d="M38.67,88.13c0.83,1.12,2.09,1.27,4.06,0.61C51,86,56.75,84.38,66.16,81.44"/></g></g><g id="kvg:0885d-g11" kvg:element="&#34892;" kvg:part="2" kvg:position="kamae" kvg:radical="tradit"><g id="kvg:0885d-g12" kvg:position="right"><path id="kvg:0885d-s13" kvg:type="&#12752;" d="M77.32,24.45c1.43,0.3,3.21,0.28,4.45,0.04c3.76-0.73,7.69-1.93,10.93-2.62c0.86-0.18,1.91-0.13,2.35-0.01"/><path id="kvg:0885d-s14" kvg:type="&#12752;" d="M75.38,44.42c1.75,0.21,3.46,0.33,4.51,0.16c7.33-1.17,12.61-2.58,17-3.66c1.04-0.26,1.96-0.32,2.5-0.13"/><path id="kvg:0885d-s15" kvg:type="&#12762;" d="M87.6,45.33c1.03,1.03,1.31,2.29,1.31,4.52c0,14.56,0.03,35.91,0.03,40.87c0,8.03-5.61,0.5-6.88-0.75"/></g></g></g></g></svg>