<svg xmlns="http://www.w3.org/2000/svg" width="109" height="109" viewBox="0 0 109 109"><g xmlns:kvg="http://kanjivg.tagaini.net" id="kvg:StrokePaths_08857" style="fill:none;stroke:#000000;stroke-width:3;stroke-linecap:round;stroke-linejoin:round;"><g id="kvg:08857" kvg:element="&#34903;"><g id="kvg:08857-g1" kvg:element="&#34892;" kvg:part="1" kvg:position="kamae" kvg:radical="tradit"><g id="kvg:08857-g2" kvg:element="&#24435;" kvg:position="left" kvg:radical="nelson"><path id="kvg:08857-s1" kvg:type="&#12754;" d="M29.45,17.75c0.1,1.05-0.02,1.59-0.56,2.51c-2.15,3.64-6.82,9.32-13.14,14.86"/><g id="kvg:08857-g3" kvg:element="&#20155;" kvg:variant="true" kvg:original="&#20154;"><path id="kvg:08857-s2" kvg:type="&#12754;" d="M29.02,36.74c0.05,0.64,0.19,1.73-0.11,2.56c-2.36,6.6-9.4,15.54-19.04,24.49"/><path id="kvg:08857-s3" kvg:type="&#12753;" d="M23.42,50.65c0.96,0.96,1.54,2.35,1.54,3.72c0,0.38-0.04,21.75-0.06,32.37c0,2.25,0,4.02,0,5"/></g></g></g><g id="kvg:08857-g4" kvg:element="&#22317;" kvg:phon="&#22317;"><g id="kvg:08857-g5" kvg:element="&#22303;" kvg:position="top"><path id="kvg:08857-s4" kvg:type="&#12752;" d="M38.13,30.42c0.98,0.38,2.78,0.43,3.76,0.38c5.74-0.3,14.24-1.42,18.8-1.88c1.63-0.16,2.62-0.07,3.43,0.12"/><path id="kvg:08857-s5" kvg:type="&#12753;a" d="M50.67,14.37c1.11,1.11,1.52,2.77,1.52,4.64c0,11.25,0.14,19.12,0.14,24.36"/><path id="kvg:08857-s6" kvg:type="&#12752;" d="M36.88,45.49c1.13,0.18,3.21,0.26,4.33,0.18c5.66-0.41,13.91-1.66,20.21-2.27c1.87-0.18,3.01,0.08,3.96,0.17"/></g><g id="kvg:08857-g6" kvg:element="&#22303;" kvg:position="bottom"><path id="kvg:08857-s7" kvg:type="&#12752;" d="M38.03,64.69c1.47,0.31,2.81,0.38,4.35,0.25c5.25-0.44,13.35-1.49,18.13-2.22C61.9,62.5,63.5,62.38,65,62.5"/><path id="kvg:08857-s8" kvg:type="&#12753;a" d="M50.87,52c1,1,1.46,2.48,1.46,3.5c0,3.75,0.03,16.75,0.03,24"/><path id="kvg:08857-s9" kvg:type="&#12736;/&#12752;" d="M35.88,84.89c1.01,0.62,2.76,1.42,5.07,0.29c8.1-3.97,15.95-6.66,23.55-9.93"/></g></g><g id="kvg:08857-g7" kvg:element="&#34892;" kvg:part="2" kvg:position="kamae" kvg:radical="tradit"><g id="kvg:08857-g8" kvg:position="right"><path id="kvg:08857-s10" kvg:type="&#12752;" d="M74.3,27.82c0.95,0.22,1.89,0.24,2.83,0.16c3.56-0.3,7.04-1.58,10.62-1.7c0.9-0.03,1.78,0.06,2.69,0.19"/><path id="kvg:08857-s11" kvg:type="&#12752;" d="M69.63,46.6c2.12,0.4,3.49,0.32,5.13,0.08C79.7,45.98,87.5,45,92.5,44.47c1.42-0.15,2.76-0.09,4.13,0.27"/><path id="kvg:08857-s12" kvg:type="&#12762;" d="M81.77,47.8c0.84,0.84,1.26,3.07,1.26,5.19c0,13.68-0.01,32.08-0.01,36.74c0,7.27-5.64,1.9-7.96-0.39"/></g></g></g></g></svg>