<svg xmlns="http://www.w3.org/2000/svg" width="109" height="109" viewBox="0 0 109 109"><g xmlns:kvg="http://kanjivg.tagaini.net" id="kvg:StrokePaths_0888d" style="fill:none;stroke:#000000;stroke-width:3;stroke-linecap:round;stroke-linejoin:round;"><g id="kvg:0888d" kvg:element="&#34957;"><g id="kvg:0888d-g1" kvg:element="&#34916;" kvg:variant="true" kvg:original="&#34915;" kvg:position="left" kvg:radical="general"><path id="kvg:0888d-s1" kvg:type="&#12756;" d="M24.33,12c3.07,2.53,6.37,6.32,9,10.75"/><path id="kvg:0888d-s2" kvg:type="&#12743;" d="M13.2,33.86c0.94,0.39,2.37,0.86,3.96,0.61c4.59-0.72,18.87-4.33,21.19-4.99c2.33-0.66,4.58,0.83,3.26,2.85C33.86,44.15,24.4,58.52,13,67.5"/><path id="kvg:0888d-s3" kvg:type="&#12753;" d="M27,54.61c0.12,0.29,1.65,1.53,1.77,3.39c0.57,8.93,0.06,36.7,0.06,39.75"/><path id="kvg:0888d-s4" kvg:type="&#12754;" d="M41.25,48.39c0.2,0.85,0.4,1.08,0,1.7c-1.2,1.87-4.9,6.45-7.3,8.66"/><path id="kvg:0888d-s5" kvg:type="&#12756;" d="M31.58,59.5C35.16,62.2,39,66.26,42.08,71"/></g><g id="kvg:0888d-g2" kvg:element="&#21253;" kvg:position="right"><g id="kvg:0888d-g3" kvg:element="&#21241;"><g id="kvg:0888d-g4" kvg:element="&#20031;"><path id="kvg:0888d-s6" kvg:type="&#12754;" d="M62.63,15c0.05,0.69,0.23,1.83-0.09,2.77c-2.11,6.1-7.82,17.56-15.69,26.46"/></g><path id="kvg:0888d-s7" kvg:type="&#12742;" d="M60.31,29.18c0.92,0.61,2.21,0.82,3.68,0.41s22.1-3.04,25.74-3.64c2.76-0.45,4.26,0.8,4.14,4.41c-0.23,6.89-2.95,27.81-7.74,40.71c-2.39,6.43-5.22,2.03-7.4-0.52"/></g><g id="kvg:0888d-g5" kvg:element="&#24051;"><g id="kvg:0888d-g6" kvg:element="&#24049;" kvg:variant="true"><path id="kvg:0888d-s8" kvg:type="&#12757;" d="M53.68,45.74c1.2,0.94,2.23,0.94,4,0.63c3.59-0.63,17.18-2.77,18.27-2.89c1.45-0.16,2.58,0.53,2.07,2.97c-0.15,0.73-1.65,7.55-3.38,14.03"/><path id="kvg:0888d-s9" kvg:type="&#12752;" d="M56.22,63.35c3.88-0.45,14.21-1.79,19.72-2.18"/><path id="kvg:0888d-s10" kvg:type="&#12767;" d="M55.14,47.02c0,1.48,0.43,3.39,0.42,5.09c-0.03,5.43,0.13,27.75,0.13,32.49c0,10.3,2.31,12.08,21.2,12.08c16.25,0,19.75-3.07,19.75-12.89"/></g></g></g></g></g></svg>