<svg xmlns="http://www.w3.org/2000/svg" width="109" height="109" viewBox="0 0 109 109"><g xmlns:kvg="http://kanjivg.tagaini.net" id="kvg:StrokePaths_088d9" style="fill:none;stroke:#000000;stroke-width:3;stroke-linecap:round;stroke-linejoin:round;"><g id="kvg:088d9" kvg:element="&#35033;"><g id="kvg:088d9-g1" kvg:element="&#34916;" kvg:variant="true" kvg:original="&#34915;" kvg:position="left" kvg:radical="general"><path id="kvg:088d9-s1" kvg:type="&#12756;" d="M20.83,12.25c3.76,2.47,7.78,6.18,11,10.5"/><path id="kvg:088d9-s2" kvg:type="&#12743;" d="M12.7,33.86c0.94,0.39,2.36,0.82,3.96,0.61c7.34-0.97,16.87-2.83,19.19-3.49c2.33-0.66,4.58,0.83,3.26,2.85C31.36,45.65,23,57,11.5,68"/><path id="kvg:088d9-s3" kvg:type="&#12753;" d="M25.5,55.61c0.12,0.29,1.65,1.53,1.77,3.39c0.57,8.93,0.06,35.2,0.06,38.25"/><path id="kvg:088d9-s4" kvg:type="&#12754;" d="M41.75,49.89c0.2,0.85,0.4,1.08,0,1.7c-1.2,1.87-4.9,6.45-7.3,8.66"/><path id="kvg:088d9-s5" kvg:type="&#12756;" d="M31.08,61c3.24,2.24,6.72,5.59,9.5,9.5"/></g><g id="kvg:088d9-g2" kvg:element="&#21531;" kvg:position="right"><g id="kvg:088d9-g3" kvg:element="&#23609;"><g id="kvg:088d9-g4" kvg:element="&#11925;" kvg:variant="true" kvg:original="&#24401;"><g id="kvg:088d9-g5" kvg:element="&#23608;" kvg:part="1"><path id="kvg:088d9-s6" kvg:type="&#12757;c" d="M48.62,21.36c3.11,1.07,3.29,1,5.33,0.86C66.39,21.36,74.78,19,84.56,19c2.89,0,4.42,0.5,3.94,4.23c-0.74,5.71-2.58,15.98-4.14,25.64"/><path id="kvg:088d9-s7" kvg:type="&#12752;" d="M42.75,37.09c2,0.21,3.57,0.67,5.77,0.43c16.81-1.84,28.35-3.73,43.67-4.37c2.45-0.1,4.44,0.43,5.55,0.64"/></g><path id="kvg:088d9-s8" kvg:type="&#12752;" d="M49.26,51.95c1.11,0.21,3.12,0.76,4.44,0.64c12.22-1.07,18.55-2.3,29.65-2.73c1.77-0.07,2.89,0,4.22,0.21"/></g><g id="kvg:088d9-g6" kvg:element="&#23608;" kvg:part="2"><g id="kvg:088d9-g7" kvg:element="&#20031;"><path id="kvg:088d9-s9" kvg:type="&#12754;" d="M65.34,21.77c1.08,1.13,2.16,2.98,1.55,5.55c-5.04,21.42-8.01,41.93-28.21,61.12"/></g></g></g><g id="kvg:088d9-g8" kvg:element="&#21475;"><path id="kvg:088d9-s10" kvg:type="&#12753;" d="M55.88,69.83c0.44,0.48,1.24,2.8,1.3,3.43c0.66,6.76,1.74,15.16,2.64,23.7"/><path id="kvg:088d9-s11" kvg:type="&#12757;b" d="M58.61,71.45c12.39-1.2,24.28-3.06,29.82-3.73c2.03-0.24,3.24,2.46,2.95,3.89c-1.2,5.93-2.25,10.23-4.05,20.35"/><path id="kvg:088d9-s12" kvg:type="&#12752;b" d="M60.26,94.86c6.5-0.75,20.84-1.4,29.09-2.16"/></g></g></g></g></svg>