<svg xmlns="http://www.w3.org/2000/svg" width="109" height="109" viewBox="0 0 109 109"><g xmlns:kvg="http://kanjivg.tagaini.net" id="kvg:StrokePaths_088fc" style="fill:none;stroke:#000000;stroke-width:3;stroke-linecap:round;stroke-linejoin:round;"><g id="kvg:088fc" kvg:element="&#35068;"><g id="kvg:088fc-g1" kvg:element="&#34916;" kvg:variant="true" kvg:original="&#34915;" kvg:position="left" kvg:radical="general"><path id="kvg:088fc-s1" kvg:type="&#12756;" d="M20.33,13.5c3.24,3,6.72,7.5,9.5,12.75"/><path id="kvg:088fc-s2" kvg:type="&#12743;" d="M12.7,36.86c0.94,0.39,3.38,0.91,4.96,0.61c3.84-0.72,15.87-4.83,18.19-5.49c2.33-0.66,4.58,0.83,3.26,2.85C31.36,46.65,23.4,61.02,12,70"/><path id="kvg:088fc-s3" kvg:type="&#12753;" d="M27,55.11c0.12,0.29,1.65,1.53,1.77,3.39c0.57,8.93,0.06,35.2,0.06,38.25"/><path id="kvg:088fc-s4" kvg:type="&#12754;" d="M40.79,48.39c0.17,0.87,0.33,1.1,0,1.74c-1,1.91-4.09,6.61-6.09,8.87"/><path id="kvg:088fc-s5" kvg:type="&#12756;" d="M32.33,59.75c2.99,2.53,6.19,6.32,8.75,10.75"/></g><g id="kvg:088fc-g2" kvg:element="&#26131;" kvg:position="right"><g id="kvg:088fc-g3" kvg:element="&#26085;" kvg:position="top"><path id="kvg:088fc-s6" kvg:type="&#12753;" d="M54.15,15.56c0.44,0.73,0.82,2.13,0.88,3.1c0.28,5.2,1.84,26.11,1.84,26.6c0,0.48,0.15,0.48,0.29,1.45"/><path id="kvg:088fc-s7" kvg:type="&#12757;a" d="M55.76,16.73c2.47-0.12,23.73-2.59,25.98-2.73c1.88-0.12,3,2.87,2.94,3.62c-0.44,5.48-1.33,14.46-2.92,26.73"/><path id="kvg:088fc-s8" kvg:type="&#12752;a" d="M56.05,30.29c8.7-0.93,21.12-2.49,26.89-2.77"/><path id="kvg:088fc-s9" kvg:type="&#12752;a" d="M57.89,44.86c7.18-1.01,17.47-2.04,24.19-2.53"/></g><g id="kvg:088fc-g4" kvg:element="&#21247;" kvg:position="bottom"><g id="kvg:088fc-g5" kvg:element="&#21241;"><g id="kvg:088fc-g6" kvg:element="&#20031;"><path id="kvg:088fc-s10" kvg:type="&#12754;" d="M63.08,47.7c0.05,0.5,0.2,1.32-0.1,2c-1.84,4.19-9.3,13.41-17.26,19.12"/></g><path id="kvg:088fc-s11" kvg:type="&#12742;" d="M58.38,59.07c0.81,0.45,3.41,0.85,4.75,0.8c3.13-0.12,23.33-3.85,26.57-4c3.24-0.15,4.15,1.55,3.41,4.65c-2.1,8.73-4.18,18.99-8.79,30.9c-2.06,5.33-5.56,4.58-8.69-0.25"/></g><g id="kvg:088fc-g7" kvg:element="&#20031;"><path id="kvg:088fc-s12" kvg:type="&#12754;" d="M66.7,61.06c0.04,0.41,0.17,1.08-0.08,1.63C63.75,69,58.5,75.75,49.56,82.28"/></g><g id="kvg:088fc-g8" kvg:element="&#20031;"><path id="kvg:088fc-s13" kvg:type="&#12754;" d="M80.09,59.65c0.07,0.79,0.15,2.04-0.15,3.18c-1.76,6.71-11.25,21.42-25.03,30.43"/></g></g></g></g></g></svg>