<svg xmlns="http://www.w3.org/2000/svg" width="109" height="109" viewBox="0 0 109 109"><g xmlns:kvg="http://kanjivg.tagaini.net" id="kvg:StrokePaths_0890a" style="fill:none;stroke:#000000;stroke-width:3;stroke-linecap:round;stroke-linejoin:round;"><g id="kvg:0890a" kvg:element="&#35082;"><g id="kvg:0890a-g1" kvg:element="&#34916;" kvg:variant="true" kvg:original="&#34915;" kvg:position="left" kvg:radical="general"><path id="kvg:0890a-s1" kvg:type="&#12756;" d="M21.58,13c2.82,2.76,5.84,6.91,8.25,11.75"/><path id="kvg:0890a-s2" kvg:type="&#12743;" d="M12.7,35.86c0.94,0.39,3.36,1.33,4.96,1.11c3.34-0.47,16.37-4.33,18.69-4.99c2.33-0.66,4.08,0.83,2.76,2.85C31.36,46.65,24.25,58,12,69"/><path id="kvg:0890a-s3" kvg:type="&#12753;" d="M27,53.11c0.12,0.29,1.65,1.53,1.77,3.39c0.57,8.93,0.06,37.2,0.06,40.25"/><path id="kvg:0890a-s4" kvg:type="&#12754;" d="M40.31,47.89c0.15,0.79,0.29,1,0,1.58c-0.88,1.73-3.6,5.99-5.36,8.04"/><path id="kvg:0890a-s5" kvg:type="&#12756;" d="M31.83,58.5c3.16,2.35,6.54,5.88,9.25,10"/></g><g id="kvg:0890a-g2" kvg:element="&#25153;" kvg:position="right"><g id="kvg:0890a-g3" kvg:element="&#25144;" kvg:position="tare"><path id="kvg:0890a-s6" kvg:type="&#12752;" d="M46.3,15.73c1.18,0.51,3.35,0.56,4.54,0.51c12.32-0.58,27.65-1.68,38.48-2.26c1.97-0.11,3.16,0.24,4.15,0.5"/><path id="kvg:0890a-s7" kvg:type="&#12757;c" d="M49.98,31.38c1.52,0.37,2.32,0.78,3.77,0.65C65,31,82.25,29.5,90.83,29.25c1.47-0.04,3.7,0.32,2.89,3c-1.22,4-2.15,6-3.44,10.75"/><path id="kvg:0890a-s8" kvg:type="&#12752;b" d="M51.61,45.25c6.06,0,29.6-1.25,40.24-1.75"/><path id="kvg:0890a-s9" kvg:type="&#12754;" d="M51.16,32.18c0.3,1.13,0.67,1.95,0.52,3.88C49.5,62.5,45.75,74.5,35.75,89"/></g><g id="kvg:0890a-g4" kvg:element="&#20874;"><g id="kvg:0890a-g5" kvg:element="&#20866;"><path id="kvg:0890a-s10" kvg:type="&#12753;" d="M51.93,58.21c0.41,0.64,1.18,2.16,1.05,3.31c-0.14,1.15,1.1,31.05,1.1,32.97"/><path id="kvg:0890a-s11" kvg:type="&#12742;a" d="M53.34,58.99c5.19-0.51,36.85-3.38,37.88-3.56c2.18-0.38,3.18,2.35,3.18,3.03c0,6.78-0.65,25.53-1.48,29.83c-1.27,6.58-3.82,2.43-5.46,0.77"/></g><g id="kvg:0890a-g6" kvg:element="&#24318;" kvg:variant="true"><g id="kvg:0890a-g7" kvg:element="&#21313;" kvg:part="1" kvg:variant="true"><path id="kvg:0890a-s12" kvg:type="&#12752;" d="M53.62,73.56c5.93-0.4,27.35-2.26,40.31-2.52"/></g><g id="kvg:0890a-g8" kvg:element="&#20031;" kvg:variant="true"><path id="kvg:0890a-s13" kvg:type="&#12753;" d="M65.08,58.5c0.77,0.27,1.22,1.2,1.38,1.73c0.15,0.53,0,29.33-0.15,32.66"/></g><g id="kvg:0890a-g9" kvg:element="&#21313;" kvg:part="2" kvg:variant="true"><path id="kvg:0890a-s14" kvg:type="&#12753;" d="M78.54,57.57c0.77,0.27,1.22,1.2,1.38,1.73c0.15,0.53,0,29.63-0.15,32.96"/></g></g></g></g></g></g></svg>