<svg xmlns="http://www.w3.org/2000/svg" width="109" height="109" viewBox="0 0 109 109"><g xmlns:kvg="http://kanjivg.tagaini.net" id="kvg:StrokePaths_0897e" style="fill:none;stroke:#000000;stroke-width:3;stroke-linecap:round;stroke-linejoin:round;"><g id="kvg:0897e" kvg:element="&#35198;" kvg:radical="general"><g id="kvg:0897e-g1" kvg:element="&#35199;" kvg:variant="true"><path id="kvg:0897e-s1" kvg:type="&#12752;" d="M22.64,23.13c1.15,0.47,3.27,0.6,4.42,0.47c7.35-0.81,44.01-5.32,51.13-4.77c1.92,0.15,3.08,0.22,4.04,0.46"/><path id="kvg:0897e-s2" kvg:type="&#12753;" d="M17,44.74c0.5,0.84,1.02,1.54,1.24,2.6c1.74,8.35,3.33,31.4,4.52,46.41"/><path id="kvg:0897e-s3" kvg:type="&#12757;" d="M18.13,46.08c12.3-1.63,63.49-5.72,69.83-6.27c2.32-0.2,3.48,1.98,3.38,3.2c-0.59,7.24-2.59,36.99-4.5,49.94"/><path id="kvg:0897e-s4" kvg:type="&#12753;" d="M39.26,25.38c1.34,0.61,2.37,2.74,2.41,3.99C42,39.5,43.25,64.25,44.15,75.98"/><path id="kvg:0897e-s5" kvg:type="&#12753;" d="M63.41,23.08c1.34,0.61,1.9,2.81,1.89,5.64C65.25,40,65.5,55.75,65,73.25"/><path id="kvg:0897e-s6" kvg:type="&#12752;" d="M44.25,74.59c6.75-1.09,11.5-2.09,21.17-3.46"/></g></g></g></svg>