<svg xmlns="http://www.w3.org/2000/svg" width="109" height="109" viewBox="0 0 109 109"><g xmlns:kvg="http://kanjivg.tagaini.net" id="kvg:StrokePaths_0898a" style="fill:none;stroke:#000000;stroke-width:3;stroke-linecap:round;stroke-linejoin:round;"><g id="kvg:0898a" kvg:element="&#35210;"><g id="kvg:0898a-g1" kvg:element="&#35198;" kvg:position="top" kvg:radical="general"><g id="kvg:0898a-g2" kvg:element="&#35199;" kvg:variant="true"><path id="kvg:0898a-s1" kvg:type="&#12752;" d="M23.14,14.16c1.44,0.45,4.08,0.59,5.52,0.45c13.59-1.36,37.59-3.11,48.29-3.53c2.39-0.09,3.84-0.29,5.04-0.07"/><path id="kvg:0898a-s2" kvg:type="&#12753;" d="M20.5,21.74c0.5,0.84,1.13,1.53,1.24,2.6C22,27,23.5,29.5,23.75,33.75"/><path id="kvg:0898a-s3" kvg:type="&#12757;" d="M21.63,23.72c10.3-1.36,58.32-4.96,63.63-5.42c1.94-0.17,2.83,1.66,2.83,2.68c0,2.76-1.34,5.51-2.27,10.33"/><path id="kvg:0898a-s4" kvg:type="&#12753;" d="M43.05,14.01c0.32,0.25,0.54,1.11,0.58,1.62C44,20,45.52,27.74,45.73,32.48"/><path id="kvg:0898a-s5" kvg:type="&#12753;" d="M64.9,13.08c0.32,0.25,0.46,1.14,0.46,2.28c-0.01,4.56-1.07,7.14-1.07,12.52"/><path id="kvg:0898a-s6" kvg:type="&#12752;" d="M45.76,29.92c3.74-0.17,16.49-1.42,20.13-1.9"/></g></g><g id="kvg:0898a-g3" kvg:position="bottom"><g id="kvg:0898a-g4" kvg:element="&#38761;" kvg:position="left"><g id="kvg:0898a-g5" kvg:element="&#24319;" kvg:position="top"><g id="kvg:0898a-g6" kvg:element="&#21313;"><path id="kvg:0898a-s7" kvg:type="&#12752;" d="M14.09,44.81c0.95,0.57,2.69,0.66,3.64,0.57C22.7,44.86,41,42.5,47.9,42.19c1.58-0.07,2.54,0.27,3.33,0.55"/><path id="kvg:0898a-s8" kvg:type="&#12753;" d="M25.02,38.07c0.44,0.29,0.7,1.31,0.78,1.89c0.09,0.58,1.15,7.96,1.61,14.52"/></g><path id="kvg:0898a-s9" kvg:type="&#12753;a" d="M40.71,35.5c0.44,0.29,0.84,1.3,0.78,1.89c-0.31,3.14-0.24,5.74-1.4,13.85"/><path id="kvg:0898a-s10" kvg:type="&#12752;b" d="M27.33,53c1.65,0,12.54-1.08,14.02-1.21"/></g><g id="kvg:0898a-g7" kvg:position="bottom"><path id="kvg:0898a-s11" kvg:type="&#12753;" d="M17.49,60.4c0.29,0.28,0.59,0.51,0.72,0.86c1.01,2.77,1.36,6.54,2.05,11.51"/><path id="kvg:0898a-s12" kvg:type="&#12757;" d="M18.26,61.64c6.88-1.32,26-3,28.95-3.51c1.08-0.19,1.99,1.12,1.81,2.2c-0.39,2.22-1.43,4.09-2.28,7.97"/><path id="kvg:0898a-s13" kvg:type="&#12752;" d="M20.22,71.36c3.47-0.57,24.2-2.42,28.6-3"/><path id="kvg:0898a-s14" kvg:type="&#12752;" d="M12,80.6c1.02,0.61,2.87,0.6,3.9,0.61c8.85,0.04,22.6-1.71,30.53-2.62c1.69-0.19,2.71-0.21,3.56,0.09"/><path id="kvg:0898a-s15" kvg:type="&#12753;" d="M32.75,55.4c0.5,0.39,0.81,1.74,0.91,2.51s0,38.26-0.1,43.09"/></g></g><g id="kvg:0898a-g8" kvg:element="&#39340;" kvg:position="right"><path id="kvg:0898a-s16" kvg:type="&#12753;" d="M61.24,38.35c-0.02,4.1-0.21,31.12-0.99,33.5"/><path id="kvg:0898a-s17" kvg:type="&#12752;b" d="M59.48,37.67c0.8-0.01,2.74,0.45,3.79,0.39c7.82-0.42,20.4-1.85,22.76-2.13c0.94-0.11,2.53-0.2,3-0.02"/><path id="kvg:0898a-s18" kvg:type="&#12753;a" d="M72.81,38.61c0.25,0.3,0.96,0.7,0.95,1.18c-0.02,4.91-0.06,21.73-0.25,29.45"/><path id="kvg:0898a-s19" kvg:type="&#12752;b" d="M61.66,49.06c6.26-0.47,19.75-2.27,22.44-2.58c0.94-0.11,2.53-0.19,3-0.02"/><path id="kvg:0898a-s20" kvg:type="&#12752;b" d="M61.76,59.43c6.26-0.47,19.25-2.67,21.94-2.98c0.94-0.11,2.53-0.2,3-0.02"/><path id="kvg:0898a-s21" kvg:type="&#12742;a" d="M60.49,72.37c6.17-1.12,25.54-2.71,28.93-3.18c4.33-0.61,4.7,2.32,3.95,5.13c-2.12,7.93-4.87,13.93-9.12,20.19c-3,4.41-5.32,0.32-6.21-0.69"/><g id="kvg:0898a-g9" kvg:element="&#28780;" kvg:variant="true" kvg:original="&#28779;"><path id="kvg:0898a-s22" kvg:type="&#12756;" d="M54.5,79.28c0.42,6.59-2.36,12.38-2.81,13.7"/><path id="kvg:0898a-s23" kvg:type="&#12756;" d="M61.61,78.63c1.22,2.71,2.25,6.11,2.53,10.94"/><path id="kvg:0898a-s24" kvg:type="&#12756;" d="M70.02,77.35c0.63,1.19,2.88,5.12,3.16,9.02"/><path id="kvg:0898a-s25" kvg:type="&#12756;" d="M78.01,75.58c1.33,2.55,3.51,5.18,3.98,8.56"/></g></g></g></g></g></svg>