<svg xmlns="http://www.w3.org/2000/svg" width="109" height="109" viewBox="0 0 109 109"><g xmlns:kvg="http://kanjivg.tagaini.net" id="kvg:StrokePaths_08993" style="fill:none;stroke:#000000;stroke-width:3;stroke-linecap:round;stroke-linejoin:round;"><g id="kvg:08993" kvg:element="&#35219;"><g id="kvg:08993-g1" kvg:element="&#11940;" kvg:variant="true" kvg:original="&#29226;" kvg:position="top"><path id="kvg:08993-s1" kvg:type="&#12754;" d="M72.22,9.93c0.12,0.27,0.25,0.7-0.25,1.1c-2.96,2.31-21.22,9.48-43.14,10.48"/><path id="kvg:08993-s2" kvg:type="&#12754;" d="M33.4,25.68c0.04,0.34,0.08,0.87-0.08,1.36C32.38,29.89,26.94,36.16,19.5,40"/><path id="kvg:08993-s3" kvg:type="&#12756;" d="M49.15,23.62c2.86,2.14,7.39,8.8,8.11,12.13"/><path id="kvg:08993-s4" kvg:type="&#12756;" d="M70.01,20.62c6.09,2.76,15.72,11.34,17.24,15.63"/></g><g id="kvg:08993-g2" kvg:element="&#35211;" kvg:position="bottom" kvg:radical="general"><g id="kvg:08993-g3" kvg:element="&#30446;" kvg:position="top"><path id="kvg:08993-s5" kvg:type="&#12753;" d="M33.65,41.32c0.46,0.78,1.12,1.36,1.12,2.41c0,1.04-0.15,30.44,0,31.48"/><path id="kvg:08993-s6" kvg:type="&#12757;a" d="M35.54,42.38c2.58-0.13,34.25-3.53,36.6-3.69c1.96-0.13,3.5,0.73,3.34,1.69c-0.21,1.22-0.91,31.79-0.91,32.57"/><path id="kvg:08993-s7" kvg:type="&#12752;a" d="M35.49,52.15c3.69,0,33.87-3.12,38.01-3.12"/><path id="kvg:08993-s8" kvg:type="&#12752;a" d="M35.7,62.5c7.48-0.37,30.86-3.06,37.49-3.06"/><path id="kvg:08993-s9" kvg:type="&#12752;a" d="M36.37,73.3c5.13,0,30.86-2.56,37.49-2.56"/></g><g id="kvg:08993-g4" kvg:position="bottom"><path id="kvg:08993-s10" kvg:type="&#12754;" d="M45.5,76.15c0.07,0.57,0.16,1.48-0.15,2.3c-1.82,4.86-8.6,17.55-26.6,22.05"/><path id="kvg:08993-s11" kvg:type="&#12767;" d="M59.41,74.84c0.57,0.81,1.03,1.76,1.06,3c0.08,2.95-0.44,7.05-0.44,10.66c0,10.25,3.47,10.86,16.97,10.86S93.25,97,93.25,88.67"/></g></g></g></g></svg>