<svg xmlns="http://www.w3.org/2000/svg" width="109" height="109" viewBox="0 0 109 109"><g xmlns:kvg="http://kanjivg.tagaini.net" id="kvg:StrokePaths_089ac" style="fill:none;stroke:#000000;stroke-width:3;stroke-linecap:round;stroke-linejoin:round;"><g id="kvg:089ac" kvg:element="&#35244;"><g id="kvg:089ac-g1" kvg:element="&#35912;" kvg:position="left"><g id="kvg:089ac-g2" kvg:element="&#23665;" kvg:position="top"><path id="kvg:089ac-s1" kvg:type="&#12753;a" d="M29.42,14.5c0.63,0.34,1.96,2.58,2.09,3.26c0.13,0.69-0.08,10.1-0.21,14.4"/><path id="kvg:089ac-s2" kvg:type="&#12740;a" d="M16.1,20.57c0.63,0.34,1.31,1.8,1.26,2.5c-0.28,3.43-0.32,3.68-0.5,8.17c-0.06,1.58-0.32,3.09,1.25,2.88c5.61-0.77,21.69-2.92,29.59-3.11"/><path id="kvg:089ac-s3" kvg:type="&#12753;" d="M47.85,18.66c0.63,0.35,1.36,2.57,1.26,3.26c-0.62,4.23-0.2,2.71-1.24,10.58"/></g><g id="kvg:089ac-g3" kvg:element="&#35910;" kvg:position="bottom"><g id="kvg:089ac-g4" kvg:position="top"><path id="kvg:089ac-s4" kvg:type="&#12752;" d="M15.13,43.93c1.13,0.46,3.19,0.53,4.32,0.46c6.06-0.38,16.81-2.13,23.49-3.06c1.86-0.26,3,0.22,3.94,0.45"/></g><g id="kvg:089ac-g5" kvg:position="bottom"><g id="kvg:089ac-g6" kvg:element="&#21475;"><path id="kvg:089ac-s5" kvg:type="&#12753;" d="M18.08,52.2c0.35,0.26,0.8,0.46,0.86,0.8c0.47,2.49,1.22,9.32,2.29,14.26"/><path id="kvg:089ac-s6" kvg:type="&#12757;b" d="M18.75,54.01c5.34-0.5,19.29-3.03,22.93-3.11c1.51-0.03,3.03,1.15,2.69,2.6c-0.61,2.6-1.59,5.52-2.74,9.21"/><path id="kvg:089ac-s7" kvg:type="&#12752;b" d="M21.52,65.61c3.94,0,15.14-2.17,22.02-2.38"/></g><path id="kvg:089ac-s8" kvg:type="&#12756;" d="M21,72.42c1.87,2.2,4.84,9.04,5.31,12.47"/><path id="kvg:089ac-s9" kvg:type="&#12754;" d="M40.61,67.56c0.01,0.38,0.03,0.99-0.03,1.54c-0.32,3.26-2.12,10.4-4.6,14.78"/><path id="kvg:089ac-s10" kvg:type="&#12752;" d="M14.88,92.73c1.35,0.99,3.55,0.93,4.44,0.57c11.94-4.8,23.3-10.49,31-13.46"/></g></g></g><g id="kvg:089ac-g7" kvg:element="&#35211;" kvg:position="right" kvg:radical="general"><g id="kvg:089ac-g8" kvg:element="&#30446;" kvg:position="top"><path id="kvg:089ac-s11" kvg:type="&#12753;" d="M57.69,18.69c0.45,1.05,1.09,1.83,1.09,3.23c0,1.4-0.15,40.93,0,42.33"/><path id="kvg:089ac-s12" kvg:type="&#12757;a" d="M59.52,20.11c2.52-0.17,19.71-2.91,22-3.12c1.91-0.18,3.42,0.98,3.26,2.28c-0.2,1.65-0.39,42.74-0.39,43.79"/><path id="kvg:089ac-s13" kvg:type="&#12752;a" d="M59.48,33.92c3.6,0,19.84-2.35,23.88-2.35"/><path id="kvg:089ac-s14" kvg:type="&#12752;a" d="M59.69,46.82c7.3-0.5,16.9-2.1,23.38-2.1"/><path id="kvg:089ac-s15" kvg:type="&#12752;a" d="M60.34,61.69c5.01,0,16.9-1.6,23.38-1.6"/></g><g id="kvg:089ac-g9" kvg:position="bottom"><path id="kvg:089ac-s16" kvg:type="&#12754;" d="M65.25,65.25c0.05,0.71,0.11,1.82-0.11,2.84c-1.29,5.99-8.73,19.12-18.89,27.16"/><path id="kvg:089ac-s17" kvg:type="&#12767;" d="M74.86,63.97c0.43,1.1,0.77,2.4,0.8,4.11c0.06,4.26-0.34,10.28-0.34,15.4c0,10.02,0.18,12.77,10.18,12.65c8.75-0.11,9.75-2.12,9.75-8.47"/></g></g></g></g></svg>