<svg xmlns="http://www.w3.org/2000/svg" width="109" height="109" viewBox="0 0 109 109"><g xmlns:kvg="http://kanjivg.tagaini.net" id="kvg:StrokePaths_089a1" style="fill:none;stroke:#000000;stroke-width:3;stroke-linecap:round;stroke-linejoin:round;"><g id="kvg:089a1" kvg:element="&#35233;"><g id="kvg:089a1-g1" kvg:element="&#24043;" kvg:position="left"><g id="kvg:089a1-g2" kvg:element="&#24037;" kvg:part="1"><path id="kvg:089a1-s1" kvg:type="&#12752;" d="M11.02,24.45c0.68,0.27,2.91,0.35,3.6,0.28c3.21-0.36,26.98-2.45,32.38-2.73c1.05-0.05,2.01,0.05,2.88,0.28"/><path id="kvg:089a1-s2" kvg:type="&#12753;" d="M29.03,23.75c1.02,2.62,1.02,4.2,1.02,6.3c0,14.7-0.03,22.25-0.03,47.45"/></g><g id="kvg:089a1-g3" kvg:element="&#20174;"><g id="kvg:089a1-g4" kvg:element="&#20154;" kvg:position="left"><path id="kvg:089a1-s3" kvg:type="&#12754;" d="M19.25,35.49c0.1,0.76,0.07,2.43-0.06,3.29c-1.32,8.32-3.4,19.16-7.47,27.1"/><path id="kvg:089a1-s4" kvg:type="&#12751;" d="M18.97,49.36c2.59,2.14,5.89,7.84,7.15,13.23"/></g><g id="kvg:089a1-g5" kvg:element="&#20154;" kvg:position="right"><path id="kvg:089a1-s5" kvg:type="&#12754;" d="M44.18,34.74c0.11,0.66,0.08,2.09-0.07,2.83c-1.5,7.15-3.85,16.48-8.45,23.31"/><path id="kvg:089a1-s6" kvg:type="&#12751;" d="M42.83,47.21c3.42,2.04,6.58,7.32,7.87,12.71"/></g></g><g id="kvg:089a1-g6" kvg:element="&#24037;" kvg:part="2"><path id="kvg:089a1-s7" kvg:type="&#12752;" d="M12.1,82.99c0.45,0.65,2.07,1.32,2.83,1.03C23.19,80.86,40.41,73.48,48,70.5"/></g></g><g id="kvg:089a1-g7" kvg:element="&#35211;" kvg:position="right" kvg:radical="general"><g id="kvg:089a1-g8" kvg:element="&#30446;" kvg:position="top"><path id="kvg:089a1-s8" kvg:type="&#12753;" d="M57.69,18.69c0.45,1.05,1.09,1.83,1.09,3.23c0,1.4-0.15,40.93,0,42.33"/><path id="kvg:089a1-s9" kvg:type="&#12757;a" d="M59.52,20.11c2.52-0.17,21.71-2.41,24-2.62c1.91-0.18,3.42,0.98,3.26,2.28c-0.2,1.65-0.89,41.74-0.89,42.79"/><path id="kvg:089a1-s10" kvg:type="&#12752;a" d="M58.98,33.42c3.6,0,23.34-2.35,27.38-2.35"/><path id="kvg:089a1-s11" kvg:type="&#12752;a" d="M59.19,46.82c7.3-0.5,19.9-2.1,26.38-2.1"/><path id="kvg:089a1-s12" kvg:type="&#12752;a" d="M58.84,61.69c5.01,0,19.9-1.1,26.38-1.1"/></g><g id="kvg:089a1-g9" kvg:position="bottom"><path id="kvg:089a1-s13" kvg:type="&#12754;" d="M64.25,65.25c0.05,0.71,0.11,1.84-0.11,2.86C62.83,74.15,55.3,87.39,45,95.5"/><path id="kvg:089a1-s14" kvg:type="&#12767;" d="M74.86,63.47c0.43,1.1,0.77,2.4,0.8,4.11c0.07,4.34-0.34,13.49-0.34,18.67c0,8.76,2.93,9.88,11.43,9.88s10-1.62,10-8.96"/></g></g></g></g></svg>