<svg xmlns="http://www.w3.org/2000/svg" width="109" height="109" viewBox="0 0 109 109"><g xmlns:kvg="http://kanjivg.tagaini.net" id="kvg:StrokePaths_089b2" style="fill:none;stroke:#000000;stroke-width:3;stroke-linecap:round;stroke-linejoin:round;"><g id="kvg:089b2" kvg:element="&#35250;"><g id="kvg:089b2-g1" kvg:position="left"><g id="kvg:089b2-g2" kvg:element="&#24319;" kvg:position="top"><g id="kvg:089b2-g3" kvg:element="&#33401;" kvg:part="1" kvg:variant="true" kvg:original="&#33400;"><g id="kvg:089b2-g4" kvg:element="&#21313;"><path id="kvg:089b2-s1" kvg:type="&#12752;" d="M11.02,24.32c1.26,0.3,2.73,0.36,3.99,0.3c11.59-0.54,23.74-2.87,32.76-3.04c2.1-0.04,3.36,0.14,4.41,0.29"/><path id="kvg:089b2-s2" kvg:type="&#12753;" d="M22.5,14.21c1.27,1.08,1.77,1.83,1.81,2.5c0.41,6.41,0.19,10.54,0.69,17.01"/></g></g><g id="kvg:089b2-g5" kvg:element="&#33401;" kvg:part="2" kvg:variant="true" kvg:original="&#33400;"><path id="kvg:089b2-s3" kvg:type="&#12753;" d="M41.71,13.67c0.18,0.72,0.82,1.89,0.68,3c-0.5,3.91-1.07,11.62-1.8,15.22"/></g><path id="kvg:089b2-s4" kvg:type="&#12752;" d="M25.08,33.16c6.11-0.64,10.69-0.81,17.07-1.12"/></g><g id="kvg:089b2-g6" kvg:position="bottom"><path id="kvg:089b2-s5" kvg:type="&#12753;" d="M15.06,41.54c0.32,0.24,0.64,0.44,0.78,0.73c1.1,2.36,2,8.45,2.76,12.69"/><path id="kvg:089b2-s6" kvg:type="&#12757;" d="M16.18,43.27c7.77-0.99,26.42-3.12,30.43-3.45c1.47-0.12,2.35,1.23,2.14,1.95c-0.7,2.38-1.73,7.13-2.59,9.81"/><path id="kvg:089b2-s7" kvg:type="&#12752;" d="M18.91,53.41c4.71-0.38,23.25-1.49,29.23-1.87"/><path id="kvg:089b2-s8" kvg:type="&#12753;" d="M30.39,32.71c0.94,0.43,1.51,1.95,1.7,2.81c0.19,0.87,0.43,45.63,0.24,51.04"/><g id="kvg:089b2-g7" kvg:element="&#19977;"><g id="kvg:089b2-g8" kvg:element="&#19968;" kvg:position="top"><path id="kvg:089b2-s9" kvg:type="&#12752;" d="M14.29,62.58c0.96,0.37,2.71,0.37,3.68,0.37c6.93-0.01,20.99-1.68,28.45-2.42c1.59-0.16,2.56,0.18,3.36,0.36"/></g><g id="kvg:089b2-g9" kvg:position="bottom"><g id="kvg:089b2-g10" kvg:element="&#19968;"><path id="kvg:089b2-s10" kvg:type="&#12752;" d="M16.44,72.96c0.96,0.37,2.71,0.41,3.68,0.37c6.49-0.23,17.77-2.17,24.59-2.48c1.6-0.07,2.56,0.18,3.36,0.36"/></g><g id="kvg:089b2-g11" kvg:element="&#19968;"><path id="kvg:089b2-s11" kvg:type="&#12752;" d="M14.45,90.69c1.02,1.07,2.92,1.44,3.92,1.07c8.88-3.26,26.88-10.51,31.85-12.88"/></g></g></g></g></g><g id="kvg:089b2-g12" kvg:element="&#35211;" kvg:position="right" kvg:radical="general"><g id="kvg:089b2-g13" kvg:element="&#30446;" kvg:position="top"><path id="kvg:089b2-s12" kvg:type="&#12753;" d="M57.69,15.06c0.46,1.23,1.12,2.14,1.12,3.78c0,1.64-0.15,48.28,0,49.91"/><path id="kvg:089b2-s13" kvg:type="&#12757;a" d="M59.57,16.72c2.58-0.2,22.27-2.98,24.62-3.22c1.96-0.21,3.51,1.14,3.34,2.66c-0.21,1.92-0.91,49.39-0.91,50.62"/><path id="kvg:089b2-s14" kvg:type="&#12752;a" d="M59.03,32.34c5.97-1.09,23.89-3.32,28.04-3.32"/><path id="kvg:089b2-s15" kvg:type="&#12752;a" d="M59.24,48.07c7.49-0.58,20.01-1.82,27.52-2.45"/><path id="kvg:089b2-s16" kvg:type="&#12752;a" d="M58.91,66.26c5.13,0,20.88-2.46,27.52-2.46"/></g><g id="kvg:089b2-g14" kvg:position="bottom"><path id="kvg:089b2-s17" kvg:type="&#12754;" d="M65.74,69.25c0.06,0.65,0.17,1.69-0.12,2.6c-2.37,7.4-8.62,19.4-21.37,24.9"/><path id="kvg:089b2-s18" kvg:type="&#12767;" d="M75.36,66.97c0.43,1.01,0.77,2.2,0.8,3.75c0.07,4.3-0.32,10.56-0.32,15.51c0,8.01,1.92,10.13,10.92,10.13c10.74,0,11.49-1.61,11.49-7.73"/></g></g></g></g></svg>