<svg xmlns="http://www.w3.org/2000/svg" width="109" height="109" viewBox="0 0 109 109"><g xmlns:kvg="http://kanjivg.tagaini.net" id="kvg:StrokePaths_08a02" style="fill:none;stroke:#000000;stroke-width:3;stroke-linecap:round;stroke-linejoin:round;"><g id="kvg:08a02" kvg:element="&#35330;"><g id="kvg:08a02-g1" kvg:element="&#35328;" kvg:position="left" kvg:radical="general"><path id="kvg:08a02-s1" kvg:type="&#12756;" d="M24.3,13.88c2.69,1.52,6.96,6.26,7.63,8.62"/><path id="kvg:08a02-s2" kvg:type="&#12752;" d="M11.37,33.33c1.79,0.59,4.31,0.25,6.13,0.1c7.63-0.61,15-1.93,22.12-2.91c1.48-0.2,3.49-0.39,4.97-0.1"/><path id="kvg:08a02-s3" kvg:type="&#12752;" d="M18.18,46.81c1.25,0.36,2.92,0.27,4.2,0.09C27,46.25,31.86,45.42,36,44.78c1.25-0.2,2.75-0.49,4.01-0.28"/><path id="kvg:08a02-s4" kvg:type="&#12752;" d="M18.8,59.08c1.3,0.4,3.27,0.14,4.59,0.01c4.04-0.38,9.85-1.65,13.58-1.99c1.12-0.1,2.49-0.33,3.6-0.14"/><g id="kvg:08a02-g2" kvg:element="&#21475;"><path id="kvg:08a02-s5" kvg:type="&#12753;" d="M17.26,70.9c0.85,0.85,1.02,1.79,1.24,2.78c0.84,3.65,1.82,9.66,2.7,14.82c0.23,1.32,0.45,2.59,0.66,3.74"/><path id="kvg:08a02-s6" kvg:type="&#12757;b" d="M19.19,72.12c6.61-0.82,12.59-2.11,18.67-3.02c3.52-0.52,4.36,0.48,3.61,3.86c-0.82,3.69-1.67,7.79-3.16,13.75"/><path id="kvg:08a02-s7" kvg:type="&#12752;b" d="M22.67,89.8c4.43-0.45,8.56-1.07,14.09-1.65c1.18-0.12,2.41-0.26,3.71-0.4"/></g></g><g id="kvg:08a02-g3" kvg:element="&#19969;" kvg:position="right" kvg:phon="&#19969;"><g id="kvg:08a02-g4" kvg:element="&#19968;"><path id="kvg:08a02-s8" kvg:type="&#12752;" d="M50.25,27.55c3,0.83,5.95,0.56,8.38,0.28c10.04-1.19,20.29-2.82,30.99-3.49c2.73-0.17,5.21-0.17,7.88,0.57"/></g><g id="kvg:08a02-g5" kvg:element="&#20101;"><path id="kvg:08a02-s9" kvg:type="&#12762;" d="M75.66,28.55c1.14,1.15,1.55,2.58,1.55,4.52c0,14.57,0.03,53.85,0.03,58.81c0,11.24-6.88,1.61-8.13,0.35"/></g></g></g></g></svg>