<svg xmlns="http://www.w3.org/2000/svg" width="109" height="109" viewBox="0 0 109 109"><g xmlns:kvg="http://kanjivg.tagaini.net" id="kvg:StrokePaths_08a03" style="fill:none;stroke:#000000;stroke-width:3;stroke-linecap:round;stroke-linejoin:round;"><g id="kvg:08a03" kvg:element="&#35331;"><g id="kvg:08a03-g1" kvg:element="&#35328;" kvg:position="left" kvg:radical="general"><path id="kvg:08a03-s1" kvg:type="&#12756;" d="M30.38,14.5c2.78,1.9,7.18,7.8,7.87,10.75"/><path id="kvg:08a03-s2" kvg:type="&#12752;" d="M13.87,36.08c0.63,0.23,3.04,0.27,3.67,0.23c7.8-0.42,22.97-4.67,28.64-4.87c1.05-0.04,2.64,0.11,3.16,0.23"/><path id="kvg:08a03-s3" kvg:type="&#12752;" d="M22.23,47.06c0.38,0.12,2.71,0.13,3.1,0.12c3.97-0.14,10.3-2.56,14.21-2.55c0.63,0,3.29,0.06,3.61,0.12"/><path id="kvg:08a03-s4" kvg:type="&#12752;" d="M22.23,59.13c0.43,0.14,3.07,0.15,3.5,0.14c4.49-0.16,11.8-2.5,16.22-2.49c0.72,0,3.72,0.07,4.08,0.13"/><g id="kvg:08a03-g2" kvg:element="&#21475;"><path id="kvg:08a03-s5" kvg:type="&#12753;" d="M21.89,72.41c0.38,0.38,0.82,0.68,0.95,1.17c1.09,4.36,3.48,12.52,4.58,18.92"/><path id="kvg:08a03-s6" kvg:type="&#12757;b" d="M23.28,73.46c9.22-1.96,15.19-3.16,21.73-4.09c1.64-0.23,2.63,1.07,2.4,2.14c-0.98,4.4-1.83,6.95-3.56,14.27"/><path id="kvg:08a03-s7" kvg:type="&#12752;b" d="M28.21,89.21c5.29-0.56,11.52-2.03,18.78-2.89"/></g></g><g id="kvg:08a03-g3" kvg:element="&#21340;" kvg:original="&#12488;" kvg:position="right"><path id="kvg:08a03-s8" kvg:type="&#12753;" d="M67.81,11.63c0.76,0.45,2.36,3.35,2.51,4.25c0.15,0.9-0.1,77.15-0.25,82.75"/><path id="kvg:08a03-s9" kvg:type="&#12756;" d="M72.25,43.25c7.76,3.35,19.95,12.28,22,19"/></g></g></g></svg>