<svg xmlns="http://www.w3.org/2000/svg" width="109" height="109" viewBox="0 0 109 109"><g xmlns:kvg="http://kanjivg.tagaini.net" id="kvg:StrokePaths_08a2d" style="fill:none;stroke:#000000;stroke-width:3;stroke-linecap:round;stroke-linejoin:round;"><g id="kvg:08a2d" kvg:element="&#35373;"><g id="kvg:08a2d-g1" kvg:element="&#35328;" kvg:position="left" kvg:radical="general"><path id="kvg:08a2d-s1" kvg:type="&#12756;" d="M26.05,15c2.25,1.46,5.82,5.98,6.38,8.25"/><path id="kvg:08a2d-s2" kvg:type="&#12752;" d="M13.12,32.83c0.71,0.23,3.4,0.27,4.1,0.23c8.73-0.42,16.53-1.81,22.83-2.62c1.17-0.15,2.95-0.14,3.54-0.02"/><path id="kvg:08a2d-s3" kvg:type="&#12752;" d="M19.18,46.31c1.2,0.31,2.19,0.23,3.47,0.12c3.5-0.29,8.23-1.08,12.5-1.68c1.33-0.19,3.05-0.48,4.38-0.25"/><path id="kvg:08a2d-s4" kvg:type="&#12752;" d="M19.3,58.83c1.24,0.38,2.68,0.4,3.96,0.3c3.73-0.28,8.98-1.32,12.49-1.91c1.35-0.22,2.98-0.5,4.33-0.26"/><g id="kvg:08a2d-g2" kvg:element="&#21475;"><path id="kvg:08a2d-s5" kvg:type="&#12753;" d="M19.01,71.65c0.86,0.86,1.03,1.73,1.24,2.7c0.72,3.29,1.35,8.78,2.05,13.35c0.2,1.28,0.4,2.48,0.61,3.55"/><path id="kvg:08a2d-s6" kvg:type="&#12757;b" d="M21.14,72.69c6.52-0.74,11.48-2.11,17.37-2.93c2.41-0.33,3.77,0.48,3.17,2.97c-0.86,3.58-1.7,7.66-3.24,13.29"/><path id="kvg:08a2d-s7" kvg:type="&#12752;b" d="M23.71,88.75c4.2-0.39,7.35-0.96,12.56-1.46c1.2-0.11,2.6-0.17,3.77-0.12"/></g></g><g id="kvg:08a2d-g3" kvg:element="&#27571;" kvg:position="right"><g id="kvg:08a2d-g4" kvg:element="&#20960;" kvg:position="top"><g id="kvg:08a2d-g5" kvg:element="&#20031;"><path id="kvg:08a2d-s8" kvg:type="&#12754;" d="M55.6,16.86c0.65,0.64,0.98,2.05,0.96,3.06c-0.18,10.44-1.78,19.7-6.7,24.35"/></g><path id="kvg:08a2d-s9" kvg:type="&#12744;b" d="M57.25,17.88c5-0.62,14.21-2.4,15.85-2.97c2.28-0.78,3.53,0.47,3.12,2.62c-0.77,4.07-0.72,7.59-0.72,11.71c0,8.02,1.25,10.07,8.39,10.07c7.08,0,8.39-2.01,8.39-9.1"/></g><g id="kvg:08a2d-g6" kvg:element="&#21448;" kvg:position="bottom"><path id="kvg:08a2d-s10" kvg:type="&#12743;" d="M51.93,52.93c1.44,0.38,2.85,0.53,5.76,0.13c3.93-0.55,15.98-3.17,17.99-3.64c2.81-0.66,4.69,1.59,3.21,4.64C71.59,69.06,61,85.75,45.88,94.17"/><path id="kvg:08a2d-s11" kvg:type="&#12751;" d="M50.29,60.24c5.84-0.12,21.84,18.26,35.68,28.74c2.28,1.72,4.85,3.77,7.46,4.93"/></g></g></g></g></svg>