<svg xmlns="http://www.w3.org/2000/svg" width="109" height="109" viewBox="0 0 109 109"><g xmlns:kvg="http://kanjivg.tagaini.net" id="kvg:StrokePaths_08a3b" style="fill:none;stroke:#000000;stroke-width:3;stroke-linecap:round;stroke-linejoin:round;"><g id="kvg:08a3b" kvg:element="&#35387;"><g id="kvg:08a3b-g1" kvg:element="&#35328;" kvg:position="left" kvg:radical="general"><path id="kvg:08a3b-s1" kvg:type="&#12756;" d="M23.13,15.62c2.78,1.7,7.18,6.98,7.87,9.62"/><path id="kvg:08a3b-s2" kvg:type="&#12752;" d="M10.37,35.08c1.91,0.7,4.7,0.19,6.64,0.02c6.07-0.52,13.48-1.58,18.75-2.14c2.25-0.24,4.32-0.79,6.58-0.29"/><path id="kvg:08a3b-s3" kvg:type="&#12752;" d="M17.73,48.56c1.24,0.39,3.13,0.16,4.41,0.02c3.54-0.39,7.24-0.84,11.49-1.67c1.41-0.28,3.11-0.43,4.52-0.16"/><path id="kvg:08a3b-s4" kvg:type="&#12752;" d="M18.98,61.08c1.12,0.38,2.86,0.14,4.01,0.03c3.58-0.35,8.95-1.32,12.56-2.01c0.83-0.16,2.36-0.06,3.22,0.11"/><g id="kvg:08a3b-g2" kvg:element="&#21475;"><path id="kvg:08a3b-s5" kvg:type="&#12753;" d="M17.64,73.9c0.74,0.65,1.12,1.46,1.15,2.44c0.78,3.63,1.68,9,2.47,13.9c0.17,1.03,0.33,2.04,0.49,3"/><path id="kvg:08a3b-s6" kvg:type="&#12757;b" d="M19.31,74.87c6.43-1.25,11.49-2.38,16.83-3.25c2.68-0.44,4.13,0.11,3.52,3.01c-0.79,3.74-1.31,6.69-2.74,13.08"/><path id="kvg:08a3b-s7" kvg:type="&#12752;b" d="M22.47,90.67c4.78-0.77,7.11-0.89,11.5-1.45c1.3-0.16,2.69-0.33,4.19-0.49"/></g></g><g id="kvg:08a3b-g3" kvg:element="&#20027;" kvg:position="right"><g id="kvg:08a3b-g4" kvg:element="&#20022;" kvg:position="top"><path id="kvg:08a3b-s8" kvg:type="&#12753;a/&#12756;" d="M67.75,15.75c1,1.26,1.25,2.39,1.25,4.67c0,2.83,0,8.96,0,10.61"/></g><g id="kvg:08a3b-g5" kvg:element="&#29579;" kvg:original="&#29577;" kvg:partial="true" kvg:position="bottom"><path id="kvg:08a3b-s9" kvg:type="&#12752;" d="M49.5,34c1.83,1.01,5.31-0.01,7.27-0.27c9.07-1.2,18.55-2.48,28.36-3.87c2.13-0.3,4.31-0.35,6.38,0.4"/><path id="kvg:08a3b-s10" kvg:type="&#12753;a" d="M69.25,32.89c1.3,1.3,1.5,2.89,1.5,5.17c0,7.05,0,42.44,0,49.59"/><path id="kvg:08a3b-s11" kvg:type="&#12752;" d="M52.25,60.33c2.38,0.67,5.05,0.25,6.89,0.02c9.56-1.21,17.99-2.1,23.74-2.61c2.25-0.2,4.67-0.47,6.88,0.17"/><path id="kvg:08a3b-s12" kvg:type="&#12752;" d="M46.25,89.74c3.16,1.1,6.9,0.23,10.13-0.08c11.62-1.12,24.05-2.08,34.37-2.41c2.94-0.09,6.71-0.66,9.5,0.46"/></g></g></g></g></svg>