<svg xmlns="http://www.w3.org/2000/svg" width="109" height="109" viewBox="0 0 109 109"><g xmlns:kvg="http://kanjivg.tagaini.net" id="kvg:StrokePaths_08a41" style="fill:none;stroke:#000000;stroke-width:3;stroke-linecap:round;stroke-linejoin:round;"><g id="kvg:08a41" kvg:element="&#35393;"><g id="kvg:08a41-g1" kvg:element="&#35328;" kvg:position="left" kvg:radical="general"><path id="kvg:08a41-s1" kvg:type="&#12756;" d="M20.38,16c3.48,1.72,9,7.07,9.87,9.75"/><path id="kvg:08a41-s2" kvg:type="&#12752;" d="M11.37,34.68c0.69,0.2,3.29,0.23,3.98,0.2c8.46-0.37,17.9-1.88,24.56-2.51c1.14-0.11,2.86,0.1,3.43,0.2"/><path id="kvg:08a41-s3" kvg:type="&#12752;" d="M17.73,45.56c0.38,0.12,2.71,0.13,3.1,0.12c3.97-0.14,10.42-0.93,14.21-1.55c0.63-0.1,3.29,0.06,3.61,0.12"/><path id="kvg:08a41-s4" kvg:type="&#12752;" d="M15.73,58.83c0.43,0.12,3.07,0.13,3.5,0.12c4.49-0.13,11.8-2.11,16.22-2.09c0.72,0,3.72,0.06,4.08,0.11"/><g id="kvg:08a41-g2" kvg:element="&#21475;"><path id="kvg:08a41-s5" kvg:type="&#12753;" d="M15.64,72.9c0.37,0.39,0.79,0.69,0.91,1.2C17.6,78.57,18.94,87.95,20,94.5"/><path id="kvg:08a41-s6" kvg:type="&#12757;b" d="M16.81,74.45c7.24-1.09,13.47-1.96,20.15-3.07c1.68-0.27,2.69,1.27,2.45,2.53c-1,5.21-1.87,7.13-3.64,15.81"/><path id="kvg:08a41-s7" kvg:type="&#12752;b" d="M19.97,92.05c4.8-0.54,12.1-0.97,18.69-1.81"/></g></g><g id="kvg:08a41-g3" kvg:element="&#21476;" kvg:position="right"><g id="kvg:08a41-g4" kvg:element="&#21313;" kvg:position="top"><path id="kvg:08a41-s8" kvg:type="&#12752;" d="M44.55,43.23c0.84,0.3,3.1,0.57,5.35,0.41c12.88-0.96,29.13-3.93,42.38-3.93c2.26,0,2.82-0.3,4.23,0"/><path id="kvg:08a41-s9" kvg:type="&#12753;a" d="M66.65,13.5c1.43,0.66,2.58,2.93,2.58,4.28c0,22.97-0.29,40.97-0.29,50.83"/></g><g id="kvg:08a41-g5" kvg:element="&#21475;" kvg:position="bottom"><path id="kvg:08a41-s10" kvg:type="&#12753;" d="M51.54,69.39c0.3,0.8,0.65,1.36,0.75,1.97c0.75,4.46,2.41,16.44,3.46,24.89"/><path id="kvg:08a41-s11" kvg:type="&#12757;b" d="M53.06,70.69c8.39-0.89,27.24-3.17,32.96-3.31c2.37-0.06,3.64,1.26,3.43,2.62c-0.78,5.13-2.3,13.37-3.58,20.18"/><path id="kvg:08a41-s12" kvg:type="&#12752;b" d="M56.2,93.47c6.94-0.38,23.89-1.65,32.22-2.13"/></g></g></g></g></svg>