<svg xmlns="http://www.w3.org/2000/svg" width="109" height="109" viewBox="0 0 109 109"><g xmlns:kvg="http://kanjivg.tagaini.net" id="kvg:StrokePaths_08a46" style="fill:none;stroke:#000000;stroke-width:3;stroke-linecap:round;stroke-linejoin:round;"><g id="kvg:08a46" kvg:element="&#35398;"><g id="kvg:08a46-g1" kvg:element="&#35328;" kvg:position="left" kvg:radical="general"><path id="kvg:08a46-s1" kvg:type="&#12756;" d="M21.13,16.5c4.1,2.07,10.6,8.52,11.62,11.75"/><path id="kvg:08a46-s2" kvg:type="&#12752;" d="M12.37,37.08c0.63,0.23,3.04,0.27,3.67,0.23c7.8-0.42,16.97-2.67,22.64-2.87c1.05-0.04,2.64,0.11,3.16,0.23"/><path id="kvg:08a46-s3" kvg:type="&#12752;" d="M16.73,47.56c0.38,0.12,2.71,0.13,3.1,0.12c3.97-0.14,10.3-1.56,14.21-1.55c0.63,0,3.29,0.06,3.61,0.12"/><path id="kvg:08a46-s4" kvg:type="&#12752;" d="M17.23,60.33c0.34,0.12,2.42,0.13,2.77,0.12c3.55-0.13,11.82-1.61,15.31-1.59c0.57,0,2.94,0.06,3.22,0.11"/><g id="kvg:08a46-g2" kvg:element="&#21475;"><path id="kvg:08a46-s5" kvg:type="&#12753;" d="M16.64,74.9c0.35,0.36,0.75,0.65,0.86,1.13c0.99,4.21,2.25,13.04,3.25,19.21"/><path id="kvg:08a46-s6" kvg:type="&#12757;b" d="M18.31,76.7c7.16-1.01,13.32-1.81,19.92-2.83c1.66-0.25,2.66,1.17,2.42,2.33c-0.99,4.8-1.35,6.53-3.1,14.51"/><path id="kvg:08a46-s7" kvg:type="&#12752;b" d="M21.47,93.05c4.8-0.54,11.03-1.55,18.19-1.81"/></g></g><g id="kvg:08a46-g3" kvg:position="right"><g id="kvg:08a46-g4" kvg:element="&#27663;" kvg:position="top"><path id="kvg:08a46-s8" kvg:type="&#12754;" d="M83.73,13.86c0.09,0.36,0.18,0.93-0.17,1.45c-2.1,3.06-11.91,9.09-28.21,14.23"/><path id="kvg:08a46-s9" kvg:type="&#12761;" d="M51.16,27.45c1.09,1.05,2.07,3.07,2.07,5.04c0,1.97-0.17,40.44-0.17,43.51c0,3.07,0.17,3.94,2.4,1.75c2.23-2.19,13.56-10.17,14.93-11.48"/><path id="kvg:08a46-s10" kvg:type="&#12752;" d="M53.53,45.57c0.64,0.21,1.83-0.21,2.47-0.29c14-1.78,22-2.53,33.91-4.49c1.06-0.17,3.72-0.4,4.25-0.3"/><path id="kvg:08a46-s11" kvg:type="&#12738;" d="M70.65,26.57c0.6,0.43,1.78,2.6,1.84,3.43C74,48.75,78,74.5,92.4,89.6c5.22,5.47,4.11-3.07,4.11-5.7"/></g><g id="kvg:08a46-g5" kvg:element="&#19968;" kvg:position="bottom"><path id="kvg:08a46-s12" kvg:type="&#12752;" d="M48.25,90.89c0.94,0.38,2.66,0.49,3.6,0.38c5.98-0.66,21.15-2.52,27.61-2.38c1.56,0.03,2.5,0.18,3.29,0.37"/></g></g></g></g></svg>