<svg xmlns="http://www.w3.org/2000/svg" width="109" height="109" viewBox="0 0 109 109"><g xmlns:kvg="http://kanjivg.tagaini.net" id="kvg:StrokePaths_08a54" style="fill:none;stroke:#000000;stroke-width:3;stroke-linecap:round;stroke-linejoin:round;"><g id="kvg:08a54" kvg:element="&#35412;"><g id="kvg:08a54-g1" kvg:element="&#35328;" kvg:position="left" kvg:radical="general"><path id="kvg:08a54-s1" kvg:type="&#12756;" d="M23.62,14.5c3.29,1.77,8.49,7.25,9.31,10"/><path id="kvg:08a54-s2" kvg:type="&#12752;" d="M11.62,34.33c1.67,0.55,3.92,0.61,5.63,0.39c7.5-0.97,17.07-2.52,22.31-3.28c1.17-0.17,2.95-0.14,3.54-0.02"/><path id="kvg:08a54-s3" kvg:type="&#12752;" d="M19.68,46.81c1.14,0.34,2.68,0.23,3.83,0.01c4.37-0.83,8.32-1.45,11.24-2.05c1.31-0.27,2.93-0.52,4.26-0.28"/><path id="kvg:08a54-s4" kvg:type="&#12752;" d="M19.8,58.83c1.08,0.33,2.71,0.22,3.84,0.08c4.24-0.54,8.7-1.19,11.27-1.69c1.23-0.24,2.69-0.48,3.93-0.25"/><g id="kvg:08a54-g2" kvg:element="&#21475;"><path id="kvg:08a54-s5" kvg:type="&#12753;" d="M16.51,73.65c0.85,0.85,1.37,2.19,1.61,3.32c0.71,3.31,1.42,8.14,2.32,12.99c0.34,1.82,0.65,3.55,0.92,5.03"/><path id="kvg:08a54-s6" kvg:type="&#12757;b" d="M18.69,74.62c7.88-1.52,11.82-2.36,17.09-3.15c3.15-0.47,5.39-0.48,4.52,3.32c-0.85,3.75-1.71,7.5-3.25,13.67"/><path id="kvg:08a54-s7" kvg:type="&#12752;b" d="M21.92,91.3c4.43-0.45,7.81-0.82,13.35-1.4c1.18-0.12,2.41-0.01,3.71-0.15"/></g></g><g id="kvg:08a54-g3" kvg:element="&#21484;" kvg:position="right" kvg:phon="&#21484;"><g id="kvg:08a54-g4" kvg:element="&#20992;" kvg:position="top"><path id="kvg:08a54-s8" kvg:type="&#12742;" d="M51.56,25.55c2.69,0.7,5.81,0.55,7.82,0.3c9.42-1.16,23.19-3.3,27.72-3.63c3.36-0.25,5.06,1.15,4.5,4.72c-0.9,5.69-4.81,18.65-9.88,26.18c-4.35,6.48-7.08-0.88-7.83-1.76"/><path id="kvg:08a54-s9" kvg:type="&#12754;" d="M69.04,28.11c0.06,0.72,0,1.64-0.38,2.66C65.5,39.5,60.21,50.41,47.6,59.65"/></g><g id="kvg:08a54-g5" kvg:element="&#21475;" kvg:position="bottom"><path id="kvg:08a54-s10" kvg:type="&#12753;" d="M51.64,67.44c0.93,0.99,1.09,1.78,1.36,3.04c0.9,4.16,1.94,12.16,2.63,18.3c0.21,1.87,0.4,3.58,0.58,4.97"/><path id="kvg:08a54-s11" kvg:type="&#12757;b" d="M53.87,68.73c8.28-1.25,24.22-3.15,30.9-3.46c3.11-0.14,4.98,1.48,4.14,4.8c-1.11,4.39-2.91,9.68-4.75,16.54"/><path id="kvg:08a54-s12" kvg:type="&#12752;b" d="M56.87,89.41c5.41-0.27,16.57-0.99,25.63-1.51c1.65-0.09,3.23-0.17,4.69-0.23"/></g></g></g></g></svg>