<svg xmlns="http://www.w3.org/2000/svg" width="109" height="109" viewBox="0 0 109 109"><g xmlns:kvg="http://kanjivg.tagaini.net" id="kvg:StrokePaths_08a52" style="fill:none;stroke:#000000;stroke-width:3;stroke-linecap:round;stroke-linejoin:round;"><g id="kvg:08a52" kvg:element="&#35410;"><g id="kvg:08a52-g1" kvg:element="&#35328;" kvg:position="left" kvg:radical="general"><path id="kvg:08a52-s1" kvg:type="&#12756;" d="M25.88,16c3.22,1.81,8.32,7.44,9.12,10.25"/><path id="kvg:08a52-s2" kvg:type="&#12752;" d="M12.87,35.58c0.63,0.23,3.04,0.27,3.67,0.23c7.8-0.42,20.47-3.17,26.14-3.37c1.05-0.04,2.64,0.11,3.16,0.23"/><path id="kvg:08a52-s3" kvg:type="&#12752;" d="M19.73,47.56c0.38,0.12,2.71,0.13,3.1,0.12c3.97-0.14,10.42-1.68,15.21-2.05c0.63-0.05,3.29,0.06,3.61,0.12"/><path id="kvg:08a52-s4" kvg:type="&#12752;" d="M19.73,60.83c0.34,0.12,2.42,0.13,2.77,0.12c3.55-0.13,11.5-1.7,15.81-2.09c0.56-0.05,2.94,0.06,3.22,0.11"/><g id="kvg:08a52-g2" kvg:element="&#21475;"><path id="kvg:08a52-s5" kvg:type="&#12753;" d="M19.14,73.4c0.35,0.36,0.75,0.65,0.86,1.13c0.99,4.21,2.75,15.04,3.75,21.21"/><path id="kvg:08a52-s6" kvg:type="&#12757;b" d="M21.31,75.87c6.44-0.89,13.48-1.6,19.42-2.5c1.49-0.22,2.39,1.04,2.18,2.06c-0.89,4.25-1.16,8.72-2.74,15.78"/><path id="kvg:08a52-s7" kvg:type="&#12752;b" d="M24.47,93.55c4.8-0.54,10.6-0.97,17.19-1.81"/></g></g><g id="kvg:08a52-g3" kvg:element="&#21488;" kvg:position="right"><g id="kvg:08a52-g4" kvg:element="&#21430;" kvg:position="top"><path id="kvg:08a52-s8" kvg:type="&#12764;" d="M70.66,12.67c0.84,1.85,0.41,3.65-0.5,5.51c-5.9,12.07-9.9,20.32-16.16,29.23c-2.66,3.78-1.24,4.54,2.01,3.69c9-2.35,20.25-5.1,34.67-9.2"/><path id="kvg:08a52-s9" kvg:type="&#12756;" d="M79.42,29.33c5.94,3.99,15.35,16.42,16.83,22.63"/></g><g id="kvg:08a52-g5" kvg:element="&#21475;" kvg:position="bottom"><path id="kvg:08a52-s10" kvg:type="&#12753;" d="M55.62,64.71c0.42,0.42,0.85,0.76,1.04,1.28c1.46,4.11,2.71,21.46,3.71,28.85"/><path id="kvg:08a52-s11" kvg:type="&#12757;b" d="M57.59,66.43c12.91-2.18,22.03-3.35,29.08-4.17c2.41-0.28,3.83,0.74,3.51,3.11c-0.95,6.97-2.65,17.31-4.27,24.53"/><path id="kvg:08a52-s12" kvg:type="&#12752;b" d="M61.49,92.74C72.25,91.75,75.75,91,88.8,90.2"/></g></g></g></g></svg>