<svg xmlns="http://www.w3.org/2000/svg" width="109" height="109" viewBox="0 0 109 109"><g xmlns:kvg="http://kanjivg.tagaini.net" id="kvg:StrokePaths_08a82" style="fill:none;stroke:#000000;stroke-width:3;stroke-linecap:round;stroke-linejoin:round;"><g id="kvg:08a82" kvg:element="&#35458;"><g id="kvg:08a82-g1" kvg:element="&#35328;" kvg:position="left" kvg:radical="general"><path id="kvg:08a82-s1" kvg:type="&#12756;" d="M20.3,16.5c3.13,1.7,8.09,6.99,8.88,9.64"/><path id="kvg:08a82-s2" kvg:type="&#12752;" d="M9.12,33.89c0.71,0.24,3.4,0.28,4.1,0.24c8.73-0.44,17.48-2.79,23.83-3c1.18-0.04,2.95,0.12,3.54,0.24"/><path id="kvg:08a82-s3" kvg:type="&#12752;" d="M16.18,45.94c0.43,0.13,3.04,0.14,3.47,0.13c4.44-0.14,10.36-1.52,14.84-2.17c0.7-0.1,3.68,0.06,4.04,0.12"/><path id="kvg:08a82-s4" kvg:type="&#12752;" d="M15.3,60.25c0.38,0.12,2.71,0.14,3.1,0.12c3.97-0.14,12.11-2.37,16.33-2.69c0.63-0.05,3.29,0.06,3.6,0.12"/><g id="kvg:08a82-g2" kvg:element="&#21475;"><path id="kvg:08a82-s5" kvg:type="&#12753;" d="M15.51,73.39c0.37,0.38,0.78,1.21,0.9,1.71c1.04,4.4,2.84,13.7,3.89,20.15"/><path id="kvg:08a82-s6" kvg:type="&#12757;b" d="M16.36,75.42c6.77-0.93,13.54-2.72,19.78-3.66c1.57-0.23,2.52,1.08,2.29,2.15c-0.93,4.44-1.28,9.11-2.93,16.5"/><path id="kvg:08a82-s7" kvg:type="&#12752;b" d="M21.1,92.88c5.05-0.57,10.04-1.02,16.97-1.89"/></g></g><g id="kvg:08a82-g3" kvg:element="&#20806;" kvg:position="right"><g id="kvg:08a82-g4" kvg:element="&#20799;" kvg:part="1" kvg:position="left"><g id="kvg:08a82-g5" kvg:element="&#20031;"><path id="kvg:08a82-s8" kvg:type="&#12754;" d="M57.54,18.91c0.71,1.56,1.39,3.51,1.39,4.72c0,7.64,0.06,21.73,0.06,30.15c0,20.84-7.27,31.87-16.59,39.4"/></g><g id="kvg:08a82-g6" kvg:element="&#20907;"><g id="kvg:08a82-g7" kvg:position="top"><path id="kvg:08a82-s9" kvg:type="&#12756;" d="M43.91,38.06c3.42,1.69,8.84,6.94,9.7,9.57"/></g><g id="kvg:08a82-g8" kvg:position="bottom"><path id="kvg:08a82-s10" kvg:type="&#12736;" d="M42.61,67.79c0.95,0.45,1.9,0.59,2.62,0.09c1-0.7,8.17-6.48,12.08-9.85"/></g></g></g><g id="kvg:08a82-g9" kvg:position="right"><g id="kvg:08a82-g10" kvg:element="&#20799;" kvg:part="2"><path id="kvg:08a82-s11" kvg:type="&#12767;" d="M70.28,14.69c1.01,1.08,1.51,2.86,1.55,4.53c0.15,7.44-0.02,57.03-0.02,62.09c0,11.81,3.91,10.93,12.68,10.93c10.72,0,12.02-1.76,12.02-8.8"/></g><path id="kvg:08a82-s12" kvg:type="&#12754;" d="M90.14,30.75c0.04,0.36,0.09,0.94-0.08,1.46c-1.04,3.07-6.98,9.81-15.11,13.94"/><path id="kvg:08a82-s13" kvg:type="&#12756;" d="M75.2,50.77c6.42,2.62,16.59,10.76,18.2,14.84"/></g></g></g></g></svg>