<svg xmlns="http://www.w3.org/2000/svg" width="109" height="109" viewBox="0 0 109 109"><g xmlns:kvg="http://kanjivg.tagaini.net" id="kvg:StrokePaths_08aa4" style="fill:none;stroke:#000000;stroke-width:3;stroke-linecap:round;stroke-linejoin:round;"><g id="kvg:08aa4" kvg:element="&#35492;"><g id="kvg:08aa4-g1" kvg:element="&#35328;" kvg:position="left" kvg:radical="general"><path id="kvg:08aa4-s1" kvg:type="&#12756;" d="M22.75,11.5c3.15,1.85,8.14,7.62,8.93,10.5"/><path id="kvg:08aa4-s2" kvg:type="&#12752;" d="M11.62,32.08c0.71,0.23,3.4,0.31,4.1,0.23c9.15-1.06,17.03-2.44,23.83-3.37c1.17-0.16,2.95-0.14,3.54-0.02"/><path id="kvg:08aa4-s3" kvg:type="&#12752;" d="M15.68,45.06c0.95,0.19,1.95,0.31,3.47,0.12c5.22-0.66,10.17-1.3,14.59-2.3c1.14-0.26,2.64-0.38,4.04-0.13"/><path id="kvg:08aa4-s4" kvg:type="&#12752;" d="M16.3,58.08c1.2,0.17,2.21,0.22,3.1,0.12c5.11-0.58,11.23-1.7,15.33-2.34c0.63-0.1,2.54-0.19,2.85-0.14"/><g id="kvg:08aa4-g2" kvg:element="&#21475;"><path id="kvg:08aa4-s5" kvg:type="&#12753;" d="M15.26,71.9c0.9,0.84,1.21,2.33,1.36,3.47c0.75,5.88,1.23,9.84,1.8,15.34c0.14,1.39,0.29,2.75,0.44,4.04"/><path id="kvg:08aa4-s6" kvg:type="&#12757;b" d="M17.19,73.62c6.43-0.79,11.37-1.79,17.19-2.69c3.34-0.51,4.93-0.13,4.18,3.43c-0.85,4.04-2.06,8.64-3.25,15.11"/><path id="kvg:08aa4-s7" kvg:type="&#12752;b" d="M19.92,92.05c4.52-0.46,8.7-0.83,14.61-1.44c1.12-0.11,2.27-0.24,3.44-0.37"/></g></g><g id="kvg:08aa4-g3" kvg:element="&#21577;" kvg:position="right" kvg:phon="&#21577;"><g id="kvg:08aa4-g4" kvg:position="top"><g id="kvg:08aa4-g5" kvg:element="&#21475;"><path id="kvg:08aa4-s8" kvg:type="&#12753;" d="M57.96,16.45c0.92,0.92,1.36,1.85,1.49,2.9c0.67,5.27,1.48,9.76,2.16,14.91c0.2,1.51,0.38,2.94,0.54,4.2"/><path id="kvg:08aa4-s9" kvg:type="&#12757;b" d="M60.31,17.65c8.06-1.22,18.66-2.18,24.19-2.67c2.78-0.25,4.97,0.73,4.23,3.8c-0.99,4.12-2.59,8.41-4.01,14.66"/><path id="kvg:08aa4-s10" kvg:type="&#12752;b" d="M62.5,35.9c4.11-0.46,14.02-1.11,21.26-1.33c1.58-0.05,3.05-0.08,4.32-0.08"/></g><path id="kvg:08aa4-s11" kvg:type="&#12741;" d="M50.75,32.49c0.94,0.95,1.41,2.15,1.42,3.63c0.04,3.13,0.04,10.38-0.02,14.71c-0.03,1.93,0.6,2.49,2.6,2.14c6.99-1.22,24.33-3.39,29.26-3.74c3.11-0.22,4.11,0.53,3.14,4.17c-0.94,3.5-2.15,6.85-2.78,10.85"/></g><g id="kvg:08aa4-g6" kvg:position="bottom"><path id="kvg:08aa4-s12" kvg:type="&#12752;" d="M43.25,67.7c2.38,0.68,5.33,0.49,7.75,0.31c14.84-1.13,29.05-2.54,41-2.92c2.37-0.08,4.69-0.17,7,0.46"/><g id="kvg:08aa4-g7" kvg:element="&#20843;"><g id="kvg:08aa4-g8" kvg:position="left"><path id="kvg:08aa4-s13" kvg:type="&#12754;" d="M61.96,76.64c0.04,0.86-0.17,2.08-0.71,2.86c-2.75,4-7.87,9.62-15.73,16.46"/></g><g id="kvg:08aa4-g9" kvg:position="right"><path id="kvg:08aa4-s14" kvg:type="&#12756;/&#12751;" d="M80.07,75.58c5.5,3.24,14.71,13.84,16.09,18.88"/></g></g></g></g></g></g></svg>