<svg xmlns="http://www.w3.org/2000/svg" width="109" height="109" viewBox="0 0 109 109"><g xmlns:kvg="http://kanjivg.tagaini.net" id="kvg:StrokePaths_08adc" style="fill:none;stroke:#000000;stroke-width:3;stroke-linecap:round;stroke-linejoin:round;"><g id="kvg:08adc" kvg:element="&#35548;"><g id="kvg:08adc-g1" kvg:element="&#35328;" kvg:position="left" kvg:radical="general"><path id="kvg:08adc-s1" kvg:type="&#12756;" d="M22.88,16.75c2.25,1.5,5.81,6.17,6.37,8.5"/><path id="kvg:08adc-s2" kvg:type="&#12752;" d="M10.37,35.08c0.63,0.23,3.04,0.27,3.67,0.23c7.8-0.42,15.47-2.67,21.14-2.87c1.05-0.04,2.64,0.11,3.16,0.23"/><path id="kvg:08adc-s3" kvg:type="&#12752;" d="M16.73,48.06c0.38,0.12,2.71,0.13,3.1,0.12c3.97-0.14,9.8-2.06,13.71-2.05c0.63,0,3.29,0.06,3.61,0.12"/><path id="kvg:08adc-s4" kvg:type="&#12752;" d="M17.73,60.33c0.34,0.12,2.42,0.13,2.77,0.12c3.55-0.13,9.32-2.11,12.81-2.09c0.57,0,2.94,0.06,3.22,0.11"/><g id="kvg:08adc-g2" kvg:element="&#21475;"><path id="kvg:08adc-s5" kvg:type="&#12753;" d="M15.64,72.4c0.35,0.36,0.75,0.65,0.86,1.13c0.99,4.21,2.25,13.04,3.25,19.21"/><path id="kvg:08adc-s6" kvg:type="&#12757;b" d="M16.81,73.87c6.44-0.89,13.48-2.1,19.42-3c1.49-0.22,2.39,1.04,2.18,2.06c-0.89,4.25-1.66,7.22-3.24,14.28"/><path id="kvg:08adc-s7" kvg:type="&#12752;b" d="M20.97,90.05c4.8-0.54,9.1-1.47,15.69-2.31"/></g></g><g id="kvg:08adc-g3" kvg:position="right"><g id="kvg:08adc-g4" kvg:element="&#19990;" kvg:position="top"><g id="kvg:08adc-g5" kvg:element="&#24319;"><g id="kvg:08adc-g6" kvg:element="&#21313;"><g id="kvg:08adc-g7" kvg:element="&#19968;"><path id="kvg:08adc-s8" kvg:type="&#12752;" d="M41.25,29.88c0.94,0.34,2.66,0.38,3.6,0.34c7.23-0.31,35.4-3.96,46.61-4.59c1.56-0.09,2.5,0.16,3.29,0.33"/></g><path id="kvg:08adc-s9" kvg:type="&#12753;" d="M63.89,13c0.67,0.31,1.08,1.41,1.21,2.03s1.43,23.7,1.29,27.61"/></g><path id="kvg:08adc-s10" kvg:type="&#12753;" d="M79.55,11.25c0.67,0.31,1.08,1.41,1.21,2.03c0.13,0.63-1.79,19.35-2.18,25.92"/><path id="kvg:08adc-s11" kvg:type="&#12752;" d="M66.79,40.64c2.48,0,12.84-1.25,14.24-1.25"/></g><path id="kvg:08adc-s12" kvg:type="&#12759;" d="M50,19.07c0.67,0.31,1.08,1.41,1.21,2.03s0.5,18.83,0.02,26.02c-0.15,2.35-0.24,4.12,2.32,3.91C64.42,50.16,75.25,49,85.97,48.7c2.02-0.06,3.71,0.13,4.49,0.28"/></g><g id="kvg:08adc-g8" kvg:element="&#26408;" kvg:position="bottom"><path id="kvg:08adc-s13" kvg:type="&#12752;" d="M42.49,65.65c1.36,0.45,2.91,0.59,4.47,0.45c7.96-0.73,31.58-2.28,43.62-3.14c1.55-0.11,2.53,0.08,4.08,0.39"/><path id="kvg:08adc-s14" kvg:type="&#12753;" d="M66.32,54.5c0.72,0.29,1.29,1.29,1.29,1.88c0,6.09,0,38.49-0.14,42.12"/><path id="kvg:08adc-s15" kvg:type="&#12754;" d="M65.1,64.73c-3.59,7.68-13.2,19.42-20.66,23.77"/><path id="kvg:08adc-s16" kvg:type="&#12751;" d="M67.18,65.09c3.78,3.14,21.54,18.91,25.65,22c1.39,1.05,2.58,1.5,3.98,1.8"/></g></g></g></g></svg>