<svg xmlns="http://www.w3.org/2000/svg" width="109" height="109" viewBox="0 0 109 109"><g xmlns:kvg="http://kanjivg.tagaini.net" id="kvg:StrokePaths_08b07" style="fill:none;stroke:#000000;stroke-width:3;stroke-linecap:round;stroke-linejoin:round;"><g id="kvg:08b07" kvg:element="&#35591;"><g id="kvg:08b07-g1" kvg:position="top"><g id="kvg:08b07-g2" kvg:element="&#23424;"><path id="kvg:08b07-s1" kvg:type="&#12753;a" d="M51.45,8.75c1.24,0.32,2.01,2.15,1.98,3.08c-0.09,2.92-0.09,5.02-0.09,7.68"/><g id="kvg:08b07-g3" kvg:element="&#20886;"><path id="kvg:08b07-s2" kvg:type="&#12756;" d="M20.34,20.47c0,3.41-4.58,13.71-6.06,15.98"/><path id="kvg:08b07-s3" kvg:type="&#12758;b" d="M20.76,22.37c5.99-0.62,57.8-3.5,65.33-3.5s5.16,5.63-0.44,8.95"/></g></g><g id="kvg:08b07-g4" kvg:element="&#19977;" kvg:part="1"><g id="kvg:08b07-g5" kvg:element="&#19968;"><path id="kvg:08b07-s4" kvg:type="&#12752;" d="M28,31.93c1.17,0.26,3.33,0.29,4.5,0.26C39,32,64.25,29.75,75.14,29.22c1.95-0.09,3.13,0.12,4.11,0.25"/></g></g><path id="kvg:08b07-s5" kvg:type="&#12753;" d="M40.31,24.68c0.76,0.36,2.36,2.67,2.51,3.38c0.15,0.71-0.07,12.19,0.18,18.49"/><path id="kvg:08b07-s6" kvg:type="&#12753;" d="M65.81,23.59c0.76,0.36,1.64,2.67,1.51,3.38c-0.75,4.38-0.82,9.92-1.82,18.08"/><g id="kvg:08b07-g6" kvg:element="&#19977;" kvg:part="2"><g id="kvg:08b07-g7" kvg:element="&#19968;"><path id="kvg:08b07-s7" kvg:type="&#12752;" d="M28,38.73c1.33,0.38,3.76,0.41,5.08,0.38c9.88-0.2,28.93-2.31,41.53-2.31c2.21,0,3.54,0.18,4.64,0.37"/></g><g id="kvg:08b07-g8" kvg:element="&#19968;"><path id="kvg:08b07-s8" kvg:type="&#12752;" d="M16,47.66c1.79,0.3,5.08,0.44,6.84,0.3c7.23-0.57,46.68-2.79,63.66-2.79c2.98,0,4.76,0.14,6.25,0.29"/></g></g><g id="kvg:08b07-g9" kvg:element="&#20843;"><g id="kvg:08b07-g10" kvg:position="left"><path id="kvg:08b07-s9" kvg:type="&#12754;" d="M40.2,47.65c0.49,0.69,0.42,1.48-0.19,2.33C33.75,58.75,20.81,68.34,13,70.75"/></g><path id="kvg:08b07-s10" kvg:type="&#12751;" d="M66,45.95c7.81,7.04,15.91,15.54,21.62,18.93c2.2,1.31,2.99,2.01,5.13,2.43"/></g></g><g id="kvg:08b07-g11" kvg:element="&#35328;" kvg:position="bottom" kvg:radical="general"><path id="kvg:08b07-s11" kvg:type="&#12756;" d="M49.25,51.25c2.73,1.24,7.07,5.08,7.75,7"/><path id="kvg:08b07-s12" kvg:type="&#12752;" d="M33.75,63.4c1.14,0.44,3.23,0.53,4.37,0.44c7.63-0.59,21.45-1.95,30.88-2.12c1.9-0.03,3.04,0.21,3.99,0.43"/><path id="kvg:08b07-s13" kvg:type="&#12752;" d="M38.38,70.65c0.6,0.23,2.7,0.25,3.3,0.23c6.25-0.26,20.07-1.38,23.72-1.6c1-0.06,3.6,0.11,4.1,0.22"/><path id="kvg:08b07-s14" kvg:type="&#12752;" d="M37.88,78.15c0.6,0.23,2.7,0.25,3.3,0.23c6.25-0.26,19.82-2.13,24.22-2.1c1,0,3.6,0.11,4.1,0.22"/><g id="kvg:08b07-g12" kvg:element="&#21475;"><path id="kvg:08b07-s15" kvg:type="&#12753;" d="M36.75,85.25c0.52,0.41,1.18,0.72,1.28,1.27C39,92,39,96.5,39.71,100.75"/><path id="kvg:08b07-s16" kvg:type="&#12757;b" d="M37.98,86.52c11.27-1.52,21.27-2.02,30.1-3.03c2.21-0.25,3.55,1.17,3.24,2.32C70,90.59,69,92.5,68.5,94.47"/><path id="kvg:08b07-s17" kvg:type="&#12752;b" d="M39.45,97.66C46.59,97.05,60,96,71.22,95.57"/></g></g></g></g></svg>