<svg xmlns="http://www.w3.org/2000/svg" width="109" height="109" viewBox="0 0 109 109"><g xmlns:kvg="http://kanjivg.tagaini.net" id="kvg:StrokePaths_08b00" style="fill:none;stroke:#000000;stroke-width:3;stroke-linecap:round;stroke-linejoin:round;"><g id="kvg:08b00" kvg:element="&#35584;"><g id="kvg:08b00-g1" kvg:element="&#35328;" kvg:position="left" kvg:radical="general"><path id="kvg:08b00-s1" kvg:type="&#12756;" d="M20.5,15c2.89,1.54,7.46,6.35,8.18,8.75"/><path id="kvg:08b00-s2" kvg:type="&#12752;" d="M10.62,33.91c1.98,0.6,4.33,1.08,6.39,0.79c6.86-0.95,12.21-2.27,17.12-2.71c1.54-0.14,3.18-0.17,4.71,0.11"/><path id="kvg:08b00-s3" kvg:type="&#12752;" d="M15.18,46.81c1.35,0.38,3.08,0.18,4.45-0.02c4.28-0.62,8.46-1.44,12.37-2.02c1.34-0.2,2.92-0.5,4.27-0.27"/><path id="kvg:08b00-s4" kvg:type="&#12752;" d="M15.3,59.33c1.22,0.37,2.7,0.4,3.97,0.32c3.78-0.24,9.8-1.65,13.99-2.36c1.27-0.21,2.54-0.56,3.82-0.33"/><g id="kvg:08b00-g2" kvg:element="&#21475;"><path id="kvg:08b00-s5" kvg:type="&#12753;" d="M14.51,72.51c0.78,0.71,1,1.77,1.2,2.75c0.68,3.29,1.28,8.75,1.93,13.47c0.23,1.64,0.46,3.18,0.71,4.52"/><path id="kvg:08b00-s6" kvg:type="&#12757;b" d="M16.87,74.12c6.89-0.98,10.47-1.71,15.49-2.44c2.8-0.41,4.96-0.51,4.29,2.92c-0.7,3.52-1.19,7.5-2.68,13.33"/><path id="kvg:08b00-s7" kvg:type="&#12752;b" d="M19.25,90.35c3.93-0.46,7.81-0.6,12.65-1.19c1.23-0.15,2.47-0.25,3.9-0.25"/></g></g><g id="kvg:08b00-g3" kvg:element="&#26576;" kvg:position="right" kvg:phon="&#26576;"><g id="kvg:08b00-g4" kvg:element="&#29976;" kvg:position="top"><g id="kvg:08b00-g5" kvg:element="&#24319;" kvg:part="1"><g id="kvg:08b00-g6" kvg:element="&#21313;"><path id="kvg:08b00-s8" kvg:type="&#12752;" d="M45.18,26.61c2.54,0.63,4.74,0.93,7.33,0.69c8.83-0.83,22.37-2.79,32.36-3.91c2.53-0.28,4.94-0.63,7.44-0.01"/><path id="kvg:08b00-s9" kvg:type="&#12753;" d="M55.3,15c0.9,0.9,1.2,2,1.2,3.62c0,5.03,0.09,19.04,0.09,29.61c0,2.24-0.05,3.94-0.07,4.75"/></g><path id="kvg:08b00-s10" kvg:type="&#12753;" d="M77.17,11.58c1,1,1.25,2.29,1.25,4.04c0,4.8,0.03,21.25-0.02,30.45c-0.01,2.28-0.02,4.07-0.02,5.05"/></g><path id="kvg:08b00-s11" kvg:type="&#12752;a" d="M57.81,38.67c2.6-0.35,17.4-2.12,19.23-2.12"/><g id="kvg:08b00-g7" kvg:element="&#24319;" kvg:part="2"><path id="kvg:08b00-s12" kvg:type="&#12752;a" d="M57.56,50.75c5.19-0.38,15.91-1.57,19.58-1.75"/></g></g><g id="kvg:08b00-g8" kvg:element="&#26408;" kvg:position="bottom"><path id="kvg:08b00-s13" kvg:type="&#12752;" d="M43.83,62.92c2.81,0.85,5.45,0.72,8.3,0.32c9.62-1.34,25.27-2.24,36.24-2.62c2.49-0.09,4.63,0.02,7.08,0.47"/><path id="kvg:08b00-s14" kvg:type="&#12753;" d="M66.64,53.8c0.97,0.97,1.33,2.45,1.33,4.2c0,9.1,0.06,21.82-0.01,33.49c-0.02,2.64-0.03,5.22-0.03,7.7"/><path id="kvg:08b00-s15" kvg:type="&#12754;" d="M66.21,62.8c0,1.7-0.97,2.96-2.06,4.7C58.28,76.9,51.84,84.24,41.5,90.37"/><path id="kvg:08b00-s16" kvg:type="&#12751;" d="M68.61,63.79c3.27,3.71,13.17,13.09,19.64,19.34c2,1.93,4.41,4.12,6.75,5.65"/></g></g></g></g></svg>