<svg xmlns="http://www.w3.org/2000/svg" width="109" height="109" viewBox="0 0 109 109"><g xmlns:kvg="http://kanjivg.tagaini.net" id="kvg:StrokePaths_08b17" style="fill:none;stroke:#000000;stroke-width:3;stroke-linecap:round;stroke-linejoin:round;"><g id="kvg:08b17" kvg:element="&#35607;"><g id="kvg:08b17-g1" kvg:element="&#35328;" kvg:position="left" kvg:radical="general"><path id="kvg:08b17-s1" kvg:type="&#12756;" d="M18.8,13.5c3.66,2.16,9.46,8.89,10.38,12.25"/><path id="kvg:08b17-s2" kvg:type="&#12752;" d="M8.62,34.58c0.71,0.23,3.4,0.27,4.1,0.23c8.73-0.42,17.03-2.06,23.33-3.37c1.16-0.24,2.95,0.11,3.54,0.23"/><path id="kvg:08b17-s3" kvg:type="&#12752;" d="M15.18,46.56c0.43,0.12,3.04,0.13,3.47,0.12c4.44-0.14,8.86-1.43,13.34-2.05c0.7-0.1,3.68,0.06,4.04,0.12"/><path id="kvg:08b17-s4" kvg:type="&#12752;" d="M14.3,59.83c0.38,0.12,2.71,0.13,3.1,0.12c3.97-0.13,10.36-1.2,14.83-2.09c0.62-0.12,3.29,0.06,3.6,0.11"/><g id="kvg:08b17-g2" kvg:element="&#21475;"><path id="kvg:08b17-s5" kvg:type="&#12753;" d="M14.01,73.24c0.35,0.33,0.74,1.06,0.85,1.5c0.99,3.86,1.69,13.35,2.68,19.02"/><path id="kvg:08b17-s6" kvg:type="&#12757;b" d="M15.29,74.58c6.41-0.82,12.82-1.89,18.73-2.71c1.48-0.2,2.38,0.95,2.17,1.89c-0.88,3.9-1.21,8-2.78,14.49"/><path id="kvg:08b17-s7" kvg:type="&#12752;b" d="M17.83,90.85c4.78-0.5,10.5-0.89,17.07-1.66"/></g></g><g id="kvg:08b17-g3" kvg:element="&#26049;" kvg:position="right"><g id="kvg:08b17-g4" kvg:position="top"><g id="kvg:08b17-g5" kvg:element="&#31435;" kvg:partial="true"><g id="kvg:08b17-g6" kvg:element="&#20128;" kvg:position="top"><path id="kvg:08b17-s8" kvg:type="&#12753;a" d="M68.95,11.75c0.46,0.6,1.15,2,1.15,3.49c0,3.54,0,4.01,0,6.63"/><path id="kvg:08b17-s9" kvg:type="&#12752;" d="M48.98,23.07c1.19,0.43,3.58,0.5,4.76,0.43c6.7-0.37,23.15-1.68,33.28-2c1.98-0.06,3.17,0.21,4.16,0.43"/></g><g id="kvg:08b17-g7" kvg:position="bottom"><path id="kvg:08b17-s10" kvg:type="&#12756;" d="M55.52,28.33c2.46,3.36,4.03,7.4,4.25,9.61"/><path id="kvg:08b17-s11" kvg:type="&#12754;" d="M83.54,25.09c0.22,1.13,0.41,2.06,0.24,2.36c-1.72,3.06-4.67,8.86-5.91,10.73"/></g></g><g id="kvg:08b17-g8" kvg:element="&#20886;"><path id="kvg:08b17-s12" kvg:type="&#12756;" d="M45.77,39.73c-0.14,3.36-3.56,12.13-4.77,14.13"/><path id="kvg:08b17-s13" kvg:type="&#12758;b" d="M45.61,43.29c7.25-0.89,31-3.61,45.12-3.98c8.63-0.23,2.78,5.95-1,8.35"/></g></g><g id="kvg:08b17-g9" kvg:element="&#26041;" kvg:position="bottom"><g id="kvg:08b17-g10" kvg:element="&#20128;" kvg:position="top"><path id="kvg:08b17-s14" kvg:type="&#12753;a" d="M66.81,46.62c0.68,0.48,1.81,2.33,1.81,3.29c0,3.51-0.21,4.13-0.09,7.1"/><path id="kvg:08b17-s15" kvg:type="&#12752;" d="M46.05,59.88c1.22,0.09,4.02,0.6,5.21,0.47c9.61-1,25.65-2.73,38.71-3.42c2.02-0.11,3.05,0.04,4.55,0.61"/></g><g id="kvg:08b17-g11" kvg:position="bottom"><path id="kvg:08b17-s16" kvg:type="&#12742;a" d="M66.57,66C70,68.25,80,71.25,84.02,71.87c1.81,0.28,2.34,2.17,1.72,3.67C83.5,81,78.53,89.28,73.43,94.87c-4.68,5.13-6.93,0.38-7.85-2.65"/><path id="kvg:08b17-s17" kvg:type="&#12754;" d="M67.45,61.2c0.41,0.87,0.33,1.85-0.16,2.83c-3.33,6.75-12.98,20.37-27.96,26.75"/></g></g></g></g></g></svg>