<svg xmlns="http://www.w3.org/2000/svg" width="109" height="109" viewBox="0 0 109 109"><g xmlns:kvg="http://kanjivg.tagaini.net" id="kvg:StrokePaths_08b5b" style="fill:none;stroke:#000000;stroke-width:3;stroke-linecap:round;stroke-linejoin:round;"><g id="kvg:08b5b" kvg:element="&#35675;"><g id="kvg:08b5b-g1" kvg:element="&#35328;" kvg:position="left" kvg:radical="tradit"><path id="kvg:08b5b-s1" kvg:type="&#12756;" d="M19.38,13c3.57,1.99,9.23,8.16,10.12,11.25"/><path id="kvg:08b5b-s2" kvg:type="&#12752;" d="M9.87,33.08c0.66,0.23,3.16,0.27,3.82,0.23c8.13-0.42,18.19-2.17,24.1-2.37c1.1-0.04,2.75,0.11,3.3,0.23"/><path id="kvg:08b5b-s3" kvg:type="&#12752;" d="M14.73,46.21c0.44,0.14,3.15,0.15,3.59,0.14c4.6-0.16,12.93-1.6,16.39-2.38c0.72-0.16,3.31,0.07,3.68,0.14"/><path id="kvg:08b5b-s4" kvg:type="&#12752;" d="M15.48,58.83c0.34,0.12,2.42,0.13,2.77,0.12c3.55-0.13,13-1.7,17.31-2.09c0.56-0.05,2.94,0.06,3.22,0.11"/><g id="kvg:08b5b-g2" kvg:element="&#21475;"><path id="kvg:08b5b-s5" kvg:type="&#12753;" d="M16.39,72.9c0.35,0.36,0.75,0.65,0.86,1.13c0.99,4.21,1.5,13.71,2.25,20.71"/><path id="kvg:08b5b-s6" kvg:type="&#12757;b" d="M17.56,74.87c6.44-0.89,13.48-2.1,19.42-3c1.49-0.22,2.39,1.04,2.18,2.06c-0.89,4.25-2.16,10.22-3.74,17.28"/><path id="kvg:08b5b-s7" kvg:type="&#12752;b" d="M19.22,92.55C25.75,92,30,91.75,38.42,91.24"/></g></g><g id="kvg:08b5b-g3" kvg:element="&#26367;" kvg:position="right"><g id="kvg:08b5b-g4" kvg:position="top"><g id="kvg:08b5b-g5" kvg:element="&#22827;" kvg:position="left"><path id="kvg:08b5b-s8" kvg:type="&#12752;" d="M44.86,25.12c0.52,0.26,1.46,0.27,1.98,0.26c4.38-0.08,11.28-1.09,16.44-1.44c0.86-0.06,1.38,0.12,1.81,0.25"/><g id="kvg:08b5b-g6" kvg:element="&#22823;"><path id="kvg:08b5b-s9" kvg:type="&#12752;" d="M42.78,37.4c0.52,0.26,2.28,0.32,2.8,0.26c6.73-0.82,11.17-1.65,17.31-2.95c0.84-0.18,2.2,0.12,2.63,0.25"/><path id="kvg:08b5b-s10" kvg:type="&#12754;" d="M56.23,14.76c0.23,0.71,0.36,1.37,0.31,2.74c-0.89,25.77-4.18,33.67-13.14,43.66"/><path id="kvg:08b5b-s11" kvg:type="&#12751;" d="M55.71,43.31c3.65,1.65,6.93,4.64,9.11,8.44"/></g></g><g id="kvg:08b5b-g7" kvg:element="&#22827;" kvg:position="right"><path id="kvg:08b5b-s12" kvg:type="&#12752;" d="M69.88,24.58c0.45,0.22,2.18,0.25,2.63,0.22c4.35-0.27,12.46-1.55,16.61-2.04c0.74-0.09,2.11,0.11,2.48,0.22"/><g id="kvg:08b5b-g8" kvg:element="&#22823;"><path id="kvg:08b5b-s13" kvg:type="&#12752;" d="M68.76,38.34c0.44,0.22,2.49,0.25,2.94,0.22c3.83-0.23,17.14-2.06,21.29-2.91c0.73-0.15,2.01,0.11,2.38,0.22"/><path id="kvg:08b5b-s14" kvg:type="&#12754;" d="M81.11,13.75c0.29,0.71,0.47,1.37,0.4,2.74c-1.21,24.51-4.8,34.56-16.86,43.64"/><path id="kvg:08b5b-s15" kvg:type="&#12751;" d="M81.48,39.78c3.31,5.09,9.11,13.18,12.82,16.29c1.07,0.9,1.33,1.22,1.78,1.32"/></g></g></g><g id="kvg:08b5b-g9" kvg:element="&#26085;" kvg:position="bottom"><path id="kvg:08b5b-s16" kvg:type="&#12753;" d="M50.99,64.5c0.44,0.75,0.76,1.13,0.88,2.12c0.49,4.14,2.66,23.86,3.2,29.8"/><path id="kvg:08b5b-s17" kvg:type="&#12757;a" d="M52.64,66.05c4.49-0.55,31.88-3.52,34.13-3.67c1.87-0.12,2.65,2.33,2.54,3.08c-0.57,4.1-1.95,18.17-3.34,30.09"/><path id="kvg:08b5b-s18" kvg:type="&#12752;a" d="M53.76,79.52c5.24-0.7,30.18-2.67,33.96-2.67"/><path id="kvg:08b5b-s19" kvg:type="&#12752;a" d="M55.18,94.65c6.81-0.54,21.68-0.98,30.16-1.44"/></g></g></g></g></svg>