<svg xmlns="http://www.w3.org/2000/svg" width="109" height="109" viewBox="0 0 109 109"><g xmlns:kvg="http://kanjivg.tagaini.net" id="kvg:StrokePaths_08c48" style="fill:none;stroke:#000000;stroke-width:3;stroke-linecap:round;stroke-linejoin:round;"><g id="kvg:08c48" kvg:element="&#35912;"><g id="kvg:08c48-g1" kvg:element="&#23665;" kvg:position="top" kvg:radical="nelson"><path id="kvg:08c48-s1" kvg:type="&#12753;a" d="M52.41,11.5c0.58,0.34,1.81,2.58,1.93,3.26c0.12,0.69-0.07,14.6-0.19,18.9"/><path id="kvg:08c48-s2" kvg:type="&#12740;a" d="M28.6,20.07c0.58,0.34,1.25,1.8,1.16,2.5c-0.38,3.07-0.86,4.92-2.42,11.17c-0.38,1.54-0.29,3.09,1.15,2.88C33.68,35.85,74,31.7,81.3,31.51"/><path id="kvg:08c48-s3" kvg:type="&#12753;" d="M81.44,16.66c0.58,0.35,1.26,2.57,1.16,3.26c-0.58,4.23-0.65,7.71-1.61,15.58"/></g><g id="kvg:08c48-g2" kvg:element="&#35910;" kvg:position="bottom" kvg:radical="tradit"><g id="kvg:08c48-g3" kvg:position="top"><path id="kvg:08c48-s4" kvg:type="&#12752;" d="M24.63,48.43c1.13,0.46,3.19,0.51,4.32,0.46c11.72-0.52,29.43-3.93,50.99-4.06c1.88-0.01,3,0.22,3.94,0.45"/></g><g id="kvg:08c48-g4" kvg:position="bottom"><g id="kvg:08c48-g5" kvg:element="&#21475;"><path id="kvg:08c48-s5" kvg:type="&#12753;" d="M34.58,57.8c0.52,0.29,1.18,0.52,1.27,0.91c0.7,2.81,1.12,9.46,2.7,15.05"/><path id="kvg:08c48-s6" kvg:type="&#12757;b" d="M35.57,59.28c7.87-0.56,29.18-3.8,34.54-3.89c2.22-0.04,3.72,0.74,3.22,2.37C72.44,60.7,71,64.5,69.3,68.68"/><path id="kvg:08c48-s7" kvg:type="&#12752;b" d="M38.97,71.83c5.82,0,25.12-2.48,33.15-2.57"/></g><path id="kvg:08c48-s8" kvg:type="&#12756;" d="M37,77.92c1.87,2.2,4.84,9.05,5.31,12.47"/><path id="kvg:08c48-s9" kvg:type="&#12754;" d="M69.61,74.56c0.03,0.44,0.05,1.13-0.05,1.76c-0.61,3.71-4.08,11.84-8.84,16.82"/><path id="kvg:08c48-s10" kvg:type="&#12752;" d="M15.88,95.98c1.52,0.54,4.31,0.69,5.82,0.54c17.8-1.77,47.3-3.35,64.11-3.73c2.53-0.06,4.05,0.26,5.31,0.53"/></g></g></g></g></svg>