<svg xmlns="http://www.w3.org/2000/svg" width="109" height="109" viewBox="0 0 109 109"><g xmlns:kvg="http://kanjivg.tagaini.net" id="kvg:StrokePaths_08c62" style="fill:none;stroke:#000000;stroke-width:3;stroke-linecap:round;stroke-linejoin:round;"><g id="kvg:08c62" kvg:element="&#35938;"><g id="kvg:08c62-g1" kvg:position="top"><path id="kvg:08c62-s1" kvg:type="&#12754;" d="M38.41,14.64c0.06,0.39,0.33,1.11-0.12,1.57c-4.34,4.51-10.02,9.64-20.56,15.05"/><path id="kvg:08c62-s2" kvg:type="&#12751;" d="M65.93,15.01c7.49,2.27,19.34,9.35,21.21,12.88"/><g id="kvg:08c62-g2" kvg:element="&#20108;"><g id="kvg:08c62-g3" kvg:position="top"><path id="kvg:08c62-s3" kvg:type="&#12752;" d="M34.76,28.59c1.32,0.32,3.24,0.4,4.55,0.32c8.4-0.55,20.08-2.44,29.86-2.74c2.19-0.07,3.52,0.15,4.62,0.31"/></g><g id="kvg:08c62-g4" kvg:position="bottom"><path id="kvg:08c62-s4" kvg:type="&#12752;" d="M18.83,40.99c1.58,0.32,4.49,0.41,6.07,0.32c10.09-0.55,50.19-4.45,59.96-4.08c2.63,0.1,4.23,0.15,5.54,0.31"/></g></g><g id="kvg:08c62-g5" kvg:element="&#20154;"><path id="kvg:08c62-s5" kvg:type="&#12754;" d="M52.64,11.92c0.36,0.91,0.63,2.43,0.06,4.18c-5.78,17.66-15.32,33.95-36.85,48.07"/><path id="kvg:08c62-s6" kvg:type="&#12751;" d="M60.14,30.08c4.21,5.21,22.37,22.2,27.02,26.01c1.58,1.29,3.6,1.85,5.18,2.22"/></g></g><g id="kvg:08c62-g6" kvg:element="&#35925;" kvg:position="bottom" kvg:radical="general"><path id="kvg:08c62-s7" kvg:type="&#12752;" d="M36.83,51.83c0.9,0.33,2.55,0.4,3.45,0.33c6.44-0.52,18.47-1.91,28.04-2.58c1.5-0.1,2.4,0.16,3.15,0.32"/><path id="kvg:08c62-s8" kvg:type="&#12754;" d="M53.62,53.74c0.08,0.37,0.17,0.96-0.16,1.49c-1.91,3.13-12.88,10.02-27.88,14.23"/><path id="kvg:08c62-s9" kvg:type="&#12757;v" d="M49.96,59.07c7.65,9.53,11.6,21.1,7.31,35.06c-2.46,8-5.27,2.12-6.68,0.03"/><path id="kvg:08c62-s10" kvg:type="&#12754;" d="M51.08,64.3c0.08,0.45,0.17,1.17-0.16,1.82c-1.92,3.83-12.94,12.23-28.02,17.38"/><path id="kvg:08c62-s11" kvg:type="&#12754;" d="M54.29,72.62c0.09,0.56,0.19,1.44-0.19,2.25C51.85,79.6,38.94,90,21.27,96.36"/><path id="kvg:08c62-s12" kvg:type="&#12754;" d="M72.67,56.84c0.04,0.3,0.08,0.77-0.07,1.19c-0.9,2.52-6.07,8.03-13.15,11.41"/><path id="kvg:08c62-s13" kvg:type="&#12751;" d="M60.23,72.62c7.52,3.88,20.02,13.13,24.36,20.14"/></g></g></g></svg>