<svg xmlns="http://www.w3.org/2000/svg" width="109" height="109" viewBox="0 0 109 109"><g xmlns:kvg="http://kanjivg.tagaini.net" id="kvg:StrokePaths_08c7a" style="fill:none;stroke:#000000;stroke-width:3;stroke-linecap:round;stroke-linejoin:round;"><g id="kvg:08c7a" kvg:element="&#35962;"><g id="kvg:08c7a-g1" kvg:element="&#35960;" kvg:position="left" kvg:radical="general"><path id="kvg:08c7a-s1" kvg:type="&#12754;" d="M39.89,12.5c0.07,0.46,0.28,1.34-0.14,1.87c-5.28,6.56-13.08,12.58-26.84,17.86"/><path id="kvg:08c7a-s2" kvg:type="&#12756;" d="M15.31,34.98c2.9,2.06,7.48,8.47,8.2,11.67"/><path id="kvg:08c7a-s3" kvg:type="&#12756;" d="M28.74,27.67c2.73,1.57,7.04,6.45,7.72,8.89"/><path id="kvg:08c7a-s4" kvg:type="&#12754;" d="M46.66,28.51c0.09,0.63,0.44,1.88-0.18,2.52C38,39.75,28.5,47.25,12.86,55.11"/><path id="kvg:08c7a-s5" kvg:type="&#12757;v" d="M32.94,45.42c9.56,7.08,14.83,29.39,7.52,47.43c-4.26,10.52-9.01,0.96-10.11,0.05"/><path id="kvg:08c7a-s6" kvg:type="&#12754;" d="M36.1,50.17c0.07,0.49,0.29,1.35-0.14,1.98C33,56.5,23.25,65,10.8,71.16"/><path id="kvg:08c7a-s7" kvg:type="&#12754;" d="M39.39,62.14c0.07,0.58,0.32,1.57-0.15,2.32c-3.5,5.56-12.99,14.38-26.49,21.73"/></g><g id="kvg:08c7a-g2" kvg:element="&#25165;" kvg:position="right"><g id="kvg:08c7a-g3" kvg:element="&#25164;" kvg:variant="true" kvg:original="&#25163;"><path id="kvg:08c7a-s8" kvg:type="&#12752;" d="M49.75,36c1.1,0,3,0.45,5.16,0.25c8.09-0.75,23.6-2.75,38.52-4c2.16-0.18,2.71-0.25,4.07,0"/><g id="kvg:08c7a-g4" kvg:element="&#20101;"><path id="kvg:08c7a-s9" kvg:type="&#12762;" d="M78.77,11.83c1.23,0.92,2.17,2.49,2.26,5.52c0.4,14.55-0.26,69.16-0.26,74.12c0,12.53-6.71,1-8.21-0.25"/></g><path id="kvg:08c7a-s10" kvg:type="&#12754;" d="M77.3,41.5c0.08,0.81,0.42,2.2-0.15,3.26C72.25,53.75,65,64,49.62,75.94"/></g></g></g></g></svg>