<svg xmlns="http://www.w3.org/2000/svg" width="109" height="109" viewBox="0 0 109 109"><g xmlns:kvg="http://kanjivg.tagaini.net" id="kvg:StrokePaths_08c8a" style="fill:none;stroke:#000000;stroke-width:3;stroke-linecap:round;stroke-linejoin:round;"><g id="kvg:08c8a" kvg:element="&#35978;"><g id="kvg:08c8a-g1" kvg:element="&#35960;" kvg:position="left" kvg:radical="general"><path id="kvg:08c8a-s1" kvg:type="&#12754;" d="M37.39,14.5c0.07,0.46,0.28,1.34-0.14,1.87C31.96,22.92,21.25,31,11.4,34.73"/><path id="kvg:08c8a-s2" kvg:type="&#12756;" d="M15.56,36.23c2.81,1.66,7.25,6.84,7.95,9.42"/><path id="kvg:08c8a-s3" kvg:type="&#12756;" d="M28.49,27.92c2.29,1.35,5.9,5.54,6.47,7.64"/><path id="kvg:08c8a-s4" kvg:type="&#12754;" d="M41.66,29.01c0.08,0.63,0.33,1.81-0.17,2.52c-6.22,8.84-15.42,16.95-31.64,24.08"/><path id="kvg:08c8a-s5" kvg:type="&#12757;v" d="M30.25,43.92C40,51.25,45,72.25,38.07,90.49c-3.95,10.41-8.84,0.94-9.98,0.05"/><path id="kvg:08c8a-s6" kvg:type="&#12754;" d="M33.11,51.17c0.06,0.46,0.28,1.28-0.12,1.87C29.75,57.75,21,66.25,11.55,70.91"/><path id="kvg:08c8a-s7" kvg:type="&#12754;" d="M37.39,61.64c0.07,0.59,0.3,1.6-0.14,2.37c-3.27,5.67-12.14,15.18-24.76,22.68"/></g><g id="kvg:08c8a-g2" kvg:element="&#30334;" kvg:position="right"><g id="kvg:08c8a-g3" kvg:position="top"><path id="kvg:08c8a-s8" kvg:type="&#12752;" d="M45.46,20.81c1.58,0.64,4.49,0.83,6.08,0.64c13.6-1.57,19-1.83,39.46-3.16c2.64-0.17,4.23,0.31,5.55,0.63"/></g><g id="kvg:08c8a-g4" kvg:position="bottom"><g id="kvg:08c8a-g5" kvg:position="top"><path id="kvg:08c8a-s9" kvg:type="&#12756;" d="M71.34,22.88c0.34,0.57,0.4,1.26,0.31,1.75c-0.48,2.91-4.67,10.82-8.47,14.73"/></g><g id="kvg:08c8a-g6" kvg:element="&#26085;" kvg:position="bottom"><path id="kvg:08c8a-s10" kvg:type="&#12753;" d="M53.26,41.32c0.61,1.3,1.22,1.96,1.22,3.69c0,15.99-0.02,41.99-0.02,51.24"/><path id="kvg:08c8a-s11" kvg:type="&#12757;a" d="M53.84,42.89c3.44-0.22,30.89-3.68,34.02-3.94c2.61-0.22,3.08,1.44,3.08,2.74c0,9.31,0.05,39.44-0.27,53.29"/><path id="kvg:08c8a-s12" kvg:type="&#12752;a" d="M55.28,66.2C64,66,81.75,64,90.73,64.13"/><path id="kvg:08c8a-s13" kvg:type="&#12752;a" d="M54.97,93.37c11.28-0.87,25.28-1.62,35.39-2.14"/></g></g></g></g></g></svg>