<svg xmlns="http://www.w3.org/2000/svg" width="109" height="109" viewBox="0 0 109 109"><g xmlns:kvg="http://kanjivg.tagaini.net" id="kvg:StrokePaths_08c82" style="fill:none;stroke:#000000;stroke-width:3;stroke-linecap:round;stroke-linejoin:round;"><g id="kvg:08c82" kvg:element="&#35970;"><g id="kvg:08c82-g1" kvg:element="&#35960;" kvg:position="left" kvg:radical="general"><path id="kvg:08c82-s1" kvg:type="&#12754;" d="M38.39,13c0.07,0.48,0.27,1.38-0.14,1.91c-5.03,6.72-12.48,12.9-25.6,18.32"/><path id="kvg:08c82-s2" kvg:type="&#12756;" d="M16.31,35.98c2.54,1.71,6.57,7.02,7.2,9.67"/><path id="kvg:08c82-s3" kvg:type="&#12756;" d="M28.24,27.17c2.73,1.48,7.04,6.09,7.72,8.39"/><path id="kvg:08c82-s4" kvg:type="&#12754;" d="M45.16,28.01c0.08,0.63-0.09,1.87-0.67,2.52C36.5,39.5,28.75,46.25,13.36,54.61"/><path id="kvg:08c82-s5" kvg:type="&#12757;v" d="M30.94,44.67c9.93,5.75,14.83,28.48,7.52,46.25c-4.26,10.36-8.51,0.95-9.61,0.05"/><path id="kvg:08c82-s6" kvg:type="&#12754;" d="M34.6,51.67c0.06,0.45,0.23,1.2-0.13,1.8C31.75,58,23.25,64.25,11.3,70.66"/><path id="kvg:08c82-s7" kvg:type="&#12754;" d="M37.89,62.14c0.07,0.56,0.32,1.52-0.15,2.25C34.31,69.78,25,78.82,11.75,85.94"/></g><g id="kvg:08c82-g2" kvg:element="&#21484;" kvg:position="right"><g id="kvg:08c82-g3" kvg:element="&#20992;" kvg:position="top"><path id="kvg:08c82-s8" kvg:type="&#12742;" d="M52.21,19.55c0.79,0.45,3.2,0.84,4.43,0.71c10.09-1.07,26.47-3.39,32.06-3.79c3.64-0.26,5.13,1.26,5.05,3.07c-0.25,5.96-6.36,20.27-9.61,27.95c-2.65,6.26-5.4,4.01-8.7-0.39"/><path id="kvg:08c82-s9" kvg:type="&#12754;" d="M68.49,21.89c0.06,0.74,0.18,1.93-0.13,2.99c-3.16,10.74-8.82,19.75-21.48,30.4"/></g><g id="kvg:08c82-g4" kvg:element="&#21475;" kvg:position="bottom"><path id="kvg:08c82-s10" kvg:type="&#12753;" d="M54,63.64c0.38,0.39,0.76,0.72,0.92,1.21c1.3,3.9,2.36,23.65,3.25,30.65"/><path id="kvg:08c82-s11" kvg:type="&#12757;b" d="M56.34,64.78c8.66-1.28,25.91-3.28,32.9-3.79c2.31-0.17,5.02,1.76,4.34,4.21c-1.24,4.48-3.56,18.05-4.98,24.35"/><path id="kvg:08c82-s12" kvg:type="&#12752;b" d="M58.34,92.08c5.16-0.58,22.91-1.58,32.86-1.97"/></g></g></g></g></svg>