<svg xmlns="http://www.w3.org/2000/svg" width="109" height="109" viewBox="0 0 109 109"><g xmlns:kvg="http://kanjivg.tagaini.net" id="kvg:StrokePaths_08c9d" style="fill:none;stroke:#000000;stroke-width:3;stroke-linecap:round;stroke-linejoin:round;"><g id="kvg:08c9d" kvg:element="&#35997;" kvg:radical="general"><g id="kvg:08c9d-g1" kvg:element="&#30446;" kvg:position="top"><path id="kvg:08c9d-s1" kvg:type="&#12753;" d="M31.75,17.8c1.16,1.16,1.68,2.84,1.68,4.63c0,1.49-0.18,33.31-0.18,48.31c0,3.5-0.07,3.62-0.07,6.5"/><path id="kvg:08c9d-s2" kvg:type="&#12757;a" d="M33.82,19.85c7.3-0.73,30.8-3.48,37.67-4.11c2.94-0.27,4.51,1,4.51,3.66c0,3.09-0.5,32.69-0.74,47.84c-0.08,4.93-0.13,8.28-0.13,8.6"/><path id="kvg:08c9d-s3" kvg:type="&#12752;a" d="M34.76,38.26c8.99-1.26,33.57-3.64,39.78-3.64"/><path id="kvg:08c9d-s4" kvg:type="&#12752;a" d="M34.82,55.24c10.93-0.99,27.93-2.99,39.51-3.18"/><path id="kvg:08c9d-s5" kvg:type="&#12752;a" d="M34.57,73.74C45.5,73,64.12,71.05,74.08,71.05"/></g><g id="kvg:08c9d-g2" kvg:position="bottom"><path id="kvg:08c9d-s6" kvg:type="&#12754;" d="M41.95,80.5c0.55,1.41-0.42,3.3-1.5,4.33C37.17,87.94,28.56,94.07,22,97.75"/><path id="kvg:08c9d-s7" kvg:type="&#12756;" d="M65.75,80C72.78,84.75,81.08,93.35,83,97.5"/></g></g></g></svg>