<svg xmlns="http://www.w3.org/2000/svg" width="109" height="109" viewBox="0 0 109 109"><g xmlns:kvg="http://kanjivg.tagaini.net" id="kvg:StrokePaths_08cb2" style="fill:none;stroke:#000000;stroke-width:3;stroke-linecap:round;stroke-linejoin:round;"><g id="kvg:08cb2" kvg:element="&#36018;"><g id="kvg:08cb2-g1" kvg:element="&#27492;" kvg:position="top"><g id="kvg:08cb2-g2" kvg:element="&#27490;" kvg:position="left"><g id="kvg:08cb2-g3" kvg:element="&#21340;" kvg:original="&#12488;"><path id="kvg:08cb2-s1" kvg:type="&#12753;" d="M31.32,12.42c1.43,1.08,1.62,2.54,1.82,3.01c0.2,0.46-0.07,18.25-0.07,23.25"/><path id="kvg:08cb2-s2" kvg:type="&#12752;" d="M33.65,23.35c4.5-0.35,10.82-1.04,15.24-1.39c1.1-0.09,1.38-0.12,2.06,0"/></g><path id="kvg:08cb2-s3" kvg:type="&#12753;" d="M17.45,23.7c0.55,0.55,1.32,1.8,1.32,3.51c0,2.55,0.26,12.31,0.26,15.68"/><path id="kvg:08cb2-s4" kvg:type="&#12752;" d="M16.35,42.89c0.4,0.59,2.24,0.77,3.27,0.44c8.13-2.58,22.48-7.58,31.42-10.93"/></g><g id="kvg:08cb2-g4" kvg:element="&#21269;" kvg:position="right"><path id="kvg:08cb2-s5" kvg:type="&#12754;" d="M84.05,14.11C84,15,83.84,15.42,83.38,15.73c-3,2.05-12.77,7.21-22.45,9.31"/><path id="kvg:08cb2-s6" kvg:type="&#12767;" d="M55.96,9.75c1,0.55,1.4,1.85,1.4,2.66c0,6.09,0.11,12.7,0.11,17.72c0,8.37,0.78,8.72,17.07,8.72c15.96,0,16.86-1.35,16.86-8.42"/></g></g><g id="kvg:08cb2-g5" kvg:element="&#35997;" kvg:position="bottom" kvg:radical="general"><g id="kvg:08cb2-g6" kvg:element="&#30446;" kvg:position="top"><path id="kvg:08cb2-s7" kvg:type="&#12753;" d="M31.24,49.5c0.56,0.8,1.38,1.38,1.38,2.48c0,1.09,0.26,29.13-0.41,33.72"/><path id="kvg:08cb2-s8" kvg:type="&#12757;a" d="M33.56,50.38c3.18-0.23,35.93-3.05,38.79-3.56c1.93-0.34,3.41,1,3.7,2.73c0.42,2.45-0.71,33.91-0.71,34.72"/><path id="kvg:08cb2-s9" kvg:type="&#12752;a" d="M33.18,60.89c5.94-0.5,36.99-2.12,42.08-2.28"/><path id="kvg:08cb2-s10" kvg:type="&#12752;a" d="M32.94,71.26c8.97-0.88,32.85-2.08,42.36-2.5"/><path id="kvg:08cb2-s11" kvg:type="&#12752;a" d="M32.53,83.55c8.97-0.73,34.59-1.95,42.77-2.2"/></g><g id="kvg:08cb2-g7" kvg:position="bottom"><path id="kvg:08cb2-s12" kvg:type="&#12754;" d="M40.17,87.9c0.63,1.14-0.47,2.26-1.73,3.07C34.5,93.5,27.25,98,17.13,101.75"/><path id="kvg:08cb2-s13" kvg:type="&#12756;" d="M64.77,86.23c8.8,3.75,19.2,10.53,21.6,13.81"/></g></g></g></g></svg>