<svg xmlns="http://www.w3.org/2000/svg" width="109" height="109" viewBox="0 0 109 109"><g xmlns:kvg="http://kanjivg.tagaini.net" id="kvg:StrokePaths_08cb3" style="fill:none;stroke:#000000;stroke-width:3;stroke-linecap:round;stroke-linejoin:round;"><g id="kvg:08cb3" kvg:element="&#36019;"><g id="kvg:08cb3-g1" kvg:element="&#24333;" kvg:part="1"><g id="kvg:08cb3-g2" kvg:element="&#24331;" kvg:part="1" kvg:radical="nelson"><path id="kvg:08cb3-s1" kvg:type="&#12752;" d="M12.75,32.2c1.52,0.54,4.31,0.69,5.82,0.54C29,31.75,69,27.75,82.69,26.51c2.52-0.23,4.05,0.26,5.31,0.53"/></g><g id="kvg:08cb3-g3" kvg:element="&#20108;"><path id="kvg:08cb3-s2" kvg:type="&#12752;" d="M24.95,41.1c0.99,0.09,2.35,0.4,3.34,0.38c6.04-0.14,8.37-1.22,16.67-1.84c1.64-0.12,2.64,0.04,3.46,0.09"/><path id="kvg:08cb3-s3" kvg:type="&#12752;" d="M20.5,49.18c1.16,0.29,3.3,0.28,4.46,0.29c6.79,0.04,17.54-1.96,25.47-2.79c1.93-0.2,3.1,0.14,4.07,0.28"/></g></g><g id="kvg:08cb3-g4" kvg:element="&#35997;" kvg:radical="tradit"><g id="kvg:08cb3-g5" kvg:element="&#30446;" kvg:position="top"><path id="kvg:08cb3-s4" kvg:type="&#12753;" d="M23.11,57.74c0.45,0.88,1.1,1.53,1.1,2.7c0,1.17,0.21,19.71-0.33,24.61"/><path id="kvg:08cb3-s5" kvg:type="&#12757;a" d="M24.96,58.76c2.53-0.15,21.79-2.02,24.1-2.19c1.92-0.15,2.95,0.81,2.95,1.9c0,2.67-0.57,24.79-0.57,25.67"/><path id="kvg:08cb3-s6" kvg:type="&#12752;a" d="M24.26,66.6c4.73-0.33,23.06-2.37,27.11-2.37"/><path id="kvg:08cb3-s7" kvg:type="&#12752;a" d="M24.47,75.18c7.13-0.64,19.37-1.95,26.93-2.08"/><path id="kvg:08cb3-s8" kvg:type="&#12752;a" d="M24.14,82.75C31.27,82.27,44.9,81,51.4,81"/></g><g id="kvg:08cb3-g6" kvg:position="bottom"><path id="kvg:08cb3-s9" kvg:type="&#12754;" d="M32.28,86.17c0.34,1.05-0.26,2.07-0.92,2.83c-2.02,2.3-7.32,7.21-11.35,9.93"/><path id="kvg:08cb3-s10" kvg:type="&#12756;" d="M44.81,88.09c4.18,2.62,9.12,7.38,10.26,9.67"/></g></g><g id="kvg:08cb3-g7" kvg:element="&#24333;" kvg:part="2"><g id="kvg:08cb3-g8" kvg:element="&#24331;" kvg:part="2" kvg:radical="nelson"><path id="kvg:08cb3-s11" kvg:type="&#12738;" d="M60.5,10.5c1.56,1.87,2.3,2.38,2.54,6.4C65,49.25,70.5,80.5,91.4,96.88c5.83,4.58,6.28-0.2,5.5-8.46"/><g id="kvg:08cb3-g9" kvg:element="&#20022;"><path id="kvg:08cb3-s12" kvg:type="&#12756;" d="M75.25,10.5c3.34,1.95,8.69,6.41,10.25,9.75"/></g></g></g></g></g></svg>