<svg xmlns="http://www.w3.org/2000/svg" width="109" height="109" viewBox="0 0 109 109"><g xmlns:kvg="http://kanjivg.tagaini.net" id="kvg:StrokePaths_08cc1" style="fill:none;stroke:#000000;stroke-width:3;stroke-linecap:round;stroke-linejoin:round;"><g id="kvg:08cc1" kvg:element="&#36033;"><g id="kvg:08cc1-g1" kvg:element="&#21321;" kvg:variant="true" kvg:position="top"><g id="kvg:08cc1-g2" kvg:element="&#21313;" kvg:position="top"><path id="kvg:08cc1-s1" kvg:type="&#12752;" d="M26.75,21.34c0.66,0.19,2.41,0.6,4.16,0.57c8.09-0.16,34.52-3.08,44.81-3.08c1.75,0,2.19-0.19,3.28,0"/><path id="kvg:08cc1-s2" kvg:type="&#12753;" d="M51.69,9.25c0.75,0.35,1.4,1.54,1.36,2.25c-0.29,5.25,0,15.43-0.15,19.75"/></g><g id="kvg:08cc1-g3" kvg:element="&#24318;" kvg:position="bottom"><g id="kvg:08cc1-g4" kvg:element="&#21313;" kvg:part="1"><path id="kvg:08cc1-s3" kvg:type="&#12752;" d="M12.16,38.32c1.87,0.42,4.04,0.5,5.92,0.42C35.25,37.98,69.5,35,89.3,34.94c3.11-0.01,4.98,0.2,6.54,0.41"/></g><g id="kvg:08cc1-g5" kvg:element="&#20031;" kvg:variant="true"><path id="kvg:08cc1-s4" kvg:type="&#12753;/&#12754;" d="M36.98,27.93c0.95,1.02,1.31,1.32,1.35,1.95c0.42,7.12,1.26,14.37,1.53,16.49"/></g><g id="kvg:08cc1-g6" kvg:element="&#21313;" kvg:part="2"><path id="kvg:08cc1-s5" kvg:type="&#12753;" d="M70.36,25.13c0.2,0.95,0.46,1.66,0.24,2.84c-1.3,6.89-1.45,8.61-2.87,15.1"/></g></g></g><g id="kvg:08cc1-g7" kvg:element="&#35997;" kvg:position="bottom" kvg:radical="general"><g id="kvg:08cc1-g8" kvg:element="&#30446;" kvg:position="top"><path id="kvg:08cc1-s6" kvg:type="&#12753;" d="M34.05,48.76c0.44,0.8,0.59,2.4,0.59,3.47c0,1.07,0.2,28.59-0.32,33.08"/><path id="kvg:08cc1-s7" kvg:type="&#12757;a" d="M35.38,51.2c2.5-0.13,34.59-3.38,36.87-3.54c1.9-0.13,2.92,0.74,2.92,1.74c0,2.45-0.56,33.25-0.56,34.05"/><path id="kvg:08cc1-s8" kvg:type="&#12752;a" d="M35.19,61c6.51-0.98,34.17-2.53,39.36-2.7"/><path id="kvg:08cc1-s9" kvg:type="&#12752;a" d="M34.89,71.65c7.07-0.59,30.85-2.47,39.68-2.93"/><path id="kvg:08cc1-s10" kvg:type="&#12752;a" d="M34.57,83.21c8.89-1.28,31.62-2.3,40.01-3.14"/></g><g id="kvg:08cc1-g9" kvg:position="bottom"><path id="kvg:08cc1-s11" kvg:type="&#12754;" d="M42.71,86.97c-0.21,1.03,0,1.92-1,2.73c-3.02,2.45-12.33,7.48-18.37,10.38"/><path id="kvg:08cc1-s12" kvg:type="&#12756;" d="M64.09,86.17c7.98,4,17.4,11.26,19.58,14.75"/></g></g></g></g></svg>