<svg xmlns="http://www.w3.org/2000/svg" width="109" height="109" viewBox="0 0 109 109"><g xmlns:kvg="http://kanjivg.tagaini.net" id="kvg:StrokePaths_08cd3" style="fill:none;stroke:#000000;stroke-width:3;stroke-linecap:round;stroke-linejoin:round;"><g id="kvg:08cd3" kvg:element="&#36051;"><g id="kvg:08cd3-g1" kvg:position="top" kvg:phon="&#23424;+&#23569;"><g id="kvg:08cd3-g2" kvg:element="&#23424;" kvg:radical="nelson"><path id="kvg:08cd3-s1" kvg:type="&#12753;a" d="M54.64,9.3c1.09,1.09,1.21,2.2,1.21,3.73c0,1.47-0.09,4.22-0.09,6.31"/><g id="kvg:08cd3-g3" kvg:element="&#20886;"><path id="kvg:08cd3-s2" kvg:type="&#12756;" d="M25.78,21.29c0,2.98-3.1,12.17-4.28,14.16"/><path id="kvg:08cd3-s3" kvg:type="&#12758;b" d="M26.6,22.99c10.15-0.99,46.28-3.86,58.7-3.95c10.34-0.07,2.44,5.89-0.13,7.7"/></g></g><path id="kvg:08cd3-s4" kvg:type="&#12752;" d="M34.25,30.89c2,0.81,4.66,0.34,6.73,0.17c7.01-0.58,20.11-1.92,27.28-2.59c2.46-0.23,4.81-0.56,7.24,0.04"/><g id="kvg:08cd3-g4" kvg:element="&#23569;"><g id="kvg:08cd3-g5" kvg:element="&#23567;"><path id="kvg:08cd3-s5" kvg:type="&#12762;" d="M53.76,31.75c0.87,0.87,1.28,2.06,1.28,3.13c0,2.25-0.03,4.49-0.03,6.62c0,6.06-4.47,0.65-5.4,0.11"/><path id="kvg:08cd3-s6" kvg:type="&#12754;" d="M36.67,38.17c0,0.96-0.38,1.71-1.03,2.22c-2.39,2.74-8.41,6.72-13.4,8.87"/><path id="kvg:08cd3-s7" kvg:type="&#12756;" d="M71.75,35.75c4.05,1.38,9.49,4.94,10.5,7.09"/></g><g id="kvg:08cd3-g6" kvg:element="&#20031;"><path id="kvg:08cd3-s8" kvg:type="&#12754;" d="M64.11,37.83c0.13,0.65-0.17,1.85-1.02,2.59C54.5,47.88,38.25,57.5,16,64.75"/></g></g></g><g id="kvg:08cd3-g7" kvg:element="&#35997;" kvg:position="bottom" kvg:radical="tradit"><g id="kvg:08cd3-g8" kvg:element="&#30446;" kvg:position="top"><path id="kvg:08cd3-s9" kvg:type="&#12753;" d="M39,53.34c0.89,0.89,1.26,1.98,1.26,3.87c0,3.74,0.04,14.65,0.05,25.79c0,1.66,0,3.3,0,4.9"/><path id="kvg:08cd3-s10" kvg:type="&#12757;a" d="M40.79,54.48c3.48-0.24,26.96-3.48,33.14-3.8c2.71-0.14,4.05,1.39,4.05,3.94c0,4.52-0.02,18.52-0.02,26.37c0,2.97,0,5.06,0,5.43"/><path id="kvg:08cd3-s11" kvg:type="&#12752;a" d="M41.33,64.42c7.92-0.79,30.2-2.54,35.78-2.54"/><path id="kvg:08cd3-s12" kvg:type="&#12752;a" d="M41.61,75.3c9.81-0.69,23.51-2.17,35.28-2.73"/><path id="kvg:08cd3-s13" kvg:type="&#12752;a" d="M41.41,85.75c9.81-0.51,26.54-2.13,35.48-2.13"/></g><g id="kvg:08cd3-g9" kvg:position="bottom"><path id="kvg:08cd3-s14" kvg:type="&#12754;" d="M47.15,88.74c0,0.76-0.28,1.51-1.25,2.23c-2.94,2.18-11.02,6.77-16.9,9.35"/><path id="kvg:08cd3-s15" kvg:type="&#12756;" d="M68.02,90.39c6.82,2.58,14.87,7.25,16.73,9.5"/></g></g></g></g></svg>