<svg xmlns="http://www.w3.org/2000/svg" width="109" height="109" viewBox="0 0 109 109"><g xmlns:kvg="http://kanjivg.tagaini.net" id="kvg:StrokePaths_08cde" style="fill:none;stroke:#000000;stroke-width:3;stroke-linecap:round;stroke-linejoin:round;"><g id="kvg:08cde" kvg:element="&#36062;"><g id="kvg:08cde-g1" kvg:element="&#23578;" kvg:variant="true" kvg:position="top" kvg:phon="&#23578;"><g id="kvg:08cde-g2" kvg:element="&#11916;" kvg:variant="true" kvg:original="&#23567;" kvg:position="top" kvg:radical="nelson"><path id="kvg:08cde-s1" kvg:type="&#12753;a" d="M52.96,10.37c0.9,0.9,1.51,2.35,1.51,3.99c0,3.14-0.01,8.77-0.01,14.76"/><path id="kvg:08cde-s2" kvg:type="&#12756;" d="M30.88,15.12c3.24,1.83,8.37,7.5,9.18,10.34"/><path id="kvg:08cde-s3" kvg:type="&#12754;" d="M74.76,14.25c0,0.75-0.1,1.6-0.3,2.02c-1.58,3.35-3.83,6.73-9.02,11.69"/></g><g id="kvg:08cde-g3" kvg:position="bottom"><g id="kvg:08cde-g4" kvg:element="&#20866;" kvg:variant="true"><path id="kvg:08cde-s4" kvg:type="&#12756;/&#12753;" d="M21.2,31.5c-0.13,4.04-2.35,13.52-3.45,15.94"/><path id="kvg:08cde-s5" kvg:type="&#12758;b" d="M22.24,33.18c12.89-1.3,43.89-4.43,64.05-5.12c11.21-0.38,0.4,7.44-1.15,8.7"/></g><g id="kvg:08cde-g5" kvg:element="&#21475;"><path id="kvg:08cde-s6" kvg:type="&#12753;" d="M37.64,39.13C38.5,40,39,40.94,39.16,41.74c0.56,2.82,0.9,4.36,1.23,5.75c0.23,1.02,0.46,1.95,0.74,3.26"/><path id="kvg:08cde-s7" kvg:type="&#12757;b" d="M39.6,40.07c4.6-0.47,21.97-2.29,28.66-3.02c2.7-0.29,4.36,0.04,3.38,3.08c-0.47,1.44-0.63,1.97-1.76,4.69"/><path id="kvg:08cde-s8" kvg:type="&#12752;b" d="M41.44,48.46c5.74-0.62,19.2-1.95,26.94-2.44c1.1-0.07,2.09-0.12,2.92-0.16"/></g></g></g><g id="kvg:08cde-g6" kvg:element="&#35997;" kvg:position="bottom" kvg:radical="tradit"><g id="kvg:08cde-g7" kvg:element="&#30446;" kvg:position="top"><path id="kvg:08cde-s9" kvg:type="&#12753;" d="M37.02,55.76c0.86,0.86,1.34,2.37,1.34,3.69c0,0.65,0.01,14.42,0.01,21.05c0,2.04,0,3.41,0,3.51"/><path id="kvg:08cde-s10" kvg:type="&#12757;a" d="M39,56.98c8.75-0.85,26.38-2.68,29.18-2.68c3.2,0,4.12,1.08,4.12,4.58c0,5.32-0.03,13.54-0.04,19.62c0,1.7-0.01,3.24-0.01,4.5"/><path id="kvg:08cde-s11" kvg:type="&#12752;a" d="M39.24,65.21c7.01-0.58,25.13-2.21,31.6-2.34"/><path id="kvg:08cde-s12" kvg:type="&#12752;a" d="M39.54,73.28c7.84-0.53,23.71-1.53,31.24-1.88"/><path id="kvg:08cde-s13" kvg:type="&#12752;a" d="M39.62,81.79c7.62-0.66,23.62-1.97,31.49-2.13"/></g><g id="kvg:08cde-g8" kvg:position="bottom"><path id="kvg:08cde-s14" kvg:type="&#12754;" d="M45.72,85.25c0,1.12-0.44,2.05-1.36,2.89c-3.9,3.56-7.63,6.53-18.11,10.73"/><path id="kvg:08cde-s15" kvg:type="&#12756;" d="M63.11,86.13c7.04,3.51,15.36,9.88,17.28,12.96"/></g></g></g></g></svg>