<svg xmlns="http://www.w3.org/2000/svg" width="109" height="109" viewBox="0 0 109 109"><g xmlns:kvg="http://kanjivg.tagaini.net" id="kvg:StrokePaths_08d71" style="fill:none;stroke:#000000;stroke-width:3;stroke-linecap:round;stroke-linejoin:round;"><g id="kvg:08d71" kvg:element="&#36209;"><g id="kvg:08d71-g1" kvg:element="&#36208;" kvg:radical="tradit"><g id="kvg:08d71-g2" kvg:element="&#22303;" kvg:position="top"><path id="kvg:08d71-s1" kvg:type="&#12752;" d="M33.33,27.84c1.08,0.36,3.06,0.46,4.14,0.36c10.88-0.97,23.29-3.24,35.9-4.16c1.79-0.13,2.88,0.17,3.78,0.35"/><path id="kvg:08d71-s2" kvg:type="&#12753;a" d="M52.57,11.38c0.13,0.31,1.89,1.63,1.89,3.62c0,12.81,0.12,25,0.12,29.41"/><path id="kvg:08d71-s3" kvg:type="&#12752;" d="M17,46.78c1.91,0.57,5.43,0.72,7.33,0.57C42,46,68,43,86.46,41.8c3.18-0.21,5.1,0.27,6.7,0.56"/></g><g id="kvg:08d71-g3" kvg:position="bottom"><path id="kvg:08d71-s4" kvg:type="&#12756;" d="M33.69,54.68c3.74,2.49,9.38,9.53,10.31,13.41"/><path id="kvg:08d71-s5" kvg:type="&#12754;" d="M71.3,50.68c0.12,0.83,0.53,2.31-0.23,3.33C64.75,62.5,52.75,74.75,31.2,85.9"/><path id="kvg:08d71-s6" kvg:type="&#12751;" d="M18.75,88.13C22,87,27.26,86.5,31.52,87.14c4.26,0.65,28.45,4.94,32.63,5.84C77,95.75,85.25,95.5,91.25,95.77"/></g></g></g></g></svg>