<svg xmlns="http://www.w3.org/2000/svg" width="109" height="109" viewBox="0 0 109 109"><g xmlns:kvg="http://kanjivg.tagaini.net" id="kvg:StrokePaths_08da3" style="fill:none;stroke:#000000;stroke-width:3;stroke-linecap:round;stroke-linejoin:round;"><g id="kvg:08da3" kvg:element="&#36259;"><g id="kvg:08da3-g1" kvg:element="&#36208;" kvg:position="nyo" kvg:radical="general"><g id="kvg:08da3-g2" kvg:element="&#22303;" kvg:position="top"><path id="kvg:08da3-s1" kvg:type="&#12752;" d="M18.31,28.9c1.32,0.54,3.12,0.22,4.44,0.07c4.75-0.52,10.82-1.9,15.23-2.38c1.39-0.15,2.59-0.25,3.95,0.09"/><path id="kvg:08da3-s2" kvg:type="&#12753;a" d="M30.23,13.96c0.84,0.84,1.48,2.1,1.48,3.58c0,4.59-0.08,20.95-0.08,23.71"/><path id="kvg:08da3-s3" kvg:type="&#12752;" d="M13.58,43.61c1.8,0.79,4.46,0.4,6.31,0.12c7.37-1.1,16.06-2.46,22.62-3.27c1.76-0.22,3.17-0.34,4.89,0.11"/></g><g id="kvg:08da3-g3" kvg:position="bottom"><path id="kvg:08da3-s4" kvg:type="&#12753;a" d="M31.65,44.82c0.83,0.83,1.16,2.3,1.16,3.7c0,0.93-0.06,20.53-0.06,27.6"/><path id="kvg:08da3-s5" kvg:type="&#12752;c" d="M33.93,58.88c4.45-0.76,6.45-1.26,10.71-1.87c1.02-0.15,1.64,0.13,2.16,0.26"/><path id="kvg:08da3-s6" kvg:type="&#12754;" d="M21.88,56.74c0.12,0.88,0.18,1.92-0.06,2.96C20.25,66.5,16.5,79,10.86,88.31"/><path id="kvg:08da3-s7" kvg:type="&#12751;" d="M18.78,73.4c10.81,2.17,38.43,11.45,53.58,15.54c5.94,1.6,12,2.74,18.14,3.21"/></g></g><g id="kvg:08da3-g4" kvg:element="&#21462;" kvg:variant="true" kvg:phon="&#21462;"><g id="kvg:08da3-g5" kvg:element="&#32819;" kvg:position="left"><path id="kvg:08da3-s8" kvg:type="&#12752;" d="M46.9,25.99c1.85,0.38,3.43,0.2,4.96-0.05c5.16-0.85,12.67-2.55,18.51-3.23c1.52-0.18,2.95-0.33,4.44,0.09"/><path id="kvg:08da3-s9" kvg:type="&#12753;a" d="M53.24,27.68c0.79,0.79,0.83,1.95,0.83,3.72c0,1.57-0.07,30.07-0.07,35.73"/><path id="kvg:08da3-s10" kvg:type="&#12752;a" d="M55.21,38.64c5.47-1.02,6.95-1.41,11.79-1.91"/><path id="kvg:08da3-s11" kvg:type="&#12752;a" d="M55,51.72c4-0.6,7.62-1.22,11.94-1.83"/><path id="kvg:08da3-s12" kvg:type="&#12736;" d="M46.7,69.57c1.42,0.81,2.55,0.81,3.85,0.2c2.75-1.3,7.45-3.64,15.95-7.51"/><path id="kvg:08da3-s13" kvg:type="&#12753;" d="M67.11,25.58c0.96,0.96,1.01,2.33,1.01,3.82c0,1.1-0.01,25.98-0.01,42.59c0,2.89,0,5.53,0,7.75"/></g><g id="kvg:08da3-g6" kvg:element="&#21448;" kvg:variant="true" kvg:position="right"><path id="kvg:08da3-s14" kvg:type="&#12743;" d="M75.24,36.24c1.26,0.26,2.53,0.38,3.93,0s9.15-2.4,10.11-2.78c1.53-0.6,3.22,0.43,2.81,2.27c-3.75,16.68-8.21,29.27-18.4,35.7"/><path id="kvg:08da3-s15" kvg:type="&#12756;/&#12751;" d="M75.78,47.04c7.22,5.21,13.47,13.21,18.1,24.01"/></g></g></g></g></svg>