<svg xmlns="http://www.w3.org/2000/svg" width="109" height="109" viewBox="0 0 109 109"><g xmlns:kvg="http://kanjivg.tagaini.net" id="kvg:StrokePaths_08dda" style="fill:none;stroke:#000000;stroke-width:3;stroke-linecap:round;stroke-linejoin:round;"><g id="kvg:08dda" kvg:element="&#36314;"><g id="kvg:08dda-g1" kvg:element="&#36275;" kvg:position="left" kvg:radical="general"><g id="kvg:08dda-g2" kvg:element="&#21475;"><path id="kvg:08dda-s1" kvg:type="&#12753;" d="M11.28,19.71c0.37,0.32,0.75,0.58,0.91,0.97c1.28,3.13,2.85,15.2,3.73,20.82"/><path id="kvg:08dda-s2" kvg:type="&#12757;b" d="M13.11,21.4c8.76-1.68,16.79-3,21.13-3.41c1.58-0.15,2.54,0.89,2.31,1.77c-1.04,4.06-2.15,12.35-3.43,17"/><path id="kvg:08dda-s3" kvg:type="&#12752;b" d="M16.56,39.19c5.09-0.46,11.15-0.84,18.14-1.55"/></g><path id="kvg:08dda-s4" kvg:type="&#12753;a" d="M23.87,40.74c1.09,0.5,1.96,2.23,1.96,3.25c0,5.51,0.28,30.51,0.28,40.5"/><path id="kvg:08dda-s5" kvg:type="&#12752;b" d="M26.38,61.74c3.37-0.49,5.87-1.24,9.35-1.5c1.74-0.13,2.18-0.25,3.26,0"/><path id="kvg:08dda-s6" kvg:type="&#12754;" d="M12.87,54.49c1.09,0.5,1.74,2.25,1.96,3.25c0.22,1,0.42,21.01,0.42,32.76"/><path id="kvg:08dda-s7" kvg:type="&#12736;/&#12751;" d="M10.5,90.07c0.34,0.8,2.87,1.85,3.7,1.4C22.41,87,30.44,82,39.5,76.99"/></g><g id="kvg:08dda-g3" kvg:element="&#20874;" kvg:position="right"><g id="kvg:08dda-g4" kvg:element="&#20866;"><path id="kvg:08dda-s8" kvg:type="&#12753;" d="M46.06,18.34c0.44,1.18,0.74,3.06,0.59,5.17C46.5,25.64,46.8,89.97,46.8,93.5"/><path id="kvg:08dda-s9" kvg:type="&#12742;a" d="M46.65,20.2c8.6-0.7,41.42-3.37,42.53-3.7c2.37-0.71,4.1,1.72,3.84,2.82c-0.44,1.88-0.44,63.39-0.44,68.8c0,10.38-4.83,4.13-7.79,0.91"/></g><g id="kvg:08dda-g5" kvg:element="&#24318;" kvg:variant="true"><g id="kvg:08dda-g6" kvg:element="&#20031;" kvg:variant="true"><path id="kvg:08dda-s10" kvg:type="&#12753;" d="M59.56,22.14c0.83,0.49,1.33,2.21,1.49,3.19c0.17,0.98,0,57.61-0.17,63.74"/></g><g id="kvg:08dda-g7" kvg:element="&#21313;" kvg:part="1" kvg:variant="true"><path id="kvg:08dda-s11" kvg:type="&#12753;" d="M75,20.42c0.83,0.49,1.33,2.21,1.49,3.19c0.17,0.98,0,59.08-0.17,65.21"/></g><g id="kvg:08dda-g8" kvg:element="&#21313;" kvg:part="2" kvg:variant="true"><path id="kvg:08dda-s12" kvg:type="&#12752;" d="M36.25,52.33c1.96,0.47,5.57,0.64,7.53,0.47c12.22-1.05,27.75-3.22,48.59-4.23c3.26-0.16,5.24,0.23,6.88,0.46"/></g></g></g></g></g></svg>