<svg xmlns="http://www.w3.org/2000/svg" width="109" height="109" viewBox="0 0 109 109"><g xmlns:kvg="http://kanjivg.tagaini.net" id="kvg:StrokePaths_08de3" style="fill:none;stroke:#000000;stroke-width:3;stroke-linecap:round;stroke-linejoin:round;"><g id="kvg:08de3" kvg:element="&#36323;"><g id="kvg:08de3-g1" kvg:element="&#36275;" kvg:position="left" kvg:radical="general"><g id="kvg:08de3-g2" kvg:element="&#21475;"><path id="kvg:08de3-s1" kvg:type="&#12753;" d="M13.78,20.71c0.37,0.32,0.75,0.58,0.91,0.97c1.28,3.13,1.85,16.7,2.73,22.32"/><path id="kvg:08de3-s2" kvg:type="&#12757;b" d="M15.61,22.4c8.76-1.68,17.79-2.5,22.13-2.91c1.58-0.15,2.54,0.89,2.31,1.77c-1.04,4.06-2.65,13.35-3.93,18"/><path id="kvg:08de3-s3" kvg:type="&#12752;b" d="M18.06,41.69c5.09-0.46,13.65-0.84,20.64-1.55"/></g><path id="kvg:08de3-s4" kvg:type="&#12753;a" d="M25.87,43.24c1.09,0.5,1.96,2.23,1.96,3.25c0,5.51,0.28,27.01,0.28,37"/><path id="kvg:08de3-s5" kvg:type="&#12752;b" d="M28.38,60.74c3.37-0.49,5.87-1.49,9.35-2c1.72-0.25,2.18-0.25,3.26,0"/><path id="kvg:08de3-s6" kvg:type="&#12754;" d="M15.37,53.99c1.09,0.5,1.74,2.25,1.96,3.25c0.22,1-0.08,19.51-0.08,31.26"/><path id="kvg:08de3-s7" kvg:type="&#12736;/&#12751;" d="M10.5,90.12c1.5,1.13,3.52,0.79,4.39,0.35c8.63-4.32,16.58-8.14,26.11-12.98"/></g><g id="kvg:08de3-g3" kvg:element="&#20808;" kvg:position="right"><g id="kvg:08de3-g4" kvg:position="top"><path id="kvg:08de3-s8" kvg:type="&#12754;" d="M56.76,18.25c0.06,0.73,0.07,1.88-0.13,2.96C54.86,30.64,50.75,40.25,45,47"/><path id="kvg:08de3-s9" kvg:type="&#12752;" d="M55.13,33.11c0.73,0.3,4.21,0.36,4.95,0.3c6.91-0.6,19.16-1.94,26.98-2.87c1.22-0.14,4.09,0.14,4.7,0.29"/><path id="kvg:08de3-s10" kvg:type="&#12753;a" d="M68.81,12.13c0.94,0.87,1.86,3.35,2.01,4.25c0.15,0.9,0.08,30.02-0.07,35.62"/><path id="kvg:08de3-s11" kvg:type="&#12752;" d="M44.38,54.76c1.43,0.52,4.07,0.69,5.5,0.52C60.25,54,81.75,51.5,93.11,51.29c2.39-0.04,3.83,0.25,5.02,0.5"/></g><g id="kvg:08de3-g5" kvg:element="&#20799;" kvg:original="&#20843;" kvg:position="bottom"><g id="kvg:08de3-g6" kvg:element="&#20031;"><path id="kvg:08de3-s12" kvg:type="&#12754;" d="M60.68,56.93c0.57,0.57,0.4,2.29,0.36,3.62C60.75,70,57,91,37.39,95.15"/></g><path id="kvg:08de3-s13" kvg:type="&#12767;" d="M73.24,52.62c0.5,1.25,1.4,2.72,1.43,4.65c0.08,5.26,0.13,19.38,0.13,25.48C74.79,94,76.25,95.03,85,95.03c11,0,11.39-1.78,11.39-9.58"/></g></g></g></g></svg>