<svg xmlns="http://www.w3.org/2000/svg" width="109" height="109" viewBox="0 0 109 109"><g xmlns:kvg="http://kanjivg.tagaini.net" id="kvg:StrokePaths_08dea" style="fill:none;stroke:#000000;stroke-width:3;stroke-linecap:round;stroke-linejoin:round;"><g id="kvg:08dea" kvg:element="&#36330;"><g id="kvg:08dea-g1" kvg:element="&#36275;" kvg:position="left" kvg:radical="general"><g id="kvg:08dea-g2" kvg:element="&#21475;"><path id="kvg:08dea-s1" kvg:type="&#12753;" d="M15.28,21.21c0.37,0.32,0.75,0.58,0.91,0.97c1.28,3.13,2.35,15.2,3.23,20.82"/><path id="kvg:08dea-s2" kvg:type="&#12757;b" d="M17.11,23.4c8.76-1.68,17.79-3,22.13-3.41c1.58-0.15,2.54,0.89,2.31,1.77c-1.04,4.06-2.15,12.35-3.43,17"/><path id="kvg:08dea-s3" kvg:type="&#12752;b" d="M20.06,40.69c5.09-0.46,12.65-0.84,19.64-1.55"/></g><path id="kvg:08dea-s4" kvg:type="&#12753;a" d="M27.87,42.24c1.09,0.5,1.96,2.23,1.96,3.25c0,5.51,0.28,25.51,0.28,35.5"/><path id="kvg:08dea-s5" kvg:type="&#12752;b" d="M30.38,57.74c3.37-0.49,6.87-1.24,10.35-1.5c1.74-0.13,2.18-0.25,3.26,0"/><path id="kvg:08dea-s6" kvg:type="&#12754;" d="M16.37,54.49c1.09,0.5,1.74,2.25,1.96,3.25c0.22,1,0.42,18.51,0.42,30.26"/><path id="kvg:08dea-s7" kvg:type="&#12736;/&#12751;" d="M10,90.25c1,1,3.37,1.44,4.2,0.97c8.21-4.7,18.24-11.46,27.3-16.72"/></g><g id="kvg:08dea-g3" kvg:element="&#21361;" kvg:position="right"><g id="kvg:08dea-g4" kvg:element="&#131210;" kvg:variant="true" kvg:original="&#21241;" kvg:position="top"><path id="kvg:08dea-s8" kvg:type="&#12754;" d="M65.84,12c0.06,0.52,0.12,1.35-0.11,2.11c-1.35,4.45-10.39,14.84-20.21,21.14"/><path id="kvg:08dea-s9" kvg:type="&#12743;" d="M62.67,20.88c0.53,0,2.09-0.14,4.1-0.36c5.25-0.56,15.62-4.09,17.08-4.29c1.74-0.24,2.63,2.07,1.91,3.26c-3.05,5-6.76,9.25-12.68,17.75"/></g><g id="kvg:08dea-g5" kvg:element="&#21380;" kvg:position="bottom"><g id="kvg:08dea-g6" kvg:element="&#21378;" kvg:position="tare"><path id="kvg:08dea-s10" kvg:type="&#12752;" d="M51.58,39.07c0.91,0.41,2.56,0.48,3.47,0.41c12.45-0.98,23.7-2.73,37-3.69c1.52-0.11,2.42,0.2,3.17,0.4"/><path id="kvg:08dea-s11" kvg:type="&#12754;" d="M54.8,40.67c0.03,1.18,0.07,2.55-0.06,4.25C53.98,54.92,52.9,79.5,44.06,89.99"/></g><g id="kvg:08dea-g7" kvg:element="&#21353;"><path id="kvg:08dea-s12" kvg:type="&#12742;" d="M61.98,51.55c0.73,0.14,2.18,0.68,3.63,0.39c5.04-1,20.32-4.06,22.11-4.5c2.93-0.72,4.55,0.79,4.21,3.67C91.25,57,88.5,67.25,85.21,76.66c-2.08,5.95-5.81-0.31-6.35-0.59"/><path id="kvg:08dea-s13" kvg:type="&#12767;/&#12753;" d="M64.45,52.3c0.62,1.36,0.61,2.97,0.64,5.07c0.17,9.38,0.18,19.5,0.18,25.88c0,12.82,2.47,13.21,17.18,13.21c11.55,0,13.19-0.96,13.19-10.46"/></g></g></g></g></g></svg>