<svg xmlns="http://www.w3.org/2000/svg" width="109" height="109" viewBox="0 0 109 109"><g xmlns:kvg="http://kanjivg.tagaini.net" id="kvg:StrokePaths_08de8" style="fill:none;stroke:#000000;stroke-width:3;stroke-linecap:round;stroke-linejoin:round;"><g id="kvg:08de8" kvg:element="&#36328;"><g id="kvg:08de8-g1" kvg:element="&#36275;" kvg:position="left" kvg:radical="general"><g id="kvg:08de8-g2" kvg:element="&#21475;"><path id="kvg:08de8-s1" kvg:type="&#12753;" d="M14.03,18.49c0.74,0.74,0.97,1.64,1.22,2.88c0.54,2.76,1.03,7.86,1.55,12.89c0.2,1.88,0.4,3.76,0.61,5.49"/><path id="kvg:08de8-s2" kvg:type="&#12757;b" d="M15.72,19.94c9.17-1.48,14.73-2.26,19.04-2.76c3.1-0.35,4.49,0.9,3.81,3.95c-0.96,4.29-2.24,10-3.4,14.61"/><path id="kvg:08de8-s3" kvg:type="&#12752;b" d="M18.59,38.07c4.06-0.41,8.48-0.74,13.55-1.13c1.66-0.13,3.39-0.27,5.2-0.41"/></g><path id="kvg:08de8-s4" kvg:type="&#12753;a" d="M26.87,39.49c0.69,0.69,1.21,1.76,1.21,3c0,1.02,0.03,29.01,0.03,37.75"/><path id="kvg:08de8-s5" kvg:type="&#12752;b" d="M28.38,57.74c3.37-0.49,4.87-1.49,8.35-2c1.72-0.25,2.18-0.25,3.26,0"/><path id="kvg:08de8-s6" kvg:type="&#12754;" d="M15.12,55.24c0.94,0.95,1.21,2.51,1.21,4c0,1.02-0.08,13.51-0.08,26.26"/><path id="kvg:08de8-s7" kvg:type="&#12736;/&#12751;" d="M10.5,86.61c0.95,0.95,2.03,1.46,3.83,0.63c10.92-4.99,14.42-6.49,25.67-11.5"/></g><g id="kvg:08de8-g3" kvg:element="&#22840;" kvg:position="right"><g id="kvg:08de8-g4" kvg:element="&#22823;" kvg:position="top"><path id="kvg:08de8-s8" kvg:type="&#12752;" d="M46.41,26.3c2.86,0.16,5.74,0.26,8.59-0.05c11.24-1.25,21.9-2.48,30.25-3.12c2.79-0.37,5.56-0.31,8.33,0.19"/><path id="kvg:08de8-s9" kvg:type="&#12754;" d="M68.08,12.75c0,1-0.05,2.16-0.28,3.28c-2.68,13.41-10.67,27.72-23.15,35.92"/><path id="kvg:08de8-s10" kvg:type="&#12751;" d="M72.75,26c4.59,4.72,12.12,13.5,17.66,18.72c2.42,2.28,3.84,3.41,7.2,5.15"/></g><g id="kvg:08de8-g5" kvg:position="bottom"><g id="kvg:08de8-g6" kvg:element="&#20108;"><g id="kvg:08de8-g7" kvg:position="top"><path id="kvg:08de8-s11" kvg:type="&#12752;" d="M56.84,45.35c1.63,0.23,3.27,0.32,4.91,0.28c4-0.4,9.13-1.16,13.53-1.87c1.78-0.29,3.48-0.58,5.25-0.19"/></g><g id="kvg:08de8-g8" kvg:position="bottom"><path id="kvg:08de8-s12" kvg:type="&#12752;" d="M47.51,58.47c3.15,0.35,6.27,0,9.36-0.53c6.57-0.93,16.43-2.1,23.52-2.97c3.03-0.43,6.08-0.54,9.15-0.32"/></g></g><path id="kvg:08de8-s13" kvg:type="&#12745;" d="M62.38,59.32c0.25,1.18,0,2.06-0.68,3.73c-0.56,1.37-1.17,2.88-2.8,5.43c-1.69,2.64-1.89,4.89,2.13,4.1c5.65-1.1,11.52-2.62,16.96-3.62c4.54-0.84,5.78,0.89,4.95,4.19c-1.74,6.88-4.45,14.24-8.83,20.68c-4.06,5.96-5.6-0.08-7-1.64"/></g></g></g></g></svg>