<svg xmlns="http://www.w3.org/2000/svg" width="109" height="109" viewBox="0 0 109 109"><g xmlns:kvg="http://kanjivg.tagaini.net" id="kvg:StrokePaths_08e47" style="fill:none;stroke:#000000;stroke-width:3;stroke-linecap:round;stroke-linejoin:round;"><g id="kvg:08e47" kvg:element="&#36423;"><g id="kvg:08e47-g1" kvg:position="top"><g id="kvg:08e47-g2" kvg:element="&#23424;" kvg:radical="nelson"><path id="kvg:08e47-s1" kvg:type="&#12753;a" d="M52.73,10.25c0.61,0.34,1.48,1.22,1.46,2.2c-0.04,3.09-0.04,5.32-0.05,8.14"/><g id="kvg:08e47-g3" kvg:element="&#20886;"><path id="kvg:08e47-s2" kvg:type="&#12756;" d="M22.21,20.9c0,3.08-4.31,12.41-5.71,14.46"/><path id="kvg:08e47-s3" kvg:type="&#12758;b" d="M22.32,23.29c1.48,0.07,57.38-3.94,64.85-3.58c11.33,0.54,1.44,7-0.43,7.72"/></g></g><g id="kvg:08e47-g4" kvg:element="&#19977;" kvg:part="1"><g id="kvg:08e47-g5" kvg:element="&#19968;"><path id="kvg:08e47-s4" kvg:type="&#12752;" d="M28,30.97c1.2,0.29,3.9,0.86,5.08,0.79c8.62-0.51,31.92-2.26,42.98-3.33c1.98-0.19,3.19,0.14,4.19,0.28"/></g></g><path id="kvg:08e47-s5" kvg:type="&#12753;" d="M41.81,23.91c0.76,0.35,2.36,2.62,2.51,3.32c0.15,0.7-0.32,12.39,0.18,18.65"/><path id="kvg:08e47-s6" kvg:type="&#12753;" d="M64.81,23.37c0.76,0.35,1.64,2.62,1.51,3.32c-0.75,4.3-0.82,9.7-1.82,17.71"/><g id="kvg:08e47-g6" kvg:element="&#19977;" kvg:part="2"><g id="kvg:08e47-g7" kvg:element="&#19968;"><path id="kvg:08e47-s7" kvg:type="&#12752;" d="M28,38.58c1.25,0.29,3.57,0.42,4.8,0.29C41,38,66.45,35.53,78.36,35.53c2.09,0,3.34,0.14,4.39,0.28"/></g><g id="kvg:08e47-g8" kvg:element="&#19968;"><path id="kvg:08e47-s8" kvg:type="&#12752;" d="M17.5,47.11c1.53,0.44,4.35,0.63,5.86,0.44c8.14-1.04,49.52-3.3,64.04-3.3c2.55,0,4.07,0.21,5.35,0.43"/></g></g><g id="kvg:08e47-g9" kvg:element="&#20843;"><path id="kvg:08e47-s9" kvg:type="&#12754;" d="M42.21,48.97c0.45,0.56-0.01,1.28-0.64,1.89C34.75,57.5,26,64,16.5,67.75"/><path id="kvg:08e47-s10" kvg:type="&#12751;" d="M65,45.3c8.76,6.77,17.85,14.95,24.24,18.21c2.47,1.26,3.36,1.93,5.76,2.34"/></g></g><g id="kvg:08e47-g10" kvg:element="&#36275;" kvg:position="bottom" kvg:radical="tradit"><g id="kvg:08e47-g11" kvg:element="&#21475;"><path id="kvg:08e47-s11" kvg:type="&#12753;" d="M38.95,57.29c0.27,0.26,0.58,0.99,0.67,1.32c0.75,2.78,1.26,6.5,2.16,11.11"/><path id="kvg:08e47-s12" kvg:type="&#12757;b" d="M39.6,58.72c4.75-0.94,26.64-2.66,29.48-2.74c1.18-0.03,1.62,1.23,1.5,1.99c-0.42,2.76-2.03,5.19-2.83,8.85"/><path id="kvg:08e47-s13" kvg:type="&#12752;b" d="M42,68.44c3.34-0.26,23.78-1.28,28.31-1.95"/></g><path id="kvg:08e47-s14" kvg:type="&#12753;a" d="M53.13,69.72c0.45,0.26,1.48,1.44,1.48,1.98c0,3.63,0.4,12.5,0.31,15.82"/><path id="kvg:08e47-s15" kvg:type="&#12752;b" d="M54.7,78.65C55.91,78.65,66.08,77.48,73.51,76.64C75.09,76.46,76.57,76.45,77.81,76.45"/><path id="kvg:08e47-s16" kvg:type="&#12754;" d="M38.7,74.86c0.11,0.6,0.29,1.58-0.23,2.43c-4.79,7.87-8.41,13.45-20.13,21.22"/><path id="kvg:08e47-s17" kvg:type="&#12751;" d="M36.44,81.24C43,81.75,57.5,90.25,80.81,97.36c2.64,0.81,6.22,0.66,8.85,0.89"/></g></g></g></svg>