<svg xmlns="http://www.w3.org/2000/svg" width="109" height="109" viewBox="0 0 109 109"><g xmlns:kvg="http://kanjivg.tagaini.net" id="kvg:StrokePaths_08e64" style="fill:none;stroke:#000000;stroke-width:3;stroke-linecap:round;stroke-linejoin:round;"><g id="kvg:08e64" kvg:element="&#36452;"><g id="kvg:08e64-g1" kvg:element="&#36275;" kvg:position="left" kvg:radical="tradit"><g id="kvg:08e64-g2" kvg:element="&#21475;"><path id="kvg:08e64-s1" kvg:type="&#12753;" d="M11.28,19.1c0.35,0.3,0.71,0.54,0.86,0.91c1.21,2.93,2.21,14.23,3.04,19.49"/><path id="kvg:08e64-s2" kvg:type="&#12757;b" d="M13,20.68c8.24-1.57,15.8-2.81,19.88-3.2c1.49-0.14,2.39,0.83,2.17,1.66c-0.98,3.8-2.02,11.56-3.23,15.91"/><path id="kvg:08e64-s3" kvg:type="&#12752;b" d="M15.78,38.33c4.79-0.43,12.46-1.78,19.03-2.45"/></g><path id="kvg:08e64-s4" kvg:type="&#12753;a" d="M23.37,37.74c1.09,0.5,1.96,2.23,1.96,3.25c0,5.51,0.28,32.01,0.28,42"/><path id="kvg:08e64-s5" kvg:type="&#12752;b" d="M25.88,57.24c3.37-0.49,4.87-1.24,8.35-1.5c1.74-0.13,2.18-0.25,3.26,0"/><path id="kvg:08e64-s6" kvg:type="&#12754;" d="M13.87,52.49c1.09,0.5,1.74,2.25,1.96,3.25c0.22,1,0.42,20.51,0.42,32.26"/><path id="kvg:08e64-s7" kvg:type="&#12736;/&#12751;" d="M10.5,88.57c1,1.18,2.87,1.35,3.7,0.9C22.41,85,30.44,80.5,39.5,75.49"/></g><g id="kvg:08e64-g3" kvg:element="&#24478;" kvg:position="right"><g id="kvg:08e64-g4" kvg:element="&#24435;" kvg:position="left"><path id="kvg:08e64-s8" kvg:type="&#12754;" d="M56.77,14.75c0.04,0.46,0.22,1.28-0.09,1.84c-2.16,3.99-8.67,13.59-15.02,17.66"/><g id="kvg:08e64-g5" kvg:element="&#20155;" kvg:variant="true" kvg:original="&#20154;"><path id="kvg:08e64-s9" kvg:type="&#12754;" d="M58.82,32.25c0.06,0.7,0.29,1.95-0.12,2.81C55.86,41.15,48.03,53.32,38,62"/><path id="kvg:08e64-s10" kvg:type="&#12753;" d="M48.71,55c0.26,0.25,0.77,1.65,0.82,2.16c0.05,0.51,0,35.15-0.05,38.34"/></g></g><g id="kvg:08e64-g6" kvg:position="right"><g id="kvg:08e64-g7" kvg:element="&#20174;" kvg:position="top"><g id="kvg:08e64-g8" kvg:element="&#20154;" kvg:position="left"><path id="kvg:08e64-s11" kvg:type="&#12754;" d="M71.95,14.99c0,0.66,0.03,1.19-0.08,1.99c-0.53,4.15-5.61,18-9.96,24.14"/><path id="kvg:08e64-s12" kvg:type="&#12751;" d="M71.08,27.46c2.34,1.38,5.34,5.06,6.48,8.54"/></g><g id="kvg:08e64-g9" kvg:element="&#20154;" kvg:position="right"><path id="kvg:08e64-s13" kvg:type="&#12754;" d="M89.07,13.99c0,0.71,0.03,1.27-0.08,2.13c-0.54,4.43-5.65,19.2-10.03,25.76"/><path id="kvg:08e64-s14" kvg:type="&#12751;" d="M86.29,28.96c3.72,1.91,8.47,6.98,10.28,11.79"/></g></g><g id="kvg:08e64-g10" kvg:position="bottom"><path id="kvg:08e64-s15" kvg:type="&#12753;" d="M76.37,47c0.28,0.46,0.94,2.48,0.94,3.4c0,6.25,0.26,24.91,0.2,30.63"/><path id="kvg:08e64-s16" kvg:type="&#12752;" d="M94.06,58.42c-0.95,0-2.1,0.01-3.31,0.22c-5.72,0.97-12.24,2.16-13.18,2.16"/><path id="kvg:08e64-s17" kvg:type="&#12754;" d="M65.97,54.81c0.05,0.78,0.38,1.99,0.25,3.13c-1.05,9.81-2.45,22.31-9.99,31.77"/><path id="kvg:08e64-s18" kvg:type="&#12751;" d="M64.36,71.97c7.95,4.34,21.59,17.39,26.78,19.63c1.64,0.71,3.02,1.37,4.61,1.65"/></g></g></g></g></g></svg>