<svg xmlns="http://www.w3.org/2000/svg" width="109" height="109" viewBox="0 0 109 109"><g xmlns:kvg="http://kanjivg.tagaini.net" id="kvg:StrokePaths_08eaf" style="fill:none;stroke:#000000;stroke-width:3;stroke-linecap:round;stroke-linejoin:round;"><g id="kvg:08eaf" kvg:element="&#36527;"><g id="kvg:08eaf-g1" kvg:element="&#36523;" kvg:position="left" kvg:radical="general"><path id="kvg:08eaf-s1" kvg:type="&#12754;" d="M33.59,11.89c0,1.23-0.59,2.25-1.13,3.28c-1.97,3.08-4.34,6.08-8.28,10.05"/><path id="kvg:08eaf-s2" kvg:type="&#12753;a" d="M21.58,25.25c0.83,0.83,0.77,1.88,0.77,3.25c0,1.01-0.1,29.12-0.1,36"/><path id="kvg:08eaf-s3" kvg:type="&#12742;a" d="M23.24,26.84c5.64-0.71,10.89-1.96,13.64-2.36c2.52-0.36,3.58,0.62,3.58,3.52c0,12.38-0.08,49.89-0.08,61c0,10.33-4.5,5-7.51,2"/><path id="kvg:08eaf-s4" kvg:type="&#12752;a" d="M23.71,39c4.04-0.5,14-1.5,15.83-1.75"/><path id="kvg:08eaf-s5" kvg:type="&#12752;a" d="M23.6,49.75c5.9-0.5,10.1-1.25,15.69-1.75"/><path id="kvg:08eaf-s6" kvg:type="&#12736;" d="M15.65,66.68c1.23,0.95,2.35,0.82,4.04,0.16c6.09-2.39,8.31-3.21,18.22-7.34"/><path id="kvg:08eaf-s7" kvg:type="&#12754;" d="M48.06,49c0.19,1.38,0.03,2.66-1,4.02C38.12,64.75,27.88,76.38,11.28,87"/></g><g id="kvg:08eaf-g2" kvg:element="&#21306;" kvg:position="right"><g id="kvg:08eaf-g3" kvg:element="&#21274;" kvg:part="1" kvg:position="kamae"><path id="kvg:08eaf-s8" kvg:type="&#12752;" d="M52.4,22.25c3,0.3,5.99,0.26,8.97-0.12c9.75-1.25,19.13-1.82,26.87-2.46c2.59-0.35,5.19-0.36,7.8-0.02"/></g><g id="kvg:08eaf-g4" kvg:element="&#20034;"><g id="kvg:08eaf-g5" kvg:element="&#20031;"><path id="kvg:08eaf-s9" kvg:type="&#12754;" d="M86.91,29.15c0.34,1.48,0.41,2.74-0.29,4.93C80.38,53.75,74.38,69.12,61.3,81.17"/></g><path id="kvg:08eaf-s10" kvg:type="&#12756;/&#12751;" d="M62.05,39.75c10.7,7.5,23.08,25.88,27.39,39.12"/></g><g id="kvg:08eaf-g6" kvg:element="&#21274;" kvg:part="2" kvg:position="kamae"><path id="kvg:08eaf-s11" kvg:type="&#12759;" d="M54.14,22.73c0.88,0.88,1,1.9,1,3.52c0,14.64,0,59.96,0,63.11c0,3.26,0.58,4.3,3.99,3.71c11.12-1.94,21.37-2.81,33.23-3.55c2.29-0.14,4.24,0.16,5.65,0.65"/></g></g></g></g></svg>