<svg xmlns="http://www.w3.org/2000/svg" width="109" height="109" viewBox="0 0 109 109"><g xmlns:kvg="http://kanjivg.tagaini.net" id="kvg:StrokePaths_08eab" style="fill:none;stroke:#000000;stroke-width:3;stroke-linecap:round;stroke-linejoin:round;"><g id="kvg:08eab" kvg:element="&#36523;" kvg:radical="general"><path id="kvg:08eab-s1" kvg:type="&#12754;" d="M53.03,9.64c0.21,1.1,0.09,1.85-0.52,2.87c-1.82,3.01-3.19,5.09-7.77,9.92"/><path id="kvg:08eab-s2" kvg:type="&#12753;a" d="M34.87,24c1.06,1.06,1.46,2.48,1.46,3.5c0,3.88,0.28,27.25,0.28,36.75"/><path id="kvg:08eab-s3" kvg:type="&#12742;a" d="M37.07,25.59c5.22-0.84,25.49-3.39,29.71-4.11c2.84-0.48,4.47,1.14,4.47,3.77c0,12.39-0.16,55.81-0.16,66.93c0,11.08-6.59,3.83-8.61,1.82"/><path id="kvg:08eab-s4" kvg:type="&#12752;a" d="M37.5,37.25c8.62-1.25,27.38-3.62,32.5-4"/><path id="kvg:08eab-s5" kvg:type="&#12752;a" d="M37.75,49.75c6.75-1,25.74-4.25,32-4.5"/><path id="kvg:08eab-s6" kvg:type="&#12736;" d="M18.57,68.07c1.66,1.39,2.8,1.56,5.93,0.68c10.25-2.88,38.88-11.12,45.75-13.25"/><path id="kvg:08eab-s7" kvg:type="&#12754;" d="M90.25,37.5c0.12,1.62-0.13,3.19-1.5,5.25C79.25,57,46.5,82,26.25,89.25"/></g></g></svg>