<svg xmlns="http://www.w3.org/2000/svg" width="109" height="109" viewBox="0 0 109 109"><g xmlns:kvg="http://kanjivg.tagaini.net" id="kvg:StrokePaths_08f1f" style="fill:none;stroke:#000000;stroke-width:3;stroke-linecap:round;stroke-linejoin:round;"><g id="kvg:08f1f" kvg:element="&#36639;"><g id="kvg:08f1f-g1" kvg:element="&#36554;" kvg:position="left" kvg:radical="general"><path id="kvg:08f1f-s1" kvg:type="&#12752;" d="M10.25,26c1.03,0.38,2.93,0.45,3.96,0.38C23.75,25.75,28.75,26,37.39,25c1.71-0.2,2.75,0.18,3.61,0.37"/><path id="kvg:08f1f-s2" kvg:type="&#12753;" d="M11.75,37.51c0.47,0.52,1.06,0.92,1.15,1.62c0.63,5.02,2.37,17.38,3.26,26.88"/><path id="kvg:08f1f-s3" kvg:type="&#12757;a" d="M13.54,38.41c7.09-1.01,20.06-2.01,24.9-2.17c2-0.06,2.41,1.37,2.33,2.95c-0.29,5.4-0.98,15.97-3.08,24.62"/><path id="kvg:08f1f-s4" kvg:type="&#12752;a" d="M14.69,50.43c7.27-0.72,17.26-1.33,24.41-1.91"/><path id="kvg:08f1f-s5" kvg:type="&#12752;a" d="M16.19,63.44c6.21-1.04,13.83-0.87,21.49-1.67"/><path id="kvg:08f1f-s6" kvg:type="&#12752;" d="M8.5,75.65c1.39,0.46,3.94,0.6,5.34,0.46c10.04-1.07,16.54-1.46,23.96-1.9c2.31-0.14,4.04-0.08,5.2,0.15"/><path id="kvg:08f1f-s7" kvg:type="&#12753;" d="M24.56,11.63c0.76,0.6,2.36,4.47,2.51,5.66c0.15,1.19-0.1,73.13-0.25,80.59"/></g><g id="kvg:08f1f-g2" kvg:position="right"><g id="kvg:08f1f-g3" kvg:position="top"><g id="kvg:08f1f-g4" kvg:element="&#21448;" kvg:position="left"><path id="kvg:08f1f-s8" kvg:type="&#12743;" d="M45.82,20.56c0.24,0.03,1.54,0.26,2.22,0.19c3.07-0.33,11.18-1.57,14.4-2.41c2.21-0.58,2.83,0.66,2.27,2.24C61.62,29.2,58,40,46,50.5"/><path id="kvg:08f1f-s9" kvg:type="&#12756;/&#12751;" d="M48.15,29.49c5.57,3.43,11.75,9.74,14.49,15.11"/></g><g id="kvg:08f1f-g5" kvg:element="&#21448;" kvg:position="right"><path id="kvg:08f1f-s10" kvg:type="&#12743;" d="M71.32,18.81c0.24,0.03,1.54,0.26,2.22,0.19c3.07-0.33,10.68-1.57,13.9-2.41c2.21-0.58,2.83,0.66,2.27,2.24c-3.09,8.63-9.46,21.93-22.21,30.43"/><path id="kvg:08f1f-s11" kvg:type="&#12756;/&#12751;" d="M70.14,28.74c7.49,3.88,15.8,11.03,19.49,17.11"/></g></g><g id="kvg:08f1f-g6" kvg:position="bottom"><g id="kvg:08f1f-g7" kvg:element="&#21448;" kvg:position="left"><path id="kvg:08f1f-s12" kvg:type="&#12743;" d="M45.07,59.56c0.24,0.03,1.54,0.26,2.22,0.19c3.07-0.33,11.68-2.07,14.9-2.91c2.21-0.58,2.83,0.66,2.27,2.24C61.37,67.7,54,83.75,38.75,94.5"/><path id="kvg:08f1f-s13" kvg:type="&#12756;/&#12751;" d="M46.89,67.99c6.14,3.66,12.96,10.39,15.99,16.11"/></g><g id="kvg:08f1f-g8" kvg:element="&#21448;" kvg:position="right"><path id="kvg:08f1f-s14" kvg:type="&#12743;" d="M70.13,58.61c0.38,0.04,2.43,0.35,3.52,0.25c4.86-0.45,9.24-1.59,14.34-2.72c3.5-0.77,4.49,0.88,3.6,2.99C86.69,70.64,77,85.75,60.75,95.25"/><path id="kvg:08f1f-s15" kvg:type="&#12751;" d="M69.75,64.75c3.5,4.72,19.37,22.65,24.08,26.96c1.41,1.29,2.55,1.91,3.92,2.29"/></g></g></g></g></g></svg>