<svg xmlns="http://www.w3.org/2000/svg" width="109" height="109" viewBox="0 0 109 109"><g xmlns:kvg="http://kanjivg.tagaini.net" id="kvg:StrokePaths_08f14" style="fill:none;stroke:#000000;stroke-width:3;stroke-linecap:round;stroke-linejoin:round;"><g id="kvg:08f14" kvg:element="&#36628;"><g id="kvg:08f14-g1" kvg:element="&#36554;" kvg:position="left" kvg:radical="general"><path id="kvg:08f14-s1" kvg:type="&#12752;" d="M14.83,26.05c2.3,0.57,4.07,0.56,6.06,0.34c4.9-0.54,13.09-1.91,19.76-2.77c1.71-0.22,3.84-0.88,5.53-0.28"/><path id="kvg:08f14-s2" kvg:type="&#12753;" d="M15.06,39.92c0.82,0.82,1.14,1.56,1.33,2.81c0.74,4.74,1.78,11.91,2.7,18.25c0.3,2.04,0.58,4.01,0.84,5.77"/><path id="kvg:08f14-s3" kvg:type="&#12757;a" d="M17.02,41.51c8-1.76,19.88-3.5,25.99-3.99c3.54-0.29,4.74,0.44,4.44,4.13c-0.33,4.05-1.4,10.39-2.56,16.49c-0.33,1.76-0.68,3.49-1.01,5.15"/><path id="kvg:08f14-s4" kvg:type="&#12752;a" d="M18.73,52.07c7.8-1.13,15.37-2.28,26.4-3.07"/><path id="kvg:08f14-s5" kvg:type="&#12752;a" d="M20.98,64.14c5.7-0.64,13.82-1.66,22.15-2.48"/><path id="kvg:08f14-s6" kvg:type="&#12752;" d="M12.03,78.71c2.26,0.53,4.37,0.06,6.61-0.31c7.55-1.24,17.93-3,24.75-3.74c2.34-0.25,4.62-0.41,7.09-0.08"/><path id="kvg:08f14-s7" kvg:type="&#12753;" d="M30.55,12.38c0.91,0.91,1.23,1.99,1.23,3.65c0,0.97-0.03,53.71-0.03,74.72c0,3.76,0,6.5,0,7.75"/></g><g id="kvg:08f14-g2" kvg:element="&#29995;" kvg:position="right"><path id="kvg:08f14-s8" kvg:type="&#12752;" d="M53.5,30.31c2.62,0.56,5.3,0.1,7.52-0.17c6.67-0.79,17.72-2.31,25.22-3.03c2.29-0.22,4.53-0.49,6.76,0.18"/><g id="kvg:08f14-g3" kvg:element="&#29992;" kvg:variant="true"><path id="kvg:08f14-s9" kvg:type="&#12753;" d="M55.19,42.53c0.89,0.89,1.23,2.22,1.23,3.63c0,0.58,0.04,28.1,0.06,42.47c0.01,3.65,0.01,6.45,0.01,7.74"/><path id="kvg:08f14-s10" kvg:type="&#12742;" d="M57.4,44.65c8.31-1.2,24.58-3.35,30.11-3.93c3.37-0.35,5.04,0.45,5.04,4.03c0,5.87-0.04,37.12-0.04,43.5c0,11.57-5.38,3.88-7.39,1.98"/><path id="kvg:08f14-s11" kvg:type="&#12752;" d="M57.65,58.69c9.1-1.19,27.86-2.48,33.76-2.97"/><path id="kvg:08f14-s12" kvg:type="&#12752;" d="M58.06,73.36c6.32-0.73,25.32-2.73,33.07-2.98"/><path id="kvg:08f14-s13" kvg:type="&#12753;" d="M72.15,13.04c1.03,1.03,1.09,2.21,1.09,4.22c0,0.96-0.08,49.54-0.11,70.37c-0.01,4.23-0.01,7.31-0.01,8.62"/></g><g id="kvg:08f14-g4" kvg:element="&#20022;"><path id="kvg:08f14-s14" kvg:type="&#12756;" d="M85.5,11.88c2.96,1.39,7.65,5.71,8.39,7.87"/></g></g></g></g></svg>