<svg xmlns="http://www.w3.org/2000/svg" width="109" height="109" viewBox="0 0 109 109"><g xmlns:kvg="http://kanjivg.tagaini.net" id="kvg:StrokePaths_08f57" style="fill:none;stroke:#000000;stroke-width:3;stroke-linecap:round;stroke-linejoin:round;"><g id="kvg:08f57" kvg:element="&#36695;"><g id="kvg:08f57-g1" kvg:element="&#36554;" kvg:position="left" kvg:radical="general"><path id="kvg:08f57-s1" kvg:type="&#12752;" d="M9.58,25.8c1.67,0.7,3.72,0.9,4.34,0.86c7.34-0.42,16-0.73,24.63-1.68c1.01-0.11,1.62,0.17,2.13,0.35"/><path id="kvg:08f57-s2" kvg:type="&#12753;" d="M11.06,36.27c0.33,0.47,0.76,0.84,0.82,1.46c0.45,4.53,1.69,15.7,2.33,24.28"/><path id="kvg:08f57-s3" kvg:type="&#12757;a" d="M12.35,38.35c6.41-0.84,20.1-2.84,24.48-2.97c1.81-0.05,2.18,1.14,2.1,2.46c-0.27,4.5-0.87,14.88-2.31,22.26"/><path id="kvg:08f57-s4" kvg:type="&#12752;a" d="M13.27,48.4c7.75-0.71,13.8-1.24,24.75-1.74"/><path id="kvg:08f57-s5" kvg:type="&#12752;a" d="M14.25,59.85c6.13-0.38,13.37-1.53,22.33-2.02"/><path id="kvg:08f57-s6" kvg:type="&#12752;" d="M8.03,72.71C9,73,10.97,73.64,11.86,73.68C18,74,28.5,72,36.68,71.12c1.44-0.16,2.32,0.22,3.04,0.46"/><path id="kvg:08f57-s7" kvg:type="&#12753;" d="M23.3,13.13c0.45,0.57,1.89,2.26,1.98,3.4c0.09,1.14-0.06,73.25-0.15,80.35"/></g><g id="kvg:08f57-g2" kvg:element="&#24863;" kvg:position="right"><g id="kvg:08f57-g3" kvg:element="&#21688;" kvg:position="top"><g id="kvg:08f57-g4" kvg:element="&#25101;" kvg:part="1" kvg:variant="true" kvg:original="&#25100;"><g id="kvg:08f57-g5" kvg:element="&#21378;" kvg:part="1"><path id="kvg:08f57-s8" kvg:type="&#12754;" d="M48.99,26.23c0.03,0.98,0.65,2.15,0.59,3.56c-0.5,11.96-1.15,27.46-7.83,36.99"/></g><g id="kvg:08f57-g6" kvg:element="&#25096;" kvg:part="1"><g id="kvg:08f57-g7" kvg:element="&#24331;" kvg:part="1"><g id="kvg:08f57-g8" kvg:element="&#21378;" kvg:part="2"><path id="kvg:08f57-s9" kvg:type="&#12752;" d="M46.96,25.86c1.19,0.15,3.4,0.22,4.57,0.15c4.83-0.29,25.93-1.75,35.88-2.54c1.95-0.16,3.78-0.07,4.78,0"/></g></g><g id="kvg:08f57-g9" kvg:element="&#19968;"><path id="kvg:08f57-s10" kvg:type="&#12752;" d="M53.77,37.68c0.83,0.15,2.89-0.02,3.71-0.07c2.94-0.2,6.73-0.89,9.42-1.02c1.38-0.07,2.57-0.12,3.26-0.05"/></g></g></g><g id="kvg:08f57-g10" kvg:element="&#21475;"><path id="kvg:08f57-s11" kvg:type="&#12753;" d="M52.79,46.18c0.29,0.3,0.59,0.56,0.72,0.93c1.01,3,2.2,8.62,2.89,14.02"/><path id="kvg:08f57-s12" kvg:type="&#12757;b" d="M55.11,46.9c5.95-1.18,8.98-1.03,12.39-1.42c1.25-0.14,1.99,0.85,1.82,1.7c-0.74,3.51-0.76,5.8-1.85,10.65"/><path id="kvg:08f57-s13" kvg:type="&#12752;b" d="M56.23,59.35c4-0.45,8.52-0.85,12.98-1.14"/></g><g id="kvg:08f57-g11" kvg:element="&#25101;" kvg:part="2" kvg:variant="true" kvg:original="&#25100;"><g id="kvg:08f57-g12" kvg:element="&#25096;" kvg:part="2"><g id="kvg:08f57-g13" kvg:element="&#24331;" kvg:part="2"><path id="kvg:08f57-s14" kvg:type="&#12738;" d="M69.55,10.97c0.97,1.14,1.76,1.67,2.01,4.1C73.79,36.77,80,54.75,92.51,62.81c3.91,2.52,3.22,0.91,2.73-4.15"/></g><g id="kvg:08f57-g14" kvg:element="&#20031;"><path id="kvg:08f57-s15" kvg:type="&#12754;" d="M89.81,33.64c0.05,0.68,0.11,1.76-0.11,2.73C88.35,42.13,80.86,55.26,70.25,63"/></g><g id="kvg:08f57-g15" kvg:element="&#24331;" kvg:part="3"><g id="kvg:08f57-g16" kvg:element="&#20022;"><path id="kvg:08f57-s16" kvg:type="&#12756;" d="M80.5,11.5c2.58,1.13,6.7,3.71,7.9,5.64"/></g></g></g></g></g><g id="kvg:08f57-g17" kvg:element="&#24515;" kvg:position="bottom"><path id="kvg:08f57-s17" kvg:type="&#12756;" d="M47,76.75c0.26,2.14-2.63,11.61-4.74,15.18"/><path id="kvg:08f57-s18" kvg:type="&#12767;b" d="M53.5,71.25c8.57,16.34,16.9,23,30.33,23c8.42,0,6.87-3.84,2-7.84"/><path id="kvg:08f57-s19" kvg:type="&#12756;a" d="M69.58,73.9c3.07,7.64,5.25,6.49,5.94,2.47"/><path id="kvg:08f57-s20" kvg:type="&#12756;" d="M85.5,72.75c5.04,2.53,8.29,4.99,12.25,9.11"/></g></g></g></g></svg>