<svg xmlns="http://www.w3.org/2000/svg" width="109" height="109" viewBox="0 0 109 109"><g xmlns:kvg="http://kanjivg.tagaini.net" id="kvg:StrokePaths_08fb6" style="fill:none;stroke:#000000;stroke-width:3;stroke-linecap:round;stroke-linejoin:round;"><g id="kvg:08fb6" kvg:element="&#36790;" kvg:radical="tradit"><path id="kvg:08fb6-s1" kvg:type="&#12756;" d="M19.38,16c4.19,1.74,10.83,7.17,11.88,9.88"/><path id="kvg:08fb6-s2" kvg:type="&#12756;" d="M13.38,35.75c4.46,1.52,11.51,6.26,12.62,8.63"/><path id="kvg:08fb6-s3" kvg:type="&#12747;" d="M11.5,58.19c2.25,0.85,3.78,0.54,4.75,0.21C20.38,57,26,55.16,27.5,54.74c1.5-0.43,2.83,1.2,2,2.6c-7.88,13.29-8.62,7.79-0.5,16.98c0.98,1.11,0.75,2.1-0.75,3.17c-1.5,1.07-6.5,3.65-11.12,6.02"/><path id="kvg:08fb6-s4" kvg:type="&#12751;a" d="M11.25,85.38c3.05-0.38,9.08-0.74,13.72-0.58c8.91,0.32,31.59,5.75,36.05,6.91C73.25,94.88,79,95.62,89.5,95.57"/></g></g></svg>