<svg xmlns="http://www.w3.org/2000/svg" width="109" height="109" viewBox="0 0 109 109"><g xmlns:kvg="http://kanjivg.tagaini.net" id="kvg:StrokePaths_08fd4" style="fill:none;stroke:#000000;stroke-width:3;stroke-linecap:round;stroke-linejoin:round;"><g id="kvg:08fd4" kvg:element="&#36820;"><g id="kvg:08fd4-g1" kvg:element="&#21453;" kvg:phon="&#21453;"><g id="kvg:08fd4-g2" kvg:element="&#21378;"><path id="kvg:08fd4-s1" kvg:type="&#12752;" d="M47.29,21.2c2.34,0.68,5.1,0.4,7.36,0.13c7.2-0.88,15.44-3.19,22.73-3.69c2.12-0.15,4.28-0.19,6.36,0.32"/><path id="kvg:08fd4-s2" kvg:type="&#12754;" d="M49.86,21.63c0.94,0.94,1.26,2.36,1.18,4.1c-0.92,19.77-3.92,34.02-13.2,47"/></g><g id="kvg:08fd4-g3" kvg:element="&#21448;"><path id="kvg:08fd4-s3" kvg:type="&#12743;" d="M54.16,38.25c1.24,0.29,2.39,0.48,4.87,0.04c2.48-0.44,15.15-3.97,16.85-4.4c1.7-0.44,3.66,1.09,3.07,2.7C72.5,54.38,62.88,69.62,44.91,77.51"/><path id="kvg:08fd4-s4" kvg:type="&#12751;" d="M54.14,47.38c3.21,0.65,17.21,16.04,28.92,24.68c2.48,1.83,5.25,3.99,8.32,4.7"/></g></g><g id="kvg:08fd4-g4" kvg:element="&#11980;" kvg:original="&#36790;" kvg:position="nyo" kvg:radical="general"><path id="kvg:08fd4-s5" kvg:type="&#12756;" d="M18.71,22.5c3.63,1.39,9.38,5.72,10.29,7.88"/><path id="kvg:08fd4-s6" kvg:type="&#12747;" d="M14.75,51.5c2.25,1,3.75,0.5,4.75,0.25s7.75-3.25,9.25-3.75c3.7-1.23,4.4,0.75,1.61,3.96c-9.49,10.91-7.99,8.54-1.11,14.54c1.93,1.69,0.77,4.27-0.75,5.5c-3.88,3.12-10.25,8.62-12.75,10.5"/><path id="kvg:08fd4-s7" kvg:type="&#12751;a" d="M12.25,84.25c4.38-1,10.5-1.5,15-0.5s29.99,6.04,34.5,7c11.12,2.38,20.38,3.25,28.16,3.8"/></g></g></g></svg>