<svg xmlns="http://www.w3.org/2000/svg" width="109" height="109" viewBox="0 0 109 109"><g xmlns:kvg="http://kanjivg.tagaini.net" id="kvg:StrokePaths_08fe9" style="fill:none;stroke:#000000;stroke-width:3;stroke-linecap:round;stroke-linejoin:round;"><g id="kvg:08fe9" kvg:element="&#36841;"><g id="kvg:08fe9-g1" kvg:element="&#23571;"><g id="kvg:08fe9-g2" kvg:position="top"><g id="kvg:08fe9-g3" kvg:element="&#20031;"><path id="kvg:08fe9-s1" kvg:type="&#12754;" d="M53.4,12.14c0.05,0.7,0.11,1.81-0.1,2.81c-1.25,5.92-8.42,18.92-18.24,26.87"/></g><path id="kvg:08fe9-s2" kvg:type="&#12752;" d="M52.43,27.34c2.07,0.16,3.43,0.55,4.81,0.46c8.3-0.58,17.76-2.05,27.11-2.63c2.3-0.14,3.7,0.17,4.85,0.35"/></g><g id="kvg:08fe9-g4" kvg:element="&#23567;" kvg:position="bottom"><path id="kvg:08fe9-s3" kvg:type="&#12762;" d="M66.7,30.21c0.07,0.38,1,1.99,1.08,4.41c0.34,11.63,0.36,37.49,0.36,41.46c0,8.99-6.17,1.2-7.46,0.2"/><path id="kvg:08fe9-s4" kvg:type="&#12754;" d="M53.33,44.44c0.03,0.6,0.15,1.56-0.07,2.41c-1.51,5.9-5.55,16.21-12.02,23.03"/><path id="kvg:08fe9-s5" kvg:type="&#12756;" d="M79.07,45.19c4.74,4.36,12.25,17.91,13.43,24.69"/></g></g><g id="kvg:08fe9-g5" kvg:element="&#11980;" kvg:original="&#36790;" kvg:position="nyo" kvg:radical="tradit"><path id="kvg:08fe9-s6" kvg:type="&#12756;" d="M18.96,19c3.9,1.61,10.07,6.63,11.04,9.13"/><path id="kvg:08fe9-s7" kvg:type="&#12747;" d="M14,54.97c2.38,0.93,3.97,0.46,5.03,0.23c1.06-0.23,8.46-3.25,10.05-3.71s3.97,1.16,2.91,2.55c-1.06,1.39-5.23,6.73-6.03,7.89c-0.79,1.16-0.75,3.5,1.06,4.87c2.23,1.7,4.41,3.48,5.2,4.87c0.79,1.39,1.38,2.68-0.29,3.71C28.5,77.5,21.75,81.75,15.82,85"/><path id="kvg:08fe9-s8" kvg:type="&#12751;a" d="M12.75,85.3c3-0.41,9-1.45,13.5-0.62s30.07,6.37,34.5,7.44C72.75,95.02,82,95.84,91,94.4"/></g></g></g></svg>