<svg xmlns="http://www.w3.org/2000/svg" width="109" height="109" viewBox="0 0 109 109"><g xmlns:kvg="http://kanjivg.tagaini.net" id="kvg:StrokePaths_0900f" style="fill:none;stroke:#000000;stroke-width:3;stroke-linecap:round;stroke-linejoin:round;"><g id="kvg:0900f" kvg:element="&#36879;"><g id="kvg:0900f-g1" kvg:element="&#31168;"><g id="kvg:0900f-g2" kvg:element="&#31166;" kvg:position="top"><g id="kvg:0900f-g3" kvg:element="&#20031;" kvg:position="top"><path id="kvg:0900f-s1" kvg:type="&#12754;" d="M73.46,12.25c-0.21,0.88-0.41,1.3-0.97,1.67c-4.12,2.71-10.51,5.51-23.74,8.64"/></g><g id="kvg:0900f-g4" kvg:element="&#26408;" kvg:position="bottom"><path id="kvg:0900f-s2" kvg:type="&#12752;" d="M39.82,32.17c1.99,0.68,4.27,0.32,6.3,0.13c7.85-0.7,24.75-2.93,36.12-3.7c2.19-0.15,4.62-0.33,6.76,0.11"/><path id="kvg:0900f-s3" kvg:type="&#12753;" d="M62.66,21.06c0.89,0.89,1.17,2.07,1.17,3.55c0,0.65-0.07,12.64-0.07,20.39c0,1.76,0.02,3.08-0.01,4"/><path id="kvg:0900f-s4" kvg:type="&#12754;" d="M61.72,31.47c0,1.78-0.99,2.79-2.14,4.28C54.75,42.04,47.55,47.49,37.9,52.2"/><path id="kvg:0900f-s5" kvg:type="&#12751;" d="M65,31.5c3.75,3.12,12.38,9.5,20.61,14.32c2.28,1.34,4.51,2.93,6.99,3.8"/></g></g><g id="kvg:0900f-g5" kvg:element="&#20035;" kvg:position="bottom"><g id="kvg:0900f-g6" kvg:element="&#20031;"><path id="kvg:0900f-s6" kvg:type="&#12754;" d="M59.05,57.5c0.07,1,0.05,2.06-0.38,2.93C55.75,66.25,49.75,75,40.5,80.4"/></g><path id="kvg:0900f-s7" kvg:type="&#12748;" d="M49.89,55c1.79,0.6,3.78,0.28,5.61,0.13c6.36-0.53,11.72-1.32,17.76-2.36c2.98-0.52,3.93,0.7,2.65,2.68c-7.96,12.24-9.01,11.17,3.6,8.5c2.11-0.45,3.45,0.44,2.83,2.46c-2.1,6.84-3.85,10.72-8.05,16c-2.48,3.11-5.57,1.05-6.64-0.42"/></g></g><g id="kvg:0900f-g7" kvg:element="&#11980;" kvg:original="&#36790;" kvg:position="nyo" kvg:radical="tradit"><path id="kvg:0900f-s8" kvg:type="&#12756;" d="M17.96,17.75c3.54,1.83,9.16,7.53,10.04,10.38"/><path id="kvg:0900f-s9" kvg:type="&#12747;" d="M12.5,55.03c2.25,0.94,3.79,0.6,4.75,0.24C20.62,54,25.12,52,27.75,51c1.47-0.56,2.88,1.1,2,2.59c-7.5,12.66-7,8.16,0.5,15.4c1.15,1.11,1.03,2.11-0.25,3.52c-2.5,2.74-8.12,8.24-11.5,10.99"/><path id="kvg:0900f-s10" kvg:type="&#12751;a" d="M14.5,84.33c2.93-0.42,8.97-0.16,13.45-0.13c8.93,0.06,29.4,6.52,33.73,7.61c11.73,2.96,16.57,3.45,27.07,3.58"/></g></g></g></svg>