<svg xmlns="http://www.w3.org/2000/svg" width="109" height="109" viewBox="0 0 109 109"><g xmlns:kvg="http://kanjivg.tagaini.net" id="kvg:StrokePaths_09016" style="fill:none;stroke:#000000;stroke-width:3;stroke-linecap:round;stroke-linejoin:round;"><g id="kvg:09016" kvg:element="&#36886;"><g id="kvg:09016-g1" kvg:element="&#29380;"><g id="kvg:09016-g2" kvg:element="&#11944;" kvg:variant="true" kvg:original="&#29356;" kvg:position="left"><path id="kvg:09016-s1" kvg:type="&#12754;" d="M54.54,16.1c0.05,0.45-0.12,1.71-0.45,2.2c-4.26,6.22-8.24,10.24-18.59,16.97"/><path id="kvg:09016-s2" kvg:type="&#12757;va" d="M39.29,18.63C62.75,36.75,55,91.5,41.83,75.57"/><path id="kvg:09016-s3" kvg:type="&#12754;" d="M49.28,39.76c0.04,0.54,0.19,1.58-0.08,2.17c-3.42,7.44-6.89,12.7-15.2,20.74"/></g><g id="kvg:09016-g3" kvg:element="&#28779;" kvg:position="right"><path id="kvg:09016-s4" kvg:type="&#12756;" d="M57.66,31.99c2.66,2.75,7.02,11.9,7.74,14.65"/><path id="kvg:09016-s5" kvg:type="&#12754;" d="M91.45,27.76c0.23,1.25,0.01,2.79-0.61,3.93c-0.62,1.13-6.79,9.67-9.88,12.32"/><path id="kvg:09016-s6" kvg:type="&#12754;" d="M73.76,15.25c0.68,0.62,0.82,2.29,0.82,3.33c-0.14,41.38-7.25,50.73-18.04,60.92"/><path id="kvg:09016-s7" kvg:type="&#12751;" d="M73.4,45.48C80.4,58.77,88.9,72.27,93.52,77.8c1.45,1.74,1.79,1.55,2.98,1.99"/></g></g><g id="kvg:09016-g4" kvg:element="&#36790;" kvg:position="nyo" kvg:radical="general"><path id="kvg:09016-s8" kvg:type="&#12756;" d="M17.96,15.25C22.21,17.04,28.94,22.6,30,25.38"/><path id="kvg:09016-s9" kvg:type="&#12756;" d="M14.46,34.75c4.34,1.66,11.21,6.81,12.29,9.38"/><path id="kvg:09016-s10" kvg:type="&#12747;" d="M12,58.44c2.25,0.85,3.75,0.43,4.75,0.21c1-0.21,7-2.99,8.5-3.42c1.5-0.43,3.75,1.07,2.75,2.35s-4,6.19-4.75,7.26c-0.75,1.07-0.5,2.99,1,4.48s3.25,1.7,4,2.98C29,73.59,29,74.66,27.5,75.73c-1.5,1.07-8.5,6.54-10,6.97"/><path id="kvg:09016-s11" kvg:type="&#12751;" d="M12.25,84.04c2.99-0.46,8.97-1.59,13.46-0.68c4.48,0.91,29.98,7.03,34.39,8.21c11.96,3.19,21.18,4.1,30.15,2.51"/></g></g></g></svg>