<svg xmlns="http://www.w3.org/2000/svg" width="109" height="109" viewBox="0 0 109 109"><g xmlns:kvg="http://kanjivg.tagaini.net" id="kvg:StrokePaths_09031" style="fill:none;stroke:#000000;stroke-width:3;stroke-linecap:round;stroke-linejoin:round;"><g id="kvg:09031" kvg:element="&#36913;"><g id="kvg:09031-g1" kvg:element="&#21608;" kvg:phon="&#21608;"><g id="kvg:09031-g2" kvg:element="&#20866;" kvg:variant="true"><path id="kvg:09031-s1" kvg:type="&#12754;/&#12753;" d="M45.93,17.66c1.02,1.02,1.67,2.55,1.67,4.3c0,21.04,2.53,45.54-8.1,58.79"/><path id="kvg:09031-s2" kvg:type="&#12742;a" d="M48.49,18.95c9.79-1.25,32.29-4.39,33.41-4.45c4.34-0.24,5.42,1.26,5.42,5.64c0,1.93,0.17,52.16,0.17,56.6c0,9.53-5.28,4.86-8.4,1.69"/></g><g id="kvg:09031-g3" kvg:element="&#21513;"><g id="kvg:09031-g4" kvg:element="&#22763;"><path id="kvg:09031-s3" kvg:type="&#12752;" d="M55.43,31.42c0.83,0.25,2.88,0.54,3.72,0.51c4.54-0.18,13.51-1.92,16.84-2.23c1.39-0.13,2.22-0.07,2.91,0.03"/><path id="kvg:09031-s4" kvg:type="&#12753;a" d="M65.84,22.3c0.99,0.99,1.51,2.32,1.51,3.39c0,3.19-0.07,10.44-0.07,16.81"/><path id="kvg:09031-s5" kvg:type="&#12752;" d="M53.61,44.53c1,0.35,2.64,0.41,4.31,0.23C65,44,70.38,43.38,77.01,42.4c1.84-0.27,3.25-0.4,4.81-0.26"/></g><g id="kvg:09031-g5" kvg:element="&#21475;"><path id="kvg:09031-s6" kvg:type="&#12753;" d="M56.17,53.75c1.08,0.75,1.6,2.01,1.71,2.97c0.5,4.53,1.05,6.63,1.48,10.27c0.17,1.46,0.3,2.58,0.34,2.94"/><path id="kvg:09031-s7" kvg:type="&#12757;b" d="M58.6,55.4c5.86-1.39,13.69-2.83,16.29-3.02c1.73-0.13,2.48,1,2.28,2.58c-0.38,2.92-1.34,5.94-2.12,9.61"/><path id="kvg:09031-s8" kvg:type="&#12752;b" d="M60.65,67.64c2.32-0.44,8.3-1.1,13.1-1.63c1.43-0.16,2.69-0.28,3.61-0.34"/></g></g></g><g id="kvg:09031-g6" kvg:element="&#11980;" kvg:original="&#36790;" kvg:position="nyo" kvg:radical="tradit"><path id="kvg:09031-s9" kvg:type="&#12756;" d="M20.71,19c3.1,1.41,8.02,5.8,8.79,8"/><path id="kvg:09031-s10" kvg:type="&#12747;" d="M13.25,54.95c2.25,0.92,4.29,0.84,5.25,0.48c2.5-0.93,8.31-4.06,9.75-4.68c2.88-1.24,4.14,0.9,1.5,3.78c-6.38,6.98-6,8.23-0.75,14.1c1.83,2.04,2.03,3.44-1.5,6.12c-5.25,4-7.5,5.75-10.75,8.5"/><path id="kvg:09031-s11" kvg:type="&#12751;a" d="M13.75,85.75c4.12-0.88,10.41-0.97,15-0.5c7.25,0.75,29.97,5.13,34.5,6c13,2.5,21.25,4.5,30.25,2.75"/></g></g></g></svg>