<svg xmlns="http://www.w3.org/2000/svg" width="109" height="109" viewBox="0 0 109 109"><g xmlns:kvg="http://kanjivg.tagaini.net" id="kvg:StrokePaths_09039" style="fill:none;stroke:#000000;stroke-width:3;stroke-linecap:round;stroke-linejoin:round;"><g id="kvg:09039" kvg:element="&#36921;"><g id="kvg:09039-g1" kvg:element="&#24184;"><g id="kvg:09039-g2" kvg:position="top"><g id="kvg:09039-g3" kvg:element="&#22303;"><path id="kvg:09039-s1" kvg:type="&#12752;" d="M46.8,23.4c1.03,0.5,2.91,0.57,3.95,0.5c9-0.64,23-2.14,32.04-2.59c1.72-0.08,2.75,0.24,3.61,0.48"/><path id="kvg:09039-s2" kvg:type="&#12753;a" d="M64.6,11c0.08,0.25,1.22,1.3,1.22,2.89c0,10.32-0.13,18.17-0.13,20.76"/><path id="kvg:09039-s3" kvg:type="&#12752;" d="M39.88,37.42c1.46,0.61,4.13,0.71,5.6,0.61c11.28-0.78,29.78-3.53,45.55-3.44c2.43,0.02,3.89,0.29,5.11,0.6"/></g><path id="kvg:09039-s4" kvg:type="&#12756;" d="M53.04,40.13c1.86,1.91,4.82,7.86,5.28,10.83"/><path id="kvg:09039-s5" kvg:type="&#12754;" d="M79.19,39.26c0.02,0.27,0.04,0.7-0.04,1.08c-0.43,2.29-2.88,7.3-6.24,10.37"/></g><g id="kvg:09039-g4" kvg:element="&#24178;" kvg:position="bottom"><path id="kvg:09039-s6" kvg:type="&#12752;" d="M45.44,54.89c0.65,0.36,2.87,0.39,3.52,0.33c4.47-0.43,27.96-2.7,35.59-3.41c1.07-0.1,3.33,0.31,3.87,0.49"/><g id="kvg:09039-g5" kvg:element="&#21313;"><path id="kvg:09039-s7" kvg:type="&#12752;" d="M38.77,68.41c1.7,0.67,4.82,0.85,6.51,0.67c11.66-1.25,30.6-2.95,44.02-3.4c2.83-0.09,4.53,0.32,5.95,0.65"/><path id="kvg:09039-s8" kvg:type="&#12753;" d="M65.37,54.62c0.37,0.43,1.16,2.4,1.23,3.26c0.07,0.87-0.05,22.69-0.12,28.11"/></g></g></g><g id="kvg:09039-g6" kvg:element="&#36790;" kvg:position="nyo" kvg:radical="tradit"><path id="kvg:09039-s9" kvg:type="&#12756;" d="M16.46,13.25c4.25,1.61,10.98,6.63,12.04,9.13"/><path id="kvg:09039-s10" kvg:type="&#12756;" d="M12.71,33.25c4.43,1.57,11.44,6.45,12.54,8.88"/><path id="kvg:09039-s11" kvg:type="&#12747;" d="M11,55.94c2.25,0.85,3.75,0.43,4.75,0.21c1-0.21,8-2.99,9.5-3.42c1.5-0.43,3.75,1.07,2.75,2.35s-5,6.69-5.75,7.76c-0.75,1.07-0.5,2.99,1,4.48s3.25,3.7,4,4.98C28,73.59,28,74.66,26.5,75.73c-1.5,1.07-7.25,5.52-10,6.97"/><path id="kvg:09039-s12" kvg:type="&#12751;" d="M11.75,84.22c3.07-0.53,12.11-0.32,16.8,0.2c7.45,0.83,27.75,7.22,32.27,8.59c12.27,3.73,21.73,4.8,30.93,2.93"/></g></g></g></svg>