<svg xmlns="http://www.w3.org/2000/svg" width="109" height="109" viewBox="0 0 109 109"><g xmlns:kvg="http://kanjivg.tagaini.net" id="kvg:StrokePaths_0905e" style="fill:none;stroke:#000000;stroke-width:3;stroke-linecap:round;stroke-linejoin:round;"><g id="kvg:0905e" kvg:element="&#36958;"><g id="kvg:0905e-g1" kvg:element="&#21378;" kvg:variant="true" kvg:position="tare"><path id="kvg:0905e-s1" kvg:type="&#12754;" d="M79.77,11.25c0.09,0.28-0.69,1.64-1.22,1.96c-6.57,3.96-18.01,6.98-32.73,9.93"/><path id="kvg:0905e-s2" kvg:type="&#12754;" d="M43.78,22.39c0.38,0.86,0.94,2.76,0.94,4.69c0,17.65,0.94,36.9-11.52,50.89"/></g><g id="kvg:0905e-g2" kvg:element="&#34382;"><g id="kvg:0905e-g3" kvg:element="&#34381;"><path id="kvg:0905e-s3" kvg:type="&#12753;a" d="M68.26,21.18c0.65,0.72,1.15,1.56,1.15,3.94c0,4.63-0.01,6.43-0.01,10.31"/><path id="kvg:0905e-s4" kvg:type="&#12752;b" d="M69.44,27.89c5.06-0.6,11.26-1.89,16.39-2.37c1.68-0.16,2.72,0.14,3.57,0.29"/><path id="kvg:0905e-s5" kvg:type="&#12754;" d="M55.44,35.87c0.42,0.4,0.46,1.92,0.46,3.38c0,15.75-3.63,31.69-10.65,41.4"/><path id="kvg:0905e-s6" kvg:type="&#12758;a" d="M56.42,37.85c0.75,0.13,2.11,0.12,3.34,0.05c10.74-0.65,20.27-2.71,27.71-2.82c7.84-0.12,2.66,5.66,0.71,7.14"/><g id="kvg:0905e-g4" kvg:element="&#19971;"><g id="kvg:0905e-g5" kvg:element="&#19968;"><path id="kvg:0905e-s7" kvg:type="&#12752;" d="M58.76,48.19c0.5,0.2,1.43,0.29,1.93,0.2c4.95-0.89,13.99-2.73,19.43-3.21c0.84-0.07,1.34,0.09,1.76,0.19"/></g><path id="kvg:0905e-s8" kvg:type="&#12767;a" d="M69.11,39.16c0.43,0.32,0.99,1.57,0.99,2.01c0,3.53-0.08,7.53-0.08,9.11c0,4.68,1.98,5.04,8.08,5.04c2.27,0,7.17,0,9.13-0.63"/></g></g><g id="kvg:0905e-g6" kvg:element="&#20799;" kvg:original="&#20843;"><g id="kvg:0905e-g7" kvg:element="&#20031;" kvg:position="left"><path id="kvg:0905e-s9" kvg:type="&#12754;" d="M64.76,61.94c0.03,0.52,0.46,1.34,0.44,2.1C65,70.25,63,78.5,54.44,84.17"/></g><g id="kvg:0905e-g8" kvg:position="right"><path id="kvg:0905e-s10" kvg:type="&#12767;" d="M77.07,61.9c0.32,0.68,0.57,1.48,0.59,2.53c0.09,4.68-0.23,9.22-0.23,12.4c0,5.39,1.01,6.58,7.61,6.58c6.96,0,8.13-1.2,8.13-5.21"/></g></g></g><g id="kvg:0905e-g9" kvg:element="&#36790;" kvg:position="nyo" kvg:radical="tradit"><path id="kvg:0905e-s11" kvg:type="&#12756;" d="M16.96,13.5c4.07,1.57,10.52,6.45,11.54,8.88"/><path id="kvg:0905e-s12" kvg:type="&#12756;" d="M13.46,33.25c4.16,1.57,10.75,6.45,11.79,8.88"/><path id="kvg:0905e-s13" kvg:type="&#12747;" d="M11,55.94c2.25,0.85,3.75,0.43,4.75,0.21c1-0.21,8-2.99,9.5-3.42c1.5-0.43,3.75,1.07,2.75,2.35s-4.5,6.69-5.25,7.76c-0.75,1.07-0.5,2.99,1,4.48s2.75,3.2,3.5,4.48C28,73.09,28,74.16,26.5,75.23c-1.5,1.07-8.5,6.54-10,6.97"/><path id="kvg:0905e-s14" kvg:type="&#12751;" d="M11.75,85.15c3.02-0.5,8.95-1.46,13.59-1.26c7.91,0.35,30.27,8.27,34.72,9.57C72.13,97,81.44,98.01,90.5,96.24"/></g></g></g></svg>