<svg xmlns="http://www.w3.org/2000/svg" width="109" height="109" viewBox="0 0 109 109"><g xmlns:kvg="http://kanjivg.tagaini.net" id="kvg:StrokePaths_090a6" style="fill:none;stroke:#000000;stroke-width:3;stroke-linecap:round;stroke-linejoin:round;"><g id="kvg:090a6" kvg:element="&#37030;"><g id="kvg:090a6-g1" kvg:element="&#20016;" kvg:position="left" kvg:phon="&#20016;"><g id="kvg:090a6-g2" kvg:element="&#19977;"><g id="kvg:090a6-g3" kvg:element="&#19968;" kvg:position="top"><path id="kvg:090a6-s1" kvg:type="&#12752;" d="M16.76,31.2c2.16,0.87,4.82,0.96,7.12,0.69c9.61-1.11,16.62-2.54,24.39-3.56c1.71-0.22,3.51-0.5,5.21-0.03"/></g><g id="kvg:090a6-g4" kvg:position="bottom"><g id="kvg:090a6-g5" kvg:element="&#19968;"><path id="kvg:090a6-s2" kvg:type="&#12752;" d="M18.61,46.71c2.34,0.69,4.51,1.05,6.89,0.67c9.67-1.54,14.43-2.67,21.89-3.67c1.51-0.2,3.36-0.68,4.87-0.27"/></g><g id="kvg:090a6-g6" kvg:element="&#19968;"><path id="kvg:090a6-s3" kvg:type="&#12752;" d="M13.09,65.81c2.51,1.15,6.3,0.76,8.91,0.18c9.5-2.12,17.38-3.74,28.24-4.94c2.56-0.28,4.12-0.16,5.41,0.19"/></g></g></g><g id="kvg:090a6-g7" kvg:element="&#20031;"><path id="kvg:090a6-s4" kvg:type="&#12754;" d="M35.69,12c0.97,0.97,1.17,2.5,1.17,4.72c0,27.15,3.51,64.78-20.55,82.5"/></g></g><g id="kvg:090a6-g8" kvg:element="&#11983;" kvg:variant="true" kvg:original="&#37009;" kvg:position="right" kvg:radical="general"><path id="kvg:090a6-s5" kvg:type="&#12743;" d="M63.92,20.81c1.96,0.94,3.48,0.97,5.46,0.59c5.45-1.06,14.09-3.3,16.39-4.07c3.24-1.08,6.06,1.49,4.78,4.1C88.5,25.62,84,34.5,80.7,39.87"/><path id="kvg:090a6-s6" kvg:type="&#12757;va" d="M81,40c18.38,12.38,11.62,38.38-0.06,28.82"/><path id="kvg:090a6-s7" kvg:type="&#12753;" d="M66.08,22.25c0.9,0.9,1.07,2,1.07,3.75c0,12.2,0.06,52.5,0.06,64.75c0,4.05-0.05,7.31-0.09,8.38"/></g></g></g></svg>