<svg xmlns="http://www.w3.org/2000/svg" width="109" height="109" viewBox="0 0 109 109"><g xmlns:kvg="http://kanjivg.tagaini.net" id="kvg:StrokePaths_090af" style="fill:none;stroke:#000000;stroke-width:3;stroke-linecap:round;stroke-linejoin:round;"><g id="kvg:090af" kvg:element="&#37039;"><g id="kvg:090af-g1" kvg:element="&#29976;" kvg:position="left"><g id="kvg:090af-g2" kvg:element="&#24319;" kvg:part="1"><g id="kvg:090af-g3" kvg:element="&#21313;"><path id="kvg:090af-s1" kvg:type="&#12752;" d="M11.36,37.02c1.29,0.46,3.67,0.57,4.96,0.46c9.52-0.84,25.18-2.23,40.79-3.33c2.15-0.15,3.45,0.22,4.53,0.45"/><path id="kvg:090af-s2" kvg:type="&#12753;" d="M23.17,15.87c1.07,0.49,1.71,2.19,1.93,3.17c0.21,0.98,0,66.62-0.21,72.71"/></g><path id="kvg:090af-s3" kvg:type="&#12753;" d="M46.62,13.5c1.07,0.49,1.71,2.19,1.93,3.17c0.21,0.98,0,68.51-0.21,74.6"/></g><path id="kvg:090af-s4" kvg:type="&#12752;" d="M25.26,59.34c5.49-0.34,19.28-1.43,22.23-1.43"/><g id="kvg:090af-g4" kvg:element="&#24319;" kvg:part="2"><path id="kvg:090af-s5" kvg:type="&#12752;" d="M25.26,88.15c6.4-0.24,16.58-1.21,22.48-1.45"/></g></g><g id="kvg:090af-g5" kvg:element="&#11983;" kvg:variant="true" kvg:original="&#37009;" kvg:position="right" kvg:radical="general"><path id="kvg:090af-s6" kvg:type="&#12743;" d="M65.67,17.06c0.85,0.09,2.36,0.7,3.45,0.49c4.71-0.91,16.42-2.94,18.9-3.85c3.05-1.12,6.11,1.12,4.75,3.73s-8.52,16.82-12,23.22"/><path id="kvg:090af-s7" kvg:type="&#12757;va" d="M80.26,40.71C99.75,52.75,95,90,82.04,76.35"/><path id="kvg:090af-s8" kvg:type="&#12753;" d="M68.39,18.05c0.02,0.11,0.04,1.48,0.05,2.94c0.12,12.9-0.08,70.97-0.28,77.25"/></g></g></g></svg>