<svg xmlns="http://www.w3.org/2000/svg" width="109" height="109" viewBox="0 0 109 109"><g xmlns:kvg="http://kanjivg.tagaini.net" id="kvg:StrokePaths_090b5" style="fill:none;stroke:#000000;stroke-width:3;stroke-linecap:round;stroke-linejoin:round;"><g id="kvg:090b5" kvg:element="&#37045;"><g id="kvg:090b5-g1" kvg:element="&#21484;" kvg:position="left"><g id="kvg:090b5-g2" kvg:element="&#20992;" kvg:position="top"><path id="kvg:090b5-s1" kvg:type="&#12742;" d="M15.21,18.7c0.72,0.47,2.89,0.87,4.01,0.73c9.12-1.11,24.92-2.56,29.97-2.97c3.29-0.27,4.64,1.31,4.57,3.19c-0.23,6.19-4,17.35-8.07,24.46c-4.12,7.2-8.09-0.05-8.77-0.92"/><path id="kvg:090b5-s2" kvg:type="&#12754;" d="M31.75,21.39c0.06,0.6,0.16,1.56-0.11,2.41c-2.83,8.65-7.91,15.9-19.25,24.49"/></g><g id="kvg:090b5-g3" kvg:element="&#21475;" kvg:position="bottom"><path id="kvg:090b5-s3" kvg:type="&#12753;" d="M16,56.19c0.33,0.51,0.67,0.93,0.82,1.56c1.15,5.02,2.98,22.73,3.77,31.74"/><path id="kvg:090b5-s4" kvg:type="&#12757;b" d="M17.57,58.66c9.43-0.91,24.46-2.01,30.66-2.67c2.05-0.22,4.45,1.77,3.85,4.92c-1.1,5.77-3.66,15.81-4.92,23.92"/><path id="kvg:090b5-s5" kvg:type="&#12752;b" d="M20.75,87.09c4.58-0.75,21.01-2.03,29.84-2.54"/></g></g><g id="kvg:090b5-g4" kvg:element="&#11983;" kvg:variant="true" kvg:original="&#37009;" kvg:position="right" kvg:radical="general"><path id="kvg:090b5-s6" kvg:type="&#12743;" d="M63.67,16.06c0.85,0.09,2.35,0.59,3.45,0.49C73,16,82.04,14.11,84.52,13.2c3.05-1.12,6.11,1.12,4.75,3.73s-7.63,16.99-10,20.72"/><path id="kvg:090b5-s7" kvg:type="&#12757;va" d="M79.26,37.71C98.5,49.25,92.5,89.75,80.54,72.85"/><path id="kvg:090b5-s8" kvg:type="&#12753;" d="M65.39,16.55c0.03,0.14,0.54,1.37,0.55,3.45c0.07,14.79-0.27,72.3-0.27,79.75"/></g></g></g></svg>