<svg xmlns="http://www.w3.org/2000/svg" width="109" height="109" viewBox="0 0 109 109"><g xmlns:kvg="http://kanjivg.tagaini.net" id="kvg:StrokePaths_090db" style="fill:none;stroke:#000000;stroke-width:3;stroke-linecap:round;stroke-linejoin:round;"><g id="kvg:090db" kvg:element="&#37083;"><g id="kvg:090db-g1" kvg:element="&#23386;" kvg:position="left"><g id="kvg:090db-g2" kvg:element="&#11940;" kvg:variant="true" kvg:original="&#29226;" kvg:position="top"><path id="kvg:090db-s1" kvg:type="&#12754;" d="M48.92,11.54c0.08,0.21,0.17,0.54-0.17,0.85c-2.01,1.78-14.16,6.5-29.39,8.09"/><path id="kvg:090db-s2" kvg:type="&#12754;" d="M20.67,26.34c0.03,0.37,0.06,0.94-0.06,1.47c-0.68,3.09-4.6,9.88-9.96,14.03"/><path id="kvg:090db-s3" kvg:type="&#12756;" d="M30.77,25.49c2.79,1.73,7.21,7.14,7.91,9.84"/><path id="kvg:090db-s4" kvg:type="&#12756;" d="M45.86,22.01c4.39,2.48,11.34,10.22,12.43,14.09"/></g><g id="kvg:090db-g3" kvg:element="&#23376;" kvg:variant="true" kvg:position="bottom"><path id="kvg:090db-s5" kvg:type="&#12758;" d="M19.17,44.62c0.85,0.26,2.45,0.67,3.73,0.44c1.56-0.28,24.95-3.81,26.41-4.06c2.94-0.5,3.69,1.5,1.7,3.84c-1.39,1.64-11.81,10.99-15.57,13.82"/><path id="kvg:090db-s6" kvg:type="&#12757;v" d="M34.14,59.16C48.5,69,42,108,31.4,90.92"/><path id="kvg:090db-s7" kvg:type="&#12736;/&#12752;" d="M16,73.19c0.78,1.5,3.25,1.32,4,1c8-3.44,25.75-11.44,33.82-14.27"/></g></g><g id="kvg:090db-g4" kvg:element="&#11983;" kvg:variant="true" kvg:original="&#37009;" kvg:position="right" kvg:radical="general"><path id="kvg:090db-s8" kvg:type="&#12743;" d="M62.92,17.17c0.83,0.08,2.31,1,3.4,0.94c5.94-0.35,18.19-2.1,22.1-2.94c3.09-0.66,5,1.5,3.67,3.83c-1.33,2.33-8.83,16.5-11.33,21"/><path id="kvg:090db-s9" kvg:type="&#12757;va" d="M80.75,41C100,54.5,93.5,92.5,78.48,76.66"/><path id="kvg:090db-s10" kvg:type="&#12753;" d="M66.08,18.5c0.02,0.1,0.04,0.99,0.05,2.5c0.12,13.01-0.08,72.4-0.27,78"/></g></g></g></svg>