<svg xmlns="http://www.w3.org/2000/svg" width="109" height="109" viewBox="0 0 109 109"><g xmlns:kvg="http://kanjivg.tagaini.net" id="kvg:StrokePaths_09112" style="fill:none;stroke:#000000;stroke-width:3;stroke-linecap:round;stroke-linejoin:round;"><g id="kvg:09112" kvg:element="&#37138;"><g id="kvg:09112-g1" kvg:element="&#33467;" kvg:position="left"><g id="kvg:09112-g2" kvg:position="top"><g id="kvg:09112-g3" kvg:element="&#21241;"><g id="kvg:09112-g4" kvg:element="&#20031;"><path id="kvg:09112-s1" kvg:type="&#12754;" d="M26.64,10.75c0.03,0.5,0.07,1.28-0.07,2c-0.81,4.21-5.47,13.44-11.85,19.09"/></g><path id="kvg:09112-s2" kvg:type="&#12742;" d="M26.12,18.54c0.68,0.67,1.61,0.61,2.73,0.45c3-0.45,20.88-2.27,23.61-2.49c2.73-0.22,3.05,1.5,2.87,4.02c-0.34,4.7-2.82,18.73-5.94,24.09c-2.23,3.82-3.38,2.14-5.37-0.11"/></g><g id="kvg:09112-g5" kvg:element="&#33400;" kvg:part="1"><g id="kvg:09112-g6" kvg:element="&#23662;"><g id="kvg:09112-g7" kvg:element="&#20981;"><path id="kvg:09112-s3" kvg:type="&#12759;a" d="M20.18,30.8c0.25,0.21,0.65,0.79,0.65,2.02c0,1.44-0.9,2.87-1.04,5.39c-0.07,1.3-0.22,2.55,0.93,1.91c3.95-2.19,15.26-3.26,18.43-3.84"/><path id="kvg:09112-s4" kvg:type="&#12753;" d="M41.2,27.4c0.21,0.28,0.68,1.2,0.65,1.79c-0.15,2.74-1.1,5.31-1.77,10.4"/></g><g id="kvg:09112-g8" kvg:element="&#20031;"><path id="kvg:09112-s5" kvg:type="&#12754;" d="M30.44,24.34c0.44,0.41,0.5,1.68,0.5,2.35c0,5.71-0.14,13.49-6.44,20.39"/></g></g></g></g><g id="kvg:09112-g9" kvg:position="bottom"><g id="kvg:09112-g10" kvg:element="&#21241;"><g id="kvg:09112-g11" kvg:element="&#20031;"><path id="kvg:09112-s6" kvg:type="&#12754;" d="M23.26,51.1c0.03,0.43,0.05,1.11-0.05,1.72c-0.63,3.63-4.25,11.59-9.21,16.46"/></g><path id="kvg:09112-s7" kvg:type="&#12742;" d="M22.55,57.42c0.76,0.68,1.79,0.62,3.04,0.45c3.34-0.45,23.11-2.53,26.16-2.53c2.25,0,3.94,1.67,3.69,4.59C54.75,68,53.5,80.5,49.04,90.3c-1.78,3.92-4.18,1.19-5.98-1.64"/></g><g id="kvg:09112-g12" kvg:element="&#33400;" kvg:part="2"><g id="kvg:09112-g13" kvg:element="&#23662;"><g id="kvg:09112-g14" kvg:element="&#20981;"><path id="kvg:09112-s8" kvg:type="&#12759;a" d="M21.22,67.48c0.27,0.22,0.69,0.82,0.69,2.1c0,1.49-1.24,3.38-1.39,6c-0.08,1.35-0.38,2.26,0.99,1.99c6.48-1.32,13.99-2.1,19.38-2.15"/><path id="kvg:09112-s9" kvg:type="&#12753;" d="M42.55,65.12c0.24,0.32,0.76,1.34,0.72,2c-0.17,3.06-1.52,7.13-1.94,10.72"/></g><g id="kvg:09112-g15" kvg:element="&#20031;"><path id="kvg:09112-s10" kvg:type="&#12754;" d="M32.21,63.05c0.49,0.48,0.61,1.89,0.55,2.68c-0.55,7.48-2.01,21.68-12.57,28.92"/></g></g></g></g></g><g id="kvg:09112-g16" kvg:element="&#11983;" kvg:variant="true" kvg:original="&#37009;" kvg:position="right" kvg:radical="general"><path id="kvg:09112-s11" kvg:type="&#12743;" d="M64.17,16.56c0.85,0.09,2.36,0.7,3.45,0.49c4.71-0.91,15.92-2.94,18.4-3.85c3.05-1.12,6.11,1.62,4.75,4.23s-8.13,17.49-10.5,21.22"/><path id="kvg:09112-s12" kvg:type="&#12757;va" d="M80.26,38.71C99,50.5,95.75,89.5,81.54,76.35"/><path id="kvg:09112-s13" kvg:type="&#12753;" d="M66.89,18.55c0.03,0.14,0.05,1.47,0.06,3.7c0.1,15.1-0.09,71.4-0.29,77.5"/></g></g></g></svg>