<svg xmlns="http://www.w3.org/2000/svg" width="109" height="109" viewBox="0 0 109 109"><g xmlns:kvg="http://kanjivg.tagaini.net" id="kvg:StrokePaths_0918b" style="fill:none;stroke:#000000;stroke-width:3;stroke-linecap:round;stroke-linejoin:round;"><g id="kvg:0918b" kvg:element="&#37259;"><g id="kvg:0918b-g1" kvg:element="&#37193;" kvg:position="left" kvg:radical="general"><g id="kvg:0918b-g2" kvg:element="&#35199;" kvg:part="1" kvg:original="&#35198;"><path id="kvg:0918b-s1" kvg:type="&#12752;" d="M10.24,20.14c0.63,0.41,3.81,1.01,4.46,0.95c6.66-0.58,24.25-2.29,27.05-2.57C43.34,18.37,45,18,46.5,18.38"/><path id="kvg:0918b-s2" kvg:type="&#12753;" d="M13.47,34.84c0.43,0.74,0.59,2.52,0.59,3.51c0,0.99-0.14,51.41,0,52.39"/><path id="kvg:0918b-s3" kvg:type="&#12757;a" d="M14.26,36.88c2.41-0.12,24.79-2.28,26.98-2.59c2.27-0.32,4.15,1.19,4.15,3.98c0,1.56-0.35,50.65-0.35,51.39"/><path id="kvg:0918b-s4" kvg:type="&#12754;" d="M23.94,23.22c0.67,1.18,1.08,2.8,0.98,4.42c-0.9,14.98-2.76,23.7-6.75,30.95"/><path id="kvg:0918b-s5" kvg:type="&#12767;a" d="M32.71,22.04c0.43,1.21,0.77,2.65,0.8,4.52c0.08,5.94-0.19,13.5-0.23,20.84c-0.03,6.37,1.86,7.69,4.88,7.69c3.06,0,5.17-0.22,5.47-0.94"/></g><g id="kvg:0918b-g3" kvg:element="&#19968;"><path id="kvg:0918b-s6" kvg:type="&#12752;a" d="M14.69,70.51c3.27,0,26.2-1.69,29.89-1.69"/></g><g id="kvg:0918b-g4" kvg:element="&#35199;" kvg:part="2" kvg:original="&#35198;"><path id="kvg:0918b-s7" kvg:type="&#12752;a" d="M14.54,87.44c6.65-0.53,21.75-1.45,30.03-1.9"/></g></g><g id="kvg:0918b-g5" kvg:element="&#26132;" kvg:position="right"><g id="kvg:0918b-g6" kvg:position="top"><g id="kvg:0918b-g7" kvg:element="&#24318;" kvg:variant="true"><g id="kvg:0918b-g8" kvg:element="&#21313;" kvg:part="1"><path id="kvg:0918b-s8" kvg:type="&#12752;" d="M54.38,28.81c1,0.39,2.84,0.5,3.84,0.39c6.39-0.68,25-2.86,32.96-2.97c1.67-0.02,2.67,0.19,3.51,0.38"/></g><g id="kvg:0918b-g9" kvg:element="&#20031;" kvg:variant="true"><path id="kvg:0918b-s9" kvg:type="&#12753;" d="M61.91,15.13c1,0.55,1.6,2.48,1.8,3.58c0.2,1.1,0.39,17.89,1.08,28.35"/></g><g id="kvg:0918b-g10" kvg:element="&#21313;" kvg:part="2"><path id="kvg:0918b-s10" kvg:type="&#12753;" d="M80.84,12.75c0.8,0.51,1.28,2.3,1.44,3.33c0.16,1.02-1.53,19.17-1.69,30.43"/></g></g><path id="kvg:0918b-s11" kvg:type="&#12752;" d="M51.22,48.3c1.3,0.49,3.68,0.5,5,0.49c10.29-0.04,28.04-3.04,38.51-3.2c2.17-0.03,3.48,0.23,4.56,0.48"/></g><g id="kvg:0918b-g11" kvg:element="&#26085;" kvg:position="bottom"><path id="kvg:0918b-s12" kvg:type="&#12753;" d="M59.08,58.58c0.36,0.87,1.13,2.35,1.13,3.5c0,1.16,0,26.43,0,34.17"/><path id="kvg:0918b-s13" kvg:type="&#12757;a" d="M60.81,60.34c2.05-0.15,22.79-2.54,24.66-2.72c1.56-0.15,2.56,1.61,2.44,2.46c-0.24,1.74-1.48,34.61-1.48,35.47"/><path id="kvg:0918b-s14" kvg:type="&#12752;a" d="M60.68,75.52c2.78,0,22.77-2.14,25.91-2.14"/><path id="kvg:0918b-s15" kvg:type="&#12752;a" d="M61.05,93.49c5.65-0.62,17.49-1.24,24.53-1.78"/></g></g></g></g></svg>