<svg xmlns="http://www.w3.org/2000/svg" width="109" height="109" viewBox="0 0 109 109"><g xmlns:kvg="http://kanjivg.tagaini.net" id="kvg:StrokePaths_091cb" style="fill:none;stroke:#000000;stroke-width:3;stroke-linecap:round;stroke-linejoin:round;"><g id="kvg:091cb" kvg:element="&#37323;"><g id="kvg:091cb-g1" kvg:element="&#37318;" kvg:position="left" kvg:radical="general"><g id="kvg:091cb-g2" kvg:element="&#20031;" kvg:position="top"><path id="kvg:091cb-s1" kvg:type="&#12754;" d="M40.25,11.64c0.08,0.31,0.26,0.88-0.15,1.27C34.75,18,24,23,14.47,25.26"/></g><g id="kvg:091cb-g3" kvg:element="&#31859;" kvg:variant="true" kvg:position="bottom"><path id="kvg:091cb-s2" kvg:type="&#12756;" d="M15.42,31.94c2.1,1.93,5.27,7.37,5.79,10.37"/><path id="kvg:091cb-s3" kvg:type="&#12754;" d="M44.7,25.8c0.02,0.32,0.1,0.85-0.04,1.27c-1.13,3.44-2.95,7.48-6.68,12.2"/><path id="kvg:091cb-s4" kvg:type="&#12752;" d="M12.5,49.35c0.6,0.24,2.22,0.87,3.81,0.73c6.63-0.58,18.44-2.83,25.42-2.86c1.61-0.01,2.01-0.24,3.01,0"/><path id="kvg:091cb-s5" kvg:type="&#12753;" d="M29.41,24.29c0.7,0.49,1.12,2.2,1.25,3.17c0.14,0.98,0,64.18-0.14,70.28"/><path id="kvg:091cb-s6" kvg:type="&#12754;" d="M30.66,48.65c-3.57,11.02-12.25,26.49-20.27,32.84"/><path id="kvg:091cb-s7" kvg:type="&#12756;/&#12751;" d="M33.81,55.36c2.8,1.44,9.03,8.95,10.11,12"/></g></g><g id="kvg:091cb-g4" kvg:position="right"><g id="kvg:091cb-g5" kvg:element="&#32594;" kvg:variant="true" kvg:original="&#32593;" kvg:position="top"><path id="kvg:091cb-s8" kvg:type="&#12753;" d="M49.5,14.42c0.23,0.27,1.45,1.85,1.55,2.19c0.8,2.7,2.24,8.79,2.79,13.64"/><path id="kvg:091cb-s9" kvg:type="&#12757;a" d="M50.93,16.25c8.89-1.06,38.66-3.41,41.36-3.77c0.98-0.13,2.32,0.91,2.06,2.43c-0.55,3.17-1.9,8.15-3.37,12.67"/><path id="kvg:091cb-s10" kvg:type="&#12753;a" d="M64.73,15.64c0.16,1.8,1.24,9.66,1.39,11.69"/><path id="kvg:091cb-s11" kvg:type="&#12753;a" d="M79.28,14.52c-0.15,2.92-0.93,9.66-1.24,11.46"/><path id="kvg:091cb-s12" kvg:type="&#12752;a" d="M54.08,28.33c5.51-0.33,27.64-2.35,37.26-2.61"/></g><g id="kvg:091cb-g6" kvg:element="&#24184;" kvg:position="bottom"><g id="kvg:091cb-g7" kvg:position="top"><g id="kvg:091cb-g8" kvg:element="&#22303;"><path id="kvg:091cb-s13" kvg:type="&#12752;" d="M55.32,39.29c0.95,0.3,2.68,0.38,3.62,0.3c12.13-1.02,17.21-2.34,29.42-2.6c1.57-0.03,2.52,0.14,3.3,0.29"/><path id="kvg:091cb-s14" kvg:type="&#12753;a" d="M71.31,31.25c0.07,0.23,0.98,1.21,0.98,2.69c0,9.6-0.11,10.9-0.11,13.31"/><path id="kvg:091cb-s15" kvg:type="&#12752;" d="M49.63,49.36c1.15,0.56,3.26,0.64,4.42,0.56c13.73-0.91,29.2-3.17,39.8-3.61c1.92-0.08,3.07,0.27,4.03,0.55"/></g><path id="kvg:091cb-s16" kvg:type="&#12756;" d="M58.91,53.23c1.57,1.37,4.05,5.63,4.44,7.75"/><path id="kvg:091cb-s17" kvg:type="&#12754;" d="M82.47,50.25c0.01,0.26,0.02,0.66-0.02,1.03c-0.27,2.17-1.78,6.92-3.86,9.83"/></g><g id="kvg:091cb-g9" kvg:element="&#24178;" kvg:position="bottom"><path id="kvg:091cb-s18" kvg:type="&#12752;" d="M49.71,64.49c0.82,0.48,3.66,0.51,4.48,0.43c5.69-0.56,29.42-2.38,39.13-3.32c1.37-0.13,4.24,0.41,4.92,0.65"/><g id="kvg:091cb-g10" kvg:element="&#21313;"><path id="kvg:091cb-s19" kvg:type="&#12752;" d="M52.74,77.72c1.26,0.39,3.59,0.5,4.85,0.39c8.69-0.73,21.67-2.52,31.67-2.78c2.11-0.05,3.37,0.19,4.43,0.38"/><path id="kvg:091cb-s20" kvg:type="&#12753;" d="M71.52,65.49c0.3,0.4,0.93,2.23,0.99,3.04c0.06,0.81-0.04,25.43-0.1,30.47"/></g></g></g></g></g></g></svg>