<svg xmlns="http://www.w3.org/2000/svg" width="109" height="109" viewBox="0 0 109 109"><g xmlns:kvg="http://kanjivg.tagaini.net" id="kvg:StrokePaths_091c6" style="fill:none;stroke:#000000;stroke-width:3;stroke-linecap:round;stroke-linejoin:round;"><g id="kvg:091c6" kvg:element="&#37318;" kvg:radical="general"><g id="kvg:091c6-g1" kvg:element="&#20031;" kvg:position="top"><path id="kvg:091c6-s1" kvg:type="&#12754;" d="M71.68,10.89c0.13,0.41,0.17,1-0.25,1.67C68,18,48,25.25,27.25,27.5"/></g><g id="kvg:091c6-g2" kvg:element="&#31859;" kvg:position="bottom"><path id="kvg:091c6-s2" kvg:type="&#12756;" d="M28.5,32.5c2.63,1.96,6.59,7.48,7.25,10.52"/><path id="kvg:091c6-s3" kvg:type="&#12754;" d="M78.75,24.5c0.04,0.47,0.2,1.26-0.07,1.89C76.5,31.5,73,37.5,65.81,44.52"/><path id="kvg:091c6-s4" kvg:type="&#12752;" d="M14.75,50.67c0.75,0.25,2.75,0.65,4.75,0.74c5.5,0.25,60.75-6.44,69.5-5.95c2,0.11,2.5-0.25,3.75,0"/><path id="kvg:091c6-s5" kvg:type="&#12753;" d="M52.25,25.25c1.25,0.5,2,2.23,2.25,3.22c0.25,0.99,0,63.09-0.25,69.28"/><path id="kvg:091c6-s6" kvg:type="&#12754;" d="M52.25,48.69C45.69,61.57,29.75,79.66,15,87.09"/><path id="kvg:091c6-s7" kvg:type="&#12751;" d="M57,50.18c5.02,4.76,27.02,27.28,32.47,31.96c1.85,1.59,3.43,2.27,5.28,2.72"/></g></g></g></svg>