<svg xmlns="http://www.w3.org/2000/svg" width="109" height="109" viewBox="0 0 109 109"><g xmlns:kvg="http://kanjivg.tagaini.net" id="kvg:StrokePaths_091d8" style="fill:none;stroke:#000000;stroke-width:3;stroke-linecap:round;stroke-linejoin:round;"><g id="kvg:091d8" kvg:element="&#37336;"><g id="kvg:091d8-g1" kvg:element="&#37329;" kvg:position="left" kvg:radical="general"><path id="kvg:091d8-s1" kvg:type="&#12754;" d="M32.75,14.99c0,0.75,0.05,1.34-0.15,2.24c-1.03,4.67-10.78,20.24-19.13,27.15"/><path id="kvg:091d8-s2" kvg:type="&#12756;/&#12751;" d="M34.89,20.46C39,22.25,44.25,27,46.25,31.5"/><path id="kvg:091d8-s3" kvg:type="&#12752;" d="M22.5,41.5c1.5,0,2.18,0.09,2.67,0.06c4.33-0.31,10.33-1.53,15.44-1.75c0.74-0.03,0.9-0.05,2.15-0.05"/><path id="kvg:091d8-s4" kvg:type="&#12752;" d="M15.59,56.54c0.68,0.41,2.91,0.6,3.6,0.54c6.24-0.62,15.62-3.12,23.62-3.33c0.85-0.02,2.7-0.17,3.96,0.19"/><path id="kvg:091d8-s5" kvg:type="&#12753;a" d="M32.45,43.69c1.24,0.78,1.24,2.52,1.24,3.14c0,4.35-0.19,25.67-0.19,35.48"/><path id="kvg:091d8-s6" kvg:type="&#12756;" d="M17.64,69.26c3.04,3.73,4.53,7.76,5.15,9.94"/><path id="kvg:091d8-s7" kvg:type="&#12754;" d="M43.79,60.55c0.23,0.71,0.35,1.75,0.26,2.35c-0.23,1.54-2.05,4.36-4.63,8.88"/><path id="kvg:091d8-s8" kvg:type="&#12736;/&#12752;" d="M14.5,88.75c1.75,1,3.92,1.18,5,0.75c1.25-0.5,10.25-4.75,23.25-10.75"/></g><g id="kvg:091d8-g2" kvg:element="&#19969;" kvg:position="right"><g id="kvg:091d8-g3" kvg:element="&#19968;"><path id="kvg:091d8-s9" kvg:type="&#12752;" d="M51.41,26.2c0.93,0.42,2.65,0.53,3.58,0.42c9.57-1.12,27.57-4.56,39.08-5.11c1.56-0.07,2.49,0.2,3.27,0.41"/></g><g id="kvg:091d8-g4" kvg:element="&#20101;"><path id="kvg:091d8-s10" kvg:type="&#12762;" d="M76.66,26.57c0.08,0.46,1.11,2.38,1.19,5.28c0.38,13.92-0.24,50.86-0.24,55.6c0,10.74-8.04,0.49-9.46-0.71"/></g></g></g></g></svg>