<svg xmlns="http://www.w3.org/2000/svg" width="109" height="109" viewBox="0 0 109 109"><g xmlns:kvg="http://kanjivg.tagaini.net" id="kvg:StrokePaths_091e1" style="fill:none;stroke:#000000;stroke-width:3;stroke-linecap:round;stroke-linejoin:round;"><g id="kvg:091e1" kvg:element="&#37345;"><g id="kvg:091e1-g1" kvg:element="&#20843;" kvg:position="top"><g id="kvg:091e1-g2" kvg:position="left"><path id="kvg:091e1-s1" kvg:type="&#12754;" d="M42.3,13.5c0.06,0.47,0.25,1.34-0.13,1.87c-4.61,6.58-11.42,12.61-23.43,17.92"/></g><g id="kvg:091e1-g3" kvg:position="right"><path id="kvg:091e1-s2" kvg:type="&#12751;" d="M66.02,12.08c6.81,3.11,17.59,12.79,19.29,17.63"/></g></g><g id="kvg:091e1-g4" kvg:element="&#37329;" kvg:position="bottom" kvg:radical="general"><g id="kvg:091e1-g5" kvg:position="top"><path id="kvg:091e1-s3" kvg:type="&#12754;" d="M54,30c0,0.67,0.12,1.21-0.34,2.01c-2.4,4.2-21.4,20.74-42.9,26.02"/><path id="kvg:091e1-s4" kvg:type="&#12751;" d="M52.75,33.55c9.25,5.2,32.04,19.4,34.87,20.51c2.89,1.13,3.83,1.33,5.13,1.44"/></g><g id="kvg:091e1-g6" kvg:position="bottom"><path id="kvg:091e1-s5" kvg:type="&#12752;" d="M38.27,54.66c0.67,0.25,2.85,0.33,3.53,0.26c3.15-0.34,13.82-0.91,26.88-1.79c1.03-0.07,1.97,0.05,2.83,0.26"/><path id="kvg:091e1-s6" kvg:type="&#12752;" d="M26.3,67.37c1.06,0.4,4.59,0.62,5.67,0.53c6.24-0.53,25.45-1.96,45.74-2.88c1.33-0.06,4.26-0.16,6.24,0.19"/><path id="kvg:091e1-s7" kvg:type="&#12753;" d="M52.97,56.46c0.89,0.69,0.89,2.23,0.89,2.78c0,3.84,0.44,28.35,0.22,32.19"/><path id="kvg:091e1-s8" kvg:type="&#12756;" d="M31.5,76.92c5.02,3.79,7.48,7.9,8.5,10.11"/><path id="kvg:091e1-s9" kvg:type="&#12754;" d="M75.51,73.78c0.41,0.74,0.62,1.81,0.46,2.43c-0.41,1.59-7.22,9.54-10.97,13.21"/><path id="kvg:091e1-s10" kvg:type="&#12752;" d="M18.5,93.79c0.79,0.23,4.76,0.86,6.51,0.72c8.49-0.67,36.11-2.32,61.07-2.32c2.38,0,5.23,0.29,6.42,0.56"/></g></g></g></g></svg>