<svg xmlns="http://www.w3.org/2000/svg" width="109" height="109" viewBox="0 0 109 109"><g xmlns:kvg="http://kanjivg.tagaini.net" id="kvg:StrokePaths_09211" style="fill:none;stroke:#000000;stroke-width:3;stroke-linecap:round;stroke-linejoin:round;"><g id="kvg:09211" kvg:element="&#37393;"><g id="kvg:09211-g1" kvg:element="&#37329;" kvg:position="left" kvg:radical="general"><path id="kvg:09211-s1" kvg:type="&#12754;" d="M31.25,12.24c0,0.92,0.05,1.65-0.16,2.75c-1.12,5.74-11.76,24.89-20.87,33.38"/><path id="kvg:09211-s2" kvg:type="&#12756;/&#12751;" d="M32.39,20.21C37.22,22.28,43.4,27.79,45.75,33"/><path id="kvg:09211-s3" kvg:type="&#12752;" d="M20,41.5c1.66,0,2.41,0.09,2.94,0.06c4.78-0.31,10.3-1.53,15.94-1.75c0.81-0.03,0.99-0.05,2.37-0.05"/><path id="kvg:09211-s4" kvg:type="&#12752;" d="M12.09,54.81c0.77,0.33,3.29,0.48,4.08,0.43c7.07-0.49,16.34-1.74,23.37-2.67c0.95-0.12,3.06-0.13,4.49,0.15"/><path id="kvg:09211-s5" kvg:type="&#12753;a" d="M27.95,43.19c1.24,0.78,1.24,3.02,1.24,3.64c0,4.35,0.31,32.42,0.31,37.48"/><path id="kvg:09211-s6" kvg:type="&#12756;" d="M13.64,66.51c3.93,4.94,5.85,10.3,6.65,13.19"/><path id="kvg:09211-s7" kvg:type="&#12754;" d="M43.67,60.05c0.33,0.88,0.5,2.17,0.37,2.92c-0.33,1.92-2.93,5.42-6.62,11.06"/><path id="kvg:09211-s8" kvg:type="&#12736;/&#12752;" d="M11.5,90.25c1.36,1,2.99,0.75,4.89,0.25c1.41-0.37,12.23-5.75,26.36-11.75"/></g><g id="kvg:09211-g2" kvg:element="&#21453;" kvg:position="right"><g id="kvg:09211-g3" kvg:element="&#21378;"><path id="kvg:09211-s9" kvg:type="&#12752;" d="M50.84,23.05c1.18,0.29,3.36,0.4,4.52,0.29c11.12-1.02,23.85-2.78,33.66-3.32c1.96-0.11,3.15,0.14,4.13,0.28"/><path id="kvg:09211-s10" kvg:type="&#12754;" d="M55.22,23.43c0.57,1.64,0.61,3.91,0.53,6.1c-0.79,21.94-2,45.97-15.25,59.43"/></g><g id="kvg:09211-g4" kvg:element="&#21448;"><path id="kvg:09211-s11" kvg:type="&#12743;" d="M58.73,44.44c1.3,0.35,2.42,0.12,5.05-0.15c5.22-0.54,16.97-2.54,20.58-3.11c1.84-0.29,3.08,1.93,2.43,3.86c-7.62,22.78-18.73,38.63-36.66,46.72"/><path id="kvg:09211-s12" kvg:type="&#12751;" d="M57.52,52.88c3.57,0.93,20.29,24.84,32.71,35.03c1.93,1.58,3.34,2.64,5.14,3.17"/></g></g></g></g></svg>