<svg xmlns="http://www.w3.org/2000/svg" width="109" height="109" viewBox="0 0 109 109"><g xmlns:kvg="http://kanjivg.tagaini.net" id="kvg:StrokePaths_09244" style="fill:none;stroke:#000000;stroke-width:3;stroke-linecap:round;stroke-linejoin:round;"><g id="kvg:09244" kvg:element="&#37444;"><g id="kvg:09244-g1" kvg:element="&#37329;" kvg:position="left" kvg:radical="general"><path id="kvg:09244-s1" kvg:type="&#12754;" d="M30.75,13.99c0,0.85,0.05,1.53-0.15,2.55C29.52,21.87,19.27,39.62,10.5,47.5"/><path id="kvg:09244-s2" kvg:type="&#12756;/&#12751;" d="M32.52,20.96c4.15,2.03,9.46,7.42,11.48,12.54"/><path id="kvg:09244-s3" kvg:type="&#12752;" d="M20.5,41c1.19,0,2.31,0.1,3.49-0.05c3.72-0.48,8.34-1.01,12.38-1.68c1.19-0.2,2.17-0.26,3.38-0.26"/><path id="kvg:09244-s4" kvg:type="&#12752;" d="M12.84,56.31c1.29,0.56,3.27,0.44,4.68,0.3c5.64-0.54,13.19-1.57,20.11-2.54c0.77-0.11,2.49-0.13,3.65,0.15"/><path id="kvg:09244-s5" kvg:type="&#12753;a" d="M28.7,42.19c0.99,0.99,1.49,2.31,1.49,3.64c0,4.35,0.06,29.17,0.06,36.98"/><path id="kvg:09244-s6" kvg:type="&#12756;" d="M16.89,66.51c2.9,4.48,4.31,9.32,4.9,11.94"/><path id="kvg:09244-s7" kvg:type="&#12754;" d="M41.54,62.3c0.23,0.71,0.21,1.58-0.24,2.6c-1,2.26-1.8,3.86-4.38,8.38"/><path id="kvg:09244-s8" kvg:type="&#12736;/&#12752;" d="M14.5,88.5c1,0.62,2.25,0.88,4,0.25c1.27-0.45,10.75-5,23.75-11"/></g><g id="kvg:09244-g2" kvg:element="&#22833;" kvg:position="right" kvg:phon="&#22833;"><g id="kvg:09244-g3" kvg:element="&#20031;"><path id="kvg:09244-s9" kvg:type="&#12754;" d="M55.75,23.88c0.25,0.88,0.37,1.79,0.19,2.63c-1.44,6.62-4.05,14.79-8.94,22.94"/></g><g id="kvg:09244-g4" kvg:element="&#22827;"><path id="kvg:09244-s10" kvg:type="&#12752;" d="M55.69,39.18c0.81,0,3.18-0.12,3.81-0.18c4.45-0.42,15.36-2.64,20.64-3.41c1.62-0.24,3.61-0.47,4.86-0.34"/><g id="kvg:09244-g5" kvg:element="&#22823;"><path id="kvg:09244-s11" kvg:type="&#12752;" d="M46.75,59c2.88,0.25,4.93,0.11,7.52-0.25c7.62-1.06,22.86-2.88,30.62-3.58c2.19-0.2,4.87-0.3,7.12,0.08"/><path id="kvg:09244-s12" kvg:type="&#12754;" d="M66.23,13.25c0.89,0.89,1.27,2.13,1.32,3.39C70,76.25,59.5,82.5,42.75,94.5"/><path id="kvg:09244-s13" kvg:type="&#12751;" d="M67.23,59.09c5.93,9.76,14.04,21.24,20.52,28.16c1.81,1.93,4.12,4.25,6.99,5.75"/></g></g></g></g></g></svg>