<svg xmlns="http://www.w3.org/2000/svg" width="109" height="109" viewBox="0 0 109 109"><g xmlns:kvg="http://kanjivg.tagaini.net" id="kvg:StrokePaths_092f8" style="fill:none;stroke:#000000;stroke-width:3;stroke-linecap:round;stroke-linejoin:round;"><g id="kvg:092f8" kvg:element="&#37624;"><g id="kvg:092f8-g1" kvg:element="&#37329;" kvg:position="left" kvg:radical="general"><path id="kvg:092f8-s1" kvg:type="&#12754;" d="M32.75,16.74c0,0.78-0.05,1.7-0.41,2.58c-3.84,9.42-9.84,20.17-20.62,28.3"/><path id="kvg:092f8-s2" kvg:type="&#12756;/&#12751;" d="M34.14,23.46C38.88,25.49,45.19,30.89,47.5,36"/><path id="kvg:092f8-s3" kvg:type="&#12752;" d="M21.5,43c1.4,0.14,2.53,0.04,3.92-0.1c4.21-0.4,8.08-1.15,12.58-1.96c1.31-0.24,2.66-0.19,4-0.19"/><path id="kvg:092f8-s4" kvg:type="&#12752;" d="M13.59,58.11c2.38,0.57,4.77,0.61,7.19,0.29c7.6-1.02,13.6-2.14,20.25-2.98c2.07-0.31,4.15-0.41,6.25-0.28"/><path id="kvg:092f8-s5" kvg:type="&#12753;a" d="M31.7,44.94c0.93,0.93,0.99,2.06,0.99,3.14c0,4.35,0.06,30.54,0.06,36.48"/><path id="kvg:092f8-s6" kvg:type="&#12756;" d="M16.89,69.01c3.34,4.76,5.22,9.66,5.9,12.44"/><path id="kvg:092f8-s7" kvg:type="&#12754;" d="M45.95,63.55c0,1.08-0.35,1.79-0.66,2.41c-1.54,3.17-2.46,4.69-5.87,9.82"/><path id="kvg:092f8-s8" kvg:type="&#12736;/&#12752;" d="M15.5,91.75c1.5,1.12,2.94,0.72,4,0.25c7-3.12,11.12-5.25,24.75-11.75"/></g><g id="kvg:092f8-g2" kvg:element="&#23621;" kvg:position="right"><g id="kvg:092f8-g3" kvg:element="&#23608;" kvg:position="tare"><path id="kvg:092f8-s9" kvg:type="&#12757;c" d="M53.09,22.4c1.29,0.51,3.8,0.73,5.17,0.61c7.24-0.63,18.74-2.13,29.87-2.74c2.27-0.13,4.24,1.37,3.63,3.78c-0.87,3.42-2.19,6.73-3.21,11.59"/><path id="kvg:092f8-s10" kvg:type="&#12752;b" d="M58.04,38.66c3.15-0.14,17.51-1.24,28.09-1.96c1.88-0.13,3.63-0.25,5.18-0.35"/><path id="kvg:092f8-s11" kvg:type="&#12754;" d="M55.88,23.66c1.11,1.11,1.26,2.38,1.26,3.59C57,51.12,54,73.5,42.31,88.23"/></g><g id="kvg:092f8-g4" kvg:element="&#21476;"><g id="kvg:092f8-g5" kvg:element="&#21313;" kvg:position="top"><path id="kvg:092f8-s12" kvg:type="&#12752;" d="M58.07,58.62c2.35,0.34,4.7,0.37,7.06,0.06c7.25-0.98,19.52-2.16,26.99-2.54c2.19-0.23,4.36-0.19,6.53,0.13"/><path id="kvg:092f8-s13" kvg:type="&#12753;a" d="M75.47,42.81c1.05,1.05,1.16,2.44,1.16,4.03c0,11.98,0.12,20.03,0.12,24.85"/></g><g id="kvg:092f8-g6" kvg:element="&#21475;" kvg:position="bottom"><path id="kvg:092f8-s14" kvg:type="&#12753;" d="M60.7,73.79c0.88,0.88,1.32,1.71,1.58,3c0.61,2.99,1.41,7.07,2.38,11.83c0.39,1.94,0.82,3.99,1.26,6.13"/><path id="kvg:092f8-s15" kvg:type="&#12757;b" d="M62.36,74.54c5.5-0.59,20.56-2.54,27.16-3.29c2.71-0.31,4.12,1.2,3.51,3.89c-0.89,3.98-1.94,9.69-2.81,14.4"/><path id="kvg:092f8-s16" kvg:type="&#12752;b" d="M66.76,93.04c5.27-0.41,12.7-1.32,19.39-1.98c2.03-0.2,3.94-0.38,5.64-0.51"/></g></g></g></g></g></svg>