<svg xmlns="http://www.w3.org/2000/svg" width="109" height="109" viewBox="0 0 109 109"><g xmlns:kvg="http://kanjivg.tagaini.net" id="kvg:StrokePaths_09326" style="fill:none;stroke:#000000;stroke-width:3;stroke-linecap:round;stroke-linejoin:round;"><g id="kvg:09326" kvg:element="&#37670;"><g id="kvg:09326-g1" kvg:element="&#37329;" kvg:position="left" kvg:radical="general"><path id="kvg:09326-s1" kvg:type="&#12754;" d="M31.75,14.99c0,1.11-0.05,2.14-0.42,3.2c-1.91,5.6-11.14,19.97-19.11,26.56"/><path id="kvg:09326-s2" kvg:type="&#12756;/&#12751;" d="M34.14,21.46c4.61,2.54,9.48,5.79,12.36,10.79"/><path id="kvg:09326-s3" kvg:type="&#12752;" d="M21.5,41c1.26,0,2.62,0.12,3.88-0.07c4.49-0.68,7.92-1.54,12.74-2.48c1.21-0.24,2.89-0.45,4.13-0.45"/><path id="kvg:09326-s4" kvg:type="&#12752;" d="M15.84,54.81c1.66,0.56,4.02,0.63,5.68,0.42c6.08-0.76,13.59-2.65,19.25-3.51c1.49-0.23,2.99-0.5,4.51-0.25"/><path id="kvg:09326-s5" kvg:type="&#12753;a" d="M30.95,43.94c0.99,0.99,1.24,2.06,1.24,3.39c0,4.35,0.06,24.54,0.06,31.48"/><path id="kvg:09326-s6" kvg:type="&#12756;" d="M16.39,64.51c3.93,3.73,5.85,7.76,6.65,9.94"/><path id="kvg:09326-s7" kvg:type="&#12754;" d="M45.15,58.3c-0.03,0.95-0.27,1.81-0.61,2.41c-1.41,2.42-2.79,4.69-6.62,9.82"/><path id="kvg:09326-s8" kvg:type="&#12736;/&#12752;" d="M14.5,85.5c1.2,1.5,2.58,1.41,4.5,0.5c7.12-3.38,12-5.5,25-11.5"/></g><g id="kvg:09326-g2" kvg:element="&#24091;" kvg:position="right"><g id="kvg:09326-g3" kvg:element="&#30333;" kvg:position="top"><g id="kvg:09326-g4" kvg:position="top"><path id="kvg:09326-s9" kvg:type="&#12754;" d="M69.61,12.25c0.02,1-0.18,1.65-0.51,2.27c-1.6,3.1-3.16,5.78-4.86,8.24"/></g><g id="kvg:09326-g5" kvg:element="&#26085;" kvg:position="bottom"><path id="kvg:09326-s10" kvg:type="&#12753;" d="M54.23,25.5c0.64,0.64,1.05,1.7,1.22,2.96c0.46,3.38,1.57,9.5,2.46,16.77c0.17,1.42,0.34,2.89,0.49,4.38"/><path id="kvg:09326-s11" kvg:type="&#12757;a" d="M55.99,26.51C62.5,25.5,79.88,23,85.75,22.57c2.08-0.15,3.83,1.03,3.75,3.39c-0.06,1.7-1.06,8.79-3.09,17.02c-0.32,1.29-0.67,2.63-1.06,3.99"/><path id="kvg:09326-s12" kvg:type="&#12752;a" d="M57.76,36.89c9.12-1.14,20.87-2.76,29.29-3.05"/><path id="kvg:09326-s13" kvg:type="&#12752;a" d="M59.63,47.36c9.85-1.08,17.42-2.02,24.99-2.53"/></g></g><g id="kvg:09326-g6" kvg:element="&#24062;" kvg:position="bottom"><path id="kvg:09326-s14" kvg:type="&#12753;" d="M53.37,57.9c0.99,0.99,1.08,2.22,1.08,3.9c0,5.45,0.01,11.7,0.01,18.96c0,1.96-0.07,3.9-0.04,5.79"/><path id="kvg:09326-s15" kvg:type="&#12742;a" d="M55.25,60.54c2.75-0.26,32.87-4.01,34.92-4.17c2.41-0.19,4.2,1.25,3.84,4.92c-0.82,8.41-2.29,15.7-4.53,22.12c-1.86,5.34-4.2,0.76-5.78-1.23"/><path id="kvg:09326-s16" kvg:type="&#12753;" d="M70.92,50.99c1.04,1.04,1.31,2.51,1.31,3.99c0,0.57-0.11,27.27-0.11,35.52c0,4,0,6,0,8.25"/></g></g></g></g></svg>