<svg xmlns="http://www.w3.org/2000/svg" width="109" height="109" viewBox="0 0 109 109"><g xmlns:kvg="http://kanjivg.tagaini.net" id="kvg:StrokePaths_09356" style="fill:none;stroke:#000000;stroke-width:3;stroke-linecap:round;stroke-linejoin:round;"><g id="kvg:09356" kvg:element="&#37718;"><g id="kvg:09356-g1" kvg:element="&#37329;" kvg:position="left" kvg:radical="general"><path id="kvg:09356-s1" kvg:type="&#12754;" d="M27.25,15.5c0,0.79,0.05,1.43-0.14,2.38c-0.96,4.96-10.07,21.52-17.86,28.87"/><path id="kvg:09356-s2" kvg:type="&#12756;/&#12751;" d="M29.5,21.75c4.79,1.97,10.92,7.21,13.25,12.18"/><path id="kvg:09356-s3" kvg:type="&#12752;" d="M16.5,42.97c1.5,0,2.18,0.1,2.67,0.06C23.5,42.7,33,41.4,38.1,41.16c0.74-0.03,0.9-0.06,2.15-0.06"/><path id="kvg:09356-s4" kvg:type="&#12752;" d="M11.59,57.32c0.59,0.35,2.56,0.51,3.17,0.46c5.49-0.52,17.74-2.16,24.78-2.34c0.75-0.02,2.38-0.14,3.49,0.16"/><path id="kvg:09356-s5" kvg:type="&#12753;a" d="M26.95,45.28c1.24,0.83,1.24,2.69,1.24,3.35c0,4.64,0.62,34.84,0.31,39.47"/><path id="kvg:09356-s6" kvg:type="&#12756;" d="M14.75,69.25c3.27,5.04,4.87,10.49,5.54,13.43"/><path id="kvg:09356-s7" kvg:type="&#12754;" d="M39.67,63.44c0.33,1,0.49,2.46,0.37,3.3c-0.33,2.17-2.9,6.14-6.54,12.51"/><path id="kvg:09356-s8" kvg:type="&#12736;/&#12752;" d="M12,93.38c0.52,0.25,2.92,2.33,4,1.87c1.25-0.53,11.25-6.14,24.25-12.54"/></g><g id="kvg:09356-g2" kvg:element="&#29978;" kvg:position="right"><g id="kvg:09356-g3" kvg:element="&#29976;" kvg:position="top"><g id="kvg:09356-g4" kvg:element="&#24319;" kvg:part="1"><g id="kvg:09356-g5" kvg:element="&#21313;"><path id="kvg:09356-s9" kvg:type="&#12752;" d="M46.56,25.55c0.95,0.49,2.71,0.7,3.66,0.65c7.03-0.36,29.19-2.84,41.36-3.06c1.59-0.03,2.55,0.36,3.34,0.62"/><path id="kvg:09356-s10" kvg:type="&#12753;" d="M56.68,14.5c0.83,0.53,1.33,2.24,1.5,3.21c0.17,0.97,0.16,38.69,0.02,43.63"/></g><path id="kvg:09356-s11" kvg:type="&#12753;" d="M79.2,12.62c0.86,0.55,1.37,2.31,1.54,3.31s0.24,39.52,0.1,44.46"/></g><path id="kvg:09356-s12" kvg:type="&#12752;" d="M58.76,37.74c2.67-0.24,19.65-1.2,21.54-1.09"/><g id="kvg:09356-g6" kvg:element="&#24319;" kvg:part="2"><path id="kvg:09356-s13" kvg:type="&#12752;" d="M58.76,49.42c4.09,0.05,17.61-1.33,21.38-1.3"/></g></g><g id="kvg:09356-g7" kvg:element="&#21305;" kvg:position="bottom"><g id="kvg:09356-g8" kvg:element="&#21274;" kvg:part="1"><path id="kvg:09356-s14" kvg:type="&#12752;" d="M44.25,62.19c1.13,0.51,3.19,0.7,4.32,0.7c11.73-0.03,34.27-2.98,45.74-3.05c1.88-0.01,3,0.39,3.94,0.67"/></g><g id="kvg:09356-g9" kvg:element="&#20799;"><g id="kvg:09356-g10" kvg:element="&#20843;" kvg:variant="true"><g id="kvg:09356-g11" kvg:element="&#20031;" kvg:position="left"><path id="kvg:09356-s15" kvg:type="&#12754;" d="M65.04,64.56c0.28,0.3,0.61,1.06,0.54,1.64c-0.55,4.68-3.08,10.8-7.82,15.86"/></g><g id="kvg:09356-g12" kvg:position="right"><path id="kvg:09356-s16" kvg:type="&#12767;" d="M74.36,64.15c0.61,0.91,1.13,1.98,1.13,3.33c0,1.95-0.14,1.62-0.14,5.05C75.25,77,76,78.25,82.43,78.6c4.53,0.27,9.41-0.44,10.17-1.22"/></g></g></g><g id="kvg:09356-g13" kvg:element="&#21274;" kvg:part="2"><path id="kvg:09356-s17" kvg:type="&#12759;" d="M50.61,63.52c0.39,1.48,0.37,5.06,0.37,7.15c0,3.02-0.09,6.49-0.09,10.98c0,10.59-0.13,10.94,22.06,10.94c12.31,0,18.77-0.84,21.14-1.8"/></g></g></g></g></g></svg>