<svg xmlns="http://www.w3.org/2000/svg" width="109" height="109" viewBox="0 0 109 109"><g xmlns:kvg="http://kanjivg.tagaini.net" id="kvg:StrokePaths_093c8" style="fill:none;stroke:#000000;stroke-width:3;stroke-linecap:round;stroke-linejoin:round;"><g id="kvg:093c8" kvg:element="&#37832;"><g id="kvg:093c8-g1" kvg:element="&#37329;" kvg:position="left" kvg:radical="general"><path id="kvg:093c8-s1" kvg:type="&#12754;" d="M26.75,15.24c0,0.75,0.05,1.34-0.14,2.24c-1,4.67-10.5,20.24-18.63,27.15"/><path id="kvg:093c8-s2" kvg:type="&#12756;/&#12751;" d="M27.39,21.71c3.93,1.91,8.95,6.98,10.86,11.79"/><path id="kvg:093c8-s3" kvg:type="&#12752;" d="M15.5,41.5c1.5,0,2.18,0.09,2.67,0.06C22.5,41.24,27,40.03,32.1,39.8c0.74-0.03,0.9-0.05,2.15-0.05"/><path id="kvg:093c8-s4" kvg:type="&#12752;" d="M9.59,55.81c0.59,0.33,2.56,0.48,3.17,0.43c5.49-0.49,14.74-1.99,21.78-2.67c0.74-0.07,2.38-0.13,3.49,0.15"/><path id="kvg:093c8-s5" kvg:type="&#12753;a" d="M23.95,42.69c1.24,0.78,1.24,2.52,1.24,3.14c0,4.35,0.62,34.63,0.31,38.98"/><path id="kvg:093c8-s6" kvg:type="&#12756;" d="M10.64,66.26c3.63,4.85,5.41,10.11,6.15,12.94"/><path id="kvg:093c8-s7" kvg:type="&#12754;" d="M36.73,62.55c0.28,0.74,0.42,1.82,0.32,2.45c-0.28,1.61-2.49,4.55-5.63,9.28"/><path id="kvg:093c8-s8" kvg:type="&#12736;/&#12752;" d="M9.5,90.25c1.25,1,2.75,0.75,4.5,0.25c1.29-0.37,11.25-5.75,24.25-11.75"/></g><g id="kvg:093c8-g2" kvg:element="&#36899;" kvg:variant="true" kvg:position="right"><g id="kvg:093c8-g3" kvg:element="&#36554;"><path id="kvg:093c8-s9" kvg:type="&#12752;" d="M59.62,26.05c0.85,0.31,2.41,0.32,3.26,0.31c8.4-0.12,17.24-1.83,29.31-2.65c1.42-0.1,2.27,0.15,2.98,0.31"/><path id="kvg:093c8-s10" kvg:type="&#12753;" d="M60.76,36.98c0.48,0.41,1.09,0.73,1.18,1.27c0.65,3.94,2.53,14.52,3.44,21.98"/><path id="kvg:093c8-s11" kvg:type="&#12757;a" d="M62.6,38.48c7.27-0.79,24.19-3.59,29.16-3.71c2.05-0.05,2.47,1.52,2.39,2.75c-0.3,4.24-1.78,13.83-3.41,20.78"/><path id="kvg:093c8-s12" kvg:type="&#12752;a" d="M64.68,48.31c7.22-0.81,18.67-2.56,28.27-3.07"/><path id="kvg:093c8-s13" kvg:type="&#12752;a" d="M65.42,59c6.37-0.82,17.39-2.4,25.69-2.4"/><path id="kvg:093c8-s14" kvg:type="&#12752;" d="M59.57,70.15c0.87,0.43,2.46,0.54,3.34,0.43c11.18-1.3,21.99-2.59,32.28-2.87c1.46-0.04,2.33,0.21,3.05,0.42"/><path id="kvg:093c8-s15" kvg:type="&#12753;" d="M75.69,12.38c0.45,0.49,1.4,3.66,1.49,4.63c0.09,0.98-0.06,64.51-0.15,70.62"/></g><g id="kvg:093c8-g4" kvg:element="&#36790;" kvg:position="nyo"><path id="kvg:093c8-s16" kvg:type="&#12756;" d="M44.87,16.5c3.04,1.74,7.86,7.17,8.62,9.88"/><path id="kvg:093c8-s17" kvg:type="&#12756;" d="M43.87,38c3.22,1.52,8.32,6.26,9.12,8.63"/><path id="kvg:093c8-s18" kvg:type="&#12747;" d="M42,63.2c1.69,0.73,2.81,0.36,3.56,0.18c0.75-0.18,6-4.04,7.13-4.4c1.13-0.36,2.81,0.91,2.06,1.99c-0.75,1.09-3.5,6.26-4.06,7.17c-0.56,0.91-0.38,2.54,0.75,3.81c1.13,1.27,3.06,2.72,3.63,3.81c0.56,1.09,0.56,2-0.56,2.9c-1.13,0.91-7.25,5.98-8.38,6.35"/><path id="kvg:093c8-s19" kvg:type="&#12751;" d="M40.55,86.75c2.26-0.39,6.78-1.36,10.17-0.58c3.39,0.78,22.66,5.98,25.99,6.98c9.04,2.71,10.95,2.33,17.54,3.1"/></g></g></g></g></svg>