<svg xmlns="http://www.w3.org/2000/svg" width="109" height="109" viewBox="0 0 109 109"><g xmlns:kvg="http://kanjivg.tagaini.net" id="kvg:StrokePaths_09421" style="fill:none;stroke:#000000;stroke-width:3;stroke-linecap:round;stroke-linejoin:round;"><g id="kvg:09421" kvg:element="&#37921;"><g id="kvg:09421-g1" kvg:element="&#37329;" kvg:position="left" kvg:radical="general"><path id="kvg:09421-s1" kvg:type="&#12754;" d="M28.25,16.74c0,0.7,0.04,1.26-0.13,2.11c-0.92,4.39-9.66,19.03-17.15,25.53"/><path id="kvg:09421-s2" kvg:type="&#12756;/&#12751;" d="M29.64,21.96c4.02,1.46,9.15,5.35,11.11,9.04"/><path id="kvg:09421-s3" kvg:type="&#12752;" d="M18,43c1.5,0,2.18,0.09,2.67,0.06C25,42.74,30,41.03,35.1,40.8c0.74-0.03,0.9-0.05,2.15-0.05"/><path id="kvg:09421-s4" kvg:type="&#12752;" d="M12.09,57.31c0.59,0.33,2.56,0.48,3.17,0.43c5.49-0.49,15.74-2.99,22.78-3.17c0.75-0.02,2.38-0.13,3.49,0.15"/><path id="kvg:09421-s5" kvg:type="&#12753;a" d="M26.45,45.19c1.24,0.78,1.24,2.52,1.24,3.14c0,4.35,0.62,33.63,0.31,37.98"/><path id="kvg:09421-s6" kvg:type="&#12756;" d="M12.89,67.26c4.08,4.85,6.07,10.11,6.9,12.94"/><path id="kvg:09421-s7" kvg:type="&#12754;" d="M40.7,61.55c0.3,0.84,0.46,2.06,0.34,2.76c-0.3,1.81-2.71,5.13-6.12,10.47"/><path id="kvg:09421-s8" kvg:type="&#12736;/&#12752;" d="M11.5,91.79c1.25,0.94,2.75,0.7,4.5,0.24c1.29-0.35,11.25-5.4,24.25-11.03"/></g><g id="kvg:09421-g2" kvg:element="&#36617;" kvg:variant="true" kvg:position="right"><g id="kvg:09421-g3" kvg:element="&#21513;" kvg:part="1"><g id="kvg:09421-g4" kvg:element="&#22763;" kvg:part="1" kvg:original="&#22303;"><path id="kvg:09421-s9" kvg:type="&#12752;" d="M46.63,28.5c0.73,0.21,2.06,0.25,2.8,0.21c5.1-0.3,11.79-1.77,16.58-2.22c1.21-0.11,1.95,0.1,2.55,0.2"/><path id="kvg:09421-s10" kvg:type="&#12753;" d="M57.07,14.51c0.08,0.28,1.23,1.47,1.23,3.27c0,11.59,0.1,5.31,0.1,20.63"/></g><g id="kvg:09421-g5" kvg:element="&#35910;" kvg:part="1"><g id="kvg:09421-g6" kvg:element="&#25096;" kvg:part="1"><g id="kvg:09421-g7" kvg:element="&#24331;" kvg:part="1"><g id="kvg:09421-g8" kvg:element="&#22763;" kvg:part="2" kvg:original="&#22303;"><path id="kvg:09421-s11" kvg:type="&#12752;" d="M42.38,39.92c1.05,0.29,2.99,0.39,4.03,0.29c14.4-1.37,35.87-4.1,47.51-4.48c1.75-0.06,2.8,0.14,3.68,0.29"/></g></g></g><g id="kvg:09421-g9" kvg:element="&#35910;" kvg:part="2"><g id="kvg:09421-g10" kvg:element="&#21513;" kvg:part="2" kvg:position="top"><g id="kvg:09421-g11" kvg:element="&#21475;"><path id="kvg:09421-s12" kvg:type="&#12753;" d="M47.25,47.63c0.31,0.26,0.62,0.47,0.76,0.79c1.06,2.54,2.34,9.53,3.06,14.08"/><path id="kvg:09421-s13" kvg:type="&#12757;b" d="M49.16,49.46c6.27-1.37,13.91-2.88,17.51-3.23c1.31-0.13,2.1,0.75,1.91,1.49c-0.78,3.07-1.69,6.77-2.84,11.01"/><path id="kvg:09421-s14" kvg:type="&#12752;b" d="M51.21,60.78c4.22-0.39,10.04-1.06,15.83-1.66"/></g></g><g id="kvg:09421-g12" kvg:position="bottom"><path id="kvg:09421-s15" kvg:type="&#12756;" d="M50.02,68.28c1.67,2.23,4.32,9.15,4.74,12.61"/><path id="kvg:09421-s16" kvg:type="&#12754;" d="M65.79,64.64c0.02,0.45,0.04,1.16-0.04,1.8c-0.43,3.81-2.87,12.16-6.22,17.27"/><path id="kvg:09421-s17" kvg:type="&#12752;" d="M45,88.96c0.7,0.79,2.11,1.2,4.22,0.17c5.86-2.88,16.42-8.01,22.28-10.88"/></g></g></g><g id="kvg:09421-g13" kvg:element="&#25096;" kvg:part="2"><g id="kvg:09421-g14" kvg:element="&#24331;" kvg:part="2"><path id="kvg:09421-s18" kvg:type="&#12738;" d="M72.72,14.5c0.93,1.68,1.69,2.14,1.81,5.75c0.98,30.5,5.23,59,18.41,70.9c3.89,3.51,3.14,0.72,2.67-6.71"/></g><g id="kvg:09421-g15" kvg:element="&#20031;"><path id="kvg:09421-s19" kvg:type="&#12754;" d="M90.88,44.72c0.07,1.09,0.23,2.83-0.14,4.37c-2.4,9.9-10.24,30.01-23.67,42.38"/></g><g id="kvg:09421-g16" kvg:element="&#24331;" kvg:part="3"><g id="kvg:09421-g17" kvg:element="&#20022;"><path id="kvg:09421-s20" kvg:type="&#12756;" d="M83.93,20.09c2.61,1.79,6.78,5.87,8,8.93"/></g></g></g></g></g></g></g></svg>