<svg xmlns="http://www.w3.org/2000/svg" width="109" height="109" viewBox="0 0 109 109"><g xmlns:kvg="http://kanjivg.tagaini.net" id="kvg:StrokePaths_095b9" style="fill:none;stroke:#000000;stroke-width:3;stroke-linecap:round;stroke-linejoin:round;"><g id="kvg:095b9" kvg:element="&#38329;"><g id="kvg:095b9-g1" kvg:element="&#38272;" kvg:position="kamae" kvg:radical="general"><g id="kvg:095b9-g2" kvg:position="left"><path id="kvg:095b9-s1" kvg:type="&#12753;" d="M18.39,14.79c0.73,0.46,1.28,2.98,1.43,3.9c0.15,0.93-0.09,72.64-0.24,78.44"/><path id="kvg:095b9-s2" kvg:type="&#12757;a" d="M20.02,17.58c2.44-0.1,18.27-2.66,20.49-2.78c1.85-0.1,2.81,0.91,2.9,1.71c0.14,1.23-1.54,21.32-1.54,21.92"/><path id="kvg:095b9-s3" kvg:type="&#12752;a" d="M20.45,27.39c5.99-0.59,15.62-1.62,21.38-2.26"/><path id="kvg:095b9-s4" kvg:type="&#12752;a" d="M20.02,38.48c8.11-1.15,13.39-2.03,20.56-2.56"/></g><g id="kvg:095b9-g3" kvg:position="right"><path id="kvg:095b9-s5" kvg:type="&#12753;" d="M64.44,14.01c0.44,0.55,0.88,1.74,0.88,2.48c0,0.74,0.35,21.04,0.5,21.78"/><path id="kvg:095b9-s6" kvg:type="&#12742;a" d="M65.55,15.16c2.49-0.11,20.21-2.79,22.49-2.92c1.9-0.11,2.98,1.15,2.97,1.8c-0.49,19.46-0.5,62.79-0.5,76.9c0,13.56-6.95,3.66-8.4,2.36"/><path id="kvg:095b9-s7" kvg:type="&#12752;a" d="M65.99,24.72c3.38,0,19.59-1.74,23.4-1.74"/><path id="kvg:095b9-s8" kvg:type="&#12752;a" d="M66.55,34.76c4.99,0,17.09-1.06,23.55-1.06"/></g></g><g id="kvg:095b9-g4" kvg:element="&#22852;"><g id="kvg:095b9-g5" kvg:element="&#22823;" kvg:position="top"><path id="kvg:095b9-s9" kvg:type="&#12752;" d="M31.24,46.38c0.82,0.4,3,0.87,4.74,0.7c11.77-1.2,26.26-3.21,36.82-3.79c1.82-0.1,3.28,0.26,4.92,0.58"/><path id="kvg:095b9-s10" kvg:type="&#12754;" d="M52.97,37.25c0.28,0.72,0.01,1.81-0.39,2.62C46.71,51.7,39.5,59.36,26.75,66.29"/><path id="kvg:095b9-s11" kvg:type="&#12751;" d="M57.86,44.84c4.48,3.91,14.92,13.85,19.39,16.47c1.52,0.89,2.05,1.02,2.74,1.11"/></g><g id="kvg:095b9-g6" kvg:position="bottom"><g id="kvg:095b9-g7" kvg:element="&#26085;"><path id="kvg:095b9-s12" kvg:type="&#12753;" d="M38.44,61.46c0.43,0.43,0.85,1.35,0.86,1.97c0.01,0.62,2.75,18.56,2.9,19.17"/><path id="kvg:095b9-s13" kvg:type="&#12757;a" d="M39.99,62.43c2.39-0.29,24.1-2.17,26.27-2.46c1.81-0.24,2.7,1.08,2.53,2.52c-0.34,2.94-1.29,10.49-2.36,17.53"/><path id="kvg:095b9-s14" kvg:type="&#12752;a" d="M41.07,70.96c3.23-0.29,22.76-2.38,26.42-2.7"/><path id="kvg:095b9-s15" kvg:type="&#12752;a" d="M42.61,79.99c4.98-0.6,19.44-1.82,23.35-2.17"/></g><path id="kvg:095b9-s16" kvg:type="&#12767;" d="M52.67,52.59c0.54,0.75,0.97,1.63,1,2.78c0.14,5.15,0.12,26,0.12,29.5c0,5.97,1.71,7.16,10.78,7.16c7.68,0,9.66-1.28,9.66-6.99"/></g></g></g></g></svg>