<svg xmlns="http://www.w3.org/2000/svg" width="109" height="109" viewBox="0 0 109 109"><g xmlns:kvg="http://kanjivg.tagaini.net" id="kvg:StrokePaths_095d6" style="fill:none;stroke:#000000;stroke-width:3;stroke-linecap:round;stroke-linejoin:round;"><g id="kvg:095d6" kvg:element="&#38358;"><g id="kvg:095d6-g1" kvg:element="&#38272;" kvg:position="kamae" kvg:radical="general"><g id="kvg:095d6-g2" kvg:position="left"><path id="kvg:095d6-s1" kvg:type="&#12753;" d="M18.39,14.79c0.73,0.46,1.28,2.98,1.43,3.9c0.15,0.93-0.09,73.14-0.24,78.94"/><path id="kvg:095d6-s2" kvg:type="&#12757;a" d="M20.02,17.58c2.44-0.1,18.77-2.66,20.99-2.78c1.85-0.1,2.81,0.91,2.9,1.71c0.14,1.23-1.06,11.76-1.39,20.01"/><path id="kvg:095d6-s3" kvg:type="&#12752;a" d="M20.45,26.89c5.99-0.59,16.12-2.12,21.88-2.76"/><path id="kvg:095d6-s4" kvg:type="&#12752;a" d="M20.02,36.98c8.11-1.15,13.89-2.03,21.06-2.56"/></g><g id="kvg:095d6-g3" kvg:position="right"><path id="kvg:095d6-s5" kvg:type="&#12753;" d="M64.44,14.01c0.44,0.55,0.88,1.74,0.88,2.48c0,0.74,0.21,19.31,0.21,19.67"/><path id="kvg:095d6-s6" kvg:type="&#12742;a" d="M66.05,15.16c2.49-0.11,19.71-2.79,21.99-2.92c1.9-0.11,2.98,1.15,2.97,1.8c-0.49,19.46-0.5,64.29-0.5,78.4c0,10.81-4.01,5.56-7.4,1.86"/><path id="kvg:095d6-s7" kvg:type="&#12752;a" d="M66.49,24.72c3.38,0,20.09-1.74,23.9-1.74"/><path id="kvg:095d6-s8" kvg:type="&#12752;a" d="M66.05,34.26c4.99,0,18.09-1.56,24.55-1.56"/></g></g><g id="kvg:095d6-g4" kvg:element="&#39340;"><path id="kvg:095d6-s9" kvg:type="&#12753;" d="M39.92,43.73c0.27,0.23,0.57,1.51,0.57,1.91c0,4.06-0.47,22.02-0.64,28.42"/><path id="kvg:095d6-s10" kvg:type="&#12752;b" d="M41.29,45.45c6.74-0.8,21.96-2.46,24.85-2.9c1.01-0.15,2.72-0.33,3.23-0.21"/><path id="kvg:095d6-s11" kvg:type="&#12753;a" d="M53.31,45.71c0.27,0.23,0.49,0.55,0.49,0.95c0,4.06,0.03,17.79-0.14,24.19"/><path id="kvg:095d6-s12" kvg:type="&#12752;b" d="M40.49,54.98c6.74-0.8,19.76-2.35,22.65-2.79c1.01-0.15,2.72-0.33,3.23-0.21"/><path id="kvg:095d6-s13" kvg:type="&#12752;b" d="M40.64,63.56c6.73-0.8,19.76-2.35,22.65-2.79c1.01-0.15,2.72-0.33,3.23-0.21"/><path id="kvg:095d6-s14" kvg:type="&#12742;a" d="M40.61,74.19c7.87-1.43,25.57-3.37,29.93-3.9c2.84-0.34,4.44,1.57,4.1,3.95c-0.93,6.53-2.17,13.34-4.35,17.57c-3.05,5.9-4.02,3.18-6.9-0.03"/><g id="kvg:095d6-g5" kvg:element="&#28780;" kvg:variant="true" kvg:original="&#28779;"><path id="kvg:095d6-s15" kvg:type="&#12756;" d="M32.11,79.61c0.37,4.14-0.26,9.15-1.35,11.73"/><path id="kvg:095d6-s16" kvg:type="&#12756;" d="M40.51,79.85c1.41,1.39,2.75,5.2,3.1,7.35"/><path id="kvg:095d6-s17" kvg:type="&#12756;" d="M50.71,78.63c1.15,1.13,2.98,4.67,3.26,6.44"/><path id="kvg:095d6-s18" kvg:type="&#12756;" d="M59.73,76.98c1.37,1.13,3.54,4.65,3.89,6.41"/></g></g></g></g></svg>