<svg xmlns="http://www.w3.org/2000/svg" width="109" height="109" viewBox="0 0 109 109"><g xmlns:kvg="http://kanjivg.tagaini.net" id="kvg:StrokePaths_0962f" style="fill:none;stroke:#000000;stroke-width:3;stroke-linecap:round;stroke-linejoin:round;"><g id="kvg:0962f" kvg:element="&#38447;"><g id="kvg:0962f-g1" kvg:element="&#11990;" kvg:variant="true" kvg:original="&#38428;" kvg:position="left"><path id="kvg:0962f-s1" kvg:type="&#12743;" d="M16,19.05c0.94,0.14,1.95,0.15,3,0.08c4.25-0.29,13.01-2.04,15.19-2.94c2.72-1.12,5.44,1.12,4.23,3.73c-1.21,2.61-9.35,15.78-11.46,19.51"/><path id="kvg:0962f-s2" kvg:type="&#12748;" d="M26.96,40c13.79,11,11.54,39,1.51,32.43"/><path id="kvg:0962f-s3" kvg:type="&#12753;" d="M16.87,20.47c0.38,0.78,0.58,2.52,0.78,3.63c0.2,1.12,0,65.91-0.2,72.9"/></g><g id="kvg:0962f-g2" kvg:element="&#27490;" kvg:position="right"><g id="kvg:0962f-g3" kvg:element="&#21340;" kvg:original="&#12488;"><path id="kvg:0962f-s4" kvg:type="&#12753;a" d="M68.82,13.5c1.25,0.57,1.99,2.58,2.24,3.72c0.25,1.15,0,67.33-0.25,74.48"/><path id="kvg:0962f-s5" kvg:type="&#12752;b" d="M71.2,49.64c5.86-1.14,13.15-2,18.14-2.29c1.92-0.11,2.4-0.29,3.6,0"/></g><path id="kvg:0962f-s6" kvg:type="&#12753;a" d="M49.64,45.85c1.25,0.57,1.99,2.58,2.24,3.72c0.25,1.15,0,36.05-0.25,43.21"/><path id="kvg:0962f-s7" kvg:type="&#12752;" d="M34.41,93.4c0.72,0.2,2.64,0.67,4.56,0.6c13.81-0.5,41.82-2.66,54.96-2.66c1.92,0,4.79,0.29,6.66,1.15"/></g></g></g></svg>