<svg xmlns="http://www.w3.org/2000/svg" width="109" height="109" viewBox="0 0 109 109"><g xmlns:kvg="http://kanjivg.tagaini.net" id="kvg:StrokePaths_0963f" style="fill:none;stroke:#000000;stroke-width:3;stroke-linecap:round;stroke-linejoin:round;"><g id="kvg:0963f" kvg:element="&#38463;"><g id="kvg:0963f-g1" kvg:element="&#11990;" kvg:variant="true" kvg:original="&#38428;" kvg:position="left" kvg:radical="general"><path id="kvg:0963f-s1" kvg:type="&#12743;" d="M16.92,20.42c1.58,0.83,3.41,0.54,4.96,0.18c4.25-0.97,8.82-2.69,11.04-3.43c3-1,4.7,0.6,3.67,3.08C35.12,23.75,31.5,33,29,38"/><path id="kvg:0963f-s2" kvg:type="&#12757;va" d="M29,38.5c10.11,7.7,9.62,29.62,1.01,25.29"/><path id="kvg:0963f-s3" kvg:type="&#12753;" d="M18.87,21.5c1.06,1.06,1.21,2.25,1.21,3.75c0,3.66,0.02,44.29,0.03,61.38c0,2.75,0,4.88,0,6.12"/></g><g id="kvg:0963f-g2" kvg:element="&#21487;" kvg:position="right" kvg:phon="&#21487;"><g id="kvg:0963f-g3" kvg:element="&#19969;" kvg:part="1"><g id="kvg:0963f-g4" kvg:element="&#19968;"><path id="kvg:0963f-s4" kvg:type="&#12752;" d="M42.5,22.73c3.75,0.65,6.73,0.43,9.77-0.01c8.9-1.28,22.52-3.61,32.72-4.96c3.2-0.42,5.86-0.37,9.02,0.31"/></g></g><g id="kvg:0963f-g5" kvg:element="&#21475;"><path id="kvg:0963f-s5" kvg:type="&#12753;" d="M46.37,39.76c0.85,0.61,1.34,1.44,1.46,2.47c0.91,3.41,1.48,9.45,2.35,14.74c0.25,1.51,0.48,2.97,0.68,4.28"/><path id="kvg:0963f-s6" kvg:type="&#12757;b" d="M48.75,41.49c7.23-1.6,11.66-2.6,15.88-3.21c3.32-0.47,5.46-0.07,4.59,3.74c-0.96,4.17-2.08,9.58-3.44,14.66"/><path id="kvg:0963f-s7" kvg:type="&#12752;b" d="M51.57,59.53c4.7-0.44,7.64-1.14,12.92-1.84c1.24-0.16,2.59-0.33,4.1-0.48"/></g><g id="kvg:0963f-g6" kvg:element="&#19969;" kvg:part="2"><g id="kvg:0963f-g7" kvg:element="&#20101;"><path id="kvg:0963f-s8" kvg:type="&#12762;" d="M83.08,21.08c1.17,1.17,1.51,2.92,1.51,4.77c0,14.56-0.01,56.94-0.01,61.9c0,10.38-5.96,2-7.46,0.75"/></g></g></g></g></g></svg>