<svg xmlns="http://www.w3.org/2000/svg" width="109" height="109" viewBox="0 0 109 109"><g xmlns:kvg="http://kanjivg.tagaini.net" id="kvg:StrokePaths_0968d" style="fill:none;stroke:#000000;stroke-width:3;stroke-linecap:round;stroke-linejoin:round;"><g id="kvg:0968d" kvg:element="&#38541;"><g id="kvg:0968d-g1" kvg:element="&#11990;" kvg:variant="true" kvg:original="&#38428;" kvg:position="left" kvg:radical="general"><path id="kvg:0968d-s1" kvg:type="&#12743;" d="M14.87,18.16c0.83,0.23,1.66,0.6,2.46,0.45c7.42-1.36,11.14-1.89,13.81-2.9c3.06-1.15,6.12,1.15,4.76,3.83c-1.36,2.68-6.63,16.21-9.01,20.05"/><path id="kvg:0968d-s2" kvg:type="&#12757;va" d="M26.88,39.59C39.75,51,39,82.25,26.08,70.43"/><path id="kvg:0968d-s3" kvg:type="&#12753;" d="M16.04,19.53c0.46,1.47,0.28,2.59,0.5,3.74c0.22,1.15,0,67.3-0.22,74.49"/></g><g id="kvg:0968d-g2" kvg:element="&#30343;" kvg:position="right"><g id="kvg:0968d-g3" kvg:element="&#30333;" kvg:position="top"><g id="kvg:0968d-g4" kvg:position="top"><path id="kvg:0968d-s4" kvg:type="&#12754;" d="M67.21,10.25c0.4,0.51,0.46,1.15,0.36,1.59c-0.56,2.65-5.34,8.99-9.7,12.55"/></g><g id="kvg:0968d-g5" kvg:element="&#26085;" kvg:position="bottom"><path id="kvg:0968d-s5" kvg:type="&#12753;" d="M46.55,24.2c0.71,0.76,1.28,2.16,1.44,3.15c0.85,5.53,3.14,18.81,3.43,23.79"/><path id="kvg:0968d-s6" kvg:type="&#12757;a" d="M48.41,25.99c9.97-1.37,32.46-2.88,36.13-3.38c1.77-0.24,3.41,1.01,3.03,3.1c-0.86,4.64-2.29,14.43-4,23.32"/><path id="kvg:0968d-s7" kvg:type="&#12752;a" d="M49.39,36.5c11.11-1.25,30.01-2.37,36.21-2.37"/><path id="kvg:0968d-s8" kvg:type="&#12752;a" d="M52.08,48.75c10.35-0.86,22.7-1.36,31.25-1.62"/></g></g><g id="kvg:0968d-g6" kvg:element="&#29579;" kvg:original="&#29577;" kvg:partial="true" kvg:position="bottom"><path id="kvg:0968d-s9" kvg:type="&#12752;" d="M44.75,62.63c1.03,0.51,4.41,0.18,5.45,0.03c4.86-0.7,25.12-2.19,36.84-2.72c1.6-0.07,3.05,0.1,4.37,0.53"/><path id="kvg:0968d-s10" kvg:type="&#12753;a" d="M66.11,63.15c1.29,2.08,1.29,3.33,1.29,5c0,4.6-0.07,17.6-0.07,24.47"/><path id="kvg:0968d-s11" kvg:type="&#12752;" d="M46.25,76.08c0.83,0.57,3.56,0.31,4.41,0.25c8.59-0.58,22.76-0.94,33.12-1.95c1.03-0.1,3.31-0.23,4.85,0.26"/><path id="kvg:0968d-s12" kvg:type="&#12752;" d="M37.84,93.73c0.7,0.31,4.35,0.62,5.54,0.52c14.23-1.28,28.24-1.19,46-2.19c2.98-0.17,5.22-0.15,7.26,0"/></g></g></g></g></svg>