<svg xmlns="http://www.w3.org/2000/svg" width="109" height="109" viewBox="0 0 109 109"><g xmlns:kvg="http://kanjivg.tagaini.net" id="kvg:StrokePaths_096aa" style="fill:none;stroke:#000000;stroke-width:3;stroke-linecap:round;stroke-linejoin:round;"><g id="kvg:096aa" kvg:element="&#38570;"><g id="kvg:096aa-g1" kvg:element="&#11990;" kvg:variant="true" kvg:original="&#38428;" kvg:position="left" kvg:radical="general"><path id="kvg:096aa-s1" kvg:type="&#12743;" d="M17,17.5c0.98,0.49,2.07,1,3.2,0.88c6.05-0.63,9.48-1.75,11.94-2.67c3.06-1.15,6.12,1.15,4.76,3.83c-1.36,2.68-8.13,16.71-10.51,20.55"/><path id="kvg:096aa-s2" kvg:type="&#12757;va" d="M26.38,40.09c13.59,9.58,14.93,42.33,2.7,37.34"/><path id="kvg:096aa-s3" kvg:type="&#12753;" d="M18.04,19.53c0.21,1.22,0.28,2.59,0.5,3.74c0.22,1.15,0,66.3-0.22,73.49"/></g><g id="kvg:096aa-g2" kvg:element="&#20681;" kvg:position="right"><g id="kvg:096aa-g3" kvg:element="&#20154;" kvg:position="top"><path id="kvg:096aa-s4" kvg:type="&#12754;" d="M63.6,12.25c0.07,0.8,0.31,2.14-0.14,3.21c-2.86,6.82-10.94,21.15-24.48,30.77"/><path id="kvg:096aa-s5" kvg:type="&#12751;" d="M63.78,15.36c4.12,4.9,21.88,20.89,26.43,24.48c1.54,1.22,3.52,1.74,5.07,2.08"/></g><g id="kvg:096aa-g4" kvg:position="bottom"><g id="kvg:096aa-g5" kvg:element="&#19968;"><path id="kvg:096aa-s6" kvg:type="&#12752;" d="M51.68,42.35c0.67,0.29,1.9,0.3,2.57,0.29c5.99-0.14,17.49-2.39,21.44-3.16c1.1-0.21,1.79,0.14,2.35,0.28"/></g><g id="kvg:096aa-g6" kvg:element="&#21475;"><path id="kvg:096aa-s7" kvg:type="&#12753;" d="M43.47,53.43c0.27,0.29,0.54,0.52,0.66,0.88c0.93,2.83,2.45,10.65,3.09,15.74"/><path id="kvg:096aa-s8" kvg:type="&#12757;b" d="M44.72,54.93c6.78-1.29,13.05-2.19,16.18-2.56c1.15-0.14,1.83,0.81,1.67,1.61c-0.68,3.31-1.47,8.15-2.48,12.73"/><path id="kvg:096aa-s9" kvg:type="&#12752;b" d="M47.34,68.41c3.68-0.42,9.67-0.65,14.73-1.29"/></g><g id="kvg:096aa-g7" kvg:element="&#21475;"><path id="kvg:096aa-s10" kvg:type="&#12753;" d="M70.69,51.25c0.27,0.27,0.55,0.5,0.67,0.84c0.95,2.69,2.08,10.11,2.73,14.95"/><path id="kvg:096aa-s11" kvg:type="&#12757;b" d="M72.4,52.64C78.11,51.61,84.8,51,88,50.64c1.17-0.13,1.88,0.77,1.71,1.52c-0.69,3.14-1,7.38-2.04,11.73"/><path id="kvg:096aa-s12" kvg:type="&#12752;b" d="M74.23,65.99c3.76-0.4,10.45-1.09,15.62-1.7"/></g><g id="kvg:096aa-g8" kvg:element="&#20154;"><path id="kvg:096aa-s13" kvg:type="&#12754;" d="M53.12,73.46c0.18,0.98,0.12,1.91-0.13,2.54c-2.13,5.53-7,12.84-15.72,19.5"/><path id="kvg:096aa-s14" kvg:type="&#12751;" d="M53.41,79.34c3.39,1.79,7.71,6.55,9.36,11.06"/></g><g id="kvg:096aa-g9" kvg:element="&#20154;"><path id="kvg:096aa-s15" kvg:type="&#12754;" d="M78.23,72.26c0.15,1.01,0.1,1.97-0.11,2.62C76.34,80.58,72.28,88.13,65,95"/><path id="kvg:096aa-s16" kvg:type="&#12751;" d="M78.95,80.49c4.83,2.16,10.99,7.91,13.34,13.36"/></g></g></g></g></g></svg>