<svg xmlns="http://www.w3.org/2000/svg" width="109" height="109" viewBox="0 0 109 109"><g xmlns:kvg="http://kanjivg.tagaini.net" id="kvg:StrokePaths_096b2" style="fill:none;stroke:#000000;stroke-width:3;stroke-linecap:round;stroke-linejoin:round;"><g id="kvg:096b2" kvg:element="&#38578;"><g id="kvg:096b2-g1" kvg:element="&#11990;" kvg:variant="true" kvg:original="&#38428;" kvg:position="left" kvg:radical="nelson"><path id="kvg:096b2-s1" kvg:type="&#12743;" d="M15.87,15.66c0.86,0.44,1.94,0.75,3.13,0.61c6.51-0.76,11.72-1.65,14.14-2.56c3.06-1.15,6.12,1.15,4.76,3.83c-1.36,2.68-8.13,17.21-10.51,21.05"/><path id="kvg:096b2-s2" kvg:type="&#12757;va" d="M27.38,38.59C42,51.75,38.75,83,28.08,72.43"/><path id="kvg:096b2-s3" kvg:type="&#12753;" d="M17.54,17.03c0.46,0.72,0.28,2.59,0.5,3.74c0.22,1.15,0,70.3-0.22,77.49"/></g><g id="kvg:096b2-g2" kvg:position="right"><g id="kvg:096b2-g3" kvg:element="&#23569;" kvg:position="top"><g id="kvg:096b2-g4" kvg:element="&#23567;"><path id="kvg:096b2-s4" kvg:type="&#12762;" d="M66.65,11.5c0.06,0.18,0.9,0.94,0.97,2.09c0.31,5.52-0.2,15.45-0.2,17.33c0,5.33-4.17,2.32-6.33,0.64"/><path id="kvg:096b2-s5" kvg:type="&#12754;" d="M53.96,18.02c0.03,0.35,0.12,0.92-0.07,1.4c-1.38,3.48-7.23,10.2-11.98,13.41"/><path id="kvg:096b2-s6" kvg:type="&#12756;" d="M81.19,15.59c4.94,2.85,11.57,10.17,12.81,14.6"/></g><g id="kvg:096b2-g5" kvg:element="&#20031;"><path id="kvg:096b2-s7" kvg:type="&#12754;" d="M79.48,23.98c0.1,0.61,0.3,1.58-0.21,2.44c-4.16,7.1-20.16,18.56-36.41,23.33"/></g></g><g id="kvg:096b2-g6" kvg:element="&#39340;" kvg:position="bottom" kvg:radical="tradit"><path id="kvg:096b2-s8" kvg:type="&#12753;" d="M52.99,45.64c0.33,0.22,0.68,1.44,0.68,1.82c0,3.87,0.04,20.47-0.16,26.55"/><path id="kvg:096b2-s9" kvg:type="&#12752;b" d="M54.63,47.27c8.05-0.76,27.86-3.32,31.31-3.73c1.21-0.15,3.25-0.31,3.86-0.2"/><path id="kvg:096b2-s10" kvg:type="&#12753;a" d="M70.1,47.04c0.33,0.22,0.59,0.52,0.59,0.9c0,3.87,0.04,16.92-0.16,23.01"/><path id="kvg:096b2-s11" kvg:type="&#12752;b" d="M54.27,55.36c8.06-0.76,23.92-2.24,27.38-2.65c1.21-0.14,3.25-0.31,3.86-0.2"/><path id="kvg:096b2-s12" kvg:type="&#12752;b" d="M54.45,64.02c8.05-0.76,25.42-2.24,28.87-2.65c1.21-0.14,3.25-0.31,3.86-0.2"/><path id="kvg:096b2-s13" kvg:type="&#12742;a" d="M53.43,74.17c9.23-1.42,30.41-2.83,35.53-3.35c3.33-0.34,5.21,1.56,4.81,3.91c-1.1,6.46-2.3,15.69-4.87,19.87c-3.58,5.83-4.72,3.14-8.1-0.03"/><g id="kvg:096b2-g7" kvg:element="&#28780;" kvg:variant="true" kvg:original="&#28779;"><path id="kvg:096b2-s14" kvg:type="&#12756;" d="M45.2,82.54c-0.45,4.21-2.07,9.79-4.41,12.41"/><path id="kvg:096b2-s15" kvg:type="&#12756;" d="M56.28,81.36c1.1,2.3,2.15,8.61,2.43,12.18"/><path id="kvg:096b2-s16" kvg:type="&#12756;" d="M66.87,78.52c1.58,2.04,4.07,8.39,4.47,11.56"/><path id="kvg:096b2-s17" kvg:type="&#12756;" d="M77.7,78.28c1.72,1.47,4.44,6.05,4.87,8.34"/></g></g></g></g></g></svg>