<svg xmlns="http://www.w3.org/2000/svg" width="109" height="109" viewBox="0 0 109 109"><g xmlns:kvg="http://kanjivg.tagaini.net" id="kvg:StrokePaths_096ce" style="fill:none;stroke:#000000;stroke-width:3;stroke-linecap:round;stroke-linejoin:round;"><g id="kvg:096ce" kvg:element="&#38606;"><g id="kvg:096ce-g1" kvg:element="&#19988;" kvg:position="left"><g id="kvg:096ce-g2" kvg:element="&#26376;"><path id="kvg:096ce-s1" kvg:type="&#12753;a" d="M18.5,19.44c0.45,0.96,0.75,1.9,0.9,2.83c0.15,0.93,0.33,65.93,0.27,68"/><path id="kvg:096ce-s2" kvg:type="&#12757;b" d="M20.29,20.49c1.78-0.1,18.07-2.26,19.4-2.42c2.37-0.28,3.27,2.74,2.98,4.1c-0.28,1.31-0.14,40.13-0.23,58.77"/><path id="kvg:096ce-s3" kvg:type="&#12752;a" d="M20.35,41.05c10.05-1.62,13.49-1.67,21.32-2.58"/><path id="kvg:096ce-s4" kvg:type="&#12752;a" d="M20.21,61.29c6.52-1.33,14.39-1.42,22.11-2.31"/></g><g id="kvg:096ce-g3" kvg:element="&#19968;"><path id="kvg:096ce-s5" kvg:type="&#12752;" d="M10.26,91.44c1,1.09,1.99,1.77,4.17,1.08c1.55-0.49,27.55-10.46,34.05-13.13"/></g></g><g id="kvg:096ce-g4" kvg:element="&#38585;" kvg:position="right" kvg:radical="general"><g id="kvg:096ce-g5" kvg:element="&#20155;" kvg:variant="true" kvg:original="&#20154;"><path id="kvg:096ce-s6" kvg:type="&#12754;" d="M62.22,13.54c0.16,1.7-0.05,3.93-0.57,5.39c-3.32,9.29-7.54,17.15-15.16,28.46"/><path id="kvg:096ce-s7" kvg:type="&#12753;" d="M56.45,35.56c0.61,0.94,1.08,3,1.12,4.46c0.36,12.99-0.5,52.47-0.19,59.23"/></g><path id="kvg:096ce-s8" kvg:type="&#12754;" d="M81.15,14.5c0.09,0.98-0.02,2.26-0.31,3.1c-1.81,5.34-4.1,9.47-8.25,15.97"/><path id="kvg:096ce-s9" kvg:type="&#12752;b" d="M57.84,36.8c10.04-0.71,35.63-3.14,38.67-3.81"/><path id="kvg:096ce-s10" kvg:type="&#12753;a" d="M75.17,38.32c0.34,0.48,1.1,2.21,1.1,3.04c0,8.43,0.04,36.01-0.17,49.28"/><path id="kvg:096ce-s11" kvg:type="&#12752;b" d="M57.84,54.96c6.69-1.01,33.06-2.35,35.93-2.91"/><path id="kvg:096ce-s12" kvg:type="&#12752;b" d="M58.03,71.53c7.06-0.85,33.66-2.52,36.69-2.98"/><path id="kvg:096ce-s13" kvg:type="&#12752;b" d="M57.53,92.35c7.09-1.22,38.43-1.95,41.47-2.62"/></g></g></g></svg>