<svg xmlns="http://www.w3.org/2000/svg" width="109" height="109" viewBox="0 0 109 109"><g xmlns:kvg="http://kanjivg.tagaini.net" id="kvg:StrokePaths_096c9" style="fill:none;stroke:#000000;stroke-width:3;stroke-linecap:round;stroke-linejoin:round;"><g id="kvg:096c9" kvg:element="&#38601;"><g id="kvg:096c9-g1" kvg:element="&#30690;" kvg:variant="true" kvg:position="left" kvg:radical="nelson"><path id="kvg:096c9-s1" kvg:type="&#12754;" d="M26.39,15.21c0.04,0.68,0.08,1.75-0.08,2.72c-0.97,5.74-4.91,17.77-12.05,27.22"/><g id="kvg:096c9-g2" kvg:element="&#22825;" kvg:variant="true"><path id="kvg:096c9-s2" kvg:type="&#12752;" d="M22.41,31.72c1.75,0,2.14,0.14,3,0c4.34-0.72,9.96-0.93,16.21-2.91c1.41-0.45,2.83-0.23,3.55-0.04"/><g id="kvg:096c9-g3" kvg:element="&#22823;" kvg:variant="true"><path id="kvg:096c9-s3" kvg:type="&#12752;" d="M10.97,55.78c0.57,0.26,3.82,0.42,4.44,0.36c9.14-0.77,20.59-1.9,28.83-3.23c0.78-0.13,2.5-0.17,4.26,0.28"/><path id="kvg:096c9-s4" kvg:type="&#12754;" d="M31,33.91c0.3,1.43,0.43,2.82,0.43,4.59c-0.14,30.62-6.53,46.77-17.87,56.18"/><path id="kvg:096c9-s5" kvg:type="&#12756;/&#12751;" d="M31.75,66c6.64,4.61,12.59,12.53,13.75,17.5"/></g></g></g><g id="kvg:096c9-g4" kvg:element="&#38585;" kvg:position="right" kvg:radical="tradit"><g id="kvg:096c9-g5" kvg:element="&#20155;" kvg:variant="true" kvg:original="&#20154;"><path id="kvg:096c9-s6" kvg:type="&#12754;" d="M62.12,13.5c0.19,1.69-0.05,3.91-0.65,5.36C57.64,28.1,52.78,35.93,44,47.18"/><path id="kvg:096c9-s7" kvg:type="&#12753;" d="M55.19,34.65c0.63,0.88,1.11,2.8,1.15,4.16c0.37,12.12-0.01,53.13,0.3,59.44"/></g><path id="kvg:096c9-s8" kvg:type="&#12754;" d="M80.7,13.5c0.06,0.97-0.02,2.23-0.22,3.06c-1.28,5.28-2.9,9.37-5.84,15.8"/><path id="kvg:096c9-s9" kvg:type="&#12752;b" d="M56.16,35.91c8.84-1.16,36.59-3.46,39.72-4.09"/><path id="kvg:096c9-s10" kvg:type="&#12753;a" d="M74.45,36.58c0.39,0.49,0.69,1.16,0.69,2.01c0,8.62,0.04,36.88-0.19,50.46"/><path id="kvg:096c9-s11" kvg:type="&#12752;b" d="M56.64,53.32c6.89-0.94,33.5-2.19,36.45-2.71"/><path id="kvg:096c9-s12" kvg:type="&#12752;b" d="M56.8,70.29c7.27-0.8,33.65-2.41,36.77-2.85"/><path id="kvg:096c9-s13" kvg:type="&#12752;b" d="M56.8,90.68c7.3-1.14,38.06-1.82,41.2-2.45"/></g></g></g></svg>