<svg xmlns="http://www.w3.org/2000/svg" width="109" height="109" viewBox="0 0 109 109"><g xmlns:kvg="http://kanjivg.tagaini.net" id="kvg:StrokePaths_096db" style="fill:none;stroke:#000000;stroke-width:3;stroke-linecap:round;stroke-linejoin:round;"><g id="kvg:096db" kvg:element="&#38619;"><g id="kvg:096db-g1" kvg:element="&#33467;" kvg:position="left"><g id="kvg:096db-g2" kvg:position="top"><g id="kvg:096db-g3" kvg:element="&#21241;"><g id="kvg:096db-g4" kvg:element="&#20031;"><path id="kvg:096db-s1" kvg:type="&#12754;" d="M26.89,13c0.09,1.05-0.05,1.97-0.4,2.96c-1.55,4.35-6.79,12.17-13.76,17.12"/></g><path id="kvg:096db-s2" kvg:type="&#12742;" d="M26.62,21.29c1.38,0.59,2.61,0.36,3.73,0.2c2.55-0.38,11.13-1.75,15.16-2.29c4.11-0.55,4.84,0.83,4.56,4.83c-0.28,4.02-2.94,14.87-5.15,21.74c-1.45,4.51-3.01,6.86-6.66,2.73"/></g><g id="kvg:096db-g5" kvg:element="&#33400;" kvg:part="1"><g id="kvg:096db-g6" kvg:element="&#23662;"><g id="kvg:096db-g7" kvg:element="&#20981;"><path id="kvg:096db-s3" kvg:type="&#12759;a" d="M19.18,31.8c0.45,0.82,0.61,1.88,0.15,3.02c-0.57,1.43-0.7,2.18-1.29,4.14c-0.38,1.25-0.08,2.28,1.18,1.91C23.5,39.62,32.5,38,36.89,37.54"/><path id="kvg:096db-s4" kvg:type="&#12753;" d="M38.95,27.65c0.21,0.28,0.68,1.2,0.65,1.79c-0.15,2.74-1.1,5.31-1.77,10.4"/></g><g id="kvg:096db-g8" kvg:element="&#20031;"><path id="kvg:096db-s5" kvg:type="&#12754;" d="M28.7,27.59c0.65,0.45,0.74,1.85,0.74,2.58c0,6.28-1.07,14.7-10.44,21.9"/></g></g></g></g><g id="kvg:096db-g9" kvg:position="bottom"><g id="kvg:096db-g10" kvg:element="&#21241;"><g id="kvg:096db-g11" kvg:element="&#20031;"><path id="kvg:096db-s6" kvg:type="&#12754;" d="M26,52.1c0.12,1.08-0.06,2.1-0.55,3.06c-1.74,4.09-7.01,11.21-13.95,15.62"/></g><path id="kvg:096db-s7" kvg:type="&#12742;" d="M25.05,60.14c1.32,0.74,3.22,0.37,4.47,0.17c4.59-0.76,12.35-1.93,15.56-2.46c2.7-0.45,4.4,0.77,4.12,4.77c-0.4,5.61-2.84,19.06-6.46,27.62c-1.89,4.46-3.86,5.19-6.45,0.72"/></g><g id="kvg:096db-g12" kvg:element="&#33400;" kvg:part="2"><g id="kvg:096db-g13" kvg:element="&#23662;"><g id="kvg:096db-g14" kvg:element="&#20981;"><path id="kvg:096db-s8" kvg:type="&#12759;a" d="M17.97,70.98c0.27,0.22,0.69,0.82,0.69,2.1c0,1.49-0.66,3.04-1.64,5.75c-0.65,1.81,0.05,2.26,1.94,1.69c5.32-1.63,12.1-2.55,17.18-2.6"/><path id="kvg:096db-s9" kvg:type="&#12753;" d="M38.3,67.37c0.24,0.32,0.76,1.34,0.72,2c-0.17,3.06-1.52,7.13-1.94,10.72"/></g><g id="kvg:096db-g15" kvg:element="&#20031;"><path id="kvg:096db-s10" kvg:type="&#12754;" d="M27.46,66.8c0.49,0.46,0.61,1.8,0.55,2.55c-0.55,7.12-0.88,19.9-12.57,27.55"/></g></g></g></g></g><g id="kvg:096db-g16" kvg:element="&#38585;" kvg:position="right" kvg:radical="general"><g id="kvg:096db-g17" kvg:element="&#20155;" kvg:variant="true" kvg:original="&#20154;"><path id="kvg:096db-s11" kvg:type="&#12754;" d="M65.58,15.42c0.13,1.8-0.04,2.89-0.46,4.4C62.41,29.44,58.38,39.38,52,49.75"/><path id="kvg:096db-s12" kvg:type="&#12753;" d="M60.33,37.81c1.12,1.12,1.06,2.5,1.06,3.94c0,11.28,0.04,35.22,0.06,47.62c0,2.85,0.01,5.09,0.01,6.43"/></g><path id="kvg:096db-s13" kvg:type="&#12754;" d="M83.44,14.72c0.06,1.02-0.15,2.38-0.46,3.2c-2.11,5.58-4.89,12.34-6.69,16.05"/><path id="kvg:096db-s14" kvg:type="&#12752;b" d="M60.98,36.89c4.95-0.63,19.6-1.98,27.94-2.84c2.95-0.31,5.14-0.55,5.89-0.68"/><path id="kvg:096db-s15" kvg:type="&#12753;a" d="M77.04,37.6c0.64,0.97,0.83,2.29,0.83,3.4c-0.01,9.56-0.12,35.47-0.12,47.75"/><path id="kvg:096db-s16" kvg:type="&#12752;b" d="M62.62,53.37c4.57-0.48,16.04-1.22,23.5-1.75c2.87-0.2,5.04-0.37,5.79-0.48"/><path id="kvg:096db-s17" kvg:type="&#12752;b" d="M62.36,71.13c4.88-0.36,16.81-1.48,24.65-2.18c2.88-0.26,5.04-0.45,5.8-0.54"/><path id="kvg:096db-s18" kvg:type="&#12752;b" d="M62.36,90.83c6.14-0.21,18.56-1.08,27.65-1.55c3.54-0.18,6.19-0.33,6.99-0.43"/></g></g></g></svg>