<svg xmlns="http://www.w3.org/2000/svg" width="109" height="109" viewBox="0 0 109 109"><g xmlns:kvg="http://kanjivg.tagaini.net" id="kvg:StrokePaths_096f9" style="fill:none;stroke:#000000;stroke-width:3;stroke-linecap:round;stroke-linejoin:round;"><g id="kvg:096f9" kvg:element="&#38649;"><g id="kvg:096f9-g1" kvg:element="&#38632;" kvg:variant="true" kvg:position="top" kvg:radical="general"><path id="kvg:096f9-s1" kvg:type="&#12752;" d="M33.16,14.04c1.84,0.46,3.81,0.78,5.12,0.69c6.97-0.49,24.97-2.74,31.25-2.87c1.83-0.04,2.35-0.18,4.03,0.12"/><path id="kvg:096f9-s2" kvg:type="&#12756;/&#12753;" d="M19.39,27.67c-0.18,6.12-1.78,12.91-2.96,19.09"/><path id="kvg:096f9-s3" kvg:type="&#12758;b/&#12742;" d="M19.35,29.82c7.4-1.02,53.84-5.34,69.55-5.34c9.1,0,0.17,7.83-1.28,9.43"/><path id="kvg:096f9-s4" kvg:type="&#12753;" d="M52.92,17.32c0.91,1.36,1.31,2.26,1.33,3.6c0.01,0.48-0.27,25.27-0.27,26.59"/><path id="kvg:096f9-s5" kvg:type="&#12756;" d="M34,35.93c2.99,0.68,7.08,2.71,8.71,3.83"/><path id="kvg:096f9-s6" kvg:type="&#12756;" d="M33,44.01c3.08,0.72,7.84,3.37,9.52,4.57"/><path id="kvg:096f9-s7" kvg:type="&#12756;" d="M67.25,32.22c3.56,1.11,7.6,3.32,9.03,4.24"/><path id="kvg:096f9-s8" kvg:type="&#12756;" d="M66.29,39.73c3.33,0.88,7.88,3.5,9.7,4.96"/></g><g id="kvg:096f9-g2" kvg:element="&#21253;" kvg:position="bottom"><g id="kvg:096f9-g3" kvg:element="&#21241;"><g id="kvg:096f9-g4" kvg:element="&#20031;"><path id="kvg:096f9-s9" kvg:type="&#12754;" d="M34.75,49.5c0.04,0.52,0.23,1.39-0.08,2.1c-2.02,4.62-7.51,13.31-15.06,20.06"/></g><path id="kvg:096f9-s10" kvg:type="&#12742;" d="M35.79,55.52c1.13,0.41,2.72,0.54,4.54,0.27c1.82-0.27,34.64-3.83,39.16-4.07c2.15-0.11,4.08,1.74,3.98,3.25c-0.31,4.56-2.72,16.28-5.57,23.79c-1.13,2.98-3.65,3.23-6.26-0.68"/></g><g id="kvg:096f9-g5" kvg:element="&#24051;"><g id="kvg:096f9-g6" kvg:element="&#24049;" kvg:variant="true"><path id="kvg:096f9-s11" kvg:type="&#12757;" d="M32.97,64.98c1.48,0.62,2.75,0.62,4.92,0.42c4.42-0.42,20.69-2.66,22.04-2.74c1.78-0.1,3.18,1.18,2.54,2.79c-0.19,0.48-0.98,4.05-2.78,9.28"/><path id="kvg:096f9-s12" kvg:type="&#12752;" d="M36.6,78.62c4.78-0.3,18.38-2.68,25.17-2.94"/><path id="kvg:096f9-s13" kvg:type="&#12767;" d="M36.04,66.08c0.21,0.92,0.26,3.08,0.25,4.2c-0.03,3.59,0.16,12.6,0.16,15.74c0,8.72,0.8,9.66,26.72,9.66c29.08,0,30.47-2.19,30.47-12.03"/></g></g></g></g></g></svg>