<svg xmlns="http://www.w3.org/2000/svg" width="109" height="109" viewBox="0 0 109 109"><g xmlns:kvg="http://kanjivg.tagaini.net" id="kvg:StrokePaths_0970f" style="fill:none;stroke:#000000;stroke-width:3;stroke-linecap:round;stroke-linejoin:round;"><g id="kvg:0970f" kvg:element="&#38671;"><g id="kvg:0970f-g1" kvg:element="&#38632;" kvg:variant="true" kvg:position="top" kvg:radical="general"><path id="kvg:0970f-s1" kvg:type="&#12752;" d="M30.66,13.73c2.09,0.77,4.38,0.77,5.88,0.67c9.21-0.65,28.18-2.83,35.39-2.95c2.1-0.03,2.7-0.16,4.63,0.11"/><path id="kvg:0970f-s2" kvg:type="&#12756;/&#12753;" d="M19.18,21.67c-0.26,5.48-2.57,11.55-4.28,17.09"/><path id="kvg:0970f-s3" kvg:type="&#12758;b/&#12742;" d="M19.35,24.82c7.4-1.02,53.34-4.34,69.05-4.34c9.1,0,1.17,6.33-0.28,7.93"/><path id="kvg:0970f-s4" kvg:type="&#12753;" d="M53.42,14.32c0.91,1.36,1.31,2.26,1.33,3.6c0.01,0.48-0.27,20.27-0.27,21.59"/><path id="kvg:0970f-s5" kvg:type="&#12756;" d="M36,28.93c2.99,0.68,7.08,2.71,8.71,3.83"/><path id="kvg:0970f-s6" kvg:type="&#12756;" d="M28.75,34.51c3.32,0.96,8.46,4.48,10.27,6.07"/><path id="kvg:0970f-s7" kvg:type="&#12756;" d="M67.75,25.48c3.76,1.17,8.02,3.49,9.53,4.46"/><path id="kvg:0970f-s8" kvg:type="&#12756;" d="M65.79,33.98c3.68,1.18,8.7,4.74,10.7,6.71"/></g><g id="kvg:0970f-g2" kvg:element="&#38750;" kvg:position="bottom"><g id="kvg:0970f-g3" kvg:position="left"><path id="kvg:0970f-s9" kvg:type="&#12754;" d="M45.01,44.01c0.49,0.74,1.41,1.74,1.41,3.12c0,3.63,0.35,7.63,0.09,12.88C45.75,75.75,45,89,28.59,99.25"/><path id="kvg:0970f-s10" kvg:type="&#12752;" d="M17.61,54.81c1.39,0.44,2.68,0.65,3.92,0.5C22.77,55.16,43,53.5,45.92,53.3"/><path id="kvg:0970f-s11" kvg:type="&#12752;" d="M16.2,66.83c1.8,0.17,3.29,0.68,4.82,0.5c1.52-0.19,19.48-1.83,24.73-2.23"/><path id="kvg:0970f-s12" kvg:type="&#12752;" d="M14.84,83.35c0.87,1,2.06,1.6,3.5,0.99c0.85-0.36,20.77-8.3,24.37-10.04"/></g><g id="kvg:0970f-g4" kvg:position="right"><path id="kvg:0970f-s13" kvg:type="&#12753;" d="M60.71,43.75c0.79,1,1.62,2.48,1.62,3.17c0,5.58,0,48.47-0.18,52.63"/><path id="kvg:0970f-s14" kvg:type="&#12752;" d="M62.74,52.16c6.64-0.26,23.05-2.15,28.03-2.58c1.81-0.16,0.55-0.09,3.69-0.09"/><path id="kvg:0970f-s15" kvg:type="&#12752;" d="M62.31,65.6c6.56-0.26,23.5-1.81,28.41-2.24c1.79-0.16,0.55-0.09,3.64-0.09"/><path id="kvg:0970f-s16" kvg:type="&#12752;" d="M62.67,80.74c5.84-0.18,26.12-1.24,30.5-1.54c1.59-0.11,0.49-0.06,3.24-0.06"/></g></g></g></g></svg>