<svg xmlns="http://www.w3.org/2000/svg" width="109" height="109" viewBox="0 0 109 109"><g xmlns:kvg="http://kanjivg.tagaini.net" id="kvg:StrokePaths_09711" style="fill:none;stroke:#000000;stroke-width:3;stroke-linecap:round;stroke-linejoin:round;"><g id="kvg:09711" kvg:element="&#38673;"><g id="kvg:09711-g1" kvg:element="&#38632;" kvg:variant="true" kvg:position="top" kvg:radical="general"><path id="kvg:09711-s1" kvg:type="&#12752;" d="M30.16,14.35c1.59,0.07,4.53,0.35,6.07,0.18c8.26-0.89,29.61-3.08,37.05-3.21c2.17-0.04,2.79-0.17,4.78,0.12"/><path id="kvg:09711-s2" kvg:type="&#12756;/&#12753;" d="M20.18,24.92C19.91,30,18.1,35.63,16.4,40.77"/><path id="kvg:09711-s3" kvg:type="&#12758;b/&#12742;" d="M20.35,26.82c7.4-1.02,50.84-4.84,66.55-4.84c9.1,0,0.67,5.83-0.78,7.43"/><path id="kvg:09711-s4" kvg:type="&#12753;" d="M51.42,14.32c0.91,1.36,1.31,2.26,1.33,3.6c0.01,0.48-0.27,24.77-0.27,26.09"/><path id="kvg:09711-s5" kvg:type="&#12756;" d="M31.5,30.95c3.51,0.85,8.3,3.38,10.21,4.79"/><path id="kvg:09711-s6" kvg:type="&#12756;" d="M28.5,39.76c3.57,0.92,9.07,4.29,11.02,5.82"/><path id="kvg:09711-s7" kvg:type="&#12756;" d="M66.5,28.27c3.66,1.34,7.81,4.02,9.28,5.13"/><path id="kvg:09711-s8" kvg:type="&#12756;" d="M65.04,38.23c3.76,0.96,8.9,3.86,10.95,5.46"/></g><g id="kvg:09711-g2" kvg:element="&#27838;" kvg:position="bottom"><g id="kvg:09711-g3" kvg:element="&#27701;" kvg:variant="true" kvg:original="&#27700;" kvg:position="left"><path id="kvg:09711-s9" kvg:type="&#12756;" d="M24,50.34c4.01,1.37,10.36,5.64,11.36,7.77"/><path id="kvg:09711-s10" kvg:type="&#12756;" d="M16.71,63.11c3.71,1.4,9.57,5.74,10.5,7.91"/><path id="kvg:09711-s11" kvg:type="&#12736;" d="M18.25,92.86c1.57,0.75,3.46,0.78,4.45-0.14c2.88-2.69,16.3-20.8,18.92-24.23"/></g><g id="kvg:09711-g4" kvg:element="&#21344;" kvg:position="right"><g id="kvg:09711-g5" kvg:element="&#21340;" kvg:variant="true" kvg:original="&#12488;" kvg:position="top"><path id="kvg:09711-s12" kvg:type="&#12753;a" d="M63.62,46.38c0.56,0.3,1.73,2.23,1.85,2.82c0.11,0.59-0.18,18.14-0.18,26.86"/><path id="kvg:09711-s13" kvg:type="&#12752;b" d="M65.68,59.92c8.66-0.75,16.07-1.92,19.49-2.74c1.17-0.28,3.37,0,4.33,0.25"/></g><g id="kvg:09711-g6" kvg:element="&#21475;" kvg:position="bottom"><path id="kvg:09711-s14" kvg:type="&#12753;" d="M47.74,77.36c0.36,0.38,0.73,0.7,0.88,1.18c1.25,3.8,2.24,14.29,3.09,21.11"/><path id="kvg:09711-s15" kvg:type="&#12757;b" d="M49.33,78.73c9.58-1.41,30.39-4.31,34.95-4.61c1.97-0.13,3.47,1.37,2.92,3.64c-1.15,4.75-2.71,10.59-4.07,16.66"/><path id="kvg:09711-s16" kvg:type="&#12752;b" d="M52.07,97.22c8.93-0.97,24.7-2.39,33.61-2.62"/></g></g></g></g></g></svg>