<svg xmlns="http://www.w3.org/2000/svg" width="109" height="109" viewBox="0 0 109 109"><g xmlns:kvg="http://kanjivg.tagaini.net" id="kvg:StrokePaths_09732" style="fill:none;stroke:#000000;stroke-width:3;stroke-linecap:round;stroke-linejoin:round;"><g id="kvg:09732" kvg:element="&#38706;"><g id="kvg:09732-g1" kvg:element="&#38632;" kvg:variant="true" kvg:position="top" kvg:radical="general"><path id="kvg:09732-s1" kvg:type="&#12752;" d="M34.68,15.64c2.19,0.26,4.52,0.29,6.71,0.05c6.1-0.69,16.32-1.9,24.74-2.47c2.31-0.16,4.46-0.16,6.76,0.18"/><path id="kvg:09732-s2" kvg:type="&#12756;/&#12753;" d="M20.01,26.62c-0.22,5.22-2.18,11-3.63,16.28"/><path id="kvg:09732-s3" kvg:type="&#12758;b/&#12742;" d="M21.1,28.83c21.03-1.51,51.4-4.76,66.37-4.76c7.75,0,3.74,4.39-0.27,8.26"/><path id="kvg:09732-s4" kvg:type="&#12753;" d="M52.21,17.15c1,1,1.22,2.22,1.22,3.68c0,0.35,0.12,12,0.06,19.41c-0.03,2.79-0.04,4.84-0.04,5.2"/><path id="kvg:09732-s5" kvg:type="&#12756;" d="M31.98,32.45c2.68,0.71,6.32,2.83,7.78,4"/><path id="kvg:09732-s6" kvg:type="&#12756;" d="M30.06,40.42c2.42,0.7,6.16,3.29,7.48,4.47"/><path id="kvg:09732-s7" kvg:type="&#12756;" d="M64.77,29.84c3.26,1.03,6.95,3.08,8.25,3.94"/><path id="kvg:09732-s8" kvg:type="&#12756;" d="M64.55,38.07c2.54,0.69,6.45,3.21,7.84,4.36"/></g><g id="kvg:09732-g2" kvg:element="&#36335;" kvg:position="bottom" kvg:phon="&#36335;"><g id="kvg:09732-g3" kvg:element="&#36275;" kvg:position="left"><g id="kvg:09732-g4" kvg:element="&#21475;"><path id="kvg:09732-s9" kvg:type="&#12753;" d="M22.4,52.03c0.74,0.45,1.27,0.93,1.56,2.23c0.67,2.99,1.2,4.9,1.81,7.95c0.27,1.36,0.52,2.67,0.73,3.78"/><path id="kvg:09732-s10" kvg:type="&#12757;b" d="M24.56,52.79c7.68-1.13,14.17-2.05,18.45-2.44c2.34-0.21,3.61,0.91,2.92,3.17c-0.74,2.44-1.51,5.12-2.46,8.24"/><path id="kvg:09732-s11" kvg:type="&#12752;b" d="M27.29,64.15c3.71-0.32,8.26-0.84,13.18-1.35c1.32-0.14,2.67-0.27,4.03-0.41"/></g><path id="kvg:09732-s12" kvg:type="&#12753;a" d="M33.87,66.4c1.05,1.05,1.21,2.35,1.21,3.95c0,3.4,0.03,10.78,0.03,16.77"/><path id="kvg:09732-s13" kvg:type="&#12752;b" d="M35.88,73.71c3.12-0.71,4.88-0.89,8.1-1.52c1.01-0.2,1.93-0.17,3.01,0"/><path id="kvg:09732-s14" kvg:type="&#12754;" d="M22.12,76.32c0.78,0.78,0.96,1.93,0.96,3.2c0,0.71,0.03,7.23,0.03,11.66"/><path id="kvg:09732-s15" kvg:type="&#12736;/&#12751;" d="M16.5,92.68c1,1.07,2.22,1.1,3.7,0.6c8.68-2.91,15.68-5.28,25.55-8.9"/></g><g id="kvg:09732-g5" kvg:element="&#21508;" kvg:position="right"><g id="kvg:09732-g6" kvg:element="&#22786;" kvg:position="top"><path id="kvg:09732-s16" kvg:type="&#12754;" d="M62.92,44.84c0.07,0.94,0.01,1.68-0.34,2.57c-1.73,4.3-5.91,10.34-11.8,16.89"/><path id="kvg:09732-s17" kvg:type="&#12743;" d="M63.35,49.5c0.27,0.02,1.43,0,2.2-0.07c2.41-0.21,7.48-0.91,11.07-1.67c2.37-0.51,3.75,0.87,2.43,3.16c-4.51,7.84-16.89,24.42-31.62,28.89"/><path id="kvg:09732-s18" kvg:type="&#12751;" d="M58.87,56.17c2.93,0.82,18.6,11.75,27.12,16.8c3.01,1.78,4.76,2.53,7.82,3.56"/></g><g id="kvg:09732-g7" kvg:element="&#21475;" kvg:position="bottom"><path id="kvg:09732-s19" kvg:type="&#12753;" d="M55.62,80.62c0.73,0.72,1.12,1.6,1.17,2.65c0.64,2.84,1.3,7.41,1.84,11.47c0.2,1.48,0.38,2.89,0.53,4.13"/><path id="kvg:09732-s20" kvg:type="&#12757;b" d="M57.49,81.49c7.29-0.77,17.72-2.08,22.51-2.63c2.64-0.3,3.72,0.2,3.13,2.92c-0.74,3.39-1.6,7.72-2.66,12.01"/><path id="kvg:09732-s21" kvg:type="&#12752;b" d="M60.06,96.14c3.46-0.35,11.67-0.91,17.96-1.47c1.71-0.15,3.11-0.42,4.57-0.2"/></g></g></g></g></g></svg>