<svg xmlns="http://www.w3.org/2000/svg" width="109" height="109" viewBox="0 0 109 109"><g xmlns:kvg="http://kanjivg.tagaini.net" id="kvg:StrokePaths_0975e" style="fill:none;stroke:#000000;stroke-width:3;stroke-linecap:round;stroke-linejoin:round;"><g id="kvg:0975e" kvg:element="&#38750;" kvg:radical="general"><g id="kvg:0975e-g1" kvg:position="left"><path id="kvg:0975e-s1" kvg:type="&#12754;" d="M42.12,14.75c0.75,0.75,1.43,2.23,1.46,3.25c1.55,50.38-0.2,64.5-14.08,80.75"/><path id="kvg:0975e-s2" kvg:type="&#12752;c" d="M20.75,35.75c1.75,0.38,3.23,0.36,4.75,0.25c3.38-0.25,9.25-1.25,15-2.5"/><path id="kvg:0975e-s3" kvg:type="&#12752;c" d="M20.25,52.5c1.38,0.25,3.24,0.19,4.75,0c3-0.38,11.12-2.12,16-3.5"/><path id="kvg:0975e-s4" kvg:type="&#12736;" d="M14.25,72.66c0.98,0.98,2.35,1.24,3.83,0.65c4.17-1.68,17.34-6.63,21.55-8.18"/></g><g id="kvg:0975e-g2" kvg:position="right"><path id="kvg:0975e-s5" kvg:type="&#12753;" d="M64.37,12.25c1,1,1.46,2.5,1.46,4c0,0.85-0.11,51.5-0.11,73.25c0,4.36-0.07,7.43-0.11,8.5"/><path id="kvg:0975e-s6" kvg:type="&#12752;b" d="M69.25,30c4.5-0.38,14.5-2.25,18.25-3.25c1.21-0.32,2.75-0.38,4.25-0.12"/><path id="kvg:0975e-s7" kvg:type="&#12752;b" d="M69.12,47c4.38-0.12,14.62-2.12,18-2.75c1.23-0.23,2.62-0.38,4-0.12"/><path id="kvg:0975e-s8" kvg:type="&#12752;b" d="M69,67.88c4.5-0.38,18.62-2.62,22-3.25c1.23-0.23,2.62-0.38,4-0.12"/></g></g></g></svg>