<svg xmlns="http://www.w3.org/2000/svg" width="109" height="109" viewBox="0 0 109 109"><g xmlns:kvg="http://kanjivg.tagaini.net" id="kvg:StrokePaths_09771" style="fill:none;stroke:#000000;stroke-width:3;stroke-linecap:round;stroke-linejoin:round;"><g id="kvg:09771" kvg:element="&#38769;"><g id="kvg:09771-g1" kvg:element="&#38761;" kvg:position="left" kvg:radical="general"><g id="kvg:09771-g2" kvg:element="&#24319;" kvg:position="top"><g id="kvg:09771-g3" kvg:element="&#21313;"><path id="kvg:09771-s1" kvg:type="&#12752;" d="M9.48,25.31c1.09,0.38,3.11,0.41,4.2,0.38c7.32-0.2,21.57-2.2,32.87-4.06c1.8-0.3,2.92,0.18,3.84,0.38"/><path id="kvg:09771-s2" kvg:type="&#12753;" d="M20.27,15.11c0.53,0.38,0.86,1.7,0.96,2.46c0.93,6.77,1.56,13.63,2.13,22.18"/></g><path id="kvg:09771-s3" kvg:type="&#12753;a" d="M38.24,12c0.53,0.38,1.03,1.69,0.96,2.46c-0.74,7.87-0.37,10.81-1.8,21.38"/><path id="kvg:09771-s4" kvg:type="&#12752;b" d="M24.56,37.24c2.03,0,13.4-1.41,15.23-1.58"/></g><g id="kvg:09771-g4" kvg:position="bottom"><path id="kvg:09771-s5" kvg:type="&#12753;" d="M14.76,48.7c0.3,0.49,0.61,0.89,0.74,1.51c1.05,4.84,2.43,7.81,3.15,16.5"/><path id="kvg:09771-s6" kvg:type="&#12757;" d="M16.04,49.85c8.88-1.77,24.76-3.14,28.57-3.82c1.39-0.25,2.57,1.5,2.33,2.96c-0.5,2.99-1.35,5.62-2.44,10.83"/><path id="kvg:09771-s7" kvg:type="&#12752;" d="M18.42,64.55c4.48-0.77,20.59-3.47,27.97-3.99"/><path id="kvg:09771-s8" kvg:type="&#12752;" d="M10.25,75.99c1.04,0.66,2.96,0.81,4.01,0.66c8.47-1.21,21.44-2.73,32.09-4.54c1.72-0.29,2.79,0.31,3.66,0.65"/><path id="kvg:09771-s9" kvg:type="&#12753;" d="M30.46,38.25c0.36,1,0.54,2.23,0.54,3.25c0,8.5,0,50.75-0.12,57"/></g></g><g id="kvg:09771-g5" kvg:element="&#20996;" kvg:position="right"><g id="kvg:09771-g6" kvg:element="&#20992;"><path id="kvg:09771-s10" kvg:type="&#12742;" d="M57.15,24.4c1.49,0.83,3.35,0.65,4.66,0.45c10.18-1.6,19.21-3.74,25.09-4.59c3.83-0.55,5.53,1.66,5.32,5.55c-0.56,10.25-1.98,50.44-9.98,64.41c-4.65,8.12-5.99,5.81-8.85,0.26"/><g id="kvg:09771-g7" kvg:element="&#20034;" kvg:part="1"><g id="kvg:09771-g8" kvg:element="&#20031;"><path id="kvg:09771-s11" kvg:type="&#12754;" d="M71.42,27.33c0.07,1.44,0.1,3.72-0.14,5.8C68.9,53.43,62.5,77.5,47,92.11"/></g></g></g><g id="kvg:09771-g9" kvg:element="&#20034;" kvg:part="2"><path id="kvg:09771-s12" kvg:type="&#12751;" d="M53.77,39c1.4,0,2.37,0.42,2.88,1.27C64.25,53,80.25,72.25,91.91,80.29c2.26,1.56,3.63,2.88,5.59,3.46"/></g></g></g></g></svg>