<svg xmlns="http://www.w3.org/2000/svg" width="109" height="109" viewBox="0 0 109 109"><g xmlns:kvg="http://kanjivg.tagaini.net" id="kvg:StrokePaths_09774" style="fill:none;stroke:#000000;stroke-width:3;stroke-linecap:round;stroke-linejoin:round;"><g id="kvg:09774" kvg:element="&#38772;"><g id="kvg:09774-g1" kvg:element="&#38761;" kvg:position="left" kvg:radical="general"><g id="kvg:09774-g2" kvg:element="&#24319;" kvg:position="top"><g id="kvg:09774-g3" kvg:element="&#21313;"><path id="kvg:09774-s1" kvg:type="&#12752;" d="M9.96,28.67c2.04,0.45,4,0.2,5.43,0.01c6.35-0.84,19.94-2.72,27.47-3.37c1.75-0.15,3.58-0.4,5.28,0.18"/><path id="kvg:09774-s2" kvg:type="&#12753;" d="M19.15,17.25c1.05,1.05,1.5,1.91,1.63,3.1c0.3,2.78,0.69,9.92,1.19,15.62c0.15,1.72,0.29,3.38,0.4,4.86"/></g><path id="kvg:09774-s3" kvg:type="&#12753;a" d="M37.48,13.75c0.88,0.88,1.21,2.15,1.08,3.25c-0.43,3.7-1.47,8.96-2.82,18.79"/><path id="kvg:09774-s4" kvg:type="&#12752;b" d="M23.52,38.76c2.61-0.14,6.24-0.86,10.28-1.43c1.77-0.25,3.19-0.45,3.75-0.49"/></g><g id="kvg:09774-g4" kvg:position="bottom"><path id="kvg:09774-s5" kvg:type="&#12753;" d="M14.12,48.64c0.81,0.81,1.4,1.98,1.48,3.1c0.56,2.73,0.95,5.36,1.74,9.5c0.25,1.32,0.52,2.75,0.81,4.3"/><path id="kvg:09774-s6" kvg:type="&#12757;b" d="M16.39,50.01c6.87-1.07,17.43-2.39,22.28-3.12c2.56-0.38,4.38-0.07,3.72,3.11c-0.48,2.34-1.65,5.32-2.4,9.07"/><path id="kvg:09774-s7" kvg:type="&#12752;b" d="M18.88,62.78c2.8-0.5,12.16-1.62,18.36-2.5c1.69-0.24,3.13-0.44,4.1-0.58"/><path id="kvg:09774-s8" kvg:type="&#12752;" d="M10.81,75.04c1.82,0.71,4.3,0.6,6.09,0.29c7.14-1.25,16.74-2.72,23.47-3.46c1.54-0.17,3.01-0.25,4.58,0.09"/><path id="kvg:09774-s9" kvg:type="&#12753;" d="M27.99,40.41c0.62,0.45,1.12,2.04,1.12,2.95c0,3.95-0.04,29.24-0.05,45.89c0,2.37,0,4.57,0,6.5"/></g></g><g id="kvg:09774-g5" kvg:element="&#21270;" kvg:position="right" kvg:phon="&#21270;"><g id="kvg:09774-g6" kvg:element="&#20155;" kvg:variant="true" kvg:original="&#20154;" kvg:position="left"><path id="kvg:09774-s10" kvg:type="&#12754;" d="M59.7,22.51c0.43,1.37,0.41,2.73-0.13,4.41C56.25,37.25,52.5,48,44.25,62.18"/><path id="kvg:09774-s11" kvg:type="&#12753;" d="M53.12,48.59c1.09,1.09,1.51,2.54,1.51,4.66c0,7.92,0.02,26.38,0.03,36.13c0,2.26,0,4.04,0,5.12"/></g><g id="kvg:09774-g7" kvg:element="&#21269;" kvg:position="right"><path id="kvg:09774-s12" kvg:type="&#12754;" d="M92.47,35.82c0,1.57-0.37,2.62-1.51,4.04C86.88,45,81.88,49.88,75.25,54.12"/><path id="kvg:09774-s13" kvg:type="&#12767;" d="M70.84,19.5c0.83,0.83,1.38,2.25,1.38,3.53c0,1.1-0.09,36.24-0.09,53.34c0,14.5,1,15.48,12.25,15.48c9.5,0,10.62-1.22,10.62-11.65"/></g></g></g></g></svg>