<svg xmlns="http://www.w3.org/2000/svg" width="109" height="109" viewBox="0 0 109 109"><g xmlns:kvg="http://kanjivg.tagaini.net" id="kvg:StrokePaths_0978f" style="fill:none;stroke:#000000;stroke-width:3;stroke-linecap:round;stroke-linejoin:round;"><g id="kvg:0978f" kvg:element="&#38799;"><g id="kvg:0978f-g1" kvg:position="top"><g id="kvg:0978f-g2" kvg:element="&#24037;" kvg:position="left"><path id="kvg:0978f-s1" kvg:type="&#12752;" d="M16.01,14.85c0.71,0.25,3,0.27,3.72,0.25c4.74-0.12,18.25-2.14,24.51-2.85c1.07-0.12,2.08,0.05,2.98,0.26"/><path id="kvg:0978f-s2" kvg:type="&#12753;a" d="M29.94,14.43c1.59,1.34,1.59,2.15,1.59,3.22c0,4.44-0.05,9.35-0.05,11.47"/><path id="kvg:0978f-s3" kvg:type="&#12752;" d="M15.54,32.81c0.38,0.46,2.25,0.66,2.9,0.45C25.39,31,39.61,26.7,45,25.13"/></g><g id="kvg:0978f-g3" kvg:element="&#20961;" kvg:position="right"><g id="kvg:0978f-g4" kvg:element="&#20960;"><g id="kvg:0978f-g5" kvg:element="&#20031;"><path id="kvg:0978f-s4" kvg:type="&#12754;" d="M58.91,10.89c0.25,0.55,0.64,0.98,0.61,1.66c-0.31,7.19-0.31,14.4-7.44,20.45"/></g><path id="kvg:0978f-s5" kvg:type="&#12744;b" d="M59.77,12.07c2.44-0.25,15.47-2.44,17.43-2.69c1.95-0.25,2.86,1.19,2.58,2.52c-0.68,3.21-1.63,9.1-1.63,12.81c0,3.05,0.31,6.67,7.8,6.67c9.55,0,8.27-4.88,8.27-8.13"/></g><g id="kvg:0978f-g6" kvg:element="&#20022;"><path id="kvg:0978f-s6" kvg:type="&#12756;" d="M64.5,18.46c3.8,2.27,5.96,4.68,7.14,6.81"/></g></g></g><g id="kvg:0978f-g7" kvg:element="&#38761;" kvg:position="bottom" kvg:radical="general"><g id="kvg:0978f-g8" kvg:element="&#24319;" kvg:position="top"><g id="kvg:0978f-g9" kvg:element="&#21313;"><path id="kvg:0978f-s7" kvg:type="&#12752;" d="M19.31,43.98c1.54,0.4,4.35,0.47,5.89,0.4c8.02-0.36,42.24-4.04,59.12-4.21c2.56-0.03,4.1,0.19,5.38,0.39"/><path id="kvg:0978f-s8" kvg:type="&#12753;" d="M36.83,35.5c0.94,0.27,1.5,1.23,1.69,1.77C38.71,37.82,40,47.59,41,53.77"/></g><path id="kvg:0978f-s9" kvg:type="&#12753;a" d="M68.8,31.75c0.49,0.3,0.94,1.34,0.88,1.95c-0.35,3.25-1.38,8.54-2.68,16.94"/><path id="kvg:0978f-s10" kvg:type="&#12752;b" d="M42.83,52.41c3.57,0,23.01-1.52,26.22-1.64"/></g><g id="kvg:0978f-g10" kvg:position="bottom"><path id="kvg:0978f-s11" kvg:type="&#12753;" d="M24,61.76c0.5,0.34,1.02,0.63,1.24,1.06c1.75,3.39,2.34,8.02,3.54,14.11"/><path id="kvg:0978f-s12" kvg:type="&#12757;" d="M26.14,62.92c14.86-1.24,48.67-4.29,55.05-4.77c2.33-0.17,2.8,2.05,2.4,3.07c-0.84,2.09-1.59,5.73-3.42,9.38"/><path id="kvg:0978f-s13" kvg:type="&#12752;" d="M28.79,74.96c7.49-0.54,44.21-3.28,53.71-3.82"/><path id="kvg:0978f-s14" kvg:type="&#12752;" d="M15.75,85.56c1.9,0.49,5.38,0.64,7.27,0.49c11.78-0.9,43.63-4.08,65.09-4.3c3.16-0.03,5.06,0.24,6.64,0.48"/><path id="kvg:0978f-s15" kvg:type="&#12753;" d="M52.37,53.73c1.09,0.39,1.74,1.74,1.96,2.51c0.22,0.77,0,40.69-0.22,45.52"/></g></g></g></g></svg>