<svg xmlns="http://www.w3.org/2000/svg" width="109" height="109" viewBox="0 0 109 109"><g xmlns:kvg="http://kanjivg.tagaini.net" id="kvg:StrokePaths_097a3" style="fill:none;stroke:#000000;stroke-width:3;stroke-linecap:round;stroke-linejoin:round;"><g id="kvg:097a3" kvg:element="&#38819;"><g id="kvg:097a3-g1" kvg:element="&#38761;" kvg:position="left" kvg:radical="general"><g id="kvg:097a3-g2" kvg:element="&#24319;" kvg:position="top"><g id="kvg:097a3-g3" kvg:element="&#21313;"><path id="kvg:097a3-s1" kvg:type="&#12752;" d="M10.9,25.88c0.89,0.27,2.53,0.31,3.43,0.27c4.67-0.24,20.19-2.71,30.01-2.83c1.49-0.02,2.38,0.13,3.13,0.26"/><path id="kvg:097a3-s2" kvg:type="&#12753;" d="M18.35,15.46c0.47,0.33,0.75,1.48,0.84,2.14c0.81,5.9,1.23,11.44,1.73,18.9"/></g><path id="kvg:097a3-s3" kvg:type="&#12753;a" d="M37.06,13.25c0.46,0.33,0.9,1.47,0.84,2.14c-0.65,6.86-0.33,9.42-1.57,18.63"/><path id="kvg:097a3-s4" kvg:type="&#12752;b" d="M21.33,35.75c1.77,0,15.18-1.73,16.77-1.87"/></g><g id="kvg:097a3-g4" kvg:position="bottom"><path id="kvg:097a3-s5" kvg:type="&#12753;" d="M12.76,45.27c0.3,0.5,0.61,0.92,0.74,1.54c1.04,4.96,1.92,8,2.63,16.9"/><path id="kvg:097a3-s6" kvg:type="&#12757;" d="M13.54,46.44c8.81-1.81,25.07-3.21,28.85-3.92c1.38-0.26,2.55,1.54,2.31,3.03c-0.5,3.06-1.83,8.28-2.92,13.61"/><path id="kvg:097a3-s7" kvg:type="&#12752;" d="M15.9,62.5c4.44-0.79,20.93-2.03,28.26-2.56"/><path id="kvg:097a3-s8" kvg:type="&#12752;" d="M9.25,75.35c1.02,0.64,2.88,0.79,3.9,0.64c8.25-1.18,19.25-2.46,30.78-2.74c1.7-0.04,2.72,0.31,3.56,0.63"/><path id="kvg:097a3-s9" kvg:type="&#12753;" d="M28.96,37.25c0.36,1,0.54,2.23,0.54,3.25c0,8.5,0,50.75-0.12,57"/></g></g><g id="kvg:097a3-g5" kvg:element="&#26580;" kvg:position="right"><g id="kvg:097a3-g6" kvg:element="&#30683;" kvg:position="top"><g id="kvg:097a3-g7" kvg:element="&#20104;"><g id="kvg:097a3-g8" kvg:element="&#12510;" kvg:position="top"><path id="kvg:097a3-s10" kvg:type="&#12743;" d="M54.49,17.23c0.97,0.35,2.45,0.44,3.39,0.28c1.86-0.32,23.82-3.6,25.78-3.92c1.96-0.32,2.63,1.85,1.46,2.9c-2.01,1.8-14.22,8.52-15.46,9.81"/><path id="kvg:097a3-s11" kvg:type="&#12756;" d="M62.92,21.75c2.3,0.93,7.72,4.53,8.8,6.97"/></g><g id="kvg:097a3-g9" kvg:element="&#20102;" kvg:position="bottom"><path id="kvg:097a3-s12" kvg:type="&#12743;" d="M51.73,34.6c0.59,0.2,2.35,0.36,4.23,0.1c13.03-1.83,27.2-3.23,35.92-3.29c4.98-0.03,2.36,3.84-2.97,7.96"/><g id="kvg:097a3-g10" kvg:element="&#20101;"><path id="kvg:097a3-s13" kvg:type="&#12762;" d="M73.02,32.62C73.02,40.3,73,45.3,73,50.09c0,5.78-4.02,2.52-5.79,0.7"/></g></g></g><g id="kvg:097a3-g11" kvg:element="&#20031;"><path id="kvg:097a3-s14" kvg:type="&#12754;" d="M69.74,32.75c0.05,0.41,0.19,1.07-0.11,1.63c-2.32,4.34-7.39,10.38-19,15.61"/></g></g><g id="kvg:097a3-g12" kvg:element="&#26408;" kvg:position="bottom"><path id="kvg:097a3-s15" kvg:type="&#12752;" d="M49.03,66.54c1.56,0.56,3.34,0.74,5.13,0.56c9.14-0.92,24.6-1.62,38.43-2.71c1.78-0.14,2.9,0.1,4.68,0.49"/><path id="kvg:097a3-s16" kvg:type="&#12753;" d="M70.92,58.33c0.7,0.99,1.23,2.19,1.23,3.2c0,10.35,0,31.3-0.18,37.46"/><path id="kvg:097a3-s17" kvg:type="&#12754;" d="M69.92,66.19c-4.31,8.94-17.46,20.56-29.17,24.36"/><path id="kvg:097a3-s18" kvg:type="&#12751;" d="M72.35,66.45c3.11,2.99,17.74,18.01,21.12,20.95c1.15,1,2.13,1.43,3.27,1.71"/></g></g></g></g></svg>