<svg xmlns="http://www.w3.org/2000/svg" width="109" height="109" viewBox="0 0 109 109"><g xmlns:kvg="http://kanjivg.tagaini.net" id="kvg:StrokePaths_097ed" style="fill:none;stroke:#000000;stroke-width:3;stroke-linecap:round;stroke-linejoin:round;"><g id="kvg:097ed" kvg:element="&#38893;" kvg:radical="general"><g id="kvg:097ed-g1" kvg:element="&#38750;"><g id="kvg:097ed-g2" kvg:position="left"><path id="kvg:097ed-s1" kvg:type="&#12754;" d="M43.37,13.75c1.09,0.5,1.74,2.25,1.96,3.25c0.22,1,0,69.75-0.22,76"/><path id="kvg:097ed-s2" kvg:type="&#12752;c" d="M61.12,11.75c1.09,0.5,1.74,2.25,1.96,3.25c0.22,1,0,70.75-0.22,77"/><path id="kvg:097ed-s3" kvg:type="&#12752;c" d="M14.75,36.39c0.94,0.38,2.66,0.38,3.6,0.38C26,36.75,35,35.25,41.96,34.89c1.56-0.08,2.29-0.14,3.29-0.14"/><path id="kvg:097ed-s4" kvg:type="&#12736;" d="M15,55.39c0.94,0.38,2.66,0.38,3.6,0.38c7.65-0.02,16.15-2.02,23.11-2.38c1.56-0.08,2.29-0.14,3.29-0.14"/></g><g id="kvg:097ed-g3" kvg:position="right"><path id="kvg:097ed-s5" kvg:type="&#12753;" d="M13.5,74.39c0.94,0.38,2.66,0.38,3.6,0.38c7.65-0.02,17.15-2.02,24.61-3.38c1.54-0.28,2.29-0.14,3.29-0.14"/><path id="kvg:097ed-s6" kvg:type="&#12752;b" d="M63.5,33.64c1.25,0,1.16-0.01,2.1-0.12c5.98-0.66,19.4-1.77,25.11-2.38c1.56-0.17,2.5,0.18,3.29,0.37"/><path id="kvg:097ed-s7" kvg:type="&#12752;b" d="M63.25,51.14c1.25,0,1.16-0.01,2.1-0.12c5.98-0.66,19.9-1.77,25.61-2.38c1.56-0.17,2.5,0.18,3.29,0.37"/><path id="kvg:097ed-s8" kvg:type="&#12752;b" d="M63.5,70.14c1.25,0,1.16-0.01,2.1-0.12c5.98-0.66,20.9-1.77,26.61-2.38c1.56-0.17,2.5,0.18,3.29,0.37"/></g></g><g id="kvg:097ed-g4" kvg:element="&#19968;"><path id="kvg:097ed-s9" kvg:type="&#12752;" d="M12.5,94.7c1.55,0.54,4.4,0.68,5.95,0.54c20.05-1.74,56.85-4.49,73.12-3.73c2.58,0.12,4.14,0.26,5.43,0.53"/></g></g></g></svg>