<svg xmlns="http://www.w3.org/2000/svg" width="109" height="109" viewBox="0 0 109 109"><g xmlns:kvg="http://kanjivg.tagaini.net" id="kvg:StrokePaths_0981a" style="fill:none;stroke:#000000;stroke-width:3;stroke-linecap:round;stroke-linejoin:round;"><g id="kvg:0981a" kvg:element="&#38938;"><g id="kvg:0981a-g1" kvg:position="left"><g id="kvg:0981a-g2" kvg:element="&#21448;" kvg:position="top"><path id="kvg:0981a-s1" kvg:type="&#12743;" d="M17.27,25.2c2.43,0.48,4.33,0.21,6.78-0.26c5.09-0.98,15.01-3.01,18.56-3.75c3.22-0.67,4.61,0.32,3.03,3.61C38.1,40.53,25.2,52.5,11.25,58.5"/><path id="kvg:0981a-s2" kvg:type="&#12756;/&#12751;" d="M20.42,32.52c8.83,1.98,21.33,9.73,27.46,17.91"/></g><g id="kvg:0981a-g3" kvg:element="&#22303;" kvg:position="bottom"><path id="kvg:0981a-s3" kvg:type="&#12752;" d="M16.75,68.64c2.07,0.33,4.16,0.39,6.25,0.2c5.17-0.53,14.69-1.68,20-2.25c1.83-0.26,3.66-0.34,5.5-0.22"/><path id="kvg:0981a-s4" kvg:type="&#12753;a" d="M31.87,52.5c1,1,1.46,2.5,1.46,3.62c0,5.85,0.03,26,0.03,29.68"/><path id="kvg:0981a-s5" kvg:type="&#12752;" d="M18.5,91.23c1.51,0.59,3.36,0.83,5.22-0.16c6.33-2.86,18.26-8.1,24.28-10.82"/></g></g><g id="kvg:0981a-g4" kvg:element="&#38913;" kvg:position="right" kvg:radical="general"><g id="kvg:0981a-g5" kvg:position="top"><path id="kvg:0981a-s6" kvg:type="&#12752;" d="M53.08,19.82c2.92,0.59,6.07,0.19,9.03-0.18c8.14-1.02,17.82-1.96,24.63-2.57c2.72-0.45,5.42-0.39,8.12,0.16"/><path id="kvg:0981a-s7" kvg:type="&#12754;" d="M72.25,22.1c0,1.02-0.22,1.52-0.55,2.21c-1.33,2.81-2.78,5.33-5.2,8.06"/></g><g id="kvg:0981a-g6" kvg:element="&#35997;" kvg:position="bottom"><g id="kvg:0981a-g7" kvg:element="&#30446;" kvg:position="top"><path id="kvg:0981a-s8" kvg:type="&#12753;" d="M58.87,33.05c0.85,0.85,0.89,2.06,0.89,3.29c0,3.23,0,18.96,0,29.29c0,4.62,0,8.15,0,9.01"/><path id="kvg:0981a-s9" kvg:type="&#12757;a" d="M60.88,35c2.39-0.15,19.9-2.29,24.76-2.82C88.4,31.89,90,33.28,90,36c0,4.01-0.05,17.71-0.09,27.38c-0.02,4.81-0.03,8.63-0.03,9.75"/><path id="kvg:0981a-s10" kvg:type="&#12752;a" d="M60.99,46.84c9.01-0.72,22.13-1.97,27.73-2.33"/><path id="kvg:0981a-s11" kvg:type="&#12752;a" d="M60.95,59.69c9.8-0.94,20.63-1.92,27.78-2.38"/><path id="kvg:0981a-s12" kvg:type="&#12752;a" d="M60.88,72.5c9-1,20.42-2.04,28.03-2.54"/></g><g id="kvg:0981a-g8" kvg:position="bottom"><path id="kvg:0981a-s13" kvg:type="&#12754;" d="M67.21,78.83c0.04,1.29-0.55,2.23-1.5,3.19C61.75,86,55,91.12,48.25,94.75"/><path id="kvg:0981a-s14" kvg:type="&#12756;" d="M80.35,79c5.98,4.29,13.29,12.07,14.92,15.83"/></g></g></g></g></g></svg>