<svg xmlns="http://www.w3.org/2000/svg" width="109" height="109" viewBox="0 0 109 109"><g xmlns:kvg="http://kanjivg.tagaini.net" id="kvg:StrokePaths_098c6" style="fill:none;stroke:#000000;stroke-width:3;stroke-linecap:round;stroke-linejoin:round;"><g id="kvg:098c6" kvg:element="&#39110;"><g id="kvg:098c6-g1" kvg:position="left"><g id="kvg:098c6-g2" kvg:element="&#29356;" kvg:position="top"><g id="kvg:098c6-g3" kvg:element="&#22823;"><path id="kvg:098c6-s1" kvg:type="&#12752;" d="M13.85,28.72c0.45,0.19,1.98,0.43,2.84,0.32c4.52-0.58,20.19-2.31,25.64-2.71c0.62-0.05,1.51,0.07,2.9,0.4"/><path id="kvg:098c6-s2" kvg:type="&#12754;" d="M27.75,13.25c0.42,0.35,0.72,1.49,0.68,2.49C28,25.75,24.5,39,14.25,48.25"/><path id="kvg:098c6-s3" kvg:type="&#12751;" d="M27.11,31.16c7.29,2.79,12.78,8.94,17.61,15.37"/></g><g id="kvg:098c6-g4" kvg:element="&#20022;"><path id="kvg:098c6-s4" kvg:type="&#12756;" d="M34.67,14.21c3.87,2.44,4.93,4.3,6.13,6.58"/></g></g><g id="kvg:098c6-g5" kvg:position="bottom"><g id="kvg:098c6-g6" kvg:element="&#29356;" kvg:position="left"><g id="kvg:098c6-g7" kvg:element="&#22823;"><path id="kvg:098c6-s5" kvg:type="&#12752;" d="M9.85,67.73c0.28,0.15,1.23,0.28,1.78,0.25c3.87-0.22,10.13-1.82,13.54-2.14c0.39-0.04,0.94,0.06,1.81,0.32"/><path id="kvg:098c6-s6" kvg:type="&#12754;" d="M18.61,55.75c0.22,0.37,0.39,1.59,0.37,2.65c-0.23,10.66-2.11,24.76-7.62,34.6"/><path id="kvg:098c6-s7" kvg:type="&#12751;" d="M18.4,75.81c3.42,2.25,6,7.21,8.27,12.39"/></g><g id="kvg:098c6-g8" kvg:element="&#20022;"><path id="kvg:098c6-s8" kvg:type="&#12756;" d="M22.92,53.75c3.63,2.56,4.62,4.51,5.75,6.91"/></g></g><g id="kvg:098c6-g9" kvg:element="&#29356;" kvg:position="right"><g id="kvg:098c6-g10" kvg:element="&#22823;"><path id="kvg:098c6-s9" kvg:type="&#12752;" d="M31.1,65.78c0.25,0.14,1.08,0.31,1.55,0.23c2.47-0.42,11.02-2.2,14-2.5c0.34-0.03,0.82,0.06,1.58,0.29"/><path id="kvg:098c6-s10" kvg:type="&#12754;" d="M38.59,53.75c0.29,0.42,0.5,1.79,0.47,2.99c-0.3,12.01-2.7,27.91-9.74,39.01"/><path id="kvg:098c6-s11" kvg:type="&#12751;" d="M37.84,77.11c3.05,2.34,5.34,7.49,7.36,12.87"/></g><g id="kvg:098c6-g11" kvg:element="&#20022;"><path id="kvg:098c6-s12" kvg:type="&#12756;" d="M42.9,52.63c3.3,2.22,4.2,3.92,5.23,6.01"/></g></g></g></g><g id="kvg:098c6-g12" kvg:element="&#39080;" kvg:position="right" kvg:radical="general"><g id="kvg:098c6-g13" kvg:element="&#20960;"><g id="kvg:098c6-g14" kvg:element="&#20031;"><path id="kvg:098c6-s13" kvg:type="&#12754;" d="M53.77,14.98c0.73,1.02,1.2,2.1,1.2,4.96C54.97,46.1,58,79.5,44.75,97.5"/></g><path id="kvg:098c6-s14" kvg:type="&#12744;a" d="M55.01,17.03c9.11-1.73,27.02-4.53,29.7-4.53s3.87,1.13,3.69,5.57c-1.05,26.58-1.68,53.18,7.32,74.04c3.35,7.78,5.25,3.08,5.03-4.02"/></g><path id="kvg:098c6-s15" kvg:type="&#12754;" d="M77.37,22.12c0.05,0.24,0.1,0.62-0.09,0.96c-1.12,2.02-7.58,6.46-16.41,9.18"/><g id="kvg:098c6-g15" kvg:element="&#34411;"><g id="kvg:098c6-g16" kvg:element="&#20013;"><g id="kvg:098c6-g17" kvg:element="&#21475;"><path id="kvg:098c6-s16" kvg:type="&#12753;" d="M59.64,42.68c0.29,0.67,0.67,1.23,0.72,2.01c0.4,5.64,1.67,13.41,2.23,24.03"/><path id="kvg:098c6-s17" kvg:type="&#12757;b" d="M60.58,43.22c4.46,0.35,15.64-2.75,18.87-2.11c1.26,0.25,1.84,2.17,1.68,3.77c-0.54,5.48-1.5,10.41-2.37,19.53"/><path id="kvg:098c6-s18" kvg:type="&#12752;b" d="M62.76,66.55c3.59,0.06,13.24-1.8,17.58-2.16"/></g><g id="kvg:098c6-g18" kvg:element="&#20008;"><path id="kvg:098c6-s19" kvg:type="&#12753;a" d="M69.7,31.44c0.45,0.29,0.72,1.31,0.81,1.9s0,49.65-0.09,53.29"/></g></g><path id="kvg:098c6-s20" kvg:type="&#12736;" d="M57.1,89.41c0.56,0.51,1.9,0.65,2.46,0.52c0.56-0.13,20.95-5.62,22.63-6.26"/><path id="kvg:098c6-s21" kvg:type="&#12756;" d="M77.62,74.32c2.21,3.36,6.74,12.84,7.49,17.21"/></g></g></g></g></svg>