<svg xmlns="http://www.w3.org/2000/svg" width="109" height="109" viewBox="0 0 109 109"><g xmlns:kvg="http://kanjivg.tagaini.net" id="kvg:StrokePaths_098eb" style="fill:none;stroke:#000000;stroke-width:3;stroke-linecap:round;stroke-linejoin:round;"><g id="kvg:098eb" kvg:element="&#39147;"><g id="kvg:098eb-g1" kvg:element="&#39136;" kvg:variant="true" kvg:original="&#39135;" kvg:position="left" kvg:radical="general"><path id="kvg:098eb-s1" kvg:type="&#12754;" d="M31.25,10.64c0.06,0.69,0.29,1.85-0.12,2.78c-2.68,6.11-10.39,18.06-21.33,27.05"/><path id="kvg:098eb-s2" kvg:type="&#12756;/&#12751;" d="M34.02,16.83c4.34,2.01,11.21,8.26,12.29,11.38"/><path id="kvg:098eb-s3" kvg:type="&#12752;" d="M23.25,31.66c0.36,0.15,1.02,0.19,1.39,0.15c2.3-0.25,9.87-2.17,12.1-2c0.6,0.05,0.96,0.07,1.27,0.14"/><path id="kvg:098eb-s4" kvg:type="&#12753;" d="M18.77,40.44c0.39,0.78,0.78,1.68,0.78,2.72c0,1.04-0.13,55.29,0,56.34"/><path id="kvg:098eb-s5" kvg:type="&#12757;" d="M19.69,42.57c2.2-0.13,18.91-3.17,20.92-3.33c1.67-0.13,2.74,1.45,2.61,2.22c-0.26,1.57-2.47,19.04-3.02,22.51"/><path id="kvg:098eb-s6" kvg:type="&#12752;a" d="M20.08,52.23c2.97,0,18.36-2.31,21.72-2.31"/><path id="kvg:098eb-s7" kvg:type="&#12752;a" d="M19.94,64.06C26,63.5,32.75,62.5,40.29,62.02"/><path id="kvg:098eb-s8" kvg:type="&#12752;c" d="M19.89,77.06c3.73-0.25,15.96-2.17,19.57-1.99c0.97,0.04,1.56,0.07,2.05,0.14"/><path id="kvg:098eb-s9" kvg:type="&#12752;c" d="M20.39,90.81c3.73-0.25,17.96-2.17,21.57-1.99c0.97,0.04,1.56,0.07,2.05,0.14"/></g><g id="kvg:098eb-g2" kvg:element="&#22829;" kvg:position="right"><g id="kvg:098eb-g3" kvg:element="&#20031;"><path id="kvg:098eb-s10" kvg:type="&#12754;" d="M82.28,13.89c0.08,0.37,0.15,0.93-0.16,1.48C79.46,20.02,66.25,29,52.27,33.49"/></g><g id="kvg:098eb-g4" kvg:element="&#22823;"><path id="kvg:098eb-s11" kvg:type="&#12752;" d="M48.33,51.86c0.75,0.41,3.92,0.62,4.74,0.56c9.64-0.67,25.93-3.68,36.9-4.73c1.04-0.1,1.92,0.16,4.26,0.85"/><path id="kvg:098eb-s12" kvg:type="&#12754;" d="M69.55,31.47c0.36,0.87,0.55,1.87,0.54,3.74c-0.18,32.45-10.43,50.57-24.84,60.54"/><path id="kvg:098eb-s13" kvg:type="&#12751;" d="M69.73,53.76c5.5,9.78,17.41,32.84,22.9,39.38c1.87,2.23,2.52,2.56,3.37,2.77"/></g></g></g></g></svg>