<svg xmlns="http://www.w3.org/2000/svg" width="109" height="109" viewBox="0 0 109 109"><g xmlns:kvg="http://kanjivg.tagaini.net" id="kvg:StrokePaths_098ee" style="fill:none;stroke:#000000;stroke-width:3;stroke-linecap:round;stroke-linejoin:round;"><g id="kvg:098ee" kvg:element="&#39150;"><g id="kvg:098ee-g1" kvg:element="&#39136;" kvg:variant="true" kvg:original="&#39135;" kvg:position="left" kvg:radical="general" kvg:phon="&#39135;"><path id="kvg:098ee-s1" kvg:type="&#12754;" d="M31.75,11.64c0.06,0.78,0.3,2.08-0.12,3.13c-2.71,6.87-10.51,20.33-21.57,30.45"/><path id="kvg:098ee-s2" kvg:type="&#12756;/&#12751;" d="M33.27,17.83c5.48,2.27,14.17,9.35,15.54,12.88"/><path id="kvg:098ee-s3" kvg:type="&#12752;" d="M24.75,33.63c0.4,0.12,1.13,0.15,1.53,0.12c2.54-0.21,10.87-1.76,13.33-1.62c0.66,0.04,1.06,0.06,1.39,0.12"/><path id="kvg:098ee-s4" kvg:type="&#12753;" d="M20.77,42.44c0.39,0.78,0.78,1.68,0.78,2.72c0,1.04-0.13,53.29,0,54.34"/><path id="kvg:098ee-s5" kvg:type="&#12757;" d="M21.69,44.07c2.2-0.13,18.41-2.67,20.42-2.83c1.67-0.13,2.74,1.45,2.61,2.22c-0.26,1.57-2.47,21.54-3.02,25.01"/><path id="kvg:098ee-s6" kvg:type="&#12752;a" d="M22.08,56.23c2.97,0,17.36-2.31,20.72-2.31"/><path id="kvg:098ee-s7" kvg:type="&#12752;a" d="M21.94,68.56C28,68,34.25,66.5,41.79,66.02"/><path id="kvg:098ee-s8" kvg:type="&#12752;c" d="M21.89,80.06c3.73-0.25,16.46-2.17,20.07-1.99c0.97,0.04,1.56,0.07,2.05,0.14"/><path id="kvg:098ee-s9" kvg:type="&#12752;c" d="M21.39,92.81c4.03-0.25,15.61-1.31,21.15-1.99c1.04-0.13,1.69,0.07,2.21,0.14"/></g><g id="kvg:098ee-g2" kvg:element="&#27424;" kvg:position="right"><g id="kvg:098ee-g3" kvg:position="top"><path id="kvg:098ee-s10" kvg:type="&#12754;" d="M64.25,13c0.04,0.86,0.26,2.26-0.08,3.45c-1.92,6.8-6.37,23.26-13.78,33.05"/><path id="kvg:098ee-s11" kvg:type="&#12758;a" d="M61.72,32.49c0.91,0.36,2.63,0.9,4.01,0.61C71,32,85.92,29.45,87.5,29.25c8-1-1.33,9.09-3,11"/></g><g id="kvg:098ee-g4" kvg:position="bottom"><path id="kvg:098ee-s12" kvg:type="&#12754;" d="M68.1,40c0.06,1.32,0.14,3.38-0.12,5.28C65.38,63.64,60.35,82.62,46,95.75"/><path id="kvg:098ee-s13" kvg:type="&#12751;" d="M66.67,57.75c4.04,8.14,18.64,27.3,25.29,34.03c1.4,1.42,2.46,2.26,3.79,2.72"/></g></g></g></g></svg>