<svg xmlns="http://www.w3.org/2000/svg" width="109" height="109" viewBox="0 0 109 109"><g xmlns:kvg="http://kanjivg.tagaini.net" id="kvg:StrokePaths_09998" style="fill:none;stroke:#000000;stroke-width:3;stroke-linecap:round;stroke-linejoin:round;"><g id="kvg:09998" kvg:element="&#39320;"><g id="kvg:09998-g1" kvg:element="&#39318;" kvg:position="left" kvg:radical="general"><g id="kvg:09998-g2" kvg:position="top"><path id="kvg:09998-s1" kvg:type="&#12756;" d="M14.57,16.7c2.76,2.28,7.13,9.39,7.81,12.94"/><path id="kvg:09998-s2" kvg:type="&#12754;" d="M38.17,17.25c0.02,0.32,0.04,0.82-0.04,1.27c-0.48,2.69-3.22,8.58-6.97,12.18"/><path id="kvg:09998-s3" kvg:type="&#12752;" d="M10.81,34.86c0.96,0.48,2.73,0.56,3.69,0.48c10.02-0.8,10.82-1.33,26.08-1.73c1.6-0.04,2.57,0.23,3.37,0.47"/></g><g id="kvg:09998-g3" kvg:element="&#33258;" kvg:position="bottom"><path id="kvg:09998-s4" kvg:type="&#12754;" d="M26.5,35.28c0.28,0.12-0.26,2.14-0.43,2.49c-1.14,2.36-2.3,5.57-4.98,8.68"/><g id="kvg:09998-g4" kvg:element="&#30446;"><path id="kvg:09998-s5" kvg:type="&#12753;" d="M14.62,47.59c0.36,0.95,0.87,1.66,0.87,2.92c0,1.27-0.12,39.63,0,40.89"/><path id="kvg:09998-s6" kvg:type="&#12757;a" d="M16.09,49.69c2.01-0.16,16.83-3.12,18.66-3.31c1.53-0.16,2.73,0.89,2.6,2.06c-0.17,1.49-0.59,40.64-0.71,41.58"/><path id="kvg:09998-s7" kvg:type="&#12752;a" d="M16.05,60.37c3.96-0.21,16.98-1.88,20.2-1.88"/><path id="kvg:09998-s8" kvg:type="&#12752;a" d="M16.22,72.78c5.33-0.53,14.63-1.77,19.8-1.77"/><path id="kvg:09998-s9" kvg:type="&#12752;a" d="M16.41,87.89c4,0,14-1.22,19.17-1.22"/></g></g></g><g id="kvg:09998-g5" kvg:element="&#25110;" kvg:position="right"><g id="kvg:09998-g6" kvg:element="&#25096;" kvg:part="1"><g id="kvg:09998-g7" kvg:element="&#24331;" kvg:part="1"><path id="kvg:09998-s10" kvg:type="&#12752;" d="M48.5,33.66c1,0.18,2.83,0.25,3.82,0.18c7.66-0.58,29.13-2.64,38.1-2.89c1.66-0.05,2.65,0.09,3.48,0.18"/></g></g><g id="kvg:09998-g8" kvg:element="&#21475;"><path id="kvg:09998-s11" kvg:type="&#12753;" d="M47.34,45.74c0.23,0.31,0.5,0.55,0.57,0.96c0.66,3.56,2.5,11.82,3.17,17.05"/><path id="kvg:09998-s12" kvg:type="&#12757;b" d="M48.79,46.83c4.29-0.75,10.46-1.33,15.94-2.47c0.99-0.2,1.59,0.88,1.45,1.75c-0.59,3.6-1.11,7.38-2.16,13.37"/><path id="kvg:09998-s13" kvg:type="&#12752;b" d="M51.56,61.88c3.2-0.46,9.06-1.25,13.46-1.95"/></g><g id="kvg:09998-g9" kvg:element="&#19968;"><path id="kvg:09998-s14" kvg:type="&#12736;/&#12752;" d="M45.75,77.82c0.58,0.68,1.75,1.05,3.5,0.15c4.87-2.5,13.63-6.96,18.49-9.46"/></g><g id="kvg:09998-g10" kvg:element="&#25096;" kvg:part="2"><g id="kvg:09998-g11" kvg:element="&#24331;" kvg:part="2"><path id="kvg:09998-s15" kvg:type="&#12738;" d="M68.58,14.5c1.15,1.72,1.53,2.2,1.86,5.91C73,49,81.75,81,94.51,92.77c4.26,3.93,3.87,0.74,3.3-6.89"/></g><g id="kvg:09998-g12" kvg:element="&#20031;"><path id="kvg:09998-s16" kvg:type="&#12754;" d="M88.19,42.39c0.09,1.12,0.19,2.89-0.18,4.5c-2.17,9.48-14.76,33.36-31.65,44.08"/></g><g id="kvg:09998-g13" kvg:element="&#24331;" kvg:part="3"><g id="kvg:09998-g14" kvg:element="&#20022;"><path id="kvg:09998-s17" kvg:type="&#12756;" d="M80.16,16c3.18,1.9,8.27,6.24,9.75,9.5"/></g></g></g></g></g></g></svg>