<svg xmlns="http://www.w3.org/2000/svg" width="109" height="109" viewBox="0 0 109 109"><g xmlns:kvg="http://kanjivg.tagaini.net" id="kvg:StrokePaths_099ac" style="fill:none;stroke:#000000;stroke-width:3;stroke-linecap:round;stroke-linejoin:round;"><g id="kvg:099ac" kvg:element="&#39340;" kvg:radical="general"><path id="kvg:099ac-s1" kvg:type="&#12753;" d="M28.5,17c0.75,1,1.2,2.25,1.2,3.62c0,5.72,0.04,26.84-0.13,39.38c-0.03,2-0.06,3.76-0.1,5.2"/><path id="kvg:099ac-s2" kvg:type="&#12752;b" d="M31.03,19.3c11.22-1.3,37.4-4.84,42.22-5.55c1.68-0.25,4.53-0.53,5.38-0.35"/><path id="kvg:099ac-s3" kvg:type="&#12753;a" d="M53.13,17.82c0.62,1.18,0.82,2.18,0.82,3.55c0,6.64-0.23,28.88-0.23,39.08"/><path id="kvg:099ac-s4" kvg:type="&#12752;b" d="M30.78,33.8C42,32.5,66.44,29.71,71.25,29c1.68-0.25,4.53-0.53,5.38-0.35"/><path id="kvg:099ac-s5" kvg:type="&#12752;b" d="M30.78,48.05C42,46.75,66.69,43.71,71.5,43c1.68-0.25,4.53-0.53,5.38-0.35"/><path id="kvg:099ac-s6" kvg:type="&#12742;a" d="M30.73,63.53C44,62,78.04,57.88,85.9,57.01c5.12-0.57,7.34,2.58,6.82,6.53c-1.48,11.21-4.23,19.71-7.48,27.21c-4.45,10.27-6.5,5.5-11.7,0.2"/><g id="kvg:099ac-g1" kvg:element="&#28780;" kvg:variant="true" kvg:original="&#28779;"><path id="kvg:099ac-s7" kvg:type="&#12756;" d="M17.31,76.25c0.44,6-0.31,13.25-1.6,17"/><path id="kvg:099ac-s8" kvg:type="&#12756;" d="M33.75,74.25c2.55,2.65,4.98,9.93,5.62,14.05"/><path id="kvg:099ac-s9" kvg:type="&#12756;" d="M51,71c2.03,2.22,5.25,9.12,5.76,12.58"/><path id="kvg:099ac-s10" kvg:type="&#12756;" d="M68.25,67.75c2.74,2.14,7.07,8.78,7.75,12.1"/></g></g></g></svg>