<svg xmlns="http://www.w3.org/2000/svg" width="109" height="109" viewBox="0 0 109 109"><g xmlns:kvg="http://kanjivg.tagaini.net" id="kvg:StrokePaths_099c1" style="fill:none;stroke:#000000;stroke-width:3;stroke-linecap:round;stroke-linejoin:round;"><g id="kvg:099c1" kvg:element="&#39361;"><g id="kvg:099c1-g1" kvg:element="&#39340;" kvg:position="left" kvg:radical="general"><path id="kvg:099c1-s1" kvg:type="&#12753;" d="M16.24,20.62c-0.02,5.16-0.21,38.63-0.99,41.63"/><path id="kvg:099c1-s2" kvg:type="&#12752;b" d="M13.98,20.4c0.8-0.02,2.74-0.06,3.79-0.13c7.82-0.52,19.4-2.83,21.76-3.17c0.94-0.14,2.53-0.25,3-0.03"/><path id="kvg:099c1-s3" kvg:type="&#12753;a" d="M28.31,19.82c0.25,0.38,0.96,0.88,0.95,1.49c-0.02,6.17-0.06,27.96-0.25,37.66"/><path id="kvg:099c1-s4" kvg:type="&#12752;b" d="M16.66,33.59c6.26-0.58,17.75-2.6,20.44-2.99c0.94-0.14,2.53-0.24,3-0.02"/><path id="kvg:099c1-s5" kvg:type="&#12752;b" d="M16.76,46.12c6.26-0.59,17.75-2.6,20.44-2.99c0.94-0.14,2.53-0.25,3-0.03"/><path id="kvg:099c1-s6" kvg:type="&#12742;a" d="M15.49,62.15c6.17-1.41,21.54-4.04,24.93-4.63c4.33-0.76,4.19,2.81,3.95,6.45C43.7,74.31,41.46,85.3,38.25,92c-2.75,5.75-5.32,0.41-6.21-0.86"/><g id="kvg:099c1-g2" kvg:element="&#28780;" kvg:variant="true" kvg:original="&#28779;"><path id="kvg:099c1-s7" kvg:type="&#12756;" d="M12.24,75.5c0.33,6.41-0.99,10-2.03,13.32"/><path id="kvg:099c1-s8" kvg:type="&#12756;" d="M19,74.5c1.08,2.1,2,4.75,2.25,8.5"/><path id="kvg:099c1-s9" kvg:type="&#12756;" d="M25.59,70.47c0.7,1.06,3.2,4.56,3.51,8.03"/><path id="kvg:099c1-s10" kvg:type="&#12756;" d="M32.25,65.75c1.25,2.01,3.3,4.09,3.75,6.75"/></g></g><g id="kvg:099c1-g3" kvg:element="&#29243;" kvg:position="right"><g id="kvg:099c1-g4" kvg:element="&#20034;" kvg:position="top"><g id="kvg:099c1-g5" kvg:element="&#20031;"><path id="kvg:099c1-s11" kvg:type="&#12754;" d="M83.97,14.14c0.09,0.75,0.41,2.03-0.18,3C79.75,23.75,68.75,36,51.54,45.83"/></g><path id="kvg:099c1-s12" kvg:type="&#12751;" d="M53.88,22.74c13.27,2.02,30.92,12.25,36.09,19.32"/></g><g id="kvg:099c1-g6" kvg:element="&#20034;" kvg:position="bottom"><g id="kvg:099c1-g7" kvg:element="&#20031;"><path id="kvg:099c1-s13" kvg:type="&#12754;" d="M84.53,47.59c0.59,1.18,0.48,3.28-0.07,4.6C76.5,71.25,65,83.5,47.5,95.25"/></g><path id="kvg:099c1-s14" kvg:type="&#12751;" d="M55.52,51.21c0.92,0.42,2.03,1.43,2.33,1.95c7.36,12.87,22.16,29.89,34.16,38.2c2.21,1.53,3.5,1.9,5.24,2.07"/></g></g></g></g></svg>