<svg xmlns="http://www.w3.org/2000/svg" width="109" height="109" viewBox="0 0 109 109"><g xmlns:kvg="http://kanjivg.tagaini.net" id="kvg:StrokePaths_099d2" style="fill:none;stroke:#000000;stroke-width:3;stroke-linecap:round;stroke-linejoin:round;"><g id="kvg:099d2" kvg:element="&#39378;"><g id="kvg:099d2-g1" kvg:element="&#39340;" kvg:position="left" kvg:radical="general"><path id="kvg:099d2-s1" kvg:type="&#12753;" d="M15.49,17.62c0.76,0.76,0.99,2.13,0.99,3.89c0,7.32-0.06,23.96-0.09,33.12c-0.01,2.62-0.01,4.62-0.01,5.62"/><path id="kvg:099d2-s2" kvg:type="&#12752;b" d="M17.27,19.01c7.4-0.93,17.74-1.97,22.62-2.42c1.43-0.13,3.23-0.34,5.4-0.03"/><path id="kvg:099d2-s3" kvg:type="&#12753;a" d="M29.06,19.32c0.83,1.23,0.95,2.29,0.95,3.92c-0.01,7.48,0,24.36,0,32.73"/><path id="kvg:099d2-s4" kvg:type="&#12752;b" d="M17.41,32.09c5.18-0.71,14.57-2.01,19.37-2.69c1.38-0.2,3.22-0.52,5.06-0.32"/><path id="kvg:099d2-s5" kvg:type="&#12752;b" d="M17.63,44.62c5.01-0.58,15.19-1.94,19.89-2.64c1.26-0.19,2.98-0.49,4.92-0.11"/><path id="kvg:099d2-s6" kvg:type="&#12742;a" d="M17.49,58.65c8.01-1.27,16.76-2.27,23.68-3.13c4.36-0.54,4.69,1.81,4.45,5.45C44.95,71.31,42.21,84.05,39,90.75c-2.75,5.75-6.07,0.16-6.96-1.11"/><g id="kvg:099d2-g2" kvg:element="&#28780;" kvg:variant="true" kvg:original="&#28779;"><path id="kvg:099d2-s7" kvg:type="&#12756;" d="M13.43,71.25c-0.05,6.88-1.44,12.27-1.93,13.57"/><path id="kvg:099d2-s8" kvg:type="&#12756;" d="M18.38,69.12c1.69,2.63,3.12,5.94,3.52,10.62"/><path id="kvg:099d2-s9" kvg:type="&#12756;" d="M25.25,67.38c0.91,1.14,4.16,4.9,4.56,8.62"/><path id="kvg:099d2-s10" kvg:type="&#12756;" d="M32.12,64.5c1.62,2.12,3.62,4.88,4.61,8"/></g></g><g id="kvg:099d2-g3" kvg:element="&#21477;" kvg:position="right"><g id="kvg:099d2-g4" kvg:element="&#21241;"><g id="kvg:099d2-g5" kvg:element="&#20031;"><path id="kvg:099d2-s11" kvg:type="&#12754;" d="M63.56,15.67c0.05,0.76-0.2,1.76-0.59,2.8C60,26.25,54.75,37,46.25,46.87"/></g><path id="kvg:099d2-s12" kvg:type="&#12742;" d="M59.35,32.9c2.33,0.71,4.74,0.13,7.07-0.26c5.35-0.89,15.95-2.96,21.24-3.9c4.03-0.72,6.28,0.72,6.09,4.98C93.25,45,90.12,72.75,83.41,89.96c-1.77,4.54-5.16,4.79-9.31-0.19"/></g><g id="kvg:099d2-g6" kvg:element="&#21475;"><path id="kvg:099d2-s13" kvg:type="&#12753;" d="M54.52,50.74c0.81,0.81,1.03,1.57,1.08,2.51c0.78,3.37,1.59,9.54,2.31,14.6c0.23,1.62,0.43,3.14,0.58,4.4"/><path id="kvg:099d2-s14" kvg:type="&#12757;b" d="M56.24,52.11c4.79-0.97,11.44-2.1,15.51-2.71c3-0.44,3.77,0.51,3.28,3.5c-0.66,4.08-1.55,8.02-2.58,13.54"/><path id="kvg:099d2-s15" kvg:type="&#12752;b" d="M59.33,69.44c3.36-0.46,7.46-1.02,11.94-1.68c0.99-0.15,1.99-0.3,3.01-0.45"/></g></g></g></g></svg>