<svg xmlns="http://www.w3.org/2000/svg" width="109" height="109" viewBox="0 0 109 109"><g xmlns:kvg="http://kanjivg.tagaini.net" id="kvg:StrokePaths_099ff" style="fill:none;stroke:#000000;stroke-width:3;stroke-linecap:round;stroke-linejoin:round;"><g id="kvg:099ff" kvg:element="&#39423;"><g id="kvg:099ff-g1" kvg:element="&#39340;" kvg:position="left" kvg:radical="general"><path id="kvg:099ff-s1" kvg:type="&#12753;" d="M14.99,17.62c0.76,0.63,1,1.61,1,2.88c0,7.47,0.01,24.2,0.01,34.25c0,2.35,0,4.33,0,5.75"/><path id="kvg:099ff-s2" kvg:type="&#12752;b" d="M17.27,19.26c8.35-1.64,13.73-2.51,19.75-3.37c1.37-0.19,3.69-0.2,5.01,0.42"/><path id="kvg:099ff-s3" kvg:type="&#12753;a" d="M28.06,19.32c0.81,0.81,0.95,1.8,0.95,3.68c0,8.33,0,28.91,0,34.72"/><path id="kvg:099ff-s4" kvg:type="&#12752;b" d="M16.91,32.59c5.55-0.64,14-1.69,18.96-2.26c1.24-0.14,3.52-0.67,4.73,0.02"/><path id="kvg:099ff-s5" kvg:type="&#12752;b" d="M17.26,45.38c4.13-0.39,13.47-1.36,18.51-2.01c1.44-0.19,3.51-0.66,4.93-0.01"/><path id="kvg:099ff-s6" kvg:type="&#12742;a" d="M16.49,60.4C24,59,35.5,57.25,40.17,56.76c2.07-0.22,3.58,1.49,3.45,3.95C43.07,71.07,40,84.5,35,90.75c-3.98,4.98-5.32,0.41-6.21-0.86"/><g id="kvg:099ff-g2" kvg:element="&#28780;" kvg:variant="true" kvg:original="&#28779;"><path id="kvg:099ff-s7" kvg:type="&#12756;" d="M12.14,71.25c0.48,6.05-1.73,11.37-2.24,12.57"/><path id="kvg:099ff-s8" kvg:type="&#12756;" d="M17.61,69.5c1.22,2.72,2.25,6.15,2.53,11"/><path id="kvg:099ff-s9" kvg:type="&#12756;" d="M24.52,66.97c0.73,1.33,3.34,5.7,3.66,10.03"/><path id="kvg:099ff-s10" kvg:type="&#12756;" d="M31.51,63.5c1.74,2.25,3.76,5.65,4.23,9"/></g></g><g id="kvg:099ff-g3" kvg:position="right"><g id="kvg:099ff-g4" kvg:element="&#20801;" kvg:position="top"><g id="kvg:099ff-g5" kvg:element="&#21430;" kvg:position="top"><path id="kvg:099ff-s11" kvg:type="&#12764;" d="M64.93,12.75c0.19,1,0.01,2.09-0.62,3.08c-4.5,7.17-7.42,10.69-12.7,16.55c-1.94,2.18-1.39,3.34,1.22,2.75c8.09-1.83,21.73-6.01,31.95-8.37"/><path id="kvg:099ff-s12" kvg:type="&#12756;" d="M78.05,19.26c4.25,2.76,10.72,11.59,11.78,15.87"/></g><g id="kvg:099ff-g6" kvg:element="&#20799;" kvg:position="bottom"><g id="kvg:099ff-g7" kvg:element="&#20031;" kvg:position="left"><path id="kvg:099ff-s13" kvg:type="&#12754;" d="M59.48,38.11c0.11,1.21-0.11,1.99-0.72,3.1c-2.04,3.74-6.41,9.11-12.14,13.29"/></g><g id="kvg:099ff-g8" kvg:position="right"><path id="kvg:099ff-s14" kvg:type="&#12767;" d="M71.34,34.05c0.93,0.93,1.04,2.2,1.04,3.71c0,3.63-0.01,4.78-0.01,7.24c0,4,1.75,5.22,10.38,5.22c5.32,0,8.63-0.45,9.57-1.88"/></g></g></g><g id="kvg:099ff-g9" kvg:element="&#22786;" kvg:position="bottom"><path id="kvg:099ff-s15" kvg:type="&#12754;" d="M63.73,52c0.14,1,0.02,1.88-0.57,3.2c-2.7,6.08-9.16,16.3-17.13,24.15"/><path id="kvg:099ff-s16" kvg:type="&#12743;" d="M64.16,60.31c1.59,0.69,4.04,0.55,5.2,0.36c3.53-0.57,8.69-2.15,11.15-2.95c2.61-0.85,4.11,1.03,3.18,3.35C79.05,72.67,61,90,45.24,96.75"/><path id="kvg:099ff-s17" kvg:type="&#12751;" d="M58.54,66.43c3.29,0.76,18.54,17.36,26.86,25.42c2.34,2.27,5.47,4.65,8.67,6.03"/></g></g></g></g></svg>