<svg xmlns="http://www.w3.org/2000/svg" width="109" height="109" viewBox="0 0 109 109"><g xmlns:kvg="http://kanjivg.tagaini.net" id="kvg:StrokePaths_09a0e" style="fill:none;stroke:#000000;stroke-width:3;stroke-linecap:round;stroke-linejoin:round;"><g id="kvg:09a0e" kvg:element="&#39438;"><g id="kvg:09a0e-g1" kvg:element="&#39340;" kvg:position="left" kvg:radical="general"><path id="kvg:09a0e-s1" kvg:type="&#12753;" d="M17.49,18.37c0.88,0.88,1.24,2.58,1.24,3.88c-0.02,7.56,0.18,22.36,0.08,32.5c-0.02,2.35,0.07,2.75-0.43,4.75"/><path id="kvg:09a0e-s2" kvg:type="&#12752;b" d="M19.27,19.51c7.68-0.88,17.57-1.98,21.6-2.49c1.18-0.15,2.75-0.28,4.66,0.04"/><path id="kvg:09a0e-s3" kvg:type="&#12753;a" d="M31.31,19.82c0.81,0.81,0.95,1.68,0.95,2.99c0,6.57,0,26.44,0,33.91"/><path id="kvg:09a0e-s4" kvg:type="&#12752;b" d="M19.75,33c5.17-0.6,14.43-1.59,18.5-2.15c1.07-0.15,3-0.48,4.6-0.26"/><path id="kvg:09a0e-s5" kvg:type="&#12752;b" d="M20.25,44.75c5.99-0.47,17-2.08,19.57-2.4c0.9-0.11,2.42-0.2,2.87-0.02"/><path id="kvg:09a0e-s6" kvg:type="&#12742;a" d="M18.74,59.9c6.17-1.41,19.29-3.29,22.68-3.88c4.33-0.76,4.19,0.81,3.95,4.45C44.7,70.81,42.76,82.45,39.25,89c-3.75,7-5.32,0.41-6.21-0.86"/><g id="kvg:09a0e-g2" kvg:element="&#28780;" kvg:variant="true" kvg:original="&#28779;"><path id="kvg:09a0e-s7" kvg:type="&#12756;" d="M13.48,72.25c0.37,6.41-0.75,12.04-1.14,13.32"/><path id="kvg:09a0e-s8" kvg:type="&#12756;" d="M19,69.88c1.44,2.66,2.67,6.64,3,11.38"/><path id="kvg:09a0e-s9" kvg:type="&#12756;" d="M26.12,68c0.82,1.21,3.76,5.8,4.12,9.75"/><path id="kvg:09a0e-s10" kvg:type="&#12756;" d="M32.88,64.88c1.46,2.49,3.85,5.07,4.38,8.38"/></g></g><g id="kvg:09a0e-g3" kvg:element="&#22855;" kvg:position="right" kvg:phon="&#22855;"><g id="kvg:09a0e-g4" kvg:element="&#22823;" kvg:variant="true" kvg:position="top"><path id="kvg:09a0e-s11" kvg:type="&#12752;" d="M52.77,24.26c1.41,0.44,3.8,0.22,5.25,0.07c6.86-0.72,16.27-1.84,23.11-2.68c2.13-0.26,4.01-0.19,6.13-0.19"/><path id="kvg:09a0e-s12" kvg:type="&#12754;" d="M68.52,11.5c0.41,0.85,0.31,1.74,0.22,2.64c-1.21,12.2-6.02,22.11-12.99,27.61"/><path id="kvg:09a0e-s13" kvg:type="&#12756;/&#12751;" d="M69.5,27.75C73.92,30,79.04,33.64,81.75,37"/></g><g id="kvg:09a0e-g5" kvg:element="&#21487;" kvg:position="bottom"><g id="kvg:09a0e-g6" kvg:element="&#19969;" kvg:part="1"><g id="kvg:09a0e-g7" kvg:element="&#19968;"><path id="kvg:09a0e-s14" kvg:type="&#12752;" d="M48.13,46.76c2.62,0.62,5.11,0.33,7.37,0.07c8.73-1.01,27.65-3.29,36.38-4.12c2.1-0.2,3.97-0.4,6.01,0.26"/></g></g><g id="kvg:09a0e-g8" kvg:element="&#21475;"><path id="kvg:09a0e-s15" kvg:type="&#12753;" d="M53.45,57.99c0.65,0.65,1.01,1.45,1.08,2.38c0.72,3.38,1.18,5.93,1.68,9.39c0.24,1.67,0.46,3.31,0.64,4.77"/><path id="kvg:09a0e-s16" kvg:type="&#12757;b" d="M55.4,58.96c4.77-0.81,10.23-1.47,13.72-1.88c2.74-0.32,3.59,0.13,3.04,2.92c-0.57,2.92-1.11,5.71-1.99,9.73"/><path id="kvg:09a0e-s17" kvg:type="&#12752;b" d="M57.73,72.23c1-0.12,7.96-1.2,10.9-1.5c1-0.1,2-0.21,2.96-0.34"/></g><g id="kvg:09a0e-g9" kvg:element="&#19969;" kvg:part="2"><g id="kvg:09a0e-g10" kvg:element="&#20101;"><path id="kvg:09a0e-s18" kvg:type="&#12762;" d="M83.92,46.22c0.87,0.87,1.31,2.53,1.31,4.35c0,16.08-0.1,33.83-0.1,39.31c0,9.39-6.11,1.91-7.22,0.53"/></g></g></g></g></g></g></svg>