<svg xmlns="http://www.w3.org/2000/svg" width="109" height="109" viewBox="0 0 109 109"><g xmlns:kvg="http://kanjivg.tagaini.net" id="kvg:StrokePaths_09a19" style="fill:none;stroke:#000000;stroke-width:3;stroke-linecap:round;stroke-linejoin:round;"><g id="kvg:09a19" kvg:element="&#39449;"><g id="kvg:09a19-g1" kvg:element="&#39340;" kvg:position="left" kvg:radical="general"><path id="kvg:09a19-s1" kvg:type="&#12753;" d="M14.59,19.62c0.66,0.38,1,2.57,0.99,3.38c-0.04,8.78-0.27,37.5-0.96,40.25"/><path id="kvg:09a19-s2" kvg:type="&#12752;b" d="M16.59,21.26c7.66-0.52,20.98-1.83,23.3-2.17c0.92-0.14,2.47-0.25,2.94-0.03"/><path id="kvg:09a19-s3" kvg:type="&#12753;a" d="M27.9,23.32c0.25,0.38,0.94,0.88,0.93,1.49c-0.02,6.17-0.06,25.46-0.25,35.16"/><path id="kvg:09a19-s4" kvg:type="&#12752;b" d="M16,35.09c6.13-0.58,18.35-2.1,20.98-2.49c0.92-0.14,2.48-0.24,2.94-0.02"/><path id="kvg:09a19-s5" kvg:type="&#12752;b" d="M16.1,47.12c6.13-0.59,18.84-2.1,21.47-2.49c0.92-0.14,2.47-0.25,2.94-0.03"/><path id="kvg:09a19-s6" kvg:type="&#12742;a" d="M14.84,62.65c7.41-0.9,19.59-2.54,22.91-3.13c4.24-0.76,4.6,1.31,4.37,4.95c-0.66,10.35-2.87,21.83-6,28.53c-2.69,5.75-5.71,0.41-6.59-0.86"/><g id="kvg:09a19-g2" kvg:element="&#28780;" kvg:variant="true" kvg:original="&#28779;"><path id="kvg:09a19-s7" kvg:type="&#12756;" d="M12.52,74.25c0.36,6.29-1.24,11.82-1.62,13.07"/><path id="kvg:09a19-s8" kvg:type="&#12756;" d="M18.04,72.75c1.33,2.66,2.45,6.01,2.75,10.75"/><path id="kvg:09a19-s9" kvg:type="&#12756;" d="M24.03,70.72c0.72,1.09,3.29,4.71,3.61,8.28"/><path id="kvg:09a19-s10" kvg:type="&#12756;" d="M30.74,68.75c1.22,2.01,3.23,4.09,3.67,6.75"/></g></g><g id="kvg:09a19-g3" kvg:element="&#25153;" kvg:position="right"><g id="kvg:09a19-g4" kvg:element="&#25144;" kvg:position="tare"><path id="kvg:09a19-s11" kvg:type="&#12754;" d="M 96.057979,12.226684 c -0.496877,0.5437 -1.016435,0.678031 -2.220245,0.996858 -9.582458,2.537898 -29.170807,6.201896 -40.300651,6.300416"/><path id="kvg:09a19-s12" kvg:type="&#12754;" d="M 53.34,19.303958 c 0.19,1.09 0.32,3.32 0.33,5.19 C 53.77,47.943958 51.37,77.64 43.5,86.51"/><path id="kvg:09a19-s13" kvg:type="&#12757;c" d="M54.54,31.51c8.02,0.91,29.9-2.48,38.19-3.26c1.54-0.15,3.89,0.33,3.03,3.13c-1.28,4.18-2.26,5.74-3.61,10.7"/><path id="kvg:09a19-s14" kvg:type="&#12752;b" d="M53.72,46c6.36,0,27.42-2.87,38.6-3.39"/></g><g id="kvg:09a19-g5" kvg:element="&#20874;"><g id="kvg:09a19-g6" kvg:element="&#20866;"><path id="kvg:09a19-s15" kvg:type="&#12753;" d="M54.93,60.54c0.39,0.61,0.65,1.58,0.52,2.68c-0.13,1.1,0.07,31.46,0.07,33.28"/><path id="kvg:09a19-s16" kvg:type="&#12742;a" d="M56.74,60.8c4.91-0.49,34.43-2.7,35.4-2.87c2.07-0.37,3.01,2.24,3.01,2.89c0,6.46-0.29,26.5-0.98,30.2c-1.17,6.23-4.67,2.32-6.22,0.73"/></g><g id="kvg:09a19-g7" kvg:element="&#24318;" kvg:variant="true"><g id="kvg:09a19-g8" kvg:element="&#21313;" kvg:part="1" kvg:variant="true"><path id="kvg:09a19-s17" kvg:type="&#12752;" d="M55.98,75.57c5.61-0.38,25.52-2.61,37.79-2.86"/></g><g id="kvg:09a19-g9" kvg:element="&#20031;" kvg:variant="true"><path id="kvg:09a19-s18" kvg:type="&#12753;" d="M66.46,61.76c0.72,0.28,1.16,1.25,1.3,1.8c0.14,0.56,0,26.9-0.14,30.37"/></g><g id="kvg:09a19-g10" kvg:element="&#21313;" kvg:part="2" kvg:variant="true"><path id="kvg:09a19-s19" kvg:type="&#12753;" d="M78.24,60.4c0.72,0.28,1.16,1.28,1.3,1.85c0.14,0.57,0,27.33-0.15,30.89"/></g></g></g></g></g></g></svg>