<svg xmlns="http://www.w3.org/2000/svg" width="109" height="109" viewBox="0 0 109 109"><g xmlns:kvg="http://kanjivg.tagaini.net" id="kvg:StrokePaths_09a2b" style="fill:none;stroke:#000000;stroke-width:3;stroke-linecap:round;stroke-linejoin:round;"><g id="kvg:09a2b" kvg:element="&#39467;"><g id="kvg:09a2b-g1" kvg:position="top"><g id="kvg:09a2b-g2" kvg:element="&#23424;"><path id="kvg:09a2b-s1" kvg:type="&#12753;a" d="M52.19,9.25c0.82,0.32,1.98,1.65,1.96,2.58c-0.06,2.93-0.06,4.54-0.06,7.2"/><g id="kvg:09a2b-g3" kvg:element="&#20886;"><path id="kvg:09a2b-s2" kvg:type="&#12756;" d="M20.23,20.48c0,3.06-2.42,12.34-3.2,14.39"/><path id="kvg:09a2b-s3" kvg:type="&#12758;b" d="M21.05,22.4c16.45-2.4,56.85-4.82,64.58-5.2c8.87-0.44,5.12,5.06,1.05,8.9"/></g></g><g id="kvg:09a2b-g4" kvg:element="&#19977;" kvg:part="1"><g id="kvg:09a2b-g5" kvg:element="&#19968;"><path id="kvg:09a2b-s4" kvg:type="&#12752;" d="M29.32,31.73c1.33,0.37,3.78,0.49,5.1,0.37c9.03-0.79,26.85-3.9,39.51-3.9c2.22,0,3.55,0.18,4.66,0.36"/></g></g><path id="kvg:09a2b-s5" kvg:type="&#12753;" d="M40.69,25.26c0.53,0.33,1.65,2.47,1.76,3.13c0.11,0.66,0.32,12.6,0.67,18.49"/><path id="kvg:09a2b-s6" kvg:type="&#12753;" d="M63.35,22.36c0.8,0.37,1.23,2.72,1.1,3.46c-0.79,4.47-1.4,11.71-2.46,20.04"/><g id="kvg:09a2b-g6" kvg:element="&#19977;" kvg:part="2"><g id="kvg:09a2b-g7" kvg:element="&#19968;"><path id="kvg:09a2b-s7" kvg:type="&#12752;" d="M27.82,40.14c1.33,0.37,3.77,0.46,5.08,0.37c7.6-0.51,31.35-4.26,41.54-4.77c2.21-0.11,3.54,0.18,4.64,0.36"/></g><g id="kvg:09a2b-g8" kvg:element="&#19968;"><path id="kvg:09a2b-s8" kvg:type="&#12752;" d="M18.75,49.4c1.66,0.46,4.71,0.68,6.35,0.46c6.7-0.9,46-5.48,61.74-5.48c2.76,0,4.42,0.22,5.79,0.45"/></g></g><g id="kvg:09a2b-g9" kvg:element="&#20843;"><path id="kvg:09a2b-s9" kvg:type="&#12754;" d="M40.66,50.99c0.51,0.67-0.23,1.34-0.71,2.24C35.13,62.35,20.08,70.93,12,73.25"/><path id="kvg:09a2b-s10" kvg:type="&#12751;" d="M61.96,46.77c9.57,6.59,19.51,14.55,26.5,17.72c2.7,1.22,3.67,1.88,6.29,2.28"/></g></g><g id="kvg:09a2b-g10" kvg:element="&#39340;" kvg:position="bottom" kvg:radical="general"><path id="kvg:09a2b-s11" kvg:type="&#12753;" d="M35.87,59.15c0.31,0.19,0.65,1.25,0.65,1.58c0,3.37,0.03,17.85-0.15,23.16"/><path id="kvg:09a2b-s12" kvg:type="&#12752;b" d="M37.42,60.58c7.64-0.66,24.46-3.46,27.74-3.82c1.14-0.13,3.08-0.27,3.66-0.18"/><path id="kvg:09a2b-s13" kvg:type="&#12753;a" d="M53.63,60.37c0.31,0.19,0.56,0.46,0.56,0.79c0,3.37,0.03,14.76-0.15,20.06"/><path id="kvg:09a2b-s14" kvg:type="&#12752;b" d="M37.08,68.07c7.64-0.66,28.1-2.95,31.38-3.31c1.14-0.13,3.08-0.27,3.66-0.18"/><path id="kvg:09a2b-s15" kvg:type="&#12752;b" d="M37.25,75.18c7.64-0.66,30.1-2.95,33.38-3.31c1.14-0.13,3.08-0.27,3.66-0.18"/><path id="kvg:09a2b-s16" kvg:type="&#12742;a" d="M36.37,83.59c10.51-1.26,36.78-4.4,42.6-4.86c3.79-0.3,4.43,2.38,3.97,4.46c-1.25,5.73-1.7,9.05-3.32,13.29C77.26,102.64,74,99,72.4,96.46"/><g id="kvg:09a2b-g11" kvg:element="&#28780;" kvg:variant="true" kvg:original="&#28779;"><path id="kvg:09a2b-s17" kvg:type="&#12756;" d="M28.48,89.07c-0.48,3.43-3.4,8.23-5.04,10.56"/><path id="kvg:09a2b-s18" kvg:type="&#12756;" d="M37.57,90.02c1.37,1.71,2.68,6.42,3.02,9.09"/><path id="kvg:09a2b-s19" kvg:type="&#12756;" d="M50.18,89.39c1.31,1.42,3.37,5.83,3.7,8.04"/><path id="kvg:09a2b-s20" kvg:type="&#12756;" d="M60.6,85.9c1.96,1.3,5.05,5.36,5.54,7.39"/></g></g></g></g></svg>