<svg xmlns="http://www.w3.org/2000/svg" width="109" height="109" viewBox="0 0 109 109"><g xmlns:kvg="http://kanjivg.tagaini.net" id="kvg:StrokePaths_09a42" style="fill:none;stroke:#000000;stroke-width:3;stroke-linecap:round;stroke-linejoin:round;"><g id="kvg:09a42" kvg:element="&#39490;"><g id="kvg:09a42-g1" kvg:element="&#39340;" kvg:position="left" kvg:radical="general"><path id="kvg:09a42-s1" kvg:type="&#12753;" d="M15.24,16.72c0.51,0.78,1,2.14,0.99,3.78c-0.05,9.44-0.28,38.4-0.98,41.21"/><path id="kvg:09a42-s2" kvg:type="&#12752;b" d="M17.77,18.35c7.82-0.54,20.4-2.9,22.76-3.26c0.94-0.14,2.53-0.25,3-0.03"/><path id="kvg:09a42-s3" kvg:type="&#12753;a" d="M28.81,17.92c0.25,0.39,0.96,0.91,0.95,1.53c-0.02,6.37-0.06,28.86-0.25,38.88"/><path id="kvg:09a42-s4" kvg:type="&#12752;b" d="M16.66,33.13c6.26-0.6,20.25-3.15,22.94-3.56c0.94-0.14,2.53-0.25,3-0.03"/><path id="kvg:09a42-s5" kvg:type="&#12752;b" d="M16.76,45.58c6.26-0.6,20.25-2.17,22.94-2.57c0.94-0.14,2.53-0.25,3-0.03"/><path id="kvg:09a42-s6" kvg:type="&#12742;a" d="M15.99,61.08c6.17-1.46,20.54-3.67,23.93-4.28c4.33-0.79,4.19,2.9,3.95,6.66c-0.67,10.68-2.92,21.03-6.12,27.95c-2.75,5.93-5.32,0.42-6.21-0.89"/><g id="kvg:09a42-g2" kvg:element="&#28780;" kvg:variant="true" kvg:original="&#28779;"><path id="kvg:09a42-s7" kvg:type="&#12756;" d="M11.28,71.34c0.31,6.39-0.63,12.02-0.96,13.3"/><path id="kvg:09a42-s8" kvg:type="&#12756;" d="M17.91,70.21c1.14,2.39,2.11,5.4,2.37,9.66"/><path id="kvg:09a42-s9" kvg:type="&#12756;" d="M24.29,68.61c0.76,1.11,3.47,4.75,3.8,8.36"/><path id="kvg:09a42-s10" kvg:type="&#12756;" d="M30.99,66.37c1.56,2.11,4.13,4.29,4.69,7.09"/></g></g><g id="kvg:09a42-g3" kvg:element="&#21443;" kvg:position="right"><g id="kvg:09a42-g4" kvg:position="top"><g id="kvg:09a42-g5" kvg:element="&#21430;" kvg:position="top"><path id="kvg:09a42-s11" kvg:type="&#12764;" d="M68.12,9.75c0.09,1.03-0.12,1.89-0.36,2.27c-3.49,5.48-4.71,6.36-8.79,10.59c-1.35,1.4-1.74,2.76,0.31,2.27c6.68-1.59,18.65-4.23,25.9-5.98"/><path id="kvg:09a42-s12" kvg:type="&#12756;" d="M78.11,12.64c3.85,1.96,9.94,8.07,10.9,11.12"/></g><g id="kvg:09a42-g6" kvg:position="bottom"><g id="kvg:09a42-g7" kvg:element="&#21430;" kvg:position="left"><path id="kvg:09a42-s13" kvg:type="&#12764;" d="M56.43,31.18c0.17,0.27,0.27,1.15,0.17,1.5c-1.25,4.41-5.37,9.78-7.71,12.88c-0.74,0.98-0.47,1.83,0.66,1.5c5.2-1.55,9.7-3.05,15.18-4.92"/><path id="kvg:09a42-s14" kvg:type="&#12756;" d="M61.01,38.05c1.73,1.4,4.47,4.96,4.91,7.13"/></g><g id="kvg:09a42-g8" kvg:element="&#21430;" kvg:position="right"><path id="kvg:09a42-s15" kvg:type="&#12764;" d="M85.03,27.3c0.17,0.27-0.04,1.15-0.14,1.5c-1.26,4.41-2.99,8.22-5.33,11.31c-0.74,0.98,0.1,2.43,1.16,2.01c3.4-1.35,8.91-2.93,12.92-4.33"/><path id="kvg:09a42-s16" kvg:type="&#12756;" d="M90.39,33.23c2.47,1.97,6.39,8.12,7.01,11.19"/></g></g></g><g id="kvg:09a42-g9" kvg:position="bottom"><path id="kvg:09a42-s17" kvg:type="&#12754;" d="M72.35,42.25c0.06,0.63,0.29,1.76-0.12,2.54C69.76,49.46,59.33,63,50.25,69.04"/><path id="kvg:09a42-s18" kvg:type="&#12751;" d="M73.18,45.5c3.28,3.76,17.42,16.06,21.04,18.81c1.23,0.94,2.8,1.34,4.03,1.6"/><g id="kvg:09a42-g10" kvg:element="&#24417;"><g id="kvg:09a42-g11" kvg:element="&#20031;"><path id="kvg:09a42-s19" kvg:type="&#12754;" d="M76.16,57.24c0.06,0.5,0.24,1.37-0.13,2.03c-2.43,4.34-11.22,12.78-22.66,18.69"/></g><g id="kvg:09a42-g12" kvg:element="&#20031;"><path id="kvg:09a42-s20" kvg:type="&#12754;" d="M82.11,68.23c0.08,0.49,0.3,1.32-0.16,1.95C78.79,74.42,68.91,84.09,53,88.79"/></g><g id="kvg:09a42-g13" kvg:element="&#20031;"><path id="kvg:09a42-s21" kvg:type="&#12754;" d="M89.37,77.86c0.12,0.52,0.24,1.35-0.22,2.1C86.44,84.38,70.89,94.07,49.61,100"/></g></g></g></g></g></g></svg>