<svg xmlns="http://www.w3.org/2000/svg" width="109" height="109" viewBox="0 0 109 109"><g xmlns:kvg="http://kanjivg.tagaini.net" id="kvg:StrokePaths_09a62" style="fill:none;stroke:#000000;stroke-width:3;stroke-linecap:round;stroke-linejoin:round;"><g id="kvg:09a62" kvg:element="&#39522;"><g id="kvg:09a62-g1" kvg:element="&#39340;" kvg:position="left" kvg:radical="general"><path id="kvg:09a62-s1" kvg:type="&#12753;" d="M14.69,18.19c0.56,0.56,1,2.8,0.99,3.81c-0.04,9.41-0.25,38-0.87,40.77"/><path id="kvg:09a62-s2" kvg:type="&#12752;b" d="M16.55,19.83C23,19,35.22,16.95,37.33,16.59c0.83-0.14,2.25-0.25,2.67-0.03"/><path id="kvg:09a62-s3" kvg:type="&#12753;a" d="M26.88,19.39c0.23,0.39,0.85,0.9,0.85,1.52c-0.02,6.31-0.06,28.59-0.22,38.51"/><path id="kvg:09a62-s4" kvg:type="&#12752;b" d="M16.06,34.46c5.57-0.6,17.59-3.13,19.98-3.54c0.83-0.14,2.25-0.25,2.67-0.03"/><path id="kvg:09a62-s5" kvg:type="&#12752;b" d="M16.15,46.29c5.57-0.6,17.53-2.65,19.93-3.05c0.84-0.14,2.25-0.25,2.67-0.03"/><path id="kvg:09a62-s6" kvg:type="&#12742;a" d="M15.46,62.15c5.5-1.44,19.63-4.13,22.65-4.74c3.86-0.78,4.48,1.39,4.02,5.1c-1.38,10.99-3.38,22.74-8.01,30.18c-3.36,5.41-5.23-0.08-6.03-1.38"/><g id="kvg:09a62-g2" kvg:element="&#28780;" kvg:variant="true" kvg:original="&#28779;"><path id="kvg:09a62-s7" kvg:type="&#12756;" d="M11.04,72.32c0.31,6.55-0.64,12.31-0.97,13.62"/><path id="kvg:09a62-s8" kvg:type="&#12756;" d="M16.3,71.04c1.65,2.58,3.04,5.84,3.42,10.44"/><path id="kvg:09a62-s9" kvg:type="&#12756;" d="M23.56,69.17c0.68,1.22,3.14,5.23,3.44,9.2"/><path id="kvg:09a62-s10" kvg:type="&#12756;" d="M30.09,66.63c1.32,2.58,3.49,5.24,3.97,8.65"/></g></g><g id="kvg:09a62-g3" kvg:element="&#30439;" kvg:position="right"><g id="kvg:09a62-g4" kvg:element="&#34381;" kvg:position="tare"><path id="kvg:09a62-s11" kvg:type="&#12753;a" d="M67.62,13.58c0.71,0.88,1.26,2.17,1.26,3.85c0,5.7-0.02,6.46-0.02,11.25"/><path id="kvg:09a62-s12" kvg:type="&#12752;b" d="M69.52,21.15c5.06-0.86,12.3-2.47,17.43-3.15c1.69-0.22,2.73,0.2,3.58,0.41"/><path id="kvg:09a62-s13" kvg:type="&#12754;" d="M51.77,28.97c0.48,0.56,0.52,3.61,0.52,5.62c0,24.41-0.04,39.66-11.6,57.32"/><path id="kvg:09a62-s14" kvg:type="&#12758;a" d="M52.81,31.1c0.83,0.18,2.33-0.04,3.69-0.25c5.75-0.85,26.66-3.86,34.88-4.02c8.67-0.17,2.55,4.99,0.4,7.03"/><g id="kvg:09a62-g5" kvg:element="&#19971;"><g id="kvg:09a62-g6" kvg:element="&#19968;"><path id="kvg:09a62-s15" kvg:type="&#12752;" d="M56.44,41.23c0.64,0.35,2.2,0.41,2.84,0.35c6.36-0.54,17.74-4,24.61-4.87c1.05-0.13,1.69,0.17,2.22,0.35"/></g><path id="kvg:09a62-s16" kvg:type="&#12767;a" d="M67.47,31.25c0.54,0.44,1.25,2.17,1.25,2.79c0,4.89-0.1,4.55-0.1,6.74c0,5.48,2.99,6.5,10.69,6.5c7.19,0,9.99-1,12.46-1.87"/></g></g><g id="kvg:09a62-g7" kvg:element="&#30000;"><path id="kvg:09a62-s17" kvg:type="&#12753;" d="M58.28,54.13c0.2,0.38,0.59,1.65,0.7,2.12c0.91,3.83,2.23,8.74,2.77,15.81"/><path id="kvg:09a62-s18" kvg:type="&#12757;a" d="M59.63,55.21c8.77-1.13,23.75-3.06,29.17-2.94c1.32,0.03,2.13,1.3,2.13,2.51c0,3.8-1.72,8.37-3.13,15.41"/><path id="kvg:09a62-s19" kvg:type="&#12753;a" d="M72.33,54.14c0.99,0.77,1.36,1.34,1.35,2.01c-0.03,4.45,0.13,11.65,0.13,13.26"/><path id="kvg:09a62-s20" kvg:type="&#12752;a" d="M61.42,63c2.36-0.18,25.92-2.35,27.87-2.35"/><path id="kvg:09a62-s21" kvg:type="&#12752;a" d="M62.13,70.54c5.22,0,18.12-1.87,25.33-1.98"/></g><g id="kvg:09a62-g8" kvg:element="&#30399;"><path id="kvg:09a62-s22" kvg:type="&#12753;a" d="M55.5,77.54c0.45,0.73,1.03,1.53,1.12,2.15c0.75,4.93,0.93,6.43,1.62,12.96"/><path id="kvg:09a62-s23" kvg:type="&#12757;b" d="M56.97,79.08c8.05-1.02,30.61-2.98,33.53-2.84c1.26,0.06,2.01,0.18,1.84,2.13c-0.24,2.87-1.48,9.45-2.41,13.31"/><path id="kvg:09a62-s24" kvg:type="&#12753;a" d="M67.33,78.55c0.19,0.47,0.46,0.85,0.46,1.45c0,4.21,1.18,8.37,1.18,12.23"/><path id="kvg:09a62-s25" kvg:type="&#12753;a" d="M79.35,77.5c0.34,0.56,0.7,1.53,0.61,2.25c-0.51,4.21-0.69,8.18-0.9,11.72"/><path id="kvg:09a62-s26" kvg:type="&#12752;" d="M45.66,93.44c1.33,0.38,3.75,0.44,5.08,0.38c13.79-0.63,18.68-2.13,44.06-2.23c2.21-0.01,3.53,0.18,4.64,0.37"/></g></g></g></g></svg>