<svg xmlns="http://www.w3.org/2000/svg" width="109" height="109" viewBox="0 0 109 109"><g xmlns:kvg="http://kanjivg.tagaini.net" id="kvg:StrokePaths_09abc" style="fill:none;stroke:#000000;stroke-width:3;stroke-linecap:round;stroke-linejoin:round;"><g id="kvg:09abc" kvg:element="&#39612;"><g id="kvg:09abc-g1" kvg:element="&#39592;" kvg:position="left" kvg:radical="general"><g id="kvg:09abc-g2" kvg:position="top"><path id="kvg:09abc-s1" kvg:type="&#12753;a" d="M17.12,17.2c0.25,0.48,0.96,2.54,0.99,3.17c0.14,2.88,1.09,18.84,1.09,19.16"/><path id="kvg:09abc-s2" kvg:type="&#12757;b" d="M18.31,18.63C19.72,18.6,32.5,17,39.09,15.56c1.41-0.31,2.91,1.19,2.68,2.39c-0.66,3.41-1.25,10.52-1.91,18.72"/><path id="kvg:09abc-s3" kvg:type="&#12753;a" d="M28.57,25.62c0.25,0.48,0.46,1.54,0.49,2.17c0.15,2.81,0.32,9.98,0.31,10.29"/><path id="kvg:09abc-s4" kvg:type="&#12752;a" d="M28.98,26.91c1.41-0.03,9.45-1.47,10.73-1.64"/><path id="kvg:09abc-s5" kvg:type="&#12756;" d="M12.04,38.12c-0.02,3.61-1.85,12-2.31,14.38"/><path id="kvg:09abc-s6" kvg:type="&#12758;b" d="M12.19,41.26c5.8-1.18,29.14-4.59,32.94-4.79c5.94-0.32,1.37,4.53-1.25,6.74"/></g><g id="kvg:09abc-g3" kvg:element="&#26376;" kvg:position="bottom"><path id="kvg:09abc-s7" kvg:type="&#12753;/&#12754;" d="M19.31,49.12c0.37,0.7,0.62,1.4,0.74,2.1c0.12,0.7,0.18,44.01,0.12,45.58"/><path id="kvg:09abc-s8" kvg:type="&#12742;a" d="M21.29,51.32c1.49-0.17,15.14-2.65,16.25-2.85c1.98-0.35,2.73,2.27,2.48,3.32c-0.24,1.01-0.37,25.87-0.37,40.04c0,9.09-4.48,2.15-5.72,0.57"/><path id="kvg:09abc-s9" kvg:type="&#12752;a" d="M20.79,63.81c5.08-1.05,13.73-2.14,18.2-2.67"/><path id="kvg:09abc-s10" kvg:type="&#12752;a" d="M20.49,76.17c3.97-0.53,14.17-2.12,18.76-2.47"/></g></g><g id="kvg:09abc-g4" kvg:element="&#21508;" kvg:position="right"><g id="kvg:09abc-g5" kvg:element="&#22786;" kvg:position="top"><path id="kvg:09abc-s11" kvg:type="&#12754;" d="M66.8,14.25c0.04,0.73,0.22,1.94-0.08,2.93c-2.3,7.66-7.44,19.08-14.65,28.64"/><path id="kvg:09abc-s12" kvg:type="&#12743;" d="M67.26,25.91c0.33,0.04,1.76,0,2.71-0.11c3.14-0.35,8.96-2.09,13.44-3.18c3.08-0.75,3.89,0.83,3.16,2.89C82,38.5,65.75,61,46.44,70.03"/><path id="kvg:09abc-s13" kvg:type="&#12751;" d="M61.15,32.58C65.51,38.2,85.3,59.57,91.18,64.7c1.75,1.53,3.17,2.28,4.88,2.73"/></g><g id="kvg:09abc-g6" kvg:element="&#21475;" kvg:position="bottom"><path id="kvg:09abc-s14" kvg:type="&#12753;" d="M54.83,72.51c0.36,0.44,0.73,0.8,0.89,1.35c1.25,4.34,2.75,16.31,3.61,24.1"/><path id="kvg:09abc-s15" kvg:type="&#12757;b" d="M57.08,74.47c10.17-1.47,24.59-2.79,28.83-3.36c1.55-0.21,2.48,1.23,2.25,2.46c-0.92,5.07-2.99,12.67-4.35,19.68"/><path id="kvg:09abc-s16" kvg:type="&#12752;b" d="M59.51,95.13c7.74-0.88,17.99-1.13,26.36-1.75"/></g></g></g></g></svg>