<svg xmlns="http://www.w3.org/2000/svg" width="109" height="109" viewBox="0 0 109 109"><g xmlns:kvg="http://kanjivg.tagaini.net" id="kvg:StrokePaths_09aeb" style="fill:none;stroke:#000000;stroke-width:3;stroke-linecap:round;stroke-linejoin:round;"><g id="kvg:09aeb" kvg:element="&#39659;"><g id="kvg:09aeb-g1" kvg:element="&#39647;" kvg:position="top" kvg:radical="general"><g id="kvg:09aeb-g2" kvg:element="&#38263;" kvg:variant="true" kvg:position="left"><path id="kvg:09aeb-s1" kvg:type="&#12753;a" d="M23.5,10.79c1.39,0.89,1.39,1.04,1.39,1.94s0.46,20.87,0.46,22.21"/><path id="kvg:09aeb-s2" kvg:type="&#12752;b" d="M24.94,12.3c4.77-0.16,14.94-2.45,21.17-2.52c1.45-0.02,2.32,0.11,3.05,0.22"/><path id="kvg:09aeb-s3" kvg:type="&#12752;b" d="M25.52,19.53c4.22-0.31,14.11-1.46,17.52-1.77c1.28-0.12,2.58-0.08,3.57,0.1"/><path id="kvg:09aeb-s4" kvg:type="&#12752;b" d="M25.78,26.98c4.22-0.31,14.61-1.96,18.02-2.27c1.28-0.12,2.58-0.08,3.57,0.1"/><path id="kvg:09aeb-s5" kvg:type="&#12752;" d="M11.88,36.19c1.03,0.24,2.91,0.32,3.93,0.24c8.17-0.66,25.6-3.77,34.57-4.1c1.71-0.06,2.74,0.11,3.59,0.23"/><g id="kvg:09aeb-g3" kvg:element="&#21430;"><path id="kvg:09aeb-s6" kvg:type="&#12764;" d="M27.23,36.85c0.07,0.44-0.39,1.06-0.59,1.32c-2.14,2.83-4.39,5.58-8.04,9.35c-0.97,1-0.53,2.26,1.36,1.84c7.29-1.63,17.29-4.32,25.59-6.43"/><path id="kvg:09aeb-s7" kvg:type="&#12756;" d="M40.09,37.79c3.44,1.73,8.88,7.13,9.74,9.83"/></g></g><g id="kvg:09aeb-g4" kvg:element="&#24417;" kvg:position="right"><g id="kvg:09aeb-g5" kvg:element="&#20031;"><path id="kvg:09aeb-s8" kvg:type="&#12754;" d="M82.97,9c0.07,0.34-0.2,1.44-0.64,1.88c-3.4,3.38-10.44,7.78-24.02,12.19"/></g><g id="kvg:09aeb-g6" kvg:element="&#20031;"><path id="kvg:09aeb-s9" kvg:type="&#12754;" d="M88.59,18.78c0.09,0.38-0.1,1.58-0.67,2.04c-4.24,3.52-13.78,9.81-28.85,14.28"/></g><g id="kvg:09aeb-g7" kvg:element="&#20031;"><path id="kvg:09aeb-s10" kvg:type="&#12754;" d="M94.05,28.29c0.1,0.47,0.38,1.24-0.2,1.87C89.9,34.47,77.5,42.72,58.43,48"/></g></g></g><g id="kvg:09aeb-g8" kvg:element="&#21484;" kvg:position="bottom"><g id="kvg:09aeb-g9" kvg:element="&#20992;" kvg:position="top"><path id="kvg:09aeb-s11" kvg:type="&#12742;" d="M25.35,56.24c0.7,0.36,2.8,0.31,3.88,0.2c8.83-0.86,47.39-4.76,52.25-5.42c2.03-0.27,3.53,1.48,3.26,3.38c-0.64,4.65-4.99,11.34-8.07,15.45c-4.05,5.39-6.72-0.72-7.42-1.45"/><path id="kvg:09aeb-s12" kvg:type="&#12754;" d="M53.2,54.14c0.1,0.55-0.12,2.07-0.7,2.72c-8,8.89-17.75,16.64-33.33,22.11"/></g><g id="kvg:09aeb-g10" kvg:element="&#21475;" kvg:position="bottom"><path id="kvg:09aeb-s13" kvg:type="&#12753;" d="M33.64,79.64c0.42,0.3,0.85,0.56,1.04,0.94c1.46,3.04,2.45,14.78,3.45,20.24"/><path id="kvg:09aeb-s14" kvg:type="&#12757;b" d="M35.26,80.87c9.73-1,34.3-3.46,42.14-3.86c2.6-0.13,4.09,0.74,3.88,3.12c-0.38,4.14-1.53,9.87-2.09,15.39"/><path id="kvg:09aeb-s15" kvg:type="&#12752;b" d="M38.32,98.65c7.53-0.25,31.49-2.39,42.67-2.69"/></g></g></g></g></svg>