<svg xmlns="http://www.w3.org/2000/svg" width="109" height="109" viewBox="0 0 109 109"><g xmlns:kvg="http://kanjivg.tagaini.net" id="kvg:StrokePaths_09af1" style="fill:none;stroke:#000000;stroke-width:3;stroke-linecap:round;stroke-linejoin:round;"><g id="kvg:09af1" kvg:element="&#39665;"><g id="kvg:09af1-g1" kvg:element="&#39647;" kvg:position="top" kvg:radical="general"><g id="kvg:09af1-g2" kvg:element="&#38263;" kvg:variant="true" kvg:position="left"><path id="kvg:09af1-s1" kvg:type="&#12753;a" d="M25,10.75c1,0.75,1.39,1.52,1.39,2.4s0.46,19.98,0.46,21.3"/><path id="kvg:09af1-s2" kvg:type="&#12752;b" d="M27.44,13.26c4.77-0.16,14.94-2.41,21.17-2.48c1.45-0.02,2.32,0.11,3.05,0.22"/><path id="kvg:09af1-s3" kvg:type="&#12752;b" d="M27.02,20.84c4.22-0.31,14.11-1.93,17.52-2.24c1.28-0.12,2.58-0.08,3.57,0.1"/><path id="kvg:09af1-s4" kvg:type="&#12752;b" d="M27.28,27.14c4.22-0.31,14.11-1.43,17.52-1.74c1.28-0.12,2.58-0.08,3.57,0.1"/><path id="kvg:09af1-s5" kvg:type="&#12752;" d="M12.38,36.03c1.07,0.24,3.05,0.39,4.12,0.24c11.25-1.52,26-3.02,36.21-4.04c1.78-0.18,2.87,0.12,3.76,0.24"/><g id="kvg:09af1-g3" kvg:element="&#21430;"><path id="kvg:09af1-s6" kvg:type="&#12764;" d="M29.23,36.31c0.07,0.59-0.35,1.46-0.59,1.77c-3.2,4.04-4.12,5.3-8.54,9.81c-1.1,1.13-0.53,3.01,1.36,2.45c7.29-2.17,17.29-5.1,25.59-7.91"/><path id="kvg:09af1-s7" kvg:type="&#12756;" d="M42.09,37.89c2.56,1.31,6.6,5.4,7.24,7.44"/></g></g><g id="kvg:09af1-g4" kvg:element="&#24417;" kvg:position="bottom"><g id="kvg:09af1-g5" kvg:element="&#20031;"><path id="kvg:09af1-s8" kvg:type="&#12754;" d="M82.98,9c0.06,0.35,0.27,0.96-0.13,1.4c-3.05,3.44-9.83,8.43-22.05,12.91"/></g><g id="kvg:09af1-g6" kvg:element="&#20031;"><path id="kvg:09af1-s9" kvg:type="&#12754;" d="M89.1,18.28c0.08,0.4,0.38,1.13-0.15,1.62c-3.99,3.68-13.44,10.79-27.62,15.46"/></g><g id="kvg:09af1-g7" kvg:element="&#20031;"><path id="kvg:09af1-s10" kvg:type="&#12754;" d="M94.06,28.29c0.1,0.5,0.36,1.32-0.19,1.99c-3.79,4.58-15.67,13.35-33.94,18.97"/></g></g></g><g id="kvg:09af1-g8" kvg:element="&#21253;" kvg:position="right"><g id="kvg:09af1-g9" kvg:element="&#21241;"><g id="kvg:09af1-g10" kvg:element="&#20031;"><path id="kvg:09af1-s11" kvg:type="&#12754;" d="M41.34,49c0.07,0.55,0.36,1.47-0.13,2.23c-3.23,4.91-12.02,14.12-24.1,21.29"/></g><path id="kvg:09af1-s12" kvg:type="&#12742;" d="M38.92,56.8c1.19,0.51,2.82,0.54,4.74,0.34c6.09-0.64,27.59-3.14,36.2-4.35c2.22-0.31,4.78,0.93,4.68,2.83c-0.32,5.72-3.78,20.13-8.88,28.48c-2.91,4.76-5.65,0.66-6.59-1.35"/></g><g id="kvg:09af1-g11" kvg:element="&#24051;"><g id="kvg:09af1-g12" kvg:element="&#24049;" kvg:variant="true"><path id="kvg:09af1-s13" kvg:type="&#12757;" d="M33.06,66.43c1.58,0.75,3.43,1.25,5.76,1c4.71-0.51,19.45-3.12,20.89-3.22c1.9-0.13,3.4,0.83,2.72,2.78c-0.2,0.58-1.92,6.25-2.6,10.74"/><path id="kvg:09af1-s14" kvg:type="&#12752;" d="M38.46,79.96c5.19-0.27,16.32-1.57,23.69-1.81"/><path id="kvg:09af1-s15" kvg:type="&#12767;" d="M37.06,67.56c0,1.69,0.55,3.05,0.54,4.14c-0.04,3.51,0.19,16.93,0.19,19.99c0,6.66,3.24,8.49,31.23,8.49c23.39,0,25.75-1.94,25.75-10.84"/></g></g></g></g></g></svg>