<svg xmlns="http://www.w3.org/2000/svg" width="109" height="109" viewBox="0 0 109 109"><g xmlns:kvg="http://kanjivg.tagaini.net" id="kvg:StrokePaths_09afb" style="fill:none;stroke:#000000;stroke-width:3;stroke-linecap:round;stroke-linejoin:round;"><g id="kvg:09afb" kvg:element="&#39675;"><g id="kvg:09afb-g1" kvg:element="&#39647;" kvg:position="top" kvg:radical="general"><g id="kvg:09afb-g2" kvg:element="&#38263;" kvg:variant="true" kvg:position="left"><path id="kvg:09afb-s1" kvg:type="&#12753;a" d="M23.5,11.76c1.39,0.88,1.39,1.03,1.39,1.91c0,0.88,0.46,21.11,0.46,22.43"/><path id="kvg:09afb-s2" kvg:type="&#12752;b" d="M26.44,13.77c4.77-0.16,13.94-2.42,20.17-2.49c1.45-0.02,2.32,0.11,3.05,0.22"/><path id="kvg:09afb-s3" kvg:type="&#12752;b" d="M25.02,20.9c4.22-0.31,14.11-1.44,17.52-1.75c1.28-0.12,2.58-0.08,3.57,0.1"/><path id="kvg:09afb-s4" kvg:type="&#12752;b" d="M25.28,28.75C29.5,28.44,40.39,26.31,43.8,26c1.28-0.12,2.58-0.08,3.57,0.1"/><path id="kvg:09afb-s5" kvg:type="&#12752;" d="M12.88,36.93c1.03,0.23,2.93,0.32,3.96,0.23c10.91-0.92,27.41-3.42,34.78-3.49c1.72-0.02,2.75,0.11,3.61,0.23"/><g id="kvg:09afb-g3" kvg:element="&#21430;"><path id="kvg:09afb-s6" kvg:type="&#12764;" d="M29.38,38.49c0.07,0.54-0.33,1.34-0.57,1.62c-3.09,3.7-3.97,4.86-8.23,8.99c-1.06,1.04-0.51,2.76,1.31,2.25c7.02-1.99,16.66-4.67,24.66-7.25"/><path id="kvg:09afb-s7" kvg:type="&#12756;" d="M41.59,39.66c2.56,0.97,6.6,3.99,7.24,5.5"/></g></g><g id="kvg:09afb-g4" kvg:element="&#24417;" kvg:position="right"><g id="kvg:09afb-g5" kvg:element="&#20031;"><path id="kvg:09afb-s8" kvg:type="&#12754;" d="M82.48,10c0.07,0.35,0.29,0.96-0.14,1.4c-3.29,3.44-10.61,8.43-23.78,12.91"/></g><g id="kvg:09afb-g6" kvg:element="&#20031;"><path id="kvg:09afb-s9" kvg:type="&#12754;" d="M88.6,20.78c0.08,0.37,0.39,1.04-0.16,1.5c-4.17,3.41-14.04,10-28.86,14.33"/></g><g id="kvg:09afb-g7" kvg:element="&#20031;"><path id="kvg:09afb-s10" kvg:type="&#12754;" d="M93.57,30.79c0.09,0.45,0.34,1.19-0.18,1.8c-3.56,4.14-14.75,12.08-31.96,17.16"/></g></g></g><g id="kvg:09afb-g8" kvg:element="&#21513;" kvg:position="bottom"><g id="kvg:09afb-g9" kvg:element="&#22763;" kvg:position="top"><path id="kvg:09afb-s11" kvg:type="&#12752;" d="M19.42,65c1.9,0.47,5.38,0.44,7.28,0.29c19.75-1.6,44.26-3.29,58.25-3.79c3.16-0.11,5.06,0.08,6.64,0.3"/><path id="kvg:09afb-s12" kvg:type="&#12753;a" d="M53.19,52.76c1.08,0.44,1.73,2.16,1.94,3.14c0.22,0.99-0.2,10.85-0.2,16.8"/><path id="kvg:09afb-s13" kvg:type="&#12752;" d="M31.38,75.1c1.2,0.39,3.4,0.31,4.61,0.2c15.89-1.39,16.33-2.14,39.35-3.51c2-0.12,3.21,0.04,4.21,0.21"/></g><g id="kvg:09afb-g10" kvg:element="&#21475;" kvg:position="bottom"><path id="kvg:09afb-s14" kvg:type="&#12753;" d="M30.07,82.78c0.47,0.33,0.95,0.6,1.15,1.01c1.62,3.23,2.44,10.36,3.54,16.17"/><path id="kvg:09afb-s15" kvg:type="&#12757;b" d="M32.17,84.04c11.16-0.86,38.49-4.06,43.76-4.52c1.93-0.17,3.08,1.69,2.81,2.67c-1.14,4.07-2.74,8.1-3.89,11.88"/><path id="kvg:09afb-s16" kvg:type="&#12752;b" d="M35.18,97.82c7.32-0.34,31.57-2.88,42.09-3.26"/></g></g></g></g></svg>