<svg xmlns="http://www.w3.org/2000/svg" width="109" height="109" viewBox="0 0 109 109"><g xmlns:kvg="http://kanjivg.tagaini.net" id="kvg:StrokePaths_09af7" style="fill:none;stroke:#000000;stroke-width:3;stroke-linecap:round;stroke-linejoin:round;"><g id="kvg:09af7" kvg:element="&#39671;"><g id="kvg:09af7-g1" kvg:element="&#39647;" kvg:position="top" kvg:radical="general"><g id="kvg:09af7-g2" kvg:element="&#38263;" kvg:variant="true" kvg:position="left"><path id="kvg:09af7-s1" kvg:type="&#12753;a" d="M25.5,14.06c1.39,1.02,1.39,1.19,1.39,2.21s0.46,19.57,0.46,21.1"/><path id="kvg:09af7-s2" kvg:type="&#12752;b" d="M27.44,16.08c5.81-1.33,13.31-2.08,19.17-3.3c1.42-0.3,2.32,0.12,3.05,0.25"/><path id="kvg:09af7-s3" kvg:type="&#12752;b" d="M27.52,23.39c4.22-0.36,13.11-1.66,16.52-2.02c1.28-0.13,2.58-0.09,3.57,0.12"/><path id="kvg:09af7-s4" kvg:type="&#12752;b" d="M27.78,29.88c4.22-0.36,14.11-1.66,17.52-2.02c1.28-0.13,2.58-0.09,3.57,0.12"/><path id="kvg:09af7-s5" kvg:type="&#12752;" d="M11.88,39.47c0.94,0.26,2.67,0.3,3.61,0.26c9.81-0.43,24.3-4.65,37.69-4.99c1.57-0.04,2.51,0.12,3.3,0.25"/><g id="kvg:09af7-g3" kvg:element="&#21430;"><path id="kvg:09af7-s6" kvg:type="&#12764;" d="M30.73,40.12c0.07,0.51-0.35,1.25-0.59,1.51c-3.2,3.45-3.12,5.03-7.54,8.88c-1.1,0.97-0.53,2.57,1.36,2.09c7.29-1.85,15.29-3.85,23.59-6.25"/><path id="kvg:09af7-s7" kvg:type="&#12756;" d="M43.34,41.48c2.64,1.74,6.83,7.15,7.49,9.85"/></g></g><g id="kvg:09af7-g4" kvg:element="&#24417;" kvg:position="right"><g id="kvg:09af7-g5" kvg:element="&#20031;"><path id="kvg:09af7-s8" kvg:type="&#12754;" d="M81.49,11c0.06,0.28,0.25,0.77-0.12,1.13c-2.81,2.78-9.06,6.81-20.32,10.43"/></g><g id="kvg:09af7-g6" kvg:element="&#20031;"><path id="kvg:09af7-s9" kvg:type="&#12754;" d="M85.13,23.28c0.07,0.28,0.31,0.8-0.13,1.14c-3.28,2.6-11.03,7.63-22.67,10.94"/></g><g id="kvg:09af7-g7" kvg:element="&#20031;"><path id="kvg:09af7-s10" kvg:type="&#12754;" d="M89.09,35.79c0.08,0.31,0.29,0.83-0.15,1.25C85.9,39.93,76.35,45.46,61.68,49"/></g></g></g><g id="kvg:09af7-g8" kvg:element="&#26354;" kvg:position="bottom"><g id="kvg:09af7-g9" kvg:element="&#26085;" kvg:part="1"><path id="kvg:09af7-s11" kvg:type="&#12753;" d="M25.55,66.01c0.43,0.71,1.24,2.56,1.37,3.5c0.33,2.49,3.64,26.81,3.78,27.75"/><path id="kvg:09af7-s12" kvg:type="&#12757;" d="M27.14,67.33c3.99-0.44,52.15-5.05,55.67-5.18c3.57-0.13,4.5,1.92,4.11,4.35c-0.76,4.78-1.7,13.79-4.97,27.22"/></g><g id="kvg:09af7-g10" kvg:element="&#24318;"><g id="kvg:09af7-g11" kvg:element="&#21313;" kvg:part="1"><path id="kvg:09af7-s13" kvg:type="&#12752;" d="M43.65,54.53c1.25,0.64,2.73,2.84,2.86,4.13c1.6,15.84,1.24,22.84,2.11,33.28"/></g><g id="kvg:09af7-g12" kvg:element="&#20031;" kvg:variant="true"><path id="kvg:09af7-s14" kvg:type="&#12753;" d="M64.29,53.23c1.25,0.63,1.75,2.84,1.63,4.13c-1.16,12.32-1.02,26.54-1.94,33.72"/></g><g id="kvg:09af7-g13" kvg:element="&#21313;" kvg:part="2"><path id="kvg:09af7-s15" kvg:type="&#12753;" d="M30.13,79.47c7.62-0.72,51.47-4.3,55.21-4.3"/></g></g><g id="kvg:09af7-g14" kvg:element="&#26085;" kvg:part="2"><path id="kvg:09af7-s16" kvg:type="&#12752;" d="M31.7,93.89c6.74-0.46,41.73-3.21,50.13-3.6"/></g></g></g></g></svg>