<svg xmlns="http://www.w3.org/2000/svg" width="109" height="109" viewBox="0 0 109 109"><g xmlns:kvg="http://kanjivg.tagaini.net" id="kvg:StrokePaths_09baa" style="fill:none;stroke:#000000;stroke-width:3;stroke-linecap:round;stroke-linejoin:round;"><g id="kvg:09baa" kvg:element="&#39850;"><g id="kvg:09baa-g1" kvg:element="&#39770;" kvg:position="left" kvg:radical="general"><g id="kvg:09baa-g2" kvg:element="&#131210;" kvg:variant="true" kvg:original="&#21241;" kvg:position="top"><path id="kvg:09baa-s1" kvg:type="&#12754;" d="M28.99,16.25c0.05,0.52,0.1,1.33-0.1,2.07c-1.16,4.36-7.8,13.94-16.9,19.8"/><path id="kvg:09baa-s2" kvg:type="&#12743;" d="M25.89,25.59c1.6,0,13.47-2.46,15.15-2.7c1.44-0.2,1.77,1.75,1.17,2.74c-2.53,4.18-6.62,8.18-10.74,14.82"/></g><g id="kvg:09baa-g3" kvg:position="bottom"><g id="kvg:09baa-g4" kvg:element="&#30000;"><path id="kvg:09baa-s3" kvg:type="&#12753;" d="M15.72,42.39c0.23,0.46,0.23,0.77,0.36,1.35c1.02,4.72,2.11,17.14,2.75,25.95"/><path id="kvg:09baa-s4" kvg:type="&#12757;a" d="M16.78,44.02c7.92-1.19,21.01-4.21,26.92-5.21c2.17-0.37,3.29,0.93,3.17,2.23c-0.41,4.76-1.29,17.26-3.03,26.17"/><path id="kvg:09baa-s5" kvg:type="&#12753;a" d="M29.56,42.23c0.9,0.59,1.58,2.51,1.61,4.04c0.12,6.73,0.03,16.27,0.03,19.6"/><path id="kvg:09baa-s6" kvg:type="&#12752;a" d="M18.76,55.23c2.58-0.46,24.76-3.87,26.89-4.06"/><path id="kvg:09baa-s7" kvg:type="&#12752;a" d="M19.23,67.4c5.71-0.51,17.11-1.62,24.99-2.45"/></g><g id="kvg:09baa-g5" kvg:element="&#28780;" kvg:variant="true" kvg:original="&#28779;"><path id="kvg:09baa-s8" kvg:type="&#12756;" d="M13.93,80.32c0,5.5-1.82,13.61-2.3,15.18"/><path id="kvg:09baa-s9" kvg:type="&#12756;" d="M22.95,78.33c0.91,2.36,1.77,8.87,1.99,12.54"/><path id="kvg:09baa-s10" kvg:type="&#12756;" d="M32.62,76.94c1.17,2.07,3.03,8.5,3.32,11.71"/><path id="kvg:09baa-s11" kvg:type="&#12756;" d="M42.8,74.87c1.66,1.9,4.28,7.82,4.7,10.78"/></g></g></g><g id="kvg:09baa-g6" kvg:element="&#26377;" kvg:position="right"><path id="kvg:09baa-s12" kvg:type="&#12754;" d="M72.1,12.43c0.05,1.1,0.25,2.9-0.1,4.44c-2.92,12.97-7.63,30.04-17.77,42.49"/><path id="kvg:09baa-s13" kvg:type="&#12752;" d="M46.31,31.03c1.02,0.43,2.88,0.5,3.89,0.43c10.74-0.71,37.41-4.18,48.24-4.17c1.69,0,2.71,0.21,3.55,0.42"/><g id="kvg:09baa-g7" kvg:element="&#26376;"><path id="kvg:09baa-s14" kvg:type="&#12754;" d="M63.55,44.71c0.48,0.73,0.81,1.45,0.97,2.18c0.16,0.73,0.23,47.45,0.16,49.08"/><path id="kvg:09baa-s15" kvg:type="&#12742;a" d="M64.99,45.88c1.94-0.18,19.73-3.72,21.17-3.92c2.59-0.36,3.56,2.36,3.23,3.45c-0.31,1.05-0.49,29.25-0.49,43.96c0,10.38-3.67,4.88-6.43,1.63"/><path id="kvg:09baa-s16" kvg:type="&#12752;a" d="M64.99,59.43c8.59-0.68,16.09-1.43,23.77-2.3"/><path id="kvg:09baa-s17" kvg:type="&#12752;a" d="M64.97,72.9c6.94-0.65,17.99-1.68,23.97-2.04"/></g></g></g></g></svg>