<svg xmlns="http://www.w3.org/2000/svg" width="109" height="109" viewBox="0 0 109 109"><g xmlns:kvg="http://kanjivg.tagaini.net" id="kvg:StrokePaths_09bf1" style="fill:none;stroke:#000000;stroke-width:3;stroke-linecap:round;stroke-linejoin:round;"><g id="kvg:09bf1" kvg:element="&#39921;"><g id="kvg:09bf1-g1" kvg:element="&#39770;" kvg:position="left" kvg:radical="general"><g id="kvg:09bf1-g2" kvg:element="&#131210;" kvg:variant="true" kvg:original="&#21241;" kvg:position="top"><path id="kvg:09bf1-s1" kvg:type="&#12754;" d="M24,13.75c0.04,0.59,0.08,1.53-0.08,2.38c-0.94,5.01-6.31,16.01-13.68,22.74"/><path id="kvg:09bf1-s2" kvg:type="&#12743;" d="M22.89,21.88c1.93,0,13.82-1.94,15.85-2.23c1.74-0.25,2.13,2.17,1.41,3.4c-3.05,5.19-6.14,9.7-9.95,18.4"/></g><g id="kvg:09bf1-g3" kvg:position="bottom"><g id="kvg:09bf1-g4" kvg:element="&#30000;"><path id="kvg:09bf1-s3" kvg:type="&#12753;" d="M13.22,43.95c0.23,0.46,0.23,0.78,0.36,1.37c1.02,4.8,2.11,17.42,2.75,26.37"/><path id="kvg:09bf1-s4" kvg:type="&#12757;a" d="M14.28,45.61c7.92-1.21,20.51-3.28,26.42-4.29c2.17-0.37,3.29,0.94,3.17,2.26c-0.41,4.84-1.29,16.04-3.03,25.1"/><path id="kvg:09bf1-s5" kvg:type="&#12753;a" d="M26.56,44.27c0.9,0.6,1.58,2.55,1.61,4.1c0.12,6.84,0.03,16.53,0.03,19.92"/><path id="kvg:09bf1-s6" kvg:type="&#12752;a" d="M16.26,57c2.58-0.47,23.76-2.93,25.89-3.13"/><path id="kvg:09bf1-s7" kvg:type="&#12752;a" d="M16.73,69.87c5.71-0.51,16.11-1.67,23.99-2.5"/></g><g id="kvg:09bf1-g5" kvg:element="&#28780;" kvg:variant="true" kvg:original="&#28779;"><path id="kvg:09bf1-s8" kvg:type="&#12756;" d="M14.32,81.32c0,5.32-2.05,13.16-2.59,14.68"/><path id="kvg:09bf1-s9" kvg:type="&#12756;" d="M21.89,79.83c1.08,2.36,2.1,8.87,2.37,12.54"/><path id="kvg:09bf1-s10" kvg:type="&#12756;" d="M29.79,77.94c1.76,1.98,4.54,8.14,4.98,11.21"/><path id="kvg:09bf1-s11" kvg:type="&#12756;" d="M39.05,75.37c1.75,1.73,4.51,7.1,4.95,9.78"/></g></g></g><g id="kvg:09bf1-g6" kvg:element="&#34382;" kvg:position="right"><g id="kvg:09bf1-g7" kvg:element="&#34381;"><path id="kvg:09bf1-s12" kvg:type="&#12753;a" d="M67.61,13.08c0.78,0.92,1.4,1.99,1.4,5.02c0,5.9-0.02,11.69-0.02,16.65"/><path id="kvg:09bf1-s13" kvg:type="&#12752;b" d="M69.26,24.77C72.96,24,82.63,22,86.38,21.39c1.23-0.2,1.99,0.18,2.61,0.37"/><path id="kvg:09bf1-s14" kvg:type="&#12754;" d="M53.33,34.68c0.5,0.56,1.05,2.66,1.05,4.68C54.38,65,53,86.25,42.25,97.5"/><path id="kvg:09bf1-s15" kvg:type="&#12758;a" d="M54.43,37.52c0.92,0.18,2.08,0,3.56-0.26c10.57-1.9,24.75-4.26,33.79-4.42c9.54-0.16,2.02,6.28-0.35,8.28"/><g id="kvg:09bf1-g8" kvg:element="&#19971;"><g id="kvg:09bf1-g9" kvg:element="&#19968;"><path id="kvg:09bf1-s16" kvg:type="&#12752;" d="M60.17,48.19c0.63,0.37,1.78,0.42,2.42,0.37c3.41-0.31,13.55-3.07,20.38-3.97c1.05-0.14,1.68,0.18,2.21,0.36"/></g><path id="kvg:09bf1-s17" kvg:type="&#12767;a" d="M68.71,37.68c0.55,0.43,1.28,2.14,1.28,2.75c0,4.82-0.1,6.29-0.1,8.44c0,6.4,0.86,6.88,10.45,6.88c2.94,0,8.77,0,11.3-0.86"/></g></g><g id="kvg:09bf1-g10" kvg:element="&#20799;" kvg:original="&#20843;"><g id="kvg:09bf1-g11" kvg:element="&#20031;" kvg:position="left"><path id="kvg:09bf1-s18" kvg:type="&#12754;" d="M65.79,62.72c0.71,0.53,0.86,2.51,0.92,3.64C67.25,77.5,63.25,92,51.96,96.42"/></g><g id="kvg:09bf1-g12" kvg:position="right"><path id="kvg:09bf1-s19" kvg:type="&#12767;" d="M68,66.5c4.25-0.5,8.44-1.39,10.78-2.32c1.72-0.68,3.09,0.1,2.7,2.35c-0.98,5.72-1.84,13.3-1.84,18.05c0,8.66,1.61,9.86,8.26,9.86c7.1,0,9.03-2.44,9.03-7.8"/></g></g></g></g></g></svg>