<svg xmlns="http://www.w3.org/2000/svg" width="109" height="109" viewBox="0 0 109 109"><g xmlns:kvg="http://kanjivg.tagaini.net" id="kvg:StrokePaths_09c25" style="fill:none;stroke:#000000;stroke-width:3;stroke-linecap:round;stroke-linejoin:round;"><g id="kvg:09c25" kvg:element="&#39973;"><g id="kvg:09c25-g1" kvg:element="&#39770;" kvg:position="left" kvg:radical="general"><g id="kvg:09c25-g2" kvg:element="&#131210;" kvg:variant="true" kvg:original="&#21241;" kvg:position="top"><path id="kvg:09c25-s1" kvg:type="&#12754;" d="M25.49,12.75c0.04,0.56,0.24,1.5-0.09,2.26C23,20.5,17.75,28.5,9.74,36.62"/><path id="kvg:09c25-s2" kvg:type="&#12743;" d="M23.39,19.38c1.93,0,11.32-1.94,13.35-2.23c1.74-0.25,2.13,1.67,1.41,2.9c-3.05,5.19-3.98,8.16-8.95,16.4"/></g><g id="kvg:09c25-g3" kvg:position="bottom"><g id="kvg:09c25-g4" kvg:element="&#30000;"><path id="kvg:09c25-s3" kvg:type="&#12753;" d="M14.62,38.58c0.19,0.55,0.2,0.93,0.31,1.61c0.88,5.64,2.35,19.84,2.92,30.25"/><path id="kvg:09c25-s4" kvg:type="&#12757;a" d="M15.52,40.59c6.72-0.74,18.65-3.11,23.66-3.79c1.84-0.25,2.79,1.37,2.7,2.88c-0.33,5.57-0.46,18.15-1.9,28.49"/><path id="kvg:09c25-s5" kvg:type="&#12753;a" d="M27.2,39.05c0.76,0.54,1.35,2.15,1.38,3.4c0.13,5.51,0.08,21.81,0.09,24.54"/><path id="kvg:09c25-s6" kvg:type="&#12752;a" d="M17.74,53.44c2.19-0.33,21.41-2.44,23.21-2.49"/><path id="kvg:09c25-s7" kvg:type="&#12752;a" d="M18.18,67.8c4.84-0.12,14.92-1.61,21.6-1.93"/></g><g id="kvg:09c25-g5" kvg:element="&#28780;" kvg:variant="true" kvg:original="&#28779;"><path id="kvg:09c25-s8" kvg:type="&#12756;" d="M14.43,79.57c0,5.77-2.42,14.28-3.05,15.93"/><path id="kvg:09c25-s9" kvg:type="&#12756;" d="M21.39,77.83c1.41,2.36,2.75,8.87,3.11,12.54"/><path id="kvg:09c25-s10" kvg:type="&#12756;" d="M29.29,74.69c1.76,2.2,4.54,9.04,4.98,12.46"/><path id="kvg:09c25-s11" kvg:type="&#12756;" d="M37.8,72.87c1.83,1.73,4.74,7.1,5.2,9.78"/></g></g></g><g id="kvg:09c25-g6" kvg:position="right"><g id="kvg:09c25-g7" kvg:element="&#32594;" kvg:variant="true" kvg:original="&#32593;" kvg:position="top"><path id="kvg:09c25-s12" kvg:type="&#12753;" d="M47.75,14.06c0.24,0.32,0.49,0.59,0.59,0.99c0.83,3.19,2.33,11.98,2.9,17.7"/><path id="kvg:09c25-s13" kvg:type="&#12757;a" d="M49.25,16.22c5.3-1.25,40.38-3.56,43.2-3.98c1.03-0.15,2.42,1.08,2.15,2.87c-0.58,3.74-1.99,10.15-3.52,15.49"/><path id="kvg:09c25-s14" kvg:type="&#12753;a" d="M63.14,14.44c0.16,2.12,1.29,12.47,1.46,14.86"/><path id="kvg:09c25-s15" kvg:type="&#12753;a" d="M78.35,13.11c-0.16,3.45-0.97,12.47-1.29,14.6"/><path id="kvg:09c25-s16" kvg:type="&#12752;a" d="M52,31.01c3.31-0.47,34.91-2.42,39.45-3.14"/></g><g id="kvg:09c25-g8" kvg:position="bottom"><path id="kvg:09c25-s17" kvg:type="&#12753;" d="M69.75,35.25C71,35.75,72,37.47,72,38.5c0,10.5,0,53.75-0.25,60"/><path id="kvg:09c25-s18" kvg:type="&#12754;" d="M61.76,40.64c0.04,0.39,0.08,1.01-0.08,1.57c-0.97,3.31-6.52,10.56-14.13,15.01"/><path id="kvg:09c25-s19" kvg:type="&#12756;" d="M64.5,60.39c0.06,0.64,0.24,1.7-0.11,2.59C62,69,54.5,79,44.06,87.72"/><path id="kvg:09c25-s20" kvg:type="&#12754;" d="M81.77,41.83c4.6,2.36,11.89,9.71,13.04,13.38"/><path id="kvg:09c25-s21" kvg:type="&#12751;" d="M72.5,50.25c3.28,4.42,18.72,26.62,22.29,30.97c1.21,1.47,2.25,2.11,3.46,2.53"/></g></g></g></g></svg>