<svg xmlns="http://www.w3.org/2000/svg" width="109" height="109" viewBox="0 0 109 109"><g xmlns:kvg="http://kanjivg.tagaini.net" id="kvg:StrokePaths_09ceb" style="fill:none;stroke:#000000;stroke-width:3;stroke-linecap:round;stroke-linejoin:round;"><g id="kvg:09ceb" kvg:element="&#40171;"><g id="kvg:09ceb-g1" kvg:element="&#21378;" kvg:position="tare"><path id="kvg:09ceb-s1" kvg:type="&#12752;" d="M20.13,16.73c1.52,0.54,4.3,0.65,5.82,0.54c17.8-1.27,36.8-4.02,56.61-4.23c2.53-0.03,4.05,0.26,5.31,0.53"/><path id="kvg:09ceb-s2" kvg:type="&#12754;" d="M25,17.5c0.04,1.7,0.08,4.38-0.07,6.81C24.03,38.67,23.75,72,12.31,88.97"/></g><g id="kvg:09ceb-g2" kvg:element="&#40165;" kvg:radical="general"><path id="kvg:09ceb-s3" kvg:type="&#12754;" d="M56.1,20.41c0.01,0.29,0.03,0.75-0.02,1.16c-0.3,2.42-2.02,7.61-4.36,10.62"/><path id="kvg:09ceb-s4" kvg:type="&#12753;" d="M42.7,32.07c0.41,0.35,0.74,1.31,0.74,1.88c0,5.79,0.04,28.51-0.21,37.61"/><path id="kvg:09ceb-s5" kvg:type="&#12757;a" d="M43.96,34.13c1.92,0,26.5-3.51,28.37-3.45c1.92,0.07,3.42,1.07,3.38,3.71c-0.02,0.93-1.2,7.6-2.32,17.08"/><path id="kvg:09ceb-s6" kvg:type="&#12752;a" d="M44.26,43.5c2.35,0.11,27.75-3.19,30.41-3.07"/><path id="kvg:09ceb-s7" kvg:type="&#12752;a" d="M43.65,51.73c4.8-0.11,23.73-2.49,29.71-2.5"/><path id="kvg:09ceb-s8" kvg:type="&#12752;b" d="M43.42,61.03c10.13-0.67,36.05-3.79,40.4-4.21c1.52-0.15,4.09-0.28,4.86-0.08"/><path id="kvg:09ceb-s9" kvg:type="&#12742;a" d="M43.25,71.81c12.48-1.44,36.33-4.51,43.25-4.94c4.5-0.28,5.81,0.79,5,4.03c-2.25,9.02-3.6,17.58-7.5,23.13c-3.92,5.57-5.5,0.71-6.51-1.71"/><g id="kvg:09ceb-g3" kvg:element="&#28780;" kvg:variant="true" kvg:original="&#28779;"><path id="kvg:09ceb-s10" kvg:type="&#12756;" d="M34.61,81.23c0.14,4.02-3.36,10.52-6.31,12.35"/><path id="kvg:09ceb-s11" kvg:type="&#12756;" d="M46.09,79.58c1.82,2.21,3.55,8.01,4,11.25"/><path id="kvg:09ceb-s12" kvg:type="&#12756;" d="M58.08,77.22c2.01,2,5.19,8.02,5.7,10.96"/><path id="kvg:09ceb-s13" kvg:type="&#12756;" d="M69.55,75.62c2.65,1.63,6.85,6.53,7.51,8.91"/></g></g></g></g></svg>