<svg xmlns="http://www.w3.org/2000/svg" width="109" height="109" viewBox="0 0 109 109"><g xmlns:kvg="http://kanjivg.tagaini.net" id="kvg:StrokePaths_09ce5" style="fill:none;stroke:#000000;stroke-width:3;stroke-linecap:round;stroke-linejoin:round;"><g id="kvg:09ce5" kvg:element="&#40165;" kvg:radical="general"><path id="kvg:09ce5-s1" kvg:type="&#12754;" d="M49.72,10.68c0.03,0.27,0.07,0.7-0.06,1.08c-0.76,2.28-5.15,7.3-11.15,10.37"/><path id="kvg:09ce5-s2" kvg:type="&#12753;" d="M32.88,23.32c0.96,0.8,1.57,2.55,1.57,3.69c0,6.86,0.02,24.01-0.12,35.24c-0.03,2.27-0.06,4.3-0.11,5.95"/><path id="kvg:09ce5-s3" kvg:type="&#12757;a" d="M35.8,25.86c9.2-1.73,23.7-4.36,29.64-4.87c3.06-0.26,4.32,2.26,4.04,3.99c-0.15,0.92-1.49,7.58-3.2,14.78c-0.26,1.09-0.52,2.18-0.78,3.24"/><path id="kvg:09ce5-s4" kvg:type="&#12752;a" d="M35.86,35.44c3.64-0.69,26.27-4.19,30.87-4.38"/><path id="kvg:09ce5-s5" kvg:type="&#12752;a" d="M35.49,45.53c7.01-1.03,21.26-3.53,29.23-4.2"/><path id="kvg:09ce5-s6" kvg:type="&#12752;b" d="M35.78,56.05c11.22-1.3,37.15-4.84,41.97-5.55c1.68-0.25,4.53-0.28,5.38-0.1"/><path id="kvg:09ce5-s7" kvg:type="&#12742;a" d="M34.75,68.27c15.75-2.64,42-5.64,49.75-6.27c4.51-0.36,6.81,2.33,6,5.75c-2.25,9.5-5.82,18.96-9.5,25C77.5,98.5,74.75,96,71,93"/><g id="kvg:09ce5-g1" kvg:element="&#28780;" kvg:variant="true" kvg:original="&#28779;"><path id="kvg:09ce5-s8" kvg:type="&#12756;" d="M20.81,80.25c0.44,6-0.31,13.25-1.6,17"/><path id="kvg:09ce5-s9" kvg:type="&#12756;" d="M34.38,78.38c2.97,1.96,5.79,7.37,6.54,10.43"/><path id="kvg:09ce5-s10" kvg:type="&#12756;" d="M48.88,75.12c2.34,1.57,6.04,6.44,6.62,8.88"/><path id="kvg:09ce5-s11" kvg:type="&#12756;" d="M62.88,72c2.69,1.68,6.95,6.89,7.62,9.5"/></g></g></g></svg>