<svg xmlns="http://www.w3.org/2000/svg" width="109" height="109" viewBox="0 0 109 109"><g xmlns:kvg="http://kanjivg.tagaini.net" id="kvg:StrokePaths_09df8" style="fill:none;stroke:#000000;stroke-width:3;stroke-linecap:round;stroke-linejoin:round;"><g id="kvg:09df8" kvg:element="&#40440;"><g id="kvg:09df8-g1" kvg:position="left"><g id="kvg:09df8-g2" kvg:element="&#30683;" kvg:position="top"><g id="kvg:09df8-g3" kvg:element="&#20104;"><g id="kvg:09df8-g4" kvg:element="&#12510;" kvg:position="top"><path id="kvg:09df8-s1" kvg:type="&#12743;" d="M16.31,15.78c1.06,0.38,1.69,1.22,4.16,1.3c5.04,0.17,19.57-2.01,21.72-2.36s2.88,1.47,1.6,2.61c-2.19,1.96-9.49,5.34-10.85,6.74"/><path id="kvg:09df8-s2" kvg:type="&#12756;" d="M26.78,20.78c1.77,0.73,6.36,3.54,7.2,5.45"/></g><g id="kvg:09df8-g5" kvg:element="&#20102;" kvg:position="bottom"><path id="kvg:09df8-s3" kvg:type="&#12743;" d="M11.44,31.01c0.6,0.22,2.88,0.83,4.79,0.61c9.77-1.12,27.24-3.96,33.18-4.16c6.09-0.2,2.59,3.8-1.71,7.69"/><g id="kvg:09df8-g6" kvg:element="&#20101;"><path id="kvg:09df8-s4" kvg:type="&#12762;" d="M32.57,29.47c0.68,0.4,2.19,1.4,2.19,3.14c0,8.38,0.17,2.38,0.17,14.16c0,6.19-3.88,1.48-4.8,0.13"/></g></g></g><g id="kvg:09df8-g7" kvg:element="&#20031;"><path id="kvg:09df8-s5" kvg:type="&#12754;" d="M31.14,29.63c0.05,0.4,0.23,1.08-0.1,1.6c-2.9,4.62-8.74,10.54-17.78,15.29"/></g></g><g id="kvg:09df8-g8" kvg:element="&#20879;" kvg:position="bottom"><g id="kvg:09df8-g9" kvg:element="&#20866;"><path id="kvg:09df8-s6" kvg:type="&#12753;" d="M14.8,53.52c0.59,0.78,0.78,1.75,0.78,3c0,1.42,0.2,36.53,0.2,38.88"/><path id="kvg:09df8-s7" kvg:type="&#12742;a" d="M15.47,54.55c4.87-0.41,28.76-3.94,29.75-4.05c2.28-0.25,3.55,0.75,3.62,4.17c0.02,1.02,0.05,33.28-0.08,35.63c-0.41,7.7-3.92,2.34-5.7,0.91"/></g><g id="kvg:09df8-g10" kvg:element="&#20799;" kvg:variant="true" kvg:original="&#20843;"><g id="kvg:09df8-g11" kvg:element="&#20031;"><path id="kvg:09df8-s8" kvg:type="&#12754;" d="M26.86,56c0.03,0.52,0.41,0.52,0.24,1.09c-0.91,2.97-3.03,6.8-6.72,10.48"/></g><path id="kvg:09df8-s9" kvg:type="&#12767;" d="M35.1,54.35c0.24,0.32,0.43,0.7,0.45,1.2c0.06,2.22-0.17,3.87-0.17,5.38c0,3.53,2.9,2.62,5.74,2.62c3,0,4.1-0.46,4.52-0.71"/></g><g id="kvg:09df8-g12" kvg:element="&#21475;"><path id="kvg:09df8-s10" kvg:type="&#12753;" d="M25.05,71.57c0.19,0.2,0.38,0.37,0.46,0.62c0.65,1.99,1.21,8.46,1.66,12.03"/><path id="kvg:09df8-s11" kvg:type="&#12757;b" d="M26.22,72.91c3.85-0.65,9.66-2.17,11.87-2.43c0.81-0.1,1.29,0.56,1.17,1.12c-0.53,2.56-0.96,5.86-1.62,8.83"/><path id="kvg:09df8-s12" kvg:type="&#12752;b" d="M27.26,82.23c2.59-0.29,7.63-0.8,11.19-1.26"/></g></g></g><g id="kvg:09df8-g13" kvg:element="&#40165;" kvg:position="right" kvg:radical="general"><path id="kvg:09df8-s13" kvg:type="&#12754;" d="M72.54,10.66c0.02,0.34,0.04,0.88-0.04,1.36c-0.44,2.83-2.97,8.9-6.42,12.43"/><path id="kvg:09df8-s14" kvg:type="&#12753;" d="M59.3,24.92c0.33,0.43,0.6,1.02,0.6,1.73c0,7.23,0.54,31.01,0.33,42.38"/><path id="kvg:09df8-s15" kvg:type="&#12757;a" d="M60.31,26.25c1.55,0,22.5-3.17,24.01-3.06c2.24,0.16,3.33,2.15,3.13,4.02c-0.12,1.15-1.64,10.19-3.08,18.96"/><path id="kvg:09df8-s16" kvg:type="&#12752;a" d="M60.56,35.58c1.9,0.13,23.1-2.74,25.25-2.59"/><path id="kvg:09df8-s17" kvg:type="&#12752;a" d="M60.47,46.62c3.88-0.14,19.05-2.48,23.88-2.5"/><path id="kvg:09df8-s18" kvg:type="&#12752;b" d="M60.69,57.83c8.85-1,28.93-3.39,32.73-4.02c1.33-0.22,3.57-0.42,4.24-0.13"/><path id="kvg:09df8-s19" kvg:type="&#12742;a" d="M60.24,69.25c9.1-1.63,27.13-3.42,32.17-3.9c3.28-0.31,4.97,0.89,4.38,4.57c-1.64,10.24-4.58,18.96-7.43,25.25c-2.86,6.33-6.47,1.04-7.8-0.24"/><g id="kvg:09df8-g14" kvg:element="&#28780;" kvg:variant="true" kvg:original="&#28779;"><path id="kvg:09df8-s20" kvg:type="&#12756;" d="M56.1,78.98c0.52,4.69-0.38,10.31-1.91,13.19"/><path id="kvg:09df8-s21" kvg:type="&#12756;" d="M64.07,78.74c1.27,1.99,2.47,7.2,2.79,10.12"/><path id="kvg:09df8-s22" kvg:type="&#12756;" d="M71.49,75.29c1.76,1.87,4.54,7.51,4.98,10.26"/><path id="kvg:09df8-s23" kvg:type="&#12756;" d="M82.16,73.48c1.36,1.62,3.52,6.51,3.86,8.89"/></g></g></g></g></svg>