<svg xmlns="http://www.w3.org/2000/svg" width="109" height="109" viewBox="0 0 109 109"><g xmlns:kvg="http://kanjivg.tagaini.net" id="kvg:StrokePaths_09df2" style="fill:none;stroke:#000000;stroke-width:3;stroke-linecap:round;stroke-linejoin:round;"><g id="kvg:09df2" kvg:element="&#40434;"><g id="kvg:09df2-g1" kvg:element="&#23601;" kvg:position="top"><g id="kvg:09df2-g2" kvg:element="&#20140;" kvg:position="left"><g id="kvg:09df2-g3" kvg:element="&#20128;" kvg:position="top"><path id="kvg:09df2-s1" kvg:type="&#12753;a" d="M35.31,7.11c0.79,0.29,1.09,1.06,1.1,2.04c0.03,2.23-0.24,3.21-0.1,5.09"/><path id="kvg:09df2-s2" kvg:type="&#12752;" d="M14.24,16.47c0.98,0.06,3.2,0.44,4.16,0.34c7.47-0.75,20.83-3.34,29.97-3.7c1.61-0.06,2.14-0.42,3.63-0.01"/></g><g id="kvg:09df2-g4" kvg:position="bottom"><g id="kvg:09df2-g5" kvg:element="&#21475;"><path id="kvg:09df2-s3" kvg:type="&#12753;" d="M23.22,23.22c0.33,0.17,1.15,1.06,1.22,1.3c0.51,1.69,1.6,5.58,2.35,8.77"/><path id="kvg:09df2-s4" kvg:type="&#12757;b" d="M24.73,23.5c5.04-0.66,15.24-2.48,18.66-2.75c1.42-0.11,2.73,0.92,2.16,2.21c-0.63,1.44-1.4,4.2-2.29,6.19"/><path id="kvg:09df2-s5" kvg:type="&#12752;b" d="M26.63,31.91c6.99-0.65,11.2-1.91,18.18-2.46"/></g><g id="kvg:09df2-g6" kvg:element="&#23567;"><path id="kvg:09df2-s6" kvg:type="&#12762;" d="M35.21,32.68c0.04,0.19,0.55,1.01,0.62,2.23c0.11,1.98-0.13,9.69-0.13,11.4c0,3.58-3.54,0.2-4.28-0.3"/><path id="kvg:09df2-s7" kvg:type="&#12754;" d="M24.62,36.56c0.02,0.25,0.05,0.63-0.05,0.99c-0.55,2.08-3.69,6.66-8,9.46"/><path id="kvg:09df2-s8" kvg:type="&#12756;" d="M41.79,37.53c1.87,0.89,4.45,3.37,4.92,4.76"/></g></g></g><g id="kvg:09df2-g7" kvg:element="&#23588;" kvg:position="right"><g id="kvg:09df2-g8" kvg:element="&#23586;"><path id="kvg:09df2-s9" kvg:type="&#12752;" d="M53.95,22.33c0.72,0.32,2.02,0.34,2.74,0.32c5.81-0.2,24.02-3.55,31.71-3.54c1.19,0,1.91,0.15,2.5,0.31"/><g id="kvg:09df2-g9" kvg:element="&#20799;" kvg:original="&#20843;"><g id="kvg:09df2-g10" kvg:element="&#20031;"><path id="kvg:09df2-s10" kvg:type="&#12754;" d="M68.89,8.92c0.06,0.95,0.13,0.9,0.13,2.2c0,8.9-3.24,28.05-20.83,34.87"/></g><path id="kvg:09df2-s11" kvg:type="&#12767;" d="M69.77,27.29c0.49,0.64,0.89,1.39,0.92,2.37c0.13,4.38-0.35,8.63-0.35,11.61c0,6.96,5.93,6.17,11.77,6.17c11.41,0,12.58-0.38,12.58-4.88"/></g></g><g id="kvg:09df2-g11" kvg:element="&#20022;"><path id="kvg:09df2-s12" kvg:type="&#12756;" d="M80.21,8.72c2.36,0.77,6.09,3.16,6.68,4.36"/></g></g></g><g id="kvg:09df2-g12" kvg:element="&#40165;" kvg:position="bottom" kvg:radical="general"><path id="kvg:09df2-s13" kvg:type="&#12754;" d="M57.03,46.12c0.01,0.19,0.02,0.49-0.02,0.76c-0.28,1.6-1.89,5.12-4.09,7.28"/><path id="kvg:09df2-s14" kvg:type="&#12753;" d="M38.54,55.83c0.4,0.23,0.71,0.55,0.71,0.95c0,4.07,0.04,19.7-0.2,26.1"/><path id="kvg:09df2-s15" kvg:type="&#12757;a" d="M39.75,56.54c1.85-0.06,27.94-2.59,29.75-2.59c2.67,0,3.97,1.08,3.74,2.14c-0.15,0.65-1.96,6.36-3.68,11.36"/><path id="kvg:09df2-s16" kvg:type="&#12752;a" d="M40.04,62.34c2.27,0,28.67-2.38,31.23-2.38"/><path id="kvg:09df2-s17" kvg:type="&#12752;a" d="M39.94,69.34c4.62-0.23,23.83-2.07,29.59-2.27"/><path id="kvg:09df2-s18" kvg:type="&#12752;b" d="M39.2,76.34c11.7-1.14,40.03-4.73,45.05-5.35c1.75-0.22,4.72-0.47,5.61-0.31"/><path id="kvg:09df2-s19" kvg:type="&#12742;a" d="M39.07,83.01c10.86-1.28,38.71-3.46,44.73-3.93c3.92-0.31,4.93,1.43,4.22,3.53c-1.96,5.82-4.4,11.86-7.27,15.83c-3.25,4.51-5,3.26-8.7,0.15"/><g id="kvg:09df2-g13" kvg:element="&#28780;" kvg:variant="true" kvg:original="&#28779;"><path id="kvg:09df2-s20" kvg:type="&#12756;" d="M26.06,88.77c0.65,3.68-0.47,8.12-2.37,10.42"/><path id="kvg:09df2-s21" kvg:type="&#12756;" d="M38.86,89.2c1.71,1.72,3.34,6.45,3.76,9.12"/><path id="kvg:09df2-s22" kvg:type="&#12756;" d="M53.35,87.27c1.33,1.39,3.42,5.74,3.75,7.9"/><path id="kvg:09df2-s23" kvg:type="&#12756;" d="M64.81,85.93c1.8,1.08,4.64,4.43,5.09,6.11"/></g></g></g></g></svg>