<svg xmlns="http://www.w3.org/2000/svg" width="109" height="109" viewBox="0 0 109 109"><g xmlns:kvg="http://kanjivg.tagaini.net" id="kvg:StrokePaths_09e79" style="fill:none;stroke:#000000;stroke-width:3;stroke-linecap:round;stroke-linejoin:round;"><g id="kvg:09e79" kvg:element="&#40569;"><g id="kvg:09e79-g1" kvg:element="&#40565;" kvg:position="left" kvg:radical="general"><g id="kvg:09e79-g2" kvg:element="&#21340;" kvg:original="&#12488;" kvg:position="top"><path id="kvg:09e79-s1" kvg:type="&#12753;" d="M23.28,11.41c0.47,0.4,1.48,2.98,1.57,3.78c0.1,0.8,0.29,15.67,0.2,20.65"/><path id="kvg:09e79-s2" kvg:type="&#12756;" d="M24.95,23.59c1.88-0.23,14.06-1.61,16.05-2.07c1.02-0.23,2.41,0.01,3.25,0.23"/></g><g id="kvg:09e79-g3" kvg:position="bottom"><g id="kvg:09e79-g4" kvg:element="&#22231;" kvg:part="1"><path id="kvg:09e79-s3" kvg:type="&#12753;" d="M11.45,35.16c0.35,1.2,0.86,2.1,0.86,3.69c0.07,11.95,0.07,33.55-0.14,56.37"/><path id="kvg:09e79-s4" kvg:type="&#12757;a" d="M12.56,37.11c13.12-1.26,24.94-3.52,26.96-3.52c2.2,0,2.98,2.08,2.95,4.61c-0.16,13.19-0.64,36.3-0.32,54.93"/></g><path id="kvg:09e79-s5" kvg:type="&#12754;" d="M34.03,39.35c0.26,1,0.42,2.34-0.08,3.98c-4.9,16.05-9.27,26.94-16.15,36.98"/><path id="kvg:09e79-s6" kvg:type="&#12751;" d="M17.98,48.51c6.83,7.68,14.34,22.29,17.96,33.89"/><path id="kvg:09e79-s7" kvg:type="&#12756;" d="M22.5,40.72c1.66,1.64,3.48,4.76,4.36,7.23"/><path id="kvg:09e79-s8" kvg:type="&#12756;" d="M17.81,59.57c1.37,1.5,2.88,4.34,3.61,6.6"/><path id="kvg:09e79-s9" kvg:type="&#12756;" d="M33.99,57.46c1.33,1.7,2.8,4.95,3.5,7.52"/><path id="kvg:09e79-s10" kvg:type="&#12756;" d="M25.54,77.38c1.19,1.79,2.49,5.19,3.12,7.88"/><g id="kvg:09e79-g5" kvg:element="&#22231;" kvg:part="2"><path id="kvg:09e79-s11" kvg:type="&#12752;a" d="M12.61,92.72c8.14-0.97,20.49-2.26,28.88-2.6"/></g></g></g><g id="kvg:09e79-g6" kvg:element="&#21688;" kvg:position="right"><g id="kvg:09e79-g7" kvg:element="&#25101;" kvg:part="1" kvg:variant="true" kvg:original="&#25100;"><g id="kvg:09e79-g8" kvg:element="&#21378;" kvg:part="1"><path id="kvg:09e79-s12" kvg:type="&#12754;" d="M54.03,31.03c0.02,1.33-0.02,3.43-0.04,5.34c-0.16,17.87-2.08,43.6-6.19,51.91"/></g><g id="kvg:09e79-g9" kvg:element="&#25096;" kvg:part="1"><g id="kvg:09e79-g10" kvg:element="&#24331;" kvg:part="1"><g id="kvg:09e79-g11" kvg:element="&#21378;" kvg:part="2"><path id="kvg:09e79-s13" kvg:type="&#12752;" d="M51.58,30.44c1.14,0.49,3.23,0.63,4.37,0.49C64,30,77.8,27.75,90.42,26.67c1.89-0.16,3.04-0.26,3.99-0.02"/></g></g><g id="kvg:09e79-g12" kvg:element="&#19968;"><path id="kvg:09e79-s14" kvg:type="&#12752;" d="M57.15,46.05c1.38,0.19,3.33,0.07,4.18-0.05c3-0.41,4.88-0.96,7.63-1.22c1.4-0.14,2.62-0.25,3.33-0.1"/></g></g></g><g id="kvg:09e79-g13" kvg:element="&#21475;"><path id="kvg:09e79-s15" kvg:type="&#12753;" d="M57.28,58.23c0.32,0.38,0.64,0.7,0.78,1.17c1.1,3.77,2.35,11.51,3.1,18.28"/><path id="kvg:09e79-s16" kvg:type="&#12757;b" d="M58.75,59.32c6.48-1.48,8.58-2.17,12.28-2.67c1.35-0.18,2.17,1.07,1.97,2.14c-0.8,4.41-0.9,7.5-2.09,13.59"/><path id="kvg:09e79-s17" kvg:type="&#12752;b" d="M60.97,74.51c4.36-0.56,5.32-0.72,11.3-1.58"/></g><g id="kvg:09e79-g14" kvg:element="&#25101;" kvg:part="2" kvg:variant="true" kvg:original="&#25100;"><g id="kvg:09e79-g15" kvg:element="&#25096;" kvg:part="2"><g id="kvg:09e79-g16" kvg:element="&#24331;" kvg:part="2"><path id="kvg:09e79-s18" kvg:type="&#12738;" d="M72.11,10.75c1.26,1.81,1.85,2.31,2.05,6.21c1.62,30.54,8.08,60.76,20.78,77.02c4.08,5.23,4.19,1.44,3.56-6.58"/></g><g id="kvg:09e79-g17" kvg:element="&#20031;"><path id="kvg:09e79-s19" kvg:type="&#12754;" d="M92.87,41.87c0.09,1.17,0.18,3.02-0.16,4.7C90.25,58.75,82.5,81.5,63.87,92.37"/></g><g id="kvg:09e79-g18" kvg:element="&#24331;" kvg:part="3"><g id="kvg:09e79-g19" kvg:element="&#20022;"><path id="kvg:09e79-s20" kvg:type="&#12756;" d="M83.06,11.37c2.94,1.71,7.64,5.61,9.01,8.54"/></g></g></g></g></g></g></g></svg>