<svg xmlns="http://www.w3.org/2000/svg" width="109" height="109" viewBox="0 0 109 109"><g xmlns:kvg="http://kanjivg.tagaini.net" id="kvg:StrokePaths_09ea6" style="fill:none;stroke:#000000;stroke-width:3;stroke-linecap:round;stroke-linejoin:round;"><g id="kvg:09ea6" kvg:element="&#40614;" kvg:variant="true" kvg:original="&#40613;" kvg:radical="general"><g id="kvg:09ea6-g1" kvg:position="top"><path id="kvg:09ea6-s1" kvg:type="&#12752;" d="M30.13,26.32c1.93,0.43,4.47,0.81,6.7,0.65c12.45-0.92,25.68-2.77,36.8-3.67c2.31-0.19,4.81-0.45,7.12-0.16"/><path id="kvg:09ea6-s2" kvg:type="&#12753;a" d="M53,11.25c1.25,1.25,1.5,2.75,1.5,4.25c0,2.75-0.25,23.5-0.25,34.5"/><path id="kvg:09ea6-s3" kvg:type="&#12752;" d="M28.88,39.32c1.86,0.3,4.64,0.58,6.28,0.48c12.79-0.8,24.19-2.68,39.48-4.14c2.71-0.26,4.37,0.11,5.74,0.22"/><path id="kvg:09ea6-s4" kvg:type="&#12752;" d="M21.88,53.82c2.67,0.55,5.71,0.47,7.7,0.23c15.92-1.93,35.67-4.55,53.26-5.39c3.34-0.16,5.2-0.04,7.03,0.47"/></g><g id="kvg:09ea6-g2" kvg:element="&#22786;" kvg:position="bottom"><path id="kvg:09ea6-s5" kvg:type="&#12754;" d="M46,55c0.17,1.43-0.54,3.16-1.33,4.4C41.12,65,33.14,74.61,20.62,80.88"/><path id="kvg:09ea6-s6" kvg:type="&#12743;" d="M47.25,62.25c2,0.25,3.52,0.25,5,0.02c4.75-0.76,11.06-2.42,14.68-3.13c3.04-0.6,3.7,1.58,2.35,3.97c-5.19,9.2-29.04,31.36-49.36,36.27"/><path id="kvg:09ea6-s7" kvg:type="&#12751;" d="M40.5,67.75C48.53,72.31,74,90.5,83.9,95.39c2.96,1.46,5.34,2.17,8.22,2.61"/></g></g></g></svg>