<svg xmlns="http://www.w3.org/2000/svg" width="109" height="109" viewBox="0 0 109 109"><g xmlns:kvg="http://kanjivg.tagaini.net" id="kvg:StrokePaths_09eaa" style="fill:none;stroke:#000000;stroke-width:3;stroke-linecap:round;stroke-linejoin:round;"><g id="kvg:09eaa" kvg:element="&#40618;"><g id="kvg:09eaa-g1" kvg:element="&#40613;" kvg:position="nyo" kvg:radical="general"><g id="kvg:09eaa-g2" kvg:element="&#20358;" kvg:position="top"><g id="kvg:09eaa-g3" kvg:element="&#26408;" kvg:part="1"><path id="kvg:09eaa-s1" kvg:type="&#12752;" d="M16.46,25.74c1.31,0.4,2.8,0.43,4.31,0.4c7.98-0.14,15.82-1.93,27.44-2.7c1.5-0.1,2.44,0.07,3.94,0.35"/></g><g id="kvg:09eaa-g4" kvg:element="&#20174;"><g id="kvg:09eaa-g5" kvg:element="&#20154;"><path id="kvg:09eaa-s2" kvg:type="&#12754;" d="M23.63,32.02c0,0.42,0.05,0.76-0.07,1.24c-1.13,4.5-4.49,10.11-9.43,15.08"/><path id="kvg:09eaa-s3" kvg:type="&#12756;" d="M23.35,39.76c1.87,0.98,4.27,3.59,5.18,6.06"/></g><g id="kvg:09eaa-g6" kvg:element="&#20154;"><path id="kvg:09eaa-s4" kvg:type="&#12754;" d="M49.79,30.11c0,0.35,0.07,0.65-0.07,1.04c-1.17,3.39-4.51,9.42-8.49,12.84"/><path id="kvg:09eaa-s5" kvg:type="&#12756;" d="M48.31,38.35c2.67,1.93,4.72,4.34,6.32,7.27"/></g></g><g id="kvg:09eaa-g7" kvg:element="&#26408;" kvg:part="2"><path id="kvg:09eaa-s6" kvg:type="&#12753;" d="M33.44,10.75c1.1,0.44,1.99,1.96,1.99,2.87c0,9.27-0.22,32.88-0.22,41.38"/><path id="kvg:09eaa-s7" kvg:type="&#12754;" d="M34.93,44.2c-3.94,6.74-14.49,17.04-22.68,20.86"/><path id="kvg:09eaa-s8" kvg:type="&#12751;" d="M38.32,47.66c5.68,2.09,12.43,7.59,15.59,12.98"/></g></g><g id="kvg:09eaa-g8" kvg:element="&#22786;" kvg:position="bottom"><path id="kvg:09eaa-s9" kvg:type="&#12754;" d="M32.37,58.75c0.06,0.53,0.25,1.41-0.11,2.11c-2.76,5.39-9.51,12.89-19.75,20.2"/><path id="kvg:09eaa-s10" kvg:type="&#12743;" d="M32.07,65.77c0.26,0.03,1.67,0.29,2.42,0.2c3.34-0.36,6.22-1.21,9.72-2.12c2.4-0.63,3.08,0.72,2.47,2.44c-3.36,9.39-17.43,25.46-34.32,32.21"/><path id="kvg:09eaa-s11" kvg:type="&#12756;" d="M24.89,70.78c8,4.25,44.27,20.38,55.05,24.26c3.22,1.16,5.82,1.72,8.95,2.06"/></g></g><g id="kvg:09eaa-g9" kvg:element="&#27491;" kvg:variant="true"><path id="kvg:09eaa-s12" kvg:type="&#12752;" d="M57.75,20.39c0.94,0.38,2.66,0.42,3.6,0.38c6.9-0.27,26.82-3.33,32.61-2.88c1.56,0.12,2.5,0.18,3.29,0.37"/><g id="kvg:09eaa-g10" kvg:element="&#27490;" kvg:variant="true"><g id="kvg:09eaa-g11" kvg:element="&#21340;" kvg:variant="true" kvg:original="&#12488;"><path id="kvg:09eaa-s13" kvg:type="&#12753;" d="M74.19,22.5c1.1,0.44,1.99,1.96,1.99,2.87c0,9.27-0.22,25.88-0.22,34.38"/><path id="kvg:09eaa-s14" kvg:type="&#12742;" d="M60.94,36.25c1.1,0.44,2.08,1.96,1.99,2.87C62,48,61.04,51.69,60.2,60c-0.2,2-0.45,2.25,2.3,1.75s25.5-4,29.75-4"/></g><path id="kvg:09eaa-s15" kvg:type="&#12740;" d="M76.11,41.04c5.93-1.69,13.5-3.68,16.79-4.3c2.14-0.4,2.73,1.82,2.61,4.66c-0.31,7.48-4.43,38.02-7.74,43.11c-3.09,4.75-6.34,0.28-7.2-0.61"/></g></g></g></g></svg>