<svg xmlns="http://www.w3.org/2000/svg" width="109" height="109" viewBox="0 0 109 109"><g xmlns:kvg="http://kanjivg.tagaini.net" id="kvg:StrokePaths_09eb9" style="fill:none;stroke:#000000;stroke-width:3;stroke-linecap:round;stroke-linejoin:round;"><g id="kvg:09eb9" kvg:element="&#40633;"><g id="kvg:09eb9-g1" kvg:element="&#40614;" kvg:variant="true" kvg:original="&#40613;" kvg:position="nyo" kvg:radical="general"><g id="kvg:09eb9-g2" kvg:position="top"><path id="kvg:09eb9-s1" kvg:type="&#12752;" d="M12.38,24.57c2.26,0.55,4.55,0.72,6.87,0.5c7.37-0.53,18.58-1.71,25.13-2.22c1.79-0.27,3.57-0.25,5.35,0.04"/><path id="kvg:09eb9-s2" kvg:type="&#12753;a" d="M29.75,13.25c0.81,0.81,1.23,2,1.23,3.25c0,1.02-0.11,19.25-0.11,30.25"/><path id="kvg:09eb9-s3" kvg:type="&#12752;" d="M14.63,36.82c2.27,0.59,4.55,0.64,6.89,0.35c6.35-0.79,12.85-1.67,18.59-2.5c1.84-0.27,3.51-0.42,5.36-0.28"/><path id="kvg:09eb9-s4" kvg:type="&#12752;" d="M10,49.82c2.69,0.28,5.36,0.23,8.02-0.17c9-1.3,15.77-1.99,23.75-2.49c2.29-0.19,4.59-0.2,6.9-0.03"/></g><g id="kvg:09eb9-g3" kvg:element="&#22786;" kvg:position="bottom"><path id="kvg:09eb9-s5" kvg:type="&#12754;" d="M26.83,52c0.17,1,0.05,1.86-0.17,2.88C24.88,60.62,19.62,71.75,11.82,80"/><path id="kvg:09eb9-s6" kvg:type="&#12743;" d="M27.42,62c1.14,0.11,2.25,0.02,3.35-0.27c3.01-0.64,6.83-1.6,9.51-2.3c2.52-0.66,4.36-0.12,2.93,3.18c-3.99,9.2-14.95,27.64-31.79,36.27"/><path id="kvg:09eb9-s7" kvg:type="&#12751;" d="M21.5,71.25C31,75,56.12,86,72.57,92.64c4.72,1.91,10.17,3.11,15.18,4.11"/></g></g><g id="kvg:09eb9-g4" kvg:element="&#21241;"><g id="kvg:09eb9-g5" kvg:element="&#20031;"><path id="kvg:09eb9-s8" kvg:type="&#12754;" d="M64.89,12.5c0.05,1.13-0.04,2.01-0.48,3.05c-3.03,7.2-6.09,12.82-11.38,20.55"/></g><path id="kvg:09eb9-s9" kvg:type="&#12742;" d="M62.58,26.48c2.52,0.51,5,0.27,7.45-0.23c4.59-0.84,11.6-2,16.87-3.24c6.37-1.49,7.35,0.13,7.13,5.74c-0.46,11.68-0.77,30.51-4.31,47.31C87,88.88,85,87.38,81.17,81.16"/></g><g id="kvg:09eb9-g6" kvg:element="&#31859;" kvg:variant="true"><path id="kvg:09eb9-s10" kvg:type="&#12756;" d="M56.87,39.6c1.5,1.5,3.76,5.75,4.13,8.09"/><path id="kvg:09eb9-s11" kvg:type="&#12754;" d="M82.67,35.13c0,0.87-0.22,2-0.69,2.73c-1.85,2.89-3.35,4.89-6.3,8.01"/><path id="kvg:09eb9-s12" kvg:type="&#12752;" d="M51.2,52.42c2.51,0.71,5.04,0.56,7.69,0.32c6.84-0.62,16.57-1.75,22.35-2.28c1.76-0.19,3.5,0.04,5.28,0.04"/><path id="kvg:09eb9-s13" kvg:type="&#12753;" d="M66.81,32.72c0.93,0.93,1.1,2.41,1.1,3.29c0,0.5-0.02,24.9-0.03,38.24c0,4.06,0,7.09,0,8.12"/><path id="kvg:09eb9-s14" kvg:type="&#12754;" d="M67.34,52.33c-0.09,1.67-1.15,3.37-2.21,4.86c-4.15,5.79-11.09,11.41-18.24,15.69"/><path id="kvg:09eb9-s15" kvg:type="&#12756;/&#12751;" d="M71.18,57.11c4.54,2.88,9.19,6.88,12.01,12.16"/></g></g></g></svg>