<svg xmlns="http://www.w3.org/2000/svg" width="109" height="109" viewBox="0 0 109 109"><g xmlns:kvg="http://kanjivg.tagaini.net" id="kvg:StrokePaths_09ed1" style="fill:none;stroke:#000000;stroke-width:3;stroke-linecap:round;stroke-linejoin:round;"><g id="kvg:09ed1" kvg:element="&#40657;" kvg:variant="true" kvg:original="&#40658;" kvg:radical="tradit"><g id="kvg:09ed1-g1" kvg:element="&#37324;" kvg:variant="true" kvg:position="top"><path id="kvg:09ed1-s1" kvg:type="&#12753;" d="M22.62,12c0.95,0.92,1.73,2.62,1.97,3.88c1.39,7.32,2.46,13.72,3.75,20.88c0.36,2.01,0.74,4.08,1.16,6.25"/><path id="kvg:09ed1-s2" kvg:type="&#12757;" d="M25.37,14.48c17.01-2.23,41.13-4.61,54.7-5.79c3.35-0.29,5.59,1.01,5.08,4.45c-0.79,5.32-4.15,18.32-6.56,25.21"/><path id="kvg:09ed1-s3" kvg:type="&#12756;" d="M34.25,20.12c3.72,1.9,9.6,7.8,10.53,10.76"/><path id="kvg:09ed1-s4" kvg:type="&#12754;" d="M71.52,16.41c0.1,1.18,0.04,2.38-0.55,3.41c-1.6,2.8-3.72,5.68-7.97,9.68"/><path id="kvg:09ed1-s5" kvg:type="&#12752;" d="M29.97,39.91c14.16-2.53,33.16-4.03,48.37-4.86"/><path id="kvg:09ed1-s6" kvg:type="&#12753;" d="M51.77,13.31c1.33,1.33,1.65,2.44,1.65,4.43c0,11.39-0.05,42.92-0.05,46.13"/><path id="kvg:09ed1-s7" kvg:type="&#12752;" d="M28.88,52.14c3.1,0.81,6.34,1.05,9.52,0.72c8.48-0.86,21.1-2.24,33.99-3.11c2.52-0.17,5.32-0.17,7.81,0.22"/><path id="kvg:09ed1-s8" kvg:type="&#12752;" d="M16.88,66.97c3.95,1.16,6.94,1.53,11.13,1.05c15.62-1.78,34.24-4.03,52.87-4.11c4.09-0.02,8.12,0.46,11.5,1.51"/></g><g id="kvg:09ed1-g2" kvg:element="&#28780;" kvg:variant="true" kvg:original="&#28779;" kvg:position="bottom"><path id="kvg:09ed1-s9" kvg:type="&#12756;" d="M23.25,81.12C21.81,87.8,14.87,95.58,13,97.25"/><path id="kvg:09ed1-s10" kvg:type="&#12756;" d="M41.75,79.5c1.71,2.87,4.75,9.38,5.26,14.75"/><path id="kvg:09ed1-s11" kvg:type="&#12756;" d="M63.12,77.5c3,2.6,6.5,9.38,7.38,14.75"/><path id="kvg:09ed1-s12" kvg:type="&#12756;" d="M85.46,77.83c4.54,3.79,11.53,12.3,12.6,16.38"/></g></g></g></svg>