<svg xmlns="http://www.w3.org/2000/svg" width="109" height="109" viewBox="0 0 109 109"><g xmlns:kvg="http://kanjivg.tagaini.net" id="kvg:StrokePaths_09f21" style="fill:none;stroke:#000000;stroke-width:3;stroke-linecap:round;stroke-linejoin:round;"><g id="kvg:09f21" kvg:element="&#40737;" kvg:variant="true" kvg:original="&#40736;" kvg:radicalForm="true"><g id="kvg:09f21-g1" kvg:element="&#33276;" kvg:variant="true" kvg:position="top"><g id="kvg:09f21-g2" kvg:element="&#11917;" kvg:original="&#12388;"><path id="kvg:09f21-s1" kvg:type="&#12756;" d="M24.43,17.52c5.18,4.68,10.73,12.88,11.47,15.23"/><path id="kvg:09f21-s2" kvg:type="&#12756;" d="M43.95,11.94c2.88,3.22,9.8,11.68,10.96,16.92"/><path id="kvg:09f21-s3" kvg:type="&#12754;" d="M80.11,9.5c0.63,0.94,1.97,2.16,0.94,3.76c-2.55,3.99-9.71,13.66-11.9,16.48"/></g></g><g id="kvg:09f21-g3" kvg:element="&#29992;" kvg:variant="true" kvg:position="bottom"><path id="kvg:09f21-s4" kvg:type="&#12754;" d="M27.47,39.39c1.03,0.81,1.72,1.62,2.06,2.43c0.34,0.81,0.34,21.36,0.34,23.18c0,15.19-7.11,29.39-16.37,35.25"/><path id="kvg:09f21-s5" kvg:type="&#12744;" d="M29.75,42.5c11-1.75,41.75-5.75,45.75-5.75c2.25,0,5,1,5,3.75c0,18.5-1.92,37.7,7.5,54.25c5.07,8.91,5.75,3.5,6-3"/><path id="kvg:09f21-s6" kvg:type="&#12752;" d="M30.24,58.91c12.26-0.91,38.51-4.2,50-4.2"/><path id="kvg:09f21-s7" kvg:type="&#12752;" d="M29,76c8.79-0.78,41.83-3.73,52-4.25"/><path id="kvg:09f21-s8" kvg:type="&#12753;" d="M52.37,41.75c1.09,0.5,1.74,2.25,1.96,3.25c0.22,1,0,46.75-0.22,53"/></g></g></g></svg>