<svg xmlns="http://www.w3.org/2000/svg" width="109" height="109" viewBox="0 0 109 109"><g xmlns:kvg="http://kanjivg.tagaini.net" id="kvg:StrokePaths_09f52" style="fill:none;stroke:#000000;stroke-width:3;stroke-linecap:round;stroke-linejoin:round;"><g id="kvg:09f52" kvg:element="&#40786;" kvg:radical="general"><g id="kvg:09f52-g1" kvg:element="&#27490;" kvg:position="top"><g id="kvg:09f52-g2" kvg:element="&#21340;" kvg:original="&#12488;"><path id="kvg:09f52-s1" kvg:type="&#12753;a" d="M51.75,11c1.08,0.5,1.94,2.23,1.94,3.25c0,5.25,0.28,14.25,0.28,19.25"/><path id="kvg:09f52-s2" kvg:type="&#12752;b/&#12756;" d="M54.74,22.75c7.05-0.75,14.7-2,22.11-2.5c1.72-0.12,2.16-0.25,3.23,0"/></g><path id="kvg:09f52-s3" kvg:type="&#12753;a" d="M32.45,18c1.08,0.5,1.72,2.25,1.94,3.25c0.21,1,0,7.75-0.22,14"/><path id="kvg:09f52-s4" kvg:type="&#12752;" d="M16.25,35.75c0.81,0.25,2.99,0.84,5.15,0.75C33.09,36,72,32,83.07,32c2.17,0,5.94,0.5,7.18,0.75"/></g><g id="kvg:09f52-g3" kvg:position="bottom"><g id="kvg:09f52-g4" kvg:element="&#20174;"><g id="kvg:09f52-g5" kvg:element="&#20154;"><path id="kvg:09f52-s5" kvg:type="&#12754;" d="M44.88,38.24c0.21,0.21-0.11,2.08-0.27,2.53c-1.77,4.92-6.36,12.97-12.89,17.6"/><path id="kvg:09f52-s6" kvg:type="&#12756;" d="M42.89,48.21c3.39,1.42,7.71,5.2,9.36,8.79"/></g><g id="kvg:09f52-g6" kvg:element="&#20154;"><path id="kvg:09f52-s7" kvg:type="&#12754;" d="M68.39,37.74c0.18,0.19-0.09,1.93-0.22,2.35c-1.47,4.55-5.27,12.01-10.69,16.29"/><path id="kvg:09f52-s8" kvg:type="&#12756;" d="M66.39,47.71c3.39,1.42,7.71,5.2,9.36,8.79"/></g></g><path id="kvg:09f52-s9" kvg:type="&#12752;" d="M26.5,64c3.5,0,52.5-3.25,55.75-3.25"/><g id="kvg:09f52-g7" kvg:element="&#20174;"><g id="kvg:09f52-g8" kvg:element="&#20154;"><path id="kvg:09f52-s10" kvg:type="&#12754;" d="M44.88,68.24c0.21,0.21-0.11,2.08-0.27,2.54c-1.77,4.92-6.36,12.97-12.89,17.6"/><path id="kvg:09f52-s11" kvg:type="&#12756;" d="M42.89,77.71c3.02,1.22,6.89,4.46,8.36,7.54"/></g><g id="kvg:09f52-g9" kvg:element="&#20154;"><path id="kvg:09f52-s12" kvg:type="&#12754;" d="M66.89,66.24c0.18,0.21-0.09,2.11-0.23,2.57c-1.5,4.98-5.39,13.13-10.94,17.82"/><path id="kvg:09f52-s13" kvg:type="&#12756;" d="M65.64,75.96c3.66,1.62,8.33,5.94,10.11,10.04"/></g></g><g id="kvg:09f52-g10" kvg:element="&#20981;"><path id="kvg:09f52-s14" kvg:type="&#12759;a" d="M23.81,42.88c0.76,0.45,2.19,1.87,2.01,4.25c-0.07,0.91-0.43,43.63-0.5,45s0.65,2.51,2.15,2.39c16.27-1.27,39.52-2.27,54.77-2.77"/><path id="kvg:09f52-s15" kvg:type="&#12753;" d="M81.79,38.38c0.47,0.45,1.48,3.35,1.57,4.25c0.09,0.9-0.2,31.87-0.16,52.75"/></g></g></g></g></svg>