<svg xmlns="http://www.w3.org/2000/svg" width="109" height="109" viewBox="0 0 109 109"><g xmlns:kvg="http://kanjivg.tagaini.net" id="kvg:StrokePaths_09f54" style="fill:none;stroke:#000000;stroke-width:3;stroke-linecap:round;stroke-linejoin:round;"><g id="kvg:09f54" kvg:element="&#40788;"><g id="kvg:09f54-g1" kvg:element="&#40786;" kvg:position="left" kvg:radical="general"><g id="kvg:09f54-g2" kvg:element="&#27490;" kvg:position="top"><g id="kvg:09f54-g3" kvg:element="&#21340;" kvg:original="&#12488;"><path id="kvg:09f54-s1" kvg:type="&#12753;a" d="M33.59,11.5c0.65,0.51,1.17,2.25,1.17,3.29c0,5.31,0.17,12.92,0.17,17.98"/><path id="kvg:09f54-s2" kvg:type="&#12752;b/&#12756;" d="M35.39,22.89c4.24-0.76,7.84-1.02,12.3-1.53c1.04-0.12,1.3-0.25,1.94,0"/></g><path id="kvg:09f54-s3" kvg:type="&#12753;a" d="M20.99,18.08c0.65,0.51,1.04,2.28,1.17,3.29c0.13,1.01,0,6.34-0.13,12.67"/><path id="kvg:09f54-s4" kvg:type="&#12752;" d="M10.75,34.04c0.49,0.25,1.8,0.85,3.1,0.76c7.03-0.51,29.93-2.55,36.58-2.55c1.31,0,3.57,0.01,4.32,0.26"/></g><g id="kvg:09f54-g4" kvg:position="bottom"><g id="kvg:09f54-g5" kvg:element="&#20174;"><g id="kvg:09f54-g6" kvg:element="&#20154;"><path id="kvg:09f54-s5" kvg:type="&#12754;" d="M27.97,38.56c0.1,0.19-0.05,1.93-0.12,2.34c-0.79,4.55-2.86,12-5.8,16.28"/><path id="kvg:09f54-s6" kvg:type="&#12756;" d="M27.27,46.66c1.86,0.95,4.23,3.49,5.13,5.89"/></g><g id="kvg:09f54-g7" kvg:element="&#20154;"><path id="kvg:09f54-s7" kvg:type="&#12754;" d="M41.09,39.06c0.13,0.19-0.07,1.98-0.17,2.4c-1.12,4.67-4.01,12.31-8.14,16.7"/><path id="kvg:09f54-s8" kvg:type="&#12756;" d="M40.4,47.4c2.04,1.24,4.64,4.52,5.63,7.64"/></g></g><path id="kvg:09f54-s9" kvg:type="&#12752;" d="M16.91,64.63c2.1,0,31.57-3.29,33.53-3.29"/><g id="kvg:09f54-g8" kvg:element="&#20174;"><g id="kvg:09f54-g9" kvg:element="&#20154;"><path id="kvg:09f54-s10" kvg:type="&#12754;" d="M28.96,68.42c0.13,0.2-0.07,2-0.17,2.44c-1.13,4.73-4.06,12.48-8.24,16.93"/><path id="kvg:09f54-s11" kvg:type="&#12756;" d="M28.02,76.76c1.37,0.87,3.11,3.18,3.78,5.37"/></g><g id="kvg:09f54-g10" kvg:element="&#20154;"><path id="kvg:09f54-s12" kvg:type="&#12754;" d="M41.69,67.9c0.15,0.21-0.08,2.19-0.19,2.66c-1.27,5.16-4.57,13.61-9.26,18.47"/><path id="kvg:09f54-s13" kvg:type="&#12756;" d="M39.45,77.73c2.2,1.4,5.01,5.12,6.08,8.65"/></g></g><g id="kvg:09f54-g11" kvg:element="&#20981;"><path id="kvg:09f54-s14" kvg:type="&#12759;a" d="M15.8,42.26c0.46,0.45,1.32,1.89,1.21,4.3c-0.04,0.92-0.26,45.15-0.3,46.53c-0.04,1.38,0.39,2.54,1.29,2.42c9.79-1.29,23.77-2.3,32.94-2.81"/><path id="kvg:09f54-s15" kvg:type="&#12753;" d="M50.16,38.71c0.28,0.45,0.89,3.39,0.94,4.3s-0.12,32.25-0.09,53.38"/></g></g></g><g id="kvg:09f54-g12" kvg:element="&#21269;" kvg:position="right"><path id="kvg:09f54-s16" kvg:type="&#12754;" d="M91.51,30.56c0.21,0.45,0.35,1.77-0.2,2.46C87.75,37.52,75.52,49.9,64,54.5"/><path id="kvg:09f54-s17" kvg:type="&#12767;" d="M62,14.25c1.07,1.19,1.15,1.99,1.51,3.57c0.36,1.59,0.36,60.16,0.36,65.14c0,12.79,2.88,13.29,15.13,13.29c15,0,16.5-1,16.5-11.05"/></g></g></g></svg>