<svg xmlns="http://www.w3.org/2000/svg" width="109" height="109" viewBox="0 0 109 109"><g xmlns:kvg="http://kanjivg.tagaini.net" id="kvg:StrokePaths_09f5f" style="fill:none;stroke:#000000;stroke-width:3;stroke-linecap:round;stroke-linejoin:round;"><g id="kvg:09f5f" kvg:element="&#40799;"><g id="kvg:09f5f-g1" kvg:element="&#40786;" kvg:position="left" kvg:radical="general"><g id="kvg:09f5f-g2" kvg:element="&#27490;" kvg:position="top"><g id="kvg:09f5f-g3" kvg:element="&#21340;" kvg:original="&#12488;"><path id="kvg:09f5f-s1" kvg:type="&#12753;a" d="M30.09,13c0.65,0.51,1.17,2.25,1.17,3.29c0,5.31,0.17,10.92,0.17,15.98"/><path id="kvg:09f5f-s2" kvg:type="&#12752;b/&#12756;" d="M31.39,23.52c4.91-0.88,9.08-1.19,14.24-1.77c1.2-0.14,1.5-0.29,2.25,0"/></g><path id="kvg:09f5f-s3" kvg:type="&#12753;a" d="M18.99,18.58c0.65,0.51,1.04,2.28,1.17,3.29c0.13,1.01,0,5.34-0.13,11.67"/><path id="kvg:09f5f-s4" kvg:type="&#12752;" d="M7.75,33.54c0.49,0.25,1.8,0.85,3.1,0.76c7.03-0.51,30.93-3.05,37.58-3.05c1.31,0,3.57,0.01,4.32,0.26"/></g><g id="kvg:09f5f-g4" kvg:position="bottom"><g id="kvg:09f5f-g5" kvg:element="&#20174;"><g id="kvg:09f5f-g6" kvg:element="&#20154;"><path id="kvg:09f5f-s5" kvg:type="&#12754;" d="M26.71,39.81c0.12,0.18-0.06,1.85-0.16,2.25c-1.03,4.37-3.7,11.52-7.5,15.62"/><path id="kvg:09f5f-s6" kvg:type="&#12756;" d="M25.02,48.16c1.58,0.87,3.61,3.19,4.38,5.39"/></g><g id="kvg:09f5f-g7" kvg:element="&#20154;"><path id="kvg:09f5f-s7" kvg:type="&#12754;" d="M39.59,40.06c0.14,0.18-0.07,1.85-0.18,2.25c-1.18,4.36-4.25,11.5-8.62,15.61"/><path id="kvg:09f5f-s8" kvg:type="&#12756;" d="M36.9,49.4c2.04,1.24,4.64,4.52,5.63,7.64"/></g></g><path id="kvg:09f5f-s9" kvg:type="&#12752;" d="M13.91,65.13c2.1,0,31.57-3.29,33.53-3.29"/><g id="kvg:09f5f-g8" kvg:element="&#20174;"><g id="kvg:09f5f-g9" kvg:element="&#20154;"><path id="kvg:09f5f-s10" kvg:type="&#12754;" d="M25.47,70.42c0.1,0.17-0.05,1.75-0.13,2.12c-0.86,4.12-3.1,10.87-6.29,14.75"/><path id="kvg:09f5f-s11" kvg:type="&#12756;" d="M25.52,77.76c1.37,0.87,3.11,3.18,3.78,5.37"/></g><g id="kvg:09f5f-g10" kvg:element="&#20154;"><path id="kvg:09f5f-s12" kvg:type="&#12754;" d="M38.69,69.9c0.14,0.18-0.07,1.85-0.17,2.25c-1.13,4.37-4.08,11.52-8.28,15.63"/><path id="kvg:09f5f-s13" kvg:type="&#12756;" d="M36.7,77.23c2.11,1.16,4.8,4.24,5.83,7.15"/></g></g><g id="kvg:09f5f-g11" kvg:element="&#20981;"><path id="kvg:09f5f-s14" kvg:type="&#12759;a" d="M12.3,41.26c0.46,0.45,1.32,1.89,1.21,4.3c-0.04,0.92-0.26,45.15-0.3,46.53c-0.04,1.38,0.39,2.54,1.29,2.42c9.79-1.29,23.77-2.3,32.94-2.81"/><path id="kvg:09f5f-s15" kvg:type="&#12753;" d="M47.16,39.21c0.28,0.45,0.89,3.39,0.94,4.3s-0.12,32.25-0.09,53.38"/></g></g></g><g id="kvg:09f5f-g12" kvg:element="&#19988;" kvg:position="right"><g id="kvg:09f5f-g13" kvg:element="&#26376;"><path id="kvg:09f5f-s16" kvg:type="&#12753;a" d="M61.12,17.62c0.75,1.05,1.25,2.08,1.5,3.11c0.25,1.02,0.55,67.94,0.46,70.21"/><path id="kvg:09f5f-s17" kvg:type="&#12757;b" d="M63.09,19.78c2.97-0.11,17.67-3.03,19.87-3.2c3.96-0.31,5.46,3.56,4.97,5.05c-0.47,1.43-0.23,47.27-0.38,67.74"/><path id="kvg:09f5f-s18" kvg:type="&#12752;a" d="M63.19,42.24c10.13-1.02,15.19-0.97,24.09-1.29"/><path id="kvg:09f5f-s19" kvg:type="&#12752;a" d="M63.29,62.5c7.91-0.37,14.71-1.29,23.86-1.34"/></g><g id="kvg:09f5f-g14" kvg:element="&#19968;"><path id="kvg:09f5f-s20" kvg:type="&#12752;" d="M53.91,91.06c1.49,0.44,4.22,0.52,5.71,0.44C69,91,83.25,89.25,93.78,89.54c2.48,0.07,3.97,0.21,5.22,0.43"/></g></g></g></g></svg>