<svg xmlns="http://www.w3.org/2000/svg" width="109" height="109" viewBox="0 0 109 109"><g xmlns:kvg="http://kanjivg.tagaini.net" id="kvg:StrokePaths_0f9b0" style="fill:none;stroke:#000000;stroke-width:3;stroke-linecap:round;stroke-linejoin:round;"><g id="kvg:0f9b0" kvg:element="&#32838;"><g id="kvg:0f9b0-g1" kvg:element="&#32819;" kvg:position="left" kvg:radical="general"><path id="kvg:0f9b0-s1" kvg:type="&#12752;" d="M12.05,19.3c0.75,0.35,2.13,0.4,2.88,0.35c5.97-0.33,17.83-2.62,26.68-3.23c1.25-0.09,2.01,0.17,2.63,0.35"/><path id="kvg:0f9b0-s2" kvg:type="&#12753;a" d="M19.37,21.57c0.63,0.68,0.99,2.33,0.99,3.72c0,1.39-0.12,41.3-0.12,46.29"/><path id="kvg:0f9b0-s3" kvg:type="&#12752;a" d="M21.21,36.91c5.29-0.91,9.02-1.38,15.3-2.18"/><path id="kvg:0f9b0-s4" kvg:type="&#12752;a" d="M20.96,52.1c5.6-0.73,7.84-1.34,14.68-1.85"/><path id="kvg:0f9b0-s5" kvg:type="&#12736;" d="M12.25,74.93c0.75,0.82,2.38,0.9,2.94,0.67c2.24-0.92,16.62-7.87,20.06-9.35"/><path id="kvg:0f9b0-s6" kvg:type="&#12753;" d="M36.01,20.5c0.77,1.25,0.85,1.46,0.85,2.85s0.12,61.03,0.12,72.4"/></g><g id="kvg:0f9b0-g2" kvg:element="&#20196;" kvg:position="right"><g id="kvg:0f9b0-g3" kvg:element="&#20154;" kvg:position="top"><path id="kvg:0f9b0-s7" kvg:type="&#12754;" d="M64.89,11.75c0.07,0.97,0.32,2.56-0.14,3.92c-2.92,8.59-11,26.58-23,36.58"/><path id="kvg:0f9b0-s8" kvg:type="&#12751;" d="M65.67,14.54c4.76,5.28,22.08,26.65,26.1,31.03c1.37,1.49,3.12,2.13,4.48,2.55"/></g><g id="kvg:0f9b0-g4" kvg:position="bottom"><g id="kvg:0f9b0-g5" kvg:element="&#19968;"><path id="kvg:0f9b0-s9" kvg:type="&#12752;" d="M 54.533333,45.645833 c 1.76,0.72 3.84,0.36 5.65,0.14 5.4,-0.66 13.08,-1.76 18.48,-2.24 1.88,-0.17 3.54,-0.23 5.37,0.21"/></g><g id="kvg:0f9b0-g6" kvg:element="&#21353;" kvg:original="&#12510;"><path id="kvg:0f9b0-s10" kvg:type="&#12742;" d="M 49.129166,57.325 c 0.650143,0.471144 1.410417,0.772917 3.301667,0.415833 5.106666,-0.824166 31.842083,-2.316875 33.362083,-2.466875 1.52,-0.15 4.28,-0.29 3.95,2.89 -0.43,4.17 -4.383125,16.352291 -7.703125,23.385833 -1.89,3.94 -3.18,3.45 -6.23,0.46"/><path id="kvg:0f9b0-s11" kvg:type="&#12753;" d="M  63.804166,57.952084 c 0.87,0.87 1.8,2 1.8,3.5 -0.219826,13.545146 0.202719,25.73739 -0.18,39.277496"/></g></g></g></g></g></svg>